%TF.GenerationSoftware,KiCad,Pcbnew,(6.0.7)*%
%TF.CreationDate,2022-10-11T20:39:03-05:00*%
%TF.ProjectId,PCA9535,50434139-3533-4352-9e6b-696361645f70,rev?*%
%TF.SameCoordinates,Original*%
%TF.FileFunction,Legend,Bot*%
%TF.FilePolarity,Positive*%
%FSLAX46Y46*%
G04 Gerber Fmt 4.6, Leading zero omitted, Abs format (unit mm)*
G04 Created by KiCad (PCBNEW (6.0.7)) date 2022-10-11 20:39:03*
%MOMM*%
%LPD*%
G01*
G04 APERTURE LIST*
%ADD10C,0.125000*%
%ADD11C,0.150000*%
%ADD12C,0.120000*%
G04 APERTURE END LIST*
D10*
X168892857Y-96654761D02*
X169297619Y-96654761D01*
X169345238Y-96630952D01*
X169369047Y-96607142D01*
X169392857Y-96559523D01*
X169392857Y-96488095D01*
X169369047Y-96440476D01*
X169202380Y-96654761D02*
X169226190Y-96607142D01*
X169226190Y-96511904D01*
X169202380Y-96464285D01*
X169178571Y-96440476D01*
X169130952Y-96416666D01*
X168988095Y-96416666D01*
X168940476Y-96440476D01*
X168916666Y-96464285D01*
X168892857Y-96511904D01*
X168892857Y-96607142D01*
X168916666Y-96654761D01*
X168892857Y-96892857D02*
X169226190Y-96892857D01*
X168940476Y-96892857D02*
X168916666Y-96916666D01*
X168892857Y-96964285D01*
X168892857Y-97035714D01*
X168916666Y-97083333D01*
X168964285Y-97107142D01*
X169226190Y-97107142D01*
X169226190Y-97559523D02*
X168726190Y-97559523D01*
X169202380Y-97559523D02*
X169226190Y-97511904D01*
X169226190Y-97416666D01*
X169202380Y-97369047D01*
X169178571Y-97345238D01*
X169130952Y-97321428D01*
X168988095Y-97321428D01*
X168940476Y-97345238D01*
X168916666Y-97369047D01*
X168892857Y-97416666D01*
X168892857Y-97511904D01*
X168916666Y-97559523D01*
X175619047Y-88726190D02*
X175309523Y-88726190D01*
X175476190Y-88916666D01*
X175404761Y-88916666D01*
X175357142Y-88940476D01*
X175333333Y-88964285D01*
X175309523Y-89011904D01*
X175309523Y-89130952D01*
X175333333Y-89178571D01*
X175357142Y-89202380D01*
X175404761Y-89226190D01*
X175547619Y-89226190D01*
X175595238Y-89202380D01*
X175619047Y-89178571D01*
X175166666Y-88726190D02*
X175000000Y-89226190D01*
X174833333Y-88726190D01*
X174714285Y-88726190D02*
X174404761Y-88726190D01*
X174571428Y-88916666D01*
X174500000Y-88916666D01*
X174452380Y-88940476D01*
X174428571Y-88964285D01*
X174404761Y-89011904D01*
X174404761Y-89130952D01*
X174428571Y-89178571D01*
X174452380Y-89202380D01*
X174500000Y-89226190D01*
X174642857Y-89226190D01*
X174690476Y-89202380D01*
X174714285Y-89178571D01*
X168892857Y-88654761D02*
X169297619Y-88654761D01*
X169345238Y-88630952D01*
X169369047Y-88607142D01*
X169392857Y-88559523D01*
X169392857Y-88488095D01*
X169369047Y-88440476D01*
X169202380Y-88654761D02*
X169226190Y-88607142D01*
X169226190Y-88511904D01*
X169202380Y-88464285D01*
X169178571Y-88440476D01*
X169130952Y-88416666D01*
X168988095Y-88416666D01*
X168940476Y-88440476D01*
X168916666Y-88464285D01*
X168892857Y-88511904D01*
X168892857Y-88607142D01*
X168916666Y-88654761D01*
X168892857Y-88892857D02*
X169226190Y-88892857D01*
X168940476Y-88892857D02*
X168916666Y-88916666D01*
X168892857Y-88964285D01*
X168892857Y-89035714D01*
X168916666Y-89083333D01*
X168964285Y-89107142D01*
X169226190Y-89107142D01*
X169226190Y-89559523D02*
X168726190Y-89559523D01*
X169202380Y-89559523D02*
X169226190Y-89511904D01*
X169226190Y-89416666D01*
X169202380Y-89369047D01*
X169178571Y-89345238D01*
X169130952Y-89321428D01*
X168988095Y-89321428D01*
X168940476Y-89345238D01*
X168916666Y-89369047D01*
X168892857Y-89416666D01*
X168892857Y-89511904D01*
X168916666Y-89559523D01*
X168892857Y-92654761D02*
X169297619Y-92654761D01*
X169345238Y-92630952D01*
X169369047Y-92607142D01*
X169392857Y-92559523D01*
X169392857Y-92488095D01*
X169369047Y-92440476D01*
X169202380Y-92654761D02*
X169226190Y-92607142D01*
X169226190Y-92511904D01*
X169202380Y-92464285D01*
X169178571Y-92440476D01*
X169130952Y-92416666D01*
X168988095Y-92416666D01*
X168940476Y-92440476D01*
X168916666Y-92464285D01*
X168892857Y-92511904D01*
X168892857Y-92607142D01*
X168916666Y-92654761D01*
X168892857Y-92892857D02*
X169226190Y-92892857D01*
X168940476Y-92892857D02*
X168916666Y-92916666D01*
X168892857Y-92964285D01*
X168892857Y-93035714D01*
X168916666Y-93083333D01*
X168964285Y-93107142D01*
X169226190Y-93107142D01*
X169226190Y-93559523D02*
X168726190Y-93559523D01*
X169202380Y-93559523D02*
X169226190Y-93511904D01*
X169226190Y-93416666D01*
X169202380Y-93369047D01*
X169178571Y-93345238D01*
X169130952Y-93321428D01*
X168988095Y-93321428D01*
X168940476Y-93345238D01*
X168916666Y-93369047D01*
X168892857Y-93416666D01*
X168892857Y-93511904D01*
X168916666Y-93559523D01*
X175619047Y-96726190D02*
X175309523Y-96726190D01*
X175476190Y-96916666D01*
X175404761Y-96916666D01*
X175357142Y-96940476D01*
X175333333Y-96964285D01*
X175309523Y-97011904D01*
X175309523Y-97130952D01*
X175333333Y-97178571D01*
X175357142Y-97202380D01*
X175404761Y-97226190D01*
X175547619Y-97226190D01*
X175595238Y-97202380D01*
X175619047Y-97178571D01*
X175166666Y-96726190D02*
X175000000Y-97226190D01*
X174833333Y-96726190D01*
X174714285Y-96726190D02*
X174404761Y-96726190D01*
X174571428Y-96916666D01*
X174500000Y-96916666D01*
X174452380Y-96940476D01*
X174428571Y-96964285D01*
X174404761Y-97011904D01*
X174404761Y-97130952D01*
X174428571Y-97178571D01*
X174452380Y-97202380D01*
X174500000Y-97226190D01*
X174642857Y-97226190D01*
X174690476Y-97202380D01*
X174714285Y-97178571D01*
X175619047Y-92726190D02*
X175309523Y-92726190D01*
X175476190Y-92916666D01*
X175404761Y-92916666D01*
X175357142Y-92940476D01*
X175333333Y-92964285D01*
X175309523Y-93011904D01*
X175309523Y-93130952D01*
X175333333Y-93178571D01*
X175357142Y-93202380D01*
X175404761Y-93226190D01*
X175547619Y-93226190D01*
X175595238Y-93202380D01*
X175619047Y-93178571D01*
X175166666Y-92726190D02*
X175000000Y-93226190D01*
X174833333Y-92726190D01*
X174714285Y-92726190D02*
X174404761Y-92726190D01*
X174571428Y-92916666D01*
X174500000Y-92916666D01*
X174452380Y-92940476D01*
X174428571Y-92964285D01*
X174404761Y-93011904D01*
X174404761Y-93130952D01*
X174428571Y-93178571D01*
X174452380Y-93202380D01*
X174500000Y-93226190D01*
X174642857Y-93226190D01*
X174690476Y-93202380D01*
X174714285Y-93178571D01*
D11*
%TO.C,JP1*%
X172833333Y-86652380D02*
X172833333Y-87366666D01*
X172880952Y-87509523D01*
X172976190Y-87604761D01*
X173119047Y-87652380D01*
X173214285Y-87652380D01*
X172357142Y-87652380D02*
X172357142Y-86652380D01*
X171976190Y-86652380D01*
X171880952Y-86700000D01*
X171833333Y-86747619D01*
X171785714Y-86842857D01*
X171785714Y-86985714D01*
X171833333Y-87080952D01*
X171880952Y-87128571D01*
X171976190Y-87176190D01*
X172357142Y-87176190D01*
X170833333Y-87652380D02*
X171404761Y-87652380D01*
X171119047Y-87652380D02*
X171119047Y-86652380D01*
X171214285Y-86795238D01*
X171309523Y-86890476D01*
X171404761Y-86938095D01*
%TO.C,JP2*%
X172833333Y-90652380D02*
X172833333Y-91366666D01*
X172880952Y-91509523D01*
X172976190Y-91604761D01*
X173119047Y-91652380D01*
X173214285Y-91652380D01*
X172357142Y-91652380D02*
X172357142Y-90652380D01*
X171976190Y-90652380D01*
X171880952Y-90700000D01*
X171833333Y-90747619D01*
X171785714Y-90842857D01*
X171785714Y-90985714D01*
X171833333Y-91080952D01*
X171880952Y-91128571D01*
X171976190Y-91176190D01*
X172357142Y-91176190D01*
X171404761Y-90747619D02*
X171357142Y-90700000D01*
X171261904Y-90652380D01*
X171023809Y-90652380D01*
X170928571Y-90700000D01*
X170880952Y-90747619D01*
X170833333Y-90842857D01*
X170833333Y-90938095D01*
X170880952Y-91080952D01*
X171452380Y-91652380D01*
X170833333Y-91652380D01*
%TO.C,JP3*%
X172833333Y-94652380D02*
X172833333Y-95366666D01*
X172880952Y-95509523D01*
X172976190Y-95604761D01*
X173119047Y-95652380D01*
X173214285Y-95652380D01*
X172357142Y-95652380D02*
X172357142Y-94652380D01*
X171976190Y-94652380D01*
X171880952Y-94700000D01*
X171833333Y-94747619D01*
X171785714Y-94842857D01*
X171785714Y-94985714D01*
X171833333Y-95080952D01*
X171880952Y-95128571D01*
X171976190Y-95176190D01*
X172357142Y-95176190D01*
X171452380Y-94652380D02*
X170833333Y-94652380D01*
X171166666Y-95033333D01*
X171023809Y-95033333D01*
X170928571Y-95080952D01*
X170880952Y-95128571D01*
X170833333Y-95223809D01*
X170833333Y-95461904D01*
X170880952Y-95557142D01*
X170928571Y-95604761D01*
X171023809Y-95652380D01*
X171309523Y-95652380D01*
X171404761Y-95604761D01*
X171452380Y-95557142D01*
D12*
%TO.C,JP1*%
X169950000Y-90000000D02*
X174050000Y-90000000D01*
X173300000Y-90200000D02*
X173000000Y-90500000D01*
X174050000Y-88000000D02*
X169950000Y-88000000D01*
X174050000Y-90000000D02*
X174050000Y-88000000D01*
X169950000Y-88000000D02*
X169950000Y-90000000D01*
X173300000Y-90200000D02*
X173600000Y-90500000D01*
X173600000Y-90500000D02*
X173000000Y-90500000D01*
%TO.C,JP2*%
X173300000Y-94200000D02*
X173000000Y-94500000D01*
X174050000Y-92000000D02*
X169950000Y-92000000D01*
X173600000Y-94500000D02*
X173000000Y-94500000D01*
X173300000Y-94200000D02*
X173600000Y-94500000D01*
X169950000Y-94000000D02*
X174050000Y-94000000D01*
X174050000Y-94000000D02*
X174050000Y-92000000D01*
X169950000Y-92000000D02*
X169950000Y-94000000D01*
%TO.C,JP3*%
X174050000Y-98000000D02*
X174050000Y-96000000D01*
X174050000Y-96000000D02*
X169950000Y-96000000D01*
X173300000Y-98200000D02*
X173600000Y-98500000D01*
X173300000Y-98200000D02*
X173000000Y-98500000D01*
X169950000Y-96000000D02*
X169950000Y-98000000D01*
X173600000Y-98500000D02*
X173000000Y-98500000D01*
X169950000Y-98000000D02*
X174050000Y-98000000D01*
%TD*%
M02*
