%TF.GenerationSoftware,KiCad,Pcbnew,(6.0.7)*%
%TF.CreationDate,2022-10-11T20:39:03-05:00*%
%TF.ProjectId,PCA9535,50434139-3533-4352-9e6b-696361645f70,rev?*%
%TF.SameCoordinates,Original*%
%TF.FileFunction,Copper,L1,Top*%
%TF.FilePolarity,Positive*%
%FSLAX46Y46*%
G04 Gerber Fmt 4.6, Leading zero omitted, Abs format (unit mm)*
G04 Created by KiCad (PCBNEW (6.0.7)) date 2022-10-11 20:39:03*
%MOMM*%
%LPD*%
G01*
G04 APERTURE LIST*
G04 Aperture macros list*
%AMRoundRect*
0 Rectangle with rounded corners*
0 $1 Rounding radius*
0 $2 $3 $4 $5 $6 $7 $8 $9 X,Y pos of 4 corners*
0 Add a 4 corners polygon primitive as box body*
4,1,4,$2,$3,$4,$5,$6,$7,$8,$9,$2,$3,0*
0 Add four circle primitives for the rounded corners*
1,1,$1+$1,$2,$3*
1,1,$1+$1,$4,$5*
1,1,$1+$1,$6,$7*
1,1,$1+$1,$8,$9*
0 Add four rect primitives between the rounded corners*
20,1,$1+$1,$2,$3,$4,$5,0*
20,1,$1+$1,$4,$5,$6,$7,0*
20,1,$1+$1,$6,$7,$8,$9,0*
20,1,$1+$1,$8,$9,$2,$3,0*%
G04 Aperture macros list end*
%TA.AperFunction,SMDPad,CuDef*%
%ADD10RoundRect,0.250000X0.350000X0.650000X-0.350000X0.650000X-0.350000X-0.650000X0.350000X-0.650000X0*%
%TD*%
%TA.AperFunction,SMDPad,CuDef*%
%ADD11RoundRect,0.150000X0.150000X0.625000X-0.150000X0.625000X-0.150000X-0.625000X0.150000X-0.625000X0*%
%TD*%
%TA.AperFunction,SMDPad,CuDef*%
%ADD12R,1.639799X0.431000*%
%TD*%
%TA.AperFunction,SMDPad,CuDef*%
%ADD13RoundRect,0.250000X0.350000X0.450000X-0.350000X0.450000X-0.350000X-0.450000X0.350000X-0.450000X0*%
%TD*%
%TA.AperFunction,ComponentPad*%
%ADD14R,1.700000X1.700000*%
%TD*%
%TA.AperFunction,ComponentPad*%
%ADD15O,1.700000X1.700000*%
%TD*%
%TA.AperFunction,SMDPad,CuDef*%
%ADD16RoundRect,0.250000X-0.350000X-0.450000X0.350000X-0.450000X0.350000X0.450000X-0.350000X0.450000X0*%
%TD*%
%TA.AperFunction,ViaPad*%
%ADD17C,0.800000*%
%TD*%
%TA.AperFunction,Conductor*%
%ADD18C,0.250000*%
%TD*%
G04 APERTURE END LIST*
D10*
%TO.P,J2,MP*%
%TO.N,N/C*%
X169300000Y-75125000D03*
X163700000Y-75125000D03*
D11*
%TO.P,J2,4,Pin_4*%
%TO.N,SCL*%
X165000000Y-79000000D03*
%TO.P,J2,3,Pin_3*%
%TO.N,SDA*%
X166000000Y-79000000D03*
%TO.P,J2,2,Pin_2*%
%TO.N,+3.3V*%
X167000000Y-79000000D03*
%TO.P,J2,1,Pin_1*%
%TO.N,GND*%
X168000000Y-79000000D03*
%TD*%
%TO.P,J1,1,Pin_1*%
%TO.N,GND*%
X176000000Y-79000000D03*
%TO.P,J1,2,Pin_2*%
%TO.N,+3.3V*%
X175000000Y-79000000D03*
%TO.P,J1,3,Pin_3*%
%TO.N,SDA*%
X174000000Y-79000000D03*
%TO.P,J1,4,Pin_4*%
%TO.N,SCL*%
X173000000Y-79000000D03*
D10*
%TO.P,J1,MP*%
%TO.N,N/C*%
X171700000Y-75125000D03*
X177300000Y-75125000D03*
%TD*%
D12*
%TO.P,U1,1,\u002AINT*%
%TO.N,INT*%
X166286900Y-84877501D03*
%TO.P,U1,2,A1*%
%TO.N,A1*%
X166286900Y-85527500D03*
%TO.P,U1,3,A2*%
%TO.N,A2*%
X166286900Y-86177498D03*
%TO.P,U1,4,P00*%
%TO.N,P00*%
X166286900Y-86827499D03*
%TO.P,U1,5,P01*%
%TO.N,P01*%
X166286900Y-87477498D03*
%TO.P,U1,6,P02*%
%TO.N,P02*%
X166286900Y-88127499D03*
%TO.P,U1,7,P03*%
%TO.N,P03*%
X166286900Y-88777498D03*
%TO.P,U1,8,P04*%
%TO.N,P04*%
X166286900Y-89427499D03*
%TO.P,U1,9,P05*%
%TO.N,P05*%
X166286900Y-90077498D03*
%TO.P,U1,10,P06*%
%TO.N,P06*%
X166286900Y-90727499D03*
%TO.P,U1,11,P07*%
%TO.N,P07*%
X166286900Y-91377498D03*
%TO.P,U1,12,GND*%
%TO.N,GND*%
X166286900Y-92027499D03*
%TO.P,U1,13,P10*%
%TO.N,P10*%
X173551300Y-92027499D03*
%TO.P,U1,14,P11*%
%TO.N,P11*%
X173551300Y-91377500D03*
%TO.P,U1,15,P12*%
%TO.N,P12*%
X173551300Y-90727499D03*
%TO.P,U1,16,P13*%
%TO.N,P13*%
X173551300Y-90077501D03*
%TO.P,U1,17,P14*%
%TO.N,P14*%
X173551300Y-89427499D03*
%TO.P,U1,18,P15*%
%TO.N,P15*%
X173551300Y-88777501D03*
%TO.P,U1,19,P16*%
%TO.N,P16*%
X173551300Y-88127502D03*
%TO.P,U1,20,P17*%
%TO.N,P17*%
X173551300Y-87477501D03*
%TO.P,U1,21,A0*%
%TO.N,A0*%
X173551300Y-86827502D03*
%TO.P,U1,22,SCL*%
%TO.N,SCL*%
X173551300Y-86177501D03*
%TO.P,U1,23,SDA*%
%TO.N,SDA*%
X173551300Y-85527502D03*
%TO.P,U1,24,VCC*%
%TO.N,+3.3V*%
X173551300Y-84877501D03*
%TD*%
D13*
%TO.P,R1,1*%
%TO.N,+3.3V*%
X175500000Y-83000000D03*
%TO.P,R1,2*%
%TO.N,SCL*%
X173500000Y-83000000D03*
%TD*%
%TO.P,R2,1*%
%TO.N,+3.3V*%
X175500000Y-81000000D03*
%TO.P,R2,2*%
%TO.N,SDA*%
X173500000Y-81000000D03*
%TD*%
D14*
%TO.P,J6,1,Pin_1*%
%TO.N,P10*%
X181500000Y-91500000D03*
D15*
%TO.P,J6,2,Pin_2*%
%TO.N,P14*%
X178960000Y-91500000D03*
%TO.P,J6,3,Pin_3*%
%TO.N,P11*%
X181500000Y-88960000D03*
%TO.P,J6,4,Pin_4*%
%TO.N,P15*%
X178960000Y-88960000D03*
%TO.P,J6,5,Pin_5*%
%TO.N,P12*%
X181500000Y-86420000D03*
%TO.P,J6,6,Pin_6*%
%TO.N,P16*%
X178960000Y-86420000D03*
%TO.P,J6,7,Pin_7*%
%TO.N,P13*%
X181500000Y-83880000D03*
%TO.P,J6,8,Pin_8*%
%TO.N,P17*%
X178960000Y-83880000D03*
%TO.P,J6,9,Pin_9*%
%TO.N,+3.3V*%
X181500000Y-81340000D03*
%TO.P,J6,10,Pin_10*%
%TO.N,GND*%
X178960000Y-81340000D03*
%TD*%
D14*
%TO.P,J4,1,Pin_1*%
%TO.N,INT*%
X170500000Y-82000000D03*
%TD*%
%TO.P,J3,1,Pin_1*%
%TO.N,P00*%
X160000000Y-81500000D03*
D15*
%TO.P,J3,2,Pin_2*%
%TO.N,P04*%
X162540000Y-81500000D03*
%TO.P,J3,3,Pin_3*%
%TO.N,P01*%
X160000000Y-84040000D03*
%TO.P,J3,4,Pin_4*%
%TO.N,P05*%
X162540000Y-84040000D03*
%TO.P,J3,5,Pin_5*%
%TO.N,P02*%
X160000000Y-86580000D03*
%TO.P,J3,6,Pin_6*%
%TO.N,P06*%
X162540000Y-86580000D03*
%TO.P,J3,7,Pin_7*%
%TO.N,P03*%
X160000000Y-89120000D03*
%TO.P,J3,8,Pin_8*%
%TO.N,P07*%
X162540000Y-89120000D03*
%TO.P,J3,9,Pin_9*%
%TO.N,+3.3V*%
X160000000Y-91660000D03*
%TO.P,J3,10,Pin_10*%
%TO.N,GND*%
X162540000Y-91660000D03*
%TD*%
D16*
%TO.P,R3,1*%
%TO.N,+3.3V*%
X165500000Y-82500000D03*
%TO.P,R3,2*%
%TO.N,INT*%
X167500000Y-82500000D03*
%TD*%
D17*
%TO.N,GND*%
X169000000Y-79500000D03*
%TO.N,SCL*%
X173500000Y-83000000D03*
X170000000Y-77000000D03*
X171500000Y-86000000D03*
%TO.N,GND*%
X163166000Y-96448000D03*
X174342000Y-95178000D03*
%TO.N,P00*%
X168538534Y-86464740D03*
%TO.N,P01*%
X168584386Y-87535190D03*
%TO.N,P02*%
X168232512Y-88846070D03*
%TO.N,P03*%
X168000000Y-90352000D03*
%TO.N,P11*%
X177000000Y-91950500D03*
%TO.N,P12*%
X176911351Y-90862348D03*
%TO.N,P13*%
X176000000Y-90151999D03*
%TO.N,A1*%
X172000000Y-92500000D03*
%TO.N,A2*%
X172000000Y-97000000D03*
%TO.N,A0*%
X172000000Y-88500000D03*
%TD*%
D18*
%TO.N,SDA*%
X172406401Y-85418001D02*
X172406401Y-82093599D01*
X172406401Y-82093599D02*
X173500000Y-81000000D01*
%TO.N,+3.3V*%
X173551300Y-84877501D02*
X173622499Y-84877501D01*
X173622499Y-84877501D02*
X175500000Y-83000000D01*
X161925000Y-78925000D02*
X165500000Y-82500000D01*
X160075000Y-78925000D02*
X161925000Y-78925000D01*
X175000000Y-80500000D02*
X175500000Y-81000000D01*
X175000000Y-79000000D02*
X175000000Y-80500000D01*
%TO.N,SDA*%
X166000000Y-77803249D02*
X166000000Y-79000000D01*
X166303249Y-77500000D02*
X166000000Y-77803249D01*
X168531444Y-77500000D02*
X166303249Y-77500000D01*
X173500000Y-81000000D02*
X172031444Y-81000000D01*
X172031444Y-81000000D02*
X168531444Y-77500000D01*
X174000000Y-80500000D02*
X173500000Y-81000000D01*
X174000000Y-79000000D02*
X174000000Y-80500000D01*
%TO.N,SCL*%
X171000000Y-77000000D02*
X170000000Y-77000000D01*
X173000000Y-79000000D02*
X171000000Y-77000000D01*
X165000000Y-78000000D02*
X165000000Y-79000000D01*
X166000000Y-77000000D02*
X165000000Y-78000000D01*
X170000000Y-77000000D02*
X166000000Y-77000000D01*
%TO.N,INT*%
X168500000Y-81500000D02*
X170500000Y-81500000D01*
X167500000Y-82500000D02*
X168500000Y-81500000D01*
X166286900Y-83713100D02*
X167500000Y-82500000D01*
X166286900Y-84877501D02*
X166286900Y-83713100D01*
%TO.N,+3.3V*%
X167000000Y-81000000D02*
X167000000Y-79000000D01*
X165500000Y-82500000D02*
X167000000Y-81000000D01*
X160000000Y-91660000D02*
X158363557Y-90023557D01*
X158363557Y-90023557D02*
X158363557Y-80636443D01*
X177515000Y-82515000D02*
X180325000Y-82515000D01*
X175500000Y-80500000D02*
X175500000Y-82500000D01*
X180325000Y-82515000D02*
X181500000Y-81340000D01*
X158363557Y-80636443D02*
X160075000Y-78925000D01*
X175500000Y-80500000D02*
X177515000Y-82515000D01*
X175500000Y-82928801D02*
X175500000Y-82500000D01*
%TO.N,SDA*%
X172515902Y-85527502D02*
X172406401Y-85418001D01*
X173551300Y-85527502D02*
X172515902Y-85527502D01*
%TO.N,SCL*%
X171787002Y-86287002D02*
X173287002Y-86287002D01*
X171500000Y-86000000D02*
X171787002Y-86287002D01*
%TO.N,P00*%
X168538534Y-86464740D02*
X168175775Y-86827499D01*
X168175775Y-86827499D02*
X166286900Y-86827499D01*
%TO.N,P01*%
X168584386Y-87535190D02*
X168526694Y-87477498D01*
X168526694Y-87477498D02*
X166286900Y-87477498D01*
%TO.N,P02*%
X168232512Y-88846070D02*
X167513941Y-88127499D01*
X167513941Y-88127499D02*
X166286900Y-88127499D01*
%TO.N,P03*%
X168000000Y-89852000D02*
X167431799Y-89283799D01*
X168000000Y-90352000D02*
X168000000Y-89852000D01*
X167431799Y-89283799D02*
X167431799Y-88886999D01*
X167431799Y-88886999D02*
X167322298Y-88777498D01*
X167322298Y-88777498D02*
X166286900Y-88777498D01*
%TO.N,P04*%
X165000000Y-83960000D02*
X162540000Y-81500000D01*
X165217001Y-89427499D02*
X165000000Y-89210498D01*
X166286900Y-89427499D02*
X165217001Y-89427499D01*
X165000000Y-89210498D02*
X165000000Y-83960000D01*
%TO.N,P06*%
X163715000Y-89225498D02*
X163715000Y-87755000D01*
X165217001Y-90727499D02*
X163715000Y-89225498D01*
X163715000Y-87755000D02*
X162540000Y-86580000D01*
X166286900Y-90727499D02*
X165217001Y-90727499D01*
%TO.N,P07*%
X166286900Y-91377498D02*
X164797498Y-91377498D01*
X164797498Y-91377498D02*
X162540000Y-89120000D01*
%TO.N,P10*%
X180325000Y-92675000D02*
X181500000Y-91500000D01*
X173551300Y-92027499D02*
X174198801Y-92675000D01*
X174198801Y-92675000D02*
X180325000Y-92675000D01*
%TO.N,P11*%
X174586700Y-91377500D02*
X173551300Y-91377500D01*
X175209200Y-92000000D02*
X174586700Y-91377500D01*
X177000000Y-91950500D02*
X176950500Y-92000000D01*
X176950500Y-92000000D02*
X175209200Y-92000000D01*
%TO.N,P12*%
X174573095Y-90727499D02*
X173551300Y-90727499D01*
X175345596Y-91500000D02*
X174573095Y-90727499D01*
X176911351Y-90862348D02*
X176273699Y-91500000D01*
X176273699Y-91500000D02*
X175345596Y-91500000D01*
%TO.N,P13*%
X175925502Y-90077501D02*
X176000000Y-90151999D01*
X173551300Y-90077501D02*
X175925502Y-90077501D01*
%TO.N,P14*%
X176887499Y-89427499D02*
X178960000Y-91500000D01*
X173551300Y-89427499D02*
X176887499Y-89427499D01*
%TO.N,P15*%
X173551300Y-88777501D02*
X178777501Y-88777501D01*
X178777501Y-88777501D02*
X178960000Y-88960000D01*
%TO.N,P16*%
X173551300Y-88127502D02*
X177252498Y-88127502D01*
X177252498Y-88127502D02*
X178960000Y-86420000D01*
%TO.N,P17*%
X175362499Y-87477501D02*
X178960000Y-83880000D01*
X173551300Y-87477501D02*
X175362499Y-87477501D01*
%TO.N,A1*%
X167736593Y-85238102D02*
X167447195Y-85527500D01*
X170238102Y-85238102D02*
X167736593Y-85238102D01*
X167447195Y-85527500D02*
X166286900Y-85527500D01*
X170775000Y-85775000D02*
X170238102Y-85238102D01*
X170775000Y-91275000D02*
X170775000Y-85775000D01*
X172000000Y-92500000D02*
X170775000Y-91275000D01*
%TO.N,A2*%
X170325000Y-95325000D02*
X170325000Y-87225901D01*
X167324092Y-86286999D02*
X166713001Y-86286999D01*
X172000000Y-97000000D02*
X170325000Y-95325000D01*
X168838839Y-85739740D02*
X167871351Y-85739740D01*
X170325000Y-87225901D02*
X168838839Y-85739740D01*
X167871351Y-85739740D02*
X167324092Y-86286999D01*
%TO.N,P05*%
X164165000Y-89025497D02*
X164165000Y-85665000D01*
X165217001Y-90077498D02*
X164165000Y-89025497D01*
X166286900Y-90077498D02*
X165217001Y-90077498D01*
X164165000Y-85665000D02*
X162540000Y-84040000D01*
%TO.N,A0*%
X173551300Y-86827502D02*
X172481401Y-86827502D01*
X172000000Y-87308903D02*
X172000000Y-88500000D01*
X172481401Y-86827502D02*
X172000000Y-87308903D01*
%TD*%
%TA.AperFunction,Conductor*%
%TO.N,GND*%
G36*
X169621094Y-87750270D02*
G01*
X169673400Y-87798276D01*
X169691500Y-87863342D01*
X169691500Y-95246233D01*
X169690973Y-95257416D01*
X169689298Y-95264909D01*
X169689547Y-95272835D01*
X169689547Y-95272836D01*
X169691438Y-95332986D01*
X169691500Y-95336945D01*
X169691500Y-95364856D01*
X169691997Y-95368790D01*
X169691997Y-95368791D01*
X169692005Y-95368856D01*
X169692938Y-95380693D01*
X169694327Y-95424889D01*
X169699978Y-95444339D01*
X169703987Y-95463700D01*
X169706526Y-95483797D01*
X169709445Y-95491168D01*
X169709445Y-95491170D01*
X169722804Y-95524912D01*
X169726649Y-95536142D01*
X169738982Y-95578593D01*
X169743015Y-95585412D01*
X169743017Y-95585417D01*
X169749293Y-95596028D01*
X169757988Y-95613776D01*
X169765448Y-95632617D01*
X169770110Y-95639033D01*
X169770110Y-95639034D01*
X169791436Y-95668387D01*
X169797952Y-95678307D01*
X169812712Y-95703264D01*
X169820458Y-95716362D01*
X169834779Y-95730683D01*
X169847619Y-95745716D01*
X169859528Y-95762107D01*
X169885521Y-95783610D01*
X169893605Y-95790298D01*
X169902384Y-95798288D01*
X171052878Y-96948782D01*
X171086904Y-97011094D01*
X171089093Y-97024707D01*
X171102650Y-97153693D01*
X171106458Y-97189928D01*
X171165473Y-97371556D01*
X171260960Y-97536944D01*
X171265378Y-97541851D01*
X171265379Y-97541852D01*
X171368292Y-97656148D01*
X171388747Y-97678866D01*
X171543248Y-97791118D01*
X171549276Y-97793802D01*
X171549278Y-97793803D01*
X171686568Y-97854928D01*
X171717712Y-97868794D01*
X171811112Y-97888647D01*
X171898056Y-97907128D01*
X171898061Y-97907128D01*
X171904513Y-97908500D01*
X172095487Y-97908500D01*
X172101939Y-97907128D01*
X172101944Y-97907128D01*
X172188888Y-97888647D01*
X172282288Y-97868794D01*
X172313432Y-97854928D01*
X172450722Y-97793803D01*
X172450724Y-97793802D01*
X172456752Y-97791118D01*
X172611253Y-97678866D01*
X172631708Y-97656148D01*
X172734621Y-97541852D01*
X172734622Y-97541851D01*
X172739040Y-97536944D01*
X172834527Y-97371556D01*
X172893542Y-97189928D01*
X172896866Y-97158308D01*
X172912814Y-97006565D01*
X172913504Y-97000000D01*
X172897842Y-96850980D01*
X172894232Y-96816635D01*
X172894232Y-96816633D01*
X172893542Y-96810072D01*
X172834527Y-96628444D01*
X172739040Y-96463056D01*
X172662617Y-96378179D01*
X172615675Y-96326045D01*
X172615674Y-96326044D01*
X172611253Y-96321134D01*
X172456752Y-96208882D01*
X172450724Y-96206198D01*
X172450722Y-96206197D01*
X172288319Y-96133891D01*
X172288318Y-96133891D01*
X172282288Y-96131206D01*
X172178683Y-96109184D01*
X172101944Y-96092872D01*
X172101939Y-96092872D01*
X172095487Y-96091500D01*
X172039594Y-96091500D01*
X171971473Y-96071498D01*
X171950503Y-96054599D01*
X170995403Y-95099498D01*
X170961379Y-95037188D01*
X170958500Y-95010405D01*
X170958500Y-92983306D01*
X170978502Y-92915185D01*
X171032158Y-92868692D01*
X171102432Y-92858588D01*
X171167012Y-92888082D01*
X171193619Y-92920306D01*
X171260960Y-93036944D01*
X171265378Y-93041851D01*
X171265379Y-93041852D01*
X171384325Y-93173955D01*
X171388747Y-93178866D01*
X171456049Y-93227764D01*
X171534873Y-93285033D01*
X171543248Y-93291118D01*
X171549276Y-93293802D01*
X171549278Y-93293803D01*
X171592890Y-93313220D01*
X171717712Y-93368794D01*
X171811113Y-93388647D01*
X171898056Y-93407128D01*
X171898061Y-93407128D01*
X171904513Y-93408500D01*
X172095487Y-93408500D01*
X172101939Y-93407128D01*
X172101944Y-93407128D01*
X172188888Y-93388647D01*
X172282288Y-93368794D01*
X172407110Y-93313220D01*
X172450722Y-93293803D01*
X172450724Y-93293802D01*
X172456752Y-93291118D01*
X172465128Y-93285033D01*
X172543951Y-93227764D01*
X172611253Y-93178866D01*
X172615675Y-93173955D01*
X172734621Y-93041852D01*
X172734622Y-93041851D01*
X172739040Y-93036944D01*
X172820758Y-92895405D01*
X172831223Y-92877279D01*
X172831224Y-92877278D01*
X172834527Y-92871556D01*
X172845247Y-92838563D01*
X172885320Y-92779957D01*
X172950717Y-92752320D01*
X172965080Y-92751499D01*
X173327206Y-92751499D01*
X173395327Y-92771501D01*
X173416301Y-92788404D01*
X173695144Y-93067247D01*
X173702688Y-93075537D01*
X173706801Y-93082018D01*
X173712578Y-93087443D01*
X173756468Y-93128658D01*
X173759310Y-93131413D01*
X173779032Y-93151135D01*
X173782174Y-93153572D01*
X173782234Y-93153619D01*
X173791246Y-93161317D01*
X173814954Y-93183580D01*
X173823480Y-93191586D01*
X173830423Y-93195403D01*
X173841232Y-93201345D01*
X173857754Y-93212198D01*
X173873760Y-93224614D01*
X173881038Y-93227764D01*
X173881039Y-93227764D01*
X173914338Y-93242174D01*
X173924988Y-93247391D01*
X173963741Y-93268695D01*
X173971416Y-93270666D01*
X173971417Y-93270666D01*
X173983363Y-93273733D01*
X174002068Y-93280137D01*
X174020656Y-93288181D01*
X174028479Y-93289420D01*
X174028489Y-93289423D01*
X174064325Y-93295099D01*
X174075945Y-93297505D01*
X174107760Y-93305673D01*
X174118771Y-93308500D01*
X174139025Y-93308500D01*
X174158735Y-93310051D01*
X174178744Y-93313220D01*
X174186636Y-93312474D01*
X174205381Y-93310702D01*
X174222763Y-93309059D01*
X174234620Y-93308500D01*
X180246233Y-93308500D01*
X180257416Y-93309027D01*
X180264909Y-93310702D01*
X180272835Y-93310453D01*
X180272836Y-93310453D01*
X180332986Y-93308562D01*
X180336945Y-93308500D01*
X180364856Y-93308500D01*
X180368791Y-93308003D01*
X180368856Y-93307995D01*
X180380693Y-93307062D01*
X180412951Y-93306048D01*
X180416970Y-93305922D01*
X180424889Y-93305673D01*
X180444343Y-93300021D01*
X180463700Y-93296013D01*
X180475930Y-93294468D01*
X180475931Y-93294468D01*
X180483797Y-93293474D01*
X180491168Y-93290555D01*
X180491170Y-93290555D01*
X180524912Y-93277196D01*
X180536142Y-93273351D01*
X180570983Y-93263229D01*
X180570984Y-93263229D01*
X180578593Y-93261018D01*
X180585412Y-93256985D01*
X180585417Y-93256983D01*
X180596028Y-93250707D01*
X180613776Y-93242012D01*
X180632617Y-93234552D01*
X180668387Y-93208564D01*
X180678307Y-93202048D01*
X180709535Y-93183580D01*
X180709538Y-93183578D01*
X180716362Y-93179542D01*
X180730683Y-93165221D01*
X180745717Y-93152380D01*
X180747431Y-93151135D01*
X180762107Y-93140472D01*
X180790298Y-93106395D01*
X180798288Y-93097616D01*
X181000499Y-92895405D01*
X181062811Y-92861379D01*
X181089594Y-92858500D01*
X182365500Y-92858500D01*
X182433621Y-92878502D01*
X182480114Y-92932158D01*
X182491500Y-92984500D01*
X182491500Y-95699708D01*
X182471498Y-95767829D01*
X182417842Y-95814322D01*
X182347568Y-95824426D01*
X182282988Y-95794932D01*
X182271497Y-95783610D01*
X182224982Y-95731494D01*
X182024030Y-95564363D01*
X181903412Y-95491170D01*
X181804578Y-95431196D01*
X181804574Y-95431194D01*
X181800581Y-95428771D01*
X181559545Y-95327697D01*
X181306217Y-95263359D01*
X181301566Y-95262891D01*
X181301562Y-95262890D01*
X181092271Y-95241816D01*
X181089133Y-95241500D01*
X180933646Y-95241500D01*
X180931321Y-95241673D01*
X180931315Y-95241673D01*
X180744000Y-95255593D01*
X180743996Y-95255594D01*
X180739348Y-95255939D01*
X180734800Y-95256968D01*
X180734794Y-95256969D01*
X180548399Y-95299147D01*
X180484423Y-95313623D01*
X180480071Y-95315315D01*
X180480069Y-95315316D01*
X180245176Y-95406660D01*
X180245173Y-95406661D01*
X180240823Y-95408353D01*
X180236769Y-95410670D01*
X180236767Y-95410671D01*
X180161200Y-95453861D01*
X180013902Y-95538049D01*
X179808643Y-95699862D01*
X179629557Y-95890237D01*
X179480576Y-96104991D01*
X179478510Y-96109181D01*
X179478508Y-96109184D01*
X179429343Y-96208882D01*
X179364975Y-96339407D01*
X179363553Y-96343850D01*
X179363552Y-96343852D01*
X179286720Y-96583877D01*
X179285293Y-96588335D01*
X179243279Y-96846307D01*
X179239858Y-97107655D01*
X179275104Y-97366638D01*
X179276412Y-97371124D01*
X179276412Y-97371126D01*
X179296098Y-97438664D01*
X179348243Y-97617567D01*
X179457668Y-97854928D01*
X179481197Y-97890816D01*
X179598410Y-98069596D01*
X179598414Y-98069601D01*
X179600976Y-98073509D01*
X179775018Y-98268506D01*
X179778611Y-98271494D01*
X179781978Y-98274746D01*
X179780400Y-98276380D01*
X179814782Y-98327680D01*
X179816149Y-98398663D01*
X179778923Y-98459118D01*
X179714922Y-98489849D01*
X179694592Y-98491500D01*
X161302859Y-98491500D01*
X161234738Y-98471498D01*
X161188245Y-98417842D01*
X161178141Y-98347568D01*
X161211084Y-98279167D01*
X161367237Y-98113171D01*
X161370443Y-98109763D01*
X161519424Y-97895009D01*
X161569333Y-97793803D01*
X161632960Y-97664781D01*
X161632961Y-97664778D01*
X161635025Y-97660593D01*
X161676436Y-97531226D01*
X161713280Y-97416123D01*
X161714707Y-97411665D01*
X161756721Y-97153693D01*
X161760142Y-96892345D01*
X161724896Y-96633362D01*
X161721795Y-96622721D01*
X161653068Y-96386932D01*
X161651757Y-96382433D01*
X161542332Y-96145072D01*
X161483013Y-96054595D01*
X161401590Y-95930404D01*
X161401586Y-95930399D01*
X161399024Y-95926491D01*
X161224982Y-95731494D01*
X161024030Y-95564363D01*
X160903412Y-95491170D01*
X160804578Y-95431196D01*
X160804574Y-95431194D01*
X160800581Y-95428771D01*
X160559545Y-95327697D01*
X160306217Y-95263359D01*
X160301566Y-95262891D01*
X160301562Y-95262890D01*
X160092271Y-95241816D01*
X160089133Y-95241500D01*
X159933646Y-95241500D01*
X159931321Y-95241673D01*
X159931315Y-95241673D01*
X159744000Y-95255593D01*
X159743996Y-95255594D01*
X159739348Y-95255939D01*
X159734800Y-95256968D01*
X159734794Y-95256969D01*
X159548399Y-95299147D01*
X159484423Y-95313623D01*
X159480071Y-95315315D01*
X159480069Y-95315316D01*
X159245176Y-95406660D01*
X159245173Y-95406661D01*
X159240823Y-95408353D01*
X159236769Y-95410670D01*
X159236767Y-95410671D01*
X159161200Y-95453861D01*
X159013902Y-95538049D01*
X158808643Y-95699862D01*
X158787843Y-95721973D01*
X158726275Y-95787422D01*
X158665031Y-95823334D01*
X158594093Y-95820434D01*
X158535985Y-95779643D01*
X158509154Y-95713912D01*
X158508500Y-95701089D01*
X158508500Y-92243156D01*
X158528502Y-92175035D01*
X158582158Y-92128542D01*
X158652432Y-92118438D01*
X158717012Y-92147932D01*
X158751243Y-92195752D01*
X158770492Y-92243156D01*
X158783266Y-92274616D01*
X158899987Y-92465088D01*
X159046250Y-92633938D01*
X159218126Y-92776632D01*
X159411000Y-92889338D01*
X159619692Y-92969030D01*
X159624760Y-92970061D01*
X159624763Y-92970062D01*
X159689860Y-92983306D01*
X159838597Y-93013567D01*
X159843772Y-93013757D01*
X159843774Y-93013757D01*
X160056673Y-93021564D01*
X160056677Y-93021564D01*
X160061837Y-93021753D01*
X160066957Y-93021097D01*
X160066959Y-93021097D01*
X160278288Y-92994025D01*
X160278289Y-92994025D01*
X160283416Y-92993368D01*
X160288366Y-92991883D01*
X160492429Y-92930661D01*
X160492434Y-92930659D01*
X160497384Y-92929174D01*
X160697994Y-92830896D01*
X160879860Y-92701173D01*
X160891145Y-92689928D01*
X161034435Y-92547137D01*
X161038096Y-92543489D01*
X161097594Y-92460689D01*
X161165435Y-92366277D01*
X161168453Y-92362077D01*
X161250656Y-92195752D01*
X161265136Y-92166453D01*
X161265137Y-92166451D01*
X161267430Y-92161811D01*
X161319424Y-91990679D01*
X161330865Y-91953023D01*
X161330865Y-91953021D01*
X161332370Y-91948069D01*
X161361529Y-91726590D01*
X161363156Y-91660000D01*
X161344852Y-91437361D01*
X161290431Y-91220702D01*
X161201354Y-91015840D01*
X161161906Y-90954862D01*
X161082822Y-90832617D01*
X161082820Y-90832614D01*
X161080014Y-90828277D01*
X160929670Y-90663051D01*
X160925619Y-90659852D01*
X160925615Y-90659848D01*
X160758414Y-90527800D01*
X160758410Y-90527798D01*
X160754359Y-90524598D01*
X160713053Y-90501796D01*
X160663084Y-90451364D01*
X160648312Y-90381921D01*
X160673428Y-90315516D01*
X160700780Y-90288909D01*
X160746022Y-90256638D01*
X160879860Y-90161173D01*
X161038096Y-90003489D01*
X161054656Y-89980444D01*
X161168453Y-89822077D01*
X161169776Y-89823028D01*
X161216645Y-89779857D01*
X161286580Y-89767625D01*
X161352026Y-89795144D01*
X161379875Y-89826994D01*
X161439987Y-89925088D01*
X161586250Y-90093938D01*
X161758126Y-90236632D01*
X161951000Y-90349338D01*
X162159692Y-90429030D01*
X162164760Y-90430061D01*
X162164763Y-90430062D01*
X162269466Y-90451364D01*
X162378597Y-90473567D01*
X162383772Y-90473757D01*
X162383774Y-90473757D01*
X162596673Y-90481564D01*
X162596677Y-90481564D01*
X162601837Y-90481753D01*
X162606957Y-90481097D01*
X162606959Y-90481097D01*
X162818288Y-90454025D01*
X162818289Y-90454025D01*
X162823416Y-90453368D01*
X162828367Y-90451883D01*
X162828370Y-90451882D01*
X162869829Y-90439444D01*
X162940825Y-90439028D01*
X162995131Y-90471035D01*
X164293841Y-91769745D01*
X164301385Y-91778035D01*
X164305498Y-91784516D01*
X164311275Y-91789941D01*
X164355165Y-91831156D01*
X164358007Y-91833911D01*
X164377728Y-91853632D01*
X164380923Y-91856110D01*
X164389945Y-91863816D01*
X164422177Y-91894084D01*
X164429126Y-91897904D01*
X164439930Y-91903844D01*
X164456454Y-91914697D01*
X164472457Y-91927111D01*
X164513041Y-91944674D01*
X164523671Y-91949881D01*
X164562438Y-91971193D01*
X164570115Y-91973164D01*
X164570120Y-91973166D01*
X164582056Y-91976230D01*
X164600764Y-91982635D01*
X164619353Y-91990679D01*
X164627181Y-91991919D01*
X164627188Y-91991921D01*
X164663022Y-91997597D01*
X164674642Y-92000003D01*
X164709787Y-92009026D01*
X164717468Y-92010998D01*
X164737722Y-92010998D01*
X164757432Y-92012549D01*
X164777441Y-92015718D01*
X164785333Y-92014972D01*
X164821459Y-92011557D01*
X164833317Y-92010998D01*
X165134803Y-92010998D01*
X165202924Y-92031000D01*
X165210370Y-92036174D01*
X165220296Y-92043613D01*
X165356685Y-92094743D01*
X165418867Y-92101498D01*
X167154933Y-92101498D01*
X167217115Y-92094743D01*
X167353504Y-92043613D01*
X167470060Y-91956259D01*
X167557414Y-91839703D01*
X167608544Y-91703314D01*
X167615299Y-91641132D01*
X167615299Y-91354623D01*
X167635301Y-91286502D01*
X167688957Y-91240009D01*
X167759231Y-91229905D01*
X167767496Y-91231376D01*
X167898056Y-91259128D01*
X167898061Y-91259128D01*
X167904513Y-91260500D01*
X168095487Y-91260500D01*
X168101939Y-91259128D01*
X168101944Y-91259128D01*
X168191889Y-91240009D01*
X168282288Y-91220794D01*
X168293159Y-91215954D01*
X168450722Y-91145803D01*
X168450724Y-91145802D01*
X168456752Y-91143118D01*
X168611253Y-91030866D01*
X168620506Y-91020590D01*
X168734621Y-90893852D01*
X168734622Y-90893851D01*
X168739040Y-90888944D01*
X168834527Y-90723556D01*
X168893542Y-90541928D01*
X168895364Y-90524598D01*
X168912814Y-90358565D01*
X168913504Y-90352000D01*
X168901653Y-90239242D01*
X168894232Y-90168635D01*
X168894232Y-90168633D01*
X168893542Y-90162072D01*
X168834527Y-89980444D01*
X168739040Y-89815056D01*
X168716173Y-89789659D01*
X168685457Y-89725655D01*
X168694220Y-89655201D01*
X168735749Y-89603415D01*
X168830806Y-89534351D01*
X168843765Y-89524936D01*
X168913327Y-89447680D01*
X168967133Y-89387922D01*
X168967134Y-89387921D01*
X168971552Y-89383014D01*
X169067039Y-89217626D01*
X169126054Y-89035998D01*
X169146016Y-88846070D01*
X169126054Y-88656142D01*
X169067039Y-88474514D01*
X169055829Y-88455098D01*
X169039092Y-88386102D01*
X169062313Y-88319011D01*
X169090887Y-88290163D01*
X169095681Y-88286680D01*
X169195639Y-88214056D01*
X169299775Y-88098401D01*
X169319007Y-88077042D01*
X169319008Y-88077041D01*
X169323426Y-88072134D01*
X169388151Y-87960027D01*
X169415609Y-87912469D01*
X169415610Y-87912468D01*
X169418913Y-87906746D01*
X169445667Y-87824406D01*
X169485741Y-87765800D01*
X169551137Y-87738163D01*
X169621094Y-87750270D01*
G37*
%TD.AperFunction*%
%TA.AperFunction,Conductor*%
G36*
X176133621Y-74528502D02*
G01*
X176180114Y-74582158D01*
X176191500Y-74634500D01*
X176191500Y-75825400D01*
X176202474Y-75931166D01*
X176258450Y-76098946D01*
X176351522Y-76249348D01*
X176476697Y-76374305D01*
X176482927Y-76378145D01*
X176482928Y-76378146D01*
X176620090Y-76462694D01*
X176627262Y-76467115D01*
X176700546Y-76491422D01*
X176788611Y-76520632D01*
X176788613Y-76520632D01*
X176795139Y-76522797D01*
X176801975Y-76523497D01*
X176801978Y-76523498D01*
X176845031Y-76527909D01*
X176899600Y-76533500D01*
X177700400Y-76533500D01*
X177703646Y-76533163D01*
X177703650Y-76533163D01*
X177799308Y-76523238D01*
X177799312Y-76523237D01*
X177806166Y-76522526D01*
X177812702Y-76520345D01*
X177812704Y-76520345D01*
X177963827Y-76469926D01*
X177973946Y-76466550D01*
X178124348Y-76373478D01*
X178249305Y-76248303D01*
X178310504Y-76149020D01*
X178338275Y-76103968D01*
X178338276Y-76103966D01*
X178342115Y-76097738D01*
X178397797Y-75929861D01*
X178408500Y-75825400D01*
X178408500Y-74634500D01*
X178428502Y-74566379D01*
X178482158Y-74519886D01*
X178534500Y-74508500D01*
X179697141Y-74508500D01*
X179765262Y-74528502D01*
X179811755Y-74582158D01*
X179821859Y-74652432D01*
X179788916Y-74720832D01*
X179629557Y-74890237D01*
X179480576Y-75104991D01*
X179364975Y-75339407D01*
X179285293Y-75588335D01*
X179243279Y-75846307D01*
X179239858Y-76107655D01*
X179275104Y-76366638D01*
X179276412Y-76371124D01*
X179276412Y-76371126D01*
X179294444Y-76432992D01*
X179348243Y-76617567D01*
X179457668Y-76854928D01*
X179460231Y-76858837D01*
X179598410Y-77069596D01*
X179598414Y-77069601D01*
X179600976Y-77073509D01*
X179775018Y-77268506D01*
X179975970Y-77435637D01*
X179979973Y-77438066D01*
X180195422Y-77568804D01*
X180195426Y-77568806D01*
X180199419Y-77571229D01*
X180440455Y-77672303D01*
X180693783Y-77736641D01*
X180698434Y-77737109D01*
X180698438Y-77737110D01*
X180891308Y-77756531D01*
X180910867Y-77758500D01*
X181066354Y-77758500D01*
X181068679Y-77758327D01*
X181068685Y-77758327D01*
X181256000Y-77744407D01*
X181256004Y-77744406D01*
X181260652Y-77744061D01*
X181265200Y-77743032D01*
X181265206Y-77743031D01*
X181472170Y-77696199D01*
X181515577Y-77686377D01*
X181551769Y-77672303D01*
X181754824Y-77593340D01*
X181754827Y-77593339D01*
X181759177Y-77591647D01*
X181773684Y-77583356D01*
X181925907Y-77496353D01*
X181986098Y-77461951D01*
X182191357Y-77300138D01*
X182273725Y-77212578D01*
X182334969Y-77176666D01*
X182405907Y-77179566D01*
X182464015Y-77220357D01*
X182490846Y-77286088D01*
X182491500Y-77298911D01*
X182491500Y-80131817D01*
X182471498Y-80199938D01*
X182417842Y-80246431D01*
X182347568Y-80256535D01*
X182287407Y-80230698D01*
X182258415Y-80207801D01*
X182258413Y-80207800D01*
X182254359Y-80204598D01*
X182245918Y-80199938D01*
X182161778Y-80153491D01*
X182058789Y-80096638D01*
X182053920Y-80094914D01*
X182053916Y-80094912D01*
X181853087Y-80023795D01*
X181853083Y-80023794D01*
X181848212Y-80022069D01*
X181843119Y-80021162D01*
X181843116Y-80021161D01*
X181633373Y-79983800D01*
X181633367Y-79983799D01*
X181628284Y-79982894D01*
X181554452Y-79981992D01*
X181410081Y-79980228D01*
X181410079Y-79980228D01*
X181404911Y-79980165D01*
X181184091Y-80013955D01*
X180971756Y-80083357D01*
X180941443Y-80099137D01*
X180860065Y-80141500D01*
X180773607Y-80186507D01*
X180769474Y-80189610D01*
X180769471Y-80189612D01*
X180644681Y-80283307D01*
X180594965Y-80320635D01*
X180591393Y-80324373D01*
X180445033Y-80477530D01*
X180440629Y-80482138D01*
X180314743Y-80666680D01*
X180276299Y-80749500D01*
X180222897Y-80864547D01*
X180220688Y-80869305D01*
X180160989Y-81084570D01*
X180137251Y-81306695D01*
X180150110Y-81529715D01*
X180151247Y-81534761D01*
X180151248Y-81534767D01*
X180183453Y-81677668D01*
X180178917Y-81748520D01*
X180149631Y-81794464D01*
X180099500Y-81844595D01*
X180037188Y-81878621D01*
X180010405Y-81881500D01*
X177829595Y-81881500D01*
X177761474Y-81861498D01*
X177740500Y-81844595D01*
X176645405Y-80749500D01*
X176611379Y-80687188D01*
X176608500Y-80660405D01*
X176608500Y-80499600D01*
X176606532Y-80480635D01*
X176598238Y-80400692D01*
X176598237Y-80400688D01*
X176597526Y-80393834D01*
X176582773Y-80349612D01*
X176543868Y-80233002D01*
X176541550Y-80226054D01*
X176448478Y-80075652D01*
X176323303Y-79950695D01*
X176233642Y-79895427D01*
X176178968Y-79861725D01*
X176178966Y-79861724D01*
X176172738Y-79857885D01*
X176092995Y-79831436D01*
X176011389Y-79804368D01*
X176011387Y-79804368D01*
X176004861Y-79802203D01*
X175998025Y-79801503D01*
X175998022Y-79801502D01*
X175921657Y-79793678D01*
X175855930Y-79766837D01*
X175815148Y-79708722D01*
X175808500Y-79668334D01*
X175808500Y-78308498D01*
X175808144Y-78303973D01*
X175806067Y-78277579D01*
X175806066Y-78277574D01*
X175805562Y-78271169D01*
X175759145Y-78111399D01*
X175684381Y-77984980D01*
X175678491Y-77975020D01*
X175678489Y-77975017D01*
X175674453Y-77968193D01*
X175556807Y-77850547D01*
X175549983Y-77846511D01*
X175549980Y-77846509D01*
X175420427Y-77769892D01*
X175420425Y-77769891D01*
X175413601Y-77765855D01*
X175405990Y-77763644D01*
X175405988Y-77763643D01*
X175335039Y-77743031D01*
X175253831Y-77719438D01*
X175247426Y-77718934D01*
X175247421Y-77718933D01*
X175218958Y-77716693D01*
X175218950Y-77716693D01*
X175216502Y-77716500D01*
X174783498Y-77716500D01*
X174781050Y-77716693D01*
X174781042Y-77716693D01*
X174752579Y-77718933D01*
X174752574Y-77718934D01*
X174746169Y-77719438D01*
X174664961Y-77743031D01*
X174594012Y-77763643D01*
X174594010Y-77763644D01*
X174586399Y-77765855D01*
X174579576Y-77769890D01*
X174579574Y-77769891D01*
X174564137Y-77779020D01*
X174495321Y-77796478D01*
X174435863Y-77779020D01*
X174420426Y-77769891D01*
X174420424Y-77769890D01*
X174413601Y-77765855D01*
X174405990Y-77763644D01*
X174405988Y-77763643D01*
X174335039Y-77743031D01*
X174253831Y-77719438D01*
X174247426Y-77718934D01*
X174247421Y-77718933D01*
X174218958Y-77716693D01*
X174218950Y-77716693D01*
X174216502Y-77716500D01*
X173783498Y-77716500D01*
X173781050Y-77716693D01*
X173781042Y-77716693D01*
X173752579Y-77718933D01*
X173752574Y-77718934D01*
X173746169Y-77719438D01*
X173664961Y-77743031D01*
X173594012Y-77763643D01*
X173594010Y-77763644D01*
X173586399Y-77765855D01*
X173579576Y-77769890D01*
X173579574Y-77769891D01*
X173564137Y-77779020D01*
X173495321Y-77796478D01*
X173435863Y-77779020D01*
X173420426Y-77769891D01*
X173420424Y-77769890D01*
X173413601Y-77765855D01*
X173405990Y-77763644D01*
X173405988Y-77763643D01*
X173335039Y-77743031D01*
X173253831Y-77719438D01*
X173247426Y-77718934D01*
X173247421Y-77718933D01*
X173218958Y-77716693D01*
X173218950Y-77716693D01*
X173216502Y-77716500D01*
X172783498Y-77716500D01*
X172781050Y-77716693D01*
X172781042Y-77716693D01*
X172752579Y-77718933D01*
X172752574Y-77718934D01*
X172746169Y-77719438D01*
X172739997Y-77721231D01*
X172739992Y-77721232D01*
X172722901Y-77726198D01*
X172717050Y-77727898D01*
X172716351Y-77728101D01*
X172645355Y-77727898D01*
X172592105Y-77696201D01*
X171644498Y-76748593D01*
X171610474Y-76686283D01*
X171615539Y-76615467D01*
X171658086Y-76558632D01*
X171724606Y-76533821D01*
X171733595Y-76533500D01*
X172100400Y-76533500D01*
X172103646Y-76533163D01*
X172103650Y-76533163D01*
X172199308Y-76523238D01*
X172199312Y-76523237D01*
X172206166Y-76522526D01*
X172212702Y-76520345D01*
X172212704Y-76520345D01*
X172363827Y-76469926D01*
X172373946Y-76466550D01*
X172524348Y-76373478D01*
X172649305Y-76248303D01*
X172710504Y-76149020D01*
X172738275Y-76103968D01*
X172738276Y-76103966D01*
X172742115Y-76097738D01*
X172797797Y-75929861D01*
X172808500Y-75825400D01*
X172808500Y-74634500D01*
X172828502Y-74566379D01*
X172882158Y-74519886D01*
X172934500Y-74508500D01*
X176065500Y-74508500D01*
X176133621Y-74528502D01*
G37*
%TD.AperFunction*%
%TA.AperFunction,Conductor*%
G36*
X168284971Y-78153502D02*
G01*
X168305945Y-78170405D01*
X170561945Y-80426405D01*
X170595971Y-80488717D01*
X170590906Y-80559532D01*
X170548359Y-80616368D01*
X170481839Y-80641179D01*
X170472850Y-80641500D01*
X169601866Y-80641500D01*
X169539684Y-80648255D01*
X169403295Y-80699385D01*
X169286739Y-80786739D01*
X169264759Y-80816067D01*
X169207900Y-80858580D01*
X169163934Y-80866500D01*
X168578768Y-80866500D01*
X168567585Y-80865973D01*
X168560092Y-80864298D01*
X168552166Y-80864547D01*
X168552165Y-80864547D01*
X168492002Y-80866438D01*
X168488044Y-80866500D01*
X168460144Y-80866500D01*
X168456154Y-80867004D01*
X168444320Y-80867936D01*
X168400111Y-80869326D01*
X168392495Y-80871539D01*
X168392493Y-80871539D01*
X168380652Y-80874979D01*
X168361293Y-80878988D01*
X168359983Y-80879154D01*
X168341203Y-80881526D01*
X168333837Y-80884442D01*
X168333831Y-80884444D01*
X168300098Y-80897800D01*
X168288868Y-80901645D01*
X168254017Y-80911770D01*
X168246407Y-80913981D01*
X168239584Y-80918016D01*
X168228966Y-80924295D01*
X168211213Y-80932992D01*
X168203568Y-80936019D01*
X168192383Y-80940448D01*
X168185968Y-80945109D01*
X168156612Y-80966437D01*
X168146695Y-80972951D01*
X168108638Y-80995458D01*
X168094317Y-81009779D01*
X168079284Y-81022619D01*
X168062893Y-81034528D01*
X168057842Y-81040634D01*
X168034702Y-81068605D01*
X168026712Y-81077384D01*
X167849501Y-81254595D01*
X167787189Y-81288621D01*
X167760406Y-81291500D01*
X167742755Y-81291500D01*
X167674634Y-81271498D01*
X167628141Y-81217842D01*
X167618307Y-81145788D01*
X167620098Y-81134481D01*
X167622504Y-81122860D01*
X167631528Y-81087711D01*
X167631528Y-81087710D01*
X167633500Y-81080030D01*
X167633500Y-81059769D01*
X167635051Y-81040058D01*
X167636979Y-81027885D01*
X167638219Y-81020057D01*
X167634059Y-80976046D01*
X167633500Y-80964189D01*
X167633500Y-80124950D01*
X167653502Y-80056829D01*
X167664059Y-80043729D01*
X167663989Y-80043675D01*
X167668845Y-80037415D01*
X167674453Y-80031807D01*
X167678489Y-80024983D01*
X167678491Y-80024980D01*
X167755108Y-79895427D01*
X167759145Y-79888601D01*
X167805562Y-79728831D01*
X167808500Y-79691502D01*
X167808500Y-78308498D01*
X167807830Y-78299977D01*
X167805562Y-78271169D01*
X167808080Y-78270971D01*
X167814327Y-78211555D01*
X167858745Y-78156169D01*
X167930848Y-78133500D01*
X168216850Y-78133500D01*
X168284971Y-78153502D01*
G37*
%TD.AperFunction*%
%TD*%
M02*
