M48
; DRILL file {KiCad (6.0.7)} date Tue Oct 11 20:39:05 2022
; FORMAT={-:-/ absolute / inch / decimal}
; #@! TF.CreationDate,2022-10-11T20:39:05-05:00
; #@! TF.GenerationSoftware,Kicad,Pcbnew,(6.0.7)
; #@! TF.FileFunction,Plated,1,2,PTH
FMAT,2
INCH
; #@! TA.AperFunction,Plated,PTH,ViaDrill
T1C0.0157
; #@! TA.AperFunction,Plated,PTH,ComponentDrill
T2C0.0394
%
G90
G05
T1
X6.4239Y-3.7972
X6.6142Y-3.5572
X6.6233Y-3.4979
X6.6354Y-3.4041
X6.6372Y-3.4463
X6.6535Y-3.1299
X6.6929Y-3.0315
X6.752Y-3.3858
X6.7717Y-3.4843
X6.7717Y-3.6417
X6.7717Y-3.8189
X6.8307Y-3.2677
X6.8639Y-3.7472
X6.9291Y-3.5493
X6.965Y-3.5773
X6.9685Y-3.6201
T2
X6.2992Y-3.2087
X6.2992Y-3.3087
X6.2992Y-3.4087
X6.2992Y-3.5087
X6.2992Y-3.6087
X6.3992Y-3.2087
X6.3992Y-3.3087
X6.3992Y-3.4087
X6.3992Y-3.5087
X6.3992Y-3.6087
X6.7126Y-3.2283
X7.0457Y-3.2024
X7.0457Y-3.3024
X7.0457Y-3.4024
X7.0457Y-3.5024
X7.0457Y-3.6024
X7.1457Y-3.2024
X7.1457Y-3.3024
X7.1457Y-3.4024
X7.1457Y-3.5024
X7.1457Y-3.6024
T0
M30
