%TF.GenerationSoftware,KiCad,Pcbnew,(6.0.7)*%
%TF.CreationDate,2022-10-11T20:39:03-05:00*%
%TF.ProjectId,PCA9535,50434139-3533-4352-9e6b-696361645f70,rev?*%
%TF.SameCoordinates,Original*%
%TF.FileFunction,Legend,Top*%
%TF.FilePolarity,Positive*%
%FSLAX46Y46*%
G04 Gerber Fmt 4.6, Leading zero omitted, Abs format (unit mm)*
G04 Created by KiCad (PCBNEW (6.0.7)) date 2022-10-11 20:39:03*
%MOMM*%
%LPD*%
G01*
G04 APERTURE LIST*
%ADD10C,0.150000*%
%ADD11C,0.125000*%
%ADD12C,0.100000*%
%ADD13C,0.050000*%
%ADD14C,0.120000*%
G04 APERTURE END LIST*
D10*
X161738095Y-93500000D02*
X161642857Y-93452380D01*
X161500000Y-93452380D01*
X161357142Y-93500000D01*
X161261904Y-93595238D01*
X161214285Y-93690476D01*
X161166666Y-93880952D01*
X161166666Y-94023809D01*
X161214285Y-94214285D01*
X161261904Y-94309523D01*
X161357142Y-94404761D01*
X161500000Y-94452380D01*
X161595238Y-94452380D01*
X161738095Y-94404761D01*
X161785714Y-94357142D01*
X161785714Y-94023809D01*
X161595238Y-94023809D01*
X162214285Y-94452380D02*
X162214285Y-93452380D01*
X162785714Y-94452380D01*
X162785714Y-93452380D01*
X163261904Y-94452380D02*
X163261904Y-93452380D01*
X163500000Y-93452380D01*
X163642857Y-93500000D01*
X163738095Y-93595238D01*
X163785714Y-93690476D01*
X163833333Y-93880952D01*
X163833333Y-94023809D01*
X163785714Y-94214285D01*
X163738095Y-94309523D01*
X163642857Y-94404761D01*
X163500000Y-94452380D01*
X163261904Y-94452380D01*
D11*
X181404761Y-93726190D02*
X181119047Y-93726190D01*
X181261904Y-93726190D02*
X181261904Y-93226190D01*
X181214285Y-93297619D01*
X181166666Y-93345238D01*
X181119047Y-93369047D01*
X181714285Y-93226190D02*
X181761904Y-93226190D01*
X181809523Y-93250000D01*
X181833333Y-93273809D01*
X181857142Y-93321428D01*
X181880952Y-93416666D01*
X181880952Y-93535714D01*
X181857142Y-93630952D01*
X181833333Y-93678571D01*
X181809523Y-93702380D01*
X181761904Y-93726190D01*
X181714285Y-93726190D01*
X181666666Y-93702380D01*
X181642857Y-93678571D01*
X181619047Y-93630952D01*
X181595238Y-93535714D01*
X181595238Y-93416666D01*
X181619047Y-93321428D01*
X181642857Y-93273809D01*
X181666666Y-93250000D01*
X181714285Y-93226190D01*
D10*
X180309523Y-78628380D02*
X180928571Y-78628380D01*
X180595238Y-79009333D01*
X180738095Y-79009333D01*
X180833333Y-79056952D01*
X180880952Y-79104571D01*
X180928571Y-79199809D01*
X180928571Y-79437904D01*
X180880952Y-79533142D01*
X180833333Y-79580761D01*
X180738095Y-79628380D01*
X180452380Y-79628380D01*
X180357142Y-79580761D01*
X180309523Y-79533142D01*
X181261904Y-78961714D02*
X181500000Y-79628380D01*
X181738095Y-78961714D01*
X182023809Y-78628380D02*
X182642857Y-78628380D01*
X182309523Y-79009333D01*
X182452380Y-79009333D01*
X182547619Y-79056952D01*
X182595238Y-79104571D01*
X182642857Y-79199809D01*
X182642857Y-79437904D01*
X182595238Y-79533142D01*
X182547619Y-79580761D01*
X182452380Y-79628380D01*
X182166666Y-79628380D01*
X182071428Y-79580761D01*
X182023809Y-79533142D01*
X178428571Y-78801000D02*
X178357142Y-78765285D01*
X178250000Y-78765285D01*
X178142857Y-78801000D01*
X178071428Y-78872428D01*
X178035714Y-78943857D01*
X178000000Y-79086714D01*
X178000000Y-79193857D01*
X178035714Y-79336714D01*
X178071428Y-79408142D01*
X178142857Y-79479571D01*
X178250000Y-79515285D01*
X178321428Y-79515285D01*
X178428571Y-79479571D01*
X178464285Y-79443857D01*
X178464285Y-79193857D01*
X178321428Y-79193857D01*
X178785714Y-79515285D02*
X178785714Y-78765285D01*
X179214285Y-79515285D01*
X179214285Y-78765285D01*
X179571428Y-79515285D02*
X179571428Y-78765285D01*
X179750000Y-78765285D01*
X179857142Y-78801000D01*
X179928571Y-78872428D01*
X179964285Y-78943857D01*
X180000000Y-79086714D01*
X180000000Y-79193857D01*
X179964285Y-79336714D01*
X179928571Y-79408142D01*
X179857142Y-79479571D01*
X179750000Y-79515285D01*
X179571428Y-79515285D01*
D12*
X177661904Y-93471428D02*
X177719047Y-93490476D01*
X177738095Y-93509523D01*
X177757142Y-93547619D01*
X177757142Y-93604761D01*
X177738095Y-93642857D01*
X177719047Y-93661904D01*
X177680952Y-93680952D01*
X177528571Y-93680952D01*
X177528571Y-93280952D01*
X177661904Y-93280952D01*
X177700000Y-93300000D01*
X177719047Y-93319047D01*
X177738095Y-93357142D01*
X177738095Y-93395238D01*
X177719047Y-93433333D01*
X177700000Y-93452380D01*
X177661904Y-93471428D01*
X177528571Y-93471428D01*
X178100000Y-93680952D02*
X178100000Y-93471428D01*
X178080952Y-93433333D01*
X178042857Y-93414285D01*
X177966666Y-93414285D01*
X177928571Y-93433333D01*
X178100000Y-93661904D02*
X178061904Y-93680952D01*
X177966666Y-93680952D01*
X177928571Y-93661904D01*
X177909523Y-93623809D01*
X177909523Y-93585714D01*
X177928571Y-93547619D01*
X177966666Y-93528571D01*
X178061904Y-93528571D01*
X178100000Y-93509523D01*
X178290476Y-93414285D02*
X178290476Y-93680952D01*
X178290476Y-93452380D02*
X178309523Y-93433333D01*
X178347619Y-93414285D01*
X178404761Y-93414285D01*
X178442857Y-93433333D01*
X178461904Y-93471428D01*
X178461904Y-93680952D01*
X178652380Y-93680952D02*
X178652380Y-93280952D01*
X178690476Y-93528571D02*
X178804761Y-93680952D01*
X178804761Y-93414285D02*
X178652380Y-93566666D01*
X179490476Y-93680952D02*
X179261904Y-93680952D01*
X179376190Y-93680952D02*
X179376190Y-93280952D01*
X179338095Y-93338095D01*
X179300000Y-93376190D01*
X179261904Y-93395238D01*
D13*
X164428571Y-96735535D02*
X164428571Y-95985535D01*
X164607142Y-95985535D01*
X164714285Y-96021250D01*
X164785714Y-96092678D01*
X164821428Y-96164107D01*
X164857142Y-96306964D01*
X164857142Y-96414107D01*
X164821428Y-96556964D01*
X164785714Y-96628392D01*
X164714285Y-96699821D01*
X164607142Y-96735535D01*
X164428571Y-96735535D01*
X165464285Y-96699821D02*
X165392857Y-96735535D01*
X165250000Y-96735535D01*
X165178571Y-96699821D01*
X165142857Y-96628392D01*
X165142857Y-96342678D01*
X165178571Y-96271250D01*
X165250000Y-96235535D01*
X165392857Y-96235535D01*
X165464285Y-96271250D01*
X165500000Y-96342678D01*
X165500000Y-96414107D01*
X165142857Y-96485535D01*
X165785714Y-96699821D02*
X165857142Y-96735535D01*
X166000000Y-96735535D01*
X166071428Y-96699821D01*
X166107142Y-96628392D01*
X166107142Y-96592678D01*
X166071428Y-96521250D01*
X166000000Y-96485535D01*
X165892857Y-96485535D01*
X165821428Y-96449821D01*
X165785714Y-96378392D01*
X165785714Y-96342678D01*
X165821428Y-96271250D01*
X165892857Y-96235535D01*
X166000000Y-96235535D01*
X166071428Y-96271250D01*
X166428571Y-96735535D02*
X166428571Y-96235535D01*
X166428571Y-95985535D02*
X166392857Y-96021250D01*
X166428571Y-96056964D01*
X166464285Y-96021250D01*
X166428571Y-95985535D01*
X166428571Y-96056964D01*
X167107142Y-96235535D02*
X167107142Y-96842678D01*
X167071428Y-96914107D01*
X167035714Y-96949821D01*
X166964285Y-96985535D01*
X166857142Y-96985535D01*
X166785714Y-96949821D01*
X167107142Y-96699821D02*
X167035714Y-96735535D01*
X166892857Y-96735535D01*
X166821428Y-96699821D01*
X166785714Y-96664107D01*
X166750000Y-96592678D01*
X166750000Y-96378392D01*
X166785714Y-96306964D01*
X166821428Y-96271250D01*
X166892857Y-96235535D01*
X167035714Y-96235535D01*
X167107142Y-96271250D01*
X167464285Y-96235535D02*
X167464285Y-96735535D01*
X167464285Y-96306964D02*
X167500000Y-96271250D01*
X167571428Y-96235535D01*
X167678571Y-96235535D01*
X167750000Y-96271250D01*
X167785714Y-96342678D01*
X167785714Y-96735535D01*
X168428571Y-96699821D02*
X168357142Y-96735535D01*
X168214285Y-96735535D01*
X168142857Y-96699821D01*
X168107142Y-96628392D01*
X168107142Y-96342678D01*
X168142857Y-96271250D01*
X168214285Y-96235535D01*
X168357142Y-96235535D01*
X168428571Y-96271250D01*
X168464285Y-96342678D01*
X168464285Y-96414107D01*
X168107142Y-96485535D01*
X169107142Y-96735535D02*
X169107142Y-95985535D01*
X169107142Y-96699821D02*
X169035714Y-96735535D01*
X168892857Y-96735535D01*
X168821428Y-96699821D01*
X168785714Y-96664107D01*
X168750000Y-96592678D01*
X168750000Y-96378392D01*
X168785714Y-96306964D01*
X168821428Y-96271250D01*
X168892857Y-96235535D01*
X169035714Y-96235535D01*
X169107142Y-96271250D01*
X170035714Y-96735535D02*
X170035714Y-95985535D01*
X170035714Y-96271250D02*
X170107142Y-96235535D01*
X170250000Y-96235535D01*
X170321428Y-96271250D01*
X170357142Y-96306964D01*
X170392857Y-96378392D01*
X170392857Y-96592678D01*
X170357142Y-96664107D01*
X170321428Y-96699821D01*
X170250000Y-96735535D01*
X170107142Y-96735535D01*
X170035714Y-96699821D01*
X170642857Y-96235535D02*
X170821428Y-96735535D01*
X171000000Y-96235535D02*
X170821428Y-96735535D01*
X170750000Y-96914107D01*
X170714285Y-96949821D01*
X170642857Y-96985535D01*
X172107142Y-96342678D02*
X171857142Y-96342678D01*
X171857142Y-96735535D02*
X171857142Y-95985535D01*
X172214285Y-95985535D01*
X172607142Y-96735535D02*
X172535714Y-96699821D01*
X172500000Y-96664107D01*
X172464285Y-96592678D01*
X172464285Y-96378392D01*
X172500000Y-96306964D01*
X172535714Y-96271250D01*
X172607142Y-96235535D01*
X172714285Y-96235535D01*
X172785714Y-96271250D01*
X172821428Y-96306964D01*
X172857142Y-96378392D01*
X172857142Y-96592678D01*
X172821428Y-96664107D01*
X172785714Y-96699821D01*
X172714285Y-96735535D01*
X172607142Y-96735535D01*
X173178571Y-96735535D02*
X173178571Y-96235535D01*
X173178571Y-96378392D02*
X173214285Y-96306964D01*
X173250000Y-96271250D01*
X173321428Y-96235535D01*
X173392857Y-96235535D01*
X173535714Y-96235535D02*
X173821428Y-96235535D01*
X173642857Y-95985535D02*
X173642857Y-96628392D01*
X173678571Y-96699821D01*
X173750000Y-96735535D01*
X173821428Y-96735535D01*
X174071428Y-96735535D02*
X174071428Y-96235535D01*
X174071428Y-95985535D02*
X174035714Y-96021250D01*
X174071428Y-96056964D01*
X174107142Y-96021250D01*
X174071428Y-95985535D01*
X174071428Y-96056964D01*
X174428571Y-96235535D02*
X174428571Y-96735535D01*
X174428571Y-96306964D02*
X174464285Y-96271250D01*
X174535714Y-96235535D01*
X174642857Y-96235535D01*
X174714285Y-96271250D01*
X174750000Y-96342678D01*
X174750000Y-96735535D01*
X175107142Y-96735535D02*
X175107142Y-95985535D01*
X175107142Y-96271250D02*
X175178571Y-96235535D01*
X175321428Y-96235535D01*
X175392857Y-96271250D01*
X175428571Y-96306964D01*
X175464285Y-96378392D01*
X175464285Y-96592678D01*
X175428571Y-96664107D01*
X175392857Y-96699821D01*
X175321428Y-96735535D01*
X175178571Y-96735535D01*
X175107142Y-96699821D01*
X175785714Y-96735535D02*
X175785714Y-96235535D01*
X175785714Y-96378392D02*
X175821428Y-96306964D01*
X175857142Y-96271250D01*
X175928571Y-96235535D01*
X176000000Y-96235535D01*
X176571428Y-96735535D02*
X176571428Y-96342678D01*
X176535714Y-96271250D01*
X176464285Y-96235535D01*
X176321428Y-96235535D01*
X176250000Y-96271250D01*
X176571428Y-96699821D02*
X176500000Y-96735535D01*
X176321428Y-96735535D01*
X176250000Y-96699821D01*
X176214285Y-96628392D01*
X176214285Y-96556964D01*
X176250000Y-96485535D01*
X176321428Y-96449821D01*
X176500000Y-96449821D01*
X176571428Y-96414107D01*
X161678571Y-97443035D02*
X161964285Y-97443035D01*
X161785714Y-97943035D02*
X161785714Y-97300178D01*
X161821428Y-97228750D01*
X161892857Y-97193035D01*
X161964285Y-97193035D01*
X162321428Y-97943035D02*
X162250000Y-97907321D01*
X162214285Y-97871607D01*
X162178571Y-97800178D01*
X162178571Y-97585892D01*
X162214285Y-97514464D01*
X162250000Y-97478750D01*
X162321428Y-97443035D01*
X162428571Y-97443035D01*
X162500000Y-97478750D01*
X162535714Y-97514464D01*
X162571428Y-97585892D01*
X162571428Y-97800178D01*
X162535714Y-97871607D01*
X162500000Y-97907321D01*
X162428571Y-97943035D01*
X162321428Y-97943035D01*
X162892857Y-97943035D02*
X162892857Y-97443035D01*
X162892857Y-97585892D02*
X162928571Y-97514464D01*
X162964285Y-97478750D01*
X163035714Y-97443035D01*
X163107142Y-97443035D01*
X163250000Y-97443035D02*
X163535714Y-97443035D01*
X163357142Y-97193035D02*
X163357142Y-97835892D01*
X163392857Y-97907321D01*
X163464285Y-97943035D01*
X163535714Y-97943035D01*
X163785714Y-97943035D02*
X163785714Y-97443035D01*
X163785714Y-97193035D02*
X163750000Y-97228750D01*
X163785714Y-97264464D01*
X163821428Y-97228750D01*
X163785714Y-97193035D01*
X163785714Y-97264464D01*
X164142857Y-97443035D02*
X164142857Y-97943035D01*
X164142857Y-97514464D02*
X164178571Y-97478750D01*
X164250000Y-97443035D01*
X164357142Y-97443035D01*
X164428571Y-97478750D01*
X164464285Y-97550178D01*
X164464285Y-97943035D01*
X164821428Y-97943035D02*
X164821428Y-97193035D01*
X164821428Y-97478750D02*
X164892857Y-97443035D01*
X165035714Y-97443035D01*
X165107142Y-97478750D01*
X165142857Y-97514464D01*
X165178571Y-97585892D01*
X165178571Y-97800178D01*
X165142857Y-97871607D01*
X165107142Y-97907321D01*
X165035714Y-97943035D01*
X164892857Y-97943035D01*
X164821428Y-97907321D01*
X165500000Y-97943035D02*
X165500000Y-97443035D01*
X165500000Y-97585892D02*
X165535714Y-97514464D01*
X165571428Y-97478750D01*
X165642857Y-97443035D01*
X165714285Y-97443035D01*
X166285714Y-97943035D02*
X166285714Y-97550178D01*
X166250000Y-97478750D01*
X166178571Y-97443035D01*
X166035714Y-97443035D01*
X165964285Y-97478750D01*
X166285714Y-97907321D02*
X166214285Y-97943035D01*
X166035714Y-97943035D01*
X165964285Y-97907321D01*
X165928571Y-97835892D01*
X165928571Y-97764464D01*
X165964285Y-97693035D01*
X166035714Y-97657321D01*
X166214285Y-97657321D01*
X166285714Y-97621607D01*
X167107142Y-97585892D02*
X167071428Y-97550178D01*
X167000000Y-97514464D01*
X166928571Y-97514464D01*
X166857142Y-97550178D01*
X166821428Y-97585892D01*
X166785714Y-97657321D01*
X166785714Y-97728750D01*
X166821428Y-97800178D01*
X166857142Y-97835892D01*
X166928571Y-97871607D01*
X167000000Y-97871607D01*
X167071428Y-97835892D01*
X167107142Y-97800178D01*
X167107142Y-97514464D02*
X167107142Y-97800178D01*
X167142857Y-97835892D01*
X167178571Y-97835892D01*
X167250000Y-97800178D01*
X167285714Y-97728750D01*
X167285714Y-97550178D01*
X167214285Y-97443035D01*
X167107142Y-97371607D01*
X166964285Y-97335892D01*
X166821428Y-97371607D01*
X166714285Y-97443035D01*
X166642857Y-97550178D01*
X166607142Y-97693035D01*
X166642857Y-97835892D01*
X166714285Y-97943035D01*
X166821428Y-98014464D01*
X166964285Y-98050178D01*
X167107142Y-98014464D01*
X167214285Y-97943035D01*
X167607142Y-97943035D02*
X167607142Y-97193035D01*
X167607142Y-97478750D02*
X167678571Y-97443035D01*
X167821428Y-97443035D01*
X167892857Y-97478750D01*
X167928571Y-97514464D01*
X167964285Y-97585892D01*
X167964285Y-97800178D01*
X167928571Y-97871607D01*
X167892857Y-97907321D01*
X167821428Y-97943035D01*
X167678571Y-97943035D01*
X167607142Y-97907321D01*
X168571428Y-97907321D02*
X168500000Y-97943035D01*
X168357142Y-97943035D01*
X168285714Y-97907321D01*
X168250000Y-97835892D01*
X168250000Y-97550178D01*
X168285714Y-97478750D01*
X168357142Y-97443035D01*
X168500000Y-97443035D01*
X168571428Y-97478750D01*
X168607142Y-97550178D01*
X168607142Y-97621607D01*
X168250000Y-97693035D01*
X169250000Y-97907321D02*
X169178571Y-97943035D01*
X169035714Y-97943035D01*
X168964285Y-97907321D01*
X168928571Y-97871607D01*
X168892857Y-97800178D01*
X168892857Y-97585892D01*
X168928571Y-97514464D01*
X168964285Y-97478750D01*
X169035714Y-97443035D01*
X169178571Y-97443035D01*
X169250000Y-97478750D01*
X169892857Y-97943035D02*
X169892857Y-97550178D01*
X169857142Y-97478750D01*
X169785714Y-97443035D01*
X169642857Y-97443035D01*
X169571428Y-97478750D01*
X169892857Y-97907321D02*
X169821428Y-97943035D01*
X169642857Y-97943035D01*
X169571428Y-97907321D01*
X169535714Y-97835892D01*
X169535714Y-97764464D01*
X169571428Y-97693035D01*
X169642857Y-97657321D01*
X169821428Y-97657321D01*
X169892857Y-97621607D01*
X170571428Y-97443035D02*
X170571428Y-97943035D01*
X170250000Y-97443035D02*
X170250000Y-97835892D01*
X170285714Y-97907321D01*
X170357142Y-97943035D01*
X170464285Y-97943035D01*
X170535714Y-97907321D01*
X170571428Y-97871607D01*
X170892857Y-97907321D02*
X170964285Y-97943035D01*
X171107142Y-97943035D01*
X171178571Y-97907321D01*
X171214285Y-97835892D01*
X171214285Y-97800178D01*
X171178571Y-97728750D01*
X171107142Y-97693035D01*
X171000000Y-97693035D01*
X170928571Y-97657321D01*
X170892857Y-97585892D01*
X170892857Y-97550178D01*
X170928571Y-97478750D01*
X171000000Y-97443035D01*
X171107142Y-97443035D01*
X171178571Y-97478750D01*
X171821428Y-97907321D02*
X171750000Y-97943035D01*
X171607142Y-97943035D01*
X171535714Y-97907321D01*
X171500000Y-97835892D01*
X171500000Y-97550178D01*
X171535714Y-97478750D01*
X171607142Y-97443035D01*
X171750000Y-97443035D01*
X171821428Y-97478750D01*
X171857142Y-97550178D01*
X171857142Y-97621607D01*
X171500000Y-97693035D01*
X172178571Y-97943035D02*
X172178571Y-97443035D01*
X172178571Y-97193035D02*
X172142857Y-97228750D01*
X172178571Y-97264464D01*
X172214285Y-97228750D01*
X172178571Y-97193035D01*
X172178571Y-97264464D01*
X172535714Y-97943035D02*
X172535714Y-97443035D01*
X172535714Y-97514464D02*
X172571428Y-97478750D01*
X172642857Y-97443035D01*
X172750000Y-97443035D01*
X172821428Y-97478750D01*
X172857142Y-97550178D01*
X172857142Y-97943035D01*
X172857142Y-97550178D02*
X172892857Y-97478750D01*
X172964285Y-97443035D01*
X173071428Y-97443035D01*
X173142857Y-97478750D01*
X173178571Y-97550178D01*
X173178571Y-97943035D01*
X173857142Y-97907321D02*
X173785714Y-97943035D01*
X173642857Y-97943035D01*
X173571428Y-97907321D01*
X173535714Y-97871607D01*
X173500000Y-97800178D01*
X173500000Y-97585892D01*
X173535714Y-97514464D01*
X173571428Y-97478750D01*
X173642857Y-97443035D01*
X173785714Y-97443035D01*
X173857142Y-97478750D01*
X174285714Y-97943035D02*
X174214285Y-97907321D01*
X174178571Y-97835892D01*
X174178571Y-97193035D01*
X174857142Y-97907321D02*
X174785714Y-97943035D01*
X174642857Y-97943035D01*
X174571428Y-97907321D01*
X174535714Y-97835892D01*
X174535714Y-97550178D01*
X174571428Y-97478750D01*
X174642857Y-97443035D01*
X174785714Y-97443035D01*
X174857142Y-97478750D01*
X174892857Y-97550178D01*
X174892857Y-97621607D01*
X174535714Y-97693035D01*
X175142857Y-97443035D02*
X175321428Y-97943035D01*
X175500000Y-97443035D01*
X176071428Y-97907321D02*
X176000000Y-97943035D01*
X175857142Y-97943035D01*
X175785714Y-97907321D01*
X175750000Y-97835892D01*
X175750000Y-97550178D01*
X175785714Y-97478750D01*
X175857142Y-97443035D01*
X176000000Y-97443035D01*
X176071428Y-97478750D01*
X176107142Y-97550178D01*
X176107142Y-97621607D01*
X175750000Y-97693035D01*
X176428571Y-97943035D02*
X176428571Y-97443035D01*
X176428571Y-97585892D02*
X176464285Y-97514464D01*
X176500000Y-97478750D01*
X176571428Y-97443035D01*
X176642857Y-97443035D01*
X176892857Y-97871607D02*
X176928571Y-97907321D01*
X176892857Y-97943035D01*
X176857142Y-97907321D01*
X176892857Y-97871607D01*
X176892857Y-97943035D01*
X177571428Y-97907321D02*
X177500000Y-97943035D01*
X177357142Y-97943035D01*
X177285714Y-97907321D01*
X177250000Y-97871607D01*
X177214285Y-97800178D01*
X177214285Y-97585892D01*
X177250000Y-97514464D01*
X177285714Y-97478750D01*
X177357142Y-97443035D01*
X177500000Y-97443035D01*
X177571428Y-97478750D01*
X178000000Y-97943035D02*
X177928571Y-97907321D01*
X177892857Y-97871607D01*
X177857142Y-97800178D01*
X177857142Y-97585892D01*
X177892857Y-97514464D01*
X177928571Y-97478750D01*
X178000000Y-97443035D01*
X178107142Y-97443035D01*
X178178571Y-97478750D01*
X178214285Y-97514464D01*
X178250000Y-97585892D01*
X178250000Y-97800178D01*
X178214285Y-97871607D01*
X178178571Y-97907321D01*
X178107142Y-97943035D01*
X178000000Y-97943035D01*
X178571428Y-97943035D02*
X178571428Y-97443035D01*
X178571428Y-97514464D02*
X178607142Y-97478750D01*
X178678571Y-97443035D01*
X178785714Y-97443035D01*
X178857142Y-97478750D01*
X178892857Y-97550178D01*
X178892857Y-97943035D01*
X178892857Y-97550178D02*
X178928571Y-97478750D01*
X179000000Y-97443035D01*
X179107142Y-97443035D01*
X179178571Y-97478750D01*
X179214285Y-97550178D01*
X179214285Y-97943035D01*
D11*
X159738095Y-79226190D02*
X159785714Y-79226190D01*
X159833333Y-79250000D01*
X159857142Y-79273809D01*
X159880952Y-79321428D01*
X159904761Y-79416666D01*
X159904761Y-79535714D01*
X159880952Y-79630952D01*
X159857142Y-79678571D01*
X159833333Y-79702380D01*
X159785714Y-79726190D01*
X159738095Y-79726190D01*
X159690476Y-79702380D01*
X159666666Y-79678571D01*
X159642857Y-79630952D01*
X159619047Y-79535714D01*
X159619047Y-79416666D01*
X159642857Y-79321428D01*
X159666666Y-79273809D01*
X159690476Y-79250000D01*
X159738095Y-79226190D01*
X160214285Y-79226190D02*
X160261904Y-79226190D01*
X160309523Y-79250000D01*
X160333333Y-79273809D01*
X160357142Y-79321428D01*
X160380952Y-79416666D01*
X160380952Y-79535714D01*
X160357142Y-79630952D01*
X160333333Y-79678571D01*
X160309523Y-79702380D01*
X160261904Y-79726190D01*
X160214285Y-79726190D01*
X160166666Y-79702380D01*
X160142857Y-79678571D01*
X160119047Y-79630952D01*
X160095238Y-79535714D01*
X160095238Y-79416666D01*
X160119047Y-79321428D01*
X160142857Y-79273809D01*
X160166666Y-79250000D01*
X160214285Y-79226190D01*
D10*
X158309523Y-93452380D02*
X158928571Y-93452380D01*
X158595238Y-93833333D01*
X158738095Y-93833333D01*
X158833333Y-93880952D01*
X158880952Y-93928571D01*
X158928571Y-94023809D01*
X158928571Y-94261904D01*
X158880952Y-94357142D01*
X158833333Y-94404761D01*
X158738095Y-94452380D01*
X158452380Y-94452380D01*
X158357142Y-94404761D01*
X158309523Y-94357142D01*
X159261904Y-93785714D02*
X159500000Y-94452380D01*
X159738095Y-93785714D01*
X160023809Y-93452380D02*
X160642857Y-93452380D01*
X160309523Y-93833333D01*
X160452380Y-93833333D01*
X160547619Y-93880952D01*
X160595238Y-93928571D01*
X160642857Y-94023809D01*
X160642857Y-94261904D01*
X160595238Y-94357142D01*
X160547619Y-94404761D01*
X160452380Y-94452380D01*
X160166666Y-94452380D01*
X160071428Y-94404761D01*
X160023809Y-94357142D01*
D12*
X162161904Y-79471428D02*
X162219047Y-79490476D01*
X162238095Y-79509523D01*
X162257142Y-79547619D01*
X162257142Y-79604761D01*
X162238095Y-79642857D01*
X162219047Y-79661904D01*
X162180952Y-79680952D01*
X162028571Y-79680952D01*
X162028571Y-79280952D01*
X162161904Y-79280952D01*
X162200000Y-79300000D01*
X162219047Y-79319047D01*
X162238095Y-79357142D01*
X162238095Y-79395238D01*
X162219047Y-79433333D01*
X162200000Y-79452380D01*
X162161904Y-79471428D01*
X162028571Y-79471428D01*
X162600000Y-79680952D02*
X162600000Y-79471428D01*
X162580952Y-79433333D01*
X162542857Y-79414285D01*
X162466666Y-79414285D01*
X162428571Y-79433333D01*
X162600000Y-79661904D02*
X162561904Y-79680952D01*
X162466666Y-79680952D01*
X162428571Y-79661904D01*
X162409523Y-79623809D01*
X162409523Y-79585714D01*
X162428571Y-79547619D01*
X162466666Y-79528571D01*
X162561904Y-79528571D01*
X162600000Y-79509523D01*
X162790476Y-79414285D02*
X162790476Y-79680952D01*
X162790476Y-79452380D02*
X162809523Y-79433333D01*
X162847619Y-79414285D01*
X162904761Y-79414285D01*
X162942857Y-79433333D01*
X162961904Y-79471428D01*
X162961904Y-79680952D01*
X163152380Y-79680952D02*
X163152380Y-79280952D01*
X163190476Y-79528571D02*
X163304761Y-79680952D01*
X163304761Y-79414285D02*
X163152380Y-79566666D01*
X163857142Y-79280952D02*
X163895238Y-79280952D01*
X163933333Y-79300000D01*
X163952380Y-79319047D01*
X163971428Y-79357142D01*
X163990476Y-79433333D01*
X163990476Y-79528571D01*
X163971428Y-79604761D01*
X163952380Y-79642857D01*
X163933333Y-79661904D01*
X163895238Y-79680952D01*
X163857142Y-79680952D01*
X163819047Y-79661904D01*
X163800000Y-79642857D01*
X163780952Y-79604761D01*
X163761904Y-79528571D01*
X163761904Y-79433333D01*
X163780952Y-79357142D01*
X163800000Y-79319047D01*
X163819047Y-79300000D01*
X163857142Y-79280952D01*
D10*
%TO.C,J2*%
X166166666Y-76452380D02*
X166166666Y-77166666D01*
X166119047Y-77309523D01*
X166023809Y-77404761D01*
X165880952Y-77452380D01*
X165785714Y-77452380D01*
X166595238Y-76547619D02*
X166642857Y-76500000D01*
X166738095Y-76452380D01*
X166976190Y-76452380D01*
X167071428Y-76500000D01*
X167119047Y-76547619D01*
X167166666Y-76642857D01*
X167166666Y-76738095D01*
X167119047Y-76880952D01*
X166547619Y-77452380D01*
X167166666Y-77452380D01*
%TO.C,J1*%
X174166666Y-76452380D02*
X174166666Y-77166666D01*
X174119047Y-77309523D01*
X174023809Y-77404761D01*
X173880952Y-77452380D01*
X173785714Y-77452380D01*
X175166666Y-77452380D02*
X174595238Y-77452380D01*
X174880952Y-77452380D02*
X174880952Y-76452380D01*
X174785714Y-76595238D01*
X174690476Y-76690476D01*
X174595238Y-76738095D01*
%TO.C,U1*%
X169157195Y-84952380D02*
X169157195Y-85761904D01*
X169204814Y-85857142D01*
X169252433Y-85904761D01*
X169347671Y-85952380D01*
X169538147Y-85952380D01*
X169633385Y-85904761D01*
X169681004Y-85857142D01*
X169728623Y-85761904D01*
X169728623Y-84952380D01*
X170728623Y-85952380D02*
X170157195Y-85952380D01*
X170442909Y-85952380D02*
X170442909Y-84952380D01*
X170347671Y-85095238D01*
X170252433Y-85190476D01*
X170157195Y-85238095D01*
X165323861Y-94452380D02*
X165323861Y-93452380D01*
X165704814Y-93452380D01*
X165800052Y-93500000D01*
X165847671Y-93547619D01*
X165895290Y-93642857D01*
X165895290Y-93785714D01*
X165847671Y-93880952D01*
X165800052Y-93928571D01*
X165704814Y-93976190D01*
X165323861Y-93976190D01*
X166895290Y-94357142D02*
X166847671Y-94404761D01*
X166704814Y-94452380D01*
X166609576Y-94452380D01*
X166466719Y-94404761D01*
X166371480Y-94309523D01*
X166323861Y-94214285D01*
X166276242Y-94023809D01*
X166276242Y-93880952D01*
X166323861Y-93690476D01*
X166371480Y-93595238D01*
X166466719Y-93500000D01*
X166609576Y-93452380D01*
X166704814Y-93452380D01*
X166847671Y-93500000D01*
X166895290Y-93547619D01*
X167276242Y-94166666D02*
X167752433Y-94166666D01*
X167181004Y-94452380D02*
X167514338Y-93452380D01*
X167847671Y-94452380D01*
X168228623Y-94452380D02*
X168419100Y-94452380D01*
X168514338Y-94404761D01*
X168561957Y-94357142D01*
X168657195Y-94214285D01*
X168704814Y-94023809D01*
X168704814Y-93642857D01*
X168657195Y-93547619D01*
X168609576Y-93500000D01*
X168514338Y-93452380D01*
X168323861Y-93452380D01*
X168228623Y-93500000D01*
X168181004Y-93547619D01*
X168133385Y-93642857D01*
X168133385Y-93880952D01*
X168181004Y-93976190D01*
X168228623Y-94023809D01*
X168323861Y-94071428D01*
X168514338Y-94071428D01*
X168609576Y-94023809D01*
X168657195Y-93976190D01*
X168704814Y-93880952D01*
X169609576Y-93452380D02*
X169133385Y-93452380D01*
X169085766Y-93928571D01*
X169133385Y-93880952D01*
X169228623Y-93833333D01*
X169466719Y-93833333D01*
X169561957Y-93880952D01*
X169609576Y-93928571D01*
X169657195Y-94023809D01*
X169657195Y-94261904D01*
X169609576Y-94357142D01*
X169561957Y-94404761D01*
X169466719Y-94452380D01*
X169228623Y-94452380D01*
X169133385Y-94404761D01*
X169085766Y-94357142D01*
X169990528Y-93452380D02*
X170609576Y-93452380D01*
X170276242Y-93833333D01*
X170419100Y-93833333D01*
X170514338Y-93880952D01*
X170561957Y-93928571D01*
X170609576Y-94023809D01*
X170609576Y-94261904D01*
X170561957Y-94357142D01*
X170514338Y-94404761D01*
X170419100Y-94452380D01*
X170133385Y-94452380D01*
X170038147Y-94404761D01*
X169990528Y-94357142D01*
X171514338Y-93452380D02*
X171038147Y-93452380D01*
X170990528Y-93928571D01*
X171038147Y-93880952D01*
X171133385Y-93833333D01*
X171371480Y-93833333D01*
X171466719Y-93880952D01*
X171514338Y-93928571D01*
X171561957Y-94023809D01*
X171561957Y-94261904D01*
X171514338Y-94357142D01*
X171466719Y-94404761D01*
X171371480Y-94452380D01*
X171133385Y-94452380D01*
X171038147Y-94404761D01*
X170990528Y-94357142D01*
X171990528Y-94452380D02*
X171990528Y-93452380D01*
X172228623Y-93452380D01*
X172371480Y-93500000D01*
X172466719Y-93595238D01*
X172514338Y-93690476D01*
X172561957Y-93880952D01*
X172561957Y-94023809D01*
X172514338Y-94214285D01*
X172466719Y-94309523D01*
X172371480Y-94404761D01*
X172228623Y-94452380D01*
X171990528Y-94452380D01*
X173323861Y-93928571D02*
X173466719Y-93976190D01*
X173514338Y-94023809D01*
X173561957Y-94119047D01*
X173561957Y-94261904D01*
X173514338Y-94357142D01*
X173466719Y-94404761D01*
X173371480Y-94452380D01*
X172990528Y-94452380D01*
X172990528Y-93452380D01*
X173323861Y-93452380D01*
X173419100Y-93500000D01*
X173466719Y-93547619D01*
X173514338Y-93642857D01*
X173514338Y-93738095D01*
X173466719Y-93833333D01*
X173419100Y-93880952D01*
X173323861Y-93928571D01*
X172990528Y-93928571D01*
X174561957Y-94452380D02*
X174228623Y-93976190D01*
X173990528Y-94452380D02*
X173990528Y-93452380D01*
X174371480Y-93452380D01*
X174466719Y-93500000D01*
X174514338Y-93547619D01*
X174561957Y-93642857D01*
X174561957Y-93785714D01*
X174514338Y-93880952D01*
X174466719Y-93928571D01*
X174371480Y-93976190D01*
X173990528Y-93976190D01*
D12*
%TO.C,R1*%
X174433333Y-83180952D02*
X174300000Y-82990476D01*
X174204761Y-83180952D02*
X174204761Y-82780952D01*
X174357142Y-82780952D01*
X174395238Y-82800000D01*
X174414285Y-82819047D01*
X174433333Y-82857142D01*
X174433333Y-82914285D01*
X174414285Y-82952380D01*
X174395238Y-82971428D01*
X174357142Y-82990476D01*
X174204761Y-82990476D01*
X174814285Y-83180952D02*
X174585714Y-83180952D01*
X174700000Y-83180952D02*
X174700000Y-82780952D01*
X174661904Y-82838095D01*
X174623809Y-82876190D01*
X174585714Y-82895238D01*
%TO.C,R2*%
X174433333Y-81180952D02*
X174300000Y-80990476D01*
X174204761Y-81180952D02*
X174204761Y-80780952D01*
X174357142Y-80780952D01*
X174395238Y-80800000D01*
X174414285Y-80819047D01*
X174433333Y-80857142D01*
X174433333Y-80914285D01*
X174414285Y-80952380D01*
X174395238Y-80971428D01*
X174357142Y-80990476D01*
X174204761Y-80990476D01*
X174585714Y-80819047D02*
X174604761Y-80800000D01*
X174642857Y-80780952D01*
X174738095Y-80780952D01*
X174776190Y-80800000D01*
X174795238Y-80819047D01*
X174814285Y-80857142D01*
X174814285Y-80895238D01*
X174795238Y-80952380D01*
X174566666Y-81180952D01*
X174814285Y-81180952D01*
D10*
%TO.C,J4*%
X170166666Y-79122380D02*
X170166666Y-79836666D01*
X170119047Y-79979523D01*
X170023809Y-80074761D01*
X169880952Y-80122380D01*
X169785714Y-80122380D01*
X171071428Y-79455714D02*
X171071428Y-80122380D01*
X170833333Y-79074761D02*
X170595238Y-79789047D01*
X171214285Y-79789047D01*
D12*
%TO.C,R3*%
X166433333Y-82680952D02*
X166300000Y-82490476D01*
X166204761Y-82680952D02*
X166204761Y-82280952D01*
X166357142Y-82280952D01*
X166395238Y-82300000D01*
X166414285Y-82319047D01*
X166433333Y-82357142D01*
X166433333Y-82414285D01*
X166414285Y-82452380D01*
X166395238Y-82471428D01*
X166357142Y-82490476D01*
X166204761Y-82490476D01*
X166566666Y-82280952D02*
X166814285Y-82280952D01*
X166680952Y-82433333D01*
X166738095Y-82433333D01*
X166776190Y-82452380D01*
X166795238Y-82471428D01*
X166814285Y-82509523D01*
X166814285Y-82604761D01*
X166795238Y-82642857D01*
X166776190Y-82661904D01*
X166738095Y-82680952D01*
X166623809Y-82680952D01*
X166585714Y-82661904D01*
X166566666Y-82642857D01*
D14*
%TO.C,J2*%
X168560000Y-78785000D02*
X168560000Y-79775000D01*
X163390000Y-78785000D02*
X164440000Y-78785000D01*
X169610000Y-78785000D02*
X168560000Y-78785000D01*
X163390000Y-76285000D02*
X163390000Y-78785000D01*
X169610000Y-76285000D02*
X169610000Y-78785000D01*
X168440000Y-74315000D02*
X164560000Y-74315000D01*
%TO.C,J1*%
X176440000Y-74315000D02*
X172560000Y-74315000D01*
X177610000Y-76285000D02*
X177610000Y-78785000D01*
X171390000Y-76285000D02*
X171390000Y-78785000D01*
X177610000Y-78785000D02*
X176560000Y-78785000D01*
X171390000Y-78785000D02*
X172440000Y-78785000D01*
X176560000Y-78785000D02*
X176560000Y-79775000D01*
%TO.C,U1*%
X166998100Y-84071000D02*
X166998100Y-84329261D01*
X172840100Y-84071000D02*
X166998100Y-84071000D01*
X166998100Y-92834000D02*
X172840100Y-92834000D01*
X172840100Y-92834000D02*
X172840100Y-92575739D01*
X166998100Y-92575739D02*
X166998100Y-92834000D01*
X172840100Y-84329261D02*
X172840100Y-84071000D01*
G36*
X165213001Y-90917999D02*
G01*
X164959001Y-90917999D01*
X164959001Y-90536999D01*
X165213001Y-90536999D01*
X165213001Y-90917999D01*
G37*
D12*
X165213001Y-90917999D02*
X164959001Y-90917999D01*
X164959001Y-90536999D01*
X165213001Y-90536999D01*
X165213001Y-90917999D01*
G36*
X174879199Y-87668001D02*
G01*
X174625199Y-87668001D01*
X174625199Y-87287001D01*
X174879199Y-87287001D01*
X174879199Y-87668001D01*
G37*
X174879199Y-87668001D02*
X174625199Y-87668001D01*
X174625199Y-87287001D01*
X174879199Y-87287001D01*
X174879199Y-87668001D01*
D14*
%TO.C,R1*%
X174727064Y-83735000D02*
X174272936Y-83735000D01*
X174727064Y-82265000D02*
X174272936Y-82265000D01*
%TO.C,R2*%
X174727064Y-81735000D02*
X174272936Y-81735000D01*
X174727064Y-80265000D02*
X174272936Y-80265000D01*
%TO.C,J6*%
X182830000Y-80010000D02*
X177630000Y-80010000D01*
X180230000Y-90230000D02*
X180230000Y-92830000D01*
X182830000Y-90230000D02*
X180230000Y-90230000D01*
X182830000Y-90230000D02*
X182830000Y-80010000D01*
X182830000Y-92830000D02*
X181500000Y-92830000D01*
X177630000Y-92830000D02*
X177630000Y-80010000D01*
X180230000Y-92830000D02*
X177630000Y-92830000D01*
X182830000Y-91500000D02*
X182830000Y-92830000D01*
%TO.C,J4*%
X169170000Y-82000000D02*
X169170000Y-80670000D01*
X169170000Y-80670000D02*
X170500000Y-80670000D01*
X169170000Y-83270000D02*
X169170000Y-83330000D01*
X169170000Y-83270000D02*
X171830000Y-83270000D01*
X169170000Y-83330000D02*
X171830000Y-83330000D01*
X171830000Y-83270000D02*
X171830000Y-83330000D01*
%TO.C,J3*%
X158670000Y-80170000D02*
X160000000Y-80170000D01*
X158670000Y-82770000D02*
X161270000Y-82770000D01*
X161270000Y-80170000D02*
X163870000Y-80170000D01*
X158670000Y-81500000D02*
X158670000Y-80170000D01*
X163870000Y-80170000D02*
X163870000Y-92990000D01*
X161270000Y-82770000D02*
X161270000Y-80170000D01*
X158670000Y-82770000D02*
X158670000Y-92990000D01*
X158670000Y-92990000D02*
X163870000Y-92990000D01*
%TO.C,R3*%
X166272936Y-83235000D02*
X166727064Y-83235000D01*
X166272936Y-81765000D02*
X166727064Y-81765000D01*
%TD*%
M02*
