%TF.GenerationSoftware,KiCad,Pcbnew,(6.0.7)*%
%TF.CreationDate,2022-09-24T19:09:13-05:00*%
%TF.ProjectId,PCA9535,50434139-3533-4352-9e6b-696361645f70,rev?*%
%TF.SameCoordinates,Original*%
%TF.FileFunction,Copper,L2,Bot*%
%TF.FilePolarity,Positive*%
%FSLAX46Y46*%
G04 Gerber Fmt 4.6, Leading zero omitted, Abs format (unit mm)*
G04 Created by KiCad (PCBNEW (6.0.7)) date 2022-09-24 19:09:13*
%MOMM*%
%LPD*%
G01*
G04 APERTURE LIST*
%TA.AperFunction,ComponentPad*%
%ADD10R,1.700000X1.700000*%
%TD*%
%TA.AperFunction,ComponentPad*%
%ADD11O,1.700000X1.700000*%
%TD*%
%TA.AperFunction,SMDPad,CuDef*%
%ADD12R,1.000000X1.500000*%
%TD*%
%TA.AperFunction,ViaPad*%
%ADD13C,0.800000*%
%TD*%
%TA.AperFunction,Conductor*%
%ADD14C,0.250000*%
%TD*%
G04 APERTURE END LIST*
D10*
%TO.P,J6,1,Pin_1*%
%TO.N,P10*%
X140000000Y-87000000D03*
D11*
%TO.P,J6,2,Pin_2*%
%TO.N,P14*%
X137460000Y-87000000D03*
%TO.P,J6,3,Pin_3*%
%TO.N,P11*%
X140000000Y-84460000D03*
%TO.P,J6,4,Pin_4*%
%TO.N,P15*%
X137460000Y-84460000D03*
%TO.P,J6,5,Pin_5*%
%TO.N,P12*%
X140000000Y-81920000D03*
%TO.P,J6,6,Pin_6*%
%TO.N,P16*%
X137460000Y-81920000D03*
%TO.P,J6,7,Pin_7*%
%TO.N,P13*%
X140000000Y-79380000D03*
%TO.P,J6,8,Pin_8*%
%TO.N,P17*%
X137460000Y-79380000D03*
%TO.P,J6,9,Pin_9*%
%TO.N,+3.3V*%
X140000000Y-76840000D03*
%TO.P,J6,10,Pin_10*%
%TO.N,GND*%
X137460000Y-76840000D03*
%TD*%
D10*
%TO.P,J4,1,Pin_1*%
%TO.N,INT*%
X129000000Y-77000000D03*
%TD*%
%TO.P,J3,1,Pin_1*%
%TO.N,P00*%
X118500000Y-77000000D03*
D11*
%TO.P,J3,2,Pin_2*%
%TO.N,P04*%
X121040000Y-77000000D03*
%TO.P,J3,3,Pin_3*%
%TO.N,P01*%
X118500000Y-79540000D03*
%TO.P,J3,4,Pin_4*%
%TO.N,P05*%
X121040000Y-79540000D03*
%TO.P,J3,5,Pin_5*%
%TO.N,P02*%
X118500000Y-82080000D03*
%TO.P,J3,6,Pin_6*%
%TO.N,P06*%
X121040000Y-82080000D03*
%TO.P,J3,7,Pin_7*%
%TO.N,P03*%
X118500000Y-84620000D03*
%TO.P,J3,8,Pin_8*%
%TO.N,P07*%
X121040000Y-84620000D03*
%TO.P,J3,9,Pin_9*%
%TO.N,+3.3V*%
X118500000Y-87160000D03*
%TO.P,J3,10,Pin_10*%
%TO.N,GND*%
X121040000Y-87160000D03*
%TD*%
D12*
%TO.P,JP1,1,A*%
%TO.N,+3.3V*%
X131800000Y-84500000D03*
%TO.P,JP1,2,C*%
%TO.N,A0*%
X130500000Y-84500000D03*
%TO.P,JP1,3,B*%
%TO.N,GND*%
X129200000Y-84500000D03*
%TD*%
%TO.P,JP2,1,A*%
%TO.N,+3.3V*%
X131800000Y-88500000D03*
%TO.P,JP2,2,C*%
%TO.N,A1*%
X130500000Y-88500000D03*
%TO.P,JP2,3,B*%
%TO.N,GND*%
X129200000Y-88500000D03*
%TD*%
%TO.P,JP3,1,A*%
%TO.N,+3.3V*%
X131800000Y-92500000D03*
%TO.P,JP3,2,C*%
%TO.N,A2*%
X130500000Y-92500000D03*
%TO.P,JP3,3,B*%
%TO.N,GND*%
X129200000Y-92500000D03*
%TD*%
D13*
%TO.N,GND*%
X121666000Y-91948000D03*
X132842000Y-90678000D03*
%TO.N,SCL*%
X134500000Y-73500000D03*
X132000000Y-78000000D03*
X128500000Y-73500000D03*
X130000000Y-81500000D03*
%TO.N,GND*%
X131500000Y-73500000D03*
X123500000Y-73500000D03*
%TO.N,P00*%
X127038534Y-81964740D03*
%TO.N,P01*%
X127084386Y-83035190D03*
%TO.N,P02*%
X126732512Y-84346070D03*
%TO.N,P03*%
X126500000Y-85852000D03*
%TO.N,P11*%
X135500000Y-87450500D03*
%TO.N,P12*%
X135411351Y-86362348D03*
%TO.N,P13*%
X134500000Y-85651999D03*
%TO.N,A1*%
X130500000Y-88000000D03*
%TO.N,A2*%
X130500000Y-92500000D03*
%TO.N,A0*%
X130500000Y-84000000D03*
%TD*%
D14*
%TO.N,P02*%
X126732512Y-83707914D02*
X123929598Y-80905000D01*
X126732512Y-84346070D02*
X126732512Y-83707914D01*
X123929598Y-80905000D02*
X119675000Y-80905000D01*
X119675000Y-80905000D02*
X118500000Y-82080000D01*
%TO.N,P03*%
X126500000Y-85852000D02*
X124093000Y-83445000D01*
X124093000Y-83445000D02*
X119675000Y-83445000D01*
X119675000Y-83445000D02*
X118500000Y-84620000D01*
%TO.N,+3.3V*%
X136836442Y-78015000D02*
X131800000Y-83051442D01*
X138825000Y-78015000D02*
X136836442Y-78015000D01*
X140000000Y-76840000D02*
X138825000Y-78015000D01*
X131800000Y-92500000D02*
X131800000Y-88500000D01*
X131800000Y-83051442D02*
X131800000Y-84500000D01*
X131325000Y-91425000D02*
X131800000Y-91900000D01*
X131800000Y-88500000D02*
X131800000Y-84500000D01*
X118500000Y-87160000D02*
X122765000Y-91425000D01*
X131800000Y-91900000D02*
X131800000Y-92500000D01*
X122765000Y-91425000D02*
X131325000Y-91425000D01*
%TO.N,SCL*%
X132000000Y-78000000D02*
X130000000Y-80000000D01*
X130000000Y-80000000D02*
X130000000Y-81500000D01*
X132500000Y-75500000D02*
X132000000Y-75500000D01*
X134500000Y-73500000D02*
X132500000Y-75500000D01*
X132000000Y-75500000D02*
X132000000Y-78000000D01*
X128500000Y-73500000D02*
X130000000Y-73500000D01*
X130000000Y-73500000D02*
X132000000Y-75500000D01*
%TO.N,P00*%
X122573796Y-76872095D02*
X121526701Y-75825000D01*
X122573796Y-77500000D02*
X122573796Y-76872095D01*
X127038534Y-81964740D02*
X122573796Y-77500000D01*
X119675000Y-75825000D02*
X118500000Y-77000000D01*
X121526701Y-75825000D02*
X119675000Y-75825000D01*
%TO.N,P01*%
X119675000Y-78365000D02*
X118500000Y-79540000D01*
X127084386Y-83035190D02*
X122414196Y-78365000D01*
X122414196Y-78365000D02*
X119675000Y-78365000D01*
%TO.N,P11*%
X135500000Y-87450500D02*
X135500000Y-87298299D01*
X135500000Y-87298299D02*
X136973299Y-85825000D01*
X138635000Y-85825000D02*
X140000000Y-84460000D01*
X136973299Y-85825000D02*
X138635000Y-85825000D01*
%TO.N,P12*%
X139715000Y-83285000D02*
X140000000Y-83000000D01*
X135411351Y-86362348D02*
X135411351Y-84175140D01*
X135411351Y-84175140D02*
X136301491Y-83285000D01*
X136301491Y-83285000D02*
X139715000Y-83285000D01*
X140000000Y-83000000D02*
X140000000Y-81920000D01*
%TO.N,P13*%
X134500000Y-85651999D02*
X134500000Y-83218299D01*
X136973299Y-80745000D02*
X138635000Y-80745000D01*
X138635000Y-80745000D02*
X140000000Y-79380000D01*
X134500000Y-83218299D02*
X136973299Y-80745000D01*
%TD*%
%TA.AperFunction,Conductor*%
%TO.N,GND*%
G36*
X117217012Y-87647932D02*
G01*
X117251243Y-87695752D01*
X117270492Y-87743156D01*
X117283266Y-87774616D01*
X117301939Y-87805088D01*
X117397063Y-87960316D01*
X117399987Y-87965088D01*
X117546250Y-88133938D01*
X117718126Y-88276632D01*
X117911000Y-88389338D01*
X118119692Y-88469030D01*
X118124760Y-88470061D01*
X118124763Y-88470062D01*
X118195729Y-88484500D01*
X118338597Y-88513567D01*
X118343772Y-88513757D01*
X118343774Y-88513757D01*
X118556673Y-88521564D01*
X118556677Y-88521564D01*
X118561837Y-88521753D01*
X118566957Y-88521097D01*
X118566959Y-88521097D01*
X118778288Y-88494025D01*
X118778289Y-88494025D01*
X118783416Y-88493368D01*
X118788367Y-88491883D01*
X118788370Y-88491882D01*
X118829829Y-88479444D01*
X118900825Y-88479028D01*
X118955131Y-88511035D01*
X122261348Y-91817253D01*
X122268888Y-91825539D01*
X122273000Y-91832018D01*
X122278777Y-91837443D01*
X122322651Y-91878643D01*
X122325493Y-91881398D01*
X122345230Y-91901135D01*
X122348427Y-91903615D01*
X122357447Y-91911318D01*
X122389679Y-91941586D01*
X122396625Y-91945405D01*
X122396628Y-91945407D01*
X122407434Y-91951348D01*
X122423953Y-91962199D01*
X122439959Y-91974614D01*
X122447228Y-91977759D01*
X122447232Y-91977762D01*
X122480537Y-91992174D01*
X122491187Y-91997391D01*
X122529940Y-92018695D01*
X122537615Y-92020666D01*
X122537616Y-92020666D01*
X122549562Y-92023733D01*
X122568267Y-92030137D01*
X122586855Y-92038181D01*
X122594678Y-92039420D01*
X122594688Y-92039423D01*
X122630524Y-92045099D01*
X122642144Y-92047505D01*
X122677289Y-92056528D01*
X122684970Y-92058500D01*
X122705224Y-92058500D01*
X122724934Y-92060051D01*
X122744943Y-92063220D01*
X122752835Y-92062474D01*
X122788961Y-92059059D01*
X122800819Y-92058500D01*
X129365500Y-92058500D01*
X129433621Y-92078502D01*
X129480114Y-92132158D01*
X129491500Y-92184500D01*
X129491500Y-93298134D01*
X129498255Y-93360316D01*
X129549385Y-93496705D01*
X129636739Y-93613261D01*
X129753295Y-93700615D01*
X129761704Y-93703767D01*
X129761705Y-93703768D01*
X129878408Y-93747518D01*
X129935173Y-93790159D01*
X129959873Y-93856721D01*
X129944666Y-93926070D01*
X129894380Y-93976188D01*
X129834179Y-93991500D01*
X119802859Y-93991500D01*
X119734738Y-93971498D01*
X119688245Y-93917842D01*
X119678141Y-93847568D01*
X119711084Y-93779167D01*
X119740857Y-93747518D01*
X119870443Y-93609763D01*
X120019424Y-93395009D01*
X120065522Y-93301531D01*
X120132960Y-93164781D01*
X120132961Y-93164778D01*
X120135025Y-93160593D01*
X120214707Y-92911665D01*
X120256721Y-92653693D01*
X120260142Y-92392345D01*
X120224896Y-92133362D01*
X120210473Y-92083877D01*
X120190361Y-92014879D01*
X120151757Y-91882433D01*
X120042332Y-91645072D01*
X119989663Y-91564739D01*
X119901590Y-91430404D01*
X119901586Y-91430399D01*
X119899024Y-91426491D01*
X119724982Y-91231494D01*
X119524030Y-91064363D01*
X119476844Y-91035730D01*
X119304578Y-90931196D01*
X119304574Y-90931194D01*
X119300581Y-90928771D01*
X119059545Y-90827697D01*
X118806217Y-90763359D01*
X118801566Y-90762891D01*
X118801562Y-90762890D01*
X118592271Y-90741816D01*
X118589133Y-90741500D01*
X118433646Y-90741500D01*
X118431321Y-90741673D01*
X118431315Y-90741673D01*
X118244000Y-90755593D01*
X118243996Y-90755594D01*
X118239348Y-90755939D01*
X118234800Y-90756968D01*
X118234794Y-90756969D01*
X118082192Y-90791500D01*
X117984423Y-90813623D01*
X117980071Y-90815315D01*
X117980069Y-90815316D01*
X117745176Y-90906660D01*
X117745173Y-90906661D01*
X117740823Y-90908353D01*
X117513902Y-91038049D01*
X117308643Y-91199862D01*
X117305443Y-91203264D01*
X117226275Y-91287422D01*
X117165031Y-91323334D01*
X117094093Y-91320434D01*
X117035985Y-91279643D01*
X117009154Y-91213912D01*
X117008500Y-91201089D01*
X117008500Y-87743156D01*
X117028502Y-87675035D01*
X117082158Y-87628542D01*
X117152432Y-87618438D01*
X117217012Y-87647932D01*
G37*
%TD.AperFunction*%
%TA.AperFunction,Conductor*%
G36*
X136100377Y-79751135D02*
G01*
X136157213Y-79793682D01*
X136173088Y-79821787D01*
X136240513Y-79987835D01*
X136243266Y-79994616D01*
X136245965Y-79999020D01*
X136344013Y-80159020D01*
X136359987Y-80185088D01*
X136363365Y-80188988D01*
X136363366Y-80188989D01*
X136411913Y-80245033D01*
X136441395Y-80309618D01*
X136431280Y-80379891D01*
X136405770Y-80416625D01*
X135256303Y-81566091D01*
X134107747Y-82714647D01*
X134099461Y-82722187D01*
X134092982Y-82726299D01*
X134087557Y-82732076D01*
X134046357Y-82775950D01*
X134043602Y-82778792D01*
X134023865Y-82798529D01*
X134021385Y-82801726D01*
X134013682Y-82810746D01*
X133983414Y-82842978D01*
X133979595Y-82849924D01*
X133979593Y-82849927D01*
X133973652Y-82860733D01*
X133962801Y-82877252D01*
X133950386Y-82893258D01*
X133947241Y-82900527D01*
X133947238Y-82900531D01*
X133932826Y-82933836D01*
X133927609Y-82944486D01*
X133906305Y-82983239D01*
X133904334Y-82990914D01*
X133904334Y-82990915D01*
X133901267Y-83002861D01*
X133894863Y-83021565D01*
X133894002Y-83023556D01*
X133886819Y-83040154D01*
X133885580Y-83047977D01*
X133885577Y-83047987D01*
X133879901Y-83083823D01*
X133877495Y-83095443D01*
X133866500Y-83138269D01*
X133866500Y-83158523D01*
X133864949Y-83178233D01*
X133861780Y-83198242D01*
X133862526Y-83206134D01*
X133865941Y-83242260D01*
X133866500Y-83254118D01*
X133866500Y-84949475D01*
X133846498Y-85017596D01*
X133834142Y-85033778D01*
X133760960Y-85115055D01*
X133665473Y-85280443D01*
X133606458Y-85462071D01*
X133605768Y-85468632D01*
X133605768Y-85468634D01*
X133601721Y-85507137D01*
X133586496Y-85651999D01*
X133587186Y-85658564D01*
X133605322Y-85831114D01*
X133606458Y-85841927D01*
X133665473Y-86023555D01*
X133668776Y-86029277D01*
X133668777Y-86029278D01*
X133676081Y-86041928D01*
X133760960Y-86188943D01*
X133765378Y-86193850D01*
X133765379Y-86193851D01*
X133882977Y-86324457D01*
X133888747Y-86330865D01*
X134043248Y-86443117D01*
X134049276Y-86445801D01*
X134049278Y-86445802D01*
X134206587Y-86515840D01*
X134217712Y-86520793D01*
X134311112Y-86540646D01*
X134398056Y-86559127D01*
X134398061Y-86559127D01*
X134404513Y-86560499D01*
X134428937Y-86560499D01*
X134497058Y-86580501D01*
X134543551Y-86634157D01*
X134548770Y-86647562D01*
X134576824Y-86733904D01*
X134672311Y-86899292D01*
X134676735Y-86904206D01*
X134678578Y-86906742D01*
X134702436Y-86973610D01*
X134685761Y-87043804D01*
X134665473Y-87078944D01*
X134606458Y-87260572D01*
X134605768Y-87267133D01*
X134605768Y-87267135D01*
X134597089Y-87349715D01*
X134586496Y-87450500D01*
X134606458Y-87640428D01*
X134665473Y-87822056D01*
X134760960Y-87987444D01*
X134888747Y-88129366D01*
X135043248Y-88241618D01*
X135049276Y-88244302D01*
X135049278Y-88244303D01*
X135196976Y-88310062D01*
X135217712Y-88319294D01*
X135283925Y-88333368D01*
X135398056Y-88357628D01*
X135398061Y-88357628D01*
X135404513Y-88359000D01*
X135595487Y-88359000D01*
X135601939Y-88357628D01*
X135601944Y-88357628D01*
X135716075Y-88333368D01*
X135782288Y-88319294D01*
X135803024Y-88310062D01*
X135950722Y-88244303D01*
X135950724Y-88244302D01*
X135956752Y-88241618D01*
X136111253Y-88129366D01*
X136239040Y-87987444D01*
X136262103Y-87947498D01*
X136313484Y-87898506D01*
X136383197Y-87885069D01*
X136449109Y-87911456D01*
X136466458Y-87928002D01*
X136502860Y-87970025D01*
X136506250Y-87973938D01*
X136678126Y-88116632D01*
X136871000Y-88229338D01*
X136875825Y-88231180D01*
X136875826Y-88231181D01*
X136903158Y-88241618D01*
X137079692Y-88309030D01*
X137084760Y-88310061D01*
X137084763Y-88310062D01*
X137136884Y-88320666D01*
X137298597Y-88353567D01*
X137303772Y-88353757D01*
X137303774Y-88353757D01*
X137516673Y-88361564D01*
X137516677Y-88361564D01*
X137521837Y-88361753D01*
X137526957Y-88361097D01*
X137526959Y-88361097D01*
X137738288Y-88334025D01*
X137738289Y-88334025D01*
X137743416Y-88333368D01*
X137790327Y-88319294D01*
X137952429Y-88270661D01*
X137952434Y-88270659D01*
X137957384Y-88269174D01*
X138157994Y-88170896D01*
X138339860Y-88041173D01*
X138448091Y-87933319D01*
X138510462Y-87899404D01*
X138581268Y-87904592D01*
X138638030Y-87947238D01*
X138655012Y-87978341D01*
X138699385Y-88096705D01*
X138786739Y-88213261D01*
X138903295Y-88300615D01*
X139039684Y-88351745D01*
X139101866Y-88358500D01*
X140865500Y-88358500D01*
X140933621Y-88378502D01*
X140980114Y-88432158D01*
X140991500Y-88484500D01*
X140991500Y-91199708D01*
X140971498Y-91267829D01*
X140917842Y-91314322D01*
X140847568Y-91324426D01*
X140782988Y-91294932D01*
X140771497Y-91283610D01*
X140724982Y-91231494D01*
X140524030Y-91064363D01*
X140476844Y-91035730D01*
X140304578Y-90931196D01*
X140304574Y-90931194D01*
X140300581Y-90928771D01*
X140059545Y-90827697D01*
X139806217Y-90763359D01*
X139801566Y-90762891D01*
X139801562Y-90762890D01*
X139592271Y-90741816D01*
X139589133Y-90741500D01*
X139433646Y-90741500D01*
X139431321Y-90741673D01*
X139431315Y-90741673D01*
X139244000Y-90755593D01*
X139243996Y-90755594D01*
X139239348Y-90755939D01*
X139234800Y-90756968D01*
X139234794Y-90756969D01*
X139082192Y-90791500D01*
X138984423Y-90813623D01*
X138980071Y-90815315D01*
X138980069Y-90815316D01*
X138745176Y-90906660D01*
X138745173Y-90906661D01*
X138740823Y-90908353D01*
X138513902Y-91038049D01*
X138308643Y-91199862D01*
X138129557Y-91390237D01*
X137980576Y-91604991D01*
X137978510Y-91609181D01*
X137978508Y-91609184D01*
X137931118Y-91705283D01*
X137864975Y-91839407D01*
X137863553Y-91843850D01*
X137863552Y-91843852D01*
X137821695Y-91974614D01*
X137785293Y-92088335D01*
X137743279Y-92346307D01*
X137739858Y-92607655D01*
X137775104Y-92866638D01*
X137776412Y-92871124D01*
X137776412Y-92871126D01*
X137796098Y-92938664D01*
X137848243Y-93117567D01*
X137957668Y-93354928D01*
X137960231Y-93358837D01*
X138098410Y-93569596D01*
X138098414Y-93569601D01*
X138100976Y-93573509D01*
X138275018Y-93768506D01*
X138278611Y-93771494D01*
X138281978Y-93774746D01*
X138280400Y-93776380D01*
X138314782Y-93827680D01*
X138316149Y-93898663D01*
X138278923Y-93959118D01*
X138214922Y-93989849D01*
X138194592Y-93991500D01*
X132465821Y-93991500D01*
X132397700Y-93971498D01*
X132351207Y-93917842D01*
X132341103Y-93847568D01*
X132370597Y-93782988D01*
X132421592Y-93747518D01*
X132538295Y-93703768D01*
X132538296Y-93703767D01*
X132546705Y-93700615D01*
X132663261Y-93613261D01*
X132750615Y-93496705D01*
X132801745Y-93360316D01*
X132808500Y-93298134D01*
X132808500Y-91701866D01*
X132801745Y-91639684D01*
X132750615Y-91503295D01*
X132663261Y-91386739D01*
X132546705Y-91299385D01*
X132538296Y-91296232D01*
X132538293Y-91296231D01*
X132515269Y-91287599D01*
X132458505Y-91244957D01*
X132433806Y-91178395D01*
X132433500Y-91169618D01*
X132433500Y-89830382D01*
X132453502Y-89762261D01*
X132507158Y-89715768D01*
X132515269Y-89712401D01*
X132538293Y-89703769D01*
X132538297Y-89703767D01*
X132546705Y-89700615D01*
X132663261Y-89613261D01*
X132750615Y-89496705D01*
X132801745Y-89360316D01*
X132808500Y-89298134D01*
X132808500Y-87701866D01*
X132801745Y-87639684D01*
X132750615Y-87503295D01*
X132663261Y-87386739D01*
X132546705Y-87299385D01*
X132538296Y-87296232D01*
X132538293Y-87296231D01*
X132515269Y-87287599D01*
X132458505Y-87244957D01*
X132433806Y-87178395D01*
X132433500Y-87169618D01*
X132433500Y-85830382D01*
X132453502Y-85762261D01*
X132507158Y-85715768D01*
X132515269Y-85712401D01*
X132538293Y-85703769D01*
X132538297Y-85703767D01*
X132546705Y-85700615D01*
X132663261Y-85613261D01*
X132750615Y-85496705D01*
X132801745Y-85360316D01*
X132808500Y-85298134D01*
X132808500Y-83701866D01*
X132801745Y-83639684D01*
X132750615Y-83503295D01*
X132663261Y-83386739D01*
X132606556Y-83344241D01*
X132564041Y-83287382D01*
X132559015Y-83216563D01*
X132593026Y-83154320D01*
X135967250Y-79780096D01*
X136029562Y-79746070D01*
X136100377Y-79751135D01*
G37*
%TD.AperFunction*%
%TA.AperFunction,Conductor*%
G36*
X138265262Y-70028502D02*
G01*
X138311755Y-70082158D01*
X138321859Y-70152432D01*
X138288916Y-70220832D01*
X138129557Y-70390237D01*
X137980576Y-70604991D01*
X137864975Y-70839407D01*
X137785293Y-71088335D01*
X137743279Y-71346307D01*
X137739858Y-71607655D01*
X137775104Y-71866638D01*
X137776412Y-71871124D01*
X137776412Y-71871126D01*
X137796098Y-71938664D01*
X137848243Y-72117567D01*
X137957668Y-72354928D01*
X137960231Y-72358837D01*
X138098410Y-72569596D01*
X138098414Y-72569601D01*
X138100976Y-72573509D01*
X138275018Y-72768506D01*
X138475970Y-72935637D01*
X138479973Y-72938066D01*
X138695422Y-73068804D01*
X138695426Y-73068806D01*
X138699419Y-73071229D01*
X138940455Y-73172303D01*
X139193783Y-73236641D01*
X139198434Y-73237109D01*
X139198438Y-73237110D01*
X139391308Y-73256531D01*
X139410867Y-73258500D01*
X139566354Y-73258500D01*
X139568679Y-73258327D01*
X139568685Y-73258327D01*
X139756000Y-73244407D01*
X139756004Y-73244406D01*
X139760652Y-73244061D01*
X139765200Y-73243032D01*
X139765206Y-73243031D01*
X139951601Y-73200853D01*
X140015577Y-73186377D01*
X140051769Y-73172303D01*
X140254824Y-73093340D01*
X140254827Y-73093339D01*
X140259177Y-73091647D01*
X140486098Y-72961951D01*
X140691357Y-72800138D01*
X140773725Y-72712578D01*
X140834969Y-72676666D01*
X140905907Y-72679566D01*
X140964015Y-72720357D01*
X140990846Y-72786088D01*
X140991500Y-72798911D01*
X140991500Y-75631817D01*
X140971498Y-75699938D01*
X140917842Y-75746431D01*
X140847568Y-75756535D01*
X140787407Y-75730698D01*
X140758415Y-75707801D01*
X140758413Y-75707800D01*
X140754359Y-75704598D01*
X140745918Y-75699938D01*
X140702136Y-75675769D01*
X140558789Y-75596638D01*
X140553920Y-75594914D01*
X140553916Y-75594912D01*
X140353087Y-75523795D01*
X140353083Y-75523794D01*
X140348212Y-75522069D01*
X140343119Y-75521162D01*
X140343116Y-75521161D01*
X140133373Y-75483800D01*
X140133367Y-75483799D01*
X140128284Y-75482894D01*
X140054452Y-75481992D01*
X139910081Y-75480228D01*
X139910079Y-75480228D01*
X139904911Y-75480165D01*
X139684091Y-75513955D01*
X139471756Y-75583357D01*
X139441443Y-75599137D01*
X139360065Y-75641500D01*
X139273607Y-75686507D01*
X139269474Y-75689610D01*
X139269471Y-75689612D01*
X139099100Y-75817530D01*
X139094965Y-75820635D01*
X138940629Y-75982138D01*
X138937715Y-75986410D01*
X138937714Y-75986411D01*
X138901374Y-76039684D01*
X138814743Y-76166680D01*
X138720688Y-76369305D01*
X138660989Y-76584570D01*
X138637251Y-76806695D01*
X138637548Y-76811848D01*
X138637548Y-76811851D01*
X138645563Y-76950862D01*
X138650110Y-77029715D01*
X138651247Y-77034761D01*
X138651248Y-77034767D01*
X138683453Y-77177668D01*
X138678917Y-77248520D01*
X138649631Y-77294464D01*
X138599500Y-77344595D01*
X138537188Y-77378621D01*
X138510405Y-77381500D01*
X136915210Y-77381500D01*
X136904027Y-77380973D01*
X136896534Y-77379298D01*
X136888608Y-77379547D01*
X136888607Y-77379547D01*
X136828444Y-77381438D01*
X136824486Y-77381500D01*
X136796586Y-77381500D01*
X136792596Y-77382004D01*
X136780762Y-77382936D01*
X136736553Y-77384326D01*
X136728937Y-77386539D01*
X136728935Y-77386539D01*
X136717094Y-77389979D01*
X136697735Y-77393988D01*
X136696425Y-77394154D01*
X136677645Y-77396526D01*
X136670279Y-77399442D01*
X136670273Y-77399444D01*
X136636540Y-77412800D01*
X136625310Y-77416645D01*
X136590459Y-77426770D01*
X136582849Y-77428981D01*
X136576026Y-77433016D01*
X136565408Y-77439295D01*
X136547655Y-77447992D01*
X136540010Y-77451019D01*
X136528825Y-77455448D01*
X136510483Y-77468774D01*
X136493054Y-77481437D01*
X136483137Y-77487951D01*
X136445080Y-77510458D01*
X136430759Y-77524779D01*
X136415726Y-77537619D01*
X136399335Y-77549528D01*
X136394284Y-77555634D01*
X136371144Y-77583605D01*
X136363154Y-77592384D01*
X131407747Y-82547790D01*
X131399461Y-82555330D01*
X131392982Y-82559442D01*
X131387557Y-82565219D01*
X131346357Y-82609093D01*
X131343602Y-82611935D01*
X131323865Y-82631672D01*
X131321385Y-82634869D01*
X131313682Y-82643889D01*
X131283414Y-82676121D01*
X131279595Y-82683067D01*
X131279593Y-82683070D01*
X131273652Y-82693876D01*
X131262801Y-82710395D01*
X131250386Y-82726401D01*
X131247241Y-82733670D01*
X131247238Y-82733674D01*
X131232826Y-82766979D01*
X131227609Y-82777629D01*
X131206305Y-82816382D01*
X131204334Y-82824057D01*
X131204334Y-82824058D01*
X131201267Y-82836004D01*
X131194863Y-82854708D01*
X131186819Y-82873297D01*
X131185580Y-82881120D01*
X131185577Y-82881130D01*
X131179901Y-82916966D01*
X131177495Y-82928586D01*
X131173410Y-82944497D01*
X131166500Y-82971412D01*
X131166500Y-82991666D01*
X131164949Y-83011376D01*
X131161780Y-83031385D01*
X131162526Y-83039277D01*
X131165941Y-83075403D01*
X131166500Y-83087261D01*
X131166500Y-83113984D01*
X131146498Y-83182105D01*
X131092842Y-83228598D01*
X131022568Y-83238702D01*
X130966439Y-83215920D01*
X130962094Y-83212763D01*
X130962093Y-83212762D01*
X130956752Y-83208882D01*
X130950724Y-83206198D01*
X130950722Y-83206197D01*
X130788319Y-83133891D01*
X130788318Y-83133891D01*
X130782288Y-83131206D01*
X130688888Y-83111353D01*
X130601944Y-83092872D01*
X130601939Y-83092872D01*
X130595487Y-83091500D01*
X130404513Y-83091500D01*
X130398061Y-83092872D01*
X130398056Y-83092872D01*
X130311112Y-83111353D01*
X130217712Y-83131206D01*
X130211682Y-83133891D01*
X130211681Y-83133891D01*
X130049278Y-83206197D01*
X130049276Y-83206198D01*
X130043248Y-83208882D01*
X130037909Y-83212761D01*
X130037902Y-83212765D01*
X130031472Y-83217437D01*
X129958668Y-83241092D01*
X129958680Y-83241316D01*
X129957839Y-83241362D01*
X129957413Y-83241500D01*
X129951866Y-83241500D01*
X129889684Y-83248255D01*
X129753295Y-83299385D01*
X129636739Y-83386739D01*
X129549385Y-83503295D01*
X129498255Y-83639684D01*
X129491500Y-83701866D01*
X129491500Y-85298134D01*
X129498255Y-85360316D01*
X129549385Y-85496705D01*
X129636739Y-85613261D01*
X129753295Y-85700615D01*
X129889684Y-85751745D01*
X129951866Y-85758500D01*
X131040500Y-85758500D01*
X131108621Y-85778502D01*
X131155114Y-85832158D01*
X131166500Y-85884500D01*
X131166500Y-87113984D01*
X131146498Y-87182105D01*
X131092842Y-87228598D01*
X131022568Y-87238702D01*
X130966439Y-87215920D01*
X130962094Y-87212763D01*
X130962093Y-87212762D01*
X130956752Y-87208882D01*
X130950724Y-87206198D01*
X130950722Y-87206197D01*
X130788319Y-87133891D01*
X130788318Y-87133891D01*
X130782288Y-87131206D01*
X130688888Y-87111353D01*
X130601944Y-87092872D01*
X130601939Y-87092872D01*
X130595487Y-87091500D01*
X130404513Y-87091500D01*
X130398061Y-87092872D01*
X130398056Y-87092872D01*
X130311112Y-87111353D01*
X130217712Y-87131206D01*
X130211682Y-87133891D01*
X130211681Y-87133891D01*
X130049278Y-87206197D01*
X130049276Y-87206198D01*
X130043248Y-87208882D01*
X130037909Y-87212761D01*
X130037902Y-87212765D01*
X130031472Y-87217437D01*
X129958668Y-87241092D01*
X129958680Y-87241316D01*
X129957839Y-87241362D01*
X129957413Y-87241500D01*
X129951866Y-87241500D01*
X129889684Y-87248255D01*
X129753295Y-87299385D01*
X129636739Y-87386739D01*
X129549385Y-87503295D01*
X129498255Y-87639684D01*
X129491500Y-87701866D01*
X129491500Y-89298134D01*
X129498255Y-89360316D01*
X129549385Y-89496705D01*
X129636739Y-89613261D01*
X129753295Y-89700615D01*
X129889684Y-89751745D01*
X129951866Y-89758500D01*
X131040500Y-89758500D01*
X131108621Y-89778502D01*
X131155114Y-89832158D01*
X131166500Y-89884500D01*
X131166500Y-90665500D01*
X131146498Y-90733621D01*
X131092842Y-90780114D01*
X131040500Y-90791500D01*
X123079594Y-90791500D01*
X123011473Y-90771498D01*
X122990499Y-90754595D01*
X119851218Y-87615313D01*
X119817192Y-87553001D01*
X119819755Y-87489589D01*
X119830865Y-87453022D01*
X119832370Y-87448069D01*
X119861529Y-87226590D01*
X119863156Y-87160000D01*
X119844852Y-86937361D01*
X119790431Y-86720702D01*
X119701354Y-86515840D01*
X119651797Y-86439236D01*
X119582822Y-86332617D01*
X119582820Y-86332614D01*
X119580014Y-86328277D01*
X119429670Y-86163051D01*
X119425619Y-86159852D01*
X119425615Y-86159848D01*
X119258414Y-86027800D01*
X119258410Y-86027798D01*
X119254359Y-86024598D01*
X119213053Y-86001796D01*
X119163084Y-85951364D01*
X119148312Y-85881921D01*
X119173428Y-85815516D01*
X119200780Y-85788909D01*
X119265066Y-85743054D01*
X119379860Y-85661173D01*
X119538096Y-85503489D01*
X119549013Y-85488297D01*
X119668453Y-85322077D01*
X119669776Y-85323028D01*
X119716645Y-85279857D01*
X119786580Y-85267625D01*
X119852026Y-85295144D01*
X119879875Y-85326994D01*
X119939987Y-85425088D01*
X120086250Y-85593938D01*
X120258126Y-85736632D01*
X120451000Y-85849338D01*
X120659692Y-85929030D01*
X120664760Y-85930061D01*
X120664763Y-85930062D01*
X120769466Y-85951364D01*
X120878597Y-85973567D01*
X120883772Y-85973757D01*
X120883774Y-85973757D01*
X121096673Y-85981564D01*
X121096677Y-85981564D01*
X121101837Y-85981753D01*
X121106957Y-85981097D01*
X121106959Y-85981097D01*
X121318288Y-85954025D01*
X121318289Y-85954025D01*
X121323416Y-85953368D01*
X121330096Y-85951364D01*
X121532429Y-85890661D01*
X121532434Y-85890659D01*
X121537384Y-85889174D01*
X121737994Y-85790896D01*
X121919860Y-85661173D01*
X122078096Y-85503489D01*
X122089013Y-85488297D01*
X122205435Y-85326277D01*
X122208453Y-85322077D01*
X122218608Y-85301531D01*
X122305136Y-85126453D01*
X122305137Y-85126451D01*
X122307430Y-85121811D01*
X122372370Y-84908069D01*
X122401529Y-84686590D01*
X122403156Y-84620000D01*
X122384852Y-84397361D01*
X122376616Y-84364570D01*
X122344119Y-84235195D01*
X122346923Y-84164254D01*
X122387636Y-84106091D01*
X122453331Y-84079172D01*
X122466323Y-84078500D01*
X123778406Y-84078500D01*
X123846527Y-84098502D01*
X123867501Y-84115405D01*
X125552878Y-85800783D01*
X125586904Y-85863095D01*
X125589093Y-85876708D01*
X125604637Y-86024598D01*
X125606458Y-86041928D01*
X125665473Y-86223556D01*
X125760960Y-86388944D01*
X125765378Y-86393851D01*
X125765379Y-86393852D01*
X125884325Y-86525955D01*
X125888747Y-86530866D01*
X126043248Y-86643118D01*
X126049276Y-86645802D01*
X126049278Y-86645803D01*
X126206841Y-86715954D01*
X126217712Y-86720794D01*
X126306314Y-86739627D01*
X126398056Y-86759128D01*
X126398061Y-86759128D01*
X126404513Y-86760500D01*
X126595487Y-86760500D01*
X126601939Y-86759128D01*
X126601944Y-86759128D01*
X126693686Y-86739627D01*
X126782288Y-86720794D01*
X126793159Y-86715954D01*
X126950722Y-86645803D01*
X126950724Y-86645802D01*
X126956752Y-86643118D01*
X127111253Y-86530866D01*
X127115675Y-86525955D01*
X127234621Y-86393852D01*
X127234622Y-86393851D01*
X127239040Y-86388944D01*
X127334527Y-86223556D01*
X127393542Y-86041928D01*
X127395364Y-86024598D01*
X127412814Y-85858565D01*
X127413504Y-85852000D01*
X127402675Y-85748971D01*
X127394232Y-85668635D01*
X127394232Y-85668633D01*
X127393542Y-85662072D01*
X127334527Y-85480444D01*
X127327709Y-85468634D01*
X127244799Y-85325031D01*
X127239040Y-85315056D01*
X127216173Y-85289659D01*
X127185457Y-85225655D01*
X127194220Y-85155201D01*
X127235749Y-85103415D01*
X127331584Y-85033786D01*
X127343765Y-85024936D01*
X127350374Y-85017596D01*
X127467133Y-84887922D01*
X127467134Y-84887921D01*
X127471552Y-84883014D01*
X127567039Y-84717626D01*
X127626054Y-84535998D01*
X127646016Y-84346070D01*
X127634363Y-84235195D01*
X127626744Y-84162705D01*
X127626744Y-84162703D01*
X127626054Y-84156142D01*
X127567039Y-83974514D01*
X127555829Y-83955098D01*
X127539092Y-83886102D01*
X127562313Y-83819011D01*
X127590887Y-83790163D01*
X127695639Y-83714056D01*
X127797764Y-83600635D01*
X127819007Y-83577042D01*
X127819008Y-83577041D01*
X127823426Y-83572134D01*
X127888151Y-83460027D01*
X127915609Y-83412469D01*
X127915610Y-83412468D01*
X127918913Y-83406746D01*
X127977928Y-83225118D01*
X127978736Y-83217437D01*
X127997200Y-83041755D01*
X127997890Y-83035190D01*
X127994358Y-83001584D01*
X127978618Y-82851825D01*
X127978618Y-82851823D01*
X127977928Y-82845262D01*
X127918913Y-82663634D01*
X127912630Y-82652751D01*
X127837866Y-82523256D01*
X127821128Y-82454260D01*
X127837866Y-82397256D01*
X127869757Y-82342019D01*
X127869758Y-82342018D01*
X127873061Y-82336296D01*
X127932076Y-82154668D01*
X127952038Y-81964740D01*
X127932076Y-81774812D01*
X127873061Y-81593184D01*
X127777574Y-81427796D01*
X127762789Y-81411375D01*
X127654209Y-81290785D01*
X127654208Y-81290784D01*
X127649787Y-81285874D01*
X127495286Y-81173622D01*
X127489258Y-81170938D01*
X127489256Y-81170937D01*
X127326853Y-81098631D01*
X127326852Y-81098631D01*
X127320822Y-81095946D01*
X127227421Y-81076093D01*
X127140478Y-81057612D01*
X127140473Y-81057612D01*
X127134021Y-81056240D01*
X127078129Y-81056240D01*
X127010008Y-81036238D01*
X126989034Y-81019335D01*
X123867834Y-77898134D01*
X127641500Y-77898134D01*
X127648255Y-77960316D01*
X127699385Y-78096705D01*
X127786739Y-78213261D01*
X127903295Y-78300615D01*
X128039684Y-78351745D01*
X128101866Y-78358500D01*
X129898134Y-78358500D01*
X129960316Y-78351745D01*
X130096705Y-78300615D01*
X130213261Y-78213261D01*
X130300615Y-78096705D01*
X130351745Y-77960316D01*
X130358500Y-77898134D01*
X130358500Y-76101866D01*
X130351745Y-76039684D01*
X130300615Y-75903295D01*
X130213261Y-75786739D01*
X130096705Y-75699385D01*
X129960316Y-75648255D01*
X129898134Y-75641500D01*
X128101866Y-75641500D01*
X128039684Y-75648255D01*
X127903295Y-75699385D01*
X127786739Y-75786739D01*
X127699385Y-75903295D01*
X127648255Y-76039684D01*
X127641500Y-76101866D01*
X127641500Y-77898134D01*
X123867834Y-77898134D01*
X123244201Y-77274501D01*
X123210175Y-77212189D01*
X123207296Y-77185406D01*
X123207296Y-76950862D01*
X123207823Y-76939679D01*
X123209498Y-76932186D01*
X123207358Y-76864095D01*
X123207296Y-76860138D01*
X123207296Y-76832239D01*
X123206792Y-76828248D01*
X123205859Y-76816406D01*
X123204719Y-76780131D01*
X123204470Y-76772206D01*
X123202258Y-76764592D01*
X123202257Y-76764587D01*
X123198819Y-76752754D01*
X123194808Y-76733390D01*
X123193263Y-76721159D01*
X123192270Y-76713298D01*
X123189353Y-76705931D01*
X123189352Y-76705926D01*
X123175994Y-76672187D01*
X123172150Y-76660960D01*
X123162026Y-76626117D01*
X123159814Y-76618502D01*
X123149503Y-76601067D01*
X123140808Y-76583319D01*
X123133348Y-76564478D01*
X123107360Y-76528708D01*
X123100844Y-76518788D01*
X123082376Y-76487560D01*
X123082374Y-76487557D01*
X123078338Y-76480733D01*
X123064017Y-76466412D01*
X123051176Y-76451378D01*
X123043927Y-76441401D01*
X123039268Y-76434988D01*
X123033164Y-76429938D01*
X123033159Y-76429933D01*
X123005198Y-76406802D01*
X122996417Y-76398812D01*
X122030348Y-75432742D01*
X122022814Y-75424463D01*
X122018701Y-75417982D01*
X121969049Y-75371356D01*
X121966208Y-75368602D01*
X121946471Y-75348865D01*
X121943274Y-75346385D01*
X121934252Y-75338680D01*
X121920823Y-75326069D01*
X121902022Y-75308414D01*
X121895076Y-75304595D01*
X121895073Y-75304593D01*
X121884267Y-75298652D01*
X121867748Y-75287801D01*
X121867284Y-75287441D01*
X121851742Y-75275386D01*
X121844473Y-75272241D01*
X121844469Y-75272238D01*
X121811164Y-75257826D01*
X121800514Y-75252609D01*
X121761761Y-75231305D01*
X121742138Y-75226267D01*
X121723435Y-75219863D01*
X121712121Y-75214967D01*
X121712120Y-75214967D01*
X121704846Y-75211819D01*
X121697023Y-75210580D01*
X121697013Y-75210577D01*
X121661177Y-75204901D01*
X121649557Y-75202495D01*
X121614412Y-75193472D01*
X121614411Y-75193472D01*
X121606731Y-75191500D01*
X121586477Y-75191500D01*
X121566766Y-75189949D01*
X121554587Y-75188020D01*
X121546758Y-75186780D01*
X121517487Y-75189547D01*
X121502740Y-75190941D01*
X121490882Y-75191500D01*
X119753767Y-75191500D01*
X119742584Y-75190973D01*
X119735091Y-75189298D01*
X119727165Y-75189547D01*
X119727164Y-75189547D01*
X119667001Y-75191438D01*
X119663043Y-75191500D01*
X119635144Y-75191500D01*
X119631154Y-75192004D01*
X119619320Y-75192936D01*
X119575111Y-75194326D01*
X119567497Y-75196538D01*
X119567492Y-75196539D01*
X119555659Y-75199977D01*
X119536296Y-75203988D01*
X119516203Y-75206526D01*
X119508836Y-75209443D01*
X119508831Y-75209444D01*
X119475092Y-75222802D01*
X119463865Y-75226646D01*
X119421407Y-75238982D01*
X119414581Y-75243019D01*
X119403972Y-75249293D01*
X119386224Y-75257988D01*
X119367383Y-75265448D01*
X119360967Y-75270110D01*
X119360966Y-75270110D01*
X119331613Y-75291436D01*
X119321693Y-75297952D01*
X119290465Y-75316420D01*
X119290462Y-75316422D01*
X119283638Y-75320458D01*
X119269317Y-75334779D01*
X119254284Y-75347619D01*
X119237893Y-75359528D01*
X119229217Y-75370016D01*
X119209702Y-75393605D01*
X119201712Y-75402384D01*
X118999501Y-75604595D01*
X118937189Y-75638621D01*
X118910406Y-75641500D01*
X117601866Y-75641500D01*
X117539684Y-75648255D01*
X117403295Y-75699385D01*
X117286739Y-75786739D01*
X117281358Y-75793919D01*
X117281357Y-75793920D01*
X117235326Y-75855339D01*
X117178467Y-75897854D01*
X117107648Y-75902880D01*
X117045355Y-75868820D01*
X117011365Y-75806489D01*
X117008500Y-75779774D01*
X117008500Y-73500000D01*
X127586496Y-73500000D01*
X127606458Y-73689928D01*
X127665473Y-73871556D01*
X127760960Y-74036944D01*
X127888747Y-74178866D01*
X128043248Y-74291118D01*
X128049276Y-74293802D01*
X128049278Y-74293803D01*
X128211681Y-74366109D01*
X128217712Y-74368794D01*
X128311113Y-74388647D01*
X128398056Y-74407128D01*
X128398061Y-74407128D01*
X128404513Y-74408500D01*
X128595487Y-74408500D01*
X128601939Y-74407128D01*
X128601944Y-74407128D01*
X128688887Y-74388647D01*
X128782288Y-74368794D01*
X128788319Y-74366109D01*
X128950722Y-74293803D01*
X128950724Y-74293802D01*
X128956752Y-74291118D01*
X129111253Y-74178866D01*
X129115668Y-74173963D01*
X129120580Y-74169540D01*
X129121705Y-74170789D01*
X129175014Y-74137949D01*
X129208200Y-74133500D01*
X129685406Y-74133500D01*
X129753527Y-74153502D01*
X129774501Y-74170405D01*
X131329595Y-75725500D01*
X131363621Y-75787812D01*
X131366500Y-75814595D01*
X131366500Y-77297476D01*
X131346498Y-77365597D01*
X131334142Y-77381779D01*
X131260960Y-77463056D01*
X131230354Y-77516067D01*
X131188724Y-77588173D01*
X131165473Y-77628444D01*
X131106458Y-77810072D01*
X131105768Y-77816633D01*
X131105768Y-77816635D01*
X131089093Y-77975293D01*
X131062080Y-78040950D01*
X131052878Y-78051218D01*
X129607747Y-79496348D01*
X129599461Y-79503888D01*
X129592982Y-79508000D01*
X129587557Y-79513777D01*
X129546357Y-79557651D01*
X129543602Y-79560493D01*
X129523865Y-79580230D01*
X129521385Y-79583427D01*
X129513682Y-79592447D01*
X129483414Y-79624679D01*
X129479595Y-79631625D01*
X129479593Y-79631628D01*
X129473652Y-79642434D01*
X129462801Y-79658953D01*
X129450386Y-79674959D01*
X129447241Y-79682228D01*
X129447238Y-79682232D01*
X129432826Y-79715537D01*
X129427609Y-79726187D01*
X129406305Y-79764940D01*
X129404334Y-79772615D01*
X129404334Y-79772616D01*
X129401267Y-79784562D01*
X129394863Y-79803266D01*
X129386819Y-79821855D01*
X129385580Y-79829678D01*
X129385577Y-79829688D01*
X129379901Y-79865524D01*
X129377495Y-79877144D01*
X129366500Y-79919970D01*
X129366500Y-79940224D01*
X129364949Y-79959934D01*
X129361780Y-79979943D01*
X129362526Y-79987835D01*
X129365941Y-80023961D01*
X129366500Y-80035819D01*
X129366500Y-80797476D01*
X129346498Y-80865597D01*
X129334142Y-80881779D01*
X129260960Y-80963056D01*
X129257659Y-80968774D01*
X129182686Y-81098631D01*
X129165473Y-81128444D01*
X129106458Y-81310072D01*
X129086496Y-81500000D01*
X129106458Y-81689928D01*
X129165473Y-81871556D01*
X129260960Y-82036944D01*
X129265378Y-82041851D01*
X129265379Y-82041852D01*
X129361050Y-82148105D01*
X129388747Y-82178866D01*
X129543248Y-82291118D01*
X129549276Y-82293802D01*
X129549278Y-82293803D01*
X129657574Y-82342019D01*
X129717712Y-82368794D01*
X129811113Y-82388647D01*
X129898056Y-82407128D01*
X129898061Y-82407128D01*
X129904513Y-82408500D01*
X130095487Y-82408500D01*
X130101939Y-82407128D01*
X130101944Y-82407128D01*
X130188887Y-82388647D01*
X130282288Y-82368794D01*
X130342426Y-82342019D01*
X130450722Y-82293803D01*
X130450724Y-82293802D01*
X130456752Y-82291118D01*
X130611253Y-82178866D01*
X130638950Y-82148105D01*
X130734621Y-82041852D01*
X130734622Y-82041851D01*
X130739040Y-82036944D01*
X130834527Y-81871556D01*
X130893542Y-81689928D01*
X130913504Y-81500000D01*
X130893542Y-81310072D01*
X130834527Y-81128444D01*
X130817315Y-81098631D01*
X130742341Y-80968774D01*
X130739040Y-80963056D01*
X130665863Y-80881785D01*
X130635147Y-80817779D01*
X130633500Y-80797476D01*
X130633500Y-80314594D01*
X130653502Y-80246473D01*
X130670405Y-80225499D01*
X131950500Y-78945405D01*
X132012812Y-78911379D01*
X132039595Y-78908500D01*
X132095487Y-78908500D01*
X132101939Y-78907128D01*
X132101944Y-78907128D01*
X132188888Y-78888647D01*
X132282288Y-78868794D01*
X132296647Y-78862401D01*
X132450722Y-78793803D01*
X132450724Y-78793802D01*
X132456752Y-78791118D01*
X132611253Y-78678866D01*
X132739040Y-78536944D01*
X132825895Y-78386507D01*
X132831223Y-78377279D01*
X132831224Y-78377278D01*
X132834527Y-78371556D01*
X132893542Y-78189928D01*
X132902030Y-78109174D01*
X132912814Y-78006565D01*
X132913504Y-78000000D01*
X132902798Y-77898134D01*
X132894232Y-77816635D01*
X132894232Y-77816633D01*
X132893542Y-77810072D01*
X132834527Y-77628444D01*
X132811277Y-77588173D01*
X132769646Y-77516067D01*
X132739040Y-77463056D01*
X132665863Y-77381785D01*
X132635147Y-77317779D01*
X132633500Y-77297476D01*
X132633500Y-76215511D01*
X132653502Y-76147390D01*
X132707158Y-76100897D01*
X132724337Y-76094517D01*
X132753593Y-76086018D01*
X132760412Y-76081985D01*
X132760417Y-76081983D01*
X132771028Y-76075707D01*
X132788776Y-76067012D01*
X132807617Y-76059552D01*
X132824151Y-76047540D01*
X132843387Y-76033564D01*
X132853307Y-76027048D01*
X132884535Y-76008580D01*
X132884538Y-76008578D01*
X132891362Y-76004542D01*
X132905683Y-75990221D01*
X132920717Y-75977380D01*
X132930694Y-75970131D01*
X132937107Y-75965472D01*
X132965298Y-75931395D01*
X132973288Y-75922616D01*
X134450500Y-74445405D01*
X134512812Y-74411379D01*
X134539595Y-74408500D01*
X134595487Y-74408500D01*
X134601939Y-74407128D01*
X134601944Y-74407128D01*
X134688887Y-74388647D01*
X134782288Y-74368794D01*
X134788319Y-74366109D01*
X134950722Y-74293803D01*
X134950724Y-74293802D01*
X134956752Y-74291118D01*
X135111253Y-74178866D01*
X135239040Y-74036944D01*
X135334527Y-73871556D01*
X135393542Y-73689928D01*
X135413504Y-73500000D01*
X135393542Y-73310072D01*
X135334527Y-73128444D01*
X135239040Y-72963056D01*
X135224798Y-72947238D01*
X135115675Y-72826045D01*
X135115674Y-72826044D01*
X135111253Y-72821134D01*
X135012157Y-72749136D01*
X134962094Y-72712763D01*
X134962093Y-72712762D01*
X134956752Y-72708882D01*
X134950724Y-72706198D01*
X134950722Y-72706197D01*
X134788319Y-72633891D01*
X134788318Y-72633891D01*
X134782288Y-72631206D01*
X134663309Y-72605916D01*
X134601944Y-72592872D01*
X134601939Y-72592872D01*
X134595487Y-72591500D01*
X134404513Y-72591500D01*
X134398061Y-72592872D01*
X134398056Y-72592872D01*
X134336691Y-72605916D01*
X134217712Y-72631206D01*
X134211682Y-72633891D01*
X134211681Y-72633891D01*
X134049278Y-72706197D01*
X134049276Y-72706198D01*
X134043248Y-72708882D01*
X134037907Y-72712762D01*
X134037906Y-72712763D01*
X133987843Y-72749136D01*
X133888747Y-72821134D01*
X133884326Y-72826044D01*
X133884325Y-72826045D01*
X133775203Y-72947238D01*
X133760960Y-72963056D01*
X133665473Y-73128444D01*
X133606458Y-73310072D01*
X133605768Y-73316633D01*
X133605768Y-73316635D01*
X133589093Y-73475293D01*
X133562080Y-73540950D01*
X133552878Y-73551218D01*
X132339095Y-74765000D01*
X132276783Y-74799026D01*
X132205967Y-74793961D01*
X132160905Y-74765000D01*
X130503652Y-73107747D01*
X130496112Y-73099461D01*
X130492000Y-73092982D01*
X130442348Y-73046356D01*
X130439507Y-73043602D01*
X130419770Y-73023865D01*
X130416573Y-73021385D01*
X130407551Y-73013680D01*
X130381100Y-72988841D01*
X130375321Y-72983414D01*
X130368375Y-72979595D01*
X130368372Y-72979593D01*
X130357566Y-72973652D01*
X130341047Y-72962801D01*
X130339951Y-72961951D01*
X130325041Y-72950386D01*
X130317772Y-72947241D01*
X130317768Y-72947238D01*
X130284463Y-72932826D01*
X130273813Y-72927609D01*
X130235060Y-72906305D01*
X130215437Y-72901267D01*
X130196734Y-72894863D01*
X130185420Y-72889967D01*
X130185419Y-72889967D01*
X130178145Y-72886819D01*
X130170322Y-72885580D01*
X130170312Y-72885577D01*
X130134476Y-72879901D01*
X130122856Y-72877495D01*
X130087711Y-72868472D01*
X130087710Y-72868472D01*
X130080030Y-72866500D01*
X130059776Y-72866500D01*
X130040065Y-72864949D01*
X130027886Y-72863020D01*
X130020057Y-72861780D01*
X130012165Y-72862526D01*
X129976039Y-72865941D01*
X129964181Y-72866500D01*
X129208200Y-72866500D01*
X129140079Y-72846498D01*
X129120853Y-72830157D01*
X129120580Y-72830460D01*
X129115668Y-72826037D01*
X129111253Y-72821134D01*
X129034014Y-72765016D01*
X128962094Y-72712763D01*
X128962093Y-72712762D01*
X128956752Y-72708882D01*
X128950724Y-72706198D01*
X128950722Y-72706197D01*
X128788319Y-72633891D01*
X128788318Y-72633891D01*
X128782288Y-72631206D01*
X128663309Y-72605916D01*
X128601944Y-72592872D01*
X128601939Y-72592872D01*
X128595487Y-72591500D01*
X128404513Y-72591500D01*
X128398061Y-72592872D01*
X128398056Y-72592872D01*
X128336691Y-72605916D01*
X128217712Y-72631206D01*
X128211682Y-72633891D01*
X128211681Y-72633891D01*
X128049278Y-72706197D01*
X128049276Y-72706198D01*
X128043248Y-72708882D01*
X128037907Y-72712762D01*
X128037906Y-72712763D01*
X127987843Y-72749136D01*
X127888747Y-72821134D01*
X127884326Y-72826044D01*
X127884325Y-72826045D01*
X127775203Y-72947238D01*
X127760960Y-72963056D01*
X127665473Y-73128444D01*
X127606458Y-73310072D01*
X127586496Y-73500000D01*
X117008500Y-73500000D01*
X117008500Y-72800292D01*
X117028502Y-72732171D01*
X117082158Y-72685678D01*
X117152432Y-72675574D01*
X117217012Y-72705068D01*
X117228499Y-72716386D01*
X117275018Y-72768506D01*
X117475970Y-72935637D01*
X117479973Y-72938066D01*
X117695422Y-73068804D01*
X117695426Y-73068806D01*
X117699419Y-73071229D01*
X117940455Y-73172303D01*
X118193783Y-73236641D01*
X118198434Y-73237109D01*
X118198438Y-73237110D01*
X118391308Y-73256531D01*
X118410867Y-73258500D01*
X118566354Y-73258500D01*
X118568679Y-73258327D01*
X118568685Y-73258327D01*
X118756000Y-73244407D01*
X118756004Y-73244406D01*
X118760652Y-73244061D01*
X118765200Y-73243032D01*
X118765206Y-73243031D01*
X118951601Y-73200853D01*
X119015577Y-73186377D01*
X119051769Y-73172303D01*
X119254824Y-73093340D01*
X119254827Y-73093339D01*
X119259177Y-73091647D01*
X119486098Y-72961951D01*
X119691357Y-72800138D01*
X119870443Y-72609763D01*
X120019424Y-72395009D01*
X120135025Y-72160593D01*
X120214707Y-71911665D01*
X120256721Y-71653693D01*
X120260142Y-71392345D01*
X120224896Y-71133362D01*
X120210473Y-71083877D01*
X120153068Y-70886932D01*
X120151757Y-70882433D01*
X120042332Y-70645072D01*
X119989663Y-70564739D01*
X119901590Y-70430404D01*
X119901586Y-70430399D01*
X119899024Y-70426491D01*
X119724982Y-70231494D01*
X119721389Y-70228506D01*
X119718022Y-70225254D01*
X119719600Y-70223620D01*
X119685218Y-70172320D01*
X119683851Y-70101337D01*
X119721077Y-70040882D01*
X119785078Y-70010151D01*
X119805408Y-70008500D01*
X138197141Y-70008500D01*
X138265262Y-70028502D01*
G37*
%TD.AperFunction*%
%TD*%
M02*
