%TF.GenerationSoftware,KiCad,Pcbnew,(6.0.7)*%
%TF.CreationDate,2022-09-24T19:09:13-05:00*%
%TF.ProjectId,PCA9535,50434139-3533-4352-9e6b-696361645f70,rev?*%
%TF.SameCoordinates,Original*%
%TF.FileFunction,Paste,Top*%
%TF.FilePolarity,Positive*%
%FSLAX46Y46*%
G04 Gerber Fmt 4.6, Leading zero omitted, Abs format (unit mm)*
G04 Created by KiCad (PCBNEW (6.0.7)) date 2022-09-24 19:09:13*
%MOMM*%
%LPD*%
G01*
G04 APERTURE LIST*
G04 Aperture macros list*
%AMRoundRect*
0 Rectangle with rounded corners*
0 $1 Rounding radius*
0 $2 $3 $4 $5 $6 $7 $8 $9 X,Y pos of 4 corners*
0 Add a 4 corners polygon primitive as box body*
4,1,4,$2,$3,$4,$5,$6,$7,$8,$9,$2,$3,0*
0 Add four circle primitives for the rounded corners*
1,1,$1+$1,$2,$3*
1,1,$1+$1,$4,$5*
1,1,$1+$1,$6,$7*
1,1,$1+$1,$8,$9*
0 Add four rect primitives between the rounded corners*
20,1,$1+$1,$2,$3,$4,$5,0*
20,1,$1+$1,$4,$5,$6,$7,0*
20,1,$1+$1,$6,$7,$8,$9,0*
20,1,$1+$1,$8,$9,$2,$3,0*%
G04 Aperture macros list end*
%ADD10RoundRect,0.250000X0.350000X0.450000X-0.350000X0.450000X-0.350000X-0.450000X0.350000X-0.450000X0*%
%ADD11RoundRect,0.250000X-0.350000X-0.450000X0.350000X-0.450000X0.350000X0.450000X-0.350000X0.450000X0*%
%ADD12R,1.639799X0.431000*%
%ADD13RoundRect,0.150000X-0.150000X-0.625000X0.150000X-0.625000X0.150000X0.625000X-0.150000X0.625000X0*%
%ADD14RoundRect,0.250000X-0.350000X-0.650000X0.350000X-0.650000X0.350000X0.650000X-0.350000X0.650000X0*%
G04 APERTURE END LIST*
D10*
%TO.C,R1*%
X134000000Y-78000000D03*
X132000000Y-78000000D03*
%TD*%
%TO.C,R2*%
X134000000Y-76000000D03*
X132000000Y-76000000D03*
%TD*%
D11*
%TO.C,R3*%
X124000000Y-77000000D03*
X126000000Y-77000000D03*
%TD*%
D12*
%TO.C,U1*%
X124786900Y-80377501D03*
X124786900Y-81027500D03*
X124786900Y-81677498D03*
X124786900Y-82327499D03*
X124786900Y-82977498D03*
X124786900Y-83627499D03*
X124786900Y-84277498D03*
X124786900Y-84927499D03*
X124786900Y-85577498D03*
X124786900Y-86227499D03*
X124786900Y-86877498D03*
X124786900Y-87527499D03*
X132051300Y-87527499D03*
X132051300Y-86877500D03*
X132051300Y-86227499D03*
X132051300Y-85577501D03*
X132051300Y-84927499D03*
X132051300Y-84277501D03*
X132051300Y-83627502D03*
X132051300Y-82977501D03*
X132051300Y-82327502D03*
X132051300Y-81677501D03*
X132051300Y-81027502D03*
X132051300Y-80377501D03*
%TD*%
D13*
%TO.C,J1*%
X131500000Y-73325000D03*
X132500000Y-73325000D03*
X133500000Y-73325000D03*
X134500000Y-73325000D03*
D14*
X130200000Y-70800000D03*
X135800000Y-70800000D03*
%TD*%
D13*
%TO.C,J2*%
X123500000Y-73325000D03*
X124500000Y-73325000D03*
X125500000Y-73325000D03*
X126500000Y-73325000D03*
D14*
X122200000Y-70800000D03*
X127800000Y-70800000D03*
%TD*%
M02*
