%TF.GenerationSoftware,KiCad,Pcbnew,(6.0.7)*%
%TF.CreationDate,2022-10-11T20:39:03-05:00*%
%TF.ProjectId,PCA9535,50434139-3533-4352-9e6b-696361645f70,rev?*%
%TF.SameCoordinates,Original*%
%TF.FileFunction,Soldermask,Top*%
%TF.FilePolarity,Negative*%
%FSLAX46Y46*%
G04 Gerber Fmt 4.6, Leading zero omitted, Abs format (unit mm)*
G04 Created by KiCad (PCBNEW (6.0.7)) date 2022-10-11 20:39:03*
%MOMM*%
%LPD*%
G01*
G04 APERTURE LIST*
G04 Aperture macros list*
%AMRoundRect*
0 Rectangle with rounded corners*
0 $1 Rounding radius*
0 $2 $3 $4 $5 $6 $7 $8 $9 X,Y pos of 4 corners*
0 Add a 4 corners polygon primitive as box body*
4,1,4,$2,$3,$4,$5,$6,$7,$8,$9,$2,$3,0*
0 Add four circle primitives for the rounded corners*
1,1,$1+$1,$2,$3*
1,1,$1+$1,$4,$5*
1,1,$1+$1,$6,$7*
1,1,$1+$1,$8,$9*
0 Add four rect primitives between the rounded corners*
20,1,$1+$1,$2,$3,$4,$5,0*
20,1,$1+$1,$4,$5,$6,$7,0*
20,1,$1+$1,$6,$7,$8,$9,0*
20,1,$1+$1,$8,$9,$2,$3,0*%
G04 Aperture macros list end*
%ADD10RoundRect,0.250000X0.350000X0.650000X-0.350000X0.650000X-0.350000X-0.650000X0.350000X-0.650000X0*%
%ADD11RoundRect,0.150000X0.150000X0.625000X-0.150000X0.625000X-0.150000X-0.625000X0.150000X-0.625000X0*%
%ADD12R,1.639799X0.431000*%
%ADD13C,2.500000*%
%ADD14RoundRect,0.250000X0.350000X0.450000X-0.350000X0.450000X-0.350000X-0.450000X0.350000X-0.450000X0*%
%ADD15R,1.700000X1.700000*%
%ADD16O,1.700000X1.700000*%
%ADD17RoundRect,0.250000X-0.350000X-0.450000X0.350000X-0.450000X0.350000X0.450000X-0.350000X0.450000X0*%
G04 APERTURE END LIST*
D10*
%TO.C,J2*%
X169300000Y-75125000D03*
X163700000Y-75125000D03*
D11*
X165000000Y-79000000D03*
X166000000Y-79000000D03*
X167000000Y-79000000D03*
X168000000Y-79000000D03*
%TD*%
%TO.C,J1*%
X176000000Y-79000000D03*
X175000000Y-79000000D03*
X174000000Y-79000000D03*
X173000000Y-79000000D03*
D10*
X171700000Y-75125000D03*
X177300000Y-75125000D03*
%TD*%
D12*
%TO.C,U1*%
X166286900Y-84877501D03*
X166286900Y-85527500D03*
X166286900Y-86177498D03*
X166286900Y-86827499D03*
X166286900Y-87477498D03*
X166286900Y-88127499D03*
X166286900Y-88777498D03*
X166286900Y-89427499D03*
X166286900Y-90077498D03*
X166286900Y-90727499D03*
X166286900Y-91377498D03*
X166286900Y-92027499D03*
X173551300Y-92027499D03*
X173551300Y-91377500D03*
X173551300Y-90727499D03*
X173551300Y-90077501D03*
X173551300Y-89427499D03*
X173551300Y-88777501D03*
X173551300Y-88127502D03*
X173551300Y-87477501D03*
X173551300Y-86827502D03*
X173551300Y-86177501D03*
X173551300Y-85527502D03*
X173551300Y-84877501D03*
%TD*%
D13*
%TO.C,H3*%
X181000000Y-97000000D03*
%TD*%
%TO.C,H4*%
X160000000Y-97000000D03*
%TD*%
D14*
%TO.C,R1*%
X175500000Y-83000000D03*
X173500000Y-83000000D03*
%TD*%
%TO.C,R2*%
X175500000Y-81000000D03*
X173500000Y-81000000D03*
%TD*%
D15*
%TO.C,J6*%
X181500000Y-91500000D03*
D16*
X178960000Y-91500000D03*
X181500000Y-88960000D03*
X178960000Y-88960000D03*
X181500000Y-86420000D03*
X178960000Y-86420000D03*
X181500000Y-83880000D03*
X178960000Y-83880000D03*
X181500000Y-81340000D03*
X178960000Y-81340000D03*
%TD*%
D15*
%TO.C,J4*%
X170500000Y-82000000D03*
%TD*%
%TO.C,J3*%
X160000000Y-81500000D03*
D16*
X162540000Y-81500000D03*
X160000000Y-84040000D03*
X162540000Y-84040000D03*
X160000000Y-86580000D03*
X162540000Y-86580000D03*
X160000000Y-89120000D03*
X162540000Y-89120000D03*
X160000000Y-91660000D03*
X162540000Y-91660000D03*
%TD*%
D17*
%TO.C,R3*%
X165500000Y-82500000D03*
X167500000Y-82500000D03*
%TD*%
D13*
%TO.C,H2*%
X181000000Y-76000000D03*
%TD*%
%TO.C,H1*%
X160000000Y-76000000D03*
%TD*%
M02*
