%TF.GenerationSoftware,KiCad,Pcbnew,(6.0.7)*%
%TF.CreationDate,2022-09-23T22:10:56-05:00*%
%TF.ProjectId,PCA9535,50434139-3533-4352-9e6b-696361645f70,rev?*%
%TF.SameCoordinates,Original*%
%TF.FileFunction,Legend,Bot*%
%TF.FilePolarity,Positive*%
%FSLAX46Y46*%
G04 Gerber Fmt 4.6, Leading zero omitted, Abs format (unit mm)*
G04 Created by KiCad (PCBNEW (6.0.7)) date 2022-09-23 22:10:56*
%MOMM*%
%LPD*%
G01*
G04 APERTURE LIST*
%ADD10C,0.150000*%
%ADD11C,0.120000*%
G04 APERTURE END LIST*
D10*
%TO.C,JP1*%
X131333333Y-82152380D02*
X131333333Y-82866666D01*
X131380952Y-83009523D01*
X131476190Y-83104761D01*
X131619047Y-83152380D01*
X131714285Y-83152380D01*
X130857142Y-83152380D02*
X130857142Y-82152380D01*
X130476190Y-82152380D01*
X130380952Y-82200000D01*
X130333333Y-82247619D01*
X130285714Y-82342857D01*
X130285714Y-82485714D01*
X130333333Y-82580952D01*
X130380952Y-82628571D01*
X130476190Y-82676190D01*
X130857142Y-82676190D01*
X129333333Y-83152380D02*
X129904761Y-83152380D01*
X129619047Y-83152380D02*
X129619047Y-82152380D01*
X129714285Y-82295238D01*
X129809523Y-82390476D01*
X129904761Y-82438095D01*
%TO.C,JP2*%
X131333333Y-86152380D02*
X131333333Y-86866666D01*
X131380952Y-87009523D01*
X131476190Y-87104761D01*
X131619047Y-87152380D01*
X131714285Y-87152380D01*
X130857142Y-87152380D02*
X130857142Y-86152380D01*
X130476190Y-86152380D01*
X130380952Y-86200000D01*
X130333333Y-86247619D01*
X130285714Y-86342857D01*
X130285714Y-86485714D01*
X130333333Y-86580952D01*
X130380952Y-86628571D01*
X130476190Y-86676190D01*
X130857142Y-86676190D01*
X129904761Y-86247619D02*
X129857142Y-86200000D01*
X129761904Y-86152380D01*
X129523809Y-86152380D01*
X129428571Y-86200000D01*
X129380952Y-86247619D01*
X129333333Y-86342857D01*
X129333333Y-86438095D01*
X129380952Y-86580952D01*
X129952380Y-87152380D01*
X129333333Y-87152380D01*
%TO.C,JP3*%
X131333333Y-90152380D02*
X131333333Y-90866666D01*
X131380952Y-91009523D01*
X131476190Y-91104761D01*
X131619047Y-91152380D01*
X131714285Y-91152380D01*
X130857142Y-91152380D02*
X130857142Y-90152380D01*
X130476190Y-90152380D01*
X130380952Y-90200000D01*
X130333333Y-90247619D01*
X130285714Y-90342857D01*
X130285714Y-90485714D01*
X130333333Y-90580952D01*
X130380952Y-90628571D01*
X130476190Y-90676190D01*
X130857142Y-90676190D01*
X129952380Y-90152380D02*
X129333333Y-90152380D01*
X129666666Y-90533333D01*
X129523809Y-90533333D01*
X129428571Y-90580952D01*
X129380952Y-90628571D01*
X129333333Y-90723809D01*
X129333333Y-90961904D01*
X129380952Y-91057142D01*
X129428571Y-91104761D01*
X129523809Y-91152380D01*
X129809523Y-91152380D01*
X129904761Y-91104761D01*
X129952380Y-91057142D01*
D11*
%TO.C,JP1*%
X128450000Y-85500000D02*
X132550000Y-85500000D01*
X131800000Y-85700000D02*
X131500000Y-86000000D01*
X132550000Y-83500000D02*
X128450000Y-83500000D01*
X132550000Y-85500000D02*
X132550000Y-83500000D01*
X128450000Y-83500000D02*
X128450000Y-85500000D01*
X131800000Y-85700000D02*
X132100000Y-86000000D01*
X132100000Y-86000000D02*
X131500000Y-86000000D01*
%TO.C,JP2*%
X131800000Y-89700000D02*
X131500000Y-90000000D01*
X132550000Y-87500000D02*
X128450000Y-87500000D01*
X132100000Y-90000000D02*
X131500000Y-90000000D01*
X131800000Y-89700000D02*
X132100000Y-90000000D01*
X128450000Y-89500000D02*
X132550000Y-89500000D01*
X132550000Y-89500000D02*
X132550000Y-87500000D01*
X128450000Y-87500000D02*
X128450000Y-89500000D01*
%TO.C,JP3*%
X132550000Y-93500000D02*
X132550000Y-91500000D01*
X132550000Y-91500000D02*
X128450000Y-91500000D01*
X131800000Y-93700000D02*
X132100000Y-94000000D01*
X131800000Y-93700000D02*
X131500000Y-94000000D01*
X128450000Y-91500000D02*
X128450000Y-93500000D01*
X132100000Y-94000000D02*
X131500000Y-94000000D01*
X128450000Y-93500000D02*
X132550000Y-93500000D01*
%TD*%
M02*
