M48
; DRILL file {KiCad (6.0.7)} date Sat Sep 24 19:09:10 2022
; FORMAT={-:-/ absolute / inch / decimal}
; #@! TF.CreationDate,2022-09-24T19:09:10-05:00
; #@! TF.GenerationSoftware,Kicad,Pcbnew,(6.0.7)
; #@! TF.FileFunction,Plated,1,2,PTH
FMAT,2
INCH
; #@! TA.AperFunction,Plated,PTH,ViaDrill
T1C0.0157
; #@! TA.AperFunction,Plated,PTH,ComponentDrill
T2C0.0394
%
G90
G05
T1
X4.79Y-3.62
X4.8622Y-2.8937
X4.9803Y-3.38
X4.9895Y-3.3207
X5.0015Y-3.227
X5.0033Y-3.2691
X5.0591Y-2.8937
X5.1181Y-3.2087
X5.1378Y-3.3071
X5.1378Y-3.4646
X5.1378Y-3.6417
X5.1772Y-2.8937
X5.1969Y-3.0709
X5.23Y-3.57
X5.2953Y-2.8937
X5.2953Y-3.3721
X5.3312Y-3.4001
X5.3346Y-3.4429
T2
X4.6654Y-3.0315
X4.6654Y-3.1315
X4.6654Y-3.2315
X4.6654Y-3.3315
X4.6654Y-3.4315
X4.7654Y-3.0315
X4.7654Y-3.1315
X4.7654Y-3.2315
X4.7654Y-3.3315
X4.7654Y-3.4315
X5.0787Y-3.0315
X5.4118Y-3.0252
X5.4118Y-3.1252
X5.4118Y-3.2252
X5.4118Y-3.3252
X5.4118Y-3.4252
X5.5118Y-3.0252
X5.5118Y-3.1252
X5.5118Y-3.2252
X5.5118Y-3.3252
X5.5118Y-3.4252
T0
M30
