%TF.GenerationSoftware,KiCad,Pcbnew,(6.0.7)*%
%TF.CreationDate,2022-09-24T19:09:13-05:00*%
%TF.ProjectId,PCA9535,50434139-3533-4352-9e6b-696361645f70,rev?*%
%TF.SameCoordinates,Original*%
%TF.FileFunction,Legend,Bot*%
%TF.FilePolarity,Positive*%
%FSLAX46Y46*%
G04 Gerber Fmt 4.6, Leading zero omitted, Abs format (unit mm)*
G04 Created by KiCad (PCBNEW (6.0.7)) date 2022-09-24 19:09:13*
%MOMM*%
%LPD*%
G01*
G04 APERTURE LIST*
%ADD10C,0.125000*%
%ADD11C,0.150000*%
%ADD12C,0.120000*%
G04 APERTURE END LIST*
D10*
X127392857Y-92154761D02*
X127797619Y-92154761D01*
X127845238Y-92130952D01*
X127869047Y-92107142D01*
X127892857Y-92059523D01*
X127892857Y-91988095D01*
X127869047Y-91940476D01*
X127702380Y-92154761D02*
X127726190Y-92107142D01*
X127726190Y-92011904D01*
X127702380Y-91964285D01*
X127678571Y-91940476D01*
X127630952Y-91916666D01*
X127488095Y-91916666D01*
X127440476Y-91940476D01*
X127416666Y-91964285D01*
X127392857Y-92011904D01*
X127392857Y-92107142D01*
X127416666Y-92154761D01*
X127392857Y-92392857D02*
X127726190Y-92392857D01*
X127440476Y-92392857D02*
X127416666Y-92416666D01*
X127392857Y-92464285D01*
X127392857Y-92535714D01*
X127416666Y-92583333D01*
X127464285Y-92607142D01*
X127726190Y-92607142D01*
X127726190Y-93059523D02*
X127226190Y-93059523D01*
X127702380Y-93059523D02*
X127726190Y-93011904D01*
X127726190Y-92916666D01*
X127702380Y-92869047D01*
X127678571Y-92845238D01*
X127630952Y-92821428D01*
X127488095Y-92821428D01*
X127440476Y-92845238D01*
X127416666Y-92869047D01*
X127392857Y-92916666D01*
X127392857Y-93011904D01*
X127416666Y-93059523D01*
X134119047Y-84226190D02*
X133809523Y-84226190D01*
X133976190Y-84416666D01*
X133904761Y-84416666D01*
X133857142Y-84440476D01*
X133833333Y-84464285D01*
X133809523Y-84511904D01*
X133809523Y-84630952D01*
X133833333Y-84678571D01*
X133857142Y-84702380D01*
X133904761Y-84726190D01*
X134047619Y-84726190D01*
X134095238Y-84702380D01*
X134119047Y-84678571D01*
X133666666Y-84226190D02*
X133500000Y-84726190D01*
X133333333Y-84226190D01*
X133214285Y-84226190D02*
X132904761Y-84226190D01*
X133071428Y-84416666D01*
X133000000Y-84416666D01*
X132952380Y-84440476D01*
X132928571Y-84464285D01*
X132904761Y-84511904D01*
X132904761Y-84630952D01*
X132928571Y-84678571D01*
X132952380Y-84702380D01*
X133000000Y-84726190D01*
X133142857Y-84726190D01*
X133190476Y-84702380D01*
X133214285Y-84678571D01*
X127392857Y-84154761D02*
X127797619Y-84154761D01*
X127845238Y-84130952D01*
X127869047Y-84107142D01*
X127892857Y-84059523D01*
X127892857Y-83988095D01*
X127869047Y-83940476D01*
X127702380Y-84154761D02*
X127726190Y-84107142D01*
X127726190Y-84011904D01*
X127702380Y-83964285D01*
X127678571Y-83940476D01*
X127630952Y-83916666D01*
X127488095Y-83916666D01*
X127440476Y-83940476D01*
X127416666Y-83964285D01*
X127392857Y-84011904D01*
X127392857Y-84107142D01*
X127416666Y-84154761D01*
X127392857Y-84392857D02*
X127726190Y-84392857D01*
X127440476Y-84392857D02*
X127416666Y-84416666D01*
X127392857Y-84464285D01*
X127392857Y-84535714D01*
X127416666Y-84583333D01*
X127464285Y-84607142D01*
X127726190Y-84607142D01*
X127726190Y-85059523D02*
X127226190Y-85059523D01*
X127702380Y-85059523D02*
X127726190Y-85011904D01*
X127726190Y-84916666D01*
X127702380Y-84869047D01*
X127678571Y-84845238D01*
X127630952Y-84821428D01*
X127488095Y-84821428D01*
X127440476Y-84845238D01*
X127416666Y-84869047D01*
X127392857Y-84916666D01*
X127392857Y-85011904D01*
X127416666Y-85059523D01*
X127392857Y-88154761D02*
X127797619Y-88154761D01*
X127845238Y-88130952D01*
X127869047Y-88107142D01*
X127892857Y-88059523D01*
X127892857Y-87988095D01*
X127869047Y-87940476D01*
X127702380Y-88154761D02*
X127726190Y-88107142D01*
X127726190Y-88011904D01*
X127702380Y-87964285D01*
X127678571Y-87940476D01*
X127630952Y-87916666D01*
X127488095Y-87916666D01*
X127440476Y-87940476D01*
X127416666Y-87964285D01*
X127392857Y-88011904D01*
X127392857Y-88107142D01*
X127416666Y-88154761D01*
X127392857Y-88392857D02*
X127726190Y-88392857D01*
X127440476Y-88392857D02*
X127416666Y-88416666D01*
X127392857Y-88464285D01*
X127392857Y-88535714D01*
X127416666Y-88583333D01*
X127464285Y-88607142D01*
X127726190Y-88607142D01*
X127726190Y-89059523D02*
X127226190Y-89059523D01*
X127702380Y-89059523D02*
X127726190Y-89011904D01*
X127726190Y-88916666D01*
X127702380Y-88869047D01*
X127678571Y-88845238D01*
X127630952Y-88821428D01*
X127488095Y-88821428D01*
X127440476Y-88845238D01*
X127416666Y-88869047D01*
X127392857Y-88916666D01*
X127392857Y-89011904D01*
X127416666Y-89059523D01*
X134119047Y-92226190D02*
X133809523Y-92226190D01*
X133976190Y-92416666D01*
X133904761Y-92416666D01*
X133857142Y-92440476D01*
X133833333Y-92464285D01*
X133809523Y-92511904D01*
X133809523Y-92630952D01*
X133833333Y-92678571D01*
X133857142Y-92702380D01*
X133904761Y-92726190D01*
X134047619Y-92726190D01*
X134095238Y-92702380D01*
X134119047Y-92678571D01*
X133666666Y-92226190D02*
X133500000Y-92726190D01*
X133333333Y-92226190D01*
X133214285Y-92226190D02*
X132904761Y-92226190D01*
X133071428Y-92416666D01*
X133000000Y-92416666D01*
X132952380Y-92440476D01*
X132928571Y-92464285D01*
X132904761Y-92511904D01*
X132904761Y-92630952D01*
X132928571Y-92678571D01*
X132952380Y-92702380D01*
X133000000Y-92726190D01*
X133142857Y-92726190D01*
X133190476Y-92702380D01*
X133214285Y-92678571D01*
X134119047Y-88226190D02*
X133809523Y-88226190D01*
X133976190Y-88416666D01*
X133904761Y-88416666D01*
X133857142Y-88440476D01*
X133833333Y-88464285D01*
X133809523Y-88511904D01*
X133809523Y-88630952D01*
X133833333Y-88678571D01*
X133857142Y-88702380D01*
X133904761Y-88726190D01*
X134047619Y-88726190D01*
X134095238Y-88702380D01*
X134119047Y-88678571D01*
X133666666Y-88226190D02*
X133500000Y-88726190D01*
X133333333Y-88226190D01*
X133214285Y-88226190D02*
X132904761Y-88226190D01*
X133071428Y-88416666D01*
X133000000Y-88416666D01*
X132952380Y-88440476D01*
X132928571Y-88464285D01*
X132904761Y-88511904D01*
X132904761Y-88630952D01*
X132928571Y-88678571D01*
X132952380Y-88702380D01*
X133000000Y-88726190D01*
X133142857Y-88726190D01*
X133190476Y-88702380D01*
X133214285Y-88678571D01*
D11*
%TO.C,JP1*%
X131333333Y-82152380D02*
X131333333Y-82866666D01*
X131380952Y-83009523D01*
X131476190Y-83104761D01*
X131619047Y-83152380D01*
X131714285Y-83152380D01*
X130857142Y-83152380D02*
X130857142Y-82152380D01*
X130476190Y-82152380D01*
X130380952Y-82200000D01*
X130333333Y-82247619D01*
X130285714Y-82342857D01*
X130285714Y-82485714D01*
X130333333Y-82580952D01*
X130380952Y-82628571D01*
X130476190Y-82676190D01*
X130857142Y-82676190D01*
X129333333Y-83152380D02*
X129904761Y-83152380D01*
X129619047Y-83152380D02*
X129619047Y-82152380D01*
X129714285Y-82295238D01*
X129809523Y-82390476D01*
X129904761Y-82438095D01*
%TO.C,JP2*%
X131333333Y-86152380D02*
X131333333Y-86866666D01*
X131380952Y-87009523D01*
X131476190Y-87104761D01*
X131619047Y-87152380D01*
X131714285Y-87152380D01*
X130857142Y-87152380D02*
X130857142Y-86152380D01*
X130476190Y-86152380D01*
X130380952Y-86200000D01*
X130333333Y-86247619D01*
X130285714Y-86342857D01*
X130285714Y-86485714D01*
X130333333Y-86580952D01*
X130380952Y-86628571D01*
X130476190Y-86676190D01*
X130857142Y-86676190D01*
X129904761Y-86247619D02*
X129857142Y-86200000D01*
X129761904Y-86152380D01*
X129523809Y-86152380D01*
X129428571Y-86200000D01*
X129380952Y-86247619D01*
X129333333Y-86342857D01*
X129333333Y-86438095D01*
X129380952Y-86580952D01*
X129952380Y-87152380D01*
X129333333Y-87152380D01*
%TO.C,JP3*%
X131333333Y-90152380D02*
X131333333Y-90866666D01*
X131380952Y-91009523D01*
X131476190Y-91104761D01*
X131619047Y-91152380D01*
X131714285Y-91152380D01*
X130857142Y-91152380D02*
X130857142Y-90152380D01*
X130476190Y-90152380D01*
X130380952Y-90200000D01*
X130333333Y-90247619D01*
X130285714Y-90342857D01*
X130285714Y-90485714D01*
X130333333Y-90580952D01*
X130380952Y-90628571D01*
X130476190Y-90676190D01*
X130857142Y-90676190D01*
X129952380Y-90152380D02*
X129333333Y-90152380D01*
X129666666Y-90533333D01*
X129523809Y-90533333D01*
X129428571Y-90580952D01*
X129380952Y-90628571D01*
X129333333Y-90723809D01*
X129333333Y-90961904D01*
X129380952Y-91057142D01*
X129428571Y-91104761D01*
X129523809Y-91152380D01*
X129809523Y-91152380D01*
X129904761Y-91104761D01*
X129952380Y-91057142D01*
D12*
%TO.C,JP1*%
X128450000Y-85500000D02*
X132550000Y-85500000D01*
X131800000Y-85700000D02*
X131500000Y-86000000D01*
X132550000Y-83500000D02*
X128450000Y-83500000D01*
X132550000Y-85500000D02*
X132550000Y-83500000D01*
X128450000Y-83500000D02*
X128450000Y-85500000D01*
X131800000Y-85700000D02*
X132100000Y-86000000D01*
X132100000Y-86000000D02*
X131500000Y-86000000D01*
%TO.C,JP2*%
X131800000Y-89700000D02*
X131500000Y-90000000D01*
X132550000Y-87500000D02*
X128450000Y-87500000D01*
X132100000Y-90000000D02*
X131500000Y-90000000D01*
X131800000Y-89700000D02*
X132100000Y-90000000D01*
X128450000Y-89500000D02*
X132550000Y-89500000D01*
X132550000Y-89500000D02*
X132550000Y-87500000D01*
X128450000Y-87500000D02*
X128450000Y-89500000D01*
%TO.C,JP3*%
X132550000Y-93500000D02*
X132550000Y-91500000D01*
X132550000Y-91500000D02*
X128450000Y-91500000D01*
X131800000Y-93700000D02*
X132100000Y-94000000D01*
X131800000Y-93700000D02*
X131500000Y-94000000D01*
X128450000Y-91500000D02*
X128450000Y-93500000D01*
X132100000Y-94000000D02*
X131500000Y-94000000D01*
X128450000Y-93500000D02*
X132550000Y-93500000D01*
%TD*%
M02*
