%TF.GenerationSoftware,KiCad,Pcbnew,(6.0.7)*%
%TF.CreationDate,2022-09-23T22:10:56-05:00*%
%TF.ProjectId,PCA9535,50434139-3533-4352-9e6b-696361645f70,rev?*%
%TF.SameCoordinates,Original*%
%TF.FileFunction,Copper,L2,Bot*%
%TF.FilePolarity,Positive*%
%FSLAX46Y46*%
G04 Gerber Fmt 4.6, Leading zero omitted, Abs format (unit mm)*
G04 Created by KiCad (PCBNEW (6.0.7)) date 2022-09-23 22:10:56*
%MOMM*%
%LPD*%
G01*
G04 APERTURE LIST*
%ADD10C,0.125000*%
%TA.AperFunction,NonConductor*%
%ADD11C,0.125000*%
%TD*%
%TA.AperFunction,ComponentPad*%
%ADD12R,1.700000X1.700000*%
%TD*%
%TA.AperFunction,ComponentPad*%
%ADD13O,1.700000X1.700000*%
%TD*%
%TA.AperFunction,SMDPad,CuDef*%
%ADD14R,1.000000X1.500000*%
%TD*%
%TA.AperFunction,ViaPad*%
%ADD15C,0.800000*%
%TD*%
%TA.AperFunction,Conductor*%
%ADD16C,0.250000*%
%TD*%
G04 APERTURE END LIST*
D10*
D11*
X127392857Y-92154761D02*
X127797619Y-92154761D01*
X127845238Y-92130952D01*
X127869047Y-92107142D01*
X127892857Y-92059523D01*
X127892857Y-91988095D01*
X127869047Y-91940476D01*
X127702380Y-92154761D02*
X127726190Y-92107142D01*
X127726190Y-92011904D01*
X127702380Y-91964285D01*
X127678571Y-91940476D01*
X127630952Y-91916666D01*
X127488095Y-91916666D01*
X127440476Y-91940476D01*
X127416666Y-91964285D01*
X127392857Y-92011904D01*
X127392857Y-92107142D01*
X127416666Y-92154761D01*
X127392857Y-92392857D02*
X127726190Y-92392857D01*
X127440476Y-92392857D02*
X127416666Y-92416666D01*
X127392857Y-92464285D01*
X127392857Y-92535714D01*
X127416666Y-92583333D01*
X127464285Y-92607142D01*
X127726190Y-92607142D01*
X127726190Y-93059523D02*
X127226190Y-93059523D01*
X127702380Y-93059523D02*
X127726190Y-93011904D01*
X127726190Y-92916666D01*
X127702380Y-92869047D01*
X127678571Y-92845238D01*
X127630952Y-92821428D01*
X127488095Y-92821428D01*
X127440476Y-92845238D01*
X127416666Y-92869047D01*
X127392857Y-92916666D01*
X127392857Y-93011904D01*
X127416666Y-93059523D01*
D10*
D11*
X127392857Y-88154761D02*
X127797619Y-88154761D01*
X127845238Y-88130952D01*
X127869047Y-88107142D01*
X127892857Y-88059523D01*
X127892857Y-87988095D01*
X127869047Y-87940476D01*
X127702380Y-88154761D02*
X127726190Y-88107142D01*
X127726190Y-88011904D01*
X127702380Y-87964285D01*
X127678571Y-87940476D01*
X127630952Y-87916666D01*
X127488095Y-87916666D01*
X127440476Y-87940476D01*
X127416666Y-87964285D01*
X127392857Y-88011904D01*
X127392857Y-88107142D01*
X127416666Y-88154761D01*
X127392857Y-88392857D02*
X127726190Y-88392857D01*
X127440476Y-88392857D02*
X127416666Y-88416666D01*
X127392857Y-88464285D01*
X127392857Y-88535714D01*
X127416666Y-88583333D01*
X127464285Y-88607142D01*
X127726190Y-88607142D01*
X127726190Y-89059523D02*
X127226190Y-89059523D01*
X127702380Y-89059523D02*
X127726190Y-89011904D01*
X127726190Y-88916666D01*
X127702380Y-88869047D01*
X127678571Y-88845238D01*
X127630952Y-88821428D01*
X127488095Y-88821428D01*
X127440476Y-88845238D01*
X127416666Y-88869047D01*
X127392857Y-88916666D01*
X127392857Y-89011904D01*
X127416666Y-89059523D01*
D10*
D11*
X127392857Y-84154761D02*
X127797619Y-84154761D01*
X127845238Y-84130952D01*
X127869047Y-84107142D01*
X127892857Y-84059523D01*
X127892857Y-83988095D01*
X127869047Y-83940476D01*
X127702380Y-84154761D02*
X127726190Y-84107142D01*
X127726190Y-84011904D01*
X127702380Y-83964285D01*
X127678571Y-83940476D01*
X127630952Y-83916666D01*
X127488095Y-83916666D01*
X127440476Y-83940476D01*
X127416666Y-83964285D01*
X127392857Y-84011904D01*
X127392857Y-84107142D01*
X127416666Y-84154761D01*
X127392857Y-84392857D02*
X127726190Y-84392857D01*
X127440476Y-84392857D02*
X127416666Y-84416666D01*
X127392857Y-84464285D01*
X127392857Y-84535714D01*
X127416666Y-84583333D01*
X127464285Y-84607142D01*
X127726190Y-84607142D01*
X127726190Y-85059523D02*
X127226190Y-85059523D01*
X127702380Y-85059523D02*
X127726190Y-85011904D01*
X127726190Y-84916666D01*
X127702380Y-84869047D01*
X127678571Y-84845238D01*
X127630952Y-84821428D01*
X127488095Y-84821428D01*
X127440476Y-84845238D01*
X127416666Y-84869047D01*
X127392857Y-84916666D01*
X127392857Y-85011904D01*
X127416666Y-85059523D01*
D10*
D11*
X134119047Y-92226190D02*
X133809523Y-92226190D01*
X133976190Y-92416666D01*
X133904761Y-92416666D01*
X133857142Y-92440476D01*
X133833333Y-92464285D01*
X133809523Y-92511904D01*
X133809523Y-92630952D01*
X133833333Y-92678571D01*
X133857142Y-92702380D01*
X133904761Y-92726190D01*
X134047619Y-92726190D01*
X134095238Y-92702380D01*
X134119047Y-92678571D01*
X133666666Y-92226190D02*
X133500000Y-92726190D01*
X133333333Y-92226190D01*
X133214285Y-92226190D02*
X132904761Y-92226190D01*
X133071428Y-92416666D01*
X133000000Y-92416666D01*
X132952380Y-92440476D01*
X132928571Y-92464285D01*
X132904761Y-92511904D01*
X132904761Y-92630952D01*
X132928571Y-92678571D01*
X132952380Y-92702380D01*
X133000000Y-92726190D01*
X133142857Y-92726190D01*
X133190476Y-92702380D01*
X133214285Y-92678571D01*
D10*
D11*
X134119047Y-88226190D02*
X133809523Y-88226190D01*
X133976190Y-88416666D01*
X133904761Y-88416666D01*
X133857142Y-88440476D01*
X133833333Y-88464285D01*
X133809523Y-88511904D01*
X133809523Y-88630952D01*
X133833333Y-88678571D01*
X133857142Y-88702380D01*
X133904761Y-88726190D01*
X134047619Y-88726190D01*
X134095238Y-88702380D01*
X134119047Y-88678571D01*
X133666666Y-88226190D02*
X133500000Y-88726190D01*
X133333333Y-88226190D01*
X133214285Y-88226190D02*
X132904761Y-88226190D01*
X133071428Y-88416666D01*
X133000000Y-88416666D01*
X132952380Y-88440476D01*
X132928571Y-88464285D01*
X132904761Y-88511904D01*
X132904761Y-88630952D01*
X132928571Y-88678571D01*
X132952380Y-88702380D01*
X133000000Y-88726190D01*
X133142857Y-88726190D01*
X133190476Y-88702380D01*
X133214285Y-88678571D01*
D10*
D11*
X134119047Y-84226190D02*
X133809523Y-84226190D01*
X133976190Y-84416666D01*
X133904761Y-84416666D01*
X133857142Y-84440476D01*
X133833333Y-84464285D01*
X133809523Y-84511904D01*
X133809523Y-84630952D01*
X133833333Y-84678571D01*
X133857142Y-84702380D01*
X133904761Y-84726190D01*
X134047619Y-84726190D01*
X134095238Y-84702380D01*
X134119047Y-84678571D01*
X133666666Y-84226190D02*
X133500000Y-84726190D01*
X133333333Y-84226190D01*
X133214285Y-84226190D02*
X132904761Y-84226190D01*
X133071428Y-84416666D01*
X133000000Y-84416666D01*
X132952380Y-84440476D01*
X132928571Y-84464285D01*
X132904761Y-84511904D01*
X132904761Y-84630952D01*
X132928571Y-84678571D01*
X132952380Y-84702380D01*
X133000000Y-84726190D01*
X133142857Y-84726190D01*
X133190476Y-84702380D01*
X133214285Y-84678571D01*
D12*
%TO.P,J6,1,Pin_1*%
%TO.N,P10*%
X140000000Y-87000000D03*
D13*
%TO.P,J6,2,Pin_2*%
%TO.N,P14*%
X137460000Y-87000000D03*
%TO.P,J6,3,Pin_3*%
%TO.N,P11*%
X140000000Y-84460000D03*
%TO.P,J6,4,Pin_4*%
%TO.N,P15*%
X137460000Y-84460000D03*
%TO.P,J6,5,Pin_5*%
%TO.N,P12*%
X140000000Y-81920000D03*
%TO.P,J6,6,Pin_6*%
%TO.N,P16*%
X137460000Y-81920000D03*
%TO.P,J6,7,Pin_7*%
%TO.N,P13*%
X140000000Y-79380000D03*
%TO.P,J6,8,Pin_8*%
%TO.N,P17*%
X137460000Y-79380000D03*
%TO.P,J6,9,Pin_9*%
%TO.N,+3.3V*%
X140000000Y-76840000D03*
%TO.P,J6,10,Pin_10*%
%TO.N,GND*%
X137460000Y-76840000D03*
%TD*%
D12*
%TO.P,J4,1,Pin_1*%
%TO.N,INT*%
X129000000Y-77000000D03*
%TD*%
%TO.P,J3,1,Pin_1*%
%TO.N,P00*%
X118500000Y-77000000D03*
D13*
%TO.P,J3,2,Pin_2*%
%TO.N,P04*%
X121040000Y-77000000D03*
%TO.P,J3,3,Pin_3*%
%TO.N,P01*%
X118500000Y-79540000D03*
%TO.P,J3,4,Pin_4*%
%TO.N,P05*%
X121040000Y-79540000D03*
%TO.P,J3,5,Pin_5*%
%TO.N,P02*%
X118500000Y-82080000D03*
%TO.P,J3,6,Pin_6*%
%TO.N,P06*%
X121040000Y-82080000D03*
%TO.P,J3,7,Pin_7*%
%TO.N,P03*%
X118500000Y-84620000D03*
%TO.P,J3,8,Pin_8*%
%TO.N,P07*%
X121040000Y-84620000D03*
%TO.P,J3,9,Pin_9*%
%TO.N,+3.3V*%
X118500000Y-87160000D03*
%TO.P,J3,10,Pin_10*%
%TO.N,GND*%
X121040000Y-87160000D03*
%TD*%
D14*
%TO.P,JP1,1,A*%
%TO.N,+3.3V*%
X131800000Y-84500000D03*
%TO.P,JP1,2,C*%
%TO.N,A0*%
X130500000Y-84500000D03*
%TO.P,JP1,3,B*%
%TO.N,GND*%
X129200000Y-84500000D03*
%TD*%
%TO.P,JP2,1,A*%
%TO.N,+3.3V*%
X131800000Y-88500000D03*
%TO.P,JP2,2,C*%
%TO.N,A1*%
X130500000Y-88500000D03*
%TO.P,JP2,3,B*%
%TO.N,GND*%
X129200000Y-88500000D03*
%TD*%
%TO.P,JP3,1,A*%
%TO.N,+3.3V*%
X131800000Y-92500000D03*
%TO.P,JP3,2,C*%
%TO.N,A2*%
X130500000Y-92500000D03*
%TO.P,JP3,3,B*%
%TO.N,GND*%
X129200000Y-92500000D03*
%TD*%
D15*
%TO.N,SCL*%
X134500000Y-73500000D03*
X132000000Y-78000000D03*
X128500000Y-73500000D03*
X130000000Y-81500000D03*
%TO.N,GND*%
X131500000Y-73500000D03*
X123500000Y-73500000D03*
%TO.N,P00*%
X127038534Y-81964740D03*
%TO.N,P01*%
X127084386Y-83035190D03*
%TO.N,P02*%
X126825205Y-84054883D03*
%TO.N,P03*%
X126500000Y-85000000D03*
%TO.N,P11*%
X135500000Y-87450500D03*
%TO.N,P12*%
X135411351Y-86362348D03*
%TO.N,P13*%
X134500000Y-85651999D03*
%TO.N,A1*%
X130500000Y-88000000D03*
%TO.N,A2*%
X130500000Y-92500000D03*
%TO.N,A0*%
X130500000Y-84000000D03*
%TD*%
D16*
%TO.N,+3.3V*%
X136836442Y-78015000D02*
X131800000Y-83051442D01*
X138825000Y-78015000D02*
X136836442Y-78015000D01*
X140000000Y-76840000D02*
X138825000Y-78015000D01*
X131800000Y-92500000D02*
X131800000Y-88500000D01*
X131800000Y-83051442D02*
X131800000Y-84500000D01*
X131325000Y-91425000D02*
X131800000Y-91900000D01*
X131800000Y-88500000D02*
X131800000Y-84500000D01*
X118500000Y-87160000D02*
X122765000Y-91425000D01*
X131800000Y-91900000D02*
X131800000Y-92500000D01*
X122765000Y-91425000D02*
X131325000Y-91425000D01*
%TO.N,SCL*%
X132000000Y-78000000D02*
X130000000Y-80000000D01*
X130000000Y-80000000D02*
X130000000Y-81500000D01*
X132500000Y-75500000D02*
X132000000Y-75500000D01*
X134500000Y-73500000D02*
X132500000Y-75500000D01*
X132000000Y-75500000D02*
X132000000Y-78000000D01*
X128500000Y-73500000D02*
X130000000Y-73500000D01*
X130000000Y-73500000D02*
X132000000Y-75500000D01*
%TO.N,P00*%
X122573796Y-76872095D02*
X121526701Y-75825000D01*
X122573796Y-77500000D02*
X122573796Y-76872095D01*
X127038534Y-81964740D02*
X122573796Y-77500000D01*
X119675000Y-75825000D02*
X118500000Y-77000000D01*
X121526701Y-75825000D02*
X119675000Y-75825000D01*
%TO.N,P01*%
X119675000Y-78365000D02*
X118500000Y-79540000D01*
X127084386Y-83035190D02*
X122414196Y-78365000D01*
X122414196Y-78365000D02*
X119675000Y-78365000D01*
%TO.N,P02*%
X126825205Y-83800607D02*
X123929598Y-80905000D01*
X123929598Y-80905000D02*
X119675000Y-80905000D01*
X126825205Y-84054883D02*
X126825205Y-83800607D01*
X119675000Y-80905000D02*
X118500000Y-82080000D01*
%TO.N,P03*%
X126500000Y-85000000D02*
X124945000Y-83445000D01*
X124945000Y-83445000D02*
X119675000Y-83445000D01*
X119675000Y-83445000D02*
X118500000Y-84620000D01*
%TO.N,P11*%
X135500000Y-87450500D02*
X135500000Y-87298299D01*
X135500000Y-87298299D02*
X136973299Y-85825000D01*
X138635000Y-85825000D02*
X140000000Y-84460000D01*
X136973299Y-85825000D02*
X138635000Y-85825000D01*
%TO.N,P12*%
X139715000Y-83285000D02*
X140000000Y-83000000D01*
X135411351Y-86362348D02*
X135411351Y-84175140D01*
X135411351Y-84175140D02*
X136301491Y-83285000D01*
X136301491Y-83285000D02*
X139715000Y-83285000D01*
X140000000Y-83000000D02*
X140000000Y-81920000D01*
%TO.N,P13*%
X134500000Y-85651999D02*
X134500000Y-83218299D01*
X136973299Y-80745000D02*
X138635000Y-80745000D01*
X138635000Y-80745000D02*
X140000000Y-79380000D01*
X134500000Y-83218299D02*
X136973299Y-80745000D01*
%TD*%
%TA.AperFunction,Conductor*%
%TO.N,GND*%
G36*
X129433621Y-92078502D02*
G01*
X129480114Y-92132158D01*
X129491500Y-92184500D01*
X129491500Y-93298134D01*
X129498255Y-93360316D01*
X129549385Y-93496705D01*
X129636739Y-93613261D01*
X129753295Y-93700615D01*
X129761704Y-93703767D01*
X129761705Y-93703768D01*
X129878408Y-93747518D01*
X129935173Y-93790159D01*
X129959873Y-93856721D01*
X129944666Y-93926070D01*
X129894380Y-93976188D01*
X129834179Y-93991500D01*
X128539049Y-93991500D01*
X128470928Y-93971498D01*
X128424435Y-93917842D01*
X128414331Y-93847568D01*
X128443825Y-93782988D01*
X128495823Y-93749571D01*
X128504750Y-93749571D01*
X128504750Y-92184500D01*
X128524752Y-92116379D01*
X128578408Y-92069886D01*
X128630750Y-92058500D01*
X129365500Y-92058500D01*
X129433621Y-92078502D01*
G37*
%TD.AperFunction*%
%TA.AperFunction,Conductor*%
G36*
X138265262Y-70028502D02*
G01*
X138311755Y-70082158D01*
X138321859Y-70152432D01*
X138288916Y-70220832D01*
X138129557Y-70390237D01*
X137980576Y-70604991D01*
X137864975Y-70839407D01*
X137785293Y-71088335D01*
X137743279Y-71346307D01*
X137739858Y-71607655D01*
X137775104Y-71866638D01*
X137776412Y-71871124D01*
X137776412Y-71871126D01*
X137796098Y-71938664D01*
X137848243Y-72117567D01*
X137957668Y-72354928D01*
X137960231Y-72358837D01*
X138098410Y-72569596D01*
X138098414Y-72569601D01*
X138100976Y-72573509D01*
X138275018Y-72768506D01*
X138475970Y-72935637D01*
X138479973Y-72938066D01*
X138695422Y-73068804D01*
X138695426Y-73068806D01*
X138699419Y-73071229D01*
X138940455Y-73172303D01*
X139193783Y-73236641D01*
X139198434Y-73237109D01*
X139198438Y-73237110D01*
X139391308Y-73256531D01*
X139410867Y-73258500D01*
X139566354Y-73258500D01*
X139568679Y-73258327D01*
X139568685Y-73258327D01*
X139756000Y-73244407D01*
X139756004Y-73244406D01*
X139760652Y-73244061D01*
X139765200Y-73243032D01*
X139765206Y-73243031D01*
X139951601Y-73200853D01*
X140015577Y-73186377D01*
X140051769Y-73172303D01*
X140254824Y-73093340D01*
X140254827Y-73093339D01*
X140259177Y-73091647D01*
X140486098Y-72961951D01*
X140691357Y-72800138D01*
X140773725Y-72712578D01*
X140834969Y-72676666D01*
X140905907Y-72679566D01*
X140964015Y-72720357D01*
X140990846Y-72786088D01*
X140991500Y-72798911D01*
X140991500Y-75631817D01*
X140971498Y-75699938D01*
X140917842Y-75746431D01*
X140847568Y-75756535D01*
X140787407Y-75730698D01*
X140758415Y-75707801D01*
X140758413Y-75707800D01*
X140754359Y-75704598D01*
X140745918Y-75699938D01*
X140702136Y-75675769D01*
X140558789Y-75596638D01*
X140553920Y-75594914D01*
X140553916Y-75594912D01*
X140353087Y-75523795D01*
X140353083Y-75523794D01*
X140348212Y-75522069D01*
X140343119Y-75521162D01*
X140343116Y-75521161D01*
X140133373Y-75483800D01*
X140133367Y-75483799D01*
X140128284Y-75482894D01*
X140054452Y-75481992D01*
X139910081Y-75480228D01*
X139910079Y-75480228D01*
X139904911Y-75480165D01*
X139684091Y-75513955D01*
X139471756Y-75583357D01*
X139441443Y-75599137D01*
X139360065Y-75641500D01*
X139273607Y-75686507D01*
X139269474Y-75689610D01*
X139269471Y-75689612D01*
X139099100Y-75817530D01*
X139094965Y-75820635D01*
X138940629Y-75982138D01*
X138937715Y-75986410D01*
X138937714Y-75986411D01*
X138901374Y-76039684D01*
X138814743Y-76166680D01*
X138720688Y-76369305D01*
X138660989Y-76584570D01*
X138637251Y-76806695D01*
X138637548Y-76811848D01*
X138637548Y-76811851D01*
X138645563Y-76950862D01*
X138650110Y-77029715D01*
X138651247Y-77034761D01*
X138651248Y-77034767D01*
X138683453Y-77177668D01*
X138678917Y-77248520D01*
X138649631Y-77294464D01*
X138599500Y-77344595D01*
X138537188Y-77378621D01*
X138510405Y-77381500D01*
X136915210Y-77381500D01*
X136904027Y-77380973D01*
X136896534Y-77379298D01*
X136888608Y-77379547D01*
X136888607Y-77379547D01*
X136828444Y-77381438D01*
X136824486Y-77381500D01*
X136796586Y-77381500D01*
X136792596Y-77382004D01*
X136780762Y-77382936D01*
X136736553Y-77384326D01*
X136728937Y-77386539D01*
X136728935Y-77386539D01*
X136717094Y-77389979D01*
X136697735Y-77393988D01*
X136696425Y-77394154D01*
X136677645Y-77396526D01*
X136670279Y-77399442D01*
X136670273Y-77399444D01*
X136636540Y-77412800D01*
X136625310Y-77416645D01*
X136590459Y-77426770D01*
X136582849Y-77428981D01*
X136576026Y-77433016D01*
X136565408Y-77439295D01*
X136547655Y-77447992D01*
X136540010Y-77451019D01*
X136528825Y-77455448D01*
X136510483Y-77468774D01*
X136493054Y-77481437D01*
X136483137Y-77487951D01*
X136445080Y-77510458D01*
X136430759Y-77524779D01*
X136415726Y-77537619D01*
X136399335Y-77549528D01*
X136394284Y-77555634D01*
X136371144Y-77583605D01*
X136363154Y-77592384D01*
X131407747Y-82547790D01*
X131399461Y-82555330D01*
X131392982Y-82559442D01*
X131387557Y-82565219D01*
X131346357Y-82609093D01*
X131343602Y-82611935D01*
X131323865Y-82631672D01*
X131321385Y-82634869D01*
X131313682Y-82643889D01*
X131283414Y-82676121D01*
X131279595Y-82683067D01*
X131279593Y-82683070D01*
X131273652Y-82693876D01*
X131262801Y-82710395D01*
X131250386Y-82726401D01*
X131247241Y-82733670D01*
X131247238Y-82733674D01*
X131232826Y-82766979D01*
X131227609Y-82777629D01*
X131206305Y-82816382D01*
X131204334Y-82824057D01*
X131204334Y-82824058D01*
X131201267Y-82836004D01*
X131194863Y-82854708D01*
X131186819Y-82873297D01*
X131185580Y-82881120D01*
X131185577Y-82881130D01*
X131179901Y-82916966D01*
X131177495Y-82928586D01*
X131173410Y-82944497D01*
X131166500Y-82971412D01*
X131166500Y-82991666D01*
X131164949Y-83011376D01*
X131161780Y-83031385D01*
X131162526Y-83039277D01*
X131165941Y-83075403D01*
X131166500Y-83087261D01*
X131166500Y-83113984D01*
X131146498Y-83182105D01*
X131092842Y-83228598D01*
X131022568Y-83238702D01*
X130966439Y-83215920D01*
X130962094Y-83212763D01*
X130962093Y-83212762D01*
X130956752Y-83208882D01*
X130950724Y-83206198D01*
X130950722Y-83206197D01*
X130788319Y-83133891D01*
X130788318Y-83133891D01*
X130782288Y-83131206D01*
X130688441Y-83111258D01*
X130601944Y-83092872D01*
X130601939Y-83092872D01*
X130595487Y-83091500D01*
X130404513Y-83091500D01*
X130398061Y-83092872D01*
X130398056Y-83092872D01*
X130311559Y-83111258D01*
X130217712Y-83131206D01*
X130211682Y-83133891D01*
X130211681Y-83133891D01*
X130049278Y-83206197D01*
X130049276Y-83206198D01*
X130043248Y-83208882D01*
X130037909Y-83212761D01*
X130037902Y-83212765D01*
X130031472Y-83217437D01*
X129958668Y-83241092D01*
X129958680Y-83241316D01*
X129957839Y-83241362D01*
X129957413Y-83241500D01*
X129951866Y-83241500D01*
X129889684Y-83248255D01*
X129753295Y-83299385D01*
X129636739Y-83386739D01*
X129549385Y-83503295D01*
X129498255Y-83639684D01*
X129491500Y-83701866D01*
X129491500Y-85298134D01*
X129498255Y-85360316D01*
X129549385Y-85496705D01*
X129636739Y-85613261D01*
X129753295Y-85700615D01*
X129889684Y-85751745D01*
X129951866Y-85758500D01*
X131040500Y-85758500D01*
X131108621Y-85778502D01*
X131155114Y-85832158D01*
X131166500Y-85884500D01*
X131166500Y-87113984D01*
X131146498Y-87182105D01*
X131092842Y-87228598D01*
X131022568Y-87238702D01*
X130966439Y-87215920D01*
X130962094Y-87212763D01*
X130962093Y-87212762D01*
X130956752Y-87208882D01*
X130950724Y-87206198D01*
X130950722Y-87206197D01*
X130788319Y-87133891D01*
X130788318Y-87133891D01*
X130782288Y-87131206D01*
X130688888Y-87111353D01*
X130601944Y-87092872D01*
X130601939Y-87092872D01*
X130595487Y-87091500D01*
X130404513Y-87091500D01*
X130398061Y-87092872D01*
X130398056Y-87092872D01*
X130311112Y-87111353D01*
X130217712Y-87131206D01*
X130211682Y-87133891D01*
X130211681Y-87133891D01*
X130049278Y-87206197D01*
X130049276Y-87206198D01*
X130043248Y-87208882D01*
X130037909Y-87212761D01*
X130037902Y-87212765D01*
X130031472Y-87217437D01*
X129958668Y-87241092D01*
X129958680Y-87241316D01*
X129957839Y-87241362D01*
X129957413Y-87241500D01*
X129951866Y-87241500D01*
X129889684Y-87248255D01*
X129753295Y-87299385D01*
X129636739Y-87386739D01*
X129549385Y-87503295D01*
X129498255Y-87639684D01*
X129491500Y-87701866D01*
X129491500Y-89298134D01*
X129498255Y-89360316D01*
X129549385Y-89496705D01*
X129636739Y-89613261D01*
X129753295Y-89700615D01*
X129889684Y-89751745D01*
X129951866Y-89758500D01*
X131040500Y-89758500D01*
X131108621Y-89778502D01*
X131155114Y-89832158D01*
X131166500Y-89884500D01*
X131166500Y-90665500D01*
X131146498Y-90733621D01*
X131092842Y-90780114D01*
X131040500Y-90791500D01*
X123079594Y-90791500D01*
X123011473Y-90771498D01*
X122990499Y-90754595D01*
X121985475Y-89749571D01*
X126495250Y-89749571D01*
X128504750Y-89749571D01*
X128504750Y-87250428D01*
X126495250Y-87250428D01*
X126495250Y-89749571D01*
X121985475Y-89749571D01*
X119851218Y-87615313D01*
X119817192Y-87553001D01*
X119819755Y-87489589D01*
X119830865Y-87453022D01*
X119832370Y-87448069D01*
X119861529Y-87226590D01*
X119863156Y-87160000D01*
X119844852Y-86937361D01*
X119790431Y-86720702D01*
X119701354Y-86515840D01*
X119651797Y-86439236D01*
X119582822Y-86332617D01*
X119582820Y-86332614D01*
X119580014Y-86328277D01*
X119429670Y-86163051D01*
X119425619Y-86159852D01*
X119425615Y-86159848D01*
X119258414Y-86027800D01*
X119258410Y-86027798D01*
X119254359Y-86024598D01*
X119213053Y-86001796D01*
X119163084Y-85951364D01*
X119148312Y-85881921D01*
X119173428Y-85815516D01*
X119200780Y-85788909D01*
X119256771Y-85748971D01*
X119379860Y-85661173D01*
X119397176Y-85643918D01*
X119510262Y-85531226D01*
X119538096Y-85503489D01*
X119549013Y-85488297D01*
X119668453Y-85322077D01*
X119669776Y-85323028D01*
X119716645Y-85279857D01*
X119786580Y-85267625D01*
X119852026Y-85295144D01*
X119879875Y-85326994D01*
X119939987Y-85425088D01*
X120086250Y-85593938D01*
X120258126Y-85736632D01*
X120451000Y-85849338D01*
X120659692Y-85929030D01*
X120664760Y-85930061D01*
X120664763Y-85930062D01*
X120769466Y-85951364D01*
X120878597Y-85973567D01*
X120883772Y-85973757D01*
X120883774Y-85973757D01*
X121096673Y-85981564D01*
X121096677Y-85981564D01*
X121101837Y-85981753D01*
X121106957Y-85981097D01*
X121106959Y-85981097D01*
X121318288Y-85954025D01*
X121318289Y-85954025D01*
X121323416Y-85953368D01*
X121330096Y-85951364D01*
X121532429Y-85890661D01*
X121532434Y-85890659D01*
X121537384Y-85889174D01*
X121737994Y-85790896D01*
X121919860Y-85661173D01*
X121937176Y-85643918D01*
X122050262Y-85531226D01*
X122078096Y-85503489D01*
X122089013Y-85488297D01*
X122205435Y-85326277D01*
X122208453Y-85322077D01*
X122218608Y-85301531D01*
X122305136Y-85126453D01*
X122305137Y-85126451D01*
X122307430Y-85121811D01*
X122372370Y-84908069D01*
X122401529Y-84686590D01*
X122403156Y-84620000D01*
X122384852Y-84397361D01*
X122376616Y-84364570D01*
X122344119Y-84235195D01*
X122346923Y-84164254D01*
X122387636Y-84106091D01*
X122453331Y-84079172D01*
X122466323Y-84078500D01*
X124630405Y-84078500D01*
X124698526Y-84098502D01*
X124719501Y-84115405D01*
X125552879Y-84948784D01*
X125586904Y-85011096D01*
X125589093Y-85024709D01*
X125600689Y-85135035D01*
X125606458Y-85189928D01*
X125665473Y-85371556D01*
X125668776Y-85377278D01*
X125668777Y-85377279D01*
X125689797Y-85413686D01*
X125760960Y-85536944D01*
X125765378Y-85541851D01*
X125765379Y-85541852D01*
X125882033Y-85671409D01*
X125888747Y-85678866D01*
X125923023Y-85703769D01*
X126025884Y-85778502D01*
X126043248Y-85791118D01*
X126049276Y-85793802D01*
X126049278Y-85793803D01*
X126178152Y-85851181D01*
X126217712Y-85868794D01*
X126291603Y-85884500D01*
X126398056Y-85907128D01*
X126398061Y-85907128D01*
X126404513Y-85908500D01*
X126595487Y-85908500D01*
X126601939Y-85907128D01*
X126601944Y-85907128D01*
X126708397Y-85884500D01*
X126782288Y-85868794D01*
X126821848Y-85851181D01*
X126950722Y-85793803D01*
X126950724Y-85793802D01*
X126956752Y-85791118D01*
X126980816Y-85773634D01*
X127047682Y-85749777D01*
X127054876Y-85749571D01*
X128504750Y-85749571D01*
X128504750Y-83250428D01*
X128115205Y-83250428D01*
X128047084Y-83230426D01*
X128000591Y-83176770D01*
X127989895Y-83111258D01*
X127997200Y-83041755D01*
X127997890Y-83035190D01*
X127994358Y-83001584D01*
X127978618Y-82851825D01*
X127978618Y-82851823D01*
X127977928Y-82845262D01*
X127918913Y-82663634D01*
X127912630Y-82652751D01*
X127837866Y-82523256D01*
X127821128Y-82454260D01*
X127837866Y-82397256D01*
X127869757Y-82342019D01*
X127869758Y-82342018D01*
X127873061Y-82336296D01*
X127932076Y-82154668D01*
X127952038Y-81964740D01*
X127932076Y-81774812D01*
X127873061Y-81593184D01*
X127777574Y-81427796D01*
X127762789Y-81411375D01*
X127654209Y-81290785D01*
X127654208Y-81290784D01*
X127649787Y-81285874D01*
X127495286Y-81173622D01*
X127489258Y-81170938D01*
X127489256Y-81170937D01*
X127326853Y-81098631D01*
X127326852Y-81098631D01*
X127320822Y-81095946D01*
X127227421Y-81076093D01*
X127140478Y-81057612D01*
X127140473Y-81057612D01*
X127134021Y-81056240D01*
X127078129Y-81056240D01*
X127010008Y-81036238D01*
X126989034Y-81019335D01*
X123867834Y-77898134D01*
X127641500Y-77898134D01*
X127648255Y-77960316D01*
X127699385Y-78096705D01*
X127786739Y-78213261D01*
X127903295Y-78300615D01*
X128039684Y-78351745D01*
X128101866Y-78358500D01*
X129898134Y-78358500D01*
X129960316Y-78351745D01*
X130096705Y-78300615D01*
X130213261Y-78213261D01*
X130300615Y-78096705D01*
X130351745Y-77960316D01*
X130358500Y-77898134D01*
X130358500Y-76101866D01*
X130351745Y-76039684D01*
X130300615Y-75903295D01*
X130213261Y-75786739D01*
X130096705Y-75699385D01*
X129960316Y-75648255D01*
X129898134Y-75641500D01*
X128101866Y-75641500D01*
X128039684Y-75648255D01*
X127903295Y-75699385D01*
X127786739Y-75786739D01*
X127699385Y-75903295D01*
X127648255Y-76039684D01*
X127641500Y-76101866D01*
X127641500Y-77898134D01*
X123867834Y-77898134D01*
X123244201Y-77274501D01*
X123210175Y-77212189D01*
X123207296Y-77185406D01*
X123207296Y-76950862D01*
X123207823Y-76939679D01*
X123209498Y-76932186D01*
X123207358Y-76864095D01*
X123207296Y-76860138D01*
X123207296Y-76832239D01*
X123206792Y-76828248D01*
X123205859Y-76816406D01*
X123204719Y-76780131D01*
X123204470Y-76772206D01*
X123202258Y-76764592D01*
X123202257Y-76764587D01*
X123198819Y-76752754D01*
X123194808Y-76733390D01*
X123193263Y-76721159D01*
X123192270Y-76713298D01*
X123189353Y-76705931D01*
X123189352Y-76705926D01*
X123175994Y-76672187D01*
X123172150Y-76660960D01*
X123162026Y-76626117D01*
X123159814Y-76618502D01*
X123149503Y-76601067D01*
X123140808Y-76583319D01*
X123133348Y-76564478D01*
X123107360Y-76528708D01*
X123100844Y-76518788D01*
X123082376Y-76487560D01*
X123082374Y-76487557D01*
X123078338Y-76480733D01*
X123064017Y-76466412D01*
X123051176Y-76451378D01*
X123043927Y-76441401D01*
X123039268Y-76434988D01*
X123033164Y-76429938D01*
X123033159Y-76429933D01*
X123005198Y-76406802D01*
X122996417Y-76398812D01*
X122030348Y-75432742D01*
X122022814Y-75424463D01*
X122018701Y-75417982D01*
X121969049Y-75371356D01*
X121966208Y-75368602D01*
X121946471Y-75348865D01*
X121943274Y-75346385D01*
X121934252Y-75338680D01*
X121920823Y-75326069D01*
X121902022Y-75308414D01*
X121895076Y-75304595D01*
X121895073Y-75304593D01*
X121884267Y-75298652D01*
X121867748Y-75287801D01*
X121867284Y-75287441D01*
X121851742Y-75275386D01*
X121844473Y-75272241D01*
X121844469Y-75272238D01*
X121811164Y-75257826D01*
X121800514Y-75252609D01*
X121761761Y-75231305D01*
X121742138Y-75226267D01*
X121723435Y-75219863D01*
X121712121Y-75214967D01*
X121712120Y-75214967D01*
X121704846Y-75211819D01*
X121697023Y-75210580D01*
X121697013Y-75210577D01*
X121661177Y-75204901D01*
X121649557Y-75202495D01*
X121614412Y-75193472D01*
X121614411Y-75193472D01*
X121606731Y-75191500D01*
X121586477Y-75191500D01*
X121566766Y-75189949D01*
X121554587Y-75188020D01*
X121546758Y-75186780D01*
X121517487Y-75189547D01*
X121502740Y-75190941D01*
X121490882Y-75191500D01*
X119753767Y-75191500D01*
X119742584Y-75190973D01*
X119735091Y-75189298D01*
X119727165Y-75189547D01*
X119727164Y-75189547D01*
X119667001Y-75191438D01*
X119663043Y-75191500D01*
X119635144Y-75191500D01*
X119631154Y-75192004D01*
X119619320Y-75192936D01*
X119575111Y-75194326D01*
X119567497Y-75196538D01*
X119567492Y-75196539D01*
X119555659Y-75199977D01*
X119536296Y-75203988D01*
X119516203Y-75206526D01*
X119508836Y-75209443D01*
X119508831Y-75209444D01*
X119475092Y-75222802D01*
X119463865Y-75226646D01*
X119421407Y-75238982D01*
X119414581Y-75243019D01*
X119403972Y-75249293D01*
X119386224Y-75257988D01*
X119367383Y-75265448D01*
X119360967Y-75270110D01*
X119360966Y-75270110D01*
X119331613Y-75291436D01*
X119321693Y-75297952D01*
X119290465Y-75316420D01*
X119290462Y-75316422D01*
X119283638Y-75320458D01*
X119269317Y-75334779D01*
X119254284Y-75347619D01*
X119237893Y-75359528D01*
X119229217Y-75370016D01*
X119209702Y-75393605D01*
X119201712Y-75402384D01*
X118999501Y-75604595D01*
X118937189Y-75638621D01*
X118910406Y-75641500D01*
X117601866Y-75641500D01*
X117539684Y-75648255D01*
X117403295Y-75699385D01*
X117286739Y-75786739D01*
X117281358Y-75793919D01*
X117281357Y-75793920D01*
X117235326Y-75855339D01*
X117178467Y-75897854D01*
X117107648Y-75902880D01*
X117045355Y-75868820D01*
X117011365Y-75806489D01*
X117008500Y-75779774D01*
X117008500Y-73500000D01*
X127586496Y-73500000D01*
X127606458Y-73689928D01*
X127665473Y-73871556D01*
X127760960Y-74036944D01*
X127888747Y-74178866D01*
X128043248Y-74291118D01*
X128049276Y-74293802D01*
X128049278Y-74293803D01*
X128211681Y-74366109D01*
X128217712Y-74368794D01*
X128311113Y-74388647D01*
X128398056Y-74407128D01*
X128398061Y-74407128D01*
X128404513Y-74408500D01*
X128595487Y-74408500D01*
X128601939Y-74407128D01*
X128601944Y-74407128D01*
X128688887Y-74388647D01*
X128782288Y-74368794D01*
X128788319Y-74366109D01*
X128950722Y-74293803D01*
X128950724Y-74293802D01*
X128956752Y-74291118D01*
X129111253Y-74178866D01*
X129115668Y-74173963D01*
X129120580Y-74169540D01*
X129121705Y-74170789D01*
X129175014Y-74137949D01*
X129208200Y-74133500D01*
X129685406Y-74133500D01*
X129753527Y-74153502D01*
X129774501Y-74170405D01*
X131329595Y-75725500D01*
X131363621Y-75787812D01*
X131366500Y-75814595D01*
X131366500Y-77297476D01*
X131346498Y-77365597D01*
X131334142Y-77381779D01*
X131260960Y-77463056D01*
X131230354Y-77516067D01*
X131188724Y-77588173D01*
X131165473Y-77628444D01*
X131106458Y-77810072D01*
X131105768Y-77816633D01*
X131105768Y-77816635D01*
X131089093Y-77975293D01*
X131062080Y-78040950D01*
X131052878Y-78051218D01*
X129607747Y-79496348D01*
X129599461Y-79503888D01*
X129592982Y-79508000D01*
X129587557Y-79513777D01*
X129546357Y-79557651D01*
X129543602Y-79560493D01*
X129523865Y-79580230D01*
X129521385Y-79583427D01*
X129513682Y-79592447D01*
X129483414Y-79624679D01*
X129479595Y-79631625D01*
X129479593Y-79631628D01*
X129473652Y-79642434D01*
X129462801Y-79658953D01*
X129450386Y-79674959D01*
X129447241Y-79682228D01*
X129447238Y-79682232D01*
X129432826Y-79715537D01*
X129427609Y-79726187D01*
X129406305Y-79764940D01*
X129404334Y-79772615D01*
X129404334Y-79772616D01*
X129401267Y-79784562D01*
X129394863Y-79803266D01*
X129386819Y-79821855D01*
X129385580Y-79829678D01*
X129385577Y-79829688D01*
X129379901Y-79865524D01*
X129377495Y-79877144D01*
X129366500Y-79919970D01*
X129366500Y-79940224D01*
X129364949Y-79959934D01*
X129361780Y-79979943D01*
X129362526Y-79987835D01*
X129365941Y-80023961D01*
X129366500Y-80035819D01*
X129366500Y-80797476D01*
X129346498Y-80865597D01*
X129334142Y-80881779D01*
X129260960Y-80963056D01*
X129257659Y-80968774D01*
X129182686Y-81098631D01*
X129165473Y-81128444D01*
X129106458Y-81310072D01*
X129086496Y-81500000D01*
X129106458Y-81689928D01*
X129165473Y-81871556D01*
X129260960Y-82036944D01*
X129265378Y-82041851D01*
X129265379Y-82041852D01*
X129361050Y-82148105D01*
X129388747Y-82178866D01*
X129543248Y-82291118D01*
X129549276Y-82293802D01*
X129549278Y-82293803D01*
X129657574Y-82342019D01*
X129717712Y-82368794D01*
X129811113Y-82388647D01*
X129898056Y-82407128D01*
X129898061Y-82407128D01*
X129904513Y-82408500D01*
X130095487Y-82408500D01*
X130101939Y-82407128D01*
X130101944Y-82407128D01*
X130188887Y-82388647D01*
X130282288Y-82368794D01*
X130342426Y-82342019D01*
X130450722Y-82293803D01*
X130450724Y-82293802D01*
X130456752Y-82291118D01*
X130611253Y-82178866D01*
X130638950Y-82148105D01*
X130734621Y-82041852D01*
X130734622Y-82041851D01*
X130739040Y-82036944D01*
X130834527Y-81871556D01*
X130893542Y-81689928D01*
X130913504Y-81500000D01*
X130893542Y-81310072D01*
X130834527Y-81128444D01*
X130817315Y-81098631D01*
X130742341Y-80968774D01*
X130739040Y-80963056D01*
X130665863Y-80881785D01*
X130635147Y-80817779D01*
X130633500Y-80797476D01*
X130633500Y-80314594D01*
X130653502Y-80246473D01*
X130670405Y-80225499D01*
X131950500Y-78945405D01*
X132012812Y-78911379D01*
X132039595Y-78908500D01*
X132095487Y-78908500D01*
X132101939Y-78907128D01*
X132101944Y-78907128D01*
X132188888Y-78888647D01*
X132282288Y-78868794D01*
X132296647Y-78862401D01*
X132450722Y-78793803D01*
X132450724Y-78793802D01*
X132456752Y-78791118D01*
X132611253Y-78678866D01*
X132739040Y-78536944D01*
X132825895Y-78386507D01*
X132831223Y-78377279D01*
X132831224Y-78377278D01*
X132834527Y-78371556D01*
X132893542Y-78189928D01*
X132902030Y-78109174D01*
X132912814Y-78006565D01*
X132913504Y-78000000D01*
X132902798Y-77898134D01*
X132894232Y-77816635D01*
X132894232Y-77816633D01*
X132893542Y-77810072D01*
X132834527Y-77628444D01*
X132811277Y-77588173D01*
X132769646Y-77516067D01*
X132739040Y-77463056D01*
X132665863Y-77381785D01*
X132635147Y-77317779D01*
X132633500Y-77297476D01*
X132633500Y-76215511D01*
X132653502Y-76147390D01*
X132707158Y-76100897D01*
X132724337Y-76094517D01*
X132753593Y-76086018D01*
X132760412Y-76081985D01*
X132760417Y-76081983D01*
X132771028Y-76075707D01*
X132788776Y-76067012D01*
X132807617Y-76059552D01*
X132824151Y-76047540D01*
X132843387Y-76033564D01*
X132853307Y-76027048D01*
X132884535Y-76008580D01*
X132884538Y-76008578D01*
X132891362Y-76004542D01*
X132905683Y-75990221D01*
X132920717Y-75977380D01*
X132930694Y-75970131D01*
X132937107Y-75965472D01*
X132965298Y-75931395D01*
X132973288Y-75922616D01*
X134450500Y-74445405D01*
X134512812Y-74411379D01*
X134539595Y-74408500D01*
X134595487Y-74408500D01*
X134601939Y-74407128D01*
X134601944Y-74407128D01*
X134688887Y-74388647D01*
X134782288Y-74368794D01*
X134788319Y-74366109D01*
X134950722Y-74293803D01*
X134950724Y-74293802D01*
X134956752Y-74291118D01*
X135111253Y-74178866D01*
X135239040Y-74036944D01*
X135334527Y-73871556D01*
X135393542Y-73689928D01*
X135413504Y-73500000D01*
X135393542Y-73310072D01*
X135334527Y-73128444D01*
X135239040Y-72963056D01*
X135224798Y-72947238D01*
X135115675Y-72826045D01*
X135115674Y-72826044D01*
X135111253Y-72821134D01*
X135012157Y-72749136D01*
X134962094Y-72712763D01*
X134962093Y-72712762D01*
X134956752Y-72708882D01*
X134950724Y-72706198D01*
X134950722Y-72706197D01*
X134788319Y-72633891D01*
X134788318Y-72633891D01*
X134782288Y-72631206D01*
X134663309Y-72605916D01*
X134601944Y-72592872D01*
X134601939Y-72592872D01*
X134595487Y-72591500D01*
X134404513Y-72591500D01*
X134398061Y-72592872D01*
X134398056Y-72592872D01*
X134336691Y-72605916D01*
X134217712Y-72631206D01*
X134211682Y-72633891D01*
X134211681Y-72633891D01*
X134049278Y-72706197D01*
X134049276Y-72706198D01*
X134043248Y-72708882D01*
X134037907Y-72712762D01*
X134037906Y-72712763D01*
X133987843Y-72749136D01*
X133888747Y-72821134D01*
X133884326Y-72826044D01*
X133884325Y-72826045D01*
X133775203Y-72947238D01*
X133760960Y-72963056D01*
X133665473Y-73128444D01*
X133606458Y-73310072D01*
X133605768Y-73316633D01*
X133605768Y-73316635D01*
X133589093Y-73475293D01*
X133562080Y-73540950D01*
X133552878Y-73551218D01*
X132339095Y-74765000D01*
X132276783Y-74799026D01*
X132205967Y-74793961D01*
X132160905Y-74765000D01*
X130503652Y-73107747D01*
X130496112Y-73099461D01*
X130492000Y-73092982D01*
X130442348Y-73046356D01*
X130439507Y-73043602D01*
X130419770Y-73023865D01*
X130416573Y-73021385D01*
X130407551Y-73013680D01*
X130381100Y-72988841D01*
X130375321Y-72983414D01*
X130368375Y-72979595D01*
X130368372Y-72979593D01*
X130357566Y-72973652D01*
X130341047Y-72962801D01*
X130339951Y-72961951D01*
X130325041Y-72950386D01*
X130317772Y-72947241D01*
X130317768Y-72947238D01*
X130284463Y-72932826D01*
X130273813Y-72927609D01*
X130235060Y-72906305D01*
X130215437Y-72901267D01*
X130196734Y-72894863D01*
X130185420Y-72889967D01*
X130185419Y-72889967D01*
X130178145Y-72886819D01*
X130170322Y-72885580D01*
X130170312Y-72885577D01*
X130134476Y-72879901D01*
X130122856Y-72877495D01*
X130087711Y-72868472D01*
X130087710Y-72868472D01*
X130080030Y-72866500D01*
X130059776Y-72866500D01*
X130040065Y-72864949D01*
X130027886Y-72863020D01*
X130020057Y-72861780D01*
X130012165Y-72862526D01*
X129976039Y-72865941D01*
X129964181Y-72866500D01*
X129208200Y-72866500D01*
X129140079Y-72846498D01*
X129120853Y-72830157D01*
X129120580Y-72830460D01*
X129115668Y-72826037D01*
X129111253Y-72821134D01*
X129034014Y-72765016D01*
X128962094Y-72712763D01*
X128962093Y-72712762D01*
X128956752Y-72708882D01*
X128950724Y-72706198D01*
X128950722Y-72706197D01*
X128788319Y-72633891D01*
X128788318Y-72633891D01*
X128782288Y-72631206D01*
X128663309Y-72605916D01*
X128601944Y-72592872D01*
X128601939Y-72592872D01*
X128595487Y-72591500D01*
X128404513Y-72591500D01*
X128398061Y-72592872D01*
X128398056Y-72592872D01*
X128336691Y-72605916D01*
X128217712Y-72631206D01*
X128211682Y-72633891D01*
X128211681Y-72633891D01*
X128049278Y-72706197D01*
X128049276Y-72706198D01*
X128043248Y-72708882D01*
X128037907Y-72712762D01*
X128037906Y-72712763D01*
X127987843Y-72749136D01*
X127888747Y-72821134D01*
X127884326Y-72826044D01*
X127884325Y-72826045D01*
X127775203Y-72947238D01*
X127760960Y-72963056D01*
X127665473Y-73128444D01*
X127606458Y-73310072D01*
X127586496Y-73500000D01*
X117008500Y-73500000D01*
X117008500Y-72800292D01*
X117028502Y-72732171D01*
X117082158Y-72685678D01*
X117152432Y-72675574D01*
X117217012Y-72705068D01*
X117228499Y-72716386D01*
X117275018Y-72768506D01*
X117475970Y-72935637D01*
X117479973Y-72938066D01*
X117695422Y-73068804D01*
X117695426Y-73068806D01*
X117699419Y-73071229D01*
X117940455Y-73172303D01*
X118193783Y-73236641D01*
X118198434Y-73237109D01*
X118198438Y-73237110D01*
X118391308Y-73256531D01*
X118410867Y-73258500D01*
X118566354Y-73258500D01*
X118568679Y-73258327D01*
X118568685Y-73258327D01*
X118756000Y-73244407D01*
X118756004Y-73244406D01*
X118760652Y-73244061D01*
X118765200Y-73243032D01*
X118765206Y-73243031D01*
X118951601Y-73200853D01*
X119015577Y-73186377D01*
X119051769Y-73172303D01*
X119254824Y-73093340D01*
X119254827Y-73093339D01*
X119259177Y-73091647D01*
X119486098Y-72961951D01*
X119691357Y-72800138D01*
X119870443Y-72609763D01*
X120019424Y-72395009D01*
X120135025Y-72160593D01*
X120214707Y-71911665D01*
X120256721Y-71653693D01*
X120260142Y-71392345D01*
X120224896Y-71133362D01*
X120210473Y-71083877D01*
X120153068Y-70886932D01*
X120151757Y-70882433D01*
X120042332Y-70645072D01*
X119989663Y-70564739D01*
X119901590Y-70430404D01*
X119901586Y-70430399D01*
X119899024Y-70426491D01*
X119724982Y-70231494D01*
X119721389Y-70228506D01*
X119718022Y-70225254D01*
X119719600Y-70223620D01*
X119685218Y-70172320D01*
X119683851Y-70101337D01*
X119721077Y-70040882D01*
X119785078Y-70010151D01*
X119805408Y-70008500D01*
X138197141Y-70008500D01*
X138265262Y-70028502D01*
G37*
%TD.AperFunction*%
%TD*%
M02*
