%TF.GenerationSoftware,KiCad,Pcbnew,(6.0.1)*%
%TF.CreationDate,2022-04-14T00:08:53-05:00*%
%TF.ProjectId,THB001P,54484230-3031-4502-9e6b-696361645f70,rev?*%
%TF.SameCoordinates,Original*%
%TF.FileFunction,Legend,Top*%
%TF.FilePolarity,Positive*%
%FSLAX46Y46*%
G04 Gerber Fmt 4.6, Leading zero omitted, Abs format (unit mm)*
G04 Created by KiCad (PCBNEW (6.0.1)) date 2022-04-14 00:08:53*
%MOMM*%
%LPD*%
G01*
G04 APERTURE LIST*
%ADD10C,0.300000*%
%ADD11C,0.150000*%
%ADD12C,0.120000*%
G04 APERTURE END LIST*
D10*
X114427142Y-123710000D02*
X114284285Y-123638571D01*
X114070000Y-123638571D01*
X113855714Y-123710000D01*
X113712857Y-123852857D01*
X113641428Y-123995714D01*
X113570000Y-124281428D01*
X113570000Y-124495714D01*
X113641428Y-124781428D01*
X113712857Y-124924285D01*
X113855714Y-125067142D01*
X114070000Y-125138571D01*
X114212857Y-125138571D01*
X114427142Y-125067142D01*
X114498571Y-124995714D01*
X114498571Y-124495714D01*
X114212857Y-124495714D01*
X115141428Y-125138571D02*
X115141428Y-123638571D01*
X115998571Y-125138571D01*
X115998571Y-123638571D01*
X116712857Y-125138571D02*
X116712857Y-123638571D01*
X117070000Y-123638571D01*
X117284285Y-123710000D01*
X117427142Y-123852857D01*
X117498571Y-123995714D01*
X117570000Y-124281428D01*
X117570000Y-124495714D01*
X117498571Y-124781428D01*
X117427142Y-124924285D01*
X117284285Y-125067142D01*
X117070000Y-125138571D01*
X116712857Y-125138571D01*
X108398571Y-122435714D02*
X108398571Y-121507142D01*
X108970000Y-122007142D01*
X108970000Y-121792857D01*
X109041428Y-121650000D01*
X109112857Y-121578571D01*
X109255714Y-121507142D01*
X109612857Y-121507142D01*
X109755714Y-121578571D01*
X109827142Y-121650000D01*
X109898571Y-121792857D01*
X109898571Y-122221428D01*
X109827142Y-122364285D01*
X109755714Y-122435714D01*
X108898571Y-121007142D02*
X109898571Y-120650000D01*
X108898571Y-120292857D01*
X108398571Y-119864285D02*
X108398571Y-118935714D01*
X108970000Y-119435714D01*
X108970000Y-119221428D01*
X109041428Y-119078571D01*
X109112857Y-119007142D01*
X109255714Y-118935714D01*
X109612857Y-118935714D01*
X109755714Y-119007142D01*
X109827142Y-119078571D01*
X109898571Y-119221428D01*
X109898571Y-119650000D01*
X109827142Y-119792857D01*
X109755714Y-119864285D01*
X106644285Y-121920000D02*
X107358571Y-121920000D01*
X105858571Y-122420000D02*
X106644285Y-121920000D01*
X105858571Y-121420000D01*
X103318571Y-122420000D02*
X104818571Y-121420000D01*
X103318571Y-121420000D02*
X104818571Y-122420000D01*
X101492857Y-121900000D02*
X101564285Y-121685714D01*
X101635714Y-121614285D01*
X101778571Y-121542857D01*
X101992857Y-121542857D01*
X102135714Y-121614285D01*
X102207142Y-121685714D01*
X102278571Y-121828571D01*
X102278571Y-122400000D01*
X100778571Y-122400000D01*
X100778571Y-121900000D01*
X100850000Y-121757142D01*
X100921428Y-121685714D01*
X101064285Y-121614285D01*
X101207142Y-121614285D01*
X101350000Y-121685714D01*
X101421428Y-121757142D01*
X101492857Y-121900000D01*
X101492857Y-122400000D01*
X100778571Y-121114285D02*
X100778571Y-120257142D01*
X102278571Y-120685714D02*
X100778571Y-120685714D01*
X102278571Y-119757142D02*
X100778571Y-119757142D01*
X102278571Y-118900000D01*
X100778571Y-118900000D01*
D11*
%TO.C,U1*%
X108458095Y-109020236D02*
X108458095Y-109829760D01*
X108505714Y-109924998D01*
X108553333Y-109972617D01*
X108648571Y-110020236D01*
X108839047Y-110020236D01*
X108934285Y-109972617D01*
X108981904Y-109924998D01*
X109029523Y-109829760D01*
X109029523Y-109020236D01*
X110029523Y-110020236D02*
X109458095Y-110020236D01*
X109743809Y-110020236D02*
X109743809Y-109020236D01*
X109648571Y-109163094D01*
X109553333Y-109258332D01*
X109458095Y-109305951D01*
D12*
%TO.C,J1*%
X110485000Y-125790000D02*
X100265000Y-125790000D01*
X113085000Y-123130000D02*
X113085000Y-124460000D01*
X110485000Y-123130000D02*
X100265000Y-123130000D01*
X100265000Y-123130000D02*
X100265000Y-125790000D01*
X110485000Y-123130000D02*
X110485000Y-125790000D01*
X111755000Y-123130000D02*
X113085000Y-123130000D01*
%TD*%
M02*
