M48
; DRILL file {KiCad (6.0.7)} date Mon Oct 24 21:44:17 2022
; FORMAT={-:-/ absolute / inch / decimal}
; #@! TF.CreationDate,2022-10-24T21:44:17-05:00
; #@! TF.GenerationSoftware,Kicad,Pcbnew,(6.0.7)
; #@! TF.FileFunction,NonPlated,1,2,NPTH
FMAT,2
INCH
; #@! TA.AperFunction,NonPlated,NPTH,ComponentDrill
T1C0.0984
%
G90
G05
T1
X0.9843Y-0.9843
X0.9843Y-2.0685
X0.9843Y-3.1528
X0.9843Y-4.237
X0.985Y-1.811
X0.985Y-2.8953
X0.985Y-3.9795
X0.985Y-5.0638
X1.811Y-0.9843
X1.811Y-1.811
X1.811Y-2.0685
X1.811Y-2.8953
X1.811Y-3.1528
X1.811Y-3.9795
X1.811Y-4.237
X1.811Y-5.0638
X2.0685Y-0.9843
X2.0685Y-2.0685
X2.0685Y-3.1528
X2.0685Y-4.237
X2.0693Y-1.811
X2.0693Y-2.8953
X2.0693Y-3.9795
X2.0693Y-5.0638
X2.8953Y-0.9843
X2.8953Y-1.811
X2.8953Y-2.0685
X2.8953Y-2.8953
X2.8953Y-3.1528
X2.8953Y-3.9795
X2.8953Y-4.237
X2.8953Y-5.0638
X3.1528Y-0.9843
X3.1528Y-2.0685
X3.1528Y-3.1528
X3.1528Y-4.237
X3.1535Y-1.811
X3.1535Y-2.8953
X3.1535Y-3.9795
X3.1535Y-5.0638
X3.9795Y-0.9843
X3.9795Y-1.811
X3.9795Y-2.0685
X3.9795Y-2.8953
X3.9795Y-3.1528
X3.9795Y-3.9795
X3.9795Y-4.237
X3.9795Y-5.0638
X4.237Y-0.9843
X4.237Y-2.0685
X4.237Y-3.1528
X4.237Y-4.237
X4.2378Y-1.811
X4.2378Y-2.8953
X4.2378Y-3.9795
X4.2378Y-5.0638
X5.0638Y-0.9843
X5.0638Y-1.811
X5.0638Y-2.0685
X5.0638Y-2.8953
X5.0638Y-3.1528
X5.0638Y-3.9795
X5.0638Y-4.237
X5.0638Y-5.0638
T0
M30
