%TF.GenerationSoftware,KiCad,Pcbnew,(6.0.7)*%
%TF.CreationDate,2022-10-24T21:44:15-05:00*%
%TF.ProjectId,Panelized,50616e65-6c69-47a6-9564-2e6b69636164,4*%
%TF.SameCoordinates,Original*%
%TF.FileFunction,Soldermask,Bot*%
%TF.FilePolarity,Negative*%
%FSLAX46Y46*%
G04 Gerber Fmt 4.6, Leading zero omitted, Abs format (unit mm)*
G04 Created by KiCad (PCBNEW (6.0.7)) date 2022-10-24 21:44:15*
%MOMM*%
%LPD*%
G01*
G04 APERTURE LIST*
%ADD10R,1.000000X1.000000*%
%ADD11C,1.000000*%
%ADD12C,2.500000*%
%ADD13R,1.700000X1.700000*%
%ADD14O,1.700000X1.700000*%
G04 APERTURE END LIST*
D10*
%TO.C,TP4*%
X94580000Y-90580000D03*
%TD*%
%TO.C,TP3*%
X31500000Y-59040000D03*
%TD*%
%TO.C,TP6*%
X114120000Y-63040000D03*
%TD*%
%TO.C,TP8*%
X35500000Y-39500000D03*
%TD*%
%TO.C,TP5*%
X35500000Y-118120000D03*
%TD*%
%TO.C,TP3*%
X114120000Y-114120000D03*
%TD*%
%TO.C,TP5*%
X35500000Y-35500000D03*
%TD*%
%TO.C,TP9*%
X31500000Y-67040000D03*
%TD*%
%TO.C,TP6*%
X114120000Y-118120000D03*
%TD*%
%TO.C,TP1*%
X39500000Y-114120000D03*
%TD*%
%TO.C,TP9*%
X114120000Y-67040000D03*
%TD*%
%TO.C,TP9*%
X59040000Y-94580000D03*
%TD*%
%TO.C,TP6*%
X59040000Y-90580000D03*
%TD*%
%TO.C,TP9*%
X114120000Y-94580000D03*
%TD*%
%TO.C,TP3*%
X86580000Y-31500000D03*
%TD*%
%TO.C,TP4*%
X39500000Y-90580000D03*
%TD*%
%TO.C,TP5*%
X63040000Y-35500000D03*
%TD*%
%TO.C,TP9*%
X86580000Y-67040000D03*
%TD*%
%TO.C,TP9*%
X59040000Y-122120000D03*
%TD*%
%TO.C,TP6*%
X86580000Y-90580000D03*
%TD*%
%TO.C,TP1*%
X94580000Y-31500000D03*
%TD*%
D11*
%TO.C,REF\u002A\u002A*%
X15000000Y-15000000D03*
%TD*%
D10*
%TO.C,TP6*%
X86580000Y-35500000D03*
%TD*%
%TO.C,TP2*%
X35500000Y-86580000D03*
%TD*%
%TO.C,TP7*%
X122120000Y-122120000D03*
%TD*%
%TO.C,TP9*%
X59040000Y-67040000D03*
%TD*%
%TO.C,TP4*%
X39500000Y-35500000D03*
%TD*%
%TO.C,TP5*%
X90580000Y-90580000D03*
%TD*%
%TO.C,TP2*%
X90580000Y-59040000D03*
%TD*%
%TO.C,TP4*%
X122120000Y-35500000D03*
%TD*%
%TO.C,TP3*%
X86580000Y-86580000D03*
%TD*%
%TO.C,TP5*%
X90580000Y-63040000D03*
%TD*%
%TO.C,TP6*%
X114120000Y-90580000D03*
%TD*%
%TO.C,TP3*%
X86580000Y-114120000D03*
%TD*%
%TO.C,TP2*%
X35500000Y-59040000D03*
%TD*%
%TO.C,TP8*%
X90580000Y-39500000D03*
%TD*%
%TO.C,TP8*%
X63040000Y-39500000D03*
%TD*%
%TO.C,TP8*%
X63040000Y-122120000D03*
%TD*%
%TO.C,TP4*%
X122120000Y-90580000D03*
%TD*%
%TO.C,TP1*%
X94580000Y-86580000D03*
%TD*%
%TO.C,TP4*%
X67040000Y-118120000D03*
%TD*%
%TO.C,TP7*%
X94580000Y-94580000D03*
%TD*%
%TO.C,TP8*%
X118120000Y-122120000D03*
%TD*%
%TO.C,TP8*%
X35500000Y-94580000D03*
%TD*%
%TO.C,TP4*%
X39500000Y-63040000D03*
%TD*%
%TO.C,TP2*%
X63040000Y-31500000D03*
%TD*%
%TO.C,TP1*%
X67040000Y-114120000D03*
%TD*%
%TO.C,TP2*%
X35500000Y-31500000D03*
%TD*%
%TO.C,TP2*%
X90580000Y-114120000D03*
%TD*%
%TO.C,TP4*%
X94580000Y-63040000D03*
%TD*%
D11*
%TO.C,REF\u002A\u002A*%
X15000000Y-138620000D03*
%TD*%
D10*
%TO.C,TP7*%
X94580000Y-39500000D03*
%TD*%
%TO.C,TP4*%
X122120000Y-118120000D03*
%TD*%
%TO.C,TP2*%
X118120000Y-31500000D03*
%TD*%
%TO.C,TP8*%
X90580000Y-122120000D03*
%TD*%
%TO.C,TP7*%
X67040000Y-39500000D03*
%TD*%
%TO.C,TP9*%
X86580000Y-39500000D03*
%TD*%
%TO.C,TP7*%
X67040000Y-122120000D03*
%TD*%
%TO.C,TP1*%
X122120000Y-31500000D03*
%TD*%
%TO.C,TP1*%
X122120000Y-59040000D03*
%TD*%
%TO.C,TP3*%
X59040000Y-114120000D03*
%TD*%
%TO.C,TP3*%
X59040000Y-31500000D03*
%TD*%
%TO.C,TP7*%
X94580000Y-67040000D03*
%TD*%
%TO.C,TP3*%
X114120000Y-86580000D03*
%TD*%
%TO.C,TP7*%
X122120000Y-94580000D03*
%TD*%
%TO.C,TP5*%
X90580000Y-35500000D03*
%TD*%
%TO.C,TP7*%
X39500000Y-67040000D03*
%TD*%
%TO.C,TP9*%
X86580000Y-94580000D03*
%TD*%
%TO.C,TP4*%
X67040000Y-90580000D03*
%TD*%
%TO.C,TP2*%
X118120000Y-86580000D03*
%TD*%
%TO.C,TP6*%
X59040000Y-118120000D03*
%TD*%
%TO.C,TP1*%
X122120000Y-114120000D03*
%TD*%
%TO.C,TP3*%
X31500000Y-31500000D03*
%TD*%
%TO.C,TP7*%
X39500000Y-122120000D03*
%TD*%
%TO.C,TP5*%
X35500000Y-63040000D03*
%TD*%
%TO.C,TP7*%
X122120000Y-67040000D03*
%TD*%
%TO.C,TP1*%
X39500000Y-31500000D03*
%TD*%
%TO.C,TP4*%
X122120000Y-63040000D03*
%TD*%
%TO.C,TP5*%
X35500000Y-90580000D03*
%TD*%
%TO.C,TP6*%
X86580000Y-118120000D03*
%TD*%
%TO.C,TP1*%
X67040000Y-59040000D03*
%TD*%
%TO.C,TP1*%
X39500000Y-86580000D03*
%TD*%
%TO.C,TP6*%
X31500000Y-63040000D03*
%TD*%
%TO.C,TP4*%
X94580000Y-118120000D03*
%TD*%
%TO.C,TP6*%
X59040000Y-35500000D03*
%TD*%
%TO.C,TP5*%
X63040000Y-90580000D03*
%TD*%
%TO.C,TP3*%
X86580000Y-59040000D03*
%TD*%
%TO.C,TP2*%
X90580000Y-31500000D03*
%TD*%
%TO.C,TP4*%
X39500000Y-118120000D03*
%TD*%
%TO.C,TP1*%
X39500000Y-59040000D03*
%TD*%
%TO.C,TP3*%
X59040000Y-86580000D03*
%TD*%
%TO.C,TP2*%
X63040000Y-86580000D03*
%TD*%
%TO.C,TP6*%
X31500000Y-118120000D03*
%TD*%
%TO.C,TP2*%
X90580000Y-86580000D03*
%TD*%
%TO.C,TP5*%
X118120000Y-118120000D03*
%TD*%
%TO.C,TP4*%
X94580000Y-35500000D03*
%TD*%
%TO.C,TP9*%
X31500000Y-39500000D03*
%TD*%
%TO.C,TP6*%
X31500000Y-35500000D03*
%TD*%
%TO.C,TP6*%
X59040000Y-63040000D03*
%TD*%
%TO.C,TP8*%
X63040000Y-67040000D03*
%TD*%
%TO.C,TP8*%
X90580000Y-94580000D03*
%TD*%
%TO.C,TP2*%
X118120000Y-114120000D03*
%TD*%
D11*
%TO.C,REF\u002A\u002A*%
X138620000Y-15000000D03*
%TD*%
D10*
%TO.C,TP3*%
X59040000Y-59040000D03*
%TD*%
%TO.C,TP1*%
X67040000Y-31500000D03*
%TD*%
%TO.C,TP8*%
X90580000Y-67040000D03*
%TD*%
%TO.C,TP1*%
X94580000Y-59040000D03*
%TD*%
%TO.C,TP9*%
X59040000Y-39500000D03*
%TD*%
%TO.C,TP5*%
X118120000Y-90580000D03*
%TD*%
%TO.C,TP9*%
X86580000Y-122120000D03*
%TD*%
%TO.C,TP1*%
X94580000Y-114120000D03*
%TD*%
%TO.C,TP9*%
X31500000Y-94580000D03*
%TD*%
%TO.C,TP6*%
X114120000Y-35500000D03*
%TD*%
%TO.C,TP6*%
X86580000Y-63040000D03*
%TD*%
%TO.C,TP7*%
X39500000Y-39500000D03*
%TD*%
%TO.C,TP3*%
X31500000Y-86580000D03*
%TD*%
%TO.C,TP7*%
X122120000Y-39500000D03*
%TD*%
%TO.C,TP8*%
X118120000Y-94580000D03*
%TD*%
%TO.C,TP7*%
X94580000Y-122120000D03*
%TD*%
%TO.C,TP5*%
X63040000Y-118120000D03*
%TD*%
%TO.C,TP9*%
X114120000Y-39500000D03*
%TD*%
%TO.C,TP8*%
X118120000Y-67040000D03*
%TD*%
%TO.C,TP4*%
X67040000Y-63040000D03*
%TD*%
%TO.C,TP1*%
X67040000Y-86580000D03*
%TD*%
%TO.C,TP5*%
X63040000Y-63040000D03*
%TD*%
%TO.C,TP3*%
X114120000Y-31500000D03*
%TD*%
%TO.C,TP7*%
X39500000Y-94580000D03*
%TD*%
%TO.C,TP2*%
X35500000Y-114120000D03*
%TD*%
%TO.C,TP1*%
X122120000Y-86580000D03*
%TD*%
%TO.C,TP3*%
X114120000Y-59040000D03*
%TD*%
%TO.C,TP4*%
X67040000Y-35500000D03*
%TD*%
%TO.C,TP9*%
X31500000Y-122120000D03*
%TD*%
%TO.C,TP7*%
X67040000Y-94580000D03*
%TD*%
%TO.C,TP2*%
X118120000Y-59040000D03*
%TD*%
%TO.C,TP5*%
X118120000Y-35500000D03*
%TD*%
%TO.C,TP8*%
X63040000Y-94580000D03*
%TD*%
%TO.C,TP8*%
X35500000Y-122120000D03*
%TD*%
%TO.C,TP9*%
X114120000Y-122120000D03*
%TD*%
%TO.C,TP8*%
X118120000Y-39500000D03*
%TD*%
%TO.C,TP8*%
X35500000Y-67040000D03*
%TD*%
%TO.C,TP2*%
X63040000Y-114120000D03*
%TD*%
%TO.C,TP5*%
X90580000Y-118120000D03*
%TD*%
%TO.C,TP5*%
X118120000Y-63040000D03*
%TD*%
%TO.C,TP2*%
X63040000Y-59040000D03*
%TD*%
%TO.C,TP6*%
X31500000Y-90580000D03*
%TD*%
%TO.C,TP7*%
X67040000Y-67040000D03*
%TD*%
%TO.C,TP3*%
X31500000Y-114120000D03*
%TD*%
D12*
%TO.C,H1*%
X107620000Y-107620000D03*
%TD*%
%TO.C,H4*%
X73540000Y-128620000D03*
%TD*%
D13*
%TO.C,J2*%
X111770000Y-128620000D03*
D14*
X114310000Y-128620000D03*
X116850000Y-128620000D03*
X119390000Y-128620000D03*
X121930000Y-128620000D03*
X124470000Y-128620000D03*
%TD*%
D12*
%TO.C,H4*%
X101080000Y-73540000D03*
%TD*%
%TO.C,H1*%
X80080000Y-107620000D03*
%TD*%
%TO.C,H4*%
X73540000Y-101080000D03*
%TD*%
%TO.C,H1*%
X80080000Y-80080000D03*
%TD*%
D13*
%TO.C,J2*%
X29150000Y-46000000D03*
D14*
X31690000Y-46000000D03*
X34230000Y-46000000D03*
X36770000Y-46000000D03*
X39310000Y-46000000D03*
X41850000Y-46000000D03*
%TD*%
D13*
%TO.C,J2*%
X29150000Y-101080000D03*
D14*
X31690000Y-101080000D03*
X34230000Y-101080000D03*
X36770000Y-101080000D03*
X39310000Y-101080000D03*
X41850000Y-101080000D03*
%TD*%
D13*
%TO.C,J2*%
X111770000Y-101080000D03*
D14*
X114310000Y-101080000D03*
X116850000Y-101080000D03*
X119390000Y-101080000D03*
X121930000Y-101080000D03*
X124470000Y-101080000D03*
%TD*%
D12*
%TO.C,H3*%
X25020000Y-46000000D03*
%TD*%
%TO.C,H1*%
X80080000Y-25000000D03*
%TD*%
%TO.C,H2*%
X73540000Y-25000000D03*
%TD*%
%TO.C,H4*%
X46000000Y-46000000D03*
%TD*%
%TO.C,H4*%
X128620000Y-101080000D03*
%TD*%
%TO.C,H1*%
X52540000Y-80080000D03*
%TD*%
%TO.C,H2*%
X101080000Y-52540000D03*
%TD*%
D13*
%TO.C,J2*%
X56690000Y-73540000D03*
D14*
X59230000Y-73540000D03*
X61770000Y-73540000D03*
X64310000Y-73540000D03*
X66850000Y-73540000D03*
X69390000Y-73540000D03*
%TD*%
D12*
%TO.C,H3*%
X107640000Y-128620000D03*
%TD*%
%TO.C,H3*%
X52560000Y-101080000D03*
%TD*%
%TO.C,H2*%
X128620000Y-107620000D03*
%TD*%
D13*
%TO.C,J2*%
X56690000Y-128620000D03*
D14*
X59230000Y-128620000D03*
X61770000Y-128620000D03*
X64310000Y-128620000D03*
X66850000Y-128620000D03*
X69390000Y-128620000D03*
%TD*%
D13*
%TO.C,J2*%
X84230000Y-101080000D03*
D14*
X86770000Y-101080000D03*
X89310000Y-101080000D03*
X91850000Y-101080000D03*
X94390000Y-101080000D03*
X96930000Y-101080000D03*
%TD*%
D12*
%TO.C,H3*%
X80100000Y-128620000D03*
%TD*%
%TO.C,H4*%
X101080000Y-46000000D03*
%TD*%
%TO.C,H2*%
X46000000Y-52540000D03*
%TD*%
D13*
%TO.C,J2*%
X29150000Y-128620000D03*
D14*
X31690000Y-128620000D03*
X34230000Y-128620000D03*
X36770000Y-128620000D03*
X39310000Y-128620000D03*
X41850000Y-128620000D03*
%TD*%
D12*
%TO.C,H2*%
X73540000Y-107620000D03*
%TD*%
%TO.C,H1*%
X107620000Y-52540000D03*
%TD*%
%TO.C,H4*%
X128620000Y-46000000D03*
%TD*%
%TO.C,H2*%
X101080000Y-25000000D03*
%TD*%
%TO.C,H1*%
X52540000Y-52540000D03*
%TD*%
%TO.C,H4*%
X46000000Y-73540000D03*
%TD*%
D13*
%TO.C,J2*%
X56690000Y-46000000D03*
D14*
X59230000Y-46000000D03*
X61770000Y-46000000D03*
X64310000Y-46000000D03*
X66850000Y-46000000D03*
X69390000Y-46000000D03*
%TD*%
D12*
%TO.C,H3*%
X80100000Y-46000000D03*
%TD*%
%TO.C,H4*%
X46000000Y-128620000D03*
%TD*%
D13*
%TO.C,J2*%
X56690000Y-101080000D03*
D14*
X59230000Y-101080000D03*
X61770000Y-101080000D03*
X64310000Y-101080000D03*
X66850000Y-101080000D03*
X69390000Y-101080000D03*
%TD*%
D12*
%TO.C,H4*%
X73540000Y-46000000D03*
%TD*%
%TO.C,H2*%
X46000000Y-25000000D03*
%TD*%
%TO.C,H1*%
X25000000Y-25000000D03*
%TD*%
%TO.C,H4*%
X73540000Y-73540000D03*
%TD*%
%TO.C,H3*%
X25020000Y-73540000D03*
%TD*%
%TO.C,H3*%
X52560000Y-73540000D03*
%TD*%
%TO.C,H1*%
X25000000Y-107620000D03*
%TD*%
%TO.C,H2*%
X101080000Y-80080000D03*
%TD*%
%TO.C,H2*%
X46000000Y-107620000D03*
%TD*%
D13*
%TO.C,J2*%
X111770000Y-46000000D03*
D14*
X114310000Y-46000000D03*
X116850000Y-46000000D03*
X119390000Y-46000000D03*
X121930000Y-46000000D03*
X124470000Y-46000000D03*
%TD*%
D12*
%TO.C,H1*%
X107620000Y-80080000D03*
%TD*%
%TO.C,H3*%
X52560000Y-128620000D03*
%TD*%
%TO.C,H4*%
X46000000Y-101080000D03*
%TD*%
%TO.C,H2*%
X46000000Y-80080000D03*
%TD*%
%TO.C,H2*%
X101080000Y-107620000D03*
%TD*%
%TO.C,H2*%
X128620000Y-25000000D03*
%TD*%
%TO.C,H3*%
X80100000Y-101080000D03*
%TD*%
%TO.C,H3*%
X107640000Y-101080000D03*
%TD*%
D13*
%TO.C,J2*%
X84230000Y-73540000D03*
D14*
X86770000Y-73540000D03*
X89310000Y-73540000D03*
X91850000Y-73540000D03*
X94390000Y-73540000D03*
X96930000Y-73540000D03*
%TD*%
D13*
%TO.C,J2*%
X111770000Y-73540000D03*
D14*
X114310000Y-73540000D03*
X116850000Y-73540000D03*
X119390000Y-73540000D03*
X121930000Y-73540000D03*
X124470000Y-73540000D03*
%TD*%
D13*
%TO.C,J2*%
X29150000Y-73540000D03*
D14*
X31690000Y-73540000D03*
X34230000Y-73540000D03*
X36770000Y-73540000D03*
X39310000Y-73540000D03*
X41850000Y-73540000D03*
%TD*%
D12*
%TO.C,H1*%
X25000000Y-80080000D03*
%TD*%
%TO.C,H3*%
X80100000Y-73540000D03*
%TD*%
%TO.C,H1*%
X52540000Y-25000000D03*
%TD*%
%TO.C,H3*%
X25020000Y-101080000D03*
%TD*%
%TO.C,H2*%
X73540000Y-52540000D03*
%TD*%
%TO.C,H4*%
X128620000Y-128620000D03*
%TD*%
%TO.C,H3*%
X107640000Y-46000000D03*
%TD*%
D13*
%TO.C,J2*%
X84230000Y-46000000D03*
D14*
X86770000Y-46000000D03*
X89310000Y-46000000D03*
X91850000Y-46000000D03*
X94390000Y-46000000D03*
X96930000Y-46000000D03*
%TD*%
D12*
%TO.C,H2*%
X128620000Y-52540000D03*
%TD*%
%TO.C,H1*%
X25000000Y-52540000D03*
%TD*%
%TO.C,H2*%
X73540000Y-80080000D03*
%TD*%
%TO.C,H4*%
X101080000Y-101080000D03*
%TD*%
%TO.C,H1*%
X80080000Y-52540000D03*
%TD*%
%TO.C,H2*%
X128620000Y-80080000D03*
%TD*%
D13*
%TO.C,J2*%
X84230000Y-128620000D03*
D14*
X86770000Y-128620000D03*
X89310000Y-128620000D03*
X91850000Y-128620000D03*
X94390000Y-128620000D03*
X96930000Y-128620000D03*
%TD*%
D12*
%TO.C,H1*%
X52540000Y-107620000D03*
%TD*%
%TO.C,H3*%
X25020000Y-128620000D03*
%TD*%
%TO.C,H3*%
X52560000Y-46000000D03*
%TD*%
%TO.C,H3*%
X107640000Y-73540000D03*
%TD*%
%TO.C,H4*%
X128620000Y-73540000D03*
%TD*%
%TO.C,H1*%
X107620000Y-25000000D03*
%TD*%
%TO.C,H4*%
X101080000Y-128620000D03*
%TD*%
M02*
