M48
; DRILL file {KiCad (6.0.7)} date Mon Oct 24 21:44:17 2022
; FORMAT={-:-/ absolute / inch / decimal}
; #@! TF.CreationDate,2022-10-24T21:44:17-05:00
; #@! TF.GenerationSoftware,Kicad,Pcbnew,(6.0.7)
; #@! TF.FileFunction,Plated,1,2,PTH
FMAT,2
INCH
; #@! TA.AperFunction,Plated,PTH,ViaDrill
T1C0.0157
; #@! TA.AperFunction,Plated,PTH,ComponentDrill
T2C0.0394
%
G90
G05
T1
X1.0827Y-1.3386
X1.0827Y-1.437
X1.0827Y-2.4228
X1.0827Y-2.5213
X1.0827Y-3.5071
X1.0827Y-3.6055
X1.0827Y-4.5913
X1.0827Y-4.6898
X1.1811Y-1.0433
X1.1811Y-2.1276
X1.1811Y-3.2118
X1.1811Y-4.2961
X1.2205Y-1.3386
X1.2205Y-2.4228
X1.2205Y-3.5071
X1.2205Y-4.5913
X1.3386Y-1.063
X1.3386Y-1.2008
X1.3386Y-1.3189
X1.3386Y-1.437
X1.3386Y-1.4764
X1.3386Y-2.1472
X1.3386Y-2.285
X1.3386Y-2.4031
X1.3386Y-2.5213
X1.3386Y-2.5606
X1.3386Y-3.2315
X1.3386Y-3.3693
X1.3386Y-3.4874
X1.3386Y-3.6055
X1.3386Y-3.6449
X1.3386Y-4.3157
X1.3386Y-4.4535
X1.3386Y-4.5717
X1.3386Y-4.6898
X1.3386Y-4.7291
X1.3976Y-1.063
X1.3976Y-1.3386
X1.3976Y-2.1472
X1.3976Y-2.4228
X1.3976Y-3.2315
X1.3976Y-3.5071
X1.3976Y-4.3157
X1.3976Y-4.5913
X1.4173Y-1.4567
X1.4173Y-2.5409
X1.4173Y-3.6252
X1.4173Y-4.7094
X1.4567Y-1.2008
X1.4567Y-2.285
X1.4567Y-3.3693
X1.4567Y-4.4535
X1.5354Y-1.0433
X1.5354Y-2.1276
X1.5354Y-3.2118
X1.5354Y-4.2961
X1.5748Y-1.1811
X1.5748Y-2.2654
X1.5748Y-3.3496
X1.5748Y-4.4339
X1.5945Y-1.2598
X1.5945Y-2.3441
X1.5945Y-3.4283
X1.5945Y-4.5126
X1.6142Y-1.0433
X1.6142Y-2.1276
X1.6142Y-3.2118
X1.6142Y-4.2961
X1.6535Y-1.3386
X1.6535Y-2.4228
X1.6535Y-3.5071
X1.6535Y-4.5913
X2.1669Y-1.3386
X2.1669Y-1.437
X2.1669Y-2.4228
X2.1669Y-2.5213
X2.1669Y-3.5071
X2.1669Y-3.6055
X2.1669Y-4.5913
X2.1669Y-4.6898
X2.2654Y-1.0433
X2.2654Y-2.1276
X2.2654Y-3.2118
X2.2654Y-4.2961
X2.3047Y-1.3386
X2.3047Y-2.4228
X2.3047Y-3.5071
X2.3047Y-4.5913
X2.4228Y-1.063
X2.4228Y-1.2008
X2.4228Y-1.3189
X2.4228Y-1.437
X2.4228Y-1.4764
X2.4228Y-2.1472
X2.4228Y-2.285
X2.4228Y-2.4031
X2.4228Y-2.5213
X2.4228Y-2.5606
X2.4228Y-3.2315
X2.4228Y-3.3693
X2.4228Y-3.4874
X2.4228Y-3.6055
X2.4228Y-3.6449
X2.4228Y-4.3157
X2.4228Y-4.4535
X2.4228Y-4.5717
X2.4228Y-4.6898
X2.4228Y-4.7291
X2.4819Y-1.063
X2.4819Y-1.3386
X2.4819Y-2.1472
X2.4819Y-2.4228
X2.4819Y-3.2315
X2.4819Y-3.5071
X2.4819Y-4.3157
X2.4819Y-4.5913
X2.5016Y-1.4567
X2.5016Y-2.5409
X2.5016Y-3.6252
X2.5016Y-4.7094
X2.5409Y-1.2008
X2.5409Y-2.285
X2.5409Y-3.3693
X2.5409Y-4.4535
X2.6197Y-1.0433
X2.6197Y-2.1276
X2.6197Y-3.2118
X2.6197Y-4.2961
X2.6591Y-1.1811
X2.6591Y-2.2654
X2.6591Y-3.3496
X2.6591Y-4.4339
X2.6787Y-1.2598
X2.6787Y-2.3441
X2.6787Y-3.4283
X2.6787Y-4.5126
X2.6984Y-1.0433
X2.6984Y-2.1276
X2.6984Y-3.2118
X2.6984Y-4.2961
X2.7378Y-1.3386
X2.7378Y-2.4228
X2.7378Y-3.5071
X2.7378Y-4.5913
X3.2512Y-1.3386
X3.2512Y-1.437
X3.2512Y-2.4228
X3.2512Y-2.5213
X3.2512Y-3.5071
X3.2512Y-3.6055
X3.2512Y-4.5913
X3.2512Y-4.6898
X3.3496Y-1.0433
X3.3496Y-2.1276
X3.3496Y-3.2118
X3.3496Y-4.2961
X3.389Y-1.3386
X3.389Y-2.4228
X3.389Y-3.5071
X3.389Y-4.5913
X3.5071Y-1.063
X3.5071Y-1.2008
X3.5071Y-1.3189
X3.5071Y-1.437
X3.5071Y-1.4764
X3.5071Y-2.1472
X3.5071Y-2.285
X3.5071Y-2.4031
X3.5071Y-2.5213
X3.5071Y-2.5606
X3.5071Y-3.2315
X3.5071Y-3.3693
X3.5071Y-3.4874
X3.5071Y-3.6055
X3.5071Y-3.6449
X3.5071Y-4.3157
X3.5071Y-4.4535
X3.5071Y-4.5717
X3.5071Y-4.6898
X3.5071Y-4.7291
X3.5661Y-1.063
X3.5661Y-1.3386
X3.5661Y-2.1472
X3.5661Y-2.4228
X3.5661Y-3.2315
X3.5661Y-3.5071
X3.5661Y-4.3157
X3.5661Y-4.5913
X3.5858Y-1.4567
X3.5858Y-2.5409
X3.5858Y-3.6252
X3.5858Y-4.7094
X3.6252Y-1.2008
X3.6252Y-2.285
X3.6252Y-3.3693
X3.6252Y-4.4535
X3.7039Y-1.0433
X3.7039Y-2.1276
X3.7039Y-3.2118
X3.7039Y-4.2961
X3.7433Y-1.1811
X3.7433Y-2.2654
X3.7433Y-3.3496
X3.7433Y-4.4339
X3.763Y-1.2598
X3.763Y-2.3441
X3.763Y-3.4283
X3.763Y-4.5126
X3.7827Y-1.0433
X3.7827Y-2.1276
X3.7827Y-3.2118
X3.7827Y-4.2961
X3.822Y-1.3386
X3.822Y-2.4228
X3.822Y-3.5071
X3.822Y-4.5913
X4.3354Y-1.3386
X4.3354Y-1.437
X4.3354Y-2.4228
X4.3354Y-2.5213
X4.3354Y-3.5071
X4.3354Y-3.6055
X4.3354Y-4.5913
X4.3354Y-4.6898
X4.4339Y-1.0433
X4.4339Y-2.1276
X4.4339Y-3.2118
X4.4339Y-4.2961
X4.4732Y-1.3386
X4.4732Y-2.4228
X4.4732Y-3.5071
X4.4732Y-4.5913
X4.5913Y-1.063
X4.5913Y-1.2008
X4.5913Y-1.3189
X4.5913Y-1.437
X4.5913Y-1.4764
X4.5913Y-2.1472
X4.5913Y-2.285
X4.5913Y-2.4031
X4.5913Y-2.5213
X4.5913Y-2.5606
X4.5913Y-3.2315
X4.5913Y-3.3693
X4.5913Y-3.4874
X4.5913Y-3.6055
X4.5913Y-3.6449
X4.5913Y-4.3157
X4.5913Y-4.4535
X4.5913Y-4.5717
X4.5913Y-4.6898
X4.5913Y-4.7291
X4.6504Y-1.063
X4.6504Y-1.3386
X4.6504Y-2.1472
X4.6504Y-2.4228
X4.6504Y-3.2315
X4.6504Y-3.5071
X4.6504Y-4.3157
X4.6504Y-4.5913
X4.6701Y-1.4567
X4.6701Y-2.5409
X4.6701Y-3.6252
X4.6701Y-4.7094
X4.7094Y-1.2008
X4.7094Y-2.285
X4.7094Y-3.3693
X4.7094Y-4.4535
X4.7882Y-1.0433
X4.7882Y-2.1276
X4.7882Y-3.2118
X4.7882Y-4.2961
X4.8276Y-1.1811
X4.8276Y-2.2654
X4.8276Y-3.3496
X4.8276Y-4.4339
X4.8472Y-1.2598
X4.8472Y-2.3441
X4.8472Y-3.4283
X4.8472Y-4.5126
X4.8669Y-1.0433
X4.8669Y-2.1276
X4.8669Y-3.2118
X4.8669Y-4.2961
X4.9063Y-1.3386
X4.9063Y-2.4228
X4.9063Y-3.5071
X4.9063Y-4.5913
T2
X1.1476Y-1.811
X1.1476Y-2.8953
X1.1476Y-3.9795
X1.1476Y-5.0638
X1.2476Y-1.811
X1.2476Y-2.8953
X1.2476Y-3.9795
X1.2476Y-5.0638
X1.3476Y-1.811
X1.3476Y-2.8953
X1.3476Y-3.9795
X1.3476Y-5.0638
X1.4476Y-1.811
X1.4476Y-2.8953
X1.4476Y-3.9795
X1.4476Y-5.0638
X1.5476Y-1.811
X1.5476Y-2.8953
X1.5476Y-3.9795
X1.5476Y-5.0638
X1.6476Y-1.811
X1.6476Y-2.8953
X1.6476Y-3.9795
X1.6476Y-5.0638
X2.2319Y-1.811
X2.2319Y-2.8953
X2.2319Y-3.9795
X2.2319Y-5.0638
X2.3319Y-1.811
X2.3319Y-2.8953
X2.3319Y-3.9795
X2.3319Y-5.0638
X2.4319Y-1.811
X2.4319Y-2.8953
X2.4319Y-3.9795
X2.4319Y-5.0638
X2.5319Y-1.811
X2.5319Y-2.8953
X2.5319Y-3.9795
X2.5319Y-5.0638
X2.6319Y-1.811
X2.6319Y-2.8953
X2.6319Y-3.9795
X2.6319Y-5.0638
X2.7319Y-1.811
X2.7319Y-2.8953
X2.7319Y-3.9795
X2.7319Y-5.0638
X3.3161Y-1.811
X3.3161Y-2.8953
X3.3161Y-3.9795
X3.3161Y-5.0638
X3.4161Y-1.811
X3.4161Y-2.8953
X3.4161Y-3.9795
X3.4161Y-5.0638
X3.5161Y-1.811
X3.5161Y-2.8953
X3.5161Y-3.9795
X3.5161Y-5.0638
X3.6161Y-1.811
X3.6161Y-2.8953
X3.6161Y-3.9795
X3.6161Y-5.0638
X3.7161Y-1.811
X3.7161Y-2.8953
X3.7161Y-3.9795
X3.7161Y-5.0638
X3.8161Y-1.811
X3.8161Y-2.8953
X3.8161Y-3.9795
X3.8161Y-5.0638
X4.4004Y-1.811
X4.4004Y-2.8953
X4.4004Y-3.9795
X4.4004Y-5.0638
X4.5004Y-1.811
X4.5004Y-2.8953
X4.5004Y-3.9795
X4.5004Y-5.0638
X4.6004Y-1.811
X4.6004Y-2.8953
X4.6004Y-3.9795
X4.6004Y-5.0638
X4.7004Y-1.811
X4.7004Y-2.8953
X4.7004Y-3.9795
X4.7004Y-5.0638
X4.8004Y-1.811
X4.8004Y-2.8953
X4.8004Y-3.9795
X4.8004Y-5.0638
X4.9004Y-1.811
X4.9004Y-2.8953
X4.9004Y-3.9795
X4.9004Y-5.0638
T0
M30
