%TF.GenerationSoftware,KiCad,Pcbnew,(6.0.7)*%
%TF.CreationDate,2022-10-24T21:44:15-05:00*%
%TF.ProjectId,Panelized,50616e65-6c69-47a6-9564-2e6b69636164,4*%
%TF.SameCoordinates,Original*%
%TF.FileFunction,Legend,Bot*%
%TF.FilePolarity,Positive*%
%FSLAX46Y46*%
G04 Gerber Fmt 4.6, Leading zero omitted, Abs format (unit mm)*
G04 Created by KiCad (PCBNEW (6.0.7)) date 2022-10-24 21:44:15*
%MOMM*%
%LPD*%
G01*
G04 APERTURE LIST*
%ADD10C,0.150000*%
%ADD11C,0.120000*%
G04 APERTURE END LIST*
D10*
%TO.C,TP4*%
X95841904Y-88584380D02*
X95270476Y-88584380D01*
X95556190Y-89584380D02*
X95556190Y-88584380D01*
X94937142Y-89584380D02*
X94937142Y-88584380D01*
X94556190Y-88584380D01*
X94460952Y-88632000D01*
X94413333Y-88679619D01*
X94365714Y-88774857D01*
X94365714Y-88917714D01*
X94413333Y-89012952D01*
X94460952Y-89060571D01*
X94556190Y-89108190D01*
X94937142Y-89108190D01*
X93508571Y-88917714D02*
X93508571Y-89584380D01*
X93746666Y-88536761D02*
X93984761Y-89251047D01*
X93365714Y-89251047D01*
%TO.C,TP3*%
X32761904Y-57044380D02*
X32190476Y-57044380D01*
X32476190Y-58044380D02*
X32476190Y-57044380D01*
X31857142Y-58044380D02*
X31857142Y-57044380D01*
X31476190Y-57044380D01*
X31380952Y-57092000D01*
X31333333Y-57139619D01*
X31285714Y-57234857D01*
X31285714Y-57377714D01*
X31333333Y-57472952D01*
X31380952Y-57520571D01*
X31476190Y-57568190D01*
X31857142Y-57568190D01*
X30952380Y-57044380D02*
X30333333Y-57044380D01*
X30666666Y-57425333D01*
X30523809Y-57425333D01*
X30428571Y-57472952D01*
X30380952Y-57520571D01*
X30333333Y-57615809D01*
X30333333Y-57853904D01*
X30380952Y-57949142D01*
X30428571Y-57996761D01*
X30523809Y-58044380D01*
X30809523Y-58044380D01*
X30904761Y-57996761D01*
X30952380Y-57949142D01*
%TO.C,TP6*%
X115381904Y-61044380D02*
X114810476Y-61044380D01*
X115096190Y-62044380D02*
X115096190Y-61044380D01*
X114477142Y-62044380D02*
X114477142Y-61044380D01*
X114096190Y-61044380D01*
X114000952Y-61092000D01*
X113953333Y-61139619D01*
X113905714Y-61234857D01*
X113905714Y-61377714D01*
X113953333Y-61472952D01*
X114000952Y-61520571D01*
X114096190Y-61568190D01*
X114477142Y-61568190D01*
X113048571Y-61044380D02*
X113239047Y-61044380D01*
X113334285Y-61092000D01*
X113381904Y-61139619D01*
X113477142Y-61282476D01*
X113524761Y-61472952D01*
X113524761Y-61853904D01*
X113477142Y-61949142D01*
X113429523Y-61996761D01*
X113334285Y-62044380D01*
X113143809Y-62044380D01*
X113048571Y-61996761D01*
X113000952Y-61949142D01*
X112953333Y-61853904D01*
X112953333Y-61615809D01*
X113000952Y-61520571D01*
X113048571Y-61472952D01*
X113143809Y-61425333D01*
X113334285Y-61425333D01*
X113429523Y-61472952D01*
X113477142Y-61520571D01*
X113524761Y-61615809D01*
%TO.C,TP8*%
X36761904Y-37504380D02*
X36190476Y-37504380D01*
X36476190Y-38504380D02*
X36476190Y-37504380D01*
X35857142Y-38504380D02*
X35857142Y-37504380D01*
X35476190Y-37504380D01*
X35380952Y-37552000D01*
X35333333Y-37599619D01*
X35285714Y-37694857D01*
X35285714Y-37837714D01*
X35333333Y-37932952D01*
X35380952Y-37980571D01*
X35476190Y-38028190D01*
X35857142Y-38028190D01*
X34714285Y-37932952D02*
X34809523Y-37885333D01*
X34857142Y-37837714D01*
X34904761Y-37742476D01*
X34904761Y-37694857D01*
X34857142Y-37599619D01*
X34809523Y-37552000D01*
X34714285Y-37504380D01*
X34523809Y-37504380D01*
X34428571Y-37552000D01*
X34380952Y-37599619D01*
X34333333Y-37694857D01*
X34333333Y-37742476D01*
X34380952Y-37837714D01*
X34428571Y-37885333D01*
X34523809Y-37932952D01*
X34714285Y-37932952D01*
X34809523Y-37980571D01*
X34857142Y-38028190D01*
X34904761Y-38123428D01*
X34904761Y-38313904D01*
X34857142Y-38409142D01*
X34809523Y-38456761D01*
X34714285Y-38504380D01*
X34523809Y-38504380D01*
X34428571Y-38456761D01*
X34380952Y-38409142D01*
X34333333Y-38313904D01*
X34333333Y-38123428D01*
X34380952Y-38028190D01*
X34428571Y-37980571D01*
X34523809Y-37932952D01*
%TO.C,TP5*%
X36761904Y-116124380D02*
X36190476Y-116124380D01*
X36476190Y-117124380D02*
X36476190Y-116124380D01*
X35857142Y-117124380D02*
X35857142Y-116124380D01*
X35476190Y-116124380D01*
X35380952Y-116172000D01*
X35333333Y-116219619D01*
X35285714Y-116314857D01*
X35285714Y-116457714D01*
X35333333Y-116552952D01*
X35380952Y-116600571D01*
X35476190Y-116648190D01*
X35857142Y-116648190D01*
X34380952Y-116124380D02*
X34857142Y-116124380D01*
X34904761Y-116600571D01*
X34857142Y-116552952D01*
X34761904Y-116505333D01*
X34523809Y-116505333D01*
X34428571Y-116552952D01*
X34380952Y-116600571D01*
X34333333Y-116695809D01*
X34333333Y-116933904D01*
X34380952Y-117029142D01*
X34428571Y-117076761D01*
X34523809Y-117124380D01*
X34761904Y-117124380D01*
X34857142Y-117076761D01*
X34904761Y-117029142D01*
%TO.C,TP3*%
X115381904Y-112124380D02*
X114810476Y-112124380D01*
X115096190Y-113124380D02*
X115096190Y-112124380D01*
X114477142Y-113124380D02*
X114477142Y-112124380D01*
X114096190Y-112124380D01*
X114000952Y-112172000D01*
X113953333Y-112219619D01*
X113905714Y-112314857D01*
X113905714Y-112457714D01*
X113953333Y-112552952D01*
X114000952Y-112600571D01*
X114096190Y-112648190D01*
X114477142Y-112648190D01*
X113572380Y-112124380D02*
X112953333Y-112124380D01*
X113286666Y-112505333D01*
X113143809Y-112505333D01*
X113048571Y-112552952D01*
X113000952Y-112600571D01*
X112953333Y-112695809D01*
X112953333Y-112933904D01*
X113000952Y-113029142D01*
X113048571Y-113076761D01*
X113143809Y-113124380D01*
X113429523Y-113124380D01*
X113524761Y-113076761D01*
X113572380Y-113029142D01*
%TO.C,TP5*%
X36761904Y-33504380D02*
X36190476Y-33504380D01*
X36476190Y-34504380D02*
X36476190Y-33504380D01*
X35857142Y-34504380D02*
X35857142Y-33504380D01*
X35476190Y-33504380D01*
X35380952Y-33552000D01*
X35333333Y-33599619D01*
X35285714Y-33694857D01*
X35285714Y-33837714D01*
X35333333Y-33932952D01*
X35380952Y-33980571D01*
X35476190Y-34028190D01*
X35857142Y-34028190D01*
X34380952Y-33504380D02*
X34857142Y-33504380D01*
X34904761Y-33980571D01*
X34857142Y-33932952D01*
X34761904Y-33885333D01*
X34523809Y-33885333D01*
X34428571Y-33932952D01*
X34380952Y-33980571D01*
X34333333Y-34075809D01*
X34333333Y-34313904D01*
X34380952Y-34409142D01*
X34428571Y-34456761D01*
X34523809Y-34504380D01*
X34761904Y-34504380D01*
X34857142Y-34456761D01*
X34904761Y-34409142D01*
%TO.C,TP9*%
X32761904Y-65044380D02*
X32190476Y-65044380D01*
X32476190Y-66044380D02*
X32476190Y-65044380D01*
X31857142Y-66044380D02*
X31857142Y-65044380D01*
X31476190Y-65044380D01*
X31380952Y-65092000D01*
X31333333Y-65139619D01*
X31285714Y-65234857D01*
X31285714Y-65377714D01*
X31333333Y-65472952D01*
X31380952Y-65520571D01*
X31476190Y-65568190D01*
X31857142Y-65568190D01*
X30809523Y-66044380D02*
X30619047Y-66044380D01*
X30523809Y-65996761D01*
X30476190Y-65949142D01*
X30380952Y-65806285D01*
X30333333Y-65615809D01*
X30333333Y-65234857D01*
X30380952Y-65139619D01*
X30428571Y-65092000D01*
X30523809Y-65044380D01*
X30714285Y-65044380D01*
X30809523Y-65092000D01*
X30857142Y-65139619D01*
X30904761Y-65234857D01*
X30904761Y-65472952D01*
X30857142Y-65568190D01*
X30809523Y-65615809D01*
X30714285Y-65663428D01*
X30523809Y-65663428D01*
X30428571Y-65615809D01*
X30380952Y-65568190D01*
X30333333Y-65472952D01*
%TO.C,TP6*%
X115381904Y-116124380D02*
X114810476Y-116124380D01*
X115096190Y-117124380D02*
X115096190Y-116124380D01*
X114477142Y-117124380D02*
X114477142Y-116124380D01*
X114096190Y-116124380D01*
X114000952Y-116172000D01*
X113953333Y-116219619D01*
X113905714Y-116314857D01*
X113905714Y-116457714D01*
X113953333Y-116552952D01*
X114000952Y-116600571D01*
X114096190Y-116648190D01*
X114477142Y-116648190D01*
X113048571Y-116124380D02*
X113239047Y-116124380D01*
X113334285Y-116172000D01*
X113381904Y-116219619D01*
X113477142Y-116362476D01*
X113524761Y-116552952D01*
X113524761Y-116933904D01*
X113477142Y-117029142D01*
X113429523Y-117076761D01*
X113334285Y-117124380D01*
X113143809Y-117124380D01*
X113048571Y-117076761D01*
X113000952Y-117029142D01*
X112953333Y-116933904D01*
X112953333Y-116695809D01*
X113000952Y-116600571D01*
X113048571Y-116552952D01*
X113143809Y-116505333D01*
X113334285Y-116505333D01*
X113429523Y-116552952D01*
X113477142Y-116600571D01*
X113524761Y-116695809D01*
%TO.C,TP1*%
X40761904Y-112124380D02*
X40190476Y-112124380D01*
X40476190Y-113124380D02*
X40476190Y-112124380D01*
X39857142Y-113124380D02*
X39857142Y-112124380D01*
X39476190Y-112124380D01*
X39380952Y-112172000D01*
X39333333Y-112219619D01*
X39285714Y-112314857D01*
X39285714Y-112457714D01*
X39333333Y-112552952D01*
X39380952Y-112600571D01*
X39476190Y-112648190D01*
X39857142Y-112648190D01*
X38333333Y-113124380D02*
X38904761Y-113124380D01*
X38619047Y-113124380D02*
X38619047Y-112124380D01*
X38714285Y-112267238D01*
X38809523Y-112362476D01*
X38904761Y-112410095D01*
%TO.C,TP9*%
X115381904Y-65044380D02*
X114810476Y-65044380D01*
X115096190Y-66044380D02*
X115096190Y-65044380D01*
X114477142Y-66044380D02*
X114477142Y-65044380D01*
X114096190Y-65044380D01*
X114000952Y-65092000D01*
X113953333Y-65139619D01*
X113905714Y-65234857D01*
X113905714Y-65377714D01*
X113953333Y-65472952D01*
X114000952Y-65520571D01*
X114096190Y-65568190D01*
X114477142Y-65568190D01*
X113429523Y-66044380D02*
X113239047Y-66044380D01*
X113143809Y-65996761D01*
X113096190Y-65949142D01*
X113000952Y-65806285D01*
X112953333Y-65615809D01*
X112953333Y-65234857D01*
X113000952Y-65139619D01*
X113048571Y-65092000D01*
X113143809Y-65044380D01*
X113334285Y-65044380D01*
X113429523Y-65092000D01*
X113477142Y-65139619D01*
X113524761Y-65234857D01*
X113524761Y-65472952D01*
X113477142Y-65568190D01*
X113429523Y-65615809D01*
X113334285Y-65663428D01*
X113143809Y-65663428D01*
X113048571Y-65615809D01*
X113000952Y-65568190D01*
X112953333Y-65472952D01*
X60301904Y-92584380D02*
X59730476Y-92584380D01*
X60016190Y-93584380D02*
X60016190Y-92584380D01*
X59397142Y-93584380D02*
X59397142Y-92584380D01*
X59016190Y-92584380D01*
X58920952Y-92632000D01*
X58873333Y-92679619D01*
X58825714Y-92774857D01*
X58825714Y-92917714D01*
X58873333Y-93012952D01*
X58920952Y-93060571D01*
X59016190Y-93108190D01*
X59397142Y-93108190D01*
X58349523Y-93584380D02*
X58159047Y-93584380D01*
X58063809Y-93536761D01*
X58016190Y-93489142D01*
X57920952Y-93346285D01*
X57873333Y-93155809D01*
X57873333Y-92774857D01*
X57920952Y-92679619D01*
X57968571Y-92632000D01*
X58063809Y-92584380D01*
X58254285Y-92584380D01*
X58349523Y-92632000D01*
X58397142Y-92679619D01*
X58444761Y-92774857D01*
X58444761Y-93012952D01*
X58397142Y-93108190D01*
X58349523Y-93155809D01*
X58254285Y-93203428D01*
X58063809Y-93203428D01*
X57968571Y-93155809D01*
X57920952Y-93108190D01*
X57873333Y-93012952D01*
%TO.C,TP6*%
X60301904Y-88584380D02*
X59730476Y-88584380D01*
X60016190Y-89584380D02*
X60016190Y-88584380D01*
X59397142Y-89584380D02*
X59397142Y-88584380D01*
X59016190Y-88584380D01*
X58920952Y-88632000D01*
X58873333Y-88679619D01*
X58825714Y-88774857D01*
X58825714Y-88917714D01*
X58873333Y-89012952D01*
X58920952Y-89060571D01*
X59016190Y-89108190D01*
X59397142Y-89108190D01*
X57968571Y-88584380D02*
X58159047Y-88584380D01*
X58254285Y-88632000D01*
X58301904Y-88679619D01*
X58397142Y-88822476D01*
X58444761Y-89012952D01*
X58444761Y-89393904D01*
X58397142Y-89489142D01*
X58349523Y-89536761D01*
X58254285Y-89584380D01*
X58063809Y-89584380D01*
X57968571Y-89536761D01*
X57920952Y-89489142D01*
X57873333Y-89393904D01*
X57873333Y-89155809D01*
X57920952Y-89060571D01*
X57968571Y-89012952D01*
X58063809Y-88965333D01*
X58254285Y-88965333D01*
X58349523Y-89012952D01*
X58397142Y-89060571D01*
X58444761Y-89155809D01*
%TO.C,TP9*%
X115381904Y-92584380D02*
X114810476Y-92584380D01*
X115096190Y-93584380D02*
X115096190Y-92584380D01*
X114477142Y-93584380D02*
X114477142Y-92584380D01*
X114096190Y-92584380D01*
X114000952Y-92632000D01*
X113953333Y-92679619D01*
X113905714Y-92774857D01*
X113905714Y-92917714D01*
X113953333Y-93012952D01*
X114000952Y-93060571D01*
X114096190Y-93108190D01*
X114477142Y-93108190D01*
X113429523Y-93584380D02*
X113239047Y-93584380D01*
X113143809Y-93536761D01*
X113096190Y-93489142D01*
X113000952Y-93346285D01*
X112953333Y-93155809D01*
X112953333Y-92774857D01*
X113000952Y-92679619D01*
X113048571Y-92632000D01*
X113143809Y-92584380D01*
X113334285Y-92584380D01*
X113429523Y-92632000D01*
X113477142Y-92679619D01*
X113524761Y-92774857D01*
X113524761Y-93012952D01*
X113477142Y-93108190D01*
X113429523Y-93155809D01*
X113334285Y-93203428D01*
X113143809Y-93203428D01*
X113048571Y-93155809D01*
X113000952Y-93108190D01*
X112953333Y-93012952D01*
%TO.C,TP3*%
X87841904Y-29504380D02*
X87270476Y-29504380D01*
X87556190Y-30504380D02*
X87556190Y-29504380D01*
X86937142Y-30504380D02*
X86937142Y-29504380D01*
X86556190Y-29504380D01*
X86460952Y-29552000D01*
X86413333Y-29599619D01*
X86365714Y-29694857D01*
X86365714Y-29837714D01*
X86413333Y-29932952D01*
X86460952Y-29980571D01*
X86556190Y-30028190D01*
X86937142Y-30028190D01*
X86032380Y-29504380D02*
X85413333Y-29504380D01*
X85746666Y-29885333D01*
X85603809Y-29885333D01*
X85508571Y-29932952D01*
X85460952Y-29980571D01*
X85413333Y-30075809D01*
X85413333Y-30313904D01*
X85460952Y-30409142D01*
X85508571Y-30456761D01*
X85603809Y-30504380D01*
X85889523Y-30504380D01*
X85984761Y-30456761D01*
X86032380Y-30409142D01*
%TO.C,TP4*%
X40761904Y-88584380D02*
X40190476Y-88584380D01*
X40476190Y-89584380D02*
X40476190Y-88584380D01*
X39857142Y-89584380D02*
X39857142Y-88584380D01*
X39476190Y-88584380D01*
X39380952Y-88632000D01*
X39333333Y-88679619D01*
X39285714Y-88774857D01*
X39285714Y-88917714D01*
X39333333Y-89012952D01*
X39380952Y-89060571D01*
X39476190Y-89108190D01*
X39857142Y-89108190D01*
X38428571Y-88917714D02*
X38428571Y-89584380D01*
X38666666Y-88536761D02*
X38904761Y-89251047D01*
X38285714Y-89251047D01*
%TO.C,TP5*%
X64301904Y-33504380D02*
X63730476Y-33504380D01*
X64016190Y-34504380D02*
X64016190Y-33504380D01*
X63397142Y-34504380D02*
X63397142Y-33504380D01*
X63016190Y-33504380D01*
X62920952Y-33552000D01*
X62873333Y-33599619D01*
X62825714Y-33694857D01*
X62825714Y-33837714D01*
X62873333Y-33932952D01*
X62920952Y-33980571D01*
X63016190Y-34028190D01*
X63397142Y-34028190D01*
X61920952Y-33504380D02*
X62397142Y-33504380D01*
X62444761Y-33980571D01*
X62397142Y-33932952D01*
X62301904Y-33885333D01*
X62063809Y-33885333D01*
X61968571Y-33932952D01*
X61920952Y-33980571D01*
X61873333Y-34075809D01*
X61873333Y-34313904D01*
X61920952Y-34409142D01*
X61968571Y-34456761D01*
X62063809Y-34504380D01*
X62301904Y-34504380D01*
X62397142Y-34456761D01*
X62444761Y-34409142D01*
%TO.C,TP9*%
X87841904Y-65044380D02*
X87270476Y-65044380D01*
X87556190Y-66044380D02*
X87556190Y-65044380D01*
X86937142Y-66044380D02*
X86937142Y-65044380D01*
X86556190Y-65044380D01*
X86460952Y-65092000D01*
X86413333Y-65139619D01*
X86365714Y-65234857D01*
X86365714Y-65377714D01*
X86413333Y-65472952D01*
X86460952Y-65520571D01*
X86556190Y-65568190D01*
X86937142Y-65568190D01*
X85889523Y-66044380D02*
X85699047Y-66044380D01*
X85603809Y-65996761D01*
X85556190Y-65949142D01*
X85460952Y-65806285D01*
X85413333Y-65615809D01*
X85413333Y-65234857D01*
X85460952Y-65139619D01*
X85508571Y-65092000D01*
X85603809Y-65044380D01*
X85794285Y-65044380D01*
X85889523Y-65092000D01*
X85937142Y-65139619D01*
X85984761Y-65234857D01*
X85984761Y-65472952D01*
X85937142Y-65568190D01*
X85889523Y-65615809D01*
X85794285Y-65663428D01*
X85603809Y-65663428D01*
X85508571Y-65615809D01*
X85460952Y-65568190D01*
X85413333Y-65472952D01*
X60301904Y-120124380D02*
X59730476Y-120124380D01*
X60016190Y-121124380D02*
X60016190Y-120124380D01*
X59397142Y-121124380D02*
X59397142Y-120124380D01*
X59016190Y-120124380D01*
X58920952Y-120172000D01*
X58873333Y-120219619D01*
X58825714Y-120314857D01*
X58825714Y-120457714D01*
X58873333Y-120552952D01*
X58920952Y-120600571D01*
X59016190Y-120648190D01*
X59397142Y-120648190D01*
X58349523Y-121124380D02*
X58159047Y-121124380D01*
X58063809Y-121076761D01*
X58016190Y-121029142D01*
X57920952Y-120886285D01*
X57873333Y-120695809D01*
X57873333Y-120314857D01*
X57920952Y-120219619D01*
X57968571Y-120172000D01*
X58063809Y-120124380D01*
X58254285Y-120124380D01*
X58349523Y-120172000D01*
X58397142Y-120219619D01*
X58444761Y-120314857D01*
X58444761Y-120552952D01*
X58397142Y-120648190D01*
X58349523Y-120695809D01*
X58254285Y-120743428D01*
X58063809Y-120743428D01*
X57968571Y-120695809D01*
X57920952Y-120648190D01*
X57873333Y-120552952D01*
%TO.C,TP6*%
X87841904Y-88584380D02*
X87270476Y-88584380D01*
X87556190Y-89584380D02*
X87556190Y-88584380D01*
X86937142Y-89584380D02*
X86937142Y-88584380D01*
X86556190Y-88584380D01*
X86460952Y-88632000D01*
X86413333Y-88679619D01*
X86365714Y-88774857D01*
X86365714Y-88917714D01*
X86413333Y-89012952D01*
X86460952Y-89060571D01*
X86556190Y-89108190D01*
X86937142Y-89108190D01*
X85508571Y-88584380D02*
X85699047Y-88584380D01*
X85794285Y-88632000D01*
X85841904Y-88679619D01*
X85937142Y-88822476D01*
X85984761Y-89012952D01*
X85984761Y-89393904D01*
X85937142Y-89489142D01*
X85889523Y-89536761D01*
X85794285Y-89584380D01*
X85603809Y-89584380D01*
X85508571Y-89536761D01*
X85460952Y-89489142D01*
X85413333Y-89393904D01*
X85413333Y-89155809D01*
X85460952Y-89060571D01*
X85508571Y-89012952D01*
X85603809Y-88965333D01*
X85794285Y-88965333D01*
X85889523Y-89012952D01*
X85937142Y-89060571D01*
X85984761Y-89155809D01*
%TO.C,TP1*%
X95841904Y-29504380D02*
X95270476Y-29504380D01*
X95556190Y-30504380D02*
X95556190Y-29504380D01*
X94937142Y-30504380D02*
X94937142Y-29504380D01*
X94556190Y-29504380D01*
X94460952Y-29552000D01*
X94413333Y-29599619D01*
X94365714Y-29694857D01*
X94365714Y-29837714D01*
X94413333Y-29932952D01*
X94460952Y-29980571D01*
X94556190Y-30028190D01*
X94937142Y-30028190D01*
X93413333Y-30504380D02*
X93984761Y-30504380D01*
X93699047Y-30504380D02*
X93699047Y-29504380D01*
X93794285Y-29647238D01*
X93889523Y-29742476D01*
X93984761Y-29790095D01*
%TO.C,TP6*%
X87841904Y-33504380D02*
X87270476Y-33504380D01*
X87556190Y-34504380D02*
X87556190Y-33504380D01*
X86937142Y-34504380D02*
X86937142Y-33504380D01*
X86556190Y-33504380D01*
X86460952Y-33552000D01*
X86413333Y-33599619D01*
X86365714Y-33694857D01*
X86365714Y-33837714D01*
X86413333Y-33932952D01*
X86460952Y-33980571D01*
X86556190Y-34028190D01*
X86937142Y-34028190D01*
X85508571Y-33504380D02*
X85699047Y-33504380D01*
X85794285Y-33552000D01*
X85841904Y-33599619D01*
X85937142Y-33742476D01*
X85984761Y-33932952D01*
X85984761Y-34313904D01*
X85937142Y-34409142D01*
X85889523Y-34456761D01*
X85794285Y-34504380D01*
X85603809Y-34504380D01*
X85508571Y-34456761D01*
X85460952Y-34409142D01*
X85413333Y-34313904D01*
X85413333Y-34075809D01*
X85460952Y-33980571D01*
X85508571Y-33932952D01*
X85603809Y-33885333D01*
X85794285Y-33885333D01*
X85889523Y-33932952D01*
X85937142Y-33980571D01*
X85984761Y-34075809D01*
%TO.C,TP2*%
X36761904Y-84584380D02*
X36190476Y-84584380D01*
X36476190Y-85584380D02*
X36476190Y-84584380D01*
X35857142Y-85584380D02*
X35857142Y-84584380D01*
X35476190Y-84584380D01*
X35380952Y-84632000D01*
X35333333Y-84679619D01*
X35285714Y-84774857D01*
X35285714Y-84917714D01*
X35333333Y-85012952D01*
X35380952Y-85060571D01*
X35476190Y-85108190D01*
X35857142Y-85108190D01*
X34904761Y-84679619D02*
X34857142Y-84632000D01*
X34761904Y-84584380D01*
X34523809Y-84584380D01*
X34428571Y-84632000D01*
X34380952Y-84679619D01*
X34333333Y-84774857D01*
X34333333Y-84870095D01*
X34380952Y-85012952D01*
X34952380Y-85584380D01*
X34333333Y-85584380D01*
%TO.C,TP7*%
X123381904Y-120124380D02*
X122810476Y-120124380D01*
X123096190Y-121124380D02*
X123096190Y-120124380D01*
X122477142Y-121124380D02*
X122477142Y-120124380D01*
X122096190Y-120124380D01*
X122000952Y-120172000D01*
X121953333Y-120219619D01*
X121905714Y-120314857D01*
X121905714Y-120457714D01*
X121953333Y-120552952D01*
X122000952Y-120600571D01*
X122096190Y-120648190D01*
X122477142Y-120648190D01*
X121572380Y-120124380D02*
X120905714Y-120124380D01*
X121334285Y-121124380D01*
%TO.C,TP9*%
X60301904Y-65044380D02*
X59730476Y-65044380D01*
X60016190Y-66044380D02*
X60016190Y-65044380D01*
X59397142Y-66044380D02*
X59397142Y-65044380D01*
X59016190Y-65044380D01*
X58920952Y-65092000D01*
X58873333Y-65139619D01*
X58825714Y-65234857D01*
X58825714Y-65377714D01*
X58873333Y-65472952D01*
X58920952Y-65520571D01*
X59016190Y-65568190D01*
X59397142Y-65568190D01*
X58349523Y-66044380D02*
X58159047Y-66044380D01*
X58063809Y-65996761D01*
X58016190Y-65949142D01*
X57920952Y-65806285D01*
X57873333Y-65615809D01*
X57873333Y-65234857D01*
X57920952Y-65139619D01*
X57968571Y-65092000D01*
X58063809Y-65044380D01*
X58254285Y-65044380D01*
X58349523Y-65092000D01*
X58397142Y-65139619D01*
X58444761Y-65234857D01*
X58444761Y-65472952D01*
X58397142Y-65568190D01*
X58349523Y-65615809D01*
X58254285Y-65663428D01*
X58063809Y-65663428D01*
X57968571Y-65615809D01*
X57920952Y-65568190D01*
X57873333Y-65472952D01*
%TO.C,TP4*%
X40761904Y-33504380D02*
X40190476Y-33504380D01*
X40476190Y-34504380D02*
X40476190Y-33504380D01*
X39857142Y-34504380D02*
X39857142Y-33504380D01*
X39476190Y-33504380D01*
X39380952Y-33552000D01*
X39333333Y-33599619D01*
X39285714Y-33694857D01*
X39285714Y-33837714D01*
X39333333Y-33932952D01*
X39380952Y-33980571D01*
X39476190Y-34028190D01*
X39857142Y-34028190D01*
X38428571Y-33837714D02*
X38428571Y-34504380D01*
X38666666Y-33456761D02*
X38904761Y-34171047D01*
X38285714Y-34171047D01*
%TO.C,TP5*%
X91841904Y-88584380D02*
X91270476Y-88584380D01*
X91556190Y-89584380D02*
X91556190Y-88584380D01*
X90937142Y-89584380D02*
X90937142Y-88584380D01*
X90556190Y-88584380D01*
X90460952Y-88632000D01*
X90413333Y-88679619D01*
X90365714Y-88774857D01*
X90365714Y-88917714D01*
X90413333Y-89012952D01*
X90460952Y-89060571D01*
X90556190Y-89108190D01*
X90937142Y-89108190D01*
X89460952Y-88584380D02*
X89937142Y-88584380D01*
X89984761Y-89060571D01*
X89937142Y-89012952D01*
X89841904Y-88965333D01*
X89603809Y-88965333D01*
X89508571Y-89012952D01*
X89460952Y-89060571D01*
X89413333Y-89155809D01*
X89413333Y-89393904D01*
X89460952Y-89489142D01*
X89508571Y-89536761D01*
X89603809Y-89584380D01*
X89841904Y-89584380D01*
X89937142Y-89536761D01*
X89984761Y-89489142D01*
%TO.C,TP2*%
X91841904Y-57044380D02*
X91270476Y-57044380D01*
X91556190Y-58044380D02*
X91556190Y-57044380D01*
X90937142Y-58044380D02*
X90937142Y-57044380D01*
X90556190Y-57044380D01*
X90460952Y-57092000D01*
X90413333Y-57139619D01*
X90365714Y-57234857D01*
X90365714Y-57377714D01*
X90413333Y-57472952D01*
X90460952Y-57520571D01*
X90556190Y-57568190D01*
X90937142Y-57568190D01*
X89984761Y-57139619D02*
X89937142Y-57092000D01*
X89841904Y-57044380D01*
X89603809Y-57044380D01*
X89508571Y-57092000D01*
X89460952Y-57139619D01*
X89413333Y-57234857D01*
X89413333Y-57330095D01*
X89460952Y-57472952D01*
X90032380Y-58044380D01*
X89413333Y-58044380D01*
%TO.C,TP4*%
X123381904Y-33504380D02*
X122810476Y-33504380D01*
X123096190Y-34504380D02*
X123096190Y-33504380D01*
X122477142Y-34504380D02*
X122477142Y-33504380D01*
X122096190Y-33504380D01*
X122000952Y-33552000D01*
X121953333Y-33599619D01*
X121905714Y-33694857D01*
X121905714Y-33837714D01*
X121953333Y-33932952D01*
X122000952Y-33980571D01*
X122096190Y-34028190D01*
X122477142Y-34028190D01*
X121048571Y-33837714D02*
X121048571Y-34504380D01*
X121286666Y-33456761D02*
X121524761Y-34171047D01*
X120905714Y-34171047D01*
%TO.C,TP3*%
X87841904Y-84584380D02*
X87270476Y-84584380D01*
X87556190Y-85584380D02*
X87556190Y-84584380D01*
X86937142Y-85584380D02*
X86937142Y-84584380D01*
X86556190Y-84584380D01*
X86460952Y-84632000D01*
X86413333Y-84679619D01*
X86365714Y-84774857D01*
X86365714Y-84917714D01*
X86413333Y-85012952D01*
X86460952Y-85060571D01*
X86556190Y-85108190D01*
X86937142Y-85108190D01*
X86032380Y-84584380D02*
X85413333Y-84584380D01*
X85746666Y-84965333D01*
X85603809Y-84965333D01*
X85508571Y-85012952D01*
X85460952Y-85060571D01*
X85413333Y-85155809D01*
X85413333Y-85393904D01*
X85460952Y-85489142D01*
X85508571Y-85536761D01*
X85603809Y-85584380D01*
X85889523Y-85584380D01*
X85984761Y-85536761D01*
X86032380Y-85489142D01*
%TO.C,TP5*%
X91841904Y-61044380D02*
X91270476Y-61044380D01*
X91556190Y-62044380D02*
X91556190Y-61044380D01*
X90937142Y-62044380D02*
X90937142Y-61044380D01*
X90556190Y-61044380D01*
X90460952Y-61092000D01*
X90413333Y-61139619D01*
X90365714Y-61234857D01*
X90365714Y-61377714D01*
X90413333Y-61472952D01*
X90460952Y-61520571D01*
X90556190Y-61568190D01*
X90937142Y-61568190D01*
X89460952Y-61044380D02*
X89937142Y-61044380D01*
X89984761Y-61520571D01*
X89937142Y-61472952D01*
X89841904Y-61425333D01*
X89603809Y-61425333D01*
X89508571Y-61472952D01*
X89460952Y-61520571D01*
X89413333Y-61615809D01*
X89413333Y-61853904D01*
X89460952Y-61949142D01*
X89508571Y-61996761D01*
X89603809Y-62044380D01*
X89841904Y-62044380D01*
X89937142Y-61996761D01*
X89984761Y-61949142D01*
%TO.C,TP6*%
X115381904Y-88584380D02*
X114810476Y-88584380D01*
X115096190Y-89584380D02*
X115096190Y-88584380D01*
X114477142Y-89584380D02*
X114477142Y-88584380D01*
X114096190Y-88584380D01*
X114000952Y-88632000D01*
X113953333Y-88679619D01*
X113905714Y-88774857D01*
X113905714Y-88917714D01*
X113953333Y-89012952D01*
X114000952Y-89060571D01*
X114096190Y-89108190D01*
X114477142Y-89108190D01*
X113048571Y-88584380D02*
X113239047Y-88584380D01*
X113334285Y-88632000D01*
X113381904Y-88679619D01*
X113477142Y-88822476D01*
X113524761Y-89012952D01*
X113524761Y-89393904D01*
X113477142Y-89489142D01*
X113429523Y-89536761D01*
X113334285Y-89584380D01*
X113143809Y-89584380D01*
X113048571Y-89536761D01*
X113000952Y-89489142D01*
X112953333Y-89393904D01*
X112953333Y-89155809D01*
X113000952Y-89060571D01*
X113048571Y-89012952D01*
X113143809Y-88965333D01*
X113334285Y-88965333D01*
X113429523Y-89012952D01*
X113477142Y-89060571D01*
X113524761Y-89155809D01*
%TO.C,TP3*%
X87841904Y-112124380D02*
X87270476Y-112124380D01*
X87556190Y-113124380D02*
X87556190Y-112124380D01*
X86937142Y-113124380D02*
X86937142Y-112124380D01*
X86556190Y-112124380D01*
X86460952Y-112172000D01*
X86413333Y-112219619D01*
X86365714Y-112314857D01*
X86365714Y-112457714D01*
X86413333Y-112552952D01*
X86460952Y-112600571D01*
X86556190Y-112648190D01*
X86937142Y-112648190D01*
X86032380Y-112124380D02*
X85413333Y-112124380D01*
X85746666Y-112505333D01*
X85603809Y-112505333D01*
X85508571Y-112552952D01*
X85460952Y-112600571D01*
X85413333Y-112695809D01*
X85413333Y-112933904D01*
X85460952Y-113029142D01*
X85508571Y-113076761D01*
X85603809Y-113124380D01*
X85889523Y-113124380D01*
X85984761Y-113076761D01*
X86032380Y-113029142D01*
%TO.C,TP2*%
X36761904Y-57044380D02*
X36190476Y-57044380D01*
X36476190Y-58044380D02*
X36476190Y-57044380D01*
X35857142Y-58044380D02*
X35857142Y-57044380D01*
X35476190Y-57044380D01*
X35380952Y-57092000D01*
X35333333Y-57139619D01*
X35285714Y-57234857D01*
X35285714Y-57377714D01*
X35333333Y-57472952D01*
X35380952Y-57520571D01*
X35476190Y-57568190D01*
X35857142Y-57568190D01*
X34904761Y-57139619D02*
X34857142Y-57092000D01*
X34761904Y-57044380D01*
X34523809Y-57044380D01*
X34428571Y-57092000D01*
X34380952Y-57139619D01*
X34333333Y-57234857D01*
X34333333Y-57330095D01*
X34380952Y-57472952D01*
X34952380Y-58044380D01*
X34333333Y-58044380D01*
%TO.C,TP8*%
X91841904Y-37504380D02*
X91270476Y-37504380D01*
X91556190Y-38504380D02*
X91556190Y-37504380D01*
X90937142Y-38504380D02*
X90937142Y-37504380D01*
X90556190Y-37504380D01*
X90460952Y-37552000D01*
X90413333Y-37599619D01*
X90365714Y-37694857D01*
X90365714Y-37837714D01*
X90413333Y-37932952D01*
X90460952Y-37980571D01*
X90556190Y-38028190D01*
X90937142Y-38028190D01*
X89794285Y-37932952D02*
X89889523Y-37885333D01*
X89937142Y-37837714D01*
X89984761Y-37742476D01*
X89984761Y-37694857D01*
X89937142Y-37599619D01*
X89889523Y-37552000D01*
X89794285Y-37504380D01*
X89603809Y-37504380D01*
X89508571Y-37552000D01*
X89460952Y-37599619D01*
X89413333Y-37694857D01*
X89413333Y-37742476D01*
X89460952Y-37837714D01*
X89508571Y-37885333D01*
X89603809Y-37932952D01*
X89794285Y-37932952D01*
X89889523Y-37980571D01*
X89937142Y-38028190D01*
X89984761Y-38123428D01*
X89984761Y-38313904D01*
X89937142Y-38409142D01*
X89889523Y-38456761D01*
X89794285Y-38504380D01*
X89603809Y-38504380D01*
X89508571Y-38456761D01*
X89460952Y-38409142D01*
X89413333Y-38313904D01*
X89413333Y-38123428D01*
X89460952Y-38028190D01*
X89508571Y-37980571D01*
X89603809Y-37932952D01*
X64301904Y-37504380D02*
X63730476Y-37504380D01*
X64016190Y-38504380D02*
X64016190Y-37504380D01*
X63397142Y-38504380D02*
X63397142Y-37504380D01*
X63016190Y-37504380D01*
X62920952Y-37552000D01*
X62873333Y-37599619D01*
X62825714Y-37694857D01*
X62825714Y-37837714D01*
X62873333Y-37932952D01*
X62920952Y-37980571D01*
X63016190Y-38028190D01*
X63397142Y-38028190D01*
X62254285Y-37932952D02*
X62349523Y-37885333D01*
X62397142Y-37837714D01*
X62444761Y-37742476D01*
X62444761Y-37694857D01*
X62397142Y-37599619D01*
X62349523Y-37552000D01*
X62254285Y-37504380D01*
X62063809Y-37504380D01*
X61968571Y-37552000D01*
X61920952Y-37599619D01*
X61873333Y-37694857D01*
X61873333Y-37742476D01*
X61920952Y-37837714D01*
X61968571Y-37885333D01*
X62063809Y-37932952D01*
X62254285Y-37932952D01*
X62349523Y-37980571D01*
X62397142Y-38028190D01*
X62444761Y-38123428D01*
X62444761Y-38313904D01*
X62397142Y-38409142D01*
X62349523Y-38456761D01*
X62254285Y-38504380D01*
X62063809Y-38504380D01*
X61968571Y-38456761D01*
X61920952Y-38409142D01*
X61873333Y-38313904D01*
X61873333Y-38123428D01*
X61920952Y-38028190D01*
X61968571Y-37980571D01*
X62063809Y-37932952D01*
X64301904Y-120124380D02*
X63730476Y-120124380D01*
X64016190Y-121124380D02*
X64016190Y-120124380D01*
X63397142Y-121124380D02*
X63397142Y-120124380D01*
X63016190Y-120124380D01*
X62920952Y-120172000D01*
X62873333Y-120219619D01*
X62825714Y-120314857D01*
X62825714Y-120457714D01*
X62873333Y-120552952D01*
X62920952Y-120600571D01*
X63016190Y-120648190D01*
X63397142Y-120648190D01*
X62254285Y-120552952D02*
X62349523Y-120505333D01*
X62397142Y-120457714D01*
X62444761Y-120362476D01*
X62444761Y-120314857D01*
X62397142Y-120219619D01*
X62349523Y-120172000D01*
X62254285Y-120124380D01*
X62063809Y-120124380D01*
X61968571Y-120172000D01*
X61920952Y-120219619D01*
X61873333Y-120314857D01*
X61873333Y-120362476D01*
X61920952Y-120457714D01*
X61968571Y-120505333D01*
X62063809Y-120552952D01*
X62254285Y-120552952D01*
X62349523Y-120600571D01*
X62397142Y-120648190D01*
X62444761Y-120743428D01*
X62444761Y-120933904D01*
X62397142Y-121029142D01*
X62349523Y-121076761D01*
X62254285Y-121124380D01*
X62063809Y-121124380D01*
X61968571Y-121076761D01*
X61920952Y-121029142D01*
X61873333Y-120933904D01*
X61873333Y-120743428D01*
X61920952Y-120648190D01*
X61968571Y-120600571D01*
X62063809Y-120552952D01*
%TO.C,TP4*%
X123381904Y-88584380D02*
X122810476Y-88584380D01*
X123096190Y-89584380D02*
X123096190Y-88584380D01*
X122477142Y-89584380D02*
X122477142Y-88584380D01*
X122096190Y-88584380D01*
X122000952Y-88632000D01*
X121953333Y-88679619D01*
X121905714Y-88774857D01*
X121905714Y-88917714D01*
X121953333Y-89012952D01*
X122000952Y-89060571D01*
X122096190Y-89108190D01*
X122477142Y-89108190D01*
X121048571Y-88917714D02*
X121048571Y-89584380D01*
X121286666Y-88536761D02*
X121524761Y-89251047D01*
X120905714Y-89251047D01*
%TO.C,TP1*%
X95841904Y-84584380D02*
X95270476Y-84584380D01*
X95556190Y-85584380D02*
X95556190Y-84584380D01*
X94937142Y-85584380D02*
X94937142Y-84584380D01*
X94556190Y-84584380D01*
X94460952Y-84632000D01*
X94413333Y-84679619D01*
X94365714Y-84774857D01*
X94365714Y-84917714D01*
X94413333Y-85012952D01*
X94460952Y-85060571D01*
X94556190Y-85108190D01*
X94937142Y-85108190D01*
X93413333Y-85584380D02*
X93984761Y-85584380D01*
X93699047Y-85584380D02*
X93699047Y-84584380D01*
X93794285Y-84727238D01*
X93889523Y-84822476D01*
X93984761Y-84870095D01*
%TO.C,TP4*%
X68301904Y-116124380D02*
X67730476Y-116124380D01*
X68016190Y-117124380D02*
X68016190Y-116124380D01*
X67397142Y-117124380D02*
X67397142Y-116124380D01*
X67016190Y-116124380D01*
X66920952Y-116172000D01*
X66873333Y-116219619D01*
X66825714Y-116314857D01*
X66825714Y-116457714D01*
X66873333Y-116552952D01*
X66920952Y-116600571D01*
X67016190Y-116648190D01*
X67397142Y-116648190D01*
X65968571Y-116457714D02*
X65968571Y-117124380D01*
X66206666Y-116076761D02*
X66444761Y-116791047D01*
X65825714Y-116791047D01*
%TO.C,TP7*%
X95841904Y-92584380D02*
X95270476Y-92584380D01*
X95556190Y-93584380D02*
X95556190Y-92584380D01*
X94937142Y-93584380D02*
X94937142Y-92584380D01*
X94556190Y-92584380D01*
X94460952Y-92632000D01*
X94413333Y-92679619D01*
X94365714Y-92774857D01*
X94365714Y-92917714D01*
X94413333Y-93012952D01*
X94460952Y-93060571D01*
X94556190Y-93108190D01*
X94937142Y-93108190D01*
X94032380Y-92584380D02*
X93365714Y-92584380D01*
X93794285Y-93584380D01*
%TO.C,TP8*%
X119381904Y-120124380D02*
X118810476Y-120124380D01*
X119096190Y-121124380D02*
X119096190Y-120124380D01*
X118477142Y-121124380D02*
X118477142Y-120124380D01*
X118096190Y-120124380D01*
X118000952Y-120172000D01*
X117953333Y-120219619D01*
X117905714Y-120314857D01*
X117905714Y-120457714D01*
X117953333Y-120552952D01*
X118000952Y-120600571D01*
X118096190Y-120648190D01*
X118477142Y-120648190D01*
X117334285Y-120552952D02*
X117429523Y-120505333D01*
X117477142Y-120457714D01*
X117524761Y-120362476D01*
X117524761Y-120314857D01*
X117477142Y-120219619D01*
X117429523Y-120172000D01*
X117334285Y-120124380D01*
X117143809Y-120124380D01*
X117048571Y-120172000D01*
X117000952Y-120219619D01*
X116953333Y-120314857D01*
X116953333Y-120362476D01*
X117000952Y-120457714D01*
X117048571Y-120505333D01*
X117143809Y-120552952D01*
X117334285Y-120552952D01*
X117429523Y-120600571D01*
X117477142Y-120648190D01*
X117524761Y-120743428D01*
X117524761Y-120933904D01*
X117477142Y-121029142D01*
X117429523Y-121076761D01*
X117334285Y-121124380D01*
X117143809Y-121124380D01*
X117048571Y-121076761D01*
X117000952Y-121029142D01*
X116953333Y-120933904D01*
X116953333Y-120743428D01*
X117000952Y-120648190D01*
X117048571Y-120600571D01*
X117143809Y-120552952D01*
X36761904Y-92584380D02*
X36190476Y-92584380D01*
X36476190Y-93584380D02*
X36476190Y-92584380D01*
X35857142Y-93584380D02*
X35857142Y-92584380D01*
X35476190Y-92584380D01*
X35380952Y-92632000D01*
X35333333Y-92679619D01*
X35285714Y-92774857D01*
X35285714Y-92917714D01*
X35333333Y-93012952D01*
X35380952Y-93060571D01*
X35476190Y-93108190D01*
X35857142Y-93108190D01*
X34714285Y-93012952D02*
X34809523Y-92965333D01*
X34857142Y-92917714D01*
X34904761Y-92822476D01*
X34904761Y-92774857D01*
X34857142Y-92679619D01*
X34809523Y-92632000D01*
X34714285Y-92584380D01*
X34523809Y-92584380D01*
X34428571Y-92632000D01*
X34380952Y-92679619D01*
X34333333Y-92774857D01*
X34333333Y-92822476D01*
X34380952Y-92917714D01*
X34428571Y-92965333D01*
X34523809Y-93012952D01*
X34714285Y-93012952D01*
X34809523Y-93060571D01*
X34857142Y-93108190D01*
X34904761Y-93203428D01*
X34904761Y-93393904D01*
X34857142Y-93489142D01*
X34809523Y-93536761D01*
X34714285Y-93584380D01*
X34523809Y-93584380D01*
X34428571Y-93536761D01*
X34380952Y-93489142D01*
X34333333Y-93393904D01*
X34333333Y-93203428D01*
X34380952Y-93108190D01*
X34428571Y-93060571D01*
X34523809Y-93012952D01*
%TO.C,TP4*%
X40761904Y-61044380D02*
X40190476Y-61044380D01*
X40476190Y-62044380D02*
X40476190Y-61044380D01*
X39857142Y-62044380D02*
X39857142Y-61044380D01*
X39476190Y-61044380D01*
X39380952Y-61092000D01*
X39333333Y-61139619D01*
X39285714Y-61234857D01*
X39285714Y-61377714D01*
X39333333Y-61472952D01*
X39380952Y-61520571D01*
X39476190Y-61568190D01*
X39857142Y-61568190D01*
X38428571Y-61377714D02*
X38428571Y-62044380D01*
X38666666Y-60996761D02*
X38904761Y-61711047D01*
X38285714Y-61711047D01*
%TO.C,TP2*%
X64301904Y-29504380D02*
X63730476Y-29504380D01*
X64016190Y-30504380D02*
X64016190Y-29504380D01*
X63397142Y-30504380D02*
X63397142Y-29504380D01*
X63016190Y-29504380D01*
X62920952Y-29552000D01*
X62873333Y-29599619D01*
X62825714Y-29694857D01*
X62825714Y-29837714D01*
X62873333Y-29932952D01*
X62920952Y-29980571D01*
X63016190Y-30028190D01*
X63397142Y-30028190D01*
X62444761Y-29599619D02*
X62397142Y-29552000D01*
X62301904Y-29504380D01*
X62063809Y-29504380D01*
X61968571Y-29552000D01*
X61920952Y-29599619D01*
X61873333Y-29694857D01*
X61873333Y-29790095D01*
X61920952Y-29932952D01*
X62492380Y-30504380D01*
X61873333Y-30504380D01*
%TO.C,TP1*%
X68301904Y-112124380D02*
X67730476Y-112124380D01*
X68016190Y-113124380D02*
X68016190Y-112124380D01*
X67397142Y-113124380D02*
X67397142Y-112124380D01*
X67016190Y-112124380D01*
X66920952Y-112172000D01*
X66873333Y-112219619D01*
X66825714Y-112314857D01*
X66825714Y-112457714D01*
X66873333Y-112552952D01*
X66920952Y-112600571D01*
X67016190Y-112648190D01*
X67397142Y-112648190D01*
X65873333Y-113124380D02*
X66444761Y-113124380D01*
X66159047Y-113124380D02*
X66159047Y-112124380D01*
X66254285Y-112267238D01*
X66349523Y-112362476D01*
X66444761Y-112410095D01*
%TO.C,TP2*%
X36761904Y-29504380D02*
X36190476Y-29504380D01*
X36476190Y-30504380D02*
X36476190Y-29504380D01*
X35857142Y-30504380D02*
X35857142Y-29504380D01*
X35476190Y-29504380D01*
X35380952Y-29552000D01*
X35333333Y-29599619D01*
X35285714Y-29694857D01*
X35285714Y-29837714D01*
X35333333Y-29932952D01*
X35380952Y-29980571D01*
X35476190Y-30028190D01*
X35857142Y-30028190D01*
X34904761Y-29599619D02*
X34857142Y-29552000D01*
X34761904Y-29504380D01*
X34523809Y-29504380D01*
X34428571Y-29552000D01*
X34380952Y-29599619D01*
X34333333Y-29694857D01*
X34333333Y-29790095D01*
X34380952Y-29932952D01*
X34952380Y-30504380D01*
X34333333Y-30504380D01*
X91841904Y-112124380D02*
X91270476Y-112124380D01*
X91556190Y-113124380D02*
X91556190Y-112124380D01*
X90937142Y-113124380D02*
X90937142Y-112124380D01*
X90556190Y-112124380D01*
X90460952Y-112172000D01*
X90413333Y-112219619D01*
X90365714Y-112314857D01*
X90365714Y-112457714D01*
X90413333Y-112552952D01*
X90460952Y-112600571D01*
X90556190Y-112648190D01*
X90937142Y-112648190D01*
X89984761Y-112219619D02*
X89937142Y-112172000D01*
X89841904Y-112124380D01*
X89603809Y-112124380D01*
X89508571Y-112172000D01*
X89460952Y-112219619D01*
X89413333Y-112314857D01*
X89413333Y-112410095D01*
X89460952Y-112552952D01*
X90032380Y-113124380D01*
X89413333Y-113124380D01*
%TO.C,TP4*%
X95841904Y-61044380D02*
X95270476Y-61044380D01*
X95556190Y-62044380D02*
X95556190Y-61044380D01*
X94937142Y-62044380D02*
X94937142Y-61044380D01*
X94556190Y-61044380D01*
X94460952Y-61092000D01*
X94413333Y-61139619D01*
X94365714Y-61234857D01*
X94365714Y-61377714D01*
X94413333Y-61472952D01*
X94460952Y-61520571D01*
X94556190Y-61568190D01*
X94937142Y-61568190D01*
X93508571Y-61377714D02*
X93508571Y-62044380D01*
X93746666Y-60996761D02*
X93984761Y-61711047D01*
X93365714Y-61711047D01*
%TO.C,TP7*%
X95841904Y-37504380D02*
X95270476Y-37504380D01*
X95556190Y-38504380D02*
X95556190Y-37504380D01*
X94937142Y-38504380D02*
X94937142Y-37504380D01*
X94556190Y-37504380D01*
X94460952Y-37552000D01*
X94413333Y-37599619D01*
X94365714Y-37694857D01*
X94365714Y-37837714D01*
X94413333Y-37932952D01*
X94460952Y-37980571D01*
X94556190Y-38028190D01*
X94937142Y-38028190D01*
X94032380Y-37504380D02*
X93365714Y-37504380D01*
X93794285Y-38504380D01*
%TO.C,TP4*%
X123381904Y-116124380D02*
X122810476Y-116124380D01*
X123096190Y-117124380D02*
X123096190Y-116124380D01*
X122477142Y-117124380D02*
X122477142Y-116124380D01*
X122096190Y-116124380D01*
X122000952Y-116172000D01*
X121953333Y-116219619D01*
X121905714Y-116314857D01*
X121905714Y-116457714D01*
X121953333Y-116552952D01*
X122000952Y-116600571D01*
X122096190Y-116648190D01*
X122477142Y-116648190D01*
X121048571Y-116457714D02*
X121048571Y-117124380D01*
X121286666Y-116076761D02*
X121524761Y-116791047D01*
X120905714Y-116791047D01*
%TO.C,TP2*%
X119381904Y-29504380D02*
X118810476Y-29504380D01*
X119096190Y-30504380D02*
X119096190Y-29504380D01*
X118477142Y-30504380D02*
X118477142Y-29504380D01*
X118096190Y-29504380D01*
X118000952Y-29552000D01*
X117953333Y-29599619D01*
X117905714Y-29694857D01*
X117905714Y-29837714D01*
X117953333Y-29932952D01*
X118000952Y-29980571D01*
X118096190Y-30028190D01*
X118477142Y-30028190D01*
X117524761Y-29599619D02*
X117477142Y-29552000D01*
X117381904Y-29504380D01*
X117143809Y-29504380D01*
X117048571Y-29552000D01*
X117000952Y-29599619D01*
X116953333Y-29694857D01*
X116953333Y-29790095D01*
X117000952Y-29932952D01*
X117572380Y-30504380D01*
X116953333Y-30504380D01*
%TO.C,TP8*%
X91841904Y-120124380D02*
X91270476Y-120124380D01*
X91556190Y-121124380D02*
X91556190Y-120124380D01*
X90937142Y-121124380D02*
X90937142Y-120124380D01*
X90556190Y-120124380D01*
X90460952Y-120172000D01*
X90413333Y-120219619D01*
X90365714Y-120314857D01*
X90365714Y-120457714D01*
X90413333Y-120552952D01*
X90460952Y-120600571D01*
X90556190Y-120648190D01*
X90937142Y-120648190D01*
X89794285Y-120552952D02*
X89889523Y-120505333D01*
X89937142Y-120457714D01*
X89984761Y-120362476D01*
X89984761Y-120314857D01*
X89937142Y-120219619D01*
X89889523Y-120172000D01*
X89794285Y-120124380D01*
X89603809Y-120124380D01*
X89508571Y-120172000D01*
X89460952Y-120219619D01*
X89413333Y-120314857D01*
X89413333Y-120362476D01*
X89460952Y-120457714D01*
X89508571Y-120505333D01*
X89603809Y-120552952D01*
X89794285Y-120552952D01*
X89889523Y-120600571D01*
X89937142Y-120648190D01*
X89984761Y-120743428D01*
X89984761Y-120933904D01*
X89937142Y-121029142D01*
X89889523Y-121076761D01*
X89794285Y-121124380D01*
X89603809Y-121124380D01*
X89508571Y-121076761D01*
X89460952Y-121029142D01*
X89413333Y-120933904D01*
X89413333Y-120743428D01*
X89460952Y-120648190D01*
X89508571Y-120600571D01*
X89603809Y-120552952D01*
%TO.C,TP7*%
X68301904Y-37504380D02*
X67730476Y-37504380D01*
X68016190Y-38504380D02*
X68016190Y-37504380D01*
X67397142Y-38504380D02*
X67397142Y-37504380D01*
X67016190Y-37504380D01*
X66920952Y-37552000D01*
X66873333Y-37599619D01*
X66825714Y-37694857D01*
X66825714Y-37837714D01*
X66873333Y-37932952D01*
X66920952Y-37980571D01*
X67016190Y-38028190D01*
X67397142Y-38028190D01*
X66492380Y-37504380D02*
X65825714Y-37504380D01*
X66254285Y-38504380D01*
%TO.C,TP9*%
X87841904Y-37504380D02*
X87270476Y-37504380D01*
X87556190Y-38504380D02*
X87556190Y-37504380D01*
X86937142Y-38504380D02*
X86937142Y-37504380D01*
X86556190Y-37504380D01*
X86460952Y-37552000D01*
X86413333Y-37599619D01*
X86365714Y-37694857D01*
X86365714Y-37837714D01*
X86413333Y-37932952D01*
X86460952Y-37980571D01*
X86556190Y-38028190D01*
X86937142Y-38028190D01*
X85889523Y-38504380D02*
X85699047Y-38504380D01*
X85603809Y-38456761D01*
X85556190Y-38409142D01*
X85460952Y-38266285D01*
X85413333Y-38075809D01*
X85413333Y-37694857D01*
X85460952Y-37599619D01*
X85508571Y-37552000D01*
X85603809Y-37504380D01*
X85794285Y-37504380D01*
X85889523Y-37552000D01*
X85937142Y-37599619D01*
X85984761Y-37694857D01*
X85984761Y-37932952D01*
X85937142Y-38028190D01*
X85889523Y-38075809D01*
X85794285Y-38123428D01*
X85603809Y-38123428D01*
X85508571Y-38075809D01*
X85460952Y-38028190D01*
X85413333Y-37932952D01*
%TO.C,TP7*%
X68301904Y-120124380D02*
X67730476Y-120124380D01*
X68016190Y-121124380D02*
X68016190Y-120124380D01*
X67397142Y-121124380D02*
X67397142Y-120124380D01*
X67016190Y-120124380D01*
X66920952Y-120172000D01*
X66873333Y-120219619D01*
X66825714Y-120314857D01*
X66825714Y-120457714D01*
X66873333Y-120552952D01*
X66920952Y-120600571D01*
X67016190Y-120648190D01*
X67397142Y-120648190D01*
X66492380Y-120124380D02*
X65825714Y-120124380D01*
X66254285Y-121124380D01*
%TO.C,TP1*%
X123381904Y-29504380D02*
X122810476Y-29504380D01*
X123096190Y-30504380D02*
X123096190Y-29504380D01*
X122477142Y-30504380D02*
X122477142Y-29504380D01*
X122096190Y-29504380D01*
X122000952Y-29552000D01*
X121953333Y-29599619D01*
X121905714Y-29694857D01*
X121905714Y-29837714D01*
X121953333Y-29932952D01*
X122000952Y-29980571D01*
X122096190Y-30028190D01*
X122477142Y-30028190D01*
X120953333Y-30504380D02*
X121524761Y-30504380D01*
X121239047Y-30504380D02*
X121239047Y-29504380D01*
X121334285Y-29647238D01*
X121429523Y-29742476D01*
X121524761Y-29790095D01*
X123381904Y-57044380D02*
X122810476Y-57044380D01*
X123096190Y-58044380D02*
X123096190Y-57044380D01*
X122477142Y-58044380D02*
X122477142Y-57044380D01*
X122096190Y-57044380D01*
X122000952Y-57092000D01*
X121953333Y-57139619D01*
X121905714Y-57234857D01*
X121905714Y-57377714D01*
X121953333Y-57472952D01*
X122000952Y-57520571D01*
X122096190Y-57568190D01*
X122477142Y-57568190D01*
X120953333Y-58044380D02*
X121524761Y-58044380D01*
X121239047Y-58044380D02*
X121239047Y-57044380D01*
X121334285Y-57187238D01*
X121429523Y-57282476D01*
X121524761Y-57330095D01*
%TO.C,TP3*%
X60301904Y-112124380D02*
X59730476Y-112124380D01*
X60016190Y-113124380D02*
X60016190Y-112124380D01*
X59397142Y-113124380D02*
X59397142Y-112124380D01*
X59016190Y-112124380D01*
X58920952Y-112172000D01*
X58873333Y-112219619D01*
X58825714Y-112314857D01*
X58825714Y-112457714D01*
X58873333Y-112552952D01*
X58920952Y-112600571D01*
X59016190Y-112648190D01*
X59397142Y-112648190D01*
X58492380Y-112124380D02*
X57873333Y-112124380D01*
X58206666Y-112505333D01*
X58063809Y-112505333D01*
X57968571Y-112552952D01*
X57920952Y-112600571D01*
X57873333Y-112695809D01*
X57873333Y-112933904D01*
X57920952Y-113029142D01*
X57968571Y-113076761D01*
X58063809Y-113124380D01*
X58349523Y-113124380D01*
X58444761Y-113076761D01*
X58492380Y-113029142D01*
X60301904Y-29504380D02*
X59730476Y-29504380D01*
X60016190Y-30504380D02*
X60016190Y-29504380D01*
X59397142Y-30504380D02*
X59397142Y-29504380D01*
X59016190Y-29504380D01*
X58920952Y-29552000D01*
X58873333Y-29599619D01*
X58825714Y-29694857D01*
X58825714Y-29837714D01*
X58873333Y-29932952D01*
X58920952Y-29980571D01*
X59016190Y-30028190D01*
X59397142Y-30028190D01*
X58492380Y-29504380D02*
X57873333Y-29504380D01*
X58206666Y-29885333D01*
X58063809Y-29885333D01*
X57968571Y-29932952D01*
X57920952Y-29980571D01*
X57873333Y-30075809D01*
X57873333Y-30313904D01*
X57920952Y-30409142D01*
X57968571Y-30456761D01*
X58063809Y-30504380D01*
X58349523Y-30504380D01*
X58444761Y-30456761D01*
X58492380Y-30409142D01*
%TO.C,TP7*%
X95841904Y-65044380D02*
X95270476Y-65044380D01*
X95556190Y-66044380D02*
X95556190Y-65044380D01*
X94937142Y-66044380D02*
X94937142Y-65044380D01*
X94556190Y-65044380D01*
X94460952Y-65092000D01*
X94413333Y-65139619D01*
X94365714Y-65234857D01*
X94365714Y-65377714D01*
X94413333Y-65472952D01*
X94460952Y-65520571D01*
X94556190Y-65568190D01*
X94937142Y-65568190D01*
X94032380Y-65044380D02*
X93365714Y-65044380D01*
X93794285Y-66044380D01*
%TO.C,TP3*%
X115381904Y-84584380D02*
X114810476Y-84584380D01*
X115096190Y-85584380D02*
X115096190Y-84584380D01*
X114477142Y-85584380D02*
X114477142Y-84584380D01*
X114096190Y-84584380D01*
X114000952Y-84632000D01*
X113953333Y-84679619D01*
X113905714Y-84774857D01*
X113905714Y-84917714D01*
X113953333Y-85012952D01*
X114000952Y-85060571D01*
X114096190Y-85108190D01*
X114477142Y-85108190D01*
X113572380Y-84584380D02*
X112953333Y-84584380D01*
X113286666Y-84965333D01*
X113143809Y-84965333D01*
X113048571Y-85012952D01*
X113000952Y-85060571D01*
X112953333Y-85155809D01*
X112953333Y-85393904D01*
X113000952Y-85489142D01*
X113048571Y-85536761D01*
X113143809Y-85584380D01*
X113429523Y-85584380D01*
X113524761Y-85536761D01*
X113572380Y-85489142D01*
%TO.C,TP7*%
X123381904Y-92584380D02*
X122810476Y-92584380D01*
X123096190Y-93584380D02*
X123096190Y-92584380D01*
X122477142Y-93584380D02*
X122477142Y-92584380D01*
X122096190Y-92584380D01*
X122000952Y-92632000D01*
X121953333Y-92679619D01*
X121905714Y-92774857D01*
X121905714Y-92917714D01*
X121953333Y-93012952D01*
X122000952Y-93060571D01*
X122096190Y-93108190D01*
X122477142Y-93108190D01*
X121572380Y-92584380D02*
X120905714Y-92584380D01*
X121334285Y-93584380D01*
%TO.C,TP5*%
X91841904Y-33504380D02*
X91270476Y-33504380D01*
X91556190Y-34504380D02*
X91556190Y-33504380D01*
X90937142Y-34504380D02*
X90937142Y-33504380D01*
X90556190Y-33504380D01*
X90460952Y-33552000D01*
X90413333Y-33599619D01*
X90365714Y-33694857D01*
X90365714Y-33837714D01*
X90413333Y-33932952D01*
X90460952Y-33980571D01*
X90556190Y-34028190D01*
X90937142Y-34028190D01*
X89460952Y-33504380D02*
X89937142Y-33504380D01*
X89984761Y-33980571D01*
X89937142Y-33932952D01*
X89841904Y-33885333D01*
X89603809Y-33885333D01*
X89508571Y-33932952D01*
X89460952Y-33980571D01*
X89413333Y-34075809D01*
X89413333Y-34313904D01*
X89460952Y-34409142D01*
X89508571Y-34456761D01*
X89603809Y-34504380D01*
X89841904Y-34504380D01*
X89937142Y-34456761D01*
X89984761Y-34409142D01*
%TO.C,TP7*%
X40761904Y-65044380D02*
X40190476Y-65044380D01*
X40476190Y-66044380D02*
X40476190Y-65044380D01*
X39857142Y-66044380D02*
X39857142Y-65044380D01*
X39476190Y-65044380D01*
X39380952Y-65092000D01*
X39333333Y-65139619D01*
X39285714Y-65234857D01*
X39285714Y-65377714D01*
X39333333Y-65472952D01*
X39380952Y-65520571D01*
X39476190Y-65568190D01*
X39857142Y-65568190D01*
X38952380Y-65044380D02*
X38285714Y-65044380D01*
X38714285Y-66044380D01*
%TO.C,TP9*%
X87841904Y-92584380D02*
X87270476Y-92584380D01*
X87556190Y-93584380D02*
X87556190Y-92584380D01*
X86937142Y-93584380D02*
X86937142Y-92584380D01*
X86556190Y-92584380D01*
X86460952Y-92632000D01*
X86413333Y-92679619D01*
X86365714Y-92774857D01*
X86365714Y-92917714D01*
X86413333Y-93012952D01*
X86460952Y-93060571D01*
X86556190Y-93108190D01*
X86937142Y-93108190D01*
X85889523Y-93584380D02*
X85699047Y-93584380D01*
X85603809Y-93536761D01*
X85556190Y-93489142D01*
X85460952Y-93346285D01*
X85413333Y-93155809D01*
X85413333Y-92774857D01*
X85460952Y-92679619D01*
X85508571Y-92632000D01*
X85603809Y-92584380D01*
X85794285Y-92584380D01*
X85889523Y-92632000D01*
X85937142Y-92679619D01*
X85984761Y-92774857D01*
X85984761Y-93012952D01*
X85937142Y-93108190D01*
X85889523Y-93155809D01*
X85794285Y-93203428D01*
X85603809Y-93203428D01*
X85508571Y-93155809D01*
X85460952Y-93108190D01*
X85413333Y-93012952D01*
%TO.C,TP4*%
X68301904Y-88584380D02*
X67730476Y-88584380D01*
X68016190Y-89584380D02*
X68016190Y-88584380D01*
X67397142Y-89584380D02*
X67397142Y-88584380D01*
X67016190Y-88584380D01*
X66920952Y-88632000D01*
X66873333Y-88679619D01*
X66825714Y-88774857D01*
X66825714Y-88917714D01*
X66873333Y-89012952D01*
X66920952Y-89060571D01*
X67016190Y-89108190D01*
X67397142Y-89108190D01*
X65968571Y-88917714D02*
X65968571Y-89584380D01*
X66206666Y-88536761D02*
X66444761Y-89251047D01*
X65825714Y-89251047D01*
%TO.C,TP2*%
X119381904Y-84584380D02*
X118810476Y-84584380D01*
X119096190Y-85584380D02*
X119096190Y-84584380D01*
X118477142Y-85584380D02*
X118477142Y-84584380D01*
X118096190Y-84584380D01*
X118000952Y-84632000D01*
X117953333Y-84679619D01*
X117905714Y-84774857D01*
X117905714Y-84917714D01*
X117953333Y-85012952D01*
X118000952Y-85060571D01*
X118096190Y-85108190D01*
X118477142Y-85108190D01*
X117524761Y-84679619D02*
X117477142Y-84632000D01*
X117381904Y-84584380D01*
X117143809Y-84584380D01*
X117048571Y-84632000D01*
X117000952Y-84679619D01*
X116953333Y-84774857D01*
X116953333Y-84870095D01*
X117000952Y-85012952D01*
X117572380Y-85584380D01*
X116953333Y-85584380D01*
%TO.C,TP6*%
X60301904Y-116124380D02*
X59730476Y-116124380D01*
X60016190Y-117124380D02*
X60016190Y-116124380D01*
X59397142Y-117124380D02*
X59397142Y-116124380D01*
X59016190Y-116124380D01*
X58920952Y-116172000D01*
X58873333Y-116219619D01*
X58825714Y-116314857D01*
X58825714Y-116457714D01*
X58873333Y-116552952D01*
X58920952Y-116600571D01*
X59016190Y-116648190D01*
X59397142Y-116648190D01*
X57968571Y-116124380D02*
X58159047Y-116124380D01*
X58254285Y-116172000D01*
X58301904Y-116219619D01*
X58397142Y-116362476D01*
X58444761Y-116552952D01*
X58444761Y-116933904D01*
X58397142Y-117029142D01*
X58349523Y-117076761D01*
X58254285Y-117124380D01*
X58063809Y-117124380D01*
X57968571Y-117076761D01*
X57920952Y-117029142D01*
X57873333Y-116933904D01*
X57873333Y-116695809D01*
X57920952Y-116600571D01*
X57968571Y-116552952D01*
X58063809Y-116505333D01*
X58254285Y-116505333D01*
X58349523Y-116552952D01*
X58397142Y-116600571D01*
X58444761Y-116695809D01*
%TO.C,TP1*%
X123381904Y-112124380D02*
X122810476Y-112124380D01*
X123096190Y-113124380D02*
X123096190Y-112124380D01*
X122477142Y-113124380D02*
X122477142Y-112124380D01*
X122096190Y-112124380D01*
X122000952Y-112172000D01*
X121953333Y-112219619D01*
X121905714Y-112314857D01*
X121905714Y-112457714D01*
X121953333Y-112552952D01*
X122000952Y-112600571D01*
X122096190Y-112648190D01*
X122477142Y-112648190D01*
X120953333Y-113124380D02*
X121524761Y-113124380D01*
X121239047Y-113124380D02*
X121239047Y-112124380D01*
X121334285Y-112267238D01*
X121429523Y-112362476D01*
X121524761Y-112410095D01*
%TO.C,TP3*%
X32761904Y-29504380D02*
X32190476Y-29504380D01*
X32476190Y-30504380D02*
X32476190Y-29504380D01*
X31857142Y-30504380D02*
X31857142Y-29504380D01*
X31476190Y-29504380D01*
X31380952Y-29552000D01*
X31333333Y-29599619D01*
X31285714Y-29694857D01*
X31285714Y-29837714D01*
X31333333Y-29932952D01*
X31380952Y-29980571D01*
X31476190Y-30028190D01*
X31857142Y-30028190D01*
X30952380Y-29504380D02*
X30333333Y-29504380D01*
X30666666Y-29885333D01*
X30523809Y-29885333D01*
X30428571Y-29932952D01*
X30380952Y-29980571D01*
X30333333Y-30075809D01*
X30333333Y-30313904D01*
X30380952Y-30409142D01*
X30428571Y-30456761D01*
X30523809Y-30504380D01*
X30809523Y-30504380D01*
X30904761Y-30456761D01*
X30952380Y-30409142D01*
%TO.C,TP7*%
X40761904Y-120124380D02*
X40190476Y-120124380D01*
X40476190Y-121124380D02*
X40476190Y-120124380D01*
X39857142Y-121124380D02*
X39857142Y-120124380D01*
X39476190Y-120124380D01*
X39380952Y-120172000D01*
X39333333Y-120219619D01*
X39285714Y-120314857D01*
X39285714Y-120457714D01*
X39333333Y-120552952D01*
X39380952Y-120600571D01*
X39476190Y-120648190D01*
X39857142Y-120648190D01*
X38952380Y-120124380D02*
X38285714Y-120124380D01*
X38714285Y-121124380D01*
%TO.C,TP5*%
X36761904Y-61044380D02*
X36190476Y-61044380D01*
X36476190Y-62044380D02*
X36476190Y-61044380D01*
X35857142Y-62044380D02*
X35857142Y-61044380D01*
X35476190Y-61044380D01*
X35380952Y-61092000D01*
X35333333Y-61139619D01*
X35285714Y-61234857D01*
X35285714Y-61377714D01*
X35333333Y-61472952D01*
X35380952Y-61520571D01*
X35476190Y-61568190D01*
X35857142Y-61568190D01*
X34380952Y-61044380D02*
X34857142Y-61044380D01*
X34904761Y-61520571D01*
X34857142Y-61472952D01*
X34761904Y-61425333D01*
X34523809Y-61425333D01*
X34428571Y-61472952D01*
X34380952Y-61520571D01*
X34333333Y-61615809D01*
X34333333Y-61853904D01*
X34380952Y-61949142D01*
X34428571Y-61996761D01*
X34523809Y-62044380D01*
X34761904Y-62044380D01*
X34857142Y-61996761D01*
X34904761Y-61949142D01*
%TO.C,TP7*%
X123381904Y-65044380D02*
X122810476Y-65044380D01*
X123096190Y-66044380D02*
X123096190Y-65044380D01*
X122477142Y-66044380D02*
X122477142Y-65044380D01*
X122096190Y-65044380D01*
X122000952Y-65092000D01*
X121953333Y-65139619D01*
X121905714Y-65234857D01*
X121905714Y-65377714D01*
X121953333Y-65472952D01*
X122000952Y-65520571D01*
X122096190Y-65568190D01*
X122477142Y-65568190D01*
X121572380Y-65044380D02*
X120905714Y-65044380D01*
X121334285Y-66044380D01*
%TO.C,TP1*%
X40761904Y-29504380D02*
X40190476Y-29504380D01*
X40476190Y-30504380D02*
X40476190Y-29504380D01*
X39857142Y-30504380D02*
X39857142Y-29504380D01*
X39476190Y-29504380D01*
X39380952Y-29552000D01*
X39333333Y-29599619D01*
X39285714Y-29694857D01*
X39285714Y-29837714D01*
X39333333Y-29932952D01*
X39380952Y-29980571D01*
X39476190Y-30028190D01*
X39857142Y-30028190D01*
X38333333Y-30504380D02*
X38904761Y-30504380D01*
X38619047Y-30504380D02*
X38619047Y-29504380D01*
X38714285Y-29647238D01*
X38809523Y-29742476D01*
X38904761Y-29790095D01*
%TO.C,TP4*%
X123381904Y-61044380D02*
X122810476Y-61044380D01*
X123096190Y-62044380D02*
X123096190Y-61044380D01*
X122477142Y-62044380D02*
X122477142Y-61044380D01*
X122096190Y-61044380D01*
X122000952Y-61092000D01*
X121953333Y-61139619D01*
X121905714Y-61234857D01*
X121905714Y-61377714D01*
X121953333Y-61472952D01*
X122000952Y-61520571D01*
X122096190Y-61568190D01*
X122477142Y-61568190D01*
X121048571Y-61377714D02*
X121048571Y-62044380D01*
X121286666Y-60996761D02*
X121524761Y-61711047D01*
X120905714Y-61711047D01*
%TO.C,TP5*%
X36761904Y-88584380D02*
X36190476Y-88584380D01*
X36476190Y-89584380D02*
X36476190Y-88584380D01*
X35857142Y-89584380D02*
X35857142Y-88584380D01*
X35476190Y-88584380D01*
X35380952Y-88632000D01*
X35333333Y-88679619D01*
X35285714Y-88774857D01*
X35285714Y-88917714D01*
X35333333Y-89012952D01*
X35380952Y-89060571D01*
X35476190Y-89108190D01*
X35857142Y-89108190D01*
X34380952Y-88584380D02*
X34857142Y-88584380D01*
X34904761Y-89060571D01*
X34857142Y-89012952D01*
X34761904Y-88965333D01*
X34523809Y-88965333D01*
X34428571Y-89012952D01*
X34380952Y-89060571D01*
X34333333Y-89155809D01*
X34333333Y-89393904D01*
X34380952Y-89489142D01*
X34428571Y-89536761D01*
X34523809Y-89584380D01*
X34761904Y-89584380D01*
X34857142Y-89536761D01*
X34904761Y-89489142D01*
%TO.C,TP6*%
X87841904Y-116124380D02*
X87270476Y-116124380D01*
X87556190Y-117124380D02*
X87556190Y-116124380D01*
X86937142Y-117124380D02*
X86937142Y-116124380D01*
X86556190Y-116124380D01*
X86460952Y-116172000D01*
X86413333Y-116219619D01*
X86365714Y-116314857D01*
X86365714Y-116457714D01*
X86413333Y-116552952D01*
X86460952Y-116600571D01*
X86556190Y-116648190D01*
X86937142Y-116648190D01*
X85508571Y-116124380D02*
X85699047Y-116124380D01*
X85794285Y-116172000D01*
X85841904Y-116219619D01*
X85937142Y-116362476D01*
X85984761Y-116552952D01*
X85984761Y-116933904D01*
X85937142Y-117029142D01*
X85889523Y-117076761D01*
X85794285Y-117124380D01*
X85603809Y-117124380D01*
X85508571Y-117076761D01*
X85460952Y-117029142D01*
X85413333Y-116933904D01*
X85413333Y-116695809D01*
X85460952Y-116600571D01*
X85508571Y-116552952D01*
X85603809Y-116505333D01*
X85794285Y-116505333D01*
X85889523Y-116552952D01*
X85937142Y-116600571D01*
X85984761Y-116695809D01*
%TO.C,TP1*%
X68301904Y-57044380D02*
X67730476Y-57044380D01*
X68016190Y-58044380D02*
X68016190Y-57044380D01*
X67397142Y-58044380D02*
X67397142Y-57044380D01*
X67016190Y-57044380D01*
X66920952Y-57092000D01*
X66873333Y-57139619D01*
X66825714Y-57234857D01*
X66825714Y-57377714D01*
X66873333Y-57472952D01*
X66920952Y-57520571D01*
X67016190Y-57568190D01*
X67397142Y-57568190D01*
X65873333Y-58044380D02*
X66444761Y-58044380D01*
X66159047Y-58044380D02*
X66159047Y-57044380D01*
X66254285Y-57187238D01*
X66349523Y-57282476D01*
X66444761Y-57330095D01*
X40761904Y-84584380D02*
X40190476Y-84584380D01*
X40476190Y-85584380D02*
X40476190Y-84584380D01*
X39857142Y-85584380D02*
X39857142Y-84584380D01*
X39476190Y-84584380D01*
X39380952Y-84632000D01*
X39333333Y-84679619D01*
X39285714Y-84774857D01*
X39285714Y-84917714D01*
X39333333Y-85012952D01*
X39380952Y-85060571D01*
X39476190Y-85108190D01*
X39857142Y-85108190D01*
X38333333Y-85584380D02*
X38904761Y-85584380D01*
X38619047Y-85584380D02*
X38619047Y-84584380D01*
X38714285Y-84727238D01*
X38809523Y-84822476D01*
X38904761Y-84870095D01*
%TO.C,TP6*%
X32761904Y-61044380D02*
X32190476Y-61044380D01*
X32476190Y-62044380D02*
X32476190Y-61044380D01*
X31857142Y-62044380D02*
X31857142Y-61044380D01*
X31476190Y-61044380D01*
X31380952Y-61092000D01*
X31333333Y-61139619D01*
X31285714Y-61234857D01*
X31285714Y-61377714D01*
X31333333Y-61472952D01*
X31380952Y-61520571D01*
X31476190Y-61568190D01*
X31857142Y-61568190D01*
X30428571Y-61044380D02*
X30619047Y-61044380D01*
X30714285Y-61092000D01*
X30761904Y-61139619D01*
X30857142Y-61282476D01*
X30904761Y-61472952D01*
X30904761Y-61853904D01*
X30857142Y-61949142D01*
X30809523Y-61996761D01*
X30714285Y-62044380D01*
X30523809Y-62044380D01*
X30428571Y-61996761D01*
X30380952Y-61949142D01*
X30333333Y-61853904D01*
X30333333Y-61615809D01*
X30380952Y-61520571D01*
X30428571Y-61472952D01*
X30523809Y-61425333D01*
X30714285Y-61425333D01*
X30809523Y-61472952D01*
X30857142Y-61520571D01*
X30904761Y-61615809D01*
%TO.C,TP4*%
X95841904Y-116124380D02*
X95270476Y-116124380D01*
X95556190Y-117124380D02*
X95556190Y-116124380D01*
X94937142Y-117124380D02*
X94937142Y-116124380D01*
X94556190Y-116124380D01*
X94460952Y-116172000D01*
X94413333Y-116219619D01*
X94365714Y-116314857D01*
X94365714Y-116457714D01*
X94413333Y-116552952D01*
X94460952Y-116600571D01*
X94556190Y-116648190D01*
X94937142Y-116648190D01*
X93508571Y-116457714D02*
X93508571Y-117124380D01*
X93746666Y-116076761D02*
X93984761Y-116791047D01*
X93365714Y-116791047D01*
%TO.C,TP6*%
X60301904Y-33504380D02*
X59730476Y-33504380D01*
X60016190Y-34504380D02*
X60016190Y-33504380D01*
X59397142Y-34504380D02*
X59397142Y-33504380D01*
X59016190Y-33504380D01*
X58920952Y-33552000D01*
X58873333Y-33599619D01*
X58825714Y-33694857D01*
X58825714Y-33837714D01*
X58873333Y-33932952D01*
X58920952Y-33980571D01*
X59016190Y-34028190D01*
X59397142Y-34028190D01*
X57968571Y-33504380D02*
X58159047Y-33504380D01*
X58254285Y-33552000D01*
X58301904Y-33599619D01*
X58397142Y-33742476D01*
X58444761Y-33932952D01*
X58444761Y-34313904D01*
X58397142Y-34409142D01*
X58349523Y-34456761D01*
X58254285Y-34504380D01*
X58063809Y-34504380D01*
X57968571Y-34456761D01*
X57920952Y-34409142D01*
X57873333Y-34313904D01*
X57873333Y-34075809D01*
X57920952Y-33980571D01*
X57968571Y-33932952D01*
X58063809Y-33885333D01*
X58254285Y-33885333D01*
X58349523Y-33932952D01*
X58397142Y-33980571D01*
X58444761Y-34075809D01*
%TO.C,TP5*%
X64301904Y-88584380D02*
X63730476Y-88584380D01*
X64016190Y-89584380D02*
X64016190Y-88584380D01*
X63397142Y-89584380D02*
X63397142Y-88584380D01*
X63016190Y-88584380D01*
X62920952Y-88632000D01*
X62873333Y-88679619D01*
X62825714Y-88774857D01*
X62825714Y-88917714D01*
X62873333Y-89012952D01*
X62920952Y-89060571D01*
X63016190Y-89108190D01*
X63397142Y-89108190D01*
X61920952Y-88584380D02*
X62397142Y-88584380D01*
X62444761Y-89060571D01*
X62397142Y-89012952D01*
X62301904Y-88965333D01*
X62063809Y-88965333D01*
X61968571Y-89012952D01*
X61920952Y-89060571D01*
X61873333Y-89155809D01*
X61873333Y-89393904D01*
X61920952Y-89489142D01*
X61968571Y-89536761D01*
X62063809Y-89584380D01*
X62301904Y-89584380D01*
X62397142Y-89536761D01*
X62444761Y-89489142D01*
%TO.C,TP3*%
X87841904Y-57044380D02*
X87270476Y-57044380D01*
X87556190Y-58044380D02*
X87556190Y-57044380D01*
X86937142Y-58044380D02*
X86937142Y-57044380D01*
X86556190Y-57044380D01*
X86460952Y-57092000D01*
X86413333Y-57139619D01*
X86365714Y-57234857D01*
X86365714Y-57377714D01*
X86413333Y-57472952D01*
X86460952Y-57520571D01*
X86556190Y-57568190D01*
X86937142Y-57568190D01*
X86032380Y-57044380D02*
X85413333Y-57044380D01*
X85746666Y-57425333D01*
X85603809Y-57425333D01*
X85508571Y-57472952D01*
X85460952Y-57520571D01*
X85413333Y-57615809D01*
X85413333Y-57853904D01*
X85460952Y-57949142D01*
X85508571Y-57996761D01*
X85603809Y-58044380D01*
X85889523Y-58044380D01*
X85984761Y-57996761D01*
X86032380Y-57949142D01*
%TO.C,TP2*%
X91841904Y-29504380D02*
X91270476Y-29504380D01*
X91556190Y-30504380D02*
X91556190Y-29504380D01*
X90937142Y-30504380D02*
X90937142Y-29504380D01*
X90556190Y-29504380D01*
X90460952Y-29552000D01*
X90413333Y-29599619D01*
X90365714Y-29694857D01*
X90365714Y-29837714D01*
X90413333Y-29932952D01*
X90460952Y-29980571D01*
X90556190Y-30028190D01*
X90937142Y-30028190D01*
X89984761Y-29599619D02*
X89937142Y-29552000D01*
X89841904Y-29504380D01*
X89603809Y-29504380D01*
X89508571Y-29552000D01*
X89460952Y-29599619D01*
X89413333Y-29694857D01*
X89413333Y-29790095D01*
X89460952Y-29932952D01*
X90032380Y-30504380D01*
X89413333Y-30504380D01*
%TO.C,TP4*%
X40761904Y-116124380D02*
X40190476Y-116124380D01*
X40476190Y-117124380D02*
X40476190Y-116124380D01*
X39857142Y-117124380D02*
X39857142Y-116124380D01*
X39476190Y-116124380D01*
X39380952Y-116172000D01*
X39333333Y-116219619D01*
X39285714Y-116314857D01*
X39285714Y-116457714D01*
X39333333Y-116552952D01*
X39380952Y-116600571D01*
X39476190Y-116648190D01*
X39857142Y-116648190D01*
X38428571Y-116457714D02*
X38428571Y-117124380D01*
X38666666Y-116076761D02*
X38904761Y-116791047D01*
X38285714Y-116791047D01*
%TO.C,TP1*%
X40761904Y-57044380D02*
X40190476Y-57044380D01*
X40476190Y-58044380D02*
X40476190Y-57044380D01*
X39857142Y-58044380D02*
X39857142Y-57044380D01*
X39476190Y-57044380D01*
X39380952Y-57092000D01*
X39333333Y-57139619D01*
X39285714Y-57234857D01*
X39285714Y-57377714D01*
X39333333Y-57472952D01*
X39380952Y-57520571D01*
X39476190Y-57568190D01*
X39857142Y-57568190D01*
X38333333Y-58044380D02*
X38904761Y-58044380D01*
X38619047Y-58044380D02*
X38619047Y-57044380D01*
X38714285Y-57187238D01*
X38809523Y-57282476D01*
X38904761Y-57330095D01*
%TO.C,TP3*%
X60301904Y-84584380D02*
X59730476Y-84584380D01*
X60016190Y-85584380D02*
X60016190Y-84584380D01*
X59397142Y-85584380D02*
X59397142Y-84584380D01*
X59016190Y-84584380D01*
X58920952Y-84632000D01*
X58873333Y-84679619D01*
X58825714Y-84774857D01*
X58825714Y-84917714D01*
X58873333Y-85012952D01*
X58920952Y-85060571D01*
X59016190Y-85108190D01*
X59397142Y-85108190D01*
X58492380Y-84584380D02*
X57873333Y-84584380D01*
X58206666Y-84965333D01*
X58063809Y-84965333D01*
X57968571Y-85012952D01*
X57920952Y-85060571D01*
X57873333Y-85155809D01*
X57873333Y-85393904D01*
X57920952Y-85489142D01*
X57968571Y-85536761D01*
X58063809Y-85584380D01*
X58349523Y-85584380D01*
X58444761Y-85536761D01*
X58492380Y-85489142D01*
%TO.C,TP2*%
X64301904Y-84584380D02*
X63730476Y-84584380D01*
X64016190Y-85584380D02*
X64016190Y-84584380D01*
X63397142Y-85584380D02*
X63397142Y-84584380D01*
X63016190Y-84584380D01*
X62920952Y-84632000D01*
X62873333Y-84679619D01*
X62825714Y-84774857D01*
X62825714Y-84917714D01*
X62873333Y-85012952D01*
X62920952Y-85060571D01*
X63016190Y-85108190D01*
X63397142Y-85108190D01*
X62444761Y-84679619D02*
X62397142Y-84632000D01*
X62301904Y-84584380D01*
X62063809Y-84584380D01*
X61968571Y-84632000D01*
X61920952Y-84679619D01*
X61873333Y-84774857D01*
X61873333Y-84870095D01*
X61920952Y-85012952D01*
X62492380Y-85584380D01*
X61873333Y-85584380D01*
%TO.C,TP6*%
X32761904Y-116124380D02*
X32190476Y-116124380D01*
X32476190Y-117124380D02*
X32476190Y-116124380D01*
X31857142Y-117124380D02*
X31857142Y-116124380D01*
X31476190Y-116124380D01*
X31380952Y-116172000D01*
X31333333Y-116219619D01*
X31285714Y-116314857D01*
X31285714Y-116457714D01*
X31333333Y-116552952D01*
X31380952Y-116600571D01*
X31476190Y-116648190D01*
X31857142Y-116648190D01*
X30428571Y-116124380D02*
X30619047Y-116124380D01*
X30714285Y-116172000D01*
X30761904Y-116219619D01*
X30857142Y-116362476D01*
X30904761Y-116552952D01*
X30904761Y-116933904D01*
X30857142Y-117029142D01*
X30809523Y-117076761D01*
X30714285Y-117124380D01*
X30523809Y-117124380D01*
X30428571Y-117076761D01*
X30380952Y-117029142D01*
X30333333Y-116933904D01*
X30333333Y-116695809D01*
X30380952Y-116600571D01*
X30428571Y-116552952D01*
X30523809Y-116505333D01*
X30714285Y-116505333D01*
X30809523Y-116552952D01*
X30857142Y-116600571D01*
X30904761Y-116695809D01*
%TO.C,TP2*%
X91841904Y-84584380D02*
X91270476Y-84584380D01*
X91556190Y-85584380D02*
X91556190Y-84584380D01*
X90937142Y-85584380D02*
X90937142Y-84584380D01*
X90556190Y-84584380D01*
X90460952Y-84632000D01*
X90413333Y-84679619D01*
X90365714Y-84774857D01*
X90365714Y-84917714D01*
X90413333Y-85012952D01*
X90460952Y-85060571D01*
X90556190Y-85108190D01*
X90937142Y-85108190D01*
X89984761Y-84679619D02*
X89937142Y-84632000D01*
X89841904Y-84584380D01*
X89603809Y-84584380D01*
X89508571Y-84632000D01*
X89460952Y-84679619D01*
X89413333Y-84774857D01*
X89413333Y-84870095D01*
X89460952Y-85012952D01*
X90032380Y-85584380D01*
X89413333Y-85584380D01*
%TO.C,TP5*%
X119381904Y-116124380D02*
X118810476Y-116124380D01*
X119096190Y-117124380D02*
X119096190Y-116124380D01*
X118477142Y-117124380D02*
X118477142Y-116124380D01*
X118096190Y-116124380D01*
X118000952Y-116172000D01*
X117953333Y-116219619D01*
X117905714Y-116314857D01*
X117905714Y-116457714D01*
X117953333Y-116552952D01*
X118000952Y-116600571D01*
X118096190Y-116648190D01*
X118477142Y-116648190D01*
X117000952Y-116124380D02*
X117477142Y-116124380D01*
X117524761Y-116600571D01*
X117477142Y-116552952D01*
X117381904Y-116505333D01*
X117143809Y-116505333D01*
X117048571Y-116552952D01*
X117000952Y-116600571D01*
X116953333Y-116695809D01*
X116953333Y-116933904D01*
X117000952Y-117029142D01*
X117048571Y-117076761D01*
X117143809Y-117124380D01*
X117381904Y-117124380D01*
X117477142Y-117076761D01*
X117524761Y-117029142D01*
%TO.C,TP4*%
X95841904Y-33504380D02*
X95270476Y-33504380D01*
X95556190Y-34504380D02*
X95556190Y-33504380D01*
X94937142Y-34504380D02*
X94937142Y-33504380D01*
X94556190Y-33504380D01*
X94460952Y-33552000D01*
X94413333Y-33599619D01*
X94365714Y-33694857D01*
X94365714Y-33837714D01*
X94413333Y-33932952D01*
X94460952Y-33980571D01*
X94556190Y-34028190D01*
X94937142Y-34028190D01*
X93508571Y-33837714D02*
X93508571Y-34504380D01*
X93746666Y-33456761D02*
X93984761Y-34171047D01*
X93365714Y-34171047D01*
%TO.C,TP9*%
X32761904Y-37504380D02*
X32190476Y-37504380D01*
X32476190Y-38504380D02*
X32476190Y-37504380D01*
X31857142Y-38504380D02*
X31857142Y-37504380D01*
X31476190Y-37504380D01*
X31380952Y-37552000D01*
X31333333Y-37599619D01*
X31285714Y-37694857D01*
X31285714Y-37837714D01*
X31333333Y-37932952D01*
X31380952Y-37980571D01*
X31476190Y-38028190D01*
X31857142Y-38028190D01*
X30809523Y-38504380D02*
X30619047Y-38504380D01*
X30523809Y-38456761D01*
X30476190Y-38409142D01*
X30380952Y-38266285D01*
X30333333Y-38075809D01*
X30333333Y-37694857D01*
X30380952Y-37599619D01*
X30428571Y-37552000D01*
X30523809Y-37504380D01*
X30714285Y-37504380D01*
X30809523Y-37552000D01*
X30857142Y-37599619D01*
X30904761Y-37694857D01*
X30904761Y-37932952D01*
X30857142Y-38028190D01*
X30809523Y-38075809D01*
X30714285Y-38123428D01*
X30523809Y-38123428D01*
X30428571Y-38075809D01*
X30380952Y-38028190D01*
X30333333Y-37932952D01*
%TO.C,TP6*%
X32761904Y-33504380D02*
X32190476Y-33504380D01*
X32476190Y-34504380D02*
X32476190Y-33504380D01*
X31857142Y-34504380D02*
X31857142Y-33504380D01*
X31476190Y-33504380D01*
X31380952Y-33552000D01*
X31333333Y-33599619D01*
X31285714Y-33694857D01*
X31285714Y-33837714D01*
X31333333Y-33932952D01*
X31380952Y-33980571D01*
X31476190Y-34028190D01*
X31857142Y-34028190D01*
X30428571Y-33504380D02*
X30619047Y-33504380D01*
X30714285Y-33552000D01*
X30761904Y-33599619D01*
X30857142Y-33742476D01*
X30904761Y-33932952D01*
X30904761Y-34313904D01*
X30857142Y-34409142D01*
X30809523Y-34456761D01*
X30714285Y-34504380D01*
X30523809Y-34504380D01*
X30428571Y-34456761D01*
X30380952Y-34409142D01*
X30333333Y-34313904D01*
X30333333Y-34075809D01*
X30380952Y-33980571D01*
X30428571Y-33932952D01*
X30523809Y-33885333D01*
X30714285Y-33885333D01*
X30809523Y-33932952D01*
X30857142Y-33980571D01*
X30904761Y-34075809D01*
X60301904Y-61044380D02*
X59730476Y-61044380D01*
X60016190Y-62044380D02*
X60016190Y-61044380D01*
X59397142Y-62044380D02*
X59397142Y-61044380D01*
X59016190Y-61044380D01*
X58920952Y-61092000D01*
X58873333Y-61139619D01*
X58825714Y-61234857D01*
X58825714Y-61377714D01*
X58873333Y-61472952D01*
X58920952Y-61520571D01*
X59016190Y-61568190D01*
X59397142Y-61568190D01*
X57968571Y-61044380D02*
X58159047Y-61044380D01*
X58254285Y-61092000D01*
X58301904Y-61139619D01*
X58397142Y-61282476D01*
X58444761Y-61472952D01*
X58444761Y-61853904D01*
X58397142Y-61949142D01*
X58349523Y-61996761D01*
X58254285Y-62044380D01*
X58063809Y-62044380D01*
X57968571Y-61996761D01*
X57920952Y-61949142D01*
X57873333Y-61853904D01*
X57873333Y-61615809D01*
X57920952Y-61520571D01*
X57968571Y-61472952D01*
X58063809Y-61425333D01*
X58254285Y-61425333D01*
X58349523Y-61472952D01*
X58397142Y-61520571D01*
X58444761Y-61615809D01*
%TO.C,TP8*%
X64301904Y-65044380D02*
X63730476Y-65044380D01*
X64016190Y-66044380D02*
X64016190Y-65044380D01*
X63397142Y-66044380D02*
X63397142Y-65044380D01*
X63016190Y-65044380D01*
X62920952Y-65092000D01*
X62873333Y-65139619D01*
X62825714Y-65234857D01*
X62825714Y-65377714D01*
X62873333Y-65472952D01*
X62920952Y-65520571D01*
X63016190Y-65568190D01*
X63397142Y-65568190D01*
X62254285Y-65472952D02*
X62349523Y-65425333D01*
X62397142Y-65377714D01*
X62444761Y-65282476D01*
X62444761Y-65234857D01*
X62397142Y-65139619D01*
X62349523Y-65092000D01*
X62254285Y-65044380D01*
X62063809Y-65044380D01*
X61968571Y-65092000D01*
X61920952Y-65139619D01*
X61873333Y-65234857D01*
X61873333Y-65282476D01*
X61920952Y-65377714D01*
X61968571Y-65425333D01*
X62063809Y-65472952D01*
X62254285Y-65472952D01*
X62349523Y-65520571D01*
X62397142Y-65568190D01*
X62444761Y-65663428D01*
X62444761Y-65853904D01*
X62397142Y-65949142D01*
X62349523Y-65996761D01*
X62254285Y-66044380D01*
X62063809Y-66044380D01*
X61968571Y-65996761D01*
X61920952Y-65949142D01*
X61873333Y-65853904D01*
X61873333Y-65663428D01*
X61920952Y-65568190D01*
X61968571Y-65520571D01*
X62063809Y-65472952D01*
X91841904Y-92584380D02*
X91270476Y-92584380D01*
X91556190Y-93584380D02*
X91556190Y-92584380D01*
X90937142Y-93584380D02*
X90937142Y-92584380D01*
X90556190Y-92584380D01*
X90460952Y-92632000D01*
X90413333Y-92679619D01*
X90365714Y-92774857D01*
X90365714Y-92917714D01*
X90413333Y-93012952D01*
X90460952Y-93060571D01*
X90556190Y-93108190D01*
X90937142Y-93108190D01*
X89794285Y-93012952D02*
X89889523Y-92965333D01*
X89937142Y-92917714D01*
X89984761Y-92822476D01*
X89984761Y-92774857D01*
X89937142Y-92679619D01*
X89889523Y-92632000D01*
X89794285Y-92584380D01*
X89603809Y-92584380D01*
X89508571Y-92632000D01*
X89460952Y-92679619D01*
X89413333Y-92774857D01*
X89413333Y-92822476D01*
X89460952Y-92917714D01*
X89508571Y-92965333D01*
X89603809Y-93012952D01*
X89794285Y-93012952D01*
X89889523Y-93060571D01*
X89937142Y-93108190D01*
X89984761Y-93203428D01*
X89984761Y-93393904D01*
X89937142Y-93489142D01*
X89889523Y-93536761D01*
X89794285Y-93584380D01*
X89603809Y-93584380D01*
X89508571Y-93536761D01*
X89460952Y-93489142D01*
X89413333Y-93393904D01*
X89413333Y-93203428D01*
X89460952Y-93108190D01*
X89508571Y-93060571D01*
X89603809Y-93012952D01*
%TO.C,TP2*%
X119381904Y-112124380D02*
X118810476Y-112124380D01*
X119096190Y-113124380D02*
X119096190Y-112124380D01*
X118477142Y-113124380D02*
X118477142Y-112124380D01*
X118096190Y-112124380D01*
X118000952Y-112172000D01*
X117953333Y-112219619D01*
X117905714Y-112314857D01*
X117905714Y-112457714D01*
X117953333Y-112552952D01*
X118000952Y-112600571D01*
X118096190Y-112648190D01*
X118477142Y-112648190D01*
X117524761Y-112219619D02*
X117477142Y-112172000D01*
X117381904Y-112124380D01*
X117143809Y-112124380D01*
X117048571Y-112172000D01*
X117000952Y-112219619D01*
X116953333Y-112314857D01*
X116953333Y-112410095D01*
X117000952Y-112552952D01*
X117572380Y-113124380D01*
X116953333Y-113124380D01*
%TO.C,TP3*%
X60301904Y-57044380D02*
X59730476Y-57044380D01*
X60016190Y-58044380D02*
X60016190Y-57044380D01*
X59397142Y-58044380D02*
X59397142Y-57044380D01*
X59016190Y-57044380D01*
X58920952Y-57092000D01*
X58873333Y-57139619D01*
X58825714Y-57234857D01*
X58825714Y-57377714D01*
X58873333Y-57472952D01*
X58920952Y-57520571D01*
X59016190Y-57568190D01*
X59397142Y-57568190D01*
X58492380Y-57044380D02*
X57873333Y-57044380D01*
X58206666Y-57425333D01*
X58063809Y-57425333D01*
X57968571Y-57472952D01*
X57920952Y-57520571D01*
X57873333Y-57615809D01*
X57873333Y-57853904D01*
X57920952Y-57949142D01*
X57968571Y-57996761D01*
X58063809Y-58044380D01*
X58349523Y-58044380D01*
X58444761Y-57996761D01*
X58492380Y-57949142D01*
%TO.C,TP1*%
X68301904Y-29504380D02*
X67730476Y-29504380D01*
X68016190Y-30504380D02*
X68016190Y-29504380D01*
X67397142Y-30504380D02*
X67397142Y-29504380D01*
X67016190Y-29504380D01*
X66920952Y-29552000D01*
X66873333Y-29599619D01*
X66825714Y-29694857D01*
X66825714Y-29837714D01*
X66873333Y-29932952D01*
X66920952Y-29980571D01*
X67016190Y-30028190D01*
X67397142Y-30028190D01*
X65873333Y-30504380D02*
X66444761Y-30504380D01*
X66159047Y-30504380D02*
X66159047Y-29504380D01*
X66254285Y-29647238D01*
X66349523Y-29742476D01*
X66444761Y-29790095D01*
%TO.C,TP8*%
X91841904Y-65044380D02*
X91270476Y-65044380D01*
X91556190Y-66044380D02*
X91556190Y-65044380D01*
X90937142Y-66044380D02*
X90937142Y-65044380D01*
X90556190Y-65044380D01*
X90460952Y-65092000D01*
X90413333Y-65139619D01*
X90365714Y-65234857D01*
X90365714Y-65377714D01*
X90413333Y-65472952D01*
X90460952Y-65520571D01*
X90556190Y-65568190D01*
X90937142Y-65568190D01*
X89794285Y-65472952D02*
X89889523Y-65425333D01*
X89937142Y-65377714D01*
X89984761Y-65282476D01*
X89984761Y-65234857D01*
X89937142Y-65139619D01*
X89889523Y-65092000D01*
X89794285Y-65044380D01*
X89603809Y-65044380D01*
X89508571Y-65092000D01*
X89460952Y-65139619D01*
X89413333Y-65234857D01*
X89413333Y-65282476D01*
X89460952Y-65377714D01*
X89508571Y-65425333D01*
X89603809Y-65472952D01*
X89794285Y-65472952D01*
X89889523Y-65520571D01*
X89937142Y-65568190D01*
X89984761Y-65663428D01*
X89984761Y-65853904D01*
X89937142Y-65949142D01*
X89889523Y-65996761D01*
X89794285Y-66044380D01*
X89603809Y-66044380D01*
X89508571Y-65996761D01*
X89460952Y-65949142D01*
X89413333Y-65853904D01*
X89413333Y-65663428D01*
X89460952Y-65568190D01*
X89508571Y-65520571D01*
X89603809Y-65472952D01*
%TO.C,TP1*%
X95841904Y-57044380D02*
X95270476Y-57044380D01*
X95556190Y-58044380D02*
X95556190Y-57044380D01*
X94937142Y-58044380D02*
X94937142Y-57044380D01*
X94556190Y-57044380D01*
X94460952Y-57092000D01*
X94413333Y-57139619D01*
X94365714Y-57234857D01*
X94365714Y-57377714D01*
X94413333Y-57472952D01*
X94460952Y-57520571D01*
X94556190Y-57568190D01*
X94937142Y-57568190D01*
X93413333Y-58044380D02*
X93984761Y-58044380D01*
X93699047Y-58044380D02*
X93699047Y-57044380D01*
X93794285Y-57187238D01*
X93889523Y-57282476D01*
X93984761Y-57330095D01*
%TO.C,TP9*%
X60301904Y-37504380D02*
X59730476Y-37504380D01*
X60016190Y-38504380D02*
X60016190Y-37504380D01*
X59397142Y-38504380D02*
X59397142Y-37504380D01*
X59016190Y-37504380D01*
X58920952Y-37552000D01*
X58873333Y-37599619D01*
X58825714Y-37694857D01*
X58825714Y-37837714D01*
X58873333Y-37932952D01*
X58920952Y-37980571D01*
X59016190Y-38028190D01*
X59397142Y-38028190D01*
X58349523Y-38504380D02*
X58159047Y-38504380D01*
X58063809Y-38456761D01*
X58016190Y-38409142D01*
X57920952Y-38266285D01*
X57873333Y-38075809D01*
X57873333Y-37694857D01*
X57920952Y-37599619D01*
X57968571Y-37552000D01*
X58063809Y-37504380D01*
X58254285Y-37504380D01*
X58349523Y-37552000D01*
X58397142Y-37599619D01*
X58444761Y-37694857D01*
X58444761Y-37932952D01*
X58397142Y-38028190D01*
X58349523Y-38075809D01*
X58254285Y-38123428D01*
X58063809Y-38123428D01*
X57968571Y-38075809D01*
X57920952Y-38028190D01*
X57873333Y-37932952D01*
%TO.C,TP5*%
X119381904Y-88584380D02*
X118810476Y-88584380D01*
X119096190Y-89584380D02*
X119096190Y-88584380D01*
X118477142Y-89584380D02*
X118477142Y-88584380D01*
X118096190Y-88584380D01*
X118000952Y-88632000D01*
X117953333Y-88679619D01*
X117905714Y-88774857D01*
X117905714Y-88917714D01*
X117953333Y-89012952D01*
X118000952Y-89060571D01*
X118096190Y-89108190D01*
X118477142Y-89108190D01*
X117000952Y-88584380D02*
X117477142Y-88584380D01*
X117524761Y-89060571D01*
X117477142Y-89012952D01*
X117381904Y-88965333D01*
X117143809Y-88965333D01*
X117048571Y-89012952D01*
X117000952Y-89060571D01*
X116953333Y-89155809D01*
X116953333Y-89393904D01*
X117000952Y-89489142D01*
X117048571Y-89536761D01*
X117143809Y-89584380D01*
X117381904Y-89584380D01*
X117477142Y-89536761D01*
X117524761Y-89489142D01*
%TO.C,TP9*%
X87841904Y-120124380D02*
X87270476Y-120124380D01*
X87556190Y-121124380D02*
X87556190Y-120124380D01*
X86937142Y-121124380D02*
X86937142Y-120124380D01*
X86556190Y-120124380D01*
X86460952Y-120172000D01*
X86413333Y-120219619D01*
X86365714Y-120314857D01*
X86365714Y-120457714D01*
X86413333Y-120552952D01*
X86460952Y-120600571D01*
X86556190Y-120648190D01*
X86937142Y-120648190D01*
X85889523Y-121124380D02*
X85699047Y-121124380D01*
X85603809Y-121076761D01*
X85556190Y-121029142D01*
X85460952Y-120886285D01*
X85413333Y-120695809D01*
X85413333Y-120314857D01*
X85460952Y-120219619D01*
X85508571Y-120172000D01*
X85603809Y-120124380D01*
X85794285Y-120124380D01*
X85889523Y-120172000D01*
X85937142Y-120219619D01*
X85984761Y-120314857D01*
X85984761Y-120552952D01*
X85937142Y-120648190D01*
X85889523Y-120695809D01*
X85794285Y-120743428D01*
X85603809Y-120743428D01*
X85508571Y-120695809D01*
X85460952Y-120648190D01*
X85413333Y-120552952D01*
%TO.C,TP1*%
X95841904Y-112124380D02*
X95270476Y-112124380D01*
X95556190Y-113124380D02*
X95556190Y-112124380D01*
X94937142Y-113124380D02*
X94937142Y-112124380D01*
X94556190Y-112124380D01*
X94460952Y-112172000D01*
X94413333Y-112219619D01*
X94365714Y-112314857D01*
X94365714Y-112457714D01*
X94413333Y-112552952D01*
X94460952Y-112600571D01*
X94556190Y-112648190D01*
X94937142Y-112648190D01*
X93413333Y-113124380D02*
X93984761Y-113124380D01*
X93699047Y-113124380D02*
X93699047Y-112124380D01*
X93794285Y-112267238D01*
X93889523Y-112362476D01*
X93984761Y-112410095D01*
%TO.C,TP9*%
X32761904Y-92584380D02*
X32190476Y-92584380D01*
X32476190Y-93584380D02*
X32476190Y-92584380D01*
X31857142Y-93584380D02*
X31857142Y-92584380D01*
X31476190Y-92584380D01*
X31380952Y-92632000D01*
X31333333Y-92679619D01*
X31285714Y-92774857D01*
X31285714Y-92917714D01*
X31333333Y-93012952D01*
X31380952Y-93060571D01*
X31476190Y-93108190D01*
X31857142Y-93108190D01*
X30809523Y-93584380D02*
X30619047Y-93584380D01*
X30523809Y-93536761D01*
X30476190Y-93489142D01*
X30380952Y-93346285D01*
X30333333Y-93155809D01*
X30333333Y-92774857D01*
X30380952Y-92679619D01*
X30428571Y-92632000D01*
X30523809Y-92584380D01*
X30714285Y-92584380D01*
X30809523Y-92632000D01*
X30857142Y-92679619D01*
X30904761Y-92774857D01*
X30904761Y-93012952D01*
X30857142Y-93108190D01*
X30809523Y-93155809D01*
X30714285Y-93203428D01*
X30523809Y-93203428D01*
X30428571Y-93155809D01*
X30380952Y-93108190D01*
X30333333Y-93012952D01*
%TO.C,TP6*%
X115381904Y-33504380D02*
X114810476Y-33504380D01*
X115096190Y-34504380D02*
X115096190Y-33504380D01*
X114477142Y-34504380D02*
X114477142Y-33504380D01*
X114096190Y-33504380D01*
X114000952Y-33552000D01*
X113953333Y-33599619D01*
X113905714Y-33694857D01*
X113905714Y-33837714D01*
X113953333Y-33932952D01*
X114000952Y-33980571D01*
X114096190Y-34028190D01*
X114477142Y-34028190D01*
X113048571Y-33504380D02*
X113239047Y-33504380D01*
X113334285Y-33552000D01*
X113381904Y-33599619D01*
X113477142Y-33742476D01*
X113524761Y-33932952D01*
X113524761Y-34313904D01*
X113477142Y-34409142D01*
X113429523Y-34456761D01*
X113334285Y-34504380D01*
X113143809Y-34504380D01*
X113048571Y-34456761D01*
X113000952Y-34409142D01*
X112953333Y-34313904D01*
X112953333Y-34075809D01*
X113000952Y-33980571D01*
X113048571Y-33932952D01*
X113143809Y-33885333D01*
X113334285Y-33885333D01*
X113429523Y-33932952D01*
X113477142Y-33980571D01*
X113524761Y-34075809D01*
X87841904Y-61044380D02*
X87270476Y-61044380D01*
X87556190Y-62044380D02*
X87556190Y-61044380D01*
X86937142Y-62044380D02*
X86937142Y-61044380D01*
X86556190Y-61044380D01*
X86460952Y-61092000D01*
X86413333Y-61139619D01*
X86365714Y-61234857D01*
X86365714Y-61377714D01*
X86413333Y-61472952D01*
X86460952Y-61520571D01*
X86556190Y-61568190D01*
X86937142Y-61568190D01*
X85508571Y-61044380D02*
X85699047Y-61044380D01*
X85794285Y-61092000D01*
X85841904Y-61139619D01*
X85937142Y-61282476D01*
X85984761Y-61472952D01*
X85984761Y-61853904D01*
X85937142Y-61949142D01*
X85889523Y-61996761D01*
X85794285Y-62044380D01*
X85603809Y-62044380D01*
X85508571Y-61996761D01*
X85460952Y-61949142D01*
X85413333Y-61853904D01*
X85413333Y-61615809D01*
X85460952Y-61520571D01*
X85508571Y-61472952D01*
X85603809Y-61425333D01*
X85794285Y-61425333D01*
X85889523Y-61472952D01*
X85937142Y-61520571D01*
X85984761Y-61615809D01*
%TO.C,TP7*%
X40761904Y-37504380D02*
X40190476Y-37504380D01*
X40476190Y-38504380D02*
X40476190Y-37504380D01*
X39857142Y-38504380D02*
X39857142Y-37504380D01*
X39476190Y-37504380D01*
X39380952Y-37552000D01*
X39333333Y-37599619D01*
X39285714Y-37694857D01*
X39285714Y-37837714D01*
X39333333Y-37932952D01*
X39380952Y-37980571D01*
X39476190Y-38028190D01*
X39857142Y-38028190D01*
X38952380Y-37504380D02*
X38285714Y-37504380D01*
X38714285Y-38504380D01*
%TO.C,TP3*%
X32761904Y-84584380D02*
X32190476Y-84584380D01*
X32476190Y-85584380D02*
X32476190Y-84584380D01*
X31857142Y-85584380D02*
X31857142Y-84584380D01*
X31476190Y-84584380D01*
X31380952Y-84632000D01*
X31333333Y-84679619D01*
X31285714Y-84774857D01*
X31285714Y-84917714D01*
X31333333Y-85012952D01*
X31380952Y-85060571D01*
X31476190Y-85108190D01*
X31857142Y-85108190D01*
X30952380Y-84584380D02*
X30333333Y-84584380D01*
X30666666Y-84965333D01*
X30523809Y-84965333D01*
X30428571Y-85012952D01*
X30380952Y-85060571D01*
X30333333Y-85155809D01*
X30333333Y-85393904D01*
X30380952Y-85489142D01*
X30428571Y-85536761D01*
X30523809Y-85584380D01*
X30809523Y-85584380D01*
X30904761Y-85536761D01*
X30952380Y-85489142D01*
%TO.C,TP7*%
X123381904Y-37504380D02*
X122810476Y-37504380D01*
X123096190Y-38504380D02*
X123096190Y-37504380D01*
X122477142Y-38504380D02*
X122477142Y-37504380D01*
X122096190Y-37504380D01*
X122000952Y-37552000D01*
X121953333Y-37599619D01*
X121905714Y-37694857D01*
X121905714Y-37837714D01*
X121953333Y-37932952D01*
X122000952Y-37980571D01*
X122096190Y-38028190D01*
X122477142Y-38028190D01*
X121572380Y-37504380D02*
X120905714Y-37504380D01*
X121334285Y-38504380D01*
%TO.C,TP8*%
X119381904Y-92584380D02*
X118810476Y-92584380D01*
X119096190Y-93584380D02*
X119096190Y-92584380D01*
X118477142Y-93584380D02*
X118477142Y-92584380D01*
X118096190Y-92584380D01*
X118000952Y-92632000D01*
X117953333Y-92679619D01*
X117905714Y-92774857D01*
X117905714Y-92917714D01*
X117953333Y-93012952D01*
X118000952Y-93060571D01*
X118096190Y-93108190D01*
X118477142Y-93108190D01*
X117334285Y-93012952D02*
X117429523Y-92965333D01*
X117477142Y-92917714D01*
X117524761Y-92822476D01*
X117524761Y-92774857D01*
X117477142Y-92679619D01*
X117429523Y-92632000D01*
X117334285Y-92584380D01*
X117143809Y-92584380D01*
X117048571Y-92632000D01*
X117000952Y-92679619D01*
X116953333Y-92774857D01*
X116953333Y-92822476D01*
X117000952Y-92917714D01*
X117048571Y-92965333D01*
X117143809Y-93012952D01*
X117334285Y-93012952D01*
X117429523Y-93060571D01*
X117477142Y-93108190D01*
X117524761Y-93203428D01*
X117524761Y-93393904D01*
X117477142Y-93489142D01*
X117429523Y-93536761D01*
X117334285Y-93584380D01*
X117143809Y-93584380D01*
X117048571Y-93536761D01*
X117000952Y-93489142D01*
X116953333Y-93393904D01*
X116953333Y-93203428D01*
X117000952Y-93108190D01*
X117048571Y-93060571D01*
X117143809Y-93012952D01*
%TO.C,TP7*%
X95841904Y-120124380D02*
X95270476Y-120124380D01*
X95556190Y-121124380D02*
X95556190Y-120124380D01*
X94937142Y-121124380D02*
X94937142Y-120124380D01*
X94556190Y-120124380D01*
X94460952Y-120172000D01*
X94413333Y-120219619D01*
X94365714Y-120314857D01*
X94365714Y-120457714D01*
X94413333Y-120552952D01*
X94460952Y-120600571D01*
X94556190Y-120648190D01*
X94937142Y-120648190D01*
X94032380Y-120124380D02*
X93365714Y-120124380D01*
X93794285Y-121124380D01*
%TO.C,TP5*%
X64301904Y-116124380D02*
X63730476Y-116124380D01*
X64016190Y-117124380D02*
X64016190Y-116124380D01*
X63397142Y-117124380D02*
X63397142Y-116124380D01*
X63016190Y-116124380D01*
X62920952Y-116172000D01*
X62873333Y-116219619D01*
X62825714Y-116314857D01*
X62825714Y-116457714D01*
X62873333Y-116552952D01*
X62920952Y-116600571D01*
X63016190Y-116648190D01*
X63397142Y-116648190D01*
X61920952Y-116124380D02*
X62397142Y-116124380D01*
X62444761Y-116600571D01*
X62397142Y-116552952D01*
X62301904Y-116505333D01*
X62063809Y-116505333D01*
X61968571Y-116552952D01*
X61920952Y-116600571D01*
X61873333Y-116695809D01*
X61873333Y-116933904D01*
X61920952Y-117029142D01*
X61968571Y-117076761D01*
X62063809Y-117124380D01*
X62301904Y-117124380D01*
X62397142Y-117076761D01*
X62444761Y-117029142D01*
%TO.C,TP9*%
X115381904Y-37504380D02*
X114810476Y-37504380D01*
X115096190Y-38504380D02*
X115096190Y-37504380D01*
X114477142Y-38504380D02*
X114477142Y-37504380D01*
X114096190Y-37504380D01*
X114000952Y-37552000D01*
X113953333Y-37599619D01*
X113905714Y-37694857D01*
X113905714Y-37837714D01*
X113953333Y-37932952D01*
X114000952Y-37980571D01*
X114096190Y-38028190D01*
X114477142Y-38028190D01*
X113429523Y-38504380D02*
X113239047Y-38504380D01*
X113143809Y-38456761D01*
X113096190Y-38409142D01*
X113000952Y-38266285D01*
X112953333Y-38075809D01*
X112953333Y-37694857D01*
X113000952Y-37599619D01*
X113048571Y-37552000D01*
X113143809Y-37504380D01*
X113334285Y-37504380D01*
X113429523Y-37552000D01*
X113477142Y-37599619D01*
X113524761Y-37694857D01*
X113524761Y-37932952D01*
X113477142Y-38028190D01*
X113429523Y-38075809D01*
X113334285Y-38123428D01*
X113143809Y-38123428D01*
X113048571Y-38075809D01*
X113000952Y-38028190D01*
X112953333Y-37932952D01*
%TO.C,TP8*%
X119381904Y-65044380D02*
X118810476Y-65044380D01*
X119096190Y-66044380D02*
X119096190Y-65044380D01*
X118477142Y-66044380D02*
X118477142Y-65044380D01*
X118096190Y-65044380D01*
X118000952Y-65092000D01*
X117953333Y-65139619D01*
X117905714Y-65234857D01*
X117905714Y-65377714D01*
X117953333Y-65472952D01*
X118000952Y-65520571D01*
X118096190Y-65568190D01*
X118477142Y-65568190D01*
X117334285Y-65472952D02*
X117429523Y-65425333D01*
X117477142Y-65377714D01*
X117524761Y-65282476D01*
X117524761Y-65234857D01*
X117477142Y-65139619D01*
X117429523Y-65092000D01*
X117334285Y-65044380D01*
X117143809Y-65044380D01*
X117048571Y-65092000D01*
X117000952Y-65139619D01*
X116953333Y-65234857D01*
X116953333Y-65282476D01*
X117000952Y-65377714D01*
X117048571Y-65425333D01*
X117143809Y-65472952D01*
X117334285Y-65472952D01*
X117429523Y-65520571D01*
X117477142Y-65568190D01*
X117524761Y-65663428D01*
X117524761Y-65853904D01*
X117477142Y-65949142D01*
X117429523Y-65996761D01*
X117334285Y-66044380D01*
X117143809Y-66044380D01*
X117048571Y-65996761D01*
X117000952Y-65949142D01*
X116953333Y-65853904D01*
X116953333Y-65663428D01*
X117000952Y-65568190D01*
X117048571Y-65520571D01*
X117143809Y-65472952D01*
%TO.C,TP4*%
X68301904Y-61044380D02*
X67730476Y-61044380D01*
X68016190Y-62044380D02*
X68016190Y-61044380D01*
X67397142Y-62044380D02*
X67397142Y-61044380D01*
X67016190Y-61044380D01*
X66920952Y-61092000D01*
X66873333Y-61139619D01*
X66825714Y-61234857D01*
X66825714Y-61377714D01*
X66873333Y-61472952D01*
X66920952Y-61520571D01*
X67016190Y-61568190D01*
X67397142Y-61568190D01*
X65968571Y-61377714D02*
X65968571Y-62044380D01*
X66206666Y-60996761D02*
X66444761Y-61711047D01*
X65825714Y-61711047D01*
%TO.C,TP1*%
X68301904Y-84584380D02*
X67730476Y-84584380D01*
X68016190Y-85584380D02*
X68016190Y-84584380D01*
X67397142Y-85584380D02*
X67397142Y-84584380D01*
X67016190Y-84584380D01*
X66920952Y-84632000D01*
X66873333Y-84679619D01*
X66825714Y-84774857D01*
X66825714Y-84917714D01*
X66873333Y-85012952D01*
X66920952Y-85060571D01*
X67016190Y-85108190D01*
X67397142Y-85108190D01*
X65873333Y-85584380D02*
X66444761Y-85584380D01*
X66159047Y-85584380D02*
X66159047Y-84584380D01*
X66254285Y-84727238D01*
X66349523Y-84822476D01*
X66444761Y-84870095D01*
%TO.C,TP5*%
X64301904Y-61044380D02*
X63730476Y-61044380D01*
X64016190Y-62044380D02*
X64016190Y-61044380D01*
X63397142Y-62044380D02*
X63397142Y-61044380D01*
X63016190Y-61044380D01*
X62920952Y-61092000D01*
X62873333Y-61139619D01*
X62825714Y-61234857D01*
X62825714Y-61377714D01*
X62873333Y-61472952D01*
X62920952Y-61520571D01*
X63016190Y-61568190D01*
X63397142Y-61568190D01*
X61920952Y-61044380D02*
X62397142Y-61044380D01*
X62444761Y-61520571D01*
X62397142Y-61472952D01*
X62301904Y-61425333D01*
X62063809Y-61425333D01*
X61968571Y-61472952D01*
X61920952Y-61520571D01*
X61873333Y-61615809D01*
X61873333Y-61853904D01*
X61920952Y-61949142D01*
X61968571Y-61996761D01*
X62063809Y-62044380D01*
X62301904Y-62044380D01*
X62397142Y-61996761D01*
X62444761Y-61949142D01*
%TO.C,TP3*%
X115381904Y-29504380D02*
X114810476Y-29504380D01*
X115096190Y-30504380D02*
X115096190Y-29504380D01*
X114477142Y-30504380D02*
X114477142Y-29504380D01*
X114096190Y-29504380D01*
X114000952Y-29552000D01*
X113953333Y-29599619D01*
X113905714Y-29694857D01*
X113905714Y-29837714D01*
X113953333Y-29932952D01*
X114000952Y-29980571D01*
X114096190Y-30028190D01*
X114477142Y-30028190D01*
X113572380Y-29504380D02*
X112953333Y-29504380D01*
X113286666Y-29885333D01*
X113143809Y-29885333D01*
X113048571Y-29932952D01*
X113000952Y-29980571D01*
X112953333Y-30075809D01*
X112953333Y-30313904D01*
X113000952Y-30409142D01*
X113048571Y-30456761D01*
X113143809Y-30504380D01*
X113429523Y-30504380D01*
X113524761Y-30456761D01*
X113572380Y-30409142D01*
%TO.C,TP7*%
X40761904Y-92584380D02*
X40190476Y-92584380D01*
X40476190Y-93584380D02*
X40476190Y-92584380D01*
X39857142Y-93584380D02*
X39857142Y-92584380D01*
X39476190Y-92584380D01*
X39380952Y-92632000D01*
X39333333Y-92679619D01*
X39285714Y-92774857D01*
X39285714Y-92917714D01*
X39333333Y-93012952D01*
X39380952Y-93060571D01*
X39476190Y-93108190D01*
X39857142Y-93108190D01*
X38952380Y-92584380D02*
X38285714Y-92584380D01*
X38714285Y-93584380D01*
%TO.C,TP2*%
X36761904Y-112124380D02*
X36190476Y-112124380D01*
X36476190Y-113124380D02*
X36476190Y-112124380D01*
X35857142Y-113124380D02*
X35857142Y-112124380D01*
X35476190Y-112124380D01*
X35380952Y-112172000D01*
X35333333Y-112219619D01*
X35285714Y-112314857D01*
X35285714Y-112457714D01*
X35333333Y-112552952D01*
X35380952Y-112600571D01*
X35476190Y-112648190D01*
X35857142Y-112648190D01*
X34904761Y-112219619D02*
X34857142Y-112172000D01*
X34761904Y-112124380D01*
X34523809Y-112124380D01*
X34428571Y-112172000D01*
X34380952Y-112219619D01*
X34333333Y-112314857D01*
X34333333Y-112410095D01*
X34380952Y-112552952D01*
X34952380Y-113124380D01*
X34333333Y-113124380D01*
%TO.C,TP1*%
X123381904Y-84584380D02*
X122810476Y-84584380D01*
X123096190Y-85584380D02*
X123096190Y-84584380D01*
X122477142Y-85584380D02*
X122477142Y-84584380D01*
X122096190Y-84584380D01*
X122000952Y-84632000D01*
X121953333Y-84679619D01*
X121905714Y-84774857D01*
X121905714Y-84917714D01*
X121953333Y-85012952D01*
X122000952Y-85060571D01*
X122096190Y-85108190D01*
X122477142Y-85108190D01*
X120953333Y-85584380D02*
X121524761Y-85584380D01*
X121239047Y-85584380D02*
X121239047Y-84584380D01*
X121334285Y-84727238D01*
X121429523Y-84822476D01*
X121524761Y-84870095D01*
%TO.C,TP3*%
X115381904Y-57044380D02*
X114810476Y-57044380D01*
X115096190Y-58044380D02*
X115096190Y-57044380D01*
X114477142Y-58044380D02*
X114477142Y-57044380D01*
X114096190Y-57044380D01*
X114000952Y-57092000D01*
X113953333Y-57139619D01*
X113905714Y-57234857D01*
X113905714Y-57377714D01*
X113953333Y-57472952D01*
X114000952Y-57520571D01*
X114096190Y-57568190D01*
X114477142Y-57568190D01*
X113572380Y-57044380D02*
X112953333Y-57044380D01*
X113286666Y-57425333D01*
X113143809Y-57425333D01*
X113048571Y-57472952D01*
X113000952Y-57520571D01*
X112953333Y-57615809D01*
X112953333Y-57853904D01*
X113000952Y-57949142D01*
X113048571Y-57996761D01*
X113143809Y-58044380D01*
X113429523Y-58044380D01*
X113524761Y-57996761D01*
X113572380Y-57949142D01*
%TO.C,TP4*%
X68301904Y-33504380D02*
X67730476Y-33504380D01*
X68016190Y-34504380D02*
X68016190Y-33504380D01*
X67397142Y-34504380D02*
X67397142Y-33504380D01*
X67016190Y-33504380D01*
X66920952Y-33552000D01*
X66873333Y-33599619D01*
X66825714Y-33694857D01*
X66825714Y-33837714D01*
X66873333Y-33932952D01*
X66920952Y-33980571D01*
X67016190Y-34028190D01*
X67397142Y-34028190D01*
X65968571Y-33837714D02*
X65968571Y-34504380D01*
X66206666Y-33456761D02*
X66444761Y-34171047D01*
X65825714Y-34171047D01*
%TO.C,TP9*%
X32761904Y-120124380D02*
X32190476Y-120124380D01*
X32476190Y-121124380D02*
X32476190Y-120124380D01*
X31857142Y-121124380D02*
X31857142Y-120124380D01*
X31476190Y-120124380D01*
X31380952Y-120172000D01*
X31333333Y-120219619D01*
X31285714Y-120314857D01*
X31285714Y-120457714D01*
X31333333Y-120552952D01*
X31380952Y-120600571D01*
X31476190Y-120648190D01*
X31857142Y-120648190D01*
X30809523Y-121124380D02*
X30619047Y-121124380D01*
X30523809Y-121076761D01*
X30476190Y-121029142D01*
X30380952Y-120886285D01*
X30333333Y-120695809D01*
X30333333Y-120314857D01*
X30380952Y-120219619D01*
X30428571Y-120172000D01*
X30523809Y-120124380D01*
X30714285Y-120124380D01*
X30809523Y-120172000D01*
X30857142Y-120219619D01*
X30904761Y-120314857D01*
X30904761Y-120552952D01*
X30857142Y-120648190D01*
X30809523Y-120695809D01*
X30714285Y-120743428D01*
X30523809Y-120743428D01*
X30428571Y-120695809D01*
X30380952Y-120648190D01*
X30333333Y-120552952D01*
%TO.C,TP7*%
X68301904Y-92584380D02*
X67730476Y-92584380D01*
X68016190Y-93584380D02*
X68016190Y-92584380D01*
X67397142Y-93584380D02*
X67397142Y-92584380D01*
X67016190Y-92584380D01*
X66920952Y-92632000D01*
X66873333Y-92679619D01*
X66825714Y-92774857D01*
X66825714Y-92917714D01*
X66873333Y-93012952D01*
X66920952Y-93060571D01*
X67016190Y-93108190D01*
X67397142Y-93108190D01*
X66492380Y-92584380D02*
X65825714Y-92584380D01*
X66254285Y-93584380D01*
%TO.C,TP2*%
X119381904Y-57044380D02*
X118810476Y-57044380D01*
X119096190Y-58044380D02*
X119096190Y-57044380D01*
X118477142Y-58044380D02*
X118477142Y-57044380D01*
X118096190Y-57044380D01*
X118000952Y-57092000D01*
X117953333Y-57139619D01*
X117905714Y-57234857D01*
X117905714Y-57377714D01*
X117953333Y-57472952D01*
X118000952Y-57520571D01*
X118096190Y-57568190D01*
X118477142Y-57568190D01*
X117524761Y-57139619D02*
X117477142Y-57092000D01*
X117381904Y-57044380D01*
X117143809Y-57044380D01*
X117048571Y-57092000D01*
X117000952Y-57139619D01*
X116953333Y-57234857D01*
X116953333Y-57330095D01*
X117000952Y-57472952D01*
X117572380Y-58044380D01*
X116953333Y-58044380D01*
%TO.C,TP5*%
X119381904Y-33504380D02*
X118810476Y-33504380D01*
X119096190Y-34504380D02*
X119096190Y-33504380D01*
X118477142Y-34504380D02*
X118477142Y-33504380D01*
X118096190Y-33504380D01*
X118000952Y-33552000D01*
X117953333Y-33599619D01*
X117905714Y-33694857D01*
X117905714Y-33837714D01*
X117953333Y-33932952D01*
X118000952Y-33980571D01*
X118096190Y-34028190D01*
X118477142Y-34028190D01*
X117000952Y-33504380D02*
X117477142Y-33504380D01*
X117524761Y-33980571D01*
X117477142Y-33932952D01*
X117381904Y-33885333D01*
X117143809Y-33885333D01*
X117048571Y-33932952D01*
X117000952Y-33980571D01*
X116953333Y-34075809D01*
X116953333Y-34313904D01*
X117000952Y-34409142D01*
X117048571Y-34456761D01*
X117143809Y-34504380D01*
X117381904Y-34504380D01*
X117477142Y-34456761D01*
X117524761Y-34409142D01*
%TO.C,TP8*%
X64301904Y-92584380D02*
X63730476Y-92584380D01*
X64016190Y-93584380D02*
X64016190Y-92584380D01*
X63397142Y-93584380D02*
X63397142Y-92584380D01*
X63016190Y-92584380D01*
X62920952Y-92632000D01*
X62873333Y-92679619D01*
X62825714Y-92774857D01*
X62825714Y-92917714D01*
X62873333Y-93012952D01*
X62920952Y-93060571D01*
X63016190Y-93108190D01*
X63397142Y-93108190D01*
X62254285Y-93012952D02*
X62349523Y-92965333D01*
X62397142Y-92917714D01*
X62444761Y-92822476D01*
X62444761Y-92774857D01*
X62397142Y-92679619D01*
X62349523Y-92632000D01*
X62254285Y-92584380D01*
X62063809Y-92584380D01*
X61968571Y-92632000D01*
X61920952Y-92679619D01*
X61873333Y-92774857D01*
X61873333Y-92822476D01*
X61920952Y-92917714D01*
X61968571Y-92965333D01*
X62063809Y-93012952D01*
X62254285Y-93012952D01*
X62349523Y-93060571D01*
X62397142Y-93108190D01*
X62444761Y-93203428D01*
X62444761Y-93393904D01*
X62397142Y-93489142D01*
X62349523Y-93536761D01*
X62254285Y-93584380D01*
X62063809Y-93584380D01*
X61968571Y-93536761D01*
X61920952Y-93489142D01*
X61873333Y-93393904D01*
X61873333Y-93203428D01*
X61920952Y-93108190D01*
X61968571Y-93060571D01*
X62063809Y-93012952D01*
X36761904Y-120124380D02*
X36190476Y-120124380D01*
X36476190Y-121124380D02*
X36476190Y-120124380D01*
X35857142Y-121124380D02*
X35857142Y-120124380D01*
X35476190Y-120124380D01*
X35380952Y-120172000D01*
X35333333Y-120219619D01*
X35285714Y-120314857D01*
X35285714Y-120457714D01*
X35333333Y-120552952D01*
X35380952Y-120600571D01*
X35476190Y-120648190D01*
X35857142Y-120648190D01*
X34714285Y-120552952D02*
X34809523Y-120505333D01*
X34857142Y-120457714D01*
X34904761Y-120362476D01*
X34904761Y-120314857D01*
X34857142Y-120219619D01*
X34809523Y-120172000D01*
X34714285Y-120124380D01*
X34523809Y-120124380D01*
X34428571Y-120172000D01*
X34380952Y-120219619D01*
X34333333Y-120314857D01*
X34333333Y-120362476D01*
X34380952Y-120457714D01*
X34428571Y-120505333D01*
X34523809Y-120552952D01*
X34714285Y-120552952D01*
X34809523Y-120600571D01*
X34857142Y-120648190D01*
X34904761Y-120743428D01*
X34904761Y-120933904D01*
X34857142Y-121029142D01*
X34809523Y-121076761D01*
X34714285Y-121124380D01*
X34523809Y-121124380D01*
X34428571Y-121076761D01*
X34380952Y-121029142D01*
X34333333Y-120933904D01*
X34333333Y-120743428D01*
X34380952Y-120648190D01*
X34428571Y-120600571D01*
X34523809Y-120552952D01*
%TO.C,TP9*%
X115381904Y-120124380D02*
X114810476Y-120124380D01*
X115096190Y-121124380D02*
X115096190Y-120124380D01*
X114477142Y-121124380D02*
X114477142Y-120124380D01*
X114096190Y-120124380D01*
X114000952Y-120172000D01*
X113953333Y-120219619D01*
X113905714Y-120314857D01*
X113905714Y-120457714D01*
X113953333Y-120552952D01*
X114000952Y-120600571D01*
X114096190Y-120648190D01*
X114477142Y-120648190D01*
X113429523Y-121124380D02*
X113239047Y-121124380D01*
X113143809Y-121076761D01*
X113096190Y-121029142D01*
X113000952Y-120886285D01*
X112953333Y-120695809D01*
X112953333Y-120314857D01*
X113000952Y-120219619D01*
X113048571Y-120172000D01*
X113143809Y-120124380D01*
X113334285Y-120124380D01*
X113429523Y-120172000D01*
X113477142Y-120219619D01*
X113524761Y-120314857D01*
X113524761Y-120552952D01*
X113477142Y-120648190D01*
X113429523Y-120695809D01*
X113334285Y-120743428D01*
X113143809Y-120743428D01*
X113048571Y-120695809D01*
X113000952Y-120648190D01*
X112953333Y-120552952D01*
%TO.C,TP8*%
X119381904Y-37504380D02*
X118810476Y-37504380D01*
X119096190Y-38504380D02*
X119096190Y-37504380D01*
X118477142Y-38504380D02*
X118477142Y-37504380D01*
X118096190Y-37504380D01*
X118000952Y-37552000D01*
X117953333Y-37599619D01*
X117905714Y-37694857D01*
X117905714Y-37837714D01*
X117953333Y-37932952D01*
X118000952Y-37980571D01*
X118096190Y-38028190D01*
X118477142Y-38028190D01*
X117334285Y-37932952D02*
X117429523Y-37885333D01*
X117477142Y-37837714D01*
X117524761Y-37742476D01*
X117524761Y-37694857D01*
X117477142Y-37599619D01*
X117429523Y-37552000D01*
X117334285Y-37504380D01*
X117143809Y-37504380D01*
X117048571Y-37552000D01*
X117000952Y-37599619D01*
X116953333Y-37694857D01*
X116953333Y-37742476D01*
X117000952Y-37837714D01*
X117048571Y-37885333D01*
X117143809Y-37932952D01*
X117334285Y-37932952D01*
X117429523Y-37980571D01*
X117477142Y-38028190D01*
X117524761Y-38123428D01*
X117524761Y-38313904D01*
X117477142Y-38409142D01*
X117429523Y-38456761D01*
X117334285Y-38504380D01*
X117143809Y-38504380D01*
X117048571Y-38456761D01*
X117000952Y-38409142D01*
X116953333Y-38313904D01*
X116953333Y-38123428D01*
X117000952Y-38028190D01*
X117048571Y-37980571D01*
X117143809Y-37932952D01*
X36761904Y-65044380D02*
X36190476Y-65044380D01*
X36476190Y-66044380D02*
X36476190Y-65044380D01*
X35857142Y-66044380D02*
X35857142Y-65044380D01*
X35476190Y-65044380D01*
X35380952Y-65092000D01*
X35333333Y-65139619D01*
X35285714Y-65234857D01*
X35285714Y-65377714D01*
X35333333Y-65472952D01*
X35380952Y-65520571D01*
X35476190Y-65568190D01*
X35857142Y-65568190D01*
X34714285Y-65472952D02*
X34809523Y-65425333D01*
X34857142Y-65377714D01*
X34904761Y-65282476D01*
X34904761Y-65234857D01*
X34857142Y-65139619D01*
X34809523Y-65092000D01*
X34714285Y-65044380D01*
X34523809Y-65044380D01*
X34428571Y-65092000D01*
X34380952Y-65139619D01*
X34333333Y-65234857D01*
X34333333Y-65282476D01*
X34380952Y-65377714D01*
X34428571Y-65425333D01*
X34523809Y-65472952D01*
X34714285Y-65472952D01*
X34809523Y-65520571D01*
X34857142Y-65568190D01*
X34904761Y-65663428D01*
X34904761Y-65853904D01*
X34857142Y-65949142D01*
X34809523Y-65996761D01*
X34714285Y-66044380D01*
X34523809Y-66044380D01*
X34428571Y-65996761D01*
X34380952Y-65949142D01*
X34333333Y-65853904D01*
X34333333Y-65663428D01*
X34380952Y-65568190D01*
X34428571Y-65520571D01*
X34523809Y-65472952D01*
%TO.C,TP2*%
X64301904Y-112124380D02*
X63730476Y-112124380D01*
X64016190Y-113124380D02*
X64016190Y-112124380D01*
X63397142Y-113124380D02*
X63397142Y-112124380D01*
X63016190Y-112124380D01*
X62920952Y-112172000D01*
X62873333Y-112219619D01*
X62825714Y-112314857D01*
X62825714Y-112457714D01*
X62873333Y-112552952D01*
X62920952Y-112600571D01*
X63016190Y-112648190D01*
X63397142Y-112648190D01*
X62444761Y-112219619D02*
X62397142Y-112172000D01*
X62301904Y-112124380D01*
X62063809Y-112124380D01*
X61968571Y-112172000D01*
X61920952Y-112219619D01*
X61873333Y-112314857D01*
X61873333Y-112410095D01*
X61920952Y-112552952D01*
X62492380Y-113124380D01*
X61873333Y-113124380D01*
%TO.C,TP5*%
X91841904Y-116124380D02*
X91270476Y-116124380D01*
X91556190Y-117124380D02*
X91556190Y-116124380D01*
X90937142Y-117124380D02*
X90937142Y-116124380D01*
X90556190Y-116124380D01*
X90460952Y-116172000D01*
X90413333Y-116219619D01*
X90365714Y-116314857D01*
X90365714Y-116457714D01*
X90413333Y-116552952D01*
X90460952Y-116600571D01*
X90556190Y-116648190D01*
X90937142Y-116648190D01*
X89460952Y-116124380D02*
X89937142Y-116124380D01*
X89984761Y-116600571D01*
X89937142Y-116552952D01*
X89841904Y-116505333D01*
X89603809Y-116505333D01*
X89508571Y-116552952D01*
X89460952Y-116600571D01*
X89413333Y-116695809D01*
X89413333Y-116933904D01*
X89460952Y-117029142D01*
X89508571Y-117076761D01*
X89603809Y-117124380D01*
X89841904Y-117124380D01*
X89937142Y-117076761D01*
X89984761Y-117029142D01*
X119381904Y-61044380D02*
X118810476Y-61044380D01*
X119096190Y-62044380D02*
X119096190Y-61044380D01*
X118477142Y-62044380D02*
X118477142Y-61044380D01*
X118096190Y-61044380D01*
X118000952Y-61092000D01*
X117953333Y-61139619D01*
X117905714Y-61234857D01*
X117905714Y-61377714D01*
X117953333Y-61472952D01*
X118000952Y-61520571D01*
X118096190Y-61568190D01*
X118477142Y-61568190D01*
X117000952Y-61044380D02*
X117477142Y-61044380D01*
X117524761Y-61520571D01*
X117477142Y-61472952D01*
X117381904Y-61425333D01*
X117143809Y-61425333D01*
X117048571Y-61472952D01*
X117000952Y-61520571D01*
X116953333Y-61615809D01*
X116953333Y-61853904D01*
X117000952Y-61949142D01*
X117048571Y-61996761D01*
X117143809Y-62044380D01*
X117381904Y-62044380D01*
X117477142Y-61996761D01*
X117524761Y-61949142D01*
%TO.C,TP2*%
X64301904Y-57044380D02*
X63730476Y-57044380D01*
X64016190Y-58044380D02*
X64016190Y-57044380D01*
X63397142Y-58044380D02*
X63397142Y-57044380D01*
X63016190Y-57044380D01*
X62920952Y-57092000D01*
X62873333Y-57139619D01*
X62825714Y-57234857D01*
X62825714Y-57377714D01*
X62873333Y-57472952D01*
X62920952Y-57520571D01*
X63016190Y-57568190D01*
X63397142Y-57568190D01*
X62444761Y-57139619D02*
X62397142Y-57092000D01*
X62301904Y-57044380D01*
X62063809Y-57044380D01*
X61968571Y-57092000D01*
X61920952Y-57139619D01*
X61873333Y-57234857D01*
X61873333Y-57330095D01*
X61920952Y-57472952D01*
X62492380Y-58044380D01*
X61873333Y-58044380D01*
%TO.C,TP6*%
X32761904Y-88584380D02*
X32190476Y-88584380D01*
X32476190Y-89584380D02*
X32476190Y-88584380D01*
X31857142Y-89584380D02*
X31857142Y-88584380D01*
X31476190Y-88584380D01*
X31380952Y-88632000D01*
X31333333Y-88679619D01*
X31285714Y-88774857D01*
X31285714Y-88917714D01*
X31333333Y-89012952D01*
X31380952Y-89060571D01*
X31476190Y-89108190D01*
X31857142Y-89108190D01*
X30428571Y-88584380D02*
X30619047Y-88584380D01*
X30714285Y-88632000D01*
X30761904Y-88679619D01*
X30857142Y-88822476D01*
X30904761Y-89012952D01*
X30904761Y-89393904D01*
X30857142Y-89489142D01*
X30809523Y-89536761D01*
X30714285Y-89584380D01*
X30523809Y-89584380D01*
X30428571Y-89536761D01*
X30380952Y-89489142D01*
X30333333Y-89393904D01*
X30333333Y-89155809D01*
X30380952Y-89060571D01*
X30428571Y-89012952D01*
X30523809Y-88965333D01*
X30714285Y-88965333D01*
X30809523Y-89012952D01*
X30857142Y-89060571D01*
X30904761Y-89155809D01*
%TO.C,TP7*%
X68301904Y-65044380D02*
X67730476Y-65044380D01*
X68016190Y-66044380D02*
X68016190Y-65044380D01*
X67397142Y-66044380D02*
X67397142Y-65044380D01*
X67016190Y-65044380D01*
X66920952Y-65092000D01*
X66873333Y-65139619D01*
X66825714Y-65234857D01*
X66825714Y-65377714D01*
X66873333Y-65472952D01*
X66920952Y-65520571D01*
X67016190Y-65568190D01*
X67397142Y-65568190D01*
X66492380Y-65044380D02*
X65825714Y-65044380D01*
X66254285Y-66044380D01*
%TO.C,TP3*%
X32761904Y-112124380D02*
X32190476Y-112124380D01*
X32476190Y-113124380D02*
X32476190Y-112124380D01*
X31857142Y-113124380D02*
X31857142Y-112124380D01*
X31476190Y-112124380D01*
X31380952Y-112172000D01*
X31333333Y-112219619D01*
X31285714Y-112314857D01*
X31285714Y-112457714D01*
X31333333Y-112552952D01*
X31380952Y-112600571D01*
X31476190Y-112648190D01*
X31857142Y-112648190D01*
X30952380Y-112124380D02*
X30333333Y-112124380D01*
X30666666Y-112505333D01*
X30523809Y-112505333D01*
X30428571Y-112552952D01*
X30380952Y-112600571D01*
X30333333Y-112695809D01*
X30333333Y-112933904D01*
X30380952Y-113029142D01*
X30428571Y-113076761D01*
X30523809Y-113124380D01*
X30809523Y-113124380D01*
X30904761Y-113076761D01*
X30952380Y-113029142D01*
D11*
%TO.C,TP4*%
X95280000Y-91280000D02*
X95280000Y-89880000D01*
X93880000Y-91280000D02*
X95280000Y-91280000D01*
X93880000Y-89880000D02*
X93880000Y-91280000D01*
X95280000Y-89880000D02*
X93880000Y-89880000D01*
%TO.C,TP3*%
X32200000Y-58340000D02*
X30800000Y-58340000D01*
X30800000Y-58340000D02*
X30800000Y-59740000D01*
X32200000Y-59740000D02*
X32200000Y-58340000D01*
X30800000Y-59740000D02*
X32200000Y-59740000D01*
%TO.C,TP6*%
X114820000Y-62340000D02*
X113420000Y-62340000D01*
X114820000Y-63740000D02*
X114820000Y-62340000D01*
X113420000Y-63740000D02*
X114820000Y-63740000D01*
X113420000Y-62340000D02*
X113420000Y-63740000D01*
%TO.C,TP8*%
X36200000Y-40200000D02*
X36200000Y-38800000D01*
X34800000Y-40200000D02*
X36200000Y-40200000D01*
X34800000Y-38800000D02*
X34800000Y-40200000D01*
X36200000Y-38800000D02*
X34800000Y-38800000D01*
%TO.C,TP5*%
X34800000Y-117420000D02*
X34800000Y-118820000D01*
X36200000Y-118820000D02*
X36200000Y-117420000D01*
X34800000Y-118820000D02*
X36200000Y-118820000D01*
X36200000Y-117420000D02*
X34800000Y-117420000D01*
%TO.C,TP3*%
X114820000Y-113420000D02*
X113420000Y-113420000D01*
X114820000Y-114820000D02*
X114820000Y-113420000D01*
X113420000Y-113420000D02*
X113420000Y-114820000D01*
X113420000Y-114820000D02*
X114820000Y-114820000D01*
%TO.C,TP5*%
X34800000Y-36200000D02*
X36200000Y-36200000D01*
X36200000Y-36200000D02*
X36200000Y-34800000D01*
X34800000Y-34800000D02*
X34800000Y-36200000D01*
X36200000Y-34800000D02*
X34800000Y-34800000D01*
%TO.C,TP9*%
X32200000Y-67740000D02*
X32200000Y-66340000D01*
X32200000Y-66340000D02*
X30800000Y-66340000D01*
X30800000Y-67740000D02*
X32200000Y-67740000D01*
X30800000Y-66340000D02*
X30800000Y-67740000D01*
%TO.C,TP6*%
X113420000Y-117420000D02*
X113420000Y-118820000D01*
X114820000Y-118820000D02*
X114820000Y-117420000D01*
X113420000Y-118820000D02*
X114820000Y-118820000D01*
X114820000Y-117420000D02*
X113420000Y-117420000D01*
%TO.C,TP1*%
X40200000Y-114820000D02*
X40200000Y-113420000D01*
X40200000Y-113420000D02*
X38800000Y-113420000D01*
X38800000Y-114820000D02*
X40200000Y-114820000D01*
X38800000Y-113420000D02*
X38800000Y-114820000D01*
%TO.C,TP9*%
X114820000Y-66340000D02*
X113420000Y-66340000D01*
X113420000Y-66340000D02*
X113420000Y-67740000D01*
X113420000Y-67740000D02*
X114820000Y-67740000D01*
X114820000Y-67740000D02*
X114820000Y-66340000D01*
X58340000Y-93880000D02*
X58340000Y-95280000D01*
X58340000Y-95280000D02*
X59740000Y-95280000D01*
X59740000Y-95280000D02*
X59740000Y-93880000D01*
X59740000Y-93880000D02*
X58340000Y-93880000D01*
%TO.C,TP6*%
X58340000Y-89880000D02*
X58340000Y-91280000D01*
X59740000Y-89880000D02*
X58340000Y-89880000D01*
X59740000Y-91280000D02*
X59740000Y-89880000D01*
X58340000Y-91280000D02*
X59740000Y-91280000D01*
%TO.C,TP9*%
X114820000Y-93880000D02*
X113420000Y-93880000D01*
X113420000Y-95280000D02*
X114820000Y-95280000D01*
X114820000Y-95280000D02*
X114820000Y-93880000D01*
X113420000Y-93880000D02*
X113420000Y-95280000D01*
%TO.C,TP3*%
X87280000Y-32200000D02*
X87280000Y-30800000D01*
X87280000Y-30800000D02*
X85880000Y-30800000D01*
X85880000Y-32200000D02*
X87280000Y-32200000D01*
X85880000Y-30800000D02*
X85880000Y-32200000D01*
%TO.C,TP4*%
X38800000Y-89880000D02*
X38800000Y-91280000D01*
X38800000Y-91280000D02*
X40200000Y-91280000D01*
X40200000Y-89880000D02*
X38800000Y-89880000D01*
X40200000Y-91280000D02*
X40200000Y-89880000D01*
%TO.C,TP5*%
X62340000Y-36200000D02*
X63740000Y-36200000D01*
X63740000Y-34800000D02*
X62340000Y-34800000D01*
X63740000Y-36200000D02*
X63740000Y-34800000D01*
X62340000Y-34800000D02*
X62340000Y-36200000D01*
%TO.C,TP9*%
X85880000Y-67740000D02*
X87280000Y-67740000D01*
X85880000Y-66340000D02*
X85880000Y-67740000D01*
X87280000Y-66340000D02*
X85880000Y-66340000D01*
X87280000Y-67740000D02*
X87280000Y-66340000D01*
X59740000Y-121420000D02*
X58340000Y-121420000D01*
X59740000Y-122820000D02*
X59740000Y-121420000D01*
X58340000Y-121420000D02*
X58340000Y-122820000D01*
X58340000Y-122820000D02*
X59740000Y-122820000D01*
%TO.C,TP6*%
X87280000Y-91280000D02*
X87280000Y-89880000D01*
X87280000Y-89880000D02*
X85880000Y-89880000D01*
X85880000Y-91280000D02*
X87280000Y-91280000D01*
X85880000Y-89880000D02*
X85880000Y-91280000D01*
%TO.C,TP1*%
X93880000Y-32200000D02*
X95280000Y-32200000D01*
X93880000Y-30800000D02*
X93880000Y-32200000D01*
X95280000Y-30800000D02*
X93880000Y-30800000D01*
X95280000Y-32200000D02*
X95280000Y-30800000D01*
%TO.C,TP6*%
X85880000Y-34800000D02*
X85880000Y-36200000D01*
X87280000Y-36200000D02*
X87280000Y-34800000D01*
X87280000Y-34800000D02*
X85880000Y-34800000D01*
X85880000Y-36200000D02*
X87280000Y-36200000D01*
%TO.C,TP2*%
X36200000Y-87280000D02*
X36200000Y-85880000D01*
X36200000Y-85880000D02*
X34800000Y-85880000D01*
X34800000Y-87280000D02*
X36200000Y-87280000D01*
X34800000Y-85880000D02*
X34800000Y-87280000D01*
%TO.C,TP7*%
X122820000Y-121420000D02*
X121420000Y-121420000D01*
X122820000Y-122820000D02*
X122820000Y-121420000D01*
X121420000Y-122820000D02*
X122820000Y-122820000D01*
X121420000Y-121420000D02*
X121420000Y-122820000D01*
%TO.C,TP9*%
X58340000Y-66340000D02*
X58340000Y-67740000D01*
X59740000Y-67740000D02*
X59740000Y-66340000D01*
X58340000Y-67740000D02*
X59740000Y-67740000D01*
X59740000Y-66340000D02*
X58340000Y-66340000D01*
%TO.C,TP4*%
X40200000Y-34800000D02*
X38800000Y-34800000D01*
X38800000Y-36200000D02*
X40200000Y-36200000D01*
X38800000Y-34800000D02*
X38800000Y-36200000D01*
X40200000Y-36200000D02*
X40200000Y-34800000D01*
%TO.C,TP5*%
X89880000Y-91280000D02*
X91280000Y-91280000D01*
X89880000Y-89880000D02*
X89880000Y-91280000D01*
X91280000Y-89880000D02*
X89880000Y-89880000D01*
X91280000Y-91280000D02*
X91280000Y-89880000D01*
%TO.C,TP2*%
X91280000Y-59740000D02*
X91280000Y-58340000D01*
X89880000Y-58340000D02*
X89880000Y-59740000D01*
X89880000Y-59740000D02*
X91280000Y-59740000D01*
X91280000Y-58340000D02*
X89880000Y-58340000D01*
%TO.C,TP4*%
X122820000Y-36200000D02*
X122820000Y-34800000D01*
X121420000Y-34800000D02*
X121420000Y-36200000D01*
X121420000Y-36200000D02*
X122820000Y-36200000D01*
X122820000Y-34800000D02*
X121420000Y-34800000D01*
%TO.C,TP3*%
X87280000Y-85880000D02*
X85880000Y-85880000D01*
X85880000Y-87280000D02*
X87280000Y-87280000D01*
X87280000Y-87280000D02*
X87280000Y-85880000D01*
X85880000Y-85880000D02*
X85880000Y-87280000D01*
%TO.C,TP5*%
X91280000Y-63740000D02*
X91280000Y-62340000D01*
X89880000Y-62340000D02*
X89880000Y-63740000D01*
X91280000Y-62340000D02*
X89880000Y-62340000D01*
X89880000Y-63740000D02*
X91280000Y-63740000D01*
%TO.C,TP6*%
X113420000Y-91280000D02*
X114820000Y-91280000D01*
X113420000Y-89880000D02*
X113420000Y-91280000D01*
X114820000Y-89880000D02*
X113420000Y-89880000D01*
X114820000Y-91280000D02*
X114820000Y-89880000D01*
%TO.C,TP3*%
X85880000Y-114820000D02*
X87280000Y-114820000D01*
X87280000Y-114820000D02*
X87280000Y-113420000D01*
X85880000Y-113420000D02*
X85880000Y-114820000D01*
X87280000Y-113420000D02*
X85880000Y-113420000D01*
%TO.C,TP2*%
X36200000Y-58340000D02*
X34800000Y-58340000D01*
X34800000Y-58340000D02*
X34800000Y-59740000D01*
X34800000Y-59740000D02*
X36200000Y-59740000D01*
X36200000Y-59740000D02*
X36200000Y-58340000D01*
%TO.C,TP8*%
X91280000Y-40200000D02*
X91280000Y-38800000D01*
X89880000Y-40200000D02*
X91280000Y-40200000D01*
X91280000Y-38800000D02*
X89880000Y-38800000D01*
X89880000Y-38800000D02*
X89880000Y-40200000D01*
X62340000Y-40200000D02*
X63740000Y-40200000D01*
X63740000Y-40200000D02*
X63740000Y-38800000D01*
X62340000Y-38800000D02*
X62340000Y-40200000D01*
X63740000Y-38800000D02*
X62340000Y-38800000D01*
X63740000Y-121420000D02*
X62340000Y-121420000D01*
X63740000Y-122820000D02*
X63740000Y-121420000D01*
X62340000Y-122820000D02*
X63740000Y-122820000D01*
X62340000Y-121420000D02*
X62340000Y-122820000D01*
%TO.C,TP4*%
X121420000Y-91280000D02*
X122820000Y-91280000D01*
X122820000Y-91280000D02*
X122820000Y-89880000D01*
X121420000Y-89880000D02*
X121420000Y-91280000D01*
X122820000Y-89880000D02*
X121420000Y-89880000D01*
%TO.C,TP1*%
X93880000Y-87280000D02*
X95280000Y-87280000D01*
X93880000Y-85880000D02*
X93880000Y-87280000D01*
X95280000Y-87280000D02*
X95280000Y-85880000D01*
X95280000Y-85880000D02*
X93880000Y-85880000D01*
%TO.C,TP4*%
X66340000Y-118820000D02*
X67740000Y-118820000D01*
X67740000Y-118820000D02*
X67740000Y-117420000D01*
X66340000Y-117420000D02*
X66340000Y-118820000D01*
X67740000Y-117420000D02*
X66340000Y-117420000D01*
%TO.C,TP7*%
X93880000Y-95280000D02*
X95280000Y-95280000D01*
X93880000Y-93880000D02*
X93880000Y-95280000D01*
X95280000Y-93880000D02*
X93880000Y-93880000D01*
X95280000Y-95280000D02*
X95280000Y-93880000D01*
%TO.C,TP8*%
X118820000Y-122820000D02*
X118820000Y-121420000D01*
X117420000Y-121420000D02*
X117420000Y-122820000D01*
X117420000Y-122820000D02*
X118820000Y-122820000D01*
X118820000Y-121420000D02*
X117420000Y-121420000D01*
X34800000Y-93880000D02*
X34800000Y-95280000D01*
X34800000Y-95280000D02*
X36200000Y-95280000D01*
X36200000Y-95280000D02*
X36200000Y-93880000D01*
X36200000Y-93880000D02*
X34800000Y-93880000D01*
%TO.C,TP4*%
X38800000Y-63740000D02*
X40200000Y-63740000D01*
X40200000Y-62340000D02*
X38800000Y-62340000D01*
X40200000Y-63740000D02*
X40200000Y-62340000D01*
X38800000Y-62340000D02*
X38800000Y-63740000D01*
%TO.C,TP2*%
X63740000Y-30800000D02*
X62340000Y-30800000D01*
X62340000Y-30800000D02*
X62340000Y-32200000D01*
X62340000Y-32200000D02*
X63740000Y-32200000D01*
X63740000Y-32200000D02*
X63740000Y-30800000D01*
%TO.C,TP1*%
X67740000Y-113420000D02*
X66340000Y-113420000D01*
X66340000Y-113420000D02*
X66340000Y-114820000D01*
X67740000Y-114820000D02*
X67740000Y-113420000D01*
X66340000Y-114820000D02*
X67740000Y-114820000D01*
%TO.C,TP2*%
X34800000Y-30800000D02*
X34800000Y-32200000D01*
X36200000Y-30800000D02*
X34800000Y-30800000D01*
X36200000Y-32200000D02*
X36200000Y-30800000D01*
X34800000Y-32200000D02*
X36200000Y-32200000D01*
X89880000Y-113420000D02*
X89880000Y-114820000D01*
X89880000Y-114820000D02*
X91280000Y-114820000D01*
X91280000Y-113420000D02*
X89880000Y-113420000D01*
X91280000Y-114820000D02*
X91280000Y-113420000D01*
%TO.C,TP4*%
X93880000Y-63740000D02*
X95280000Y-63740000D01*
X95280000Y-62340000D02*
X93880000Y-62340000D01*
X95280000Y-63740000D02*
X95280000Y-62340000D01*
X93880000Y-62340000D02*
X93880000Y-63740000D01*
%TO.C,TP7*%
X95280000Y-38800000D02*
X93880000Y-38800000D01*
X93880000Y-38800000D02*
X93880000Y-40200000D01*
X95280000Y-40200000D02*
X95280000Y-38800000D01*
X93880000Y-40200000D02*
X95280000Y-40200000D01*
%TO.C,TP4*%
X122820000Y-118820000D02*
X122820000Y-117420000D01*
X122820000Y-117420000D02*
X121420000Y-117420000D01*
X121420000Y-118820000D02*
X122820000Y-118820000D01*
X121420000Y-117420000D02*
X121420000Y-118820000D01*
%TO.C,TP2*%
X117420000Y-32200000D02*
X118820000Y-32200000D01*
X118820000Y-30800000D02*
X117420000Y-30800000D01*
X117420000Y-30800000D02*
X117420000Y-32200000D01*
X118820000Y-32200000D02*
X118820000Y-30800000D01*
%TO.C,TP8*%
X89880000Y-121420000D02*
X89880000Y-122820000D01*
X91280000Y-121420000D02*
X89880000Y-121420000D01*
X89880000Y-122820000D02*
X91280000Y-122820000D01*
X91280000Y-122820000D02*
X91280000Y-121420000D01*
%TO.C,TP7*%
X67740000Y-40200000D02*
X67740000Y-38800000D01*
X66340000Y-38800000D02*
X66340000Y-40200000D01*
X67740000Y-38800000D02*
X66340000Y-38800000D01*
X66340000Y-40200000D02*
X67740000Y-40200000D01*
%TO.C,TP9*%
X87280000Y-40200000D02*
X87280000Y-38800000D01*
X85880000Y-40200000D02*
X87280000Y-40200000D01*
X85880000Y-38800000D02*
X85880000Y-40200000D01*
X87280000Y-38800000D02*
X85880000Y-38800000D01*
%TO.C,TP7*%
X67740000Y-121420000D02*
X66340000Y-121420000D01*
X66340000Y-121420000D02*
X66340000Y-122820000D01*
X67740000Y-122820000D02*
X67740000Y-121420000D01*
X66340000Y-122820000D02*
X67740000Y-122820000D01*
%TO.C,TP1*%
X121420000Y-30800000D02*
X121420000Y-32200000D01*
X121420000Y-32200000D02*
X122820000Y-32200000D01*
X122820000Y-30800000D02*
X121420000Y-30800000D01*
X122820000Y-32200000D02*
X122820000Y-30800000D01*
X121420000Y-59740000D02*
X122820000Y-59740000D01*
X121420000Y-58340000D02*
X121420000Y-59740000D01*
X122820000Y-58340000D02*
X121420000Y-58340000D01*
X122820000Y-59740000D02*
X122820000Y-58340000D01*
%TO.C,TP3*%
X58340000Y-113420000D02*
X58340000Y-114820000D01*
X59740000Y-113420000D02*
X58340000Y-113420000D01*
X58340000Y-114820000D02*
X59740000Y-114820000D01*
X59740000Y-114820000D02*
X59740000Y-113420000D01*
X58340000Y-32200000D02*
X59740000Y-32200000D01*
X59740000Y-32200000D02*
X59740000Y-30800000D01*
X58340000Y-30800000D02*
X58340000Y-32200000D01*
X59740000Y-30800000D02*
X58340000Y-30800000D01*
%TO.C,TP7*%
X95280000Y-66340000D02*
X93880000Y-66340000D01*
X93880000Y-67740000D02*
X95280000Y-67740000D01*
X95280000Y-67740000D02*
X95280000Y-66340000D01*
X93880000Y-66340000D02*
X93880000Y-67740000D01*
%TO.C,TP3*%
X114820000Y-87280000D02*
X114820000Y-85880000D01*
X113420000Y-87280000D02*
X114820000Y-87280000D01*
X113420000Y-85880000D02*
X113420000Y-87280000D01*
X114820000Y-85880000D02*
X113420000Y-85880000D01*
%TO.C,TP7*%
X121420000Y-93880000D02*
X121420000Y-95280000D01*
X121420000Y-95280000D02*
X122820000Y-95280000D01*
X122820000Y-95280000D02*
X122820000Y-93880000D01*
X122820000Y-93880000D02*
X121420000Y-93880000D01*
%TO.C,TP5*%
X89880000Y-36200000D02*
X91280000Y-36200000D01*
X91280000Y-34800000D02*
X89880000Y-34800000D01*
X89880000Y-34800000D02*
X89880000Y-36200000D01*
X91280000Y-36200000D02*
X91280000Y-34800000D01*
%TO.C,TP7*%
X38800000Y-66340000D02*
X38800000Y-67740000D01*
X40200000Y-67740000D02*
X40200000Y-66340000D01*
X38800000Y-67740000D02*
X40200000Y-67740000D01*
X40200000Y-66340000D02*
X38800000Y-66340000D01*
%TO.C,TP9*%
X87280000Y-95280000D02*
X87280000Y-93880000D01*
X87280000Y-93880000D02*
X85880000Y-93880000D01*
X85880000Y-95280000D02*
X87280000Y-95280000D01*
X85880000Y-93880000D02*
X85880000Y-95280000D01*
%TO.C,TP4*%
X67740000Y-91280000D02*
X67740000Y-89880000D01*
X66340000Y-89880000D02*
X66340000Y-91280000D01*
X67740000Y-89880000D02*
X66340000Y-89880000D01*
X66340000Y-91280000D02*
X67740000Y-91280000D01*
%TO.C,TP2*%
X118820000Y-85880000D02*
X117420000Y-85880000D01*
X117420000Y-87280000D02*
X118820000Y-87280000D01*
X117420000Y-85880000D02*
X117420000Y-87280000D01*
X118820000Y-87280000D02*
X118820000Y-85880000D01*
%TO.C,TP6*%
X59740000Y-117420000D02*
X58340000Y-117420000D01*
X58340000Y-118820000D02*
X59740000Y-118820000D01*
X58340000Y-117420000D02*
X58340000Y-118820000D01*
X59740000Y-118820000D02*
X59740000Y-117420000D01*
%TO.C,TP1*%
X122820000Y-114820000D02*
X122820000Y-113420000D01*
X122820000Y-113420000D02*
X121420000Y-113420000D01*
X121420000Y-114820000D02*
X122820000Y-114820000D01*
X121420000Y-113420000D02*
X121420000Y-114820000D01*
%TO.C,TP3*%
X30800000Y-32200000D02*
X32200000Y-32200000D01*
X32200000Y-30800000D02*
X30800000Y-30800000D01*
X30800000Y-30800000D02*
X30800000Y-32200000D01*
X32200000Y-32200000D02*
X32200000Y-30800000D01*
%TO.C,TP7*%
X38800000Y-122820000D02*
X40200000Y-122820000D01*
X38800000Y-121420000D02*
X38800000Y-122820000D01*
X40200000Y-121420000D02*
X38800000Y-121420000D01*
X40200000Y-122820000D02*
X40200000Y-121420000D01*
%TO.C,TP5*%
X34800000Y-63740000D02*
X36200000Y-63740000D01*
X36200000Y-63740000D02*
X36200000Y-62340000D01*
X34800000Y-62340000D02*
X34800000Y-63740000D01*
X36200000Y-62340000D02*
X34800000Y-62340000D01*
%TO.C,TP7*%
X122820000Y-66340000D02*
X121420000Y-66340000D01*
X121420000Y-67740000D02*
X122820000Y-67740000D01*
X121420000Y-66340000D02*
X121420000Y-67740000D01*
X122820000Y-67740000D02*
X122820000Y-66340000D01*
%TO.C,TP1*%
X38800000Y-32200000D02*
X40200000Y-32200000D01*
X38800000Y-30800000D02*
X38800000Y-32200000D01*
X40200000Y-30800000D02*
X38800000Y-30800000D01*
X40200000Y-32200000D02*
X40200000Y-30800000D01*
%TO.C,TP4*%
X121420000Y-62340000D02*
X121420000Y-63740000D01*
X122820000Y-63740000D02*
X122820000Y-62340000D01*
X121420000Y-63740000D02*
X122820000Y-63740000D01*
X122820000Y-62340000D02*
X121420000Y-62340000D01*
%TO.C,TP5*%
X34800000Y-91280000D02*
X36200000Y-91280000D01*
X36200000Y-91280000D02*
X36200000Y-89880000D01*
X36200000Y-89880000D02*
X34800000Y-89880000D01*
X34800000Y-89880000D02*
X34800000Y-91280000D01*
%TO.C,TP6*%
X87280000Y-118820000D02*
X87280000Y-117420000D01*
X85880000Y-117420000D02*
X85880000Y-118820000D01*
X85880000Y-118820000D02*
X87280000Y-118820000D01*
X87280000Y-117420000D02*
X85880000Y-117420000D01*
%TO.C,TP1*%
X66340000Y-59740000D02*
X67740000Y-59740000D01*
X67740000Y-58340000D02*
X66340000Y-58340000D01*
X66340000Y-58340000D02*
X66340000Y-59740000D01*
X67740000Y-59740000D02*
X67740000Y-58340000D01*
X38800000Y-87280000D02*
X40200000Y-87280000D01*
X40200000Y-85880000D02*
X38800000Y-85880000D01*
X40200000Y-87280000D02*
X40200000Y-85880000D01*
X38800000Y-85880000D02*
X38800000Y-87280000D01*
%TO.C,TP6*%
X32200000Y-62340000D02*
X30800000Y-62340000D01*
X32200000Y-63740000D02*
X32200000Y-62340000D01*
X30800000Y-63740000D02*
X32200000Y-63740000D01*
X30800000Y-62340000D02*
X30800000Y-63740000D01*
%TO.C,TP4*%
X95280000Y-117420000D02*
X93880000Y-117420000D01*
X93880000Y-117420000D02*
X93880000Y-118820000D01*
X95280000Y-118820000D02*
X95280000Y-117420000D01*
X93880000Y-118820000D02*
X95280000Y-118820000D01*
%TO.C,TP6*%
X58340000Y-36200000D02*
X59740000Y-36200000D01*
X59740000Y-34800000D02*
X58340000Y-34800000D01*
X58340000Y-34800000D02*
X58340000Y-36200000D01*
X59740000Y-36200000D02*
X59740000Y-34800000D01*
%TO.C,TP5*%
X62340000Y-89880000D02*
X62340000Y-91280000D01*
X62340000Y-91280000D02*
X63740000Y-91280000D01*
X63740000Y-89880000D02*
X62340000Y-89880000D01*
X63740000Y-91280000D02*
X63740000Y-89880000D01*
%TO.C,TP3*%
X85880000Y-58340000D02*
X85880000Y-59740000D01*
X87280000Y-58340000D02*
X85880000Y-58340000D01*
X87280000Y-59740000D02*
X87280000Y-58340000D01*
X85880000Y-59740000D02*
X87280000Y-59740000D01*
%TO.C,TP2*%
X89880000Y-32200000D02*
X91280000Y-32200000D01*
X91280000Y-32200000D02*
X91280000Y-30800000D01*
X91280000Y-30800000D02*
X89880000Y-30800000D01*
X89880000Y-30800000D02*
X89880000Y-32200000D01*
%TO.C,TP4*%
X40200000Y-118820000D02*
X40200000Y-117420000D01*
X38800000Y-118820000D02*
X40200000Y-118820000D01*
X38800000Y-117420000D02*
X38800000Y-118820000D01*
X40200000Y-117420000D02*
X38800000Y-117420000D01*
%TO.C,TP1*%
X40200000Y-58340000D02*
X38800000Y-58340000D01*
X38800000Y-59740000D02*
X40200000Y-59740000D01*
X38800000Y-58340000D02*
X38800000Y-59740000D01*
X40200000Y-59740000D02*
X40200000Y-58340000D01*
%TO.C,TP3*%
X58340000Y-85880000D02*
X58340000Y-87280000D01*
X58340000Y-87280000D02*
X59740000Y-87280000D01*
X59740000Y-85880000D02*
X58340000Y-85880000D01*
X59740000Y-87280000D02*
X59740000Y-85880000D01*
%TO.C,TP2*%
X62340000Y-87280000D02*
X63740000Y-87280000D01*
X62340000Y-85880000D02*
X62340000Y-87280000D01*
X63740000Y-85880000D02*
X62340000Y-85880000D01*
X63740000Y-87280000D02*
X63740000Y-85880000D01*
%TO.C,TP6*%
X32200000Y-118820000D02*
X32200000Y-117420000D01*
X32200000Y-117420000D02*
X30800000Y-117420000D01*
X30800000Y-117420000D02*
X30800000Y-118820000D01*
X30800000Y-118820000D02*
X32200000Y-118820000D01*
%TO.C,TP2*%
X91280000Y-87280000D02*
X91280000Y-85880000D01*
X89880000Y-87280000D02*
X91280000Y-87280000D01*
X91280000Y-85880000D02*
X89880000Y-85880000D01*
X89880000Y-85880000D02*
X89880000Y-87280000D01*
%TO.C,TP5*%
X118820000Y-117420000D02*
X117420000Y-117420000D01*
X117420000Y-117420000D02*
X117420000Y-118820000D01*
X117420000Y-118820000D02*
X118820000Y-118820000D01*
X118820000Y-118820000D02*
X118820000Y-117420000D01*
%TO.C,TP4*%
X95280000Y-36200000D02*
X95280000Y-34800000D01*
X93880000Y-34800000D02*
X93880000Y-36200000D01*
X95280000Y-34800000D02*
X93880000Y-34800000D01*
X93880000Y-36200000D02*
X95280000Y-36200000D01*
%TO.C,TP9*%
X30800000Y-38800000D02*
X30800000Y-40200000D01*
X32200000Y-40200000D02*
X32200000Y-38800000D01*
X30800000Y-40200000D02*
X32200000Y-40200000D01*
X32200000Y-38800000D02*
X30800000Y-38800000D01*
%TO.C,TP6*%
X30800000Y-36200000D02*
X32200000Y-36200000D01*
X32200000Y-36200000D02*
X32200000Y-34800000D01*
X32200000Y-34800000D02*
X30800000Y-34800000D01*
X30800000Y-34800000D02*
X30800000Y-36200000D01*
X58340000Y-62340000D02*
X58340000Y-63740000D01*
X59740000Y-63740000D02*
X59740000Y-62340000D01*
X59740000Y-62340000D02*
X58340000Y-62340000D01*
X58340000Y-63740000D02*
X59740000Y-63740000D01*
%TO.C,TP8*%
X63740000Y-67740000D02*
X63740000Y-66340000D01*
X62340000Y-67740000D02*
X63740000Y-67740000D01*
X63740000Y-66340000D02*
X62340000Y-66340000D01*
X62340000Y-66340000D02*
X62340000Y-67740000D01*
X89880000Y-93880000D02*
X89880000Y-95280000D01*
X89880000Y-95280000D02*
X91280000Y-95280000D01*
X91280000Y-95280000D02*
X91280000Y-93880000D01*
X91280000Y-93880000D02*
X89880000Y-93880000D01*
%TO.C,TP2*%
X117420000Y-113420000D02*
X117420000Y-114820000D01*
X117420000Y-114820000D02*
X118820000Y-114820000D01*
X118820000Y-113420000D02*
X117420000Y-113420000D01*
X118820000Y-114820000D02*
X118820000Y-113420000D01*
%TO.C,TP3*%
X58340000Y-58340000D02*
X58340000Y-59740000D01*
X59740000Y-59740000D02*
X59740000Y-58340000D01*
X58340000Y-59740000D02*
X59740000Y-59740000D01*
X59740000Y-58340000D02*
X58340000Y-58340000D01*
%TO.C,TP1*%
X66340000Y-30800000D02*
X66340000Y-32200000D01*
X67740000Y-30800000D02*
X66340000Y-30800000D01*
X67740000Y-32200000D02*
X67740000Y-30800000D01*
X66340000Y-32200000D02*
X67740000Y-32200000D01*
%TO.C,TP8*%
X91280000Y-67740000D02*
X91280000Y-66340000D01*
X91280000Y-66340000D02*
X89880000Y-66340000D01*
X89880000Y-66340000D02*
X89880000Y-67740000D01*
X89880000Y-67740000D02*
X91280000Y-67740000D01*
%TO.C,TP1*%
X93880000Y-59740000D02*
X95280000Y-59740000D01*
X95280000Y-58340000D02*
X93880000Y-58340000D01*
X95280000Y-59740000D02*
X95280000Y-58340000D01*
X93880000Y-58340000D02*
X93880000Y-59740000D01*
%TO.C,TP9*%
X59740000Y-38800000D02*
X58340000Y-38800000D01*
X58340000Y-40200000D02*
X59740000Y-40200000D01*
X58340000Y-38800000D02*
X58340000Y-40200000D01*
X59740000Y-40200000D02*
X59740000Y-38800000D01*
%TO.C,TP5*%
X118820000Y-91280000D02*
X118820000Y-89880000D01*
X117420000Y-89880000D02*
X117420000Y-91280000D01*
X117420000Y-91280000D02*
X118820000Y-91280000D01*
X118820000Y-89880000D02*
X117420000Y-89880000D01*
%TO.C,TP9*%
X87280000Y-122820000D02*
X87280000Y-121420000D01*
X87280000Y-121420000D02*
X85880000Y-121420000D01*
X85880000Y-121420000D02*
X85880000Y-122820000D01*
X85880000Y-122820000D02*
X87280000Y-122820000D01*
%TO.C,TP1*%
X93880000Y-113420000D02*
X93880000Y-114820000D01*
X95280000Y-113420000D02*
X93880000Y-113420000D01*
X93880000Y-114820000D02*
X95280000Y-114820000D01*
X95280000Y-114820000D02*
X95280000Y-113420000D01*
%TO.C,TP9*%
X30800000Y-95280000D02*
X32200000Y-95280000D01*
X32200000Y-95280000D02*
X32200000Y-93880000D01*
X32200000Y-93880000D02*
X30800000Y-93880000D01*
X30800000Y-93880000D02*
X30800000Y-95280000D01*
%TO.C,TP6*%
X113420000Y-34800000D02*
X113420000Y-36200000D01*
X113420000Y-36200000D02*
X114820000Y-36200000D01*
X114820000Y-36200000D02*
X114820000Y-34800000D01*
X114820000Y-34800000D02*
X113420000Y-34800000D01*
X87280000Y-63740000D02*
X87280000Y-62340000D01*
X85880000Y-62340000D02*
X85880000Y-63740000D01*
X87280000Y-62340000D02*
X85880000Y-62340000D01*
X85880000Y-63740000D02*
X87280000Y-63740000D01*
%TO.C,TP7*%
X40200000Y-40200000D02*
X40200000Y-38800000D01*
X40200000Y-38800000D02*
X38800000Y-38800000D01*
X38800000Y-38800000D02*
X38800000Y-40200000D01*
X38800000Y-40200000D02*
X40200000Y-40200000D01*
%TO.C,TP3*%
X32200000Y-87280000D02*
X32200000Y-85880000D01*
X30800000Y-85880000D02*
X30800000Y-87280000D01*
X32200000Y-85880000D02*
X30800000Y-85880000D01*
X30800000Y-87280000D02*
X32200000Y-87280000D01*
%TO.C,TP7*%
X121420000Y-40200000D02*
X122820000Y-40200000D01*
X121420000Y-38800000D02*
X121420000Y-40200000D01*
X122820000Y-40200000D02*
X122820000Y-38800000D01*
X122820000Y-38800000D02*
X121420000Y-38800000D01*
%TO.C,TP8*%
X117420000Y-93880000D02*
X117420000Y-95280000D01*
X118820000Y-93880000D02*
X117420000Y-93880000D01*
X118820000Y-95280000D02*
X118820000Y-93880000D01*
X117420000Y-95280000D02*
X118820000Y-95280000D01*
%TO.C,TP7*%
X93880000Y-122820000D02*
X95280000Y-122820000D01*
X95280000Y-121420000D02*
X93880000Y-121420000D01*
X93880000Y-121420000D02*
X93880000Y-122820000D01*
X95280000Y-122820000D02*
X95280000Y-121420000D01*
%TO.C,TP5*%
X62340000Y-118820000D02*
X63740000Y-118820000D01*
X63740000Y-117420000D02*
X62340000Y-117420000D01*
X63740000Y-118820000D02*
X63740000Y-117420000D01*
X62340000Y-117420000D02*
X62340000Y-118820000D01*
%TO.C,TP9*%
X114820000Y-38800000D02*
X113420000Y-38800000D01*
X113420000Y-38800000D02*
X113420000Y-40200000D01*
X113420000Y-40200000D02*
X114820000Y-40200000D01*
X114820000Y-40200000D02*
X114820000Y-38800000D01*
%TO.C,TP8*%
X118820000Y-67740000D02*
X118820000Y-66340000D01*
X117420000Y-66340000D02*
X117420000Y-67740000D01*
X118820000Y-66340000D02*
X117420000Y-66340000D01*
X117420000Y-67740000D02*
X118820000Y-67740000D01*
%TO.C,TP4*%
X66340000Y-63740000D02*
X67740000Y-63740000D01*
X66340000Y-62340000D02*
X66340000Y-63740000D01*
X67740000Y-62340000D02*
X66340000Y-62340000D01*
X67740000Y-63740000D02*
X67740000Y-62340000D01*
%TO.C,TP1*%
X66340000Y-87280000D02*
X67740000Y-87280000D01*
X67740000Y-85880000D02*
X66340000Y-85880000D01*
X66340000Y-85880000D02*
X66340000Y-87280000D01*
X67740000Y-87280000D02*
X67740000Y-85880000D01*
%TO.C,TP5*%
X63740000Y-63740000D02*
X63740000Y-62340000D01*
X62340000Y-62340000D02*
X62340000Y-63740000D01*
X62340000Y-63740000D02*
X63740000Y-63740000D01*
X63740000Y-62340000D02*
X62340000Y-62340000D01*
%TO.C,TP3*%
X113420000Y-32200000D02*
X114820000Y-32200000D01*
X113420000Y-30800000D02*
X113420000Y-32200000D01*
X114820000Y-32200000D02*
X114820000Y-30800000D01*
X114820000Y-30800000D02*
X113420000Y-30800000D01*
%TO.C,TP7*%
X38800000Y-95280000D02*
X40200000Y-95280000D01*
X40200000Y-93880000D02*
X38800000Y-93880000D01*
X40200000Y-95280000D02*
X40200000Y-93880000D01*
X38800000Y-93880000D02*
X38800000Y-95280000D01*
%TO.C,TP2*%
X34800000Y-113420000D02*
X34800000Y-114820000D01*
X36200000Y-113420000D02*
X34800000Y-113420000D01*
X36200000Y-114820000D02*
X36200000Y-113420000D01*
X34800000Y-114820000D02*
X36200000Y-114820000D01*
%TO.C,TP1*%
X121420000Y-87280000D02*
X122820000Y-87280000D01*
X122820000Y-87280000D02*
X122820000Y-85880000D01*
X122820000Y-85880000D02*
X121420000Y-85880000D01*
X121420000Y-85880000D02*
X121420000Y-87280000D01*
%TO.C,TP3*%
X113420000Y-58340000D02*
X113420000Y-59740000D01*
X113420000Y-59740000D02*
X114820000Y-59740000D01*
X114820000Y-59740000D02*
X114820000Y-58340000D01*
X114820000Y-58340000D02*
X113420000Y-58340000D01*
%TO.C,TP4*%
X66340000Y-36200000D02*
X67740000Y-36200000D01*
X67740000Y-36200000D02*
X67740000Y-34800000D01*
X67740000Y-34800000D02*
X66340000Y-34800000D01*
X66340000Y-34800000D02*
X66340000Y-36200000D01*
%TO.C,TP9*%
X32200000Y-121420000D02*
X30800000Y-121420000D01*
X32200000Y-122820000D02*
X32200000Y-121420000D01*
X30800000Y-122820000D02*
X32200000Y-122820000D01*
X30800000Y-121420000D02*
X30800000Y-122820000D01*
%TO.C,TP7*%
X67740000Y-95280000D02*
X67740000Y-93880000D01*
X66340000Y-95280000D02*
X67740000Y-95280000D01*
X66340000Y-93880000D02*
X66340000Y-95280000D01*
X67740000Y-93880000D02*
X66340000Y-93880000D01*
%TO.C,TP2*%
X117420000Y-59740000D02*
X118820000Y-59740000D01*
X118820000Y-58340000D02*
X117420000Y-58340000D01*
X117420000Y-58340000D02*
X117420000Y-59740000D01*
X118820000Y-59740000D02*
X118820000Y-58340000D01*
%TO.C,TP5*%
X118820000Y-36200000D02*
X118820000Y-34800000D01*
X117420000Y-34800000D02*
X117420000Y-36200000D01*
X117420000Y-36200000D02*
X118820000Y-36200000D01*
X118820000Y-34800000D02*
X117420000Y-34800000D01*
%TO.C,TP8*%
X63740000Y-93880000D02*
X62340000Y-93880000D01*
X63740000Y-95280000D02*
X63740000Y-93880000D01*
X62340000Y-93880000D02*
X62340000Y-95280000D01*
X62340000Y-95280000D02*
X63740000Y-95280000D01*
X34800000Y-122820000D02*
X36200000Y-122820000D01*
X34800000Y-121420000D02*
X34800000Y-122820000D01*
X36200000Y-121420000D02*
X34800000Y-121420000D01*
X36200000Y-122820000D02*
X36200000Y-121420000D01*
%TO.C,TP9*%
X113420000Y-122820000D02*
X114820000Y-122820000D01*
X114820000Y-121420000D02*
X113420000Y-121420000D01*
X114820000Y-122820000D02*
X114820000Y-121420000D01*
X113420000Y-121420000D02*
X113420000Y-122820000D01*
%TO.C,TP8*%
X117420000Y-38800000D02*
X117420000Y-40200000D01*
X117420000Y-40200000D02*
X118820000Y-40200000D01*
X118820000Y-38800000D02*
X117420000Y-38800000D01*
X118820000Y-40200000D02*
X118820000Y-38800000D01*
X34800000Y-66340000D02*
X34800000Y-67740000D01*
X34800000Y-67740000D02*
X36200000Y-67740000D01*
X36200000Y-66340000D02*
X34800000Y-66340000D01*
X36200000Y-67740000D02*
X36200000Y-66340000D01*
%TO.C,TP2*%
X62340000Y-113420000D02*
X62340000Y-114820000D01*
X63740000Y-114820000D02*
X63740000Y-113420000D01*
X62340000Y-114820000D02*
X63740000Y-114820000D01*
X63740000Y-113420000D02*
X62340000Y-113420000D01*
%TO.C,TP5*%
X91280000Y-117420000D02*
X89880000Y-117420000D01*
X89880000Y-117420000D02*
X89880000Y-118820000D01*
X91280000Y-118820000D02*
X91280000Y-117420000D01*
X89880000Y-118820000D02*
X91280000Y-118820000D01*
X117420000Y-62340000D02*
X117420000Y-63740000D01*
X118820000Y-63740000D02*
X118820000Y-62340000D01*
X117420000Y-63740000D02*
X118820000Y-63740000D01*
X118820000Y-62340000D02*
X117420000Y-62340000D01*
%TO.C,TP2*%
X62340000Y-59740000D02*
X63740000Y-59740000D01*
X63740000Y-59740000D02*
X63740000Y-58340000D01*
X62340000Y-58340000D02*
X62340000Y-59740000D01*
X63740000Y-58340000D02*
X62340000Y-58340000D01*
%TO.C,TP6*%
X32200000Y-89880000D02*
X30800000Y-89880000D01*
X30800000Y-89880000D02*
X30800000Y-91280000D01*
X30800000Y-91280000D02*
X32200000Y-91280000D01*
X32200000Y-91280000D02*
X32200000Y-89880000D01*
%TO.C,TP7*%
X67740000Y-67740000D02*
X67740000Y-66340000D01*
X66340000Y-67740000D02*
X67740000Y-67740000D01*
X67740000Y-66340000D02*
X66340000Y-66340000D01*
X66340000Y-66340000D02*
X66340000Y-67740000D01*
%TO.C,TP3*%
X30800000Y-114820000D02*
X32200000Y-114820000D01*
X32200000Y-114820000D02*
X32200000Y-113420000D01*
X32200000Y-113420000D02*
X30800000Y-113420000D01*
X30800000Y-113420000D02*
X30800000Y-114820000D01*
%TD*%
M02*
