%TF.GenerationSoftware,KiCad,Pcbnew,(6.0.7)*%
%TF.CreationDate,2022-10-24T21:44:15-05:00*%
%TF.ProjectId,Panelized,50616e65-6c69-47a6-9564-2e6b69636164,4*%
%TF.SameCoordinates,Original*%
%TF.FileFunction,Profile,NP*%
%FSLAX46Y46*%
G04 Gerber Fmt 4.6, Leading zero omitted, Abs format (unit mm)*
G04 Created by KiCad (PCBNEW (6.0.7)) date 2022-10-24 21:44:15*
%MOMM*%
%LPD*%
G01*
G04 APERTURE LIST*
%TA.AperFunction,Profile*%
%ADD10C,0.100000*%
%TD*%
G04 APERTURE END LIST*
D10*
X130620000Y-50540000D02*
X105620000Y-50540000D01*
X75540000Y-105620000D02*
X50540000Y-105620000D01*
X48000000Y-50540000D02*
X23000000Y-50540000D01*
X75540000Y-23000000D02*
X50540000Y-23000000D01*
X78080000Y-78080000D02*
X78080000Y-78080000D01*
X130620000Y-48000000D02*
X130620000Y-23000000D01*
X130620000Y-23000000D02*
X105620000Y-23000000D01*
X48000000Y-48000000D02*
X48000000Y-23000000D01*
X103080000Y-48000000D02*
X103080000Y-23000000D01*
X48000000Y-105620000D02*
X48000000Y-105620000D01*
X23000000Y-130620000D02*
X48000000Y-130620000D01*
X23000000Y-103080000D02*
X48000000Y-103080000D01*
X50540000Y-75540000D02*
X75540000Y-75540000D01*
X50540000Y-105620000D02*
X50540000Y-105620000D01*
X103080000Y-75540000D02*
X103080000Y-50540000D01*
X48000000Y-75540000D02*
X48000000Y-50540000D01*
X21000000Y-21000000D02*
X21000000Y-21000000D01*
X15000000Y-15000000D02*
X15000000Y-138620000D01*
X103080000Y-23000000D02*
X103080000Y-23000000D01*
X105620000Y-75540000D02*
X130620000Y-75540000D01*
X105620000Y-130620000D02*
X130620000Y-130620000D01*
X105620000Y-105620000D02*
X105620000Y-130620000D01*
X138620000Y-138620000D02*
X138620000Y-15000000D01*
X15000000Y-15000000D02*
X15000000Y-15000000D01*
X130620000Y-103080000D02*
X130620000Y-78080000D01*
X78080000Y-105620000D02*
X78080000Y-130620000D01*
X132620000Y-21000000D02*
X132620000Y-132620000D01*
X130620000Y-105620000D02*
X105620000Y-105620000D01*
X75540000Y-78080000D02*
X50540000Y-78080000D01*
X23000000Y-23000000D02*
X23000000Y-48000000D01*
X75540000Y-130620000D02*
X75540000Y-105620000D01*
X23000000Y-75540000D02*
X48000000Y-75540000D01*
X48000000Y-48000000D02*
X48000000Y-48000000D01*
X21000000Y-132620000D02*
X21000000Y-21000000D01*
X48000000Y-75540000D02*
X48000000Y-75540000D01*
X78080000Y-103080000D02*
X103080000Y-103080000D01*
X50540000Y-75540000D02*
X50540000Y-75540000D01*
X105620000Y-50540000D02*
X105620000Y-75540000D01*
X50540000Y-105620000D02*
X50540000Y-130620000D01*
X15000000Y-138620000D02*
X138620000Y-138620000D01*
X103080000Y-103080000D02*
X103080000Y-78080000D01*
X78080000Y-78080000D02*
X78080000Y-103080000D01*
X75540000Y-48000000D02*
X75540000Y-23000000D01*
X48000000Y-103080000D02*
X48000000Y-78080000D01*
X78080000Y-50540000D02*
X78080000Y-75540000D01*
X23000000Y-105620000D02*
X23000000Y-130620000D01*
X75540000Y-75540000D02*
X75540000Y-50540000D01*
X21000000Y-21000000D02*
X132620000Y-21000000D01*
X23000000Y-50540000D02*
X23000000Y-75540000D01*
X130620000Y-75540000D02*
X130620000Y-50540000D01*
X130620000Y-78080000D02*
X105620000Y-78080000D01*
X78080000Y-75540000D02*
X103080000Y-75540000D01*
X105620000Y-130620000D02*
X105620000Y-130620000D01*
X132620000Y-132620000D02*
X21000000Y-132620000D01*
X50540000Y-130620000D02*
X75540000Y-130620000D01*
X48000000Y-130620000D02*
X48000000Y-105620000D01*
X103080000Y-50540000D02*
X78080000Y-50540000D01*
X103080000Y-78080000D02*
X78080000Y-78080000D01*
X105620000Y-48000000D02*
X130620000Y-48000000D01*
X48000000Y-78080000D02*
X23000000Y-78080000D01*
X50540000Y-78080000D02*
X50540000Y-103080000D01*
X103080000Y-23000000D02*
X78080000Y-23000000D01*
X50540000Y-23000000D02*
X50540000Y-48000000D01*
X23000000Y-48000000D02*
X48000000Y-48000000D01*
X50540000Y-48000000D02*
X50540000Y-48000000D01*
X105620000Y-78080000D02*
X105620000Y-78080000D01*
X50540000Y-50540000D02*
X50540000Y-75540000D01*
X23000000Y-78080000D02*
X23000000Y-78080000D01*
X23000000Y-78080000D02*
X23000000Y-103080000D01*
X78080000Y-48000000D02*
X103080000Y-48000000D01*
X105620000Y-75540000D02*
X105620000Y-75540000D01*
X103080000Y-130620000D02*
X103080000Y-105620000D01*
X78080000Y-23000000D02*
X78080000Y-48000000D01*
X103080000Y-50540000D02*
X103080000Y-50540000D01*
X78080000Y-130620000D02*
X103080000Y-130620000D01*
X105620000Y-78080000D02*
X105620000Y-103080000D01*
X138620000Y-15000000D02*
X15000000Y-15000000D01*
X105620000Y-23000000D02*
X105620000Y-23000000D01*
X48000000Y-105620000D02*
X23000000Y-105620000D01*
X48000000Y-23000000D02*
X23000000Y-23000000D01*
X50540000Y-48000000D02*
X75540000Y-48000000D01*
X75540000Y-103080000D02*
X75540000Y-78080000D01*
X105620000Y-103080000D02*
X130620000Y-103080000D01*
X78080000Y-130620000D02*
X78080000Y-130620000D01*
X130620000Y-130620000D02*
X130620000Y-105620000D01*
X105620000Y-23000000D02*
X105620000Y-48000000D01*
X75540000Y-78080000D02*
X75540000Y-78080000D01*
X75540000Y-50540000D02*
X50540000Y-50540000D01*
X50540000Y-103080000D02*
X75540000Y-103080000D01*
X103080000Y-105620000D02*
X78080000Y-105620000D01*
M02*
