%TF.GenerationSoftware,KiCad,Pcbnew,(6.0.7)*%
%TF.CreationDate,2022-10-24T21:44:15-05:00*%
%TF.ProjectId,Panelized,50616e65-6c69-47a6-9564-2e6b69636164,4*%
%TF.SameCoordinates,Original*%
%TF.FileFunction,Paste,Top*%
%TF.FilePolarity,Positive*%
%FSLAX46Y46*%
G04 Gerber Fmt 4.6, Leading zero omitted, Abs format (unit mm)*
G04 Created by KiCad (PCBNEW (6.0.7)) date 2022-10-24 21:44:15*
%MOMM*%
%LPD*%
G01*
G04 APERTURE LIST*
G04 Aperture macros list*
%AMRoundRect*
0 Rectangle with rounded corners*
0 $1 Rounding radius*
0 $2 $3 $4 $5 $6 $7 $8 $9 X,Y pos of 4 corners*
0 Add a 4 corners polygon primitive as box body*
4,1,4,$2,$3,$4,$5,$6,$7,$8,$9,$2,$3,0*
0 Add four circle primitives for the rounded corners*
1,1,$1+$1,$2,$3*
1,1,$1+$1,$4,$5*
1,1,$1+$1,$6,$7*
1,1,$1+$1,$8,$9*
0 Add four rect primitives between the rounded corners*
20,1,$1+$1,$2,$3,$4,$5,0*
20,1,$1+$1,$4,$5,$6,$7,0*
20,1,$1+$1,$6,$7,$8,$9,0*
20,1,$1+$1,$8,$9,$2,$3,0*%
G04 Aperture macros list end*
%ADD10O,1.400000X0.449999*%
%ADD11RoundRect,0.250000X0.350000X0.450000X-0.350000X0.450000X-0.350000X-0.450000X0.350000X-0.450000X0*%
%ADD12RoundRect,0.250000X0.337500X0.475000X-0.337500X0.475000X-0.337500X-0.475000X0.337500X-0.475000X0*%
%ADD13RoundRect,0.150000X0.150000X0.625000X-0.150000X0.625000X-0.150000X-0.625000X0.150000X-0.625000X0*%
%ADD14RoundRect,0.250000X0.350000X0.650000X-0.350000X0.650000X-0.350000X-0.650000X0.350000X-0.650000X0*%
%ADD15RoundRect,0.250000X-0.337500X-0.475000X0.337500X-0.475000X0.337500X0.475000X-0.337500X0.475000X0*%
G04 APERTURE END LIST*
D10*
%TO.C,U1*%
X60090001Y-33225001D03*
X60090001Y-33875002D03*
X60090001Y-34525001D03*
X60090001Y-35175002D03*
X60090001Y-35825001D03*
X60090001Y-36475002D03*
X60090001Y-37125001D03*
X60090001Y-37775002D03*
X65990002Y-37775002D03*
X65990002Y-37125001D03*
X65990002Y-36475002D03*
X65990002Y-35825001D03*
X65990002Y-35175002D03*
X65990002Y-34525001D03*
X65990002Y-33875002D03*
X65990002Y-33225001D03*
%TD*%
D11*
%TO.C,R3*%
X126620000Y-59540000D03*
X124620000Y-59540000D03*
%TD*%
D10*
%TO.C,U1*%
X60090001Y-60765001D03*
X60090001Y-61415002D03*
X60090001Y-62065001D03*
X60090001Y-62715002D03*
X60090001Y-63365001D03*
X60090001Y-64015002D03*
X60090001Y-64665001D03*
X60090001Y-65315002D03*
X65990002Y-65315002D03*
X65990002Y-64665001D03*
X65990002Y-64015002D03*
X65990002Y-63365001D03*
X65990002Y-62715002D03*
X65990002Y-62065001D03*
X65990002Y-61415002D03*
X65990002Y-60765001D03*
%TD*%
%TO.C,U1*%
X87630001Y-115845001D03*
X87630001Y-116495002D03*
X87630001Y-117145001D03*
X87630001Y-117795002D03*
X87630001Y-118445001D03*
X87630001Y-119095002D03*
X87630001Y-119745001D03*
X87630001Y-120395002D03*
X93530002Y-120395002D03*
X93530002Y-119745001D03*
X93530002Y-119095002D03*
X93530002Y-118445001D03*
X93530002Y-117795002D03*
X93530002Y-117145001D03*
X93530002Y-116495002D03*
X93530002Y-115845001D03*
%TD*%
D12*
%TO.C,C1*%
X126657500Y-38096000D03*
X124582500Y-38096000D03*
%TD*%
%TO.C,C1*%
X99117500Y-93176000D03*
X97042500Y-93176000D03*
%TD*%
D10*
%TO.C,U1*%
X87630001Y-88305001D03*
X87630001Y-88955002D03*
X87630001Y-89605001D03*
X87630001Y-90255002D03*
X87630001Y-90905001D03*
X87630001Y-91555002D03*
X87630001Y-92205001D03*
X87630001Y-92855002D03*
X93530002Y-92855002D03*
X93530002Y-92205001D03*
X93530002Y-91555002D03*
X93530002Y-90905001D03*
X93530002Y-90255002D03*
X93530002Y-89605001D03*
X93530002Y-88955002D03*
X93530002Y-88305001D03*
%TD*%
D13*
%TO.C,J3*%
X96080000Y-55540000D03*
X95080000Y-55540000D03*
X94080000Y-55540000D03*
X93080000Y-55540000D03*
D14*
X91780000Y-51665000D03*
X97380000Y-51665000D03*
%TD*%
D11*
%TO.C,R2*%
X71540000Y-91144000D03*
X69540000Y-91144000D03*
%TD*%
D12*
%TO.C,C1*%
X71577500Y-38096000D03*
X69502500Y-38096000D03*
%TD*%
D11*
%TO.C,R3*%
X99080000Y-32000000D03*
X97080000Y-32000000D03*
%TD*%
D13*
%TO.C,J3*%
X68540000Y-83080000D03*
X67540000Y-83080000D03*
X66540000Y-83080000D03*
X65540000Y-83080000D03*
D14*
X69840000Y-79205000D03*
X64240000Y-79205000D03*
%TD*%
D10*
%TO.C,U1*%
X115170001Y-115845001D03*
X115170001Y-116495002D03*
X115170001Y-117145001D03*
X115170001Y-117795002D03*
X115170001Y-118445001D03*
X115170001Y-119095002D03*
X115170001Y-119745001D03*
X115170001Y-120395002D03*
X121070002Y-120395002D03*
X121070002Y-119745001D03*
X121070002Y-119095002D03*
X121070002Y-118445001D03*
X121070002Y-117795002D03*
X121070002Y-117145001D03*
X121070002Y-116495002D03*
X121070002Y-115845001D03*
%TD*%
D11*
%TO.C,R1*%
X99080000Y-116652000D03*
X97080000Y-116652000D03*
%TD*%
D12*
%TO.C,C1*%
X126657500Y-93176000D03*
X124582500Y-93176000D03*
%TD*%
D13*
%TO.C,J3*%
X96080000Y-83080000D03*
X95080000Y-83080000D03*
X94080000Y-83080000D03*
X93080000Y-83080000D03*
D14*
X97380000Y-79205000D03*
X91780000Y-79205000D03*
%TD*%
D11*
%TO.C,R2*%
X126620000Y-118684000D03*
X124620000Y-118684000D03*
%TD*%
%TO.C,R1*%
X71540000Y-89112000D03*
X69540000Y-89112000D03*
%TD*%
D15*
%TO.C,C2*%
X41962500Y-95208000D03*
X44037500Y-95208000D03*
%TD*%
D10*
%TO.C,U1*%
X87630001Y-33225001D03*
X87630001Y-33875002D03*
X87630001Y-34525001D03*
X87630001Y-35175002D03*
X87630001Y-35825001D03*
X87630001Y-36475002D03*
X87630001Y-37125001D03*
X87630001Y-37775002D03*
X93530002Y-37775002D03*
X93530002Y-37125001D03*
X93530002Y-36475002D03*
X93530002Y-35825001D03*
X93530002Y-35175002D03*
X93530002Y-34525001D03*
X93530002Y-33875002D03*
X93530002Y-33225001D03*
%TD*%
%TO.C,U1*%
X32550001Y-33225001D03*
X32550001Y-33875002D03*
X32550001Y-34525001D03*
X32550001Y-35175002D03*
X32550001Y-35825001D03*
X32550001Y-36475002D03*
X32550001Y-37125001D03*
X32550001Y-37775002D03*
X38450002Y-37775002D03*
X38450002Y-37125001D03*
X38450002Y-36475002D03*
X38450002Y-35825001D03*
X38450002Y-35175002D03*
X38450002Y-34525001D03*
X38450002Y-33875002D03*
X38450002Y-33225001D03*
%TD*%
D12*
%TO.C,C1*%
X71577500Y-65636000D03*
X69502500Y-65636000D03*
%TD*%
D11*
%TO.C,R3*%
X44000000Y-32000000D03*
X42000000Y-32000000D03*
%TD*%
%TO.C,R2*%
X44000000Y-36064000D03*
X42000000Y-36064000D03*
%TD*%
D13*
%TO.C,J3*%
X68540000Y-55540000D03*
X67540000Y-55540000D03*
X66540000Y-55540000D03*
X65540000Y-55540000D03*
D14*
X64240000Y-51665000D03*
X69840000Y-51665000D03*
%TD*%
D10*
%TO.C,U1*%
X60090001Y-115845001D03*
X60090001Y-116495002D03*
X60090001Y-117145001D03*
X60090001Y-117795002D03*
X60090001Y-118445001D03*
X60090001Y-119095002D03*
X60090001Y-119745001D03*
X60090001Y-120395002D03*
X65990002Y-120395002D03*
X65990002Y-119745001D03*
X65990002Y-119095002D03*
X65990002Y-118445001D03*
X65990002Y-117795002D03*
X65990002Y-117145001D03*
X65990002Y-116495002D03*
X65990002Y-115845001D03*
%TD*%
D13*
%TO.C,J1*%
X60540000Y-83080000D03*
X59540000Y-83080000D03*
X58540000Y-83080000D03*
X57540000Y-83080000D03*
D14*
X61840000Y-79205000D03*
X56240000Y-79205000D03*
%TD*%
D11*
%TO.C,R1*%
X99080000Y-89112000D03*
X97080000Y-89112000D03*
%TD*%
%TO.C,R3*%
X44000000Y-114620000D03*
X42000000Y-114620000D03*
%TD*%
%TO.C,R1*%
X126620000Y-61572000D03*
X124620000Y-61572000D03*
%TD*%
D10*
%TO.C,U1*%
X87630001Y-60765001D03*
X87630001Y-61415002D03*
X87630001Y-62065001D03*
X87630001Y-62715002D03*
X87630001Y-63365001D03*
X87630001Y-64015002D03*
X87630001Y-64665001D03*
X87630001Y-65315002D03*
X93530002Y-65315002D03*
X93530002Y-64665001D03*
X93530002Y-64015002D03*
X93530002Y-63365001D03*
X93530002Y-62715002D03*
X93530002Y-62065001D03*
X93530002Y-61415002D03*
X93530002Y-60765001D03*
%TD*%
D13*
%TO.C,J1*%
X115620000Y-110620000D03*
X114620000Y-110620000D03*
X113620000Y-110620000D03*
X112620000Y-110620000D03*
D14*
X111320000Y-106745000D03*
X116920000Y-106745000D03*
%TD*%
D11*
%TO.C,R1*%
X126620000Y-34032000D03*
X124620000Y-34032000D03*
%TD*%
D10*
%TO.C,U1*%
X115170001Y-60765001D03*
X115170001Y-61415002D03*
X115170001Y-62065001D03*
X115170001Y-62715002D03*
X115170001Y-63365001D03*
X115170001Y-64015002D03*
X115170001Y-64665001D03*
X115170001Y-65315002D03*
X121070002Y-65315002D03*
X121070002Y-64665001D03*
X121070002Y-64015002D03*
X121070002Y-63365001D03*
X121070002Y-62715002D03*
X121070002Y-62065001D03*
X121070002Y-61415002D03*
X121070002Y-60765001D03*
%TD*%
D11*
%TO.C,R2*%
X99080000Y-36064000D03*
X97080000Y-36064000D03*
%TD*%
%TO.C,R2*%
X99080000Y-91144000D03*
X97080000Y-91144000D03*
%TD*%
D12*
%TO.C,C1*%
X126657500Y-65636000D03*
X124582500Y-65636000D03*
%TD*%
D11*
%TO.C,R2*%
X126620000Y-36064000D03*
X124620000Y-36064000D03*
%TD*%
D15*
%TO.C,C2*%
X124582500Y-67668000D03*
X126657500Y-67668000D03*
%TD*%
D11*
%TO.C,R3*%
X99080000Y-87080000D03*
X97080000Y-87080000D03*
%TD*%
D15*
%TO.C,C2*%
X124582500Y-95208000D03*
X126657500Y-95208000D03*
%TD*%
D11*
%TO.C,R2*%
X71540000Y-118684000D03*
X69540000Y-118684000D03*
%TD*%
%TO.C,R2*%
X44000000Y-91144000D03*
X42000000Y-91144000D03*
%TD*%
D12*
%TO.C,C1*%
X44037500Y-93176000D03*
X41962500Y-93176000D03*
%TD*%
D13*
%TO.C,J3*%
X41000000Y-110620000D03*
X40000000Y-110620000D03*
X39000000Y-110620000D03*
X38000000Y-110620000D03*
D14*
X42300000Y-106745000D03*
X36700000Y-106745000D03*
%TD*%
D12*
%TO.C,C1*%
X44037500Y-38096000D03*
X41962500Y-38096000D03*
%TD*%
D13*
%TO.C,J3*%
X41000000Y-55540000D03*
X40000000Y-55540000D03*
X39000000Y-55540000D03*
X38000000Y-55540000D03*
D14*
X42300000Y-51665000D03*
X36700000Y-51665000D03*
%TD*%
D15*
%TO.C,C2*%
X97042500Y-122748000D03*
X99117500Y-122748000D03*
%TD*%
D12*
%TO.C,C1*%
X71577500Y-93176000D03*
X69502500Y-93176000D03*
%TD*%
D13*
%TO.C,J1*%
X88080000Y-110620000D03*
X87080000Y-110620000D03*
X86080000Y-110620000D03*
X85080000Y-110620000D03*
D14*
X83780000Y-106745000D03*
X89380000Y-106745000D03*
%TD*%
D11*
%TO.C,R1*%
X126620000Y-89112000D03*
X124620000Y-89112000D03*
%TD*%
D12*
%TO.C,C1*%
X126657500Y-120716000D03*
X124582500Y-120716000D03*
%TD*%
D15*
%TO.C,C2*%
X41962500Y-40128000D03*
X44037500Y-40128000D03*
%TD*%
D11*
%TO.C,R3*%
X99080000Y-114620000D03*
X97080000Y-114620000D03*
%TD*%
D13*
%TO.C,J1*%
X115620000Y-55540000D03*
X114620000Y-55540000D03*
X113620000Y-55540000D03*
X112620000Y-55540000D03*
D14*
X116920000Y-51665000D03*
X111320000Y-51665000D03*
%TD*%
D11*
%TO.C,R2*%
X71540000Y-36064000D03*
X69540000Y-36064000D03*
%TD*%
D13*
%TO.C,J1*%
X115620000Y-28000000D03*
X114620000Y-28000000D03*
X113620000Y-28000000D03*
X112620000Y-28000000D03*
D14*
X111320000Y-24125000D03*
X116920000Y-24125000D03*
%TD*%
D13*
%TO.C,J1*%
X88080000Y-28000000D03*
X87080000Y-28000000D03*
X86080000Y-28000000D03*
X85080000Y-28000000D03*
D14*
X89380000Y-24125000D03*
X83780000Y-24125000D03*
%TD*%
D11*
%TO.C,R3*%
X126620000Y-32000000D03*
X124620000Y-32000000D03*
%TD*%
%TO.C,R3*%
X71540000Y-59540000D03*
X69540000Y-59540000D03*
%TD*%
%TO.C,R2*%
X44000000Y-118684000D03*
X42000000Y-118684000D03*
%TD*%
D13*
%TO.C,J3*%
X96080000Y-28000000D03*
X95080000Y-28000000D03*
X94080000Y-28000000D03*
X93080000Y-28000000D03*
D14*
X91780000Y-24125000D03*
X97380000Y-24125000D03*
%TD*%
D10*
%TO.C,U1*%
X32550001Y-115845001D03*
X32550001Y-116495002D03*
X32550001Y-117145001D03*
X32550001Y-117795002D03*
X32550001Y-118445001D03*
X32550001Y-119095002D03*
X32550001Y-119745001D03*
X32550001Y-120395002D03*
X38450002Y-120395002D03*
X38450002Y-119745001D03*
X38450002Y-119095002D03*
X38450002Y-118445001D03*
X38450002Y-117795002D03*
X38450002Y-117145001D03*
X38450002Y-116495002D03*
X38450002Y-115845001D03*
%TD*%
D11*
%TO.C,R1*%
X44000000Y-89112000D03*
X42000000Y-89112000D03*
%TD*%
D13*
%TO.C,J1*%
X33000000Y-110620000D03*
X32000000Y-110620000D03*
X31000000Y-110620000D03*
X30000000Y-110620000D03*
D14*
X28700000Y-106745000D03*
X34300000Y-106745000D03*
%TD*%
D11*
%TO.C,R1*%
X71540000Y-34032000D03*
X69540000Y-34032000D03*
%TD*%
D10*
%TO.C,U1*%
X60090001Y-88305001D03*
X60090001Y-88955002D03*
X60090001Y-89605001D03*
X60090001Y-90255002D03*
X60090001Y-90905001D03*
X60090001Y-91555002D03*
X60090001Y-92205001D03*
X60090001Y-92855002D03*
X65990002Y-92855002D03*
X65990002Y-92205001D03*
X65990002Y-91555002D03*
X65990002Y-90905001D03*
X65990002Y-90255002D03*
X65990002Y-89605001D03*
X65990002Y-88955002D03*
X65990002Y-88305001D03*
%TD*%
D12*
%TO.C,C1*%
X99117500Y-65636000D03*
X97042500Y-65636000D03*
%TD*%
D11*
%TO.C,R3*%
X44000000Y-59540000D03*
X42000000Y-59540000D03*
%TD*%
D15*
%TO.C,C2*%
X69502500Y-122748000D03*
X71577500Y-122748000D03*
%TD*%
D12*
%TO.C,C1*%
X99117500Y-120716000D03*
X97042500Y-120716000D03*
%TD*%
D13*
%TO.C,J3*%
X123620000Y-83080000D03*
X122620000Y-83080000D03*
X121620000Y-83080000D03*
X120620000Y-83080000D03*
D14*
X124920000Y-79205000D03*
X119320000Y-79205000D03*
%TD*%
D11*
%TO.C,R1*%
X44000000Y-116652000D03*
X42000000Y-116652000D03*
%TD*%
D13*
%TO.C,J3*%
X68540000Y-28000000D03*
X67540000Y-28000000D03*
X66540000Y-28000000D03*
X65540000Y-28000000D03*
D14*
X64240000Y-24125000D03*
X69840000Y-24125000D03*
%TD*%
D15*
%TO.C,C2*%
X69502500Y-67668000D03*
X71577500Y-67668000D03*
%TD*%
D11*
%TO.C,R1*%
X99080000Y-61572000D03*
X97080000Y-61572000D03*
%TD*%
%TO.C,R3*%
X126620000Y-87080000D03*
X124620000Y-87080000D03*
%TD*%
%TO.C,R2*%
X99080000Y-63604000D03*
X97080000Y-63604000D03*
%TD*%
D13*
%TO.C,J3*%
X41000000Y-28000000D03*
X40000000Y-28000000D03*
X39000000Y-28000000D03*
X38000000Y-28000000D03*
D14*
X42300000Y-24125000D03*
X36700000Y-24125000D03*
%TD*%
D15*
%TO.C,C2*%
X124582500Y-40128000D03*
X126657500Y-40128000D03*
%TD*%
D13*
%TO.C,J3*%
X96080000Y-110620000D03*
X95080000Y-110620000D03*
X94080000Y-110620000D03*
X93080000Y-110620000D03*
D14*
X97380000Y-106745000D03*
X91780000Y-106745000D03*
%TD*%
D13*
%TO.C,J1*%
X88080000Y-55540000D03*
X87080000Y-55540000D03*
X86080000Y-55540000D03*
X85080000Y-55540000D03*
D14*
X89380000Y-51665000D03*
X83780000Y-51665000D03*
%TD*%
D11*
%TO.C,R2*%
X99080000Y-118684000D03*
X97080000Y-118684000D03*
%TD*%
D12*
%TO.C,C1*%
X71577500Y-120716000D03*
X69502500Y-120716000D03*
%TD*%
D13*
%TO.C,J1*%
X33000000Y-55540000D03*
X32000000Y-55540000D03*
X31000000Y-55540000D03*
X30000000Y-55540000D03*
D14*
X28700000Y-51665000D03*
X34300000Y-51665000D03*
%TD*%
D12*
%TO.C,C1*%
X44037500Y-120716000D03*
X41962500Y-120716000D03*
%TD*%
D15*
%TO.C,C2*%
X97042500Y-67668000D03*
X99117500Y-67668000D03*
%TD*%
D13*
%TO.C,J1*%
X88080000Y-83080000D03*
X87080000Y-83080000D03*
X86080000Y-83080000D03*
X85080000Y-83080000D03*
D14*
X89380000Y-79205000D03*
X83780000Y-79205000D03*
%TD*%
D13*
%TO.C,J3*%
X123620000Y-110620000D03*
X122620000Y-110620000D03*
X121620000Y-110620000D03*
X120620000Y-110620000D03*
D14*
X124920000Y-106745000D03*
X119320000Y-106745000D03*
%TD*%
D10*
%TO.C,U1*%
X32550001Y-88305001D03*
X32550001Y-88955002D03*
X32550001Y-89605001D03*
X32550001Y-90255002D03*
X32550001Y-90905001D03*
X32550001Y-91555002D03*
X32550001Y-92205001D03*
X32550001Y-92855002D03*
X38450002Y-92855002D03*
X38450002Y-92205001D03*
X38450002Y-91555002D03*
X38450002Y-90905001D03*
X38450002Y-90255002D03*
X38450002Y-89605001D03*
X38450002Y-88955002D03*
X38450002Y-88305001D03*
%TD*%
D13*
%TO.C,J3*%
X123620000Y-28000000D03*
X122620000Y-28000000D03*
X121620000Y-28000000D03*
X120620000Y-28000000D03*
D14*
X124920000Y-24125000D03*
X119320000Y-24125000D03*
%TD*%
D15*
%TO.C,C2*%
X41962500Y-122748000D03*
X44037500Y-122748000D03*
%TD*%
D10*
%TO.C,U1*%
X32550001Y-60765001D03*
X32550001Y-61415002D03*
X32550001Y-62065001D03*
X32550001Y-62715002D03*
X32550001Y-63365001D03*
X32550001Y-64015002D03*
X32550001Y-64665001D03*
X32550001Y-65315002D03*
X38450002Y-65315002D03*
X38450002Y-64665001D03*
X38450002Y-64015002D03*
X38450002Y-63365001D03*
X38450002Y-62715002D03*
X38450002Y-62065001D03*
X38450002Y-61415002D03*
X38450002Y-60765001D03*
%TD*%
D13*
%TO.C,J1*%
X60540000Y-28000000D03*
X59540000Y-28000000D03*
X58540000Y-28000000D03*
X57540000Y-28000000D03*
D14*
X56240000Y-24125000D03*
X61840000Y-24125000D03*
%TD*%
D13*
%TO.C,J1*%
X33000000Y-28000000D03*
X32000000Y-28000000D03*
X31000000Y-28000000D03*
X30000000Y-28000000D03*
D14*
X34300000Y-24125000D03*
X28700000Y-24125000D03*
%TD*%
D11*
%TO.C,R2*%
X126620000Y-91144000D03*
X124620000Y-91144000D03*
%TD*%
D13*
%TO.C,J1*%
X33000000Y-83080000D03*
X32000000Y-83080000D03*
X31000000Y-83080000D03*
X30000000Y-83080000D03*
D14*
X28700000Y-79205000D03*
X34300000Y-79205000D03*
%TD*%
D11*
%TO.C,R3*%
X44000000Y-87080000D03*
X42000000Y-87080000D03*
%TD*%
%TO.C,R3*%
X71540000Y-32000000D03*
X69540000Y-32000000D03*
%TD*%
D13*
%TO.C,J3*%
X123620000Y-55540000D03*
X122620000Y-55540000D03*
X121620000Y-55540000D03*
X120620000Y-55540000D03*
D14*
X119320000Y-51665000D03*
X124920000Y-51665000D03*
%TD*%
D11*
%TO.C,R1*%
X126620000Y-116652000D03*
X124620000Y-116652000D03*
%TD*%
%TO.C,R3*%
X71540000Y-87080000D03*
X69540000Y-87080000D03*
%TD*%
D15*
%TO.C,C2*%
X69502500Y-40128000D03*
X71577500Y-40128000D03*
%TD*%
D10*
%TO.C,U1*%
X115170001Y-33225001D03*
X115170001Y-33875002D03*
X115170001Y-34525001D03*
X115170001Y-35175002D03*
X115170001Y-35825001D03*
X115170001Y-36475002D03*
X115170001Y-37125001D03*
X115170001Y-37775002D03*
X121070002Y-37775002D03*
X121070002Y-37125001D03*
X121070002Y-36475002D03*
X121070002Y-35825001D03*
X121070002Y-35175002D03*
X121070002Y-34525001D03*
X121070002Y-33875002D03*
X121070002Y-33225001D03*
%TD*%
D11*
%TO.C,R3*%
X99080000Y-59540000D03*
X97080000Y-59540000D03*
%TD*%
D13*
%TO.C,J1*%
X60540000Y-110620000D03*
X59540000Y-110620000D03*
X58540000Y-110620000D03*
X57540000Y-110620000D03*
D14*
X61840000Y-106745000D03*
X56240000Y-106745000D03*
%TD*%
D15*
%TO.C,C2*%
X97042500Y-95208000D03*
X99117500Y-95208000D03*
%TD*%
D12*
%TO.C,C1*%
X99117500Y-38096000D03*
X97042500Y-38096000D03*
%TD*%
D15*
%TO.C,C2*%
X69502500Y-95208000D03*
X71577500Y-95208000D03*
%TD*%
D11*
%TO.C,R2*%
X44000000Y-63604000D03*
X42000000Y-63604000D03*
%TD*%
%TO.C,R1*%
X71540000Y-61572000D03*
X69540000Y-61572000D03*
%TD*%
%TO.C,R1*%
X44000000Y-61572000D03*
X42000000Y-61572000D03*
%TD*%
%TO.C,R3*%
X126620000Y-114620000D03*
X124620000Y-114620000D03*
%TD*%
%TO.C,R2*%
X126620000Y-63604000D03*
X124620000Y-63604000D03*
%TD*%
D15*
%TO.C,C2*%
X97042500Y-40128000D03*
X99117500Y-40128000D03*
%TD*%
D13*
%TO.C,J3*%
X68540000Y-110620000D03*
X67540000Y-110620000D03*
X66540000Y-110620000D03*
X65540000Y-110620000D03*
D14*
X64240000Y-106745000D03*
X69840000Y-106745000D03*
%TD*%
D15*
%TO.C,C2*%
X124582500Y-122748000D03*
X126657500Y-122748000D03*
%TD*%
D13*
%TO.C,J1*%
X60540000Y-55540000D03*
X59540000Y-55540000D03*
X58540000Y-55540000D03*
X57540000Y-55540000D03*
D14*
X61840000Y-51665000D03*
X56240000Y-51665000D03*
%TD*%
D10*
%TO.C,U1*%
X115170001Y-88305001D03*
X115170001Y-88955002D03*
X115170001Y-89605001D03*
X115170001Y-90255002D03*
X115170001Y-90905001D03*
X115170001Y-91555002D03*
X115170001Y-92205001D03*
X115170001Y-92855002D03*
X121070002Y-92855002D03*
X121070002Y-92205001D03*
X121070002Y-91555002D03*
X121070002Y-90905001D03*
X121070002Y-90255002D03*
X121070002Y-89605001D03*
X121070002Y-88955002D03*
X121070002Y-88305001D03*
%TD*%
D11*
%TO.C,R3*%
X71540000Y-114620000D03*
X69540000Y-114620000D03*
%TD*%
%TO.C,R1*%
X71540000Y-116652000D03*
X69540000Y-116652000D03*
%TD*%
%TO.C,R2*%
X71540000Y-63604000D03*
X69540000Y-63604000D03*
%TD*%
D13*
%TO.C,J3*%
X41000000Y-83080000D03*
X40000000Y-83080000D03*
X39000000Y-83080000D03*
X38000000Y-83080000D03*
D14*
X42300000Y-79205000D03*
X36700000Y-79205000D03*
%TD*%
D11*
%TO.C,R1*%
X44000000Y-34032000D03*
X42000000Y-34032000D03*
%TD*%
D12*
%TO.C,C1*%
X44037500Y-65636000D03*
X41962500Y-65636000D03*
%TD*%
D15*
%TO.C,C2*%
X41962500Y-67668000D03*
X44037500Y-67668000D03*
%TD*%
D11*
%TO.C,R1*%
X99080000Y-34032000D03*
X97080000Y-34032000D03*
%TD*%
D13*
%TO.C,J1*%
X115620000Y-83080000D03*
X114620000Y-83080000D03*
X113620000Y-83080000D03*
X112620000Y-83080000D03*
D14*
X111320000Y-79205000D03*
X116920000Y-79205000D03*
%TD*%
M02*
