%TF.GenerationSoftware,KiCad,Pcbnew,(7.0.0)*%
%TF.CreationDate,2023-02-19T16:47:07-06:00*%
%TF.ProjectId,ADS1219,41445331-3231-4392-9e6b-696361645f70,4*%
%TF.SameCoordinates,Original*%
%TF.FileFunction,Soldermask,Top*%
%TF.FilePolarity,Negative*%
%FSLAX46Y46*%
G04 Gerber Fmt 4.6, Leading zero omitted, Abs format (unit mm)*
G04 Created by KiCad (PCBNEW (7.0.0)) date 2023-02-19 16:47:07*
%MOMM*%
%LPD*%
G01*
G04 APERTURE LIST*
G04 Aperture macros list*
%AMRoundRect*
0 Rectangle with rounded corners*
0 $1 Rounding radius*
0 $2 $3 $4 $5 $6 $7 $8 $9 X,Y pos of 4 corners*
0 Add a 4 corners polygon primitive as box body*
4,1,4,$2,$3,$4,$5,$6,$7,$8,$9,$2,$3,0*
0 Add four circle primitives for the rounded corners*
1,1,$1+$1,$2,$3*
1,1,$1+$1,$4,$5*
1,1,$1+$1,$6,$7*
1,1,$1+$1,$8,$9*
0 Add four rect primitives between the rounded corners*
20,1,$1+$1,$2,$3,$4,$5,0*
20,1,$1+$1,$4,$5,$6,$7,0*
20,1,$1+$1,$6,$7,$8,$9,0*
20,1,$1+$1,$8,$9,$2,$3,0*%
%AMFreePoly0*
4,1,6,1.000000,0.000000,0.500000,-0.750000,-0.500000,-0.750000,-0.500000,0.750000,0.500000,0.750000,1.000000,0.000000,1.000000,0.000000,$1*%
%AMFreePoly1*
4,1,6,0.500000,-0.750000,-0.650000,-0.750000,-0.150000,0.000000,-0.650000,0.750000,0.500000,0.750000,0.500000,-0.750000,0.500000,-0.750000,$1*%
G04 Aperture macros list end*
%ADD10R,0.568000X1.258799*%
%ADD11R,1.700000X1.700000*%
%ADD12O,1.400000X0.449999*%
%ADD13RoundRect,0.150000X0.150000X0.625000X-0.150000X0.625000X-0.150000X-0.625000X0.150000X-0.625000X0*%
%ADD14RoundRect,0.250000X0.350000X0.650000X-0.350000X0.650000X-0.350000X-0.650000X0.350000X-0.650000X0*%
%ADD15C,2.500000*%
%ADD16FreePoly0,180.000000*%
%ADD17FreePoly1,180.000000*%
%ADD18RoundRect,0.250000X0.350000X0.450000X-0.350000X0.450000X-0.350000X-0.450000X0.350000X-0.450000X0*%
%ADD19RoundRect,0.250000X0.337500X0.475000X-0.337500X0.475000X-0.337500X-0.475000X0.337500X-0.475000X0*%
%ADD20O,1.700000X1.700000*%
%ADD21RoundRect,0.250000X-0.337500X-0.475000X0.337500X-0.475000X0.337500X0.475000X-0.337500X0.475000X0*%
G04 APERTURE END LIST*
D10*
%TO.C,U2*%
X174449959Y-90983999D03*
X172550039Y-90983999D03*
X173499999Y-93015999D03*
%TD*%
D11*
%TO.C,J4*%
X179999999Y-80499999D03*
%TD*%
D12*
%TO.C,U1*%
X167550000Y-84225000D03*
X167550000Y-84875001D03*
X167550000Y-85525000D03*
X167550000Y-86175001D03*
X167550000Y-86825000D03*
X167550000Y-87475001D03*
X167550000Y-88125000D03*
X167550000Y-88775001D03*
X173450001Y-88775001D03*
X173450001Y-88125000D03*
X173450001Y-87475001D03*
X173450001Y-86825000D03*
X173450001Y-86175001D03*
X173450001Y-85525000D03*
X173450001Y-84875001D03*
X173450001Y-84225000D03*
%TD*%
D13*
%TO.C,J1*%
X168000000Y-79000000D03*
X167000000Y-79000000D03*
X166000000Y-79000000D03*
X165000000Y-79000000D03*
D14*
X163700000Y-75125000D03*
X169300000Y-75125000D03*
%TD*%
D15*
%TO.C,H2*%
X181000000Y-76000000D03*
%TD*%
D16*
%TO.C,JP3*%
X164225000Y-87748570D03*
D17*
X162775000Y-87748570D03*
%TD*%
D13*
%TO.C,J3*%
X176000000Y-79000000D03*
X175000000Y-79000000D03*
X174000000Y-79000000D03*
X173000000Y-79000000D03*
D14*
X171700000Y-75125000D03*
X177300000Y-75125000D03*
%TD*%
D15*
%TO.C,H1*%
X160000000Y-76000000D03*
%TD*%
%TO.C,H4*%
X181000000Y-97000000D03*
%TD*%
D18*
%TO.C,R3*%
X179000000Y-83000000D03*
X177000000Y-83000000D03*
%TD*%
D16*
%TO.C,JP1*%
X164225000Y-83000000D03*
D17*
X162775000Y-83000000D03*
%TD*%
D19*
%TO.C,C1*%
X179037500Y-89096000D03*
X176962500Y-89096000D03*
%TD*%
D18*
%TO.C,R2*%
X179000000Y-87064000D03*
X177000000Y-87064000D03*
%TD*%
D15*
%TO.C,H3*%
X160020000Y-97000000D03*
%TD*%
D18*
%TO.C,R1*%
X179000000Y-85032000D03*
X177000000Y-85032000D03*
%TD*%
D11*
%TO.C,J2*%
X164149999Y-96999999D03*
D20*
X166689999Y-96999999D03*
X169229999Y-96999999D03*
X171769999Y-96999999D03*
X174309999Y-96999999D03*
X176849999Y-96999999D03*
%TD*%
D16*
%TO.C,JP4*%
X164225000Y-90122855D03*
D17*
X162775000Y-90122855D03*
%TD*%
D16*
%TO.C,JP2*%
X164225000Y-85374285D03*
D17*
X162775000Y-85374285D03*
%TD*%
D21*
%TO.C,C2*%
X176962500Y-91128000D03*
X179037500Y-91128000D03*
%TD*%
M02*
