%TF.GenerationSoftware,KiCad,Pcbnew,(6.0.7)*%
%TF.CreationDate,2022-10-15T10:30:28-05:00*%
%TF.ProjectId,ADS1219,41445331-3231-4392-9e6b-696361645f70,4*%
%TF.SameCoordinates,Original*%
%TF.FileFunction,Legend,Bot*%
%TF.FilePolarity,Positive*%
%FSLAX46Y46*%
G04 Gerber Fmt 4.6, Leading zero omitted, Abs format (unit mm)*
G04 Created by KiCad (PCBNEW (6.0.7)) date 2022-10-15 10:30:28*
%MOMM*%
%LPD*%
G01*
G04 APERTURE LIST*
%ADD10C,0.150000*%
%ADD11C,0.120000*%
G04 APERTURE END LIST*
D10*
%TO.C,TP9*%
X167607142Y-89125000D02*
X167250000Y-89125000D01*
X167678571Y-89339285D02*
X167428571Y-88589285D01*
X167178571Y-89339285D01*
X166928571Y-89339285D02*
X166928571Y-88589285D01*
X166571428Y-89339285D02*
X166571428Y-88589285D01*
X166142857Y-89339285D01*
X166142857Y-88589285D01*
X165857142Y-88589285D02*
X165392857Y-88589285D01*
X165642857Y-88875000D01*
X165535714Y-88875000D01*
X165464285Y-88910714D01*
X165428571Y-88946428D01*
X165392857Y-89017857D01*
X165392857Y-89196428D01*
X165428571Y-89267857D01*
X165464285Y-89303571D01*
X165535714Y-89339285D01*
X165750000Y-89339285D01*
X165821428Y-89303571D01*
X165857142Y-89267857D01*
%TO.C,TP5*%
X172035714Y-85125000D02*
X171678571Y-85125000D01*
X172107142Y-85339285D02*
X171857142Y-84589285D01*
X171607142Y-85339285D01*
X170964285Y-85339285D02*
X171392857Y-85339285D01*
X171178571Y-85339285D02*
X171178571Y-84589285D01*
X171250000Y-84696428D01*
X171321428Y-84767857D01*
X171392857Y-84803571D01*
%TO.C,TP4*%
X175071428Y-84625000D02*
X175142857Y-84589285D01*
X175250000Y-84589285D01*
X175357142Y-84625000D01*
X175428571Y-84696428D01*
X175464285Y-84767857D01*
X175500000Y-84910714D01*
X175500000Y-85017857D01*
X175464285Y-85160714D01*
X175428571Y-85232142D01*
X175357142Y-85303571D01*
X175250000Y-85339285D01*
X175178571Y-85339285D01*
X175071428Y-85303571D01*
X175035714Y-85267857D01*
X175035714Y-85017857D01*
X175178571Y-85017857D01*
X174714285Y-85339285D02*
X174714285Y-84589285D01*
X174285714Y-85339285D01*
X174285714Y-84589285D01*
X173928571Y-85339285D02*
X173928571Y-84589285D01*
X173750000Y-84589285D01*
X173642857Y-84625000D01*
X173571428Y-84696428D01*
X173535714Y-84767857D01*
X173500000Y-84910714D01*
X173500000Y-85017857D01*
X173535714Y-85160714D01*
X173571428Y-85232142D01*
X173642857Y-85303571D01*
X173750000Y-85339285D01*
X173928571Y-85339285D01*
%TO.C,TP3*%
X167392857Y-80589285D02*
X166928571Y-80589285D01*
X167178571Y-80875000D01*
X167071428Y-80875000D01*
X167000000Y-80910714D01*
X166964285Y-80946428D01*
X166928571Y-81017857D01*
X166928571Y-81196428D01*
X166964285Y-81267857D01*
X167000000Y-81303571D01*
X167071428Y-81339285D01*
X167285714Y-81339285D01*
X167357142Y-81303571D01*
X167392857Y-81267857D01*
X166678571Y-80839285D02*
X166500000Y-81339285D01*
X166321428Y-80839285D01*
X166107142Y-80589285D02*
X165642857Y-80589285D01*
X165892857Y-80875000D01*
X165785714Y-80875000D01*
X165714285Y-80910714D01*
X165678571Y-80946428D01*
X165642857Y-81017857D01*
X165642857Y-81196428D01*
X165678571Y-81267857D01*
X165714285Y-81303571D01*
X165785714Y-81339285D01*
X166000000Y-81339285D01*
X166071428Y-81303571D01*
X166107142Y-81267857D01*
%TO.C,TP1*%
X174392857Y-81303571D02*
X174285714Y-81339285D01*
X174107142Y-81339285D01*
X174035714Y-81303571D01*
X174000000Y-81267857D01*
X173964285Y-81196428D01*
X173964285Y-81125000D01*
X174000000Y-81053571D01*
X174035714Y-81017857D01*
X174107142Y-80982142D01*
X174250000Y-80946428D01*
X174321428Y-80910714D01*
X174357142Y-80875000D01*
X174392857Y-80803571D01*
X174392857Y-80732142D01*
X174357142Y-80660714D01*
X174321428Y-80625000D01*
X174250000Y-80589285D01*
X174071428Y-80589285D01*
X173964285Y-80625000D01*
X173214285Y-81267857D02*
X173250000Y-81303571D01*
X173357142Y-81339285D01*
X173428571Y-81339285D01*
X173535714Y-81303571D01*
X173607142Y-81232142D01*
X173642857Y-81160714D01*
X173678571Y-81017857D01*
X173678571Y-80910714D01*
X173642857Y-80767857D01*
X173607142Y-80696428D01*
X173535714Y-80625000D01*
X173428571Y-80589285D01*
X173357142Y-80589285D01*
X173250000Y-80625000D01*
X173214285Y-80660714D01*
X172535714Y-81339285D02*
X172892857Y-81339285D01*
X172892857Y-80589285D01*
%TO.C,TP7*%
X175607142Y-89125000D02*
X175250000Y-89125000D01*
X175678571Y-89339285D02*
X175428571Y-88589285D01*
X175178571Y-89339285D01*
X174928571Y-89339285D02*
X174928571Y-88589285D01*
X174571428Y-89339285D02*
X174571428Y-88589285D01*
X174142857Y-89339285D01*
X174142857Y-88589285D01*
X173392857Y-89339285D02*
X173821428Y-89339285D01*
X173607142Y-89339285D02*
X173607142Y-88589285D01*
X173678571Y-88696428D01*
X173750000Y-88767857D01*
X173821428Y-88803571D01*
%TO.C,TP2*%
X171410714Y-81303571D02*
X171303571Y-81339285D01*
X171125000Y-81339285D01*
X171053571Y-81303571D01*
X171017857Y-81267857D01*
X170982142Y-81196428D01*
X170982142Y-81125000D01*
X171017857Y-81053571D01*
X171053571Y-81017857D01*
X171125000Y-80982142D01*
X171267857Y-80946428D01*
X171339285Y-80910714D01*
X171375000Y-80875000D01*
X171410714Y-80803571D01*
X171410714Y-80732142D01*
X171375000Y-80660714D01*
X171339285Y-80625000D01*
X171267857Y-80589285D01*
X171089285Y-80589285D01*
X170982142Y-80625000D01*
X170660714Y-81339285D02*
X170660714Y-80589285D01*
X170482142Y-80589285D01*
X170375000Y-80625000D01*
X170303571Y-80696428D01*
X170267857Y-80767857D01*
X170232142Y-80910714D01*
X170232142Y-81017857D01*
X170267857Y-81160714D01*
X170303571Y-81232142D01*
X170375000Y-81303571D01*
X170482142Y-81339285D01*
X170660714Y-81339285D01*
X169946428Y-81125000D02*
X169589285Y-81125000D01*
X170017857Y-81339285D02*
X169767857Y-80589285D01*
X169517857Y-81339285D01*
%TO.C,TP8*%
X171857142Y-89125000D02*
X171500000Y-89125000D01*
X171928571Y-89339285D02*
X171678571Y-88589285D01*
X171428571Y-89339285D01*
X171178571Y-89339285D02*
X171178571Y-88589285D01*
X170821428Y-89339285D02*
X170821428Y-88589285D01*
X170392857Y-89339285D01*
X170392857Y-88589285D01*
X170071428Y-88660714D02*
X170035714Y-88625000D01*
X169964285Y-88589285D01*
X169785714Y-88589285D01*
X169714285Y-88625000D01*
X169678571Y-88660714D01*
X169642857Y-88732142D01*
X169642857Y-88803571D01*
X169678571Y-88910714D01*
X170107142Y-89339285D01*
X169642857Y-89339285D01*
%TO.C,TP6*%
X168737142Y-85365000D02*
X168380000Y-85365000D01*
X168808571Y-85579285D02*
X168558571Y-84829285D01*
X168308571Y-85579285D01*
X168058571Y-85579285D02*
X168058571Y-84829285D01*
X167701428Y-85579285D02*
X167701428Y-84829285D01*
X167272857Y-85579285D01*
X167272857Y-84829285D01*
X166772857Y-84829285D02*
X166701428Y-84829285D01*
X166630000Y-84865000D01*
X166594285Y-84900714D01*
X166558571Y-84972142D01*
X166522857Y-85115000D01*
X166522857Y-85293571D01*
X166558571Y-85436428D01*
X166594285Y-85507857D01*
X166630000Y-85543571D01*
X166701428Y-85579285D01*
X166772857Y-85579285D01*
X166844285Y-85543571D01*
X166880000Y-85507857D01*
X166915714Y-85436428D01*
X166951428Y-85293571D01*
X166951428Y-85115000D01*
X166915714Y-84972142D01*
X166880000Y-84900714D01*
X166844285Y-84865000D01*
X166772857Y-84829285D01*
D11*
%TO.C,TP9*%
X165800000Y-91200000D02*
X167200000Y-91200000D01*
X167200000Y-91200000D02*
X167200000Y-89800000D01*
X167200000Y-89800000D02*
X165800000Y-89800000D01*
X165800000Y-89800000D02*
X165800000Y-91200000D01*
%TO.C,TP5*%
X169800000Y-87200000D02*
X171200000Y-87200000D01*
X171200000Y-85800000D02*
X169800000Y-85800000D01*
X169800000Y-85800000D02*
X169800000Y-87200000D01*
X171200000Y-87200000D02*
X171200000Y-85800000D01*
%TO.C,TP4*%
X173800000Y-87200000D02*
X175200000Y-87200000D01*
X175200000Y-87200000D02*
X175200000Y-85800000D01*
X173800000Y-85800000D02*
X173800000Y-87200000D01*
X175200000Y-85800000D02*
X173800000Y-85800000D01*
%TO.C,TP3*%
X167200000Y-81800000D02*
X165800000Y-81800000D01*
X167200000Y-83200000D02*
X167200000Y-81800000D01*
X165800000Y-83200000D02*
X167200000Y-83200000D01*
X165800000Y-81800000D02*
X165800000Y-83200000D01*
%TO.C,TP1*%
X173800000Y-81800000D02*
X173800000Y-83200000D01*
X173800000Y-83200000D02*
X175200000Y-83200000D01*
X175200000Y-83200000D02*
X175200000Y-81800000D01*
X175200000Y-81800000D02*
X173800000Y-81800000D01*
%TO.C,TP7*%
X173800000Y-89800000D02*
X173800000Y-91200000D01*
X175200000Y-89800000D02*
X173800000Y-89800000D01*
X173800000Y-91200000D02*
X175200000Y-91200000D01*
X175200000Y-91200000D02*
X175200000Y-89800000D01*
%TO.C,TP2*%
X171200000Y-81800000D02*
X169800000Y-81800000D01*
X169800000Y-81800000D02*
X169800000Y-83200000D01*
X171200000Y-83200000D02*
X171200000Y-81800000D01*
X169800000Y-83200000D02*
X171200000Y-83200000D01*
%TO.C,TP8*%
X169800000Y-91200000D02*
X171200000Y-91200000D01*
X169800000Y-89800000D02*
X169800000Y-91200000D01*
X171200000Y-91200000D02*
X171200000Y-89800000D01*
X171200000Y-89800000D02*
X169800000Y-89800000D01*
%TO.C,TP6*%
X165800000Y-87200000D02*
X167200000Y-87200000D01*
X165800000Y-85800000D02*
X165800000Y-87200000D01*
X167200000Y-85800000D02*
X165800000Y-85800000D01*
X167200000Y-87200000D02*
X167200000Y-85800000D01*
%TD*%
M02*
