%TF.GenerationSoftware,KiCad,Pcbnew,(7.0.0)*%
%TF.CreationDate,2023-02-19T16:47:07-06:00*%
%TF.ProjectId,ADS1219,41445331-3231-4392-9e6b-696361645f70,4*%
%TF.SameCoordinates,Original*%
%TF.FileFunction,Copper,L2,Bot*%
%TF.FilePolarity,Positive*%
%FSLAX46Y46*%
G04 Gerber Fmt 4.6, Leading zero omitted, Abs format (unit mm)*
G04 Created by KiCad (PCBNEW (7.0.0)) date 2023-02-19 16:47:07*
%MOMM*%
%LPD*%
G01*
G04 APERTURE LIST*
%TA.AperFunction,ComponentPad*%
%ADD10R,1.700000X1.700000*%
%TD*%
%TA.AperFunction,ComponentPad*%
%ADD11O,1.700000X1.700000*%
%TD*%
%TA.AperFunction,ViaPad*%
%ADD12C,0.800000*%
%TD*%
%TA.AperFunction,Conductor*%
%ADD13C,0.250000*%
%TD*%
G04 APERTURE END LIST*
D10*
%TO.P,J4,1,Pin_1*%
%TO.N,Net-(J4-Pad1)*%
X179999999Y-80499999D03*
%TD*%
%TO.P,J2,1,Pin_1*%
%TO.N,/AIN0*%
X164149999Y-96999999D03*
D11*
%TO.P,J2,2,Pin_2*%
%TO.N,/AIN1*%
X166689999Y-96999999D03*
%TO.P,J2,3,Pin_3*%
%TO.N,/AIN2*%
X169229999Y-96999999D03*
%TO.P,J2,4,Pin_4*%
%TO.N,/AIN3*%
X171769999Y-96999999D03*
%TO.P,J2,5,Pin_5*%
%TO.N,+3.3V*%
X174309999Y-96999999D03*
%TO.P,J2,6,Pin_6*%
%TO.N,GND*%
X176849999Y-96999999D03*
%TD*%
D12*
%TO.N,GND*%
X169000000Y-84500000D03*
X170500000Y-78000000D03*
X172000000Y-81500000D03*
X172500000Y-93000000D03*
X176000000Y-77500000D03*
X165000000Y-77500000D03*
%TO.N,+3.3V*%
X175000000Y-81000000D03*
X170500000Y-85000000D03*
X162500000Y-85000000D03*
X169000000Y-78000000D03*
%TO.N,/SDA*%
X177000000Y-85000000D03*
X162500000Y-87500000D03*
X174000000Y-77500000D03*
%TO.N,/AIN2*%
X169000000Y-88500000D03*
%TO.N,/AIN3*%
X169000000Y-87500000D03*
%TO.N,Net-(J4-Pad1)*%
X176718000Y-86782000D03*
%TD*%
D13*
%TO.N,+3.3V*%
X165000000Y-82500000D02*
X168000000Y-82500000D01*
X168000000Y-79000000D02*
X169000000Y-78000000D01*
X174500000Y-81000000D02*
X175000000Y-81000000D01*
X168000000Y-82500000D02*
X168000000Y-79000000D01*
X168000000Y-82500000D02*
X170500000Y-85000000D01*
X162500000Y-85000000D02*
X165000000Y-82500000D01*
X170500000Y-85000000D02*
X174500000Y-81000000D01*
%TO.N,/SDA*%
X161822600Y-84219411D02*
X169042011Y-77000000D01*
X169042011Y-77000000D02*
X173500000Y-77000000D01*
X173500000Y-77000000D02*
X174000000Y-77500000D01*
X161822600Y-86822600D02*
X161822600Y-84219411D01*
X162500000Y-87500000D02*
X161822600Y-86822600D01*
X177000000Y-85000000D02*
X177000000Y-80500000D01*
X177000000Y-80500000D02*
X174000000Y-77500000D01*
%TO.N,/AIN2*%
X169230000Y-97000000D02*
X169230000Y-88730000D01*
X169230000Y-88730000D02*
X169000000Y-88500000D01*
%TO.N,/AIN3*%
X171770000Y-90270000D02*
X169000000Y-87500000D01*
X171770000Y-97000000D02*
X171770000Y-90270000D01*
%TO.N,Net-(J4-Pad1)*%
X176718000Y-86782000D02*
X180000000Y-83500000D01*
X180000000Y-83500000D02*
X180000000Y-80500000D01*
%TD*%
%TA.AperFunction,Conductor*%
%TO.N,GND*%
G36*
X173047828Y-77644393D02*
G01*
X173090215Y-77675189D01*
X173116411Y-77720562D01*
X173165473Y-77871556D01*
X173260960Y-78036944D01*
X173388747Y-78178866D01*
X173394089Y-78182747D01*
X173394091Y-78182749D01*
X173403972Y-78189928D01*
X173543248Y-78291118D01*
X173717712Y-78368794D01*
X173904513Y-78408500D01*
X173960406Y-78408500D01*
X174008624Y-78418091D01*
X174049501Y-78445405D01*
X175627364Y-80023268D01*
X175659080Y-80076577D01*
X175661516Y-80138560D01*
X175634081Y-80194193D01*
X175583424Y-80229994D01*
X175521824Y-80237285D01*
X175467964Y-80215798D01*
X175467811Y-80216064D01*
X175465978Y-80215005D01*
X175464209Y-80214300D01*
X175456752Y-80208882D01*
X175282288Y-80131206D01*
X175275835Y-80129834D01*
X175275831Y-80129833D01*
X175101943Y-80092872D01*
X175101940Y-80092871D01*
X175095487Y-80091500D01*
X174904513Y-80091500D01*
X174898060Y-80092871D01*
X174898056Y-80092872D01*
X174724168Y-80129833D01*
X174724161Y-80129835D01*
X174717712Y-80131206D01*
X174711682Y-80133890D01*
X174711681Y-80133891D01*
X174549278Y-80206197D01*
X174549275Y-80206198D01*
X174543248Y-80208882D01*
X174537907Y-80212762D01*
X174537906Y-80212763D01*
X174394086Y-80317254D01*
X174394080Y-80317259D01*
X174388747Y-80321134D01*
X174384337Y-80326031D01*
X174384330Y-80326038D01*
X174350357Y-80363769D01*
X174303088Y-80396616D01*
X174300076Y-80397808D01*
X174288866Y-80401645D01*
X174254017Y-80411770D01*
X174254009Y-80411773D01*
X174246407Y-80413982D01*
X174239593Y-80418011D01*
X174239585Y-80418015D01*
X174228961Y-80424298D01*
X174211220Y-80432989D01*
X174199759Y-80437527D01*
X174199755Y-80437528D01*
X174192383Y-80440448D01*
X174185967Y-80445109D01*
X174185964Y-80445111D01*
X174156625Y-80466427D01*
X174146707Y-80472943D01*
X174115459Y-80491423D01*
X174115456Y-80491425D01*
X174108637Y-80495458D01*
X174103036Y-80501057D01*
X174103029Y-80501064D01*
X174094304Y-80509789D01*
X174079282Y-80522618D01*
X174069311Y-80529863D01*
X174069302Y-80529871D01*
X174062893Y-80534528D01*
X174057846Y-80540628D01*
X174057838Y-80540636D01*
X174034710Y-80568593D01*
X174026723Y-80577370D01*
X170589094Y-84015000D01*
X170532610Y-84047612D01*
X170467388Y-84047612D01*
X170410904Y-84015000D01*
X168670405Y-82274500D01*
X168643091Y-82233623D01*
X168633500Y-82185405D01*
X168633500Y-79314594D01*
X168643091Y-79266376D01*
X168670405Y-79225499D01*
X168950499Y-78945405D01*
X168991376Y-78918091D01*
X169039594Y-78908500D01*
X169088884Y-78908500D01*
X169095487Y-78908500D01*
X169282288Y-78868794D01*
X169456752Y-78791118D01*
X169611253Y-78678866D01*
X169739040Y-78536944D01*
X169834527Y-78371556D01*
X169893542Y-78189928D01*
X169913504Y-78000000D01*
X169893542Y-77810072D01*
X169889762Y-77798438D01*
X169885145Y-77739791D01*
X169907657Y-77685440D01*
X169952391Y-77647233D01*
X170009594Y-77633500D01*
X172996579Y-77633500D01*
X173047828Y-77644393D01*
G37*
%TD.AperFunction*%
%TA.AperFunction,Conductor*%
G36*
X182936500Y-74017381D02*
G01*
X182982619Y-74063500D01*
X182999500Y-74126500D01*
X182999500Y-98873500D01*
X182982619Y-98936500D01*
X182936500Y-98982619D01*
X182873500Y-98999500D01*
X158126500Y-98999500D01*
X158063500Y-98982619D01*
X158017381Y-98936500D01*
X158000500Y-98873500D01*
X158000500Y-97124335D01*
X158519500Y-97124335D01*
X158560429Y-97369614D01*
X158562119Y-97374538D01*
X158562121Y-97374544D01*
X158639478Y-97599878D01*
X158639481Y-97599886D01*
X158641172Y-97604810D01*
X158643651Y-97609392D01*
X158643653Y-97609395D01*
X158670745Y-97659457D01*
X158759526Y-97823509D01*
X158762725Y-97827619D01*
X158879727Y-97977944D01*
X158912262Y-98019744D01*
X158916093Y-98023271D01*
X158916098Y-98023276D01*
X159046879Y-98143668D01*
X159095215Y-98188164D01*
X159303393Y-98324173D01*
X159531119Y-98424063D01*
X159772179Y-98485108D01*
X159957933Y-98500500D01*
X160079453Y-98500500D01*
X160082067Y-98500500D01*
X160267821Y-98485108D01*
X160508881Y-98424063D01*
X160736607Y-98324173D01*
X160944785Y-98188164D01*
X161127738Y-98019744D01*
X161221999Y-97898638D01*
X162791500Y-97898638D01*
X162791859Y-97901985D01*
X162791860Y-97901988D01*
X162797168Y-97951367D01*
X162797169Y-97951373D01*
X162798011Y-97959201D01*
X162800762Y-97966578D01*
X162800763Y-97966580D01*
X162845962Y-98087763D01*
X162845964Y-98087766D01*
X162849111Y-98096204D01*
X162854508Y-98103414D01*
X162854510Y-98103417D01*
X162920087Y-98191017D01*
X162936739Y-98213261D01*
X163053796Y-98300889D01*
X163190799Y-98351989D01*
X163251362Y-98358500D01*
X165045269Y-98358500D01*
X165048638Y-98358500D01*
X165109201Y-98351989D01*
X165246204Y-98300889D01*
X165363261Y-98213261D01*
X165450889Y-98096204D01*
X165494998Y-97977943D01*
X165531530Y-97925904D01*
X165588820Y-97898328D01*
X165652282Y-97902238D01*
X165705755Y-97936638D01*
X165726526Y-97959201D01*
X165766760Y-98002906D01*
X165944424Y-98141189D01*
X166142426Y-98248342D01*
X166147355Y-98250034D01*
X166147357Y-98250035D01*
X166248895Y-98284892D01*
X166355365Y-98321444D01*
X166577431Y-98358500D01*
X166797358Y-98358500D01*
X166802569Y-98358500D01*
X167024635Y-98321444D01*
X167237574Y-98248342D01*
X167435576Y-98141189D01*
X167613240Y-98002906D01*
X167765722Y-97837268D01*
X167854518Y-97701354D01*
X167900030Y-97659457D01*
X167960000Y-97644271D01*
X168019970Y-97659457D01*
X168065481Y-97701354D01*
X168154278Y-97837268D01*
X168157806Y-97841100D01*
X168303227Y-97999069D01*
X168303231Y-97999073D01*
X168306760Y-98002906D01*
X168484424Y-98141189D01*
X168682426Y-98248342D01*
X168687355Y-98250034D01*
X168687357Y-98250035D01*
X168788895Y-98284892D01*
X168895365Y-98321444D01*
X169117431Y-98358500D01*
X169337358Y-98358500D01*
X169342569Y-98358500D01*
X169564635Y-98321444D01*
X169777574Y-98248342D01*
X169975576Y-98141189D01*
X170153240Y-98002906D01*
X170305722Y-97837268D01*
X170394518Y-97701354D01*
X170440030Y-97659457D01*
X170500000Y-97644271D01*
X170559970Y-97659457D01*
X170605481Y-97701354D01*
X170694278Y-97837268D01*
X170697806Y-97841100D01*
X170843227Y-97999069D01*
X170843231Y-97999073D01*
X170846760Y-98002906D01*
X171024424Y-98141189D01*
X171222426Y-98248342D01*
X171227355Y-98250034D01*
X171227357Y-98250035D01*
X171328895Y-98284892D01*
X171435365Y-98321444D01*
X171657431Y-98358500D01*
X171877358Y-98358500D01*
X171882569Y-98358500D01*
X172104635Y-98321444D01*
X172317574Y-98248342D01*
X172515576Y-98141189D01*
X172693240Y-98002906D01*
X172845722Y-97837268D01*
X172934518Y-97701354D01*
X172980030Y-97659457D01*
X173040000Y-97644271D01*
X173099970Y-97659457D01*
X173145481Y-97701354D01*
X173234278Y-97837268D01*
X173237806Y-97841100D01*
X173383227Y-97999069D01*
X173383231Y-97999073D01*
X173386760Y-98002906D01*
X173564424Y-98141189D01*
X173762426Y-98248342D01*
X173767355Y-98250034D01*
X173767357Y-98250035D01*
X173868895Y-98284892D01*
X173975365Y-98321444D01*
X174197431Y-98358500D01*
X174417358Y-98358500D01*
X174422569Y-98358500D01*
X174644635Y-98321444D01*
X174857574Y-98248342D01*
X175055576Y-98141189D01*
X175233240Y-98002906D01*
X175385722Y-97837268D01*
X175508860Y-97648791D01*
X175599296Y-97442616D01*
X175654564Y-97224368D01*
X175662853Y-97124335D01*
X179499500Y-97124335D01*
X179540429Y-97369614D01*
X179542119Y-97374538D01*
X179542121Y-97374544D01*
X179619478Y-97599878D01*
X179619481Y-97599886D01*
X179621172Y-97604810D01*
X179623651Y-97609392D01*
X179623653Y-97609395D01*
X179650745Y-97659457D01*
X179739526Y-97823509D01*
X179742725Y-97827619D01*
X179859727Y-97977944D01*
X179892262Y-98019744D01*
X179896093Y-98023271D01*
X179896098Y-98023276D01*
X180026879Y-98143668D01*
X180075215Y-98188164D01*
X180283393Y-98324173D01*
X180511119Y-98424063D01*
X180752179Y-98485108D01*
X180937933Y-98500500D01*
X181059453Y-98500500D01*
X181062067Y-98500500D01*
X181247821Y-98485108D01*
X181488881Y-98424063D01*
X181716607Y-98324173D01*
X181924785Y-98188164D01*
X182107738Y-98019744D01*
X182260474Y-97823509D01*
X182378828Y-97604810D01*
X182459571Y-97369614D01*
X182500500Y-97124335D01*
X182500500Y-96875665D01*
X182459571Y-96630386D01*
X182378828Y-96395190D01*
X182260474Y-96176491D01*
X182154861Y-96040799D01*
X182110938Y-95984367D01*
X182110936Y-95984365D01*
X182107738Y-95980256D01*
X182103905Y-95976728D01*
X182103901Y-95976723D01*
X181928624Y-95815370D01*
X181928623Y-95815369D01*
X181924785Y-95811836D01*
X181897408Y-95793950D01*
X181720972Y-95678679D01*
X181716607Y-95675827D01*
X181639170Y-95641860D01*
X181493653Y-95578030D01*
X181493650Y-95578029D01*
X181488881Y-95575937D01*
X181483832Y-95574658D01*
X181483828Y-95574657D01*
X181310766Y-95530832D01*
X181247821Y-95514892D01*
X181242630Y-95514461D01*
X181242625Y-95514461D01*
X181064667Y-95499715D01*
X181064656Y-95499714D01*
X181062067Y-95499500D01*
X180937933Y-95499500D01*
X180935344Y-95499714D01*
X180935332Y-95499715D01*
X180757374Y-95514461D01*
X180757367Y-95514462D01*
X180752179Y-95514892D01*
X180747121Y-95516172D01*
X180747120Y-95516173D01*
X180516171Y-95574657D01*
X180516163Y-95574659D01*
X180511119Y-95575937D01*
X180506352Y-95578027D01*
X180506346Y-95578030D01*
X180288168Y-95673732D01*
X180288163Y-95673734D01*
X180283393Y-95675827D01*
X180279030Y-95678676D01*
X180279027Y-95678679D01*
X180079582Y-95808982D01*
X180079574Y-95808987D01*
X180075215Y-95811836D01*
X180071381Y-95815364D01*
X180071375Y-95815370D01*
X179896098Y-95976723D01*
X179896087Y-95976734D01*
X179892262Y-95980256D01*
X179889069Y-95984358D01*
X179889061Y-95984367D01*
X179742725Y-96172380D01*
X179742721Y-96172385D01*
X179739526Y-96176491D01*
X179737048Y-96181069D01*
X179737046Y-96181073D01*
X179623653Y-96390604D01*
X179623649Y-96390611D01*
X179621172Y-96395190D01*
X179619483Y-96400108D01*
X179619478Y-96400121D01*
X179542121Y-96625455D01*
X179542118Y-96625464D01*
X179540429Y-96630386D01*
X179499500Y-96875665D01*
X179499500Y-97124335D01*
X175662853Y-97124335D01*
X175673156Y-97000000D01*
X175654564Y-96775632D01*
X175599296Y-96557384D01*
X175508860Y-96351209D01*
X175385722Y-96162732D01*
X175266680Y-96033419D01*
X175236772Y-96000930D01*
X175236767Y-96000925D01*
X175233240Y-95997094D01*
X175055576Y-95858811D01*
X175050997Y-95856333D01*
X175050994Y-95856331D01*
X174862159Y-95754139D01*
X174862156Y-95754137D01*
X174857574Y-95751658D01*
X174852650Y-95749967D01*
X174852642Y-95749964D01*
X174649565Y-95680248D01*
X174649559Y-95680246D01*
X174644635Y-95678556D01*
X174639498Y-95677698D01*
X174639495Y-95677698D01*
X174427706Y-95642357D01*
X174427703Y-95642356D01*
X174422569Y-95641500D01*
X174197431Y-95641500D01*
X174192297Y-95642356D01*
X174192293Y-95642357D01*
X173980504Y-95677698D01*
X173980498Y-95677699D01*
X173975365Y-95678556D01*
X173970443Y-95680245D01*
X173970434Y-95680248D01*
X173767357Y-95749964D01*
X173767344Y-95749969D01*
X173762426Y-95751658D01*
X173757847Y-95754135D01*
X173757840Y-95754139D01*
X173569005Y-95856331D01*
X173568997Y-95856336D01*
X173564424Y-95858811D01*
X173560313Y-95862010D01*
X173560311Y-95862012D01*
X173390878Y-95993888D01*
X173390872Y-95993893D01*
X173386760Y-95997094D01*
X173383237Y-96000919D01*
X173383227Y-96000930D01*
X173237806Y-96158899D01*
X173237802Y-96158902D01*
X173234278Y-96162732D01*
X173231430Y-96167090D01*
X173231427Y-96167095D01*
X173145483Y-96298643D01*
X173099969Y-96340542D01*
X173040000Y-96355728D01*
X172980031Y-96340542D01*
X172934517Y-96298643D01*
X172928827Y-96289934D01*
X172845722Y-96162732D01*
X172726680Y-96033419D01*
X172696772Y-96000930D01*
X172696767Y-96000925D01*
X172693240Y-95997094D01*
X172515576Y-95858811D01*
X172511003Y-95856336D01*
X172510995Y-95856331D01*
X172469531Y-95833893D01*
X172421259Y-95787577D01*
X172403500Y-95723079D01*
X172403500Y-90348768D01*
X172404027Y-90337584D01*
X172405702Y-90330092D01*
X172403561Y-90262001D01*
X172403500Y-90258044D01*
X172403500Y-90234109D01*
X172403500Y-90230144D01*
X172402995Y-90226152D01*
X172402062Y-90214305D01*
X172400674Y-90170111D01*
X172395017Y-90150642D01*
X172391013Y-90131302D01*
X172388474Y-90111203D01*
X172372200Y-90070099D01*
X172368356Y-90058872D01*
X172358230Y-90024017D01*
X172358229Y-90024016D01*
X172356019Y-90016407D01*
X172345703Y-89998964D01*
X172337005Y-89981209D01*
X172329552Y-89962383D01*
X172303561Y-89926609D01*
X172297055Y-89916705D01*
X172274542Y-89878638D01*
X172260217Y-89864313D01*
X172247382Y-89849286D01*
X172235472Y-89832893D01*
X172229367Y-89827842D01*
X172229360Y-89827835D01*
X172201394Y-89804700D01*
X172192615Y-89796711D01*
X169947122Y-87551217D01*
X169922491Y-87516366D01*
X169910907Y-87475292D01*
X169908121Y-87448781D01*
X169893542Y-87310072D01*
X169849947Y-87175901D01*
X169836569Y-87134728D01*
X169836568Y-87134726D01*
X169834527Y-87128444D01*
X169739040Y-86963056D01*
X169611253Y-86821134D01*
X169605911Y-86817253D01*
X169605908Y-86817250D01*
X169528057Y-86760688D01*
X169456752Y-86708882D01*
X169282288Y-86631206D01*
X169275835Y-86629834D01*
X169275831Y-86629833D01*
X169101943Y-86592872D01*
X169101940Y-86592871D01*
X169095487Y-86591500D01*
X168904513Y-86591500D01*
X168898060Y-86592871D01*
X168898056Y-86592872D01*
X168724168Y-86629833D01*
X168724161Y-86629835D01*
X168717712Y-86631206D01*
X168711682Y-86633890D01*
X168711681Y-86633891D01*
X168549278Y-86706197D01*
X168549275Y-86706198D01*
X168543248Y-86708882D01*
X168537907Y-86712762D01*
X168537906Y-86712763D01*
X168394091Y-86817250D01*
X168394083Y-86817256D01*
X168388747Y-86821134D01*
X168384330Y-86826039D01*
X168384325Y-86826044D01*
X168279971Y-86941942D01*
X168260960Y-86963056D01*
X168257661Y-86968769D01*
X168257658Y-86968774D01*
X168185573Y-87093629D01*
X168165473Y-87128444D01*
X168163434Y-87134718D01*
X168163430Y-87134728D01*
X168108497Y-87303794D01*
X168108495Y-87303801D01*
X168106458Y-87310072D01*
X168105768Y-87316633D01*
X168105768Y-87316635D01*
X168105010Y-87323851D01*
X168086496Y-87500000D01*
X168106458Y-87689928D01*
X168108495Y-87696200D01*
X168108497Y-87696205D01*
X168163430Y-87865271D01*
X168163433Y-87865278D01*
X168165473Y-87871556D01*
X168168777Y-87877278D01*
X168203257Y-87937000D01*
X168220138Y-88000000D01*
X168203256Y-88063000D01*
X168165473Y-88128444D01*
X168163434Y-88134718D01*
X168163430Y-88134728D01*
X168108497Y-88303794D01*
X168108495Y-88303801D01*
X168106458Y-88310072D01*
X168086496Y-88500000D01*
X168106458Y-88689928D01*
X168108495Y-88696200D01*
X168108497Y-88696205D01*
X168163430Y-88865271D01*
X168163433Y-88865278D01*
X168165473Y-88871556D01*
X168260960Y-89036944D01*
X168388747Y-89178866D01*
X168394089Y-89182747D01*
X168394091Y-89182749D01*
X168543248Y-89291118D01*
X168541849Y-89293043D01*
X168579618Y-89330810D01*
X168596500Y-89393812D01*
X168596500Y-95723079D01*
X168578741Y-95787577D01*
X168530469Y-95833893D01*
X168489004Y-95856331D01*
X168488991Y-95856339D01*
X168484424Y-95858811D01*
X168480313Y-95862010D01*
X168480311Y-95862012D01*
X168310878Y-95993888D01*
X168310872Y-95993893D01*
X168306760Y-95997094D01*
X168303237Y-96000919D01*
X168303227Y-96000930D01*
X168157806Y-96158899D01*
X168157802Y-96158902D01*
X168154278Y-96162732D01*
X168151430Y-96167090D01*
X168151427Y-96167095D01*
X168065483Y-96298643D01*
X168019969Y-96340542D01*
X167960000Y-96355728D01*
X167900031Y-96340542D01*
X167854517Y-96298643D01*
X167848827Y-96289934D01*
X167765722Y-96162732D01*
X167646680Y-96033419D01*
X167616772Y-96000930D01*
X167616767Y-96000925D01*
X167613240Y-95997094D01*
X167435576Y-95858811D01*
X167430997Y-95856333D01*
X167430994Y-95856331D01*
X167242159Y-95754139D01*
X167242156Y-95754137D01*
X167237574Y-95751658D01*
X167232650Y-95749967D01*
X167232642Y-95749964D01*
X167029565Y-95680248D01*
X167029559Y-95680246D01*
X167024635Y-95678556D01*
X167019498Y-95677698D01*
X167019495Y-95677698D01*
X166807706Y-95642357D01*
X166807703Y-95642356D01*
X166802569Y-95641500D01*
X166577431Y-95641500D01*
X166572297Y-95642356D01*
X166572293Y-95642357D01*
X166360504Y-95677698D01*
X166360498Y-95677699D01*
X166355365Y-95678556D01*
X166350443Y-95680245D01*
X166350434Y-95680248D01*
X166147357Y-95749964D01*
X166147344Y-95749969D01*
X166142426Y-95751658D01*
X166137847Y-95754135D01*
X166137840Y-95754139D01*
X165949005Y-95856331D01*
X165948997Y-95856336D01*
X165944424Y-95858811D01*
X165940313Y-95862010D01*
X165940311Y-95862012D01*
X165770878Y-95993888D01*
X165770872Y-95993893D01*
X165766760Y-95997094D01*
X165763237Y-96000920D01*
X165763226Y-96000931D01*
X165705754Y-96063362D01*
X165652281Y-96097761D01*
X165588820Y-96101671D01*
X165531530Y-96074095D01*
X165494998Y-96022056D01*
X165454037Y-95912236D01*
X165454036Y-95912235D01*
X165450889Y-95903796D01*
X165363261Y-95786739D01*
X165319713Y-95754139D01*
X165253417Y-95704510D01*
X165253414Y-95704508D01*
X165246204Y-95699111D01*
X165237766Y-95695964D01*
X165237763Y-95695962D01*
X165116580Y-95650763D01*
X165116578Y-95650762D01*
X165109201Y-95648011D01*
X165101373Y-95647169D01*
X165101367Y-95647168D01*
X165051988Y-95641860D01*
X165051985Y-95641859D01*
X165048638Y-95641500D01*
X163251362Y-95641500D01*
X163248015Y-95641859D01*
X163248011Y-95641860D01*
X163198632Y-95647168D01*
X163198625Y-95647169D01*
X163190799Y-95648011D01*
X163183423Y-95650761D01*
X163183419Y-95650763D01*
X163062236Y-95695962D01*
X163062230Y-95695965D01*
X163053796Y-95699111D01*
X163046588Y-95704506D01*
X163046582Y-95704510D01*
X162943950Y-95781340D01*
X162943946Y-95781343D01*
X162936739Y-95786739D01*
X162931343Y-95793946D01*
X162931340Y-95793950D01*
X162854510Y-95896582D01*
X162854506Y-95896588D01*
X162849111Y-95903796D01*
X162845965Y-95912230D01*
X162845962Y-95912236D01*
X162800763Y-96033419D01*
X162800761Y-96033423D01*
X162798011Y-96040799D01*
X162797169Y-96048625D01*
X162797168Y-96048632D01*
X162795585Y-96063362D01*
X162791500Y-96101362D01*
X162791500Y-97898638D01*
X161221999Y-97898638D01*
X161280474Y-97823509D01*
X161398828Y-97604810D01*
X161479571Y-97369614D01*
X161520500Y-97124335D01*
X161520500Y-96875665D01*
X161479571Y-96630386D01*
X161398828Y-96395190D01*
X161280474Y-96176491D01*
X161174861Y-96040799D01*
X161130938Y-95984367D01*
X161130936Y-95984365D01*
X161127738Y-95980256D01*
X161123905Y-95976728D01*
X161123901Y-95976723D01*
X160948624Y-95815370D01*
X160948623Y-95815369D01*
X160944785Y-95811836D01*
X160917408Y-95793950D01*
X160740972Y-95678679D01*
X160736607Y-95675827D01*
X160659170Y-95641860D01*
X160513653Y-95578030D01*
X160513650Y-95578029D01*
X160508881Y-95575937D01*
X160503832Y-95574658D01*
X160503828Y-95574657D01*
X160330766Y-95530832D01*
X160267821Y-95514892D01*
X160262630Y-95514461D01*
X160262625Y-95514461D01*
X160084667Y-95499715D01*
X160084656Y-95499714D01*
X160082067Y-95499500D01*
X159957933Y-95499500D01*
X159955344Y-95499714D01*
X159955332Y-95499715D01*
X159777374Y-95514461D01*
X159777367Y-95514462D01*
X159772179Y-95514892D01*
X159767121Y-95516172D01*
X159767120Y-95516173D01*
X159536171Y-95574657D01*
X159536163Y-95574659D01*
X159531119Y-95575937D01*
X159526352Y-95578027D01*
X159526346Y-95578030D01*
X159308168Y-95673732D01*
X159308163Y-95673734D01*
X159303393Y-95675827D01*
X159299030Y-95678676D01*
X159299027Y-95678679D01*
X159099582Y-95808982D01*
X159099574Y-95808987D01*
X159095215Y-95811836D01*
X159091381Y-95815364D01*
X159091375Y-95815370D01*
X158916098Y-95976723D01*
X158916087Y-95976734D01*
X158912262Y-95980256D01*
X158909069Y-95984358D01*
X158909061Y-95984367D01*
X158762725Y-96172380D01*
X158762721Y-96172385D01*
X158759526Y-96176491D01*
X158757048Y-96181069D01*
X158757046Y-96181073D01*
X158643653Y-96390604D01*
X158643649Y-96390611D01*
X158641172Y-96395190D01*
X158639483Y-96400108D01*
X158639478Y-96400121D01*
X158562121Y-96625455D01*
X158562118Y-96625464D01*
X158560429Y-96630386D01*
X158519500Y-96875665D01*
X158519500Y-97124335D01*
X158000500Y-97124335D01*
X158000500Y-84199354D01*
X161184380Y-84199354D01*
X161185125Y-84207237D01*
X161185125Y-84207245D01*
X161188541Y-84243372D01*
X161189100Y-84255230D01*
X161189100Y-86743833D01*
X161188572Y-86755016D01*
X161186898Y-86762509D01*
X161187147Y-86770433D01*
X161187147Y-86770435D01*
X161189038Y-86830586D01*
X161189100Y-86834545D01*
X161189100Y-86862456D01*
X161189595Y-86866374D01*
X161189597Y-86866406D01*
X161189608Y-86866488D01*
X161190537Y-86878297D01*
X161191677Y-86914569D01*
X161191678Y-86914576D01*
X161191927Y-86922489D01*
X161194137Y-86930098D01*
X161194138Y-86930100D01*
X161197578Y-86941942D01*
X161201586Y-86961293D01*
X161202929Y-86971928D01*
X161204126Y-86981397D01*
X161207044Y-86988769D01*
X161207045Y-86988770D01*
X161220400Y-87022501D01*
X161224245Y-87033730D01*
X161234371Y-87068586D01*
X161234373Y-87068592D01*
X161236582Y-87076193D01*
X161240614Y-87083011D01*
X161240615Y-87083013D01*
X161246893Y-87093629D01*
X161255590Y-87111382D01*
X161260079Y-87122721D01*
X161263048Y-87130217D01*
X161267707Y-87136630D01*
X161267708Y-87136631D01*
X161289032Y-87165981D01*
X161295548Y-87175901D01*
X161314022Y-87207138D01*
X161318058Y-87213962D01*
X161323663Y-87219567D01*
X161332378Y-87228282D01*
X161345218Y-87243315D01*
X161357128Y-87259707D01*
X161363235Y-87264759D01*
X161363236Y-87264760D01*
X161391198Y-87287892D01*
X161399978Y-87295882D01*
X161552877Y-87448781D01*
X161577508Y-87483631D01*
X161589092Y-87524705D01*
X161602345Y-87650794D01*
X161606458Y-87689928D01*
X161608495Y-87696200D01*
X161608497Y-87696205D01*
X161663430Y-87865271D01*
X161663433Y-87865278D01*
X161665473Y-87871556D01*
X161760960Y-88036944D01*
X161888747Y-88178866D01*
X162043248Y-88291118D01*
X162217712Y-88368794D01*
X162404513Y-88408500D01*
X162588884Y-88408500D01*
X162595487Y-88408500D01*
X162782288Y-88368794D01*
X162956752Y-88291118D01*
X163111253Y-88178866D01*
X163239040Y-88036944D01*
X163334527Y-87871556D01*
X163393542Y-87689928D01*
X163413504Y-87500000D01*
X163393542Y-87310072D01*
X163349947Y-87175901D01*
X163336569Y-87134728D01*
X163336568Y-87134726D01*
X163334527Y-87128444D01*
X163239040Y-86963056D01*
X163111253Y-86821134D01*
X163105911Y-86817253D01*
X163105908Y-86817250D01*
X163028057Y-86760688D01*
X162956752Y-86708882D01*
X162782288Y-86631206D01*
X162775835Y-86629834D01*
X162775831Y-86629833D01*
X162601943Y-86592872D01*
X162601940Y-86592871D01*
X162595487Y-86591500D01*
X162588884Y-86591500D01*
X162582100Y-86591500D01*
X162519100Y-86574619D01*
X162472981Y-86528500D01*
X162456100Y-86465500D01*
X162456100Y-86034500D01*
X162472981Y-85971500D01*
X162519100Y-85925381D01*
X162582100Y-85908500D01*
X162588884Y-85908500D01*
X162595487Y-85908500D01*
X162782288Y-85868794D01*
X162956752Y-85791118D01*
X163111253Y-85678866D01*
X163239040Y-85536944D01*
X163334527Y-85371556D01*
X163393542Y-85189928D01*
X163410907Y-85024704D01*
X163422491Y-84983632D01*
X163447117Y-84948786D01*
X165225502Y-83170402D01*
X165266377Y-83143091D01*
X165314595Y-83133500D01*
X167685406Y-83133500D01*
X167733624Y-83143091D01*
X167774501Y-83170405D01*
X169552877Y-84948782D01*
X169577508Y-84983632D01*
X169589092Y-85024706D01*
X169605768Y-85183364D01*
X169606458Y-85189928D01*
X169608495Y-85196200D01*
X169608497Y-85196205D01*
X169663430Y-85365271D01*
X169663433Y-85365278D01*
X169665473Y-85371556D01*
X169760960Y-85536944D01*
X169888747Y-85678866D01*
X170043248Y-85791118D01*
X170217712Y-85868794D01*
X170404513Y-85908500D01*
X170588884Y-85908500D01*
X170595487Y-85908500D01*
X170782288Y-85868794D01*
X170956752Y-85791118D01*
X171111253Y-85678866D01*
X171239040Y-85536944D01*
X171334527Y-85371556D01*
X171393542Y-85189928D01*
X171410907Y-85024702D01*
X171422491Y-84983631D01*
X171447121Y-84948782D01*
X174524595Y-81871307D01*
X174566488Y-81843579D01*
X174615887Y-81834423D01*
X174664937Y-81845297D01*
X174717712Y-81868794D01*
X174904513Y-81908500D01*
X175088884Y-81908500D01*
X175095487Y-81908500D01*
X175282288Y-81868794D01*
X175456752Y-81791118D01*
X175611253Y-81678866D01*
X175739040Y-81536944D01*
X175834527Y-81371556D01*
X175893542Y-81189928D01*
X175913504Y-81000000D01*
X175893542Y-80810072D01*
X175834527Y-80628444D01*
X175769360Y-80515572D01*
X175752600Y-80458070D01*
X175764285Y-80399324D01*
X175801776Y-80352612D01*
X175856600Y-80328488D01*
X175916369Y-80332406D01*
X175967575Y-80363479D01*
X176329595Y-80725499D01*
X176356909Y-80766376D01*
X176366500Y-80814594D01*
X176366500Y-84297476D01*
X176358131Y-84342630D01*
X176334138Y-84381783D01*
X176260960Y-84463056D01*
X176257661Y-84468769D01*
X176257658Y-84468774D01*
X176195921Y-84575706D01*
X176165473Y-84628444D01*
X176163434Y-84634718D01*
X176163430Y-84634728D01*
X176108497Y-84803794D01*
X176108495Y-84803801D01*
X176106458Y-84810072D01*
X176086496Y-85000000D01*
X176106458Y-85189928D01*
X176108495Y-85196200D01*
X176108497Y-85196205D01*
X176163430Y-85365271D01*
X176163433Y-85365278D01*
X176165473Y-85371556D01*
X176260960Y-85536944D01*
X176388747Y-85678866D01*
X176430021Y-85708854D01*
X176471066Y-85759541D01*
X176481269Y-85823960D01*
X176457895Y-85884850D01*
X176407208Y-85925896D01*
X176267278Y-85988197D01*
X176267275Y-85988198D01*
X176261248Y-85990882D01*
X176255907Y-85994762D01*
X176255906Y-85994763D01*
X176112091Y-86099250D01*
X176112083Y-86099256D01*
X176106747Y-86103134D01*
X176102330Y-86108039D01*
X176102325Y-86108044D01*
X175983379Y-86240148D01*
X175978960Y-86245056D01*
X175975661Y-86250769D01*
X175975658Y-86250774D01*
X175886777Y-86404721D01*
X175883473Y-86410444D01*
X175881434Y-86416718D01*
X175881430Y-86416728D01*
X175826497Y-86585794D01*
X175826495Y-86585801D01*
X175824458Y-86592072D01*
X175804496Y-86782000D01*
X175805186Y-86788565D01*
X175823525Y-86963056D01*
X175824458Y-86971928D01*
X175826495Y-86978200D01*
X175826497Y-86978205D01*
X175881430Y-87147271D01*
X175881433Y-87147278D01*
X175883473Y-87153556D01*
X175978960Y-87318944D01*
X176106747Y-87460866D01*
X176112089Y-87464747D01*
X176112091Y-87464749D01*
X176151574Y-87493435D01*
X176261248Y-87573118D01*
X176435712Y-87650794D01*
X176622513Y-87690500D01*
X176806884Y-87690500D01*
X176813487Y-87690500D01*
X177000288Y-87650794D01*
X177174752Y-87573118D01*
X177329253Y-87460866D01*
X177457040Y-87318944D01*
X177552527Y-87153556D01*
X177611542Y-86971928D01*
X177628907Y-86806704D01*
X177640491Y-86765632D01*
X177665119Y-86730784D01*
X180392264Y-84003639D01*
X180400535Y-83996113D01*
X180407018Y-83992000D01*
X180453660Y-83942329D01*
X180456352Y-83939551D01*
X180476135Y-83919770D01*
X180478613Y-83916574D01*
X180486308Y-83907563D01*
X180516586Y-83875321D01*
X180526348Y-83857562D01*
X180537195Y-83841050D01*
X180549614Y-83825041D01*
X180567179Y-83784446D01*
X180572388Y-83773814D01*
X180593695Y-83735060D01*
X180598733Y-83715434D01*
X180605134Y-83696737D01*
X180613181Y-83678145D01*
X180620096Y-83634477D01*
X180622504Y-83622853D01*
X180631529Y-83587705D01*
X180633500Y-83580030D01*
X180633500Y-83559776D01*
X180635051Y-83540065D01*
X180636980Y-83527885D01*
X180638220Y-83520057D01*
X180634058Y-83476038D01*
X180633500Y-83464181D01*
X180633500Y-81984500D01*
X180650381Y-81921500D01*
X180696500Y-81875381D01*
X180759500Y-81858500D01*
X180895269Y-81858500D01*
X180898638Y-81858500D01*
X180959201Y-81851989D01*
X181096204Y-81800889D01*
X181213261Y-81713261D01*
X181300889Y-81596204D01*
X181351989Y-81459201D01*
X181358500Y-81398638D01*
X181358500Y-79601362D01*
X181351989Y-79540799D01*
X181300889Y-79403796D01*
X181213261Y-79286739D01*
X181206049Y-79281340D01*
X181103417Y-79204510D01*
X181103414Y-79204508D01*
X181096204Y-79199111D01*
X181087766Y-79195964D01*
X181087763Y-79195962D01*
X180966580Y-79150763D01*
X180966578Y-79150762D01*
X180959201Y-79148011D01*
X180951373Y-79147169D01*
X180951367Y-79147168D01*
X180901988Y-79141860D01*
X180901985Y-79141859D01*
X180898638Y-79141500D01*
X179101362Y-79141500D01*
X179098015Y-79141859D01*
X179098011Y-79141860D01*
X179048632Y-79147168D01*
X179048625Y-79147169D01*
X179040799Y-79148011D01*
X179033423Y-79150761D01*
X179033419Y-79150763D01*
X178912236Y-79195962D01*
X178912230Y-79195965D01*
X178903796Y-79199111D01*
X178896588Y-79204506D01*
X178896582Y-79204510D01*
X178793950Y-79281340D01*
X178793946Y-79281343D01*
X178786739Y-79286739D01*
X178781343Y-79293946D01*
X178781340Y-79293950D01*
X178704510Y-79396582D01*
X178704506Y-79396588D01*
X178699111Y-79403796D01*
X178695965Y-79412230D01*
X178695962Y-79412236D01*
X178650763Y-79533419D01*
X178650761Y-79533423D01*
X178648011Y-79540799D01*
X178647169Y-79548625D01*
X178647168Y-79548632D01*
X178644719Y-79571416D01*
X178641500Y-79601362D01*
X178641500Y-81398638D01*
X178641859Y-81401985D01*
X178641860Y-81401988D01*
X178647168Y-81451367D01*
X178647169Y-81451373D01*
X178648011Y-81459201D01*
X178650762Y-81466578D01*
X178650763Y-81466580D01*
X178695962Y-81587763D01*
X178695964Y-81587766D01*
X178699111Y-81596204D01*
X178704508Y-81603414D01*
X178704510Y-81603417D01*
X178740434Y-81651405D01*
X178786739Y-81713261D01*
X178793950Y-81718659D01*
X178894328Y-81793802D01*
X178903796Y-81800889D01*
X179040799Y-81851989D01*
X179101362Y-81858500D01*
X179240500Y-81858500D01*
X179303500Y-81875381D01*
X179349619Y-81921500D01*
X179366500Y-81984500D01*
X179366500Y-83185406D01*
X179356909Y-83233624D01*
X179329597Y-83274498D01*
X178306619Y-84297476D01*
X178002293Y-84601802D01*
X177953699Y-84632019D01*
X177896752Y-84637628D01*
X177843196Y-84617471D01*
X177804079Y-84575706D01*
X177742341Y-84468774D01*
X177739040Y-84463056D01*
X177665861Y-84381783D01*
X177641869Y-84342630D01*
X177633500Y-84297476D01*
X177633500Y-80578768D01*
X177634027Y-80567584D01*
X177635702Y-80560092D01*
X177633561Y-80492001D01*
X177633500Y-80488044D01*
X177633500Y-80464109D01*
X177633500Y-80460144D01*
X177632995Y-80456152D01*
X177632062Y-80444305D01*
X177631849Y-80437527D01*
X177630674Y-80400111D01*
X177625017Y-80380642D01*
X177621013Y-80361302D01*
X177618474Y-80341203D01*
X177602200Y-80300099D01*
X177598356Y-80288872D01*
X177588230Y-80254017D01*
X177588229Y-80254016D01*
X177586019Y-80246407D01*
X177575703Y-80228964D01*
X177567005Y-80211209D01*
X177559552Y-80192383D01*
X177533561Y-80156609D01*
X177527055Y-80146705D01*
X177504542Y-80108638D01*
X177490218Y-80094314D01*
X177477382Y-80079286D01*
X177465472Y-80062893D01*
X177459367Y-80057842D01*
X177459360Y-80057835D01*
X177431394Y-80034700D01*
X177422615Y-80026711D01*
X174947122Y-77551217D01*
X174922491Y-77516366D01*
X174910907Y-77475292D01*
X174905657Y-77425342D01*
X174893542Y-77310072D01*
X174834527Y-77128444D01*
X174739040Y-76963056D01*
X174611253Y-76821134D01*
X174605911Y-76817253D01*
X174605908Y-76817250D01*
X174528057Y-76760688D01*
X174456752Y-76708882D01*
X174282288Y-76631206D01*
X174275835Y-76629834D01*
X174275831Y-76629833D01*
X174101943Y-76592872D01*
X174101940Y-76592871D01*
X174095487Y-76591500D01*
X174088884Y-76591500D01*
X174040308Y-76591500D01*
X173993926Y-76582652D01*
X173954059Y-76557353D01*
X173942330Y-76546339D01*
X173939520Y-76543615D01*
X173922574Y-76526669D01*
X173919770Y-76523865D01*
X173916575Y-76521386D01*
X173907554Y-76513682D01*
X173881097Y-76488838D01*
X173875321Y-76483414D01*
X173868377Y-76479596D01*
X173868371Y-76479592D01*
X173857566Y-76473652D01*
X173841047Y-76462801D01*
X173825041Y-76450386D01*
X173817766Y-76447238D01*
X173817763Y-76447236D01*
X173784466Y-76432828D01*
X173773804Y-76427605D01*
X173742007Y-76410124D01*
X173742005Y-76410123D01*
X173735060Y-76406305D01*
X173727383Y-76404334D01*
X173727381Y-76404333D01*
X173715438Y-76401267D01*
X173696734Y-76394863D01*
X173685420Y-76389967D01*
X173685418Y-76389966D01*
X173678145Y-76386819D01*
X173670319Y-76385579D01*
X173670318Y-76385579D01*
X173634475Y-76379902D01*
X173622859Y-76377496D01*
X173580030Y-76366500D01*
X173572101Y-76366500D01*
X173559776Y-76366500D01*
X173540065Y-76364949D01*
X173527885Y-76363019D01*
X173527878Y-76363018D01*
X173520057Y-76361780D01*
X173512173Y-76362525D01*
X173512165Y-76362525D01*
X173476039Y-76365941D01*
X173464181Y-76366500D01*
X169120778Y-76366500D01*
X169109594Y-76365972D01*
X169102102Y-76364298D01*
X169094176Y-76364547D01*
X169034012Y-76366438D01*
X169030054Y-76366500D01*
X169002155Y-76366500D01*
X168998230Y-76366995D01*
X168998209Y-76366997D01*
X168998135Y-76367007D01*
X168986324Y-76367936D01*
X168950045Y-76369076D01*
X168950037Y-76369077D01*
X168942122Y-76369326D01*
X168934511Y-76371536D01*
X168934504Y-76371538D01*
X168922659Y-76374979D01*
X168903314Y-76378985D01*
X168891083Y-76380530D01*
X168891070Y-76380533D01*
X168883214Y-76381526D01*
X168875850Y-76384441D01*
X168875840Y-76384444D01*
X168842103Y-76397802D01*
X168830876Y-76401646D01*
X168796029Y-76411770D01*
X168796024Y-76411772D01*
X168788418Y-76413982D01*
X168781601Y-76418012D01*
X168781592Y-76418017D01*
X168770971Y-76424298D01*
X168753232Y-76432989D01*
X168741760Y-76437531D01*
X168741757Y-76437532D01*
X168734394Y-76440448D01*
X168727987Y-76445102D01*
X168727983Y-76445105D01*
X168698622Y-76466437D01*
X168688704Y-76472951D01*
X168657476Y-76491419D01*
X168657468Y-76491425D01*
X168650649Y-76495458D01*
X168645047Y-76501058D01*
X168645040Y-76501065D01*
X168636319Y-76509786D01*
X168621298Y-76522615D01*
X168611318Y-76529866D01*
X168611309Y-76529873D01*
X168604904Y-76534528D01*
X168599856Y-76540628D01*
X168599847Y-76540638D01*
X168576711Y-76568604D01*
X168568724Y-76577381D01*
X161430342Y-83715762D01*
X161422059Y-83723299D01*
X161415582Y-83727411D01*
X161410163Y-83733180D01*
X161410155Y-83733188D01*
X161368970Y-83777046D01*
X161366221Y-83779883D01*
X161349267Y-83796838D01*
X161349260Y-83796845D01*
X161346465Y-83799641D01*
X161344042Y-83802763D01*
X161344026Y-83802782D01*
X161343965Y-83802862D01*
X161336290Y-83811846D01*
X161311438Y-83838313D01*
X161311435Y-83838315D01*
X161306014Y-83844090D01*
X161302200Y-83851025D01*
X161302192Y-83851038D01*
X161296250Y-83861847D01*
X161285403Y-83878360D01*
X161277843Y-83888106D01*
X161277837Y-83888115D01*
X161272986Y-83894370D01*
X161269842Y-83901634D01*
X161269838Y-83901642D01*
X161255424Y-83934951D01*
X161250204Y-83945606D01*
X161232725Y-83977400D01*
X161232721Y-83977408D01*
X161228905Y-83984351D01*
X161226933Y-83992027D01*
X161226931Y-83992035D01*
X161223866Y-84003973D01*
X161217465Y-84022670D01*
X161212568Y-84033987D01*
X161212566Y-84033992D01*
X161209419Y-84041266D01*
X161208179Y-84049091D01*
X161208177Y-84049100D01*
X161202501Y-84084935D01*
X161200095Y-84096555D01*
X161191071Y-84131700D01*
X161191069Y-84131708D01*
X161189100Y-84139381D01*
X161189100Y-84147310D01*
X161189100Y-84159635D01*
X161187549Y-84179346D01*
X161185619Y-84191525D01*
X161185618Y-84191532D01*
X161184380Y-84199354D01*
X158000500Y-84199354D01*
X158000500Y-76124335D01*
X158499500Y-76124335D01*
X158500356Y-76129469D01*
X158500357Y-76129472D01*
X158539328Y-76363019D01*
X158540429Y-76369614D01*
X158542119Y-76374538D01*
X158542121Y-76374544D01*
X158619478Y-76599878D01*
X158619481Y-76599886D01*
X158621172Y-76604810D01*
X158739526Y-76823509D01*
X158892262Y-77019744D01*
X158896093Y-77023271D01*
X158896098Y-77023276D01*
X159004125Y-77122721D01*
X159075215Y-77188164D01*
X159283393Y-77324173D01*
X159511119Y-77424063D01*
X159752179Y-77485108D01*
X159937933Y-77500500D01*
X160059453Y-77500500D01*
X160062067Y-77500500D01*
X160247821Y-77485108D01*
X160488881Y-77424063D01*
X160716607Y-77324173D01*
X160924785Y-77188164D01*
X161107738Y-77019744D01*
X161260474Y-76823509D01*
X161378828Y-76604810D01*
X161459571Y-76369614D01*
X161500500Y-76124335D01*
X179499500Y-76124335D01*
X179500356Y-76129469D01*
X179500357Y-76129472D01*
X179539328Y-76363019D01*
X179540429Y-76369614D01*
X179542119Y-76374538D01*
X179542121Y-76374544D01*
X179619478Y-76599878D01*
X179619481Y-76599886D01*
X179621172Y-76604810D01*
X179739526Y-76823509D01*
X179892262Y-77019744D01*
X179896093Y-77023271D01*
X179896098Y-77023276D01*
X180004125Y-77122721D01*
X180075215Y-77188164D01*
X180283393Y-77324173D01*
X180511119Y-77424063D01*
X180752179Y-77485108D01*
X180937933Y-77500500D01*
X181059453Y-77500500D01*
X181062067Y-77500500D01*
X181247821Y-77485108D01*
X181488881Y-77424063D01*
X181716607Y-77324173D01*
X181924785Y-77188164D01*
X182107738Y-77019744D01*
X182260474Y-76823509D01*
X182378828Y-76604810D01*
X182459571Y-76369614D01*
X182500500Y-76124335D01*
X182500500Y-75875665D01*
X182459571Y-75630386D01*
X182378828Y-75395190D01*
X182260474Y-75176491D01*
X182107738Y-74980256D01*
X182103905Y-74976728D01*
X182103901Y-74976723D01*
X181928624Y-74815370D01*
X181928623Y-74815369D01*
X181924785Y-74811836D01*
X181716607Y-74675827D01*
X181488881Y-74575937D01*
X181483832Y-74574658D01*
X181483828Y-74574657D01*
X181310766Y-74530832D01*
X181247821Y-74514892D01*
X181242630Y-74514461D01*
X181242625Y-74514461D01*
X181064667Y-74499715D01*
X181064656Y-74499714D01*
X181062067Y-74499500D01*
X180937933Y-74499500D01*
X180935344Y-74499714D01*
X180935332Y-74499715D01*
X180757374Y-74514461D01*
X180757367Y-74514462D01*
X180752179Y-74514892D01*
X180747121Y-74516172D01*
X180747120Y-74516173D01*
X180516171Y-74574657D01*
X180516163Y-74574659D01*
X180511119Y-74575937D01*
X180506352Y-74578027D01*
X180506346Y-74578030D01*
X180288168Y-74673732D01*
X180288163Y-74673734D01*
X180283393Y-74675827D01*
X180279030Y-74678676D01*
X180279027Y-74678679D01*
X180079582Y-74808982D01*
X180079574Y-74808987D01*
X180075215Y-74811836D01*
X180071381Y-74815364D01*
X180071375Y-74815370D01*
X179896098Y-74976723D01*
X179896087Y-74976734D01*
X179892262Y-74980256D01*
X179889069Y-74984358D01*
X179889061Y-74984367D01*
X179742725Y-75172380D01*
X179742721Y-75172385D01*
X179739526Y-75176491D01*
X179737048Y-75181069D01*
X179737046Y-75181073D01*
X179623653Y-75390604D01*
X179623649Y-75390611D01*
X179621172Y-75395190D01*
X179619483Y-75400108D01*
X179619478Y-75400121D01*
X179542121Y-75625455D01*
X179542118Y-75625464D01*
X179540429Y-75630386D01*
X179499500Y-75875665D01*
X179499500Y-76124335D01*
X161500500Y-76124335D01*
X161500500Y-75875665D01*
X161459571Y-75630386D01*
X161378828Y-75395190D01*
X161260474Y-75176491D01*
X161107738Y-74980256D01*
X161103905Y-74976728D01*
X161103901Y-74976723D01*
X160928624Y-74815370D01*
X160928623Y-74815369D01*
X160924785Y-74811836D01*
X160716607Y-74675827D01*
X160488881Y-74575937D01*
X160483832Y-74574658D01*
X160483828Y-74574657D01*
X160310766Y-74530832D01*
X160247821Y-74514892D01*
X160242630Y-74514461D01*
X160242625Y-74514461D01*
X160064667Y-74499715D01*
X160064656Y-74499714D01*
X160062067Y-74499500D01*
X159937933Y-74499500D01*
X159935344Y-74499714D01*
X159935332Y-74499715D01*
X159757374Y-74514461D01*
X159757367Y-74514462D01*
X159752179Y-74514892D01*
X159747121Y-74516172D01*
X159747120Y-74516173D01*
X159516171Y-74574657D01*
X159516163Y-74574659D01*
X159511119Y-74575937D01*
X159506352Y-74578027D01*
X159506346Y-74578030D01*
X159288168Y-74673732D01*
X159288163Y-74673734D01*
X159283393Y-74675827D01*
X159279030Y-74678676D01*
X159279027Y-74678679D01*
X159079582Y-74808982D01*
X159079574Y-74808987D01*
X159075215Y-74811836D01*
X159071381Y-74815364D01*
X159071375Y-74815370D01*
X158896098Y-74976723D01*
X158896087Y-74976734D01*
X158892262Y-74980256D01*
X158889069Y-74984358D01*
X158889061Y-74984367D01*
X158742725Y-75172380D01*
X158742721Y-75172385D01*
X158739526Y-75176491D01*
X158737048Y-75181069D01*
X158737046Y-75181073D01*
X158623653Y-75390604D01*
X158623649Y-75390611D01*
X158621172Y-75395190D01*
X158619483Y-75400108D01*
X158619478Y-75400121D01*
X158542121Y-75625455D01*
X158542118Y-75625464D01*
X158540429Y-75630386D01*
X158499500Y-75875665D01*
X158499500Y-76124335D01*
X158000500Y-76124335D01*
X158000500Y-74126500D01*
X158017381Y-74063500D01*
X158063500Y-74017381D01*
X158126500Y-74000500D01*
X182873500Y-74000500D01*
X182936500Y-74017381D01*
G37*
%TD.AperFunction*%
%TD*%
M02*
