%TF.GenerationSoftware,KiCad,Pcbnew,7.0.5*%
%TF.CreationDate,2023-06-11T15:17:49-05:00*%
%TF.ProjectId,DRV2605,44525632-3630-4352-9e6b-696361645f70,rev?*%
%TF.SameCoordinates,Original*%
%TF.FileFunction,Legend,Top*%
%TF.FilePolarity,Positive*%
%FSLAX46Y46*%
G04 Gerber Fmt 4.6, Leading zero omitted, Abs format (unit mm)*
G04 Created by KiCad (PCBNEW 7.0.5) date 2023-06-11 15:17:49*
%MOMM*%
%LPD*%
G01*
G04 APERTURE LIST*
%ADD10C,0.150000*%
%ADD11C,0.200000*%
%ADD12C,0.120000*%
G04 APERTURE END LIST*
D10*
%TO.C,U1*%
X114238095Y-112154819D02*
X114238095Y-112964342D01*
X114238095Y-112964342D02*
X114285714Y-113059580D01*
X114285714Y-113059580D02*
X114333333Y-113107200D01*
X114333333Y-113107200D02*
X114428571Y-113154819D01*
X114428571Y-113154819D02*
X114619047Y-113154819D01*
X114619047Y-113154819D02*
X114714285Y-113107200D01*
X114714285Y-113107200D02*
X114761904Y-113059580D01*
X114761904Y-113059580D02*
X114809523Y-112964342D01*
X114809523Y-112964342D02*
X114809523Y-112154819D01*
X115809523Y-113154819D02*
X115238095Y-113154819D01*
X115523809Y-113154819D02*
X115523809Y-112154819D01*
X115523809Y-112154819D02*
X115428571Y-112297676D01*
X115428571Y-112297676D02*
X115333333Y-112392914D01*
X115333333Y-112392914D02*
X115238095Y-112440533D01*
%TO.C,R2*%
X106233333Y-108554819D02*
X105900000Y-108078628D01*
X105661905Y-108554819D02*
X105661905Y-107554819D01*
X105661905Y-107554819D02*
X106042857Y-107554819D01*
X106042857Y-107554819D02*
X106138095Y-107602438D01*
X106138095Y-107602438D02*
X106185714Y-107650057D01*
X106185714Y-107650057D02*
X106233333Y-107745295D01*
X106233333Y-107745295D02*
X106233333Y-107888152D01*
X106233333Y-107888152D02*
X106185714Y-107983390D01*
X106185714Y-107983390D02*
X106138095Y-108031009D01*
X106138095Y-108031009D02*
X106042857Y-108078628D01*
X106042857Y-108078628D02*
X105661905Y-108078628D01*
X106614286Y-107650057D02*
X106661905Y-107602438D01*
X106661905Y-107602438D02*
X106757143Y-107554819D01*
X106757143Y-107554819D02*
X106995238Y-107554819D01*
X106995238Y-107554819D02*
X107090476Y-107602438D01*
X107090476Y-107602438D02*
X107138095Y-107650057D01*
X107138095Y-107650057D02*
X107185714Y-107745295D01*
X107185714Y-107745295D02*
X107185714Y-107840533D01*
X107185714Y-107840533D02*
X107138095Y-107983390D01*
X107138095Y-107983390D02*
X106566667Y-108554819D01*
X106566667Y-108554819D02*
X107185714Y-108554819D01*
%TO.C,R1*%
X111433333Y-108454819D02*
X111100000Y-107978628D01*
X110861905Y-108454819D02*
X110861905Y-107454819D01*
X110861905Y-107454819D02*
X111242857Y-107454819D01*
X111242857Y-107454819D02*
X111338095Y-107502438D01*
X111338095Y-107502438D02*
X111385714Y-107550057D01*
X111385714Y-107550057D02*
X111433333Y-107645295D01*
X111433333Y-107645295D02*
X111433333Y-107788152D01*
X111433333Y-107788152D02*
X111385714Y-107883390D01*
X111385714Y-107883390D02*
X111338095Y-107931009D01*
X111338095Y-107931009D02*
X111242857Y-107978628D01*
X111242857Y-107978628D02*
X110861905Y-107978628D01*
X112385714Y-108454819D02*
X111814286Y-108454819D01*
X112100000Y-108454819D02*
X112100000Y-107454819D01*
X112100000Y-107454819D02*
X112004762Y-107597676D01*
X112004762Y-107597676D02*
X111909524Y-107692914D01*
X111909524Y-107692914D02*
X111814286Y-107740533D01*
%TO.C,J4*%
X120666666Y-102454819D02*
X120666666Y-103169104D01*
X120666666Y-103169104D02*
X120619047Y-103311961D01*
X120619047Y-103311961D02*
X120523809Y-103407200D01*
X120523809Y-103407200D02*
X120380952Y-103454819D01*
X120380952Y-103454819D02*
X120285714Y-103454819D01*
X121571428Y-102788152D02*
X121571428Y-103454819D01*
X121333333Y-102407200D02*
X121095238Y-103121485D01*
X121095238Y-103121485D02*
X121714285Y-103121485D01*
%TO.C,J3*%
X103466666Y-113524819D02*
X103466666Y-114239104D01*
X103466666Y-114239104D02*
X103419047Y-114381961D01*
X103419047Y-114381961D02*
X103323809Y-114477200D01*
X103323809Y-114477200D02*
X103180952Y-114524819D01*
X103180952Y-114524819D02*
X103085714Y-114524819D01*
X103847619Y-113524819D02*
X104466666Y-113524819D01*
X104466666Y-113524819D02*
X104133333Y-113905771D01*
X104133333Y-113905771D02*
X104276190Y-113905771D01*
X104276190Y-113905771D02*
X104371428Y-113953390D01*
X104371428Y-113953390D02*
X104419047Y-114001009D01*
X104419047Y-114001009D02*
X104466666Y-114096247D01*
X104466666Y-114096247D02*
X104466666Y-114334342D01*
X104466666Y-114334342D02*
X104419047Y-114429580D01*
X104419047Y-114429580D02*
X104371428Y-114477200D01*
X104371428Y-114477200D02*
X104276190Y-114524819D01*
X104276190Y-114524819D02*
X103990476Y-114524819D01*
X103990476Y-114524819D02*
X103895238Y-114477200D01*
X103895238Y-114477200D02*
X103847619Y-114429580D01*
%TO.C,J2*%
X110466666Y-117474819D02*
X110466666Y-118189104D01*
X110466666Y-118189104D02*
X110419047Y-118331961D01*
X110419047Y-118331961D02*
X110323809Y-118427200D01*
X110323809Y-118427200D02*
X110180952Y-118474819D01*
X110180952Y-118474819D02*
X110085714Y-118474819D01*
X110895238Y-117570057D02*
X110942857Y-117522438D01*
X110942857Y-117522438D02*
X111038095Y-117474819D01*
X111038095Y-117474819D02*
X111276190Y-117474819D01*
X111276190Y-117474819D02*
X111371428Y-117522438D01*
X111371428Y-117522438D02*
X111419047Y-117570057D01*
X111419047Y-117570057D02*
X111466666Y-117665295D01*
X111466666Y-117665295D02*
X111466666Y-117760533D01*
X111466666Y-117760533D02*
X111419047Y-117903390D01*
X111419047Y-117903390D02*
X110847619Y-118474819D01*
X110847619Y-118474819D02*
X111466666Y-118474819D01*
%TO.C,J1*%
X102966666Y-102654819D02*
X102966666Y-103369104D01*
X102966666Y-103369104D02*
X102919047Y-103511961D01*
X102919047Y-103511961D02*
X102823809Y-103607200D01*
X102823809Y-103607200D02*
X102680952Y-103654819D01*
X102680952Y-103654819D02*
X102585714Y-103654819D01*
X103966666Y-103654819D02*
X103395238Y-103654819D01*
X103680952Y-103654819D02*
X103680952Y-102654819D01*
X103680952Y-102654819D02*
X103585714Y-102797676D01*
X103585714Y-102797676D02*
X103490476Y-102892914D01*
X103490476Y-102892914D02*
X103395238Y-102940533D01*
%TO.C,C2*%
X110133333Y-111329580D02*
X110085714Y-111377200D01*
X110085714Y-111377200D02*
X109942857Y-111424819D01*
X109942857Y-111424819D02*
X109847619Y-111424819D01*
X109847619Y-111424819D02*
X109704762Y-111377200D01*
X109704762Y-111377200D02*
X109609524Y-111281961D01*
X109609524Y-111281961D02*
X109561905Y-111186723D01*
X109561905Y-111186723D02*
X109514286Y-110996247D01*
X109514286Y-110996247D02*
X109514286Y-110853390D01*
X109514286Y-110853390D02*
X109561905Y-110662914D01*
X109561905Y-110662914D02*
X109609524Y-110567676D01*
X109609524Y-110567676D02*
X109704762Y-110472438D01*
X109704762Y-110472438D02*
X109847619Y-110424819D01*
X109847619Y-110424819D02*
X109942857Y-110424819D01*
X109942857Y-110424819D02*
X110085714Y-110472438D01*
X110085714Y-110472438D02*
X110133333Y-110520057D01*
X110514286Y-110520057D02*
X110561905Y-110472438D01*
X110561905Y-110472438D02*
X110657143Y-110424819D01*
X110657143Y-110424819D02*
X110895238Y-110424819D01*
X110895238Y-110424819D02*
X110990476Y-110472438D01*
X110990476Y-110472438D02*
X111038095Y-110520057D01*
X111038095Y-110520057D02*
X111085714Y-110615295D01*
X111085714Y-110615295D02*
X111085714Y-110710533D01*
X111085714Y-110710533D02*
X111038095Y-110853390D01*
X111038095Y-110853390D02*
X110466667Y-111424819D01*
X110466667Y-111424819D02*
X111085714Y-111424819D01*
%TO.C,C1*%
X116933333Y-113329580D02*
X116885714Y-113377200D01*
X116885714Y-113377200D02*
X116742857Y-113424819D01*
X116742857Y-113424819D02*
X116647619Y-113424819D01*
X116647619Y-113424819D02*
X116504762Y-113377200D01*
X116504762Y-113377200D02*
X116409524Y-113281961D01*
X116409524Y-113281961D02*
X116361905Y-113186723D01*
X116361905Y-113186723D02*
X116314286Y-112996247D01*
X116314286Y-112996247D02*
X116314286Y-112853390D01*
X116314286Y-112853390D02*
X116361905Y-112662914D01*
X116361905Y-112662914D02*
X116409524Y-112567676D01*
X116409524Y-112567676D02*
X116504762Y-112472438D01*
X116504762Y-112472438D02*
X116647619Y-112424819D01*
X116647619Y-112424819D02*
X116742857Y-112424819D01*
X116742857Y-112424819D02*
X116885714Y-112472438D01*
X116885714Y-112472438D02*
X116933333Y-112520057D01*
X117885714Y-113424819D02*
X117314286Y-113424819D01*
X117600000Y-113424819D02*
X117600000Y-112424819D01*
X117600000Y-112424819D02*
X117504762Y-112567676D01*
X117504762Y-112567676D02*
X117409524Y-112662914D01*
X117409524Y-112662914D02*
X117314286Y-112710533D01*
D11*
%TO.C,U1*%
X110899999Y-114575003D02*
X111625002Y-113850001D01*
X110899999Y-116949999D02*
X110899999Y-114575003D01*
X110899999Y-116949999D02*
X112700001Y-116949999D01*
X111625002Y-113850001D02*
X112700001Y-113850001D01*
X112700001Y-116949999D02*
X112700001Y-113850001D01*
D12*
%TO.C,R2*%
X107777500Y-108354724D02*
X107777500Y-107845276D01*
X108822500Y-108354724D02*
X108822500Y-107845276D01*
%TO.C,R1*%
X109277500Y-108354724D02*
X109277500Y-107845276D01*
X110322500Y-108354724D02*
X110322500Y-107845276D01*
%TO.C,J4*%
X118040000Y-100290000D02*
X114160000Y-100290000D01*
X119210000Y-102260000D02*
X119210000Y-104760000D01*
X112990000Y-102260000D02*
X112990000Y-104760000D01*
X119210000Y-104760000D02*
X118160000Y-104760000D01*
X112990000Y-104760000D02*
X114040000Y-104760000D01*
X118160000Y-104760000D02*
X118160000Y-105750000D01*
%TO.C,J3*%
X102470000Y-115070000D02*
X103800000Y-115070000D01*
X102470000Y-117670000D02*
X105130000Y-117670000D01*
X102470000Y-117730000D02*
X105130000Y-117730000D01*
X105130000Y-117670000D02*
X105130000Y-117730000D01*
X102470000Y-117670000D02*
X102470000Y-117730000D01*
X102470000Y-116400000D02*
X102470000Y-115070000D01*
%TO.C,J2*%
X109740000Y-120215000D02*
X109740000Y-119225000D01*
X112910000Y-122715000D02*
X112910000Y-120215000D01*
X112910000Y-120215000D02*
X111860000Y-120215000D01*
X108690000Y-122715000D02*
X108690000Y-120215000D01*
X109860000Y-124685000D02*
X111740000Y-124685000D01*
X108690000Y-120215000D02*
X109740000Y-120215000D01*
%TO.C,J1*%
X110240000Y-100290000D02*
X106360000Y-100290000D01*
X111410000Y-102260000D02*
X111410000Y-104760000D01*
X105190000Y-102260000D02*
X105190000Y-104760000D01*
X111410000Y-104760000D02*
X110360000Y-104760000D01*
X105190000Y-104760000D02*
X106240000Y-104760000D01*
X110360000Y-104760000D02*
X110360000Y-105750000D01*
%TO.C,C2*%
X110153733Y-111890000D02*
X110446267Y-111890000D01*
X110153733Y-112910000D02*
X110446267Y-112910000D01*
%TO.C,C1*%
X116953733Y-113890000D02*
X117246267Y-113890000D01*
X116953733Y-114910000D02*
X117246267Y-114910000D01*
%TD*%
M02*
