%TF.GenerationSoftware,KiCad,Pcbnew,7.0.5*%
%TF.CreationDate,2023-06-11T15:17:49-05:00*%
%TF.ProjectId,DRV2605,44525632-3630-4352-9e6b-696361645f70,rev?*%
%TF.SameCoordinates,Original*%
%TF.FileFunction,Copper,L2,Bot*%
%TF.FilePolarity,Positive*%
%FSLAX46Y46*%
G04 Gerber Fmt 4.6, Leading zero omitted, Abs format (unit mm)*
G04 Created by KiCad (PCBNEW 7.0.5) date 2023-06-11 15:17:49*
%MOMM*%
%LPD*%
G01*
G04 APERTURE LIST*
%TA.AperFunction,ComponentPad*%
%ADD10R,1.700000X1.700000*%
%TD*%
%TA.AperFunction,ViaPad*%
%ADD11C,0.800000*%
%TD*%
%TA.AperFunction,Conductor*%
%ADD12C,0.250000*%
%TD*%
G04 APERTURE END LIST*
D10*
%TO.P,J3,1,Pin_1*%
%TO.N,/Enable*%
X103800000Y-116400000D03*
%TD*%
D11*
%TO.N,GND*%
X111400000Y-114100000D03*
%TO.N,+3.3V*%
X111650000Y-110150000D03*
X107800000Y-102500000D03*
X114600000Y-107775500D03*
X108300000Y-110500000D03*
%TO.N,GND*%
X112200000Y-105075000D03*
X119400000Y-114400000D03*
%TO.N,+3.3V*%
X113700000Y-117600000D03*
X117000000Y-116900000D03*
%TD*%
D12*
%TO.N,+3.3V*%
X114024500Y-107775500D02*
X114600000Y-107775500D01*
X111650000Y-110150000D02*
X114024500Y-107775500D01*
X111300000Y-110500000D02*
X111650000Y-110150000D01*
X107800000Y-102500000D02*
X108300000Y-103000000D01*
X108300000Y-103000000D02*
X108300000Y-110500000D01*
X108300000Y-110500000D02*
X111300000Y-110500000D01*
X114400000Y-116900000D02*
X113700000Y-117600000D01*
X117000000Y-116900000D02*
X114400000Y-116900000D01*
%TD*%
%TA.AperFunction,Conductor*%
%TO.N,GND*%
G36*
X124942539Y-100020185D02*
G01*
X124988294Y-100072989D01*
X124999500Y-100124500D01*
X124999500Y-124875500D01*
X124979815Y-124942539D01*
X124927011Y-124988294D01*
X124875500Y-124999500D01*
X100124500Y-124999500D01*
X100057461Y-124979815D01*
X100011706Y-124927011D01*
X100000500Y-124875500D01*
X100000500Y-117297870D01*
X102449500Y-117297870D01*
X102449501Y-117297876D01*
X102455908Y-117357483D01*
X102506202Y-117492328D01*
X102506206Y-117492335D01*
X102592452Y-117607544D01*
X102592455Y-117607547D01*
X102707664Y-117693793D01*
X102707671Y-117693797D01*
X102842517Y-117744091D01*
X102842516Y-117744091D01*
X102849444Y-117744835D01*
X102902127Y-117750500D01*
X104697872Y-117750499D01*
X104757483Y-117744091D01*
X104892331Y-117693796D01*
X105007546Y-117607546D01*
X105013195Y-117600000D01*
X112794540Y-117600000D01*
X112814326Y-117788256D01*
X112814327Y-117788259D01*
X112872818Y-117968277D01*
X112872821Y-117968284D01*
X112967467Y-118132216D01*
X113094129Y-118272888D01*
X113247265Y-118384148D01*
X113247270Y-118384151D01*
X113420192Y-118461142D01*
X113420197Y-118461144D01*
X113605354Y-118500500D01*
X113605355Y-118500500D01*
X113794644Y-118500500D01*
X113794646Y-118500500D01*
X113979803Y-118461144D01*
X114152730Y-118384151D01*
X114305871Y-118272888D01*
X114432533Y-118132216D01*
X114527179Y-117968284D01*
X114585674Y-117788256D01*
X114601619Y-117636536D01*
X114628203Y-117571924D01*
X114685501Y-117531939D01*
X114724940Y-117525500D01*
X116296252Y-117525500D01*
X116363291Y-117545185D01*
X116388400Y-117566526D01*
X116394126Y-117572885D01*
X116394130Y-117572889D01*
X116547265Y-117684148D01*
X116547270Y-117684151D01*
X116720192Y-117761142D01*
X116720197Y-117761144D01*
X116905354Y-117800500D01*
X116905355Y-117800500D01*
X117094644Y-117800500D01*
X117094646Y-117800500D01*
X117279803Y-117761144D01*
X117452730Y-117684151D01*
X117605871Y-117572888D01*
X117732533Y-117432216D01*
X117827179Y-117268284D01*
X117885674Y-117088256D01*
X117905460Y-116900000D01*
X117885674Y-116711744D01*
X117827179Y-116531716D01*
X117732533Y-116367784D01*
X117605871Y-116227112D01*
X117605870Y-116227111D01*
X117452734Y-116115851D01*
X117452729Y-116115848D01*
X117279807Y-116038857D01*
X117279802Y-116038855D01*
X117134001Y-116007865D01*
X117094646Y-115999500D01*
X116905354Y-115999500D01*
X116872897Y-116006398D01*
X116720197Y-116038855D01*
X116720192Y-116038857D01*
X116547270Y-116115848D01*
X116547265Y-116115851D01*
X116394130Y-116227110D01*
X116394126Y-116227114D01*
X116388400Y-116233474D01*
X116328913Y-116270121D01*
X116296252Y-116274500D01*
X114482737Y-116274500D01*
X114467120Y-116272776D01*
X114467093Y-116273062D01*
X114459331Y-116272327D01*
X114391171Y-116274469D01*
X114389224Y-116274500D01*
X114360650Y-116274500D01*
X114359929Y-116274590D01*
X114353757Y-116275369D01*
X114347945Y-116275826D01*
X114301372Y-116277290D01*
X114301369Y-116277291D01*
X114282126Y-116282881D01*
X114263083Y-116286825D01*
X114243204Y-116289336D01*
X114243203Y-116289337D01*
X114199878Y-116306490D01*
X114194352Y-116308382D01*
X114149608Y-116321383D01*
X114149604Y-116321385D01*
X114132365Y-116331580D01*
X114114898Y-116340137D01*
X114096269Y-116347512D01*
X114096267Y-116347513D01*
X114058564Y-116374906D01*
X114053682Y-116378112D01*
X114013580Y-116401828D01*
X113999408Y-116416000D01*
X113984623Y-116428628D01*
X113968412Y-116440407D01*
X113938709Y-116476310D01*
X113934777Y-116480630D01*
X113883693Y-116531715D01*
X113752226Y-116663182D01*
X113690906Y-116696666D01*
X113664547Y-116699500D01*
X113605354Y-116699500D01*
X113572897Y-116706398D01*
X113420197Y-116738855D01*
X113420192Y-116738857D01*
X113247270Y-116815848D01*
X113247265Y-116815851D01*
X113094129Y-116927111D01*
X112967466Y-117067785D01*
X112872821Y-117231715D01*
X112872818Y-117231722D01*
X112814327Y-117411740D01*
X112814326Y-117411744D01*
X112794540Y-117600000D01*
X105013195Y-117600000D01*
X105093796Y-117492331D01*
X105144091Y-117357483D01*
X105150500Y-117297873D01*
X105150499Y-115502128D01*
X105144091Y-115442517D01*
X105093796Y-115307669D01*
X105093795Y-115307668D01*
X105093793Y-115307664D01*
X105007547Y-115192455D01*
X105007544Y-115192452D01*
X104892335Y-115106206D01*
X104892328Y-115106202D01*
X104757482Y-115055908D01*
X104757483Y-115055908D01*
X104697883Y-115049501D01*
X104697881Y-115049500D01*
X104697873Y-115049500D01*
X104697864Y-115049500D01*
X102902129Y-115049500D01*
X102902123Y-115049501D01*
X102842516Y-115055908D01*
X102707671Y-115106202D01*
X102707664Y-115106206D01*
X102592455Y-115192452D01*
X102592452Y-115192455D01*
X102506206Y-115307664D01*
X102506202Y-115307671D01*
X102455908Y-115442517D01*
X102449501Y-115502116D01*
X102449501Y-115502123D01*
X102449500Y-115502135D01*
X102449500Y-117297870D01*
X100000500Y-117297870D01*
X100000500Y-102500000D01*
X106894540Y-102500000D01*
X106914326Y-102688256D01*
X106914327Y-102688259D01*
X106972818Y-102868277D01*
X106972821Y-102868284D01*
X107067467Y-103032216D01*
X107112961Y-103082742D01*
X107194129Y-103172888D01*
X107347265Y-103284148D01*
X107347270Y-103284151D01*
X107520191Y-103361142D01*
X107520193Y-103361142D01*
X107520197Y-103361144D01*
X107576282Y-103373064D01*
X107637761Y-103406255D01*
X107671539Y-103467418D01*
X107674500Y-103494354D01*
X107674500Y-109801312D01*
X107654815Y-109868351D01*
X107642650Y-109884284D01*
X107567466Y-109967784D01*
X107472821Y-110131715D01*
X107472818Y-110131722D01*
X107414327Y-110311740D01*
X107414326Y-110311744D01*
X107394540Y-110500000D01*
X107414326Y-110688256D01*
X107414327Y-110688259D01*
X107472818Y-110868277D01*
X107472821Y-110868284D01*
X107567467Y-111032216D01*
X107688401Y-111166526D01*
X107694129Y-111172888D01*
X107847265Y-111284148D01*
X107847270Y-111284151D01*
X108020192Y-111361142D01*
X108020197Y-111361144D01*
X108205354Y-111400500D01*
X108205355Y-111400500D01*
X108394644Y-111400500D01*
X108394646Y-111400500D01*
X108579803Y-111361144D01*
X108752730Y-111284151D01*
X108905871Y-111172888D01*
X108908788Y-111169647D01*
X108911600Y-111166526D01*
X108971087Y-111129879D01*
X109003748Y-111125500D01*
X111217257Y-111125500D01*
X111232877Y-111127224D01*
X111232904Y-111126939D01*
X111240666Y-111127673D01*
X111240666Y-111127672D01*
X111240667Y-111127673D01*
X111243999Y-111127568D01*
X111308847Y-111125531D01*
X111310794Y-111125500D01*
X111339347Y-111125500D01*
X111339350Y-111125500D01*
X111346228Y-111124630D01*
X111352041Y-111124172D01*
X111398627Y-111122709D01*
X111417869Y-111117117D01*
X111436912Y-111113174D01*
X111456792Y-111110664D01*
X111500122Y-111093507D01*
X111505646Y-111091617D01*
X111507603Y-111091048D01*
X111550390Y-111078618D01*
X111567629Y-111068422D01*
X111585149Y-111059843D01*
X111585954Y-111059524D01*
X111586808Y-111059187D01*
X111632403Y-111050500D01*
X111744644Y-111050500D01*
X111744646Y-111050500D01*
X111929803Y-111011144D01*
X112102730Y-110934151D01*
X112255871Y-110822888D01*
X112382533Y-110682216D01*
X112477179Y-110518284D01*
X112535674Y-110338256D01*
X112553321Y-110170344D01*
X112579904Y-110105734D01*
X112588951Y-110095638D01*
X114071558Y-108613031D01*
X114132879Y-108579548D01*
X114202571Y-108584532D01*
X114209674Y-108587435D01*
X114320197Y-108636644D01*
X114505354Y-108676000D01*
X114505355Y-108676000D01*
X114694644Y-108676000D01*
X114694646Y-108676000D01*
X114879803Y-108636644D01*
X115052730Y-108559651D01*
X115205871Y-108448388D01*
X115332533Y-108307716D01*
X115427179Y-108143784D01*
X115485674Y-107963756D01*
X115505460Y-107775500D01*
X115485674Y-107587244D01*
X115427179Y-107407216D01*
X115332533Y-107243284D01*
X115205871Y-107102612D01*
X115205870Y-107102611D01*
X115052734Y-106991351D01*
X115052729Y-106991348D01*
X114879807Y-106914357D01*
X114879802Y-106914355D01*
X114734001Y-106883365D01*
X114694646Y-106875000D01*
X114505354Y-106875000D01*
X114472897Y-106881898D01*
X114320197Y-106914355D01*
X114320192Y-106914357D01*
X114147270Y-106991348D01*
X114147265Y-106991351D01*
X113994131Y-107102610D01*
X113994121Y-107102618D01*
X113980753Y-107117465D01*
X113923200Y-107153567D01*
X113906633Y-107158380D01*
X113887579Y-107162325D01*
X113867711Y-107164834D01*
X113824384Y-107181988D01*
X113818858Y-107183879D01*
X113774114Y-107196879D01*
X113774110Y-107196881D01*
X113756866Y-107207079D01*
X113739405Y-107215633D01*
X113720774Y-107223010D01*
X113720762Y-107223017D01*
X113683070Y-107250402D01*
X113678187Y-107253609D01*
X113638080Y-107277329D01*
X113623914Y-107291495D01*
X113609124Y-107304127D01*
X113592914Y-107315904D01*
X113592911Y-107315907D01*
X113563210Y-107351809D01*
X113559277Y-107356131D01*
X111702228Y-109213181D01*
X111640905Y-109246666D01*
X111614547Y-109249500D01*
X111555354Y-109249500D01*
X111522897Y-109256398D01*
X111370197Y-109288855D01*
X111370192Y-109288857D01*
X111197270Y-109365848D01*
X111197265Y-109365851D01*
X111044129Y-109477111D01*
X110917466Y-109617785D01*
X110822821Y-109781715D01*
X110822819Y-109781719D01*
X110820513Y-109788819D01*
X110781075Y-109846494D01*
X110716716Y-109873692D01*
X110702582Y-109874500D01*
X109049500Y-109874500D01*
X108982461Y-109854815D01*
X108936706Y-109802011D01*
X108925500Y-109750500D01*
X108925500Y-106875000D01*
X108925500Y-103082732D01*
X108927225Y-103067123D01*
X108926939Y-103067096D01*
X108927673Y-103059333D01*
X108925531Y-102991152D01*
X108925500Y-102989205D01*
X108925500Y-102960654D01*
X108925500Y-102960650D01*
X108924631Y-102953772D01*
X108924172Y-102947943D01*
X108922709Y-102901372D01*
X108917122Y-102882144D01*
X108913174Y-102863084D01*
X108910663Y-102843204D01*
X108893512Y-102799887D01*
X108891619Y-102794358D01*
X108878618Y-102749609D01*
X108878616Y-102749606D01*
X108868423Y-102732371D01*
X108859861Y-102714894D01*
X108852487Y-102696270D01*
X108852486Y-102696268D01*
X108825079Y-102658545D01*
X108821888Y-102653686D01*
X108798172Y-102613583D01*
X108798165Y-102613574D01*
X108784006Y-102599415D01*
X108771368Y-102584619D01*
X108759592Y-102568410D01*
X108747170Y-102558134D01*
X108708063Y-102500234D01*
X108702890Y-102475552D01*
X108685674Y-102311744D01*
X108627179Y-102131716D01*
X108532533Y-101967784D01*
X108405871Y-101827112D01*
X108405870Y-101827111D01*
X108252734Y-101715851D01*
X108252729Y-101715848D01*
X108079807Y-101638857D01*
X108079802Y-101638855D01*
X107934001Y-101607865D01*
X107894646Y-101599500D01*
X107705354Y-101599500D01*
X107672897Y-101606398D01*
X107520197Y-101638855D01*
X107520192Y-101638857D01*
X107347270Y-101715848D01*
X107347265Y-101715851D01*
X107194129Y-101827111D01*
X107067466Y-101967785D01*
X106972821Y-102131715D01*
X106972818Y-102131722D01*
X106914327Y-102311740D01*
X106914326Y-102311744D01*
X106894540Y-102500000D01*
X100000500Y-102500000D01*
X100000500Y-100124500D01*
X100020185Y-100057461D01*
X100072989Y-100011706D01*
X100124500Y-100000500D01*
X124875500Y-100000500D01*
X124942539Y-100020185D01*
G37*
%TD.AperFunction*%
%TD*%
M02*
