%TF.GenerationSoftware,KiCad,Pcbnew,(6.0.7)*%
%TF.CreationDate,2022-08-07T18:23:06-05:00*%
%TF.ProjectId,ADS1219,41445331-3231-4392-9e6b-696361645f70,4*%
%TF.SameCoordinates,Original*%
%TF.FileFunction,Copper,L2,Bot*%
%TF.FilePolarity,Positive*%
%FSLAX46Y46*%
G04 Gerber Fmt 4.6, Leading zero omitted, Abs format (unit mm)*
G04 Created by KiCad (PCBNEW (6.0.7)) date 2022-08-07 18:23:06*
%MOMM*%
%LPD*%
G01*
G04 APERTURE LIST*
%TA.AperFunction,SMDPad,CuDef*%
%ADD10R,1.000000X1.000000*%
%TD*%
%TA.AperFunction,ComponentPad*%
%ADD11R,1.700000X1.700000*%
%TD*%
%TA.AperFunction,ComponentPad*%
%ADD12O,1.700000X1.700000*%
%TD*%
%TA.AperFunction,ViaPad*%
%ADD13C,0.800000*%
%TD*%
%TA.AperFunction,Conductor*%
%ADD14C,0.250000*%
%TD*%
G04 APERTURE END LIST*
D10*
%TO.P,TP9,1,1*%
%TO.N,/AIN3*%
X166500000Y-90500000D03*
%TD*%
%TO.P,TP8,1,1*%
%TO.N,/AIN2*%
X170500000Y-90500000D03*
%TD*%
%TO.P,TP7,1,1*%
%TO.N,/AIN1*%
X174500000Y-90500000D03*
%TD*%
%TO.P,TP6,1,1*%
%TO.N,/AIN0*%
X166500000Y-86500000D03*
%TD*%
%TO.P,TP5,1,1*%
%TO.N,/A1*%
X170500000Y-86500000D03*
%TD*%
%TO.P,TP4,1,1*%
%TO.N,GND*%
X174500000Y-86500000D03*
%TD*%
%TO.P,TP3,1,1*%
%TO.N,+3.3V*%
X166500000Y-82500000D03*
%TD*%
%TO.P,TP2,1,1*%
%TO.N,/SDA*%
X170500000Y-82500000D03*
%TD*%
%TO.P,TP1,1,1*%
%TO.N,/SCL*%
X174500000Y-82500000D03*
%TD*%
D11*
%TO.P,J2,1,Pin_1*%
%TO.N,/AIN0*%
X164150000Y-97000000D03*
D12*
%TO.P,J2,2,Pin_2*%
%TO.N,/AIN1*%
X166690000Y-97000000D03*
%TO.P,J2,3,Pin_3*%
%TO.N,/AIN2*%
X169230000Y-97000000D03*
%TO.P,J2,4,Pin_4*%
%TO.N,/AIN3*%
X171770000Y-97000000D03*
%TO.P,J2,5,Pin_5*%
%TO.N,+3.3V*%
X174310000Y-97000000D03*
%TO.P,J2,6,Pin_6*%
%TO.N,GND*%
X176850000Y-97000000D03*
%TD*%
D13*
%TO.N,GND*%
X169000000Y-81500000D03*
X169000000Y-84500000D03*
X171000000Y-88000000D03*
%TO.N,/A1*%
X166000000Y-85000000D03*
%TO.N,/SCL*%
X175500000Y-83000000D03*
%TO.N,GND*%
X170500000Y-78000000D03*
X172000000Y-81500000D03*
X176000000Y-77500000D03*
X165000000Y-77500000D03*
%TO.N,+3.3V*%
X175000000Y-81000000D03*
X170500000Y-85000000D03*
X162500000Y-85000000D03*
X169000000Y-78000000D03*
%TO.N,/SDA*%
X177000000Y-85000000D03*
X162500000Y-87500000D03*
X174000000Y-77500000D03*
%TO.N,/AIN2*%
X169000000Y-88500000D03*
%TO.N,/AIN3*%
X169000000Y-87500000D03*
%TD*%
D14*
%TO.N,+3.3V*%
X168000000Y-79000000D02*
X169000000Y-78000000D01*
X168000000Y-82500000D02*
X168000000Y-79000000D01*
%TO.N,/A1*%
X168000000Y-86500000D02*
X170500000Y-86500000D01*
X166000000Y-85000000D02*
X166500000Y-85000000D01*
X166500000Y-85000000D02*
X168000000Y-86500000D01*
%TO.N,+3.3V*%
X168000000Y-82500000D02*
X170500000Y-85000000D01*
X165000000Y-82500000D02*
X168000000Y-82500000D01*
%TO.N,/SCL*%
X175000000Y-83000000D02*
X174500000Y-82500000D01*
X175500000Y-83000000D02*
X175000000Y-83000000D01*
%TO.N,/SDA*%
X170500000Y-81000000D02*
X170500000Y-82500000D01*
X174000000Y-77500000D02*
X170500000Y-81000000D01*
%TO.N,+3.3V*%
X165000000Y-82500000D02*
X166500000Y-82500000D01*
X162500000Y-85000000D02*
X165000000Y-82500000D01*
%TO.N,/AIN1*%
X167817400Y-98127400D02*
X166690000Y-97000000D01*
X177977400Y-97522600D02*
X177372600Y-98127400D01*
X177977400Y-93977400D02*
X177977400Y-97522600D01*
X174500000Y-90500000D02*
X177977400Y-93977400D01*
X177372600Y-98127400D02*
X167817400Y-98127400D01*
%TO.N,/AIN2*%
X170500000Y-90000000D02*
X170500000Y-90500000D01*
X169000000Y-88500000D02*
X170500000Y-90000000D01*
%TO.N,/AIN3*%
X166500000Y-90500000D02*
X166500000Y-90000000D01*
X166500000Y-90000000D02*
X169000000Y-87500000D01*
%TO.N,/AIN0*%
X164150000Y-88850000D02*
X164150000Y-97000000D01*
X166500000Y-86500000D02*
X164150000Y-88850000D01*
%TO.N,+3.3V*%
X174500000Y-81000000D02*
X175000000Y-81000000D01*
X170500000Y-85000000D02*
X174500000Y-81000000D01*
%TO.N,/SDA*%
X161822600Y-84219411D02*
X169042011Y-77000000D01*
X169042011Y-77000000D02*
X173500000Y-77000000D01*
X173500000Y-77000000D02*
X174000000Y-77500000D01*
X161822600Y-86822600D02*
X161822600Y-84219411D01*
X162500000Y-87500000D02*
X161822600Y-86822600D01*
X177000000Y-85000000D02*
X177000000Y-80500000D01*
X177000000Y-80500000D02*
X174000000Y-77500000D01*
%TO.N,/AIN2*%
X169230000Y-97000000D02*
X169230000Y-88730000D01*
X169230000Y-88730000D02*
X169000000Y-88500000D01*
%TO.N,/AIN3*%
X171770000Y-90270000D02*
X169000000Y-87500000D01*
X171770000Y-97000000D02*
X171770000Y-90270000D01*
%TD*%
%TA.AperFunction,Conductor*%
%TO.N,GND*%
G36*
X179765262Y-74528502D02*
G01*
X179811755Y-74582158D01*
X179821859Y-74652432D01*
X179788916Y-74720832D01*
X179629557Y-74890237D01*
X179480576Y-75104991D01*
X179364975Y-75339407D01*
X179285293Y-75588335D01*
X179243279Y-75846307D01*
X179239858Y-76107655D01*
X179275104Y-76366638D01*
X179276412Y-76371124D01*
X179276412Y-76371126D01*
X179290080Y-76418019D01*
X179348243Y-76617567D01*
X179457668Y-76854928D01*
X179460231Y-76858837D01*
X179598410Y-77069596D01*
X179598414Y-77069601D01*
X179600976Y-77073509D01*
X179775018Y-77268506D01*
X179975970Y-77435637D01*
X179979973Y-77438066D01*
X180195422Y-77568804D01*
X180195426Y-77568806D01*
X180199419Y-77571229D01*
X180440455Y-77672303D01*
X180693783Y-77736641D01*
X180698434Y-77737109D01*
X180698438Y-77737110D01*
X180891308Y-77756531D01*
X180910867Y-77758500D01*
X181066354Y-77758500D01*
X181068679Y-77758327D01*
X181068685Y-77758327D01*
X181256000Y-77744407D01*
X181256004Y-77744406D01*
X181260652Y-77744061D01*
X181265200Y-77743032D01*
X181265206Y-77743031D01*
X181451601Y-77700853D01*
X181515577Y-77686377D01*
X181551769Y-77672303D01*
X181754824Y-77593340D01*
X181754827Y-77593339D01*
X181759177Y-77591647D01*
X181986098Y-77461951D01*
X182191357Y-77300138D01*
X182273725Y-77212578D01*
X182334969Y-77176666D01*
X182405907Y-77179566D01*
X182464015Y-77220357D01*
X182490846Y-77286088D01*
X182491500Y-77298911D01*
X182491500Y-95699708D01*
X182471498Y-95767829D01*
X182417842Y-95814322D01*
X182347568Y-95824426D01*
X182282988Y-95794932D01*
X182271497Y-95783610D01*
X182257412Y-95767829D01*
X182224982Y-95731494D01*
X182024030Y-95564363D01*
X181943506Y-95515500D01*
X181804578Y-95431196D01*
X181804574Y-95431194D01*
X181800581Y-95428771D01*
X181559545Y-95327697D01*
X181306217Y-95263359D01*
X181301566Y-95262891D01*
X181301562Y-95262890D01*
X181092271Y-95241816D01*
X181089133Y-95241500D01*
X180933646Y-95241500D01*
X180931321Y-95241673D01*
X180931315Y-95241673D01*
X180744000Y-95255593D01*
X180743996Y-95255594D01*
X180739348Y-95255939D01*
X180734800Y-95256968D01*
X180734794Y-95256969D01*
X180548399Y-95299147D01*
X180484423Y-95313623D01*
X180480071Y-95315315D01*
X180480069Y-95315316D01*
X180245176Y-95406660D01*
X180245173Y-95406661D01*
X180240823Y-95408353D01*
X180013902Y-95538049D01*
X179808643Y-95699862D01*
X179629557Y-95890237D01*
X179537981Y-96022243D01*
X179483696Y-96100494D01*
X179480576Y-96104991D01*
X179478510Y-96109181D01*
X179478508Y-96109184D01*
X179384597Y-96299618D01*
X179364975Y-96339407D01*
X179363553Y-96343850D01*
X179363552Y-96343852D01*
X179360690Y-96352792D01*
X179285293Y-96588335D01*
X179243279Y-96846307D01*
X179243218Y-96850980D01*
X179240396Y-97066590D01*
X179239858Y-97107655D01*
X179275104Y-97366638D01*
X179276412Y-97371124D01*
X179276412Y-97371126D01*
X179290728Y-97420242D01*
X179348243Y-97617567D01*
X179457668Y-97854928D01*
X179485855Y-97897921D01*
X179598410Y-98069596D01*
X179598414Y-98069601D01*
X179600976Y-98073509D01*
X179775018Y-98268506D01*
X179778611Y-98271494D01*
X179781978Y-98274746D01*
X179780400Y-98276380D01*
X179814782Y-98327680D01*
X179816149Y-98398663D01*
X179778923Y-98459118D01*
X179714922Y-98489849D01*
X179694592Y-98491500D01*
X178208594Y-98491500D01*
X178140473Y-98471498D01*
X178093980Y-98417842D01*
X178083876Y-98347568D01*
X178113370Y-98282988D01*
X178119499Y-98276405D01*
X178369647Y-98026257D01*
X178377937Y-98018713D01*
X178384418Y-98014600D01*
X178431059Y-97964932D01*
X178433813Y-97962091D01*
X178453534Y-97942370D01*
X178456012Y-97939175D01*
X178463718Y-97930153D01*
X178488558Y-97903701D01*
X178493986Y-97897921D01*
X178503746Y-97880168D01*
X178514599Y-97863645D01*
X178518328Y-97858837D01*
X178527013Y-97847641D01*
X178544576Y-97807057D01*
X178549783Y-97796427D01*
X178571095Y-97757660D01*
X178573066Y-97749983D01*
X178573068Y-97749978D01*
X178576132Y-97738042D01*
X178582538Y-97719330D01*
X178587434Y-97708017D01*
X178590581Y-97700745D01*
X178597497Y-97657081D01*
X178599904Y-97645460D01*
X178608928Y-97610311D01*
X178608928Y-97610310D01*
X178610900Y-97602630D01*
X178610900Y-97582369D01*
X178612451Y-97562658D01*
X178614379Y-97550485D01*
X178615619Y-97542657D01*
X178611459Y-97498646D01*
X178610900Y-97486789D01*
X178610900Y-94056167D01*
X178611427Y-94044984D01*
X178613102Y-94037491D01*
X178610962Y-93969414D01*
X178610900Y-93965455D01*
X178610900Y-93937544D01*
X178610395Y-93933544D01*
X178609462Y-93921701D01*
X178608322Y-93885429D01*
X178608073Y-93877510D01*
X178602422Y-93858058D01*
X178598414Y-93838706D01*
X178596867Y-93826463D01*
X178595874Y-93818603D01*
X178592956Y-93811232D01*
X178579600Y-93777497D01*
X178575755Y-93766270D01*
X178575121Y-93764087D01*
X178563418Y-93723807D01*
X178559384Y-93716985D01*
X178559381Y-93716979D01*
X178553106Y-93706368D01*
X178544410Y-93688618D01*
X178539872Y-93677156D01*
X178539869Y-93677151D01*
X178536952Y-93669783D01*
X178510973Y-93634025D01*
X178504457Y-93624107D01*
X178485975Y-93592857D01*
X178481942Y-93586037D01*
X178467618Y-93571713D01*
X178454776Y-93556678D01*
X178442872Y-93540293D01*
X178408806Y-93512111D01*
X178400027Y-93504122D01*
X175545405Y-90649500D01*
X175511379Y-90587188D01*
X175508500Y-90560405D01*
X175508500Y-89951866D01*
X175501745Y-89889684D01*
X175450615Y-89753295D01*
X175363261Y-89636739D01*
X175246705Y-89549385D01*
X175110316Y-89498255D01*
X175048134Y-89491500D01*
X173951866Y-89491500D01*
X173889684Y-89498255D01*
X173753295Y-89549385D01*
X173636739Y-89636739D01*
X173549385Y-89753295D01*
X173498255Y-89889684D01*
X173491500Y-89951866D01*
X173491500Y-91048134D01*
X173498255Y-91110316D01*
X173549385Y-91246705D01*
X173636739Y-91363261D01*
X173753295Y-91450615D01*
X173889684Y-91501745D01*
X173951866Y-91508500D01*
X174560406Y-91508500D01*
X174628527Y-91528502D01*
X174649501Y-91545405D01*
X177306995Y-94202899D01*
X177341021Y-94265211D01*
X177343900Y-94291994D01*
X177343900Y-97208005D01*
X177323898Y-97276126D01*
X177306995Y-97297100D01*
X177147100Y-97456995D01*
X177084788Y-97491021D01*
X177058005Y-97493900D01*
X175749803Y-97493900D01*
X175681682Y-97473898D01*
X175635189Y-97420242D01*
X175625085Y-97349968D01*
X175629244Y-97331272D01*
X175640867Y-97293015D01*
X175642370Y-97288069D01*
X175671529Y-97066590D01*
X175673156Y-97000000D01*
X175654852Y-96777361D01*
X175600431Y-96560702D01*
X175511354Y-96355840D01*
X175390014Y-96168277D01*
X175239670Y-96003051D01*
X175235619Y-95999852D01*
X175235615Y-95999848D01*
X175068414Y-95867800D01*
X175068410Y-95867798D01*
X175064359Y-95864598D01*
X175059831Y-95862098D01*
X174973284Y-95814322D01*
X174868789Y-95756638D01*
X174863920Y-95754914D01*
X174863916Y-95754912D01*
X174663087Y-95683795D01*
X174663083Y-95683794D01*
X174658212Y-95682069D01*
X174653119Y-95681162D01*
X174653116Y-95681161D01*
X174443373Y-95643800D01*
X174443367Y-95643799D01*
X174438284Y-95642894D01*
X174364452Y-95641992D01*
X174220081Y-95640228D01*
X174220079Y-95640228D01*
X174214911Y-95640165D01*
X173994091Y-95673955D01*
X173781756Y-95743357D01*
X173751443Y-95759137D01*
X173607975Y-95833822D01*
X173583607Y-95846507D01*
X173579474Y-95849610D01*
X173579471Y-95849612D01*
X173409100Y-95977530D01*
X173404965Y-95980635D01*
X173401393Y-95984373D01*
X173282121Y-96109184D01*
X173250629Y-96142138D01*
X173143201Y-96299621D01*
X173088293Y-96344621D01*
X173017768Y-96352792D01*
X172954021Y-96321538D01*
X172933324Y-96297054D01*
X172852822Y-96172617D01*
X172852820Y-96172614D01*
X172850014Y-96168277D01*
X172699670Y-96003051D01*
X172695619Y-95999852D01*
X172695615Y-95999848D01*
X172528414Y-95867800D01*
X172528410Y-95867798D01*
X172524359Y-95864598D01*
X172519835Y-95862101D01*
X172519831Y-95862098D01*
X172468608Y-95833822D01*
X172418636Y-95783390D01*
X172403500Y-95723513D01*
X172403500Y-90348768D01*
X172404027Y-90337585D01*
X172405702Y-90330092D01*
X172403562Y-90262001D01*
X172403500Y-90258044D01*
X172403500Y-90230144D01*
X172402996Y-90226153D01*
X172402063Y-90214311D01*
X172400923Y-90178036D01*
X172400674Y-90170111D01*
X172395021Y-90150652D01*
X172391012Y-90131293D01*
X172390846Y-90129983D01*
X172388474Y-90111203D01*
X172385558Y-90103837D01*
X172385556Y-90103831D01*
X172372200Y-90070098D01*
X172368355Y-90058868D01*
X172358230Y-90024017D01*
X172358230Y-90024016D01*
X172356019Y-90016407D01*
X172345705Y-89998966D01*
X172337008Y-89981213D01*
X172332472Y-89969758D01*
X172329552Y-89962383D01*
X172303563Y-89926612D01*
X172297047Y-89916692D01*
X172274542Y-89878638D01*
X172260221Y-89864317D01*
X172247380Y-89849283D01*
X172240131Y-89839306D01*
X172235472Y-89832893D01*
X172201395Y-89804702D01*
X172192616Y-89796712D01*
X170119500Y-87723595D01*
X170085474Y-87661283D01*
X170090539Y-87590467D01*
X170133086Y-87533632D01*
X170199606Y-87508821D01*
X170208595Y-87508500D01*
X171048134Y-87508500D01*
X171110316Y-87501745D01*
X171246705Y-87450615D01*
X171363261Y-87363261D01*
X171450615Y-87246705D01*
X171501745Y-87110316D01*
X171508500Y-87048134D01*
X171508500Y-85951866D01*
X171501745Y-85889684D01*
X171450615Y-85753295D01*
X171363261Y-85636739D01*
X171325780Y-85608648D01*
X171283265Y-85551791D01*
X171278239Y-85480972D01*
X171292226Y-85444823D01*
X171331223Y-85377279D01*
X171331224Y-85377278D01*
X171334527Y-85371556D01*
X171393542Y-85189928D01*
X171410907Y-85024706D01*
X171437920Y-84959050D01*
X171447122Y-84948782D01*
X173301887Y-83094017D01*
X173364199Y-83059991D01*
X173435014Y-83065056D01*
X173491850Y-83107603D01*
X173508964Y-83138883D01*
X173516320Y-83158505D01*
X173549385Y-83246705D01*
X173636739Y-83363261D01*
X173753295Y-83450615D01*
X173889684Y-83501745D01*
X173951866Y-83508500D01*
X174577618Y-83508500D01*
X174638327Y-83524090D01*
X174642439Y-83526351D01*
X174658953Y-83537199D01*
X174674959Y-83549614D01*
X174682228Y-83552759D01*
X174682232Y-83552762D01*
X174715537Y-83567174D01*
X174726187Y-83572391D01*
X174764940Y-83593695D01*
X174772615Y-83595666D01*
X174772616Y-83595666D01*
X174784562Y-83598733D01*
X174803264Y-83605136D01*
X174809335Y-83607763D01*
X174852933Y-83639091D01*
X174888747Y-83678866D01*
X174894089Y-83682747D01*
X174894091Y-83682749D01*
X175025867Y-83778490D01*
X175043248Y-83791118D01*
X175049276Y-83793802D01*
X175049278Y-83793803D01*
X175177833Y-83851039D01*
X175217712Y-83868794D01*
X175308586Y-83888110D01*
X175398056Y-83907128D01*
X175398061Y-83907128D01*
X175404513Y-83908500D01*
X175595487Y-83908500D01*
X175601939Y-83907128D01*
X175601944Y-83907128D01*
X175691414Y-83888110D01*
X175782288Y-83868794D01*
X175822167Y-83851039D01*
X175950722Y-83793803D01*
X175950724Y-83793802D01*
X175956752Y-83791118D01*
X175976099Y-83777062D01*
X176051879Y-83722004D01*
X176111253Y-83678866D01*
X176146864Y-83639316D01*
X176207310Y-83602076D01*
X176278294Y-83603428D01*
X176337278Y-83642941D01*
X176365536Y-83708072D01*
X176366500Y-83723626D01*
X176366500Y-84297476D01*
X176346498Y-84365597D01*
X176334142Y-84381779D01*
X176260960Y-84463056D01*
X176165473Y-84628444D01*
X176106458Y-84810072D01*
X176086496Y-85000000D01*
X176106458Y-85189928D01*
X176165473Y-85371556D01*
X176260960Y-85536944D01*
X176265378Y-85541851D01*
X176265379Y-85541852D01*
X176384325Y-85673955D01*
X176388747Y-85678866D01*
X176459343Y-85730157D01*
X176536928Y-85786526D01*
X176543248Y-85791118D01*
X176549276Y-85793802D01*
X176549278Y-85793803D01*
X176629669Y-85829595D01*
X176717712Y-85868794D01*
X176811113Y-85888647D01*
X176898056Y-85907128D01*
X176898061Y-85907128D01*
X176904513Y-85908500D01*
X177095487Y-85908500D01*
X177101939Y-85907128D01*
X177101944Y-85907128D01*
X177188887Y-85888647D01*
X177282288Y-85868794D01*
X177370331Y-85829595D01*
X177450722Y-85793803D01*
X177450724Y-85793802D01*
X177456752Y-85791118D01*
X177463073Y-85786526D01*
X177540657Y-85730157D01*
X177611253Y-85678866D01*
X177615675Y-85673955D01*
X177734621Y-85541852D01*
X177734622Y-85541851D01*
X177739040Y-85536944D01*
X177834527Y-85371556D01*
X177893542Y-85189928D01*
X177913504Y-85000000D01*
X177893542Y-84810072D01*
X177834527Y-84628444D01*
X177739040Y-84463056D01*
X177665863Y-84381785D01*
X177635147Y-84317779D01*
X177633500Y-84297476D01*
X177633500Y-80578768D01*
X177634027Y-80567585D01*
X177635702Y-80560092D01*
X177633562Y-80492001D01*
X177633500Y-80488044D01*
X177633500Y-80460144D01*
X177632996Y-80456153D01*
X177632063Y-80444311D01*
X177631708Y-80432990D01*
X177630674Y-80400111D01*
X177625021Y-80380652D01*
X177621012Y-80361293D01*
X177620846Y-80359983D01*
X177618474Y-80341203D01*
X177615558Y-80333837D01*
X177615556Y-80333831D01*
X177602200Y-80300098D01*
X177598355Y-80288868D01*
X177588230Y-80254017D01*
X177588230Y-80254016D01*
X177586019Y-80246407D01*
X177575705Y-80228966D01*
X177567008Y-80211213D01*
X177562472Y-80199758D01*
X177559552Y-80192383D01*
X177533563Y-80156612D01*
X177527047Y-80146692D01*
X177504542Y-80108638D01*
X177490221Y-80094317D01*
X177477380Y-80079283D01*
X177470131Y-80069306D01*
X177465472Y-80062893D01*
X177431395Y-80034702D01*
X177422616Y-80026712D01*
X174947122Y-77551217D01*
X174913096Y-77488905D01*
X174910907Y-77475292D01*
X174894232Y-77316635D01*
X174894232Y-77316633D01*
X174893542Y-77310072D01*
X174834527Y-77128444D01*
X174823742Y-77109763D01*
X174742341Y-76968774D01*
X174739040Y-76963056D01*
X174611253Y-76821134D01*
X174456752Y-76708882D01*
X174450724Y-76706198D01*
X174450722Y-76706197D01*
X174288319Y-76633891D01*
X174288318Y-76633891D01*
X174282288Y-76631206D01*
X174188887Y-76611353D01*
X174101944Y-76592872D01*
X174101939Y-76592872D01*
X174095487Y-76591500D01*
X174040309Y-76591500D01*
X173972188Y-76571498D01*
X173954058Y-76557352D01*
X173942349Y-76546357D01*
X173939505Y-76543600D01*
X173919770Y-76523865D01*
X173916573Y-76521385D01*
X173907551Y-76513680D01*
X173894122Y-76501069D01*
X173875321Y-76483414D01*
X173868375Y-76479595D01*
X173868372Y-76479593D01*
X173857566Y-76473652D01*
X173841047Y-76462801D01*
X173840583Y-76462441D01*
X173825041Y-76450386D01*
X173817772Y-76447241D01*
X173817768Y-76447238D01*
X173784463Y-76432826D01*
X173773813Y-76427609D01*
X173735060Y-76406305D01*
X173715437Y-76401267D01*
X173696734Y-76394863D01*
X173685420Y-76389967D01*
X173685419Y-76389967D01*
X173678145Y-76386819D01*
X173670322Y-76385580D01*
X173670312Y-76385577D01*
X173634476Y-76379901D01*
X173622856Y-76377495D01*
X173587711Y-76368472D01*
X173587710Y-76368472D01*
X173580030Y-76366500D01*
X173559776Y-76366500D01*
X173540065Y-76364949D01*
X173527886Y-76363020D01*
X173520057Y-76361780D01*
X173490786Y-76364547D01*
X173476039Y-76365941D01*
X173464181Y-76366500D01*
X169120778Y-76366500D01*
X169109595Y-76365973D01*
X169102102Y-76364298D01*
X169094176Y-76364547D01*
X169094175Y-76364547D01*
X169034012Y-76366438D01*
X169030054Y-76366500D01*
X169002155Y-76366500D01*
X168998165Y-76367004D01*
X168986331Y-76367936D01*
X168942122Y-76369326D01*
X168934508Y-76371538D01*
X168934503Y-76371539D01*
X168922670Y-76374977D01*
X168903307Y-76378988D01*
X168883214Y-76381526D01*
X168875847Y-76384443D01*
X168875842Y-76384444D01*
X168842103Y-76397802D01*
X168830876Y-76401646D01*
X168788418Y-76413982D01*
X168781592Y-76418019D01*
X168770983Y-76424293D01*
X168753235Y-76432988D01*
X168734394Y-76440448D01*
X168727978Y-76445110D01*
X168727977Y-76445110D01*
X168698624Y-76466436D01*
X168688704Y-76472952D01*
X168657476Y-76491420D01*
X168657473Y-76491422D01*
X168650649Y-76495458D01*
X168636328Y-76509779D01*
X168621295Y-76522619D01*
X168604904Y-76534528D01*
X168599853Y-76540634D01*
X168576713Y-76568605D01*
X168568723Y-76577384D01*
X161430347Y-83715759D01*
X161422061Y-83723299D01*
X161415582Y-83727411D01*
X161410157Y-83733188D01*
X161368957Y-83777062D01*
X161366202Y-83779904D01*
X161346465Y-83799641D01*
X161343985Y-83802838D01*
X161336282Y-83811858D01*
X161306014Y-83844090D01*
X161302195Y-83851036D01*
X161302193Y-83851039D01*
X161296252Y-83861845D01*
X161285401Y-83878364D01*
X161272986Y-83894370D01*
X161269841Y-83901639D01*
X161269838Y-83901643D01*
X161255426Y-83934948D01*
X161250209Y-83945598D01*
X161228905Y-83984351D01*
X161226934Y-83992026D01*
X161226934Y-83992027D01*
X161223867Y-84003973D01*
X161217463Y-84022677D01*
X161209419Y-84041266D01*
X161208180Y-84049089D01*
X161208177Y-84049099D01*
X161202501Y-84084935D01*
X161200095Y-84096555D01*
X161189100Y-84139381D01*
X161189100Y-84159635D01*
X161187549Y-84179345D01*
X161184380Y-84199354D01*
X161185126Y-84207246D01*
X161188541Y-84243372D01*
X161189100Y-84255230D01*
X161189100Y-86743833D01*
X161188573Y-86755016D01*
X161186898Y-86762509D01*
X161187147Y-86770435D01*
X161187147Y-86770436D01*
X161189038Y-86830586D01*
X161189100Y-86834545D01*
X161189100Y-86862456D01*
X161189597Y-86866390D01*
X161189597Y-86866391D01*
X161189605Y-86866456D01*
X161190538Y-86878293D01*
X161191927Y-86922489D01*
X161197578Y-86941939D01*
X161201587Y-86961300D01*
X161204126Y-86981397D01*
X161207045Y-86988768D01*
X161207045Y-86988770D01*
X161220404Y-87022512D01*
X161224249Y-87033742D01*
X161233960Y-87067168D01*
X161236582Y-87076193D01*
X161240615Y-87083012D01*
X161240617Y-87083017D01*
X161246893Y-87093628D01*
X161255588Y-87111376D01*
X161263048Y-87130217D01*
X161267710Y-87136633D01*
X161267710Y-87136634D01*
X161289036Y-87165987D01*
X161295552Y-87175907D01*
X161318058Y-87213962D01*
X161332379Y-87228283D01*
X161345219Y-87243316D01*
X161357128Y-87259707D01*
X161363234Y-87264758D01*
X161391205Y-87287898D01*
X161399984Y-87295888D01*
X161552878Y-87448782D01*
X161586904Y-87511094D01*
X161589092Y-87524703D01*
X161606458Y-87689928D01*
X161665473Y-87871556D01*
X161760960Y-88036944D01*
X161888747Y-88178866D01*
X162043248Y-88291118D01*
X162049276Y-88293802D01*
X162049278Y-88293803D01*
X162211681Y-88366109D01*
X162217712Y-88368794D01*
X162311113Y-88388647D01*
X162398056Y-88407128D01*
X162398061Y-88407128D01*
X162404513Y-88408500D01*
X162595487Y-88408500D01*
X162601939Y-88407128D01*
X162601944Y-88407128D01*
X162688887Y-88388647D01*
X162782288Y-88368794D01*
X162788319Y-88366109D01*
X162950722Y-88293803D01*
X162950724Y-88293802D01*
X162956752Y-88291118D01*
X163111253Y-88178866D01*
X163239040Y-88036944D01*
X163334527Y-87871556D01*
X163393542Y-87689928D01*
X163413504Y-87500000D01*
X163408645Y-87453767D01*
X163394232Y-87316635D01*
X163394232Y-87316633D01*
X163393542Y-87310072D01*
X163334527Y-87128444D01*
X163239040Y-86963056D01*
X163231786Y-86954999D01*
X163115675Y-86826045D01*
X163115674Y-86826044D01*
X163111253Y-86821134D01*
X162956752Y-86708882D01*
X162950724Y-86706198D01*
X162950722Y-86706197D01*
X162788319Y-86633891D01*
X162788318Y-86633891D01*
X162782288Y-86631206D01*
X162688887Y-86611353D01*
X162601944Y-86592872D01*
X162601939Y-86592872D01*
X162595487Y-86591500D01*
X162582100Y-86591500D01*
X162513979Y-86571498D01*
X162467486Y-86517842D01*
X162456100Y-86465500D01*
X162456100Y-86034500D01*
X162476102Y-85966379D01*
X162529758Y-85919886D01*
X162582100Y-85908500D01*
X162595487Y-85908500D01*
X162601939Y-85907128D01*
X162601944Y-85907128D01*
X162688887Y-85888647D01*
X162782288Y-85868794D01*
X162870331Y-85829595D01*
X162950722Y-85793803D01*
X162950724Y-85793802D01*
X162956752Y-85791118D01*
X162963073Y-85786526D01*
X163040657Y-85730157D01*
X163111253Y-85678866D01*
X163115675Y-85673955D01*
X163234621Y-85541852D01*
X163234622Y-85541851D01*
X163239040Y-85536944D01*
X163334527Y-85371556D01*
X163393542Y-85189928D01*
X163410907Y-85024706D01*
X163437920Y-84959050D01*
X163447122Y-84948782D01*
X165225500Y-83170405D01*
X165287812Y-83136379D01*
X165314595Y-83133500D01*
X165419618Y-83133500D01*
X165487739Y-83153502D01*
X165534232Y-83207158D01*
X165537599Y-83215269D01*
X165546231Y-83238293D01*
X165549385Y-83246705D01*
X165636739Y-83363261D01*
X165753295Y-83450615D01*
X165889684Y-83501745D01*
X165951866Y-83508500D01*
X167048134Y-83508500D01*
X167110316Y-83501745D01*
X167246705Y-83450615D01*
X167363261Y-83363261D01*
X167450615Y-83246705D01*
X167453769Y-83238293D01*
X167462401Y-83215269D01*
X167505043Y-83158505D01*
X167571605Y-83133806D01*
X167580382Y-83133500D01*
X167685406Y-83133500D01*
X167753527Y-83153502D01*
X167774501Y-83170405D01*
X169552878Y-84948783D01*
X169586904Y-85011095D01*
X169589093Y-85024706D01*
X169606458Y-85189928D01*
X169665473Y-85371556D01*
X169668776Y-85377278D01*
X169668777Y-85377279D01*
X169707774Y-85444823D01*
X169724512Y-85513818D01*
X169701292Y-85580910D01*
X169674222Y-85608647D01*
X169636739Y-85636739D01*
X169549385Y-85753295D01*
X169546233Y-85761703D01*
X169546231Y-85761707D01*
X169537599Y-85784731D01*
X169494957Y-85841495D01*
X169428395Y-85866194D01*
X169419618Y-85866500D01*
X168314595Y-85866500D01*
X168246474Y-85846498D01*
X168225500Y-85829595D01*
X167003652Y-84607747D01*
X166996112Y-84599461D01*
X166992000Y-84592982D01*
X166942348Y-84546356D01*
X166939507Y-84543602D01*
X166919770Y-84523865D01*
X166916573Y-84521385D01*
X166907551Y-84513680D01*
X166881100Y-84488841D01*
X166875321Y-84483414D01*
X166868375Y-84479595D01*
X166868372Y-84479593D01*
X166857566Y-84473652D01*
X166841047Y-84462801D01*
X166840583Y-84462441D01*
X166825041Y-84450386D01*
X166817772Y-84447241D01*
X166817768Y-84447238D01*
X166784463Y-84432826D01*
X166773813Y-84427609D01*
X166735060Y-84406305D01*
X166715437Y-84401267D01*
X166696736Y-84394864D01*
X166690665Y-84392237D01*
X166647066Y-84360909D01*
X166615672Y-84326042D01*
X166611253Y-84321134D01*
X166520545Y-84255230D01*
X166462094Y-84212763D01*
X166462093Y-84212762D01*
X166456752Y-84208882D01*
X166450724Y-84206198D01*
X166450722Y-84206197D01*
X166288319Y-84133891D01*
X166288318Y-84133891D01*
X166282288Y-84131206D01*
X166188888Y-84111353D01*
X166101944Y-84092872D01*
X166101939Y-84092872D01*
X166095487Y-84091500D01*
X165904513Y-84091500D01*
X165898061Y-84092872D01*
X165898056Y-84092872D01*
X165811112Y-84111353D01*
X165717712Y-84131206D01*
X165711682Y-84133891D01*
X165711681Y-84133891D01*
X165549278Y-84206197D01*
X165549276Y-84206198D01*
X165543248Y-84208882D01*
X165388747Y-84321134D01*
X165384328Y-84326042D01*
X165384325Y-84326045D01*
X165275203Y-84447238D01*
X165260960Y-84463056D01*
X165165473Y-84628444D01*
X165106458Y-84810072D01*
X165086496Y-85000000D01*
X165106458Y-85189928D01*
X165165473Y-85371556D01*
X165260960Y-85536944D01*
X165265378Y-85541851D01*
X165265379Y-85541852D01*
X165384325Y-85673955D01*
X165388747Y-85678866D01*
X165459344Y-85730158D01*
X165502697Y-85786379D01*
X165508772Y-85857115D01*
X165503267Y-85876316D01*
X165498255Y-85889684D01*
X165497402Y-85897532D01*
X165497402Y-85897534D01*
X165496360Y-85907128D01*
X165491500Y-85951866D01*
X165491500Y-86560406D01*
X165471498Y-86628527D01*
X165454595Y-86649501D01*
X164605124Y-87498971D01*
X163757747Y-88346348D01*
X163749461Y-88353888D01*
X163742982Y-88358000D01*
X163737557Y-88363777D01*
X163696357Y-88407651D01*
X163693602Y-88410493D01*
X163673865Y-88430230D01*
X163671385Y-88433427D01*
X163663682Y-88442447D01*
X163633414Y-88474679D01*
X163629595Y-88481625D01*
X163629593Y-88481628D01*
X163623652Y-88492434D01*
X163612801Y-88508953D01*
X163600386Y-88524959D01*
X163597241Y-88532228D01*
X163597238Y-88532232D01*
X163582826Y-88565537D01*
X163577609Y-88576187D01*
X163556305Y-88614940D01*
X163554334Y-88622615D01*
X163554334Y-88622616D01*
X163551267Y-88634562D01*
X163544863Y-88653266D01*
X163536819Y-88671855D01*
X163535580Y-88679678D01*
X163535577Y-88679688D01*
X163529901Y-88715524D01*
X163527495Y-88727144D01*
X163516500Y-88769970D01*
X163516500Y-88790224D01*
X163514949Y-88809934D01*
X163511780Y-88829943D01*
X163512526Y-88837835D01*
X163515941Y-88873961D01*
X163516500Y-88885819D01*
X163516500Y-95515500D01*
X163496498Y-95583621D01*
X163442842Y-95630114D01*
X163390500Y-95641500D01*
X163251866Y-95641500D01*
X163189684Y-95648255D01*
X163053295Y-95699385D01*
X162936739Y-95786739D01*
X162849385Y-95903295D01*
X162798255Y-96039684D01*
X162791500Y-96101866D01*
X162791500Y-97898134D01*
X162798255Y-97960316D01*
X162849385Y-98096705D01*
X162936739Y-98213261D01*
X162943919Y-98218642D01*
X162943920Y-98218643D01*
X163005339Y-98264674D01*
X163047854Y-98321533D01*
X163052880Y-98392352D01*
X163018820Y-98454645D01*
X162956489Y-98488635D01*
X162929774Y-98491500D01*
X161322859Y-98491500D01*
X161254738Y-98471498D01*
X161208245Y-98417842D01*
X161198141Y-98347568D01*
X161231084Y-98279167D01*
X161233683Y-98276405D01*
X161390443Y-98109763D01*
X161499569Y-97952460D01*
X161536759Y-97898851D01*
X161536761Y-97898848D01*
X161539424Y-97895009D01*
X161561284Y-97850682D01*
X161652960Y-97664781D01*
X161652961Y-97664778D01*
X161655025Y-97660593D01*
X161731962Y-97420242D01*
X161733280Y-97416123D01*
X161734707Y-97411665D01*
X161776721Y-97153693D01*
X161780142Y-96892345D01*
X161744896Y-96633362D01*
X161730473Y-96583877D01*
X161673068Y-96386932D01*
X161671757Y-96382433D01*
X161659498Y-96355840D01*
X161575030Y-96172617D01*
X161562332Y-96145072D01*
X161511500Y-96067540D01*
X161421590Y-95930404D01*
X161421586Y-95930399D01*
X161419024Y-95926491D01*
X161244982Y-95731494D01*
X161044030Y-95564363D01*
X160963506Y-95515500D01*
X160824578Y-95431196D01*
X160824574Y-95431194D01*
X160820581Y-95428771D01*
X160579545Y-95327697D01*
X160326217Y-95263359D01*
X160321566Y-95262891D01*
X160321562Y-95262890D01*
X160112271Y-95241816D01*
X160109133Y-95241500D01*
X159953646Y-95241500D01*
X159951321Y-95241673D01*
X159951315Y-95241673D01*
X159764000Y-95255593D01*
X159763996Y-95255594D01*
X159759348Y-95255939D01*
X159754800Y-95256968D01*
X159754794Y-95256969D01*
X159568399Y-95299147D01*
X159504423Y-95313623D01*
X159500071Y-95315315D01*
X159500069Y-95315316D01*
X159265176Y-95406660D01*
X159265173Y-95406661D01*
X159260823Y-95408353D01*
X159033902Y-95538049D01*
X158828643Y-95699862D01*
X158739211Y-95794932D01*
X158726275Y-95808683D01*
X158665031Y-95844595D01*
X158594094Y-95841695D01*
X158535985Y-95800904D01*
X158509154Y-95735173D01*
X158508500Y-95722350D01*
X158508500Y-77300292D01*
X158528502Y-77232171D01*
X158582158Y-77185678D01*
X158652432Y-77175574D01*
X158717012Y-77205068D01*
X158728499Y-77216386D01*
X158775018Y-77268506D01*
X158975970Y-77435637D01*
X158979973Y-77438066D01*
X159195422Y-77568804D01*
X159195426Y-77568806D01*
X159199419Y-77571229D01*
X159440455Y-77672303D01*
X159693783Y-77736641D01*
X159698434Y-77737109D01*
X159698438Y-77737110D01*
X159891308Y-77756531D01*
X159910867Y-77758500D01*
X160066354Y-77758500D01*
X160068679Y-77758327D01*
X160068685Y-77758327D01*
X160256000Y-77744407D01*
X160256004Y-77744406D01*
X160260652Y-77744061D01*
X160265200Y-77743032D01*
X160265206Y-77743031D01*
X160451601Y-77700853D01*
X160515577Y-77686377D01*
X160551769Y-77672303D01*
X160754824Y-77593340D01*
X160754827Y-77593339D01*
X160759177Y-77591647D01*
X160986098Y-77461951D01*
X161191357Y-77300138D01*
X161370443Y-77109763D01*
X161519424Y-76895009D01*
X161635025Y-76660593D01*
X161664471Y-76568605D01*
X161713280Y-76416123D01*
X161714707Y-76411665D01*
X161756721Y-76153693D01*
X161760142Y-75892345D01*
X161724896Y-75633362D01*
X161710473Y-75583877D01*
X161653068Y-75386932D01*
X161651757Y-75382433D01*
X161542332Y-75145072D01*
X161489663Y-75064739D01*
X161401590Y-74930404D01*
X161401586Y-74930399D01*
X161399024Y-74926491D01*
X161224982Y-74731494D01*
X161221389Y-74728506D01*
X161218022Y-74725254D01*
X161219600Y-74723620D01*
X161185218Y-74672320D01*
X161183851Y-74601337D01*
X161221077Y-74540882D01*
X161285078Y-74510151D01*
X161305408Y-74508500D01*
X179697141Y-74508500D01*
X179765262Y-74528502D01*
G37*
%TD.AperFunction*%
%TA.AperFunction,Conductor*%
G36*
X172734526Y-77653502D02*
G01*
X172781019Y-77707158D01*
X172791123Y-77777432D01*
X172761629Y-77842012D01*
X172755500Y-77848595D01*
X170107747Y-80496348D01*
X170099461Y-80503888D01*
X170092982Y-80508000D01*
X170087557Y-80513777D01*
X170046357Y-80557651D01*
X170043602Y-80560493D01*
X170023865Y-80580230D01*
X170021385Y-80583427D01*
X170013682Y-80592447D01*
X169983414Y-80624679D01*
X169979595Y-80631625D01*
X169979593Y-80631628D01*
X169973652Y-80642434D01*
X169962801Y-80658953D01*
X169950386Y-80674959D01*
X169947241Y-80682228D01*
X169947238Y-80682232D01*
X169932826Y-80715537D01*
X169927609Y-80726187D01*
X169906305Y-80764940D01*
X169904334Y-80772615D01*
X169904334Y-80772616D01*
X169901267Y-80784562D01*
X169894863Y-80803266D01*
X169886819Y-80821855D01*
X169885580Y-80829678D01*
X169885577Y-80829688D01*
X169879901Y-80865524D01*
X169877495Y-80877144D01*
X169866500Y-80919970D01*
X169866500Y-80940224D01*
X169864949Y-80959934D01*
X169861780Y-80979943D01*
X169862526Y-80987835D01*
X169865941Y-81023961D01*
X169866500Y-81035819D01*
X169866500Y-81419618D01*
X169846498Y-81487739D01*
X169792842Y-81534232D01*
X169784731Y-81537599D01*
X169761707Y-81546231D01*
X169761704Y-81546232D01*
X169753295Y-81549385D01*
X169636739Y-81636739D01*
X169549385Y-81753295D01*
X169498255Y-81889684D01*
X169491500Y-81951866D01*
X169491500Y-82791405D01*
X169471498Y-82859526D01*
X169417842Y-82906019D01*
X169347568Y-82916123D01*
X169282988Y-82886629D01*
X169276404Y-82880500D01*
X169024349Y-82628444D01*
X168670404Y-82274499D01*
X168636379Y-82212187D01*
X168633500Y-82185404D01*
X168633500Y-79314594D01*
X168653502Y-79246473D01*
X168670405Y-79225499D01*
X168950499Y-78945405D01*
X169012811Y-78911379D01*
X169039594Y-78908500D01*
X169095487Y-78908500D01*
X169101939Y-78907128D01*
X169101944Y-78907128D01*
X169188887Y-78888647D01*
X169282288Y-78868794D01*
X169288319Y-78866109D01*
X169450722Y-78793803D01*
X169450724Y-78793802D01*
X169456752Y-78791118D01*
X169611253Y-78678866D01*
X169739040Y-78536944D01*
X169834527Y-78371556D01*
X169893542Y-78189928D01*
X169913504Y-78000000D01*
X169893542Y-77810072D01*
X169891503Y-77803797D01*
X169891502Y-77803792D01*
X169889762Y-77798438D01*
X169887733Y-77727471D01*
X169924394Y-77666672D01*
X169988106Y-77635346D01*
X170009594Y-77633500D01*
X172666405Y-77633500D01*
X172734526Y-77653502D01*
G37*
%TD.AperFunction*%
%TA.AperFunction,Conductor*%
G36*
X174044032Y-78456038D02*
G01*
X174089095Y-78484999D01*
X175627364Y-80023268D01*
X175661390Y-80085580D01*
X175656325Y-80156395D01*
X175613778Y-80213231D01*
X175547258Y-80238042D01*
X175477884Y-80222951D01*
X175464209Y-80214300D01*
X175462738Y-80213231D01*
X175456752Y-80208882D01*
X175450724Y-80206198D01*
X175450722Y-80206197D01*
X175288319Y-80133891D01*
X175288318Y-80133891D01*
X175282288Y-80131206D01*
X175176115Y-80108638D01*
X175101944Y-80092872D01*
X175101939Y-80092872D01*
X175095487Y-80091500D01*
X174904513Y-80091500D01*
X174898061Y-80092872D01*
X174898056Y-80092872D01*
X174823885Y-80108638D01*
X174717712Y-80131206D01*
X174711682Y-80133891D01*
X174711681Y-80133891D01*
X174549278Y-80206197D01*
X174549276Y-80206198D01*
X174543248Y-80208882D01*
X174388747Y-80321134D01*
X174384333Y-80326036D01*
X174384332Y-80326037D01*
X174350359Y-80363768D01*
X174303122Y-80396603D01*
X174300102Y-80397799D01*
X174288863Y-80401647D01*
X174254021Y-80411769D01*
X174254015Y-80411772D01*
X174246407Y-80413982D01*
X174239585Y-80418016D01*
X174239579Y-80418019D01*
X174228968Y-80424294D01*
X174211218Y-80432990D01*
X174199756Y-80437528D01*
X174199751Y-80437531D01*
X174192383Y-80440448D01*
X174185968Y-80445109D01*
X174156625Y-80466427D01*
X174146707Y-80472943D01*
X174128019Y-80483995D01*
X174108637Y-80495458D01*
X174094313Y-80509782D01*
X174079281Y-80522621D01*
X174062893Y-80534528D01*
X174043764Y-80557651D01*
X174034712Y-80568593D01*
X174026722Y-80577373D01*
X171723595Y-82880500D01*
X171661283Y-82914526D01*
X171590468Y-82909461D01*
X171533632Y-82866914D01*
X171508821Y-82800394D01*
X171508500Y-82791405D01*
X171508500Y-81951866D01*
X171501745Y-81889684D01*
X171450615Y-81753295D01*
X171363261Y-81636739D01*
X171246705Y-81549385D01*
X171238296Y-81546232D01*
X171238293Y-81546231D01*
X171215269Y-81537599D01*
X171158505Y-81494957D01*
X171133806Y-81428395D01*
X171133500Y-81419618D01*
X171133500Y-81314594D01*
X171153502Y-81246473D01*
X171170405Y-81225499D01*
X173910905Y-78484999D01*
X173973217Y-78450973D01*
X174044032Y-78456038D01*
G37*
%TD.AperFunction*%
%TD*%
M02*
