M48
; DRILL file {KiCad (6.0.5)} date Sun Jul 17 01:21:50 2022
; FORMAT={-:-/ absolute / inch / decimal}
; #@! TF.CreationDate,2022-07-17T01:21:50-05:00
; #@! TF.GenerationSoftware,Kicad,Pcbnew,(6.0.5)
; #@! TF.FileFunction,Plated,1,2,PTH
FMAT,2
INCH
; #@! TA.AperFunction,Plated,PTH,ViaDrill
T1C0.0157
; #@! TA.AperFunction,Plated,PTH,ComponentDrill
T2C0.0394
%
G90
G05
T1
X6.4178Y-3.1234
X6.4711Y-3.1134
X6.4711Y-3.2034
X6.4711Y-3.3034
X6.4811Y-3.0434
X6.6111Y-3.1334
X6.6711Y-3.3334
X6.672Y-3.1221
X6.7011Y-3.2634
X6.7011Y-3.3034
X6.7114Y-3.1221
X6.7911Y-3.1234
X6.7911Y-3.2034
X6.8411Y-3.074
X6.9211Y-3.0734
X7.0111Y-3.2334
X7.0111Y-3.3134
T2
X6.4811Y-3.4534
X6.5811Y-3.4534
X6.6811Y-3.4534
X6.7811Y-3.4534
X6.8811Y-3.4534
X6.9811Y-3.4534
T0
M30
