%TF.GenerationSoftware,KiCad,Pcbnew,(6.0.5)*%
%TF.CreationDate,2022-07-17T01:21:54-05:00*%
%TF.ProjectId,ADS1219,41445331-3231-4392-9e6b-696361645f70,4*%
%TF.SameCoordinates,Original*%
%TF.FileFunction,Copper,L1,Top*%
%TF.FilePolarity,Positive*%
%FSLAX46Y46*%
G04 Gerber Fmt 4.6, Leading zero omitted, Abs format (unit mm)*
G04 Created by KiCad (PCBNEW (6.0.5)) date 2022-07-17 01:21:54*
%MOMM*%
%LPD*%
G01*
G04 APERTURE LIST*
G04 Aperture macros list*
%AMRoundRect*
0 Rectangle with rounded corners*
0 $1 Rounding radius*
0 $2 $3 $4 $5 $6 $7 $8 $9 X,Y pos of 4 corners*
0 Add a 4 corners polygon primitive as box body*
4,1,4,$2,$3,$4,$5,$6,$7,$8,$9,$2,$3,0*
0 Add four circle primitives for the rounded corners*
1,1,$1+$1,$2,$3*
1,1,$1+$1,$4,$5*
1,1,$1+$1,$6,$7*
1,1,$1+$1,$8,$9*
0 Add four rect primitives between the rounded corners*
20,1,$1+$1,$2,$3,$4,$5,0*
20,1,$1+$1,$4,$5,$6,$7,0*
20,1,$1+$1,$6,$7,$8,$9,0*
20,1,$1+$1,$8,$9,$2,$3,0*%
%AMFreePoly0*
4,1,6,0.500000,-0.750000,-0.650000,-0.750000,-0.150000,0.000000,-0.650000,0.750000,0.500000,0.750000,0.500000,-0.750000,0.500000,-0.750000,$1*%
%AMFreePoly1*
4,1,6,1.000000,0.000000,0.500000,-0.750000,-0.500000,-0.750000,-0.500000,0.750000,0.500000,0.750000,1.000000,0.000000,1.000000,0.000000,$1*%
G04 Aperture macros list end*
%TA.AperFunction,SMDPad,CuDef*%
%ADD10RoundRect,0.250000X0.350000X0.650000X-0.350000X0.650000X-0.350000X-0.650000X0.350000X-0.650000X0*%
%TD*%
%TA.AperFunction,SMDPad,CuDef*%
%ADD11RoundRect,0.150000X0.150000X0.625000X-0.150000X0.625000X-0.150000X-0.625000X0.150000X-0.625000X0*%
%TD*%
%TA.AperFunction,SMDPad,CuDef*%
%ADD12O,1.400000X0.449999*%
%TD*%
%TA.AperFunction,SMDPad,CuDef*%
%ADD13FreePoly0,180.000000*%
%TD*%
%TA.AperFunction,SMDPad,CuDef*%
%ADD14FreePoly1,180.000000*%
%TD*%
%TA.AperFunction,SMDPad,CuDef*%
%ADD15RoundRect,0.250000X0.350000X0.450000X-0.350000X0.450000X-0.350000X-0.450000X0.350000X-0.450000X0*%
%TD*%
%TA.AperFunction,SMDPad,CuDef*%
%ADD16RoundRect,0.250000X0.337500X0.475000X-0.337500X0.475000X-0.337500X-0.475000X0.337500X-0.475000X0*%
%TD*%
%TA.AperFunction,ComponentPad*%
%ADD17O,1.700000X1.700000*%
%TD*%
%TA.AperFunction,ComponentPad*%
%ADD18C,1.700000*%
%TD*%
%TA.AperFunction,SMDPad,CuDef*%
%ADD19RoundRect,0.250000X-0.337500X-0.475000X0.337500X-0.475000X0.337500X0.475000X-0.337500X0.475000X0*%
%TD*%
%TA.AperFunction,ViaPad*%
%ADD20C,0.800000*%
%TD*%
%TA.AperFunction,Conductor*%
%ADD21C,0.250000*%
%TD*%
G04 APERTURE END LIST*
D10*
%TO.P,J1,MP*%
%TO.N,N/C*%
X173770000Y-75427000D03*
X168170000Y-75427000D03*
D11*
%TO.P,J1,4,Pin_4*%
%TO.N,/SCL*%
X169470000Y-79302000D03*
%TO.P,J1,3,Pin_3*%
%TO.N,/SDA*%
X170470000Y-79302000D03*
%TO.P,J1,2,Pin_2*%
%TO.N,+3V3*%
X171470000Y-79302000D03*
%TO.P,J1,1,Pin_1*%
%TO.N,GND*%
X172470000Y-79302000D03*
%TD*%
D12*
%TO.P,U1,1,A0*%
%TO.N,/A0*%
X168020016Y-80742001D03*
%TO.P,U1,2,A1*%
%TO.N,/A1*%
X168020016Y-81392002D03*
%TO.P,U1,3,RESET_N*%
%TO.N,+3V3*%
X168020016Y-82042001D03*
%TO.P,U1,4,DGND*%
%TO.N,GND*%
X168020016Y-82692002D03*
%TO.P,U1,5,AVSS*%
X168020016Y-83342001D03*
%TO.P,U1,6,AIN3*%
%TO.N,/AIN3*%
X168020016Y-83992002D03*
%TO.P,U1,7,AIN2*%
%TO.N,/AIN2*%
X168020016Y-84642001D03*
%TO.P,U1,8,REFN*%
%TO.N,unconnected-(U1-Pad8)*%
X168020016Y-85292002D03*
%TO.P,U1,9,REFP*%
%TO.N,unconnected-(U1-Pad9)*%
X173920017Y-85292002D03*
%TO.P,U1,10,AIN1*%
%TO.N,/AIN1*%
X173920017Y-84642001D03*
%TO.P,U1,11,AIN0*%
%TO.N,/AIN0*%
X173920017Y-83992002D03*
%TO.P,U1,12,AVDD*%
%TO.N,+3V3*%
X173920017Y-83342001D03*
%TO.P,U1,13,DVDD*%
X173920017Y-82692002D03*
%TO.P,U1,14,DRDY_N*%
%TO.N,Net-(R2-Pad2)*%
X173920017Y-82042001D03*
%TO.P,U1,15,SDA*%
%TO.N,/SDA*%
X173920017Y-81392002D03*
%TO.P,U1,16,SCL*%
%TO.N,/SCL*%
X173920017Y-80742001D03*
%TD*%
D13*
%TO.P,JP3,2,B*%
%TO.N,/SDA*%
X164657000Y-81874000D03*
D14*
%TO.P,JP3,1,A*%
%TO.N,/A1*%
X166107000Y-81874000D03*
%TD*%
D15*
%TO.P,R3,2*%
%TO.N,/SCL*%
X175812000Y-76032000D03*
%TO.P,R3,1*%
%TO.N,+3V3*%
X177812000Y-76032000D03*
%TD*%
D13*
%TO.P,JP1,2,B*%
%TO.N,GND*%
X164657000Y-76794000D03*
D14*
%TO.P,JP1,1,A*%
%TO.N,/A1*%
X166107000Y-76794000D03*
%TD*%
D16*
%TO.P,C1,2*%
%TO.N,+3V3*%
X175774500Y-82128000D03*
%TO.P,C1,1*%
%TO.N,GND*%
X177849500Y-82128000D03*
%TD*%
D15*
%TO.P,R2,2*%
%TO.N,Net-(R2-Pad2)*%
X175812000Y-80096000D03*
%TO.P,R2,1*%
%TO.N,+3V3*%
X177812000Y-80096000D03*
%TD*%
%TO.P,R1,2*%
%TO.N,/SDA*%
X175812000Y-78064000D03*
%TO.P,R1,1*%
%TO.N,+3V3*%
X177812000Y-78064000D03*
%TD*%
D17*
%TO.P,J2,6,Pin_6*%
%TO.N,GND*%
X177320000Y-87716000D03*
%TO.P,J2,5,Pin_5*%
%TO.N,+3V3*%
X174780000Y-87716000D03*
%TO.P,J2,4,Pin_4*%
%TO.N,/AIN3*%
X172240000Y-87716000D03*
%TO.P,J2,3,Pin_3*%
%TO.N,/AIN2*%
X169700000Y-87716000D03*
%TO.P,J2,2,Pin_2*%
%TO.N,/AIN1*%
X167160000Y-87716000D03*
D18*
%TO.P,J2,1,Pin_1*%
%TO.N,/AIN0*%
X164620000Y-87716000D03*
%TD*%
D13*
%TO.P,JP4,2,B*%
%TO.N,/SCL*%
X164657000Y-84414000D03*
D14*
%TO.P,JP4,1,A*%
%TO.N,/A1*%
X166107000Y-84414000D03*
%TD*%
D13*
%TO.P,JP2,2,B*%
%TO.N,+3V3*%
X164657000Y-79334000D03*
D14*
%TO.P,JP2,1,A*%
%TO.N,/A1*%
X166107000Y-79334000D03*
%TD*%
D19*
%TO.P,C2,2*%
%TO.N,GND*%
X177849500Y-84160000D03*
%TO.P,C2,1*%
%TO.N,+3V3*%
X175774500Y-84160000D03*
%TD*%
D20*
%TO.N,+3V3*%
X163012189Y-79334000D03*
%TO.N,GND*%
X170208000Y-82890000D03*
%TO.N,/SCL*%
X169470000Y-79302000D03*
X173764000Y-78080000D03*
%TO.N,/SDA*%
X170470000Y-79302000D03*
%TO.N,GND*%
X178082000Y-84160000D03*
X178082000Y-82128000D03*
X172494000Y-79334000D03*
%TO.N,/SDA*%
X172494000Y-81366000D03*
X175796000Y-78064000D03*
X164366000Y-81366000D03*
%TO.N,/SCL*%
X164366000Y-83906000D03*
%TO.N,+3V3*%
X164366000Y-79080000D03*
%TO.N,GND*%
X164620000Y-77302000D03*
%TO.N,/AIN2*%
X169446000Y-84668000D03*
%TO.N,/AIN3*%
X170208000Y-83906000D03*
%TO.N,/A0*%
X167922000Y-79588000D03*
%TD*%
D21*
%TO.N,+3V3*%
X163012189Y-87701883D02*
X163012189Y-79334000D01*
X164153217Y-88842911D02*
X163012189Y-87701883D01*
X173653089Y-88842911D02*
X164153217Y-88842911D01*
X174780000Y-87716000D02*
X173653089Y-88842911D01*
%TO.N,/AIN1*%
X167160000Y-86700000D02*
X167160000Y-87716000D01*
X167664159Y-86195841D02*
X167160000Y-86700000D01*
X169502559Y-86195841D02*
X167664159Y-86195841D01*
X171056399Y-84642001D02*
X169502559Y-86195841D01*
X173920017Y-84642001D02*
X171056399Y-84642001D01*
%TO.N,/AIN0*%
X166542079Y-85793921D02*
X164620000Y-87716000D01*
X169336079Y-85793921D02*
X166542079Y-85793921D01*
X171137998Y-83992002D02*
X169336079Y-85793921D01*
X173920017Y-83992002D02*
X171137998Y-83992002D01*
%TO.N,/SDA*%
X170470000Y-79302000D02*
X170470000Y-78580000D01*
X164285376Y-75524000D02*
X163689089Y-76120287D01*
X168493920Y-76603920D02*
X167601743Y-76603920D01*
X170470000Y-78580000D02*
X168493920Y-76603920D01*
X163689089Y-80689089D02*
X164366000Y-81366000D01*
X167601743Y-76603920D02*
X166521823Y-75524000D01*
X163689089Y-76120287D02*
X163689089Y-80689089D01*
X166521823Y-75524000D02*
X164285376Y-75524000D01*
%TO.N,GND*%
X170208000Y-82694702D02*
X170208000Y-82890000D01*
X172494000Y-80408702D02*
X170208000Y-82694702D01*
X172494000Y-79334000D02*
X172494000Y-80408702D01*
%TO.N,/SDA*%
X173894015Y-81366000D02*
X173920017Y-81392002D01*
X172494000Y-81366000D02*
X173894015Y-81366000D01*
%TO.N,GND*%
X170010002Y-82692002D02*
X170208000Y-82890000D01*
X168020016Y-82692002D02*
X170010002Y-82692002D01*
%TO.N,+3V3*%
X171470000Y-79302000D02*
X171470000Y-79680756D01*
X177812000Y-80096000D02*
X177806500Y-80096000D01*
X176796000Y-75016000D02*
X177812000Y-76032000D01*
X174935080Y-75363743D02*
X175282823Y-75016000D01*
X173789324Y-76603920D02*
X174338257Y-76603920D01*
X171470000Y-79302000D02*
X171470000Y-78923244D01*
%TO.N,/A1*%
X166107000Y-77905250D02*
X166107000Y-78222750D01*
X166107000Y-80255558D02*
X166107000Y-80186060D01*
X166107000Y-79504412D02*
X166107000Y-79845236D01*
X166107000Y-80487852D02*
X166107000Y-80720146D01*
X166107000Y-80720146D02*
X166107000Y-80952440D01*
X166107000Y-79163588D02*
X166107000Y-79504412D01*
X166107000Y-77587750D02*
X166107000Y-77905250D01*
X166107000Y-77071812D02*
X166107000Y-77151187D01*
X166107000Y-81271844D02*
X166107000Y-81329917D01*
X166107000Y-76992437D02*
X166107000Y-76913062D01*
X166107000Y-81387990D02*
X166107000Y-81446064D01*
X166107000Y-81329917D02*
X166107000Y-81387990D01*
X166107000Y-76992437D02*
X166107000Y-77071812D01*
X166107000Y-78540250D02*
X166107000Y-78822764D01*
%TO.N,GND*%
X168020016Y-82692002D02*
X168020016Y-83342001D01*
%TO.N,+3V3*%
X169108755Y-82042001D02*
X168020016Y-82042001D01*
X171470000Y-79680756D02*
X169108755Y-82042001D01*
X175774500Y-82128000D02*
X175774500Y-84160000D01*
X177806500Y-80096000D02*
X175774500Y-82128000D01*
X177812000Y-78064000D02*
X177812000Y-80096000D01*
X177812000Y-76032000D02*
X177812000Y-78064000D01*
X175282823Y-75016000D02*
X176796000Y-75016000D01*
X174935080Y-76007097D02*
X174935080Y-75363743D01*
X171470000Y-78923244D02*
X173789324Y-76603920D01*
X174338257Y-76603920D02*
X174935080Y-76007097D01*
%TO.N,/SDA*%
X175812000Y-78064000D02*
X175796000Y-78064000D01*
%TO.N,/SCL*%
X173764000Y-80604000D02*
X173902001Y-80742001D01*
X173764000Y-78080000D02*
X173764000Y-80604000D01*
X175812000Y-76032000D02*
X173764000Y-78080000D01*
X173902001Y-80742001D02*
X173920017Y-80742001D01*
%TO.N,+3V3*%
X175774500Y-82130750D02*
X175774500Y-83581587D01*
X175277250Y-87218750D02*
X174780000Y-87716000D01*
X174438259Y-83342001D02*
X173920017Y-83342001D01*
X174811688Y-82692002D02*
X173920017Y-82692002D01*
X175365500Y-83751000D02*
X175322953Y-83708453D01*
X175774500Y-86018282D02*
X175774500Y-84738412D01*
X175774500Y-84738412D02*
X175774500Y-83581587D01*
X175772555Y-82129944D02*
X175492498Y-82410000D01*
X175365504Y-83750996D02*
G75*
G02*
X175774500Y-84738412I-987404J-987404D01*
G01*
X175774467Y-83581587D02*
G75*
G02*
X175365501Y-83750999I-239567J-13D01*
G01*
X175322964Y-83708442D02*
G75*
G03*
X174438259Y-83342001I-884664J-884658D01*
G01*
X175277255Y-87218755D02*
G75*
G03*
X175774500Y-86018282I-1200455J1200455D01*
G01*
X174811688Y-82691995D02*
G75*
G03*
X175492498Y-82410000I12J962795D01*
G01*
X175772539Y-82129928D02*
G75*
G02*
X175777250Y-82128000I4661J-4672D01*
G01*
X175774500Y-82130750D02*
G75*
G02*
X175777250Y-82128000I2700J50D01*
G01*
X175774532Y-82130751D02*
G75*
G03*
X175772556Y-82129945I-1132J51D01*
G01*
%TO.N,/AIN2*%
X169446000Y-84668000D02*
X168064399Y-84668000D01*
X168033015Y-84655000D02*
X168020016Y-84642001D01*
X168033012Y-84655003D02*
G75*
G03*
X168064399Y-84668000I31388J31403D01*
G01*
%TO.N,/AIN3*%
X168166830Y-83906000D02*
X170208000Y-83906000D01*
X168063017Y-83949001D02*
X168020016Y-83992002D01*
X168063005Y-83948989D02*
G75*
G02*
X168166830Y-83906000I103795J-103811D01*
G01*
%TO.N,Net-(R2-Pad2)*%
X174910080Y-81499929D02*
X174910080Y-81973609D01*
X175265053Y-80642946D02*
X175812000Y-80096000D01*
X174841688Y-82042001D02*
X173920017Y-82042001D01*
X174910089Y-81499929D02*
G75*
G02*
X175265053Y-80642946I1211911J29D01*
G01*
X174841688Y-82041989D02*
G75*
G03*
X174890048Y-82021969I12J68389D01*
G01*
X174910089Y-81973609D02*
G75*
G02*
X174890048Y-82021969I-68389J9D01*
G01*
%TO.N,/A1*%
X166107000Y-82214824D02*
X166107000Y-84414000D01*
X166107000Y-81533175D02*
X166107000Y-82214824D01*
X166107000Y-78222750D02*
X166107000Y-78540250D01*
X166107000Y-79845236D02*
X166107000Y-80186060D01*
X166107000Y-77151187D02*
X166107000Y-77270250D01*
X166107000Y-76833687D02*
X166107000Y-76913062D01*
X166107000Y-81533175D02*
X166107000Y-81504138D01*
X166107000Y-81271844D02*
X166107000Y-81184734D01*
X166107000Y-80255558D02*
X166107000Y-80487852D01*
X166929822Y-81392002D02*
X168020016Y-81392002D01*
X166107000Y-81446064D02*
X166107000Y-81504138D01*
X166107000Y-78822764D02*
X166107000Y-79163588D01*
X166107000Y-80952440D02*
X166107000Y-81184734D01*
X166107000Y-77270250D02*
X166107000Y-77587750D01*
X166107000Y-76833687D02*
X166107000Y-76794000D01*
X166929822Y-81392011D02*
G75*
G03*
X166347999Y-81633001I-22J-822789D01*
G01*
X166107011Y-82214824D02*
G75*
G02*
X166347999Y-81633001I822789J24D01*
G01*
X166348042Y-81633044D02*
G75*
G02*
X166107000Y-81533175I-99842J99844D01*
G01*
%TO.N,/A0*%
X167922000Y-79588000D02*
X167971008Y-79637008D01*
X168020016Y-79755323D02*
X168020016Y-80742001D01*
X167971018Y-79636998D02*
G75*
G02*
X168020016Y-79755323I-118318J-118302D01*
G01*
%TD*%
%TA.AperFunction,Conductor*%
%TO.N,GND*%
G36*
X184627621Y-74528502D02*
G01*
X184674114Y-74582158D01*
X184685500Y-74634500D01*
X184685500Y-88605500D01*
X184665498Y-88673621D01*
X184611842Y-88720114D01*
X184559500Y-88731500D01*
X178508315Y-88731500D01*
X178440194Y-88711498D01*
X178393701Y-88657842D01*
X178383597Y-88587568D01*
X178405993Y-88531974D01*
X178485004Y-88422020D01*
X178490313Y-88413183D01*
X178584670Y-88222267D01*
X178588469Y-88212672D01*
X178650377Y-88008910D01*
X178652555Y-87998837D01*
X178653986Y-87987962D01*
X178651775Y-87973778D01*
X178638617Y-87970000D01*
X177192000Y-87970000D01*
X177123879Y-87949998D01*
X177077386Y-87896342D01*
X177066000Y-87844000D01*
X177066000Y-87443885D01*
X177574000Y-87443885D01*
X177578475Y-87459124D01*
X177579865Y-87460329D01*
X177587548Y-87462000D01*
X178638344Y-87462000D01*
X178651875Y-87458027D01*
X178653180Y-87448947D01*
X178611214Y-87281875D01*
X178607894Y-87272124D01*
X178522972Y-87076814D01*
X178518105Y-87067739D01*
X178402426Y-86888926D01*
X178396136Y-86880757D01*
X178252806Y-86723240D01*
X178245273Y-86716215D01*
X178078139Y-86584222D01*
X178069552Y-86578517D01*
X177883117Y-86475599D01*
X177873705Y-86471369D01*
X177672959Y-86400280D01*
X177662988Y-86397646D01*
X177591837Y-86384972D01*
X177578540Y-86386432D01*
X177574000Y-86400989D01*
X177574000Y-87443885D01*
X177066000Y-87443885D01*
X177066000Y-86399102D01*
X177062082Y-86385758D01*
X177047806Y-86383771D01*
X177009324Y-86389660D01*
X176999288Y-86392051D01*
X176796868Y-86458212D01*
X176787359Y-86462209D01*
X176598463Y-86560542D01*
X176589745Y-86566032D01*
X176565882Y-86583949D01*
X176499397Y-86608855D01*
X176430001Y-86593863D01*
X176379727Y-86543733D01*
X176364536Y-86474380D01*
X176366008Y-86462085D01*
X176396401Y-86283192D01*
X176396994Y-86279702D01*
X176406949Y-86102406D01*
X176408678Y-86102503D01*
X176408159Y-86098312D01*
X176408000Y-86098312D01*
X176408000Y-86087224D01*
X176408198Y-86080159D01*
X176409585Y-86055462D01*
X176410644Y-86044776D01*
X176411932Y-86035728D01*
X176411933Y-86035714D01*
X176412513Y-86031639D01*
X176412584Y-86024831D01*
X176412610Y-86022409D01*
X176412610Y-86022404D01*
X176412653Y-86018275D01*
X176408913Y-85987373D01*
X176408000Y-85972234D01*
X176408000Y-85414046D01*
X176428002Y-85345925D01*
X176467697Y-85306902D01*
X176580120Y-85237332D01*
X176586348Y-85233478D01*
X176711305Y-85108303D01*
X176714102Y-85103765D01*
X176771353Y-85063176D01*
X176842276Y-85059946D01*
X176903687Y-85095572D01*
X176911062Y-85104068D01*
X176919098Y-85114207D01*
X177033829Y-85228739D01*
X177045240Y-85237751D01*
X177183243Y-85322816D01*
X177196424Y-85328963D01*
X177350710Y-85380138D01*
X177364086Y-85383005D01*
X177458438Y-85392672D01*
X177464854Y-85393000D01*
X177577385Y-85393000D01*
X177592624Y-85388525D01*
X177593829Y-85387135D01*
X177595500Y-85379452D01*
X177595500Y-85374884D01*
X178103500Y-85374884D01*
X178107975Y-85390123D01*
X178109365Y-85391328D01*
X178117048Y-85392999D01*
X178234095Y-85392999D01*
X178240614Y-85392662D01*
X178336206Y-85382743D01*
X178349600Y-85379851D01*
X178503784Y-85328412D01*
X178516962Y-85322239D01*
X178654807Y-85236937D01*
X178666208Y-85227901D01*
X178780739Y-85113171D01*
X178789751Y-85101760D01*
X178874816Y-84963757D01*
X178880963Y-84950576D01*
X178932138Y-84796290D01*
X178935005Y-84782914D01*
X178944672Y-84688562D01*
X178945000Y-84682146D01*
X178945000Y-84432115D01*
X178940525Y-84416876D01*
X178939135Y-84415671D01*
X178931452Y-84414000D01*
X178121615Y-84414000D01*
X178106376Y-84418475D01*
X178105171Y-84419865D01*
X178103500Y-84427548D01*
X178103500Y-85374884D01*
X177595500Y-85374884D01*
X177595500Y-83887885D01*
X178103500Y-83887885D01*
X178107975Y-83903124D01*
X178109365Y-83904329D01*
X178117048Y-83906000D01*
X178926884Y-83906000D01*
X178942123Y-83901525D01*
X178943328Y-83900135D01*
X178944999Y-83892452D01*
X178944999Y-83637905D01*
X178944662Y-83631386D01*
X178934743Y-83535794D01*
X178931851Y-83522400D01*
X178880412Y-83368216D01*
X178874239Y-83355038D01*
X178785083Y-83210965D01*
X178787714Y-83209337D01*
X178766304Y-83156418D01*
X178779485Y-83086656D01*
X178786208Y-83076175D01*
X178785910Y-83075991D01*
X178874816Y-82931757D01*
X178880963Y-82918576D01*
X178932138Y-82764290D01*
X178935005Y-82750914D01*
X178944672Y-82656562D01*
X178945000Y-82650146D01*
X178945000Y-82400115D01*
X178940525Y-82384876D01*
X178939135Y-82383671D01*
X178931452Y-82382000D01*
X178121615Y-82382000D01*
X178106376Y-82386475D01*
X178105171Y-82387865D01*
X178103500Y-82395548D01*
X178103500Y-83887885D01*
X177595500Y-83887885D01*
X177595500Y-82000000D01*
X177615502Y-81931879D01*
X177669158Y-81885386D01*
X177721500Y-81874000D01*
X178926884Y-81874000D01*
X178942123Y-81869525D01*
X178943328Y-81868135D01*
X178944999Y-81860452D01*
X178944999Y-81605905D01*
X178944662Y-81599386D01*
X178934743Y-81503794D01*
X178931851Y-81490400D01*
X178880412Y-81336216D01*
X178874239Y-81323038D01*
X178788937Y-81185193D01*
X178775354Y-81168055D01*
X178776363Y-81167255D01*
X178745908Y-81111597D01*
X178750910Y-81040777D01*
X178761745Y-81018589D01*
X178850275Y-80874968D01*
X178850276Y-80874966D01*
X178854115Y-80868738D01*
X178909797Y-80700861D01*
X178911204Y-80687134D01*
X178916716Y-80633335D01*
X178920500Y-80596400D01*
X178920500Y-79595600D01*
X178909526Y-79489834D01*
X178853550Y-79322054D01*
X178760478Y-79171652D01*
X178755296Y-79166479D01*
X178750749Y-79160742D01*
X178752551Y-79159314D01*
X178723809Y-79106774D01*
X178728819Y-79035955D01*
X178752542Y-78998976D01*
X178751596Y-78998229D01*
X178756134Y-78992483D01*
X178761305Y-78987303D01*
X178772754Y-78968729D01*
X178850275Y-78842968D01*
X178850276Y-78842966D01*
X178854115Y-78836738D01*
X178892208Y-78721891D01*
X178907632Y-78675389D01*
X178907632Y-78675387D01*
X178909797Y-78668861D01*
X178910701Y-78660045D01*
X178917946Y-78589329D01*
X178920500Y-78564400D01*
X178920500Y-77563600D01*
X178920163Y-77560350D01*
X178910238Y-77464692D01*
X178910237Y-77464688D01*
X178909526Y-77457834D01*
X178877556Y-77362007D01*
X178855868Y-77297002D01*
X178853550Y-77290054D01*
X178760478Y-77139652D01*
X178755296Y-77134479D01*
X178750749Y-77128742D01*
X178752551Y-77127314D01*
X178741797Y-77107655D01*
X180239858Y-77107655D01*
X180275104Y-77366638D01*
X180276412Y-77371124D01*
X180276412Y-77371126D01*
X180296098Y-77438664D01*
X180348243Y-77617567D01*
X180457668Y-77854928D01*
X180460231Y-77858837D01*
X180598410Y-78069596D01*
X180598414Y-78069601D01*
X180600976Y-78073509D01*
X180775018Y-78268506D01*
X180975970Y-78435637D01*
X180979973Y-78438066D01*
X181195422Y-78568804D01*
X181195426Y-78568806D01*
X181199419Y-78571229D01*
X181440455Y-78672303D01*
X181693783Y-78736641D01*
X181698434Y-78737109D01*
X181698438Y-78737110D01*
X181891308Y-78756531D01*
X181910867Y-78758500D01*
X182066354Y-78758500D01*
X182068679Y-78758327D01*
X182068685Y-78758327D01*
X182256000Y-78744407D01*
X182256004Y-78744406D01*
X182260652Y-78744061D01*
X182265200Y-78743032D01*
X182265206Y-78743031D01*
X182463265Y-78698214D01*
X182515577Y-78686377D01*
X182519931Y-78684684D01*
X182754824Y-78593340D01*
X182754827Y-78593339D01*
X182759177Y-78591647D01*
X182772557Y-78584000D01*
X182975705Y-78467891D01*
X182986098Y-78461951D01*
X183191357Y-78300138D01*
X183370443Y-78109763D01*
X183519424Y-77895009D01*
X183551993Y-77828966D01*
X183632960Y-77664781D01*
X183632961Y-77664778D01*
X183635025Y-77660593D01*
X183672347Y-77544000D01*
X183713280Y-77416123D01*
X183714707Y-77411665D01*
X183756721Y-77153693D01*
X183759320Y-76955131D01*
X183760081Y-76897022D01*
X183760081Y-76897019D01*
X183760142Y-76892345D01*
X183724896Y-76633362D01*
X183710473Y-76583877D01*
X183661574Y-76416115D01*
X183651757Y-76382433D01*
X183634863Y-76345786D01*
X183557282Y-76177502D01*
X183542332Y-76145072D01*
X183507799Y-76092401D01*
X183401590Y-75930404D01*
X183401586Y-75930399D01*
X183399024Y-75926491D01*
X183252853Y-75762721D01*
X183228097Y-75734984D01*
X183224982Y-75731494D01*
X183024030Y-75564363D01*
X182807043Y-75432692D01*
X182804578Y-75431196D01*
X182804574Y-75431194D01*
X182800581Y-75428771D01*
X182559545Y-75327697D01*
X182306217Y-75263359D01*
X182301566Y-75262891D01*
X182301562Y-75262890D01*
X182092271Y-75241816D01*
X182089133Y-75241500D01*
X181933646Y-75241500D01*
X181931321Y-75241673D01*
X181931315Y-75241673D01*
X181744000Y-75255593D01*
X181743996Y-75255594D01*
X181739348Y-75255939D01*
X181734800Y-75256968D01*
X181734794Y-75256969D01*
X181548399Y-75299147D01*
X181484423Y-75313623D01*
X181480071Y-75315315D01*
X181480069Y-75315316D01*
X181245176Y-75406660D01*
X181245173Y-75406661D01*
X181240823Y-75408353D01*
X181236769Y-75410670D01*
X181236767Y-75410671D01*
X181156804Y-75456374D01*
X181013902Y-75538049D01*
X180808643Y-75699862D01*
X180629557Y-75890237D01*
X180480576Y-76104991D01*
X180478510Y-76109181D01*
X180478508Y-76109184D01*
X180418011Y-76231861D01*
X180364975Y-76339407D01*
X180285293Y-76588335D01*
X180243279Y-76846307D01*
X180241961Y-76946996D01*
X180240234Y-77078966D01*
X180239858Y-77107655D01*
X178741797Y-77107655D01*
X178723809Y-77074774D01*
X178728819Y-77003955D01*
X178752542Y-76966976D01*
X178751596Y-76966229D01*
X178756134Y-76960483D01*
X178761305Y-76955303D01*
X178800113Y-76892345D01*
X178850275Y-76810968D01*
X178850276Y-76810966D01*
X178854115Y-76804738D01*
X178909797Y-76636861D01*
X178910616Y-76628874D01*
X178915226Y-76583877D01*
X178920500Y-76532400D01*
X178920500Y-75531600D01*
X178909526Y-75425834D01*
X178876402Y-75326548D01*
X178855868Y-75265002D01*
X178853550Y-75258054D01*
X178760478Y-75107652D01*
X178635303Y-74982695D01*
X178629072Y-74978854D01*
X178490968Y-74893725D01*
X178490966Y-74893724D01*
X178484738Y-74889885D01*
X178404995Y-74863436D01*
X178323389Y-74836368D01*
X178323387Y-74836368D01*
X178316861Y-74834203D01*
X178310025Y-74833503D01*
X178310022Y-74833502D01*
X178266969Y-74829091D01*
X178212400Y-74823500D01*
X177551595Y-74823500D01*
X177483474Y-74803498D01*
X177462500Y-74786595D01*
X177399500Y-74723595D01*
X177365474Y-74661283D01*
X177370539Y-74590468D01*
X177413086Y-74533632D01*
X177479606Y-74508821D01*
X177488595Y-74508500D01*
X184559500Y-74508500D01*
X184627621Y-74528502D01*
G37*
%TD.AperFunction*%
%TA.AperFunction,Conductor*%
G36*
X171755334Y-80602712D02*
G01*
X171803900Y-80654498D01*
X171816759Y-80724321D01*
X171789828Y-80790011D01*
X171785079Y-80795606D01*
X171754960Y-80829056D01*
X171659473Y-80994444D01*
X171600458Y-81176072D01*
X171580496Y-81366000D01*
X171581186Y-81372565D01*
X171594979Y-81503794D01*
X171600458Y-81555928D01*
X171659473Y-81737556D01*
X171754960Y-81902944D01*
X171759378Y-81907851D01*
X171759379Y-81907852D01*
X171878325Y-82039955D01*
X171882747Y-82044866D01*
X172037248Y-82157118D01*
X172043276Y-82159802D01*
X172043278Y-82159803D01*
X172205681Y-82232109D01*
X172211712Y-82234794D01*
X172305112Y-82254647D01*
X172392056Y-82273128D01*
X172392061Y-82273128D01*
X172398513Y-82274500D01*
X172589487Y-82274500D01*
X172599492Y-82272373D01*
X172611262Y-82269872D01*
X172682053Y-82275275D01*
X172738685Y-82318092D01*
X172763178Y-82384730D01*
X172758048Y-82429642D01*
X172718195Y-82561226D01*
X172717742Y-82568536D01*
X172717741Y-82568539D01*
X172715693Y-82601553D01*
X172707605Y-82731939D01*
X172708845Y-82739155D01*
X172708845Y-82739157D01*
X172713164Y-82764290D01*
X172736570Y-82900509D01*
X172739435Y-82907243D01*
X172739436Y-82907245D01*
X172762904Y-82962397D01*
X172771171Y-83032911D01*
X172767554Y-83048254D01*
X172746268Y-83118534D01*
X172718195Y-83211225D01*
X172717742Y-83218535D01*
X172717741Y-83218538D01*
X172716391Y-83240304D01*
X172692209Y-83307056D01*
X172635778Y-83350137D01*
X172590633Y-83358502D01*
X171216765Y-83358502D01*
X171205582Y-83357975D01*
X171198089Y-83356300D01*
X171190163Y-83356549D01*
X171190162Y-83356549D01*
X171130012Y-83358440D01*
X171126053Y-83358502D01*
X171098142Y-83358502D01*
X171094208Y-83358999D01*
X171094207Y-83358999D01*
X171094142Y-83359007D01*
X171082305Y-83359940D01*
X171050488Y-83360940D01*
X171046027Y-83361080D01*
X171038108Y-83361329D01*
X171030497Y-83363540D01*
X171022670Y-83364780D01*
X171022200Y-83361814D01*
X170965298Y-83361645D01*
X170907520Y-83325165D01*
X170823675Y-83232045D01*
X170823674Y-83232044D01*
X170819253Y-83227134D01*
X170704840Y-83144008D01*
X170670094Y-83118763D01*
X170670093Y-83118762D01*
X170664752Y-83114882D01*
X170658724Y-83112198D01*
X170658722Y-83112197D01*
X170496319Y-83039891D01*
X170496318Y-83039891D01*
X170490288Y-83037206D01*
X170392272Y-83016372D01*
X170309944Y-82998872D01*
X170309939Y-82998872D01*
X170303487Y-82997500D01*
X170112513Y-82997500D01*
X170106061Y-82998872D01*
X170106056Y-82998872D01*
X170023728Y-83016372D01*
X169925712Y-83037206D01*
X169919682Y-83039891D01*
X169919681Y-83039891D01*
X169757278Y-83112197D01*
X169757276Y-83112198D01*
X169751248Y-83114882D01*
X169745907Y-83118762D01*
X169745906Y-83118763D01*
X169635687Y-83198842D01*
X169596747Y-83227134D01*
X169592332Y-83232037D01*
X169587420Y-83236460D01*
X169586295Y-83235211D01*
X169532986Y-83268051D01*
X169499800Y-83272500D01*
X169333037Y-83272500D01*
X169264916Y-83252498D01*
X169218423Y-83198842D01*
X169208857Y-83167838D01*
X169204220Y-83140852D01*
X169200114Y-83126901D01*
X169176597Y-83071632D01*
X169168331Y-83001119D01*
X169171948Y-82985775D01*
X169187527Y-82934339D01*
X169187647Y-82920238D01*
X169168535Y-82911313D01*
X169115276Y-82864366D01*
X169095853Y-82796078D01*
X169116432Y-82728130D01*
X169170481Y-82682094D01*
X169201460Y-82672900D01*
X169208644Y-82672674D01*
X169228098Y-82667022D01*
X169247455Y-82663014D01*
X169259685Y-82661469D01*
X169259686Y-82661469D01*
X169267552Y-82660475D01*
X169274923Y-82657556D01*
X169274925Y-82657556D01*
X169308667Y-82644197D01*
X169319897Y-82640352D01*
X169354738Y-82630230D01*
X169354739Y-82630230D01*
X169362348Y-82628019D01*
X169369167Y-82623986D01*
X169369172Y-82623984D01*
X169379783Y-82617708D01*
X169397531Y-82609013D01*
X169416372Y-82601553D01*
X169452142Y-82575565D01*
X169462062Y-82569049D01*
X169493290Y-82550581D01*
X169493293Y-82550579D01*
X169500117Y-82546543D01*
X169514438Y-82532222D01*
X169529472Y-82519381D01*
X169539449Y-82512132D01*
X169545862Y-82507473D01*
X169574053Y-82473396D01*
X169582043Y-82464617D01*
X171424255Y-80622405D01*
X171486567Y-80588379D01*
X171513350Y-80585500D01*
X171686502Y-80585500D01*
X171686779Y-80585478D01*
X171755334Y-80602712D01*
G37*
%TD.AperFunction*%
%TA.AperFunction,Conductor*%
G36*
X168190508Y-82795502D02*
G01*
X168237001Y-82849158D01*
X168247105Y-82919432D01*
X168245508Y-82928283D01*
X168245015Y-82930549D01*
X168245015Y-83132503D01*
X168225013Y-83200624D01*
X168171357Y-83247117D01*
X168119015Y-83258503D01*
X167921017Y-83258503D01*
X167852896Y-83238501D01*
X167806403Y-83184845D01*
X167795017Y-83132503D01*
X167795017Y-82901500D01*
X167815019Y-82833379D01*
X167868675Y-82786886D01*
X167921017Y-82775500D01*
X168122387Y-82775500D01*
X168190508Y-82795502D01*
G37*
%TD.AperFunction*%
%TA.AperFunction,Conductor*%
G36*
X164746596Y-76177502D02*
G01*
X164793089Y-76231158D01*
X164803193Y-76301432D01*
X164783313Y-76353392D01*
X164741498Y-76416115D01*
X164679552Y-76509034D01*
X164670218Y-76523558D01*
X164668209Y-76528160D01*
X164668208Y-76528162D01*
X164617908Y-76643389D01*
X164611718Y-76657569D01*
X164610585Y-76666510D01*
X164610585Y-76666512D01*
X164606497Y-76698790D01*
X164593344Y-76802632D01*
X164616582Y-76946996D01*
X164625759Y-76966229D01*
X164677552Y-77074774D01*
X164679552Y-77078966D01*
X165179552Y-77828966D01*
X165202308Y-77858837D01*
X165209224Y-77867916D01*
X165234594Y-77934225D01*
X165220087Y-78003724D01*
X165170309Y-78054347D01*
X165108995Y-78070271D01*
X164448589Y-78070271D01*
X164380468Y-78050269D01*
X164333975Y-77996613D01*
X164322589Y-77944271D01*
X164322589Y-76434881D01*
X164342591Y-76366760D01*
X164359494Y-76345786D01*
X164510875Y-76194405D01*
X164573187Y-76160379D01*
X164599970Y-76157500D01*
X164678475Y-76157500D01*
X164746596Y-76177502D01*
G37*
%TD.AperFunction*%
%TD*%
M02*
