%TF.GenerationSoftware,KiCad,Pcbnew,7.0.5*%
%TF.CreationDate,2023-07-07T17:48:57-05:00*%
%TF.ProjectId,ADS1219,41445331-3231-4392-9e6b-696361645f70,4*%
%TF.SameCoordinates,Original*%
%TF.FileFunction,Paste,Top*%
%TF.FilePolarity,Positive*%
%FSLAX46Y46*%
G04 Gerber Fmt 4.6, Leading zero omitted, Abs format (unit mm)*
G04 Created by KiCad (PCBNEW 7.0.5) date 2023-07-07 17:48:57*
%MOMM*%
%LPD*%
G01*
G04 APERTURE LIST*
G04 Aperture macros list*
%AMRoundRect*
0 Rectangle with rounded corners*
0 $1 Rounding radius*
0 $2 $3 $4 $5 $6 $7 $8 $9 X,Y pos of 4 corners*
0 Add a 4 corners polygon primitive as box body*
4,1,4,$2,$3,$4,$5,$6,$7,$8,$9,$2,$3,0*
0 Add four circle primitives for the rounded corners*
1,1,$1+$1,$2,$3*
1,1,$1+$1,$4,$5*
1,1,$1+$1,$6,$7*
1,1,$1+$1,$8,$9*
0 Add four rect primitives between the rounded corners*
20,1,$1+$1,$2,$3,$4,$5,0*
20,1,$1+$1,$4,$5,$6,$7,0*
20,1,$1+$1,$6,$7,$8,$9,0*
20,1,$1+$1,$8,$9,$2,$3,0*%
G04 Aperture macros list end*
%ADD10R,0.568000X1.258799*%
%ADD11O,1.400000X0.449999*%
%ADD12RoundRect,0.150000X0.150000X0.625000X-0.150000X0.625000X-0.150000X-0.625000X0.150000X-0.625000X0*%
%ADD13RoundRect,0.250000X0.350000X0.650000X-0.350000X0.650000X-0.350000X-0.650000X0.350000X-0.650000X0*%
%ADD14RoundRect,0.250000X0.350000X0.450000X-0.350000X0.450000X-0.350000X-0.450000X0.350000X-0.450000X0*%
%ADD15RoundRect,0.250000X0.337500X0.475000X-0.337500X0.475000X-0.337500X-0.475000X0.337500X-0.475000X0*%
%ADD16RoundRect,0.250000X-0.337500X-0.475000X0.337500X-0.475000X0.337500X0.475000X-0.337500X0.475000X0*%
G04 APERTURE END LIST*
D10*
%TO.C,U2*%
X174449960Y-90984000D03*
X172550040Y-90984000D03*
X173500000Y-93016000D03*
%TD*%
D11*
%TO.C,U1*%
X167550001Y-84225001D03*
X167550001Y-84875002D03*
X167550001Y-85525001D03*
X167550001Y-86175002D03*
X167550001Y-86825001D03*
X167550001Y-87475002D03*
X167550001Y-88125001D03*
X167550001Y-88775002D03*
X173450002Y-88775002D03*
X173450002Y-88125001D03*
X173450002Y-87475002D03*
X173450002Y-86825001D03*
X173450002Y-86175002D03*
X173450002Y-85525001D03*
X173450002Y-84875002D03*
X173450002Y-84225001D03*
%TD*%
D12*
%TO.C,J1*%
X168000000Y-79000000D03*
X167000000Y-79000000D03*
X166000000Y-79000000D03*
X165000000Y-79000000D03*
D13*
X169300000Y-75125000D03*
X163700000Y-75125000D03*
%TD*%
D12*
%TO.C,J3*%
X176000000Y-79000000D03*
X175000000Y-79000000D03*
X174000000Y-79000000D03*
X173000000Y-79000000D03*
D13*
X177300000Y-75125000D03*
X171700000Y-75125000D03*
%TD*%
D14*
%TO.C,R3*%
X179000000Y-83000000D03*
X177000000Y-83000000D03*
%TD*%
D15*
%TO.C,C1*%
X179037500Y-89096000D03*
X176962500Y-89096000D03*
%TD*%
D14*
%TO.C,R2*%
X179000000Y-87064000D03*
X177000000Y-87064000D03*
%TD*%
%TO.C,R1*%
X179000000Y-85032000D03*
X177000000Y-85032000D03*
%TD*%
D16*
%TO.C,C2*%
X176962500Y-91128000D03*
X179037500Y-91128000D03*
%TD*%
M02*
