%TF.GenerationSoftware,KiCad,Pcbnew,(6.0.5)*%
%TF.CreationDate,2022-06-11T16:37:02-05:00*%
%TF.ProjectId,ADS1219,41445331-3231-4392-9e6b-696361645f70,rev?*%
%TF.SameCoordinates,Original*%
%TF.FileFunction,Copper,L2,Bot*%
%TF.FilePolarity,Positive*%
%FSLAX46Y46*%
G04 Gerber Fmt 4.6, Leading zero omitted, Abs format (unit mm)*
G04 Created by KiCad (PCBNEW (6.0.5)) date 2022-06-11 16:37:02*
%MOMM*%
%LPD*%
G01*
G04 APERTURE LIST*
%TA.AperFunction,ComponentPad*%
%ADD10C,1.700000*%
%TD*%
%TA.AperFunction,ComponentPad*%
%ADD11O,1.700000X1.700000*%
%TD*%
%TA.AperFunction,ViaPad*%
%ADD12C,0.800000*%
%TD*%
%TA.AperFunction,Conductor*%
%ADD13C,0.250000*%
%TD*%
G04 APERTURE END LIST*
D10*
%TO.P,J2,1,Pin_1*%
%TO.N,/AIN0*%
X165100000Y-89154000D03*
D11*
%TO.P,J2,2,Pin_2*%
%TO.N,/AIN1*%
X167640000Y-89154000D03*
%TO.P,J2,3,Pin_3*%
%TO.N,/AIN2*%
X170180000Y-89154000D03*
%TO.P,J2,4,Pin_4*%
%TO.N,/AIN3*%
X172720000Y-89154000D03*
%TO.P,J2,5,Pin_5*%
%TO.N,+3V3*%
X175260000Y-89154000D03*
%TO.P,J2,6,Pin_6*%
%TO.N,GND*%
X177800000Y-89154000D03*
%TD*%
D12*
%TO.N,GND*%
X166624000Y-84328000D03*
%TO.N,/SDA*%
X174887000Y-80907000D03*
X172466000Y-83058000D03*
%TO.N,/SCL*%
X174125000Y-79637000D03*
X172466000Y-82042000D03*
%TO.N,/AIN2*%
X169926000Y-86106000D03*
%TO.N,/AIN3*%
X170688000Y-85344000D03*
%TD*%
D13*
%TO.N,/SDA*%
X174617000Y-80907000D02*
X174887000Y-80907000D01*
X172466000Y-83058000D02*
X174617000Y-80907000D01*
%TO.N,/SCL*%
X172466000Y-82042000D02*
X174125000Y-80383000D01*
X174125000Y-80383000D02*
X174125000Y-79637000D01*
%TO.N,/AIN2*%
X170180000Y-89154000D02*
X170180000Y-86360000D01*
X170180000Y-86360000D02*
X169926000Y-86106000D01*
%TO.N,/AIN3*%
X172720000Y-89154000D02*
X172720000Y-87376000D01*
X172720000Y-87376000D02*
X170688000Y-85344000D01*
%TD*%
%TA.AperFunction,Conductor*%
%TO.N,GND*%
G36*
X178757621Y-76728502D02*
G01*
X178804114Y-76782158D01*
X178815500Y-76834500D01*
X178815500Y-87965409D01*
X178795498Y-88033530D01*
X178741842Y-88080023D01*
X178671568Y-88090127D01*
X178611408Y-88064291D01*
X178558139Y-88022222D01*
X178549552Y-88016517D01*
X178363117Y-87913599D01*
X178353705Y-87909369D01*
X178152959Y-87838280D01*
X178142988Y-87835646D01*
X178071837Y-87822972D01*
X178058540Y-87824432D01*
X178054000Y-87838989D01*
X178054000Y-89282000D01*
X178033998Y-89350121D01*
X177980342Y-89396614D01*
X177928000Y-89408000D01*
X177672000Y-89408000D01*
X177603879Y-89387998D01*
X177557386Y-89334342D01*
X177546000Y-89282000D01*
X177546000Y-87837102D01*
X177542082Y-87823758D01*
X177527806Y-87821771D01*
X177489324Y-87827660D01*
X177479288Y-87830051D01*
X177276868Y-87896212D01*
X177267359Y-87900209D01*
X177078463Y-87998542D01*
X177069738Y-88004036D01*
X176899433Y-88131905D01*
X176891726Y-88138748D01*
X176744590Y-88292717D01*
X176738109Y-88300722D01*
X176633498Y-88454074D01*
X176578587Y-88499076D01*
X176508062Y-88507247D01*
X176444315Y-88475993D01*
X176423618Y-88451509D01*
X176342822Y-88326617D01*
X176342820Y-88326614D01*
X176340014Y-88322277D01*
X176189670Y-88157051D01*
X176185619Y-88153852D01*
X176185615Y-88153848D01*
X176018414Y-88021800D01*
X176018410Y-88021798D01*
X176014359Y-88018598D01*
X176009831Y-88016098D01*
X175893988Y-87952150D01*
X175818789Y-87910638D01*
X175813920Y-87908914D01*
X175813916Y-87908912D01*
X175613087Y-87837795D01*
X175613083Y-87837794D01*
X175608212Y-87836069D01*
X175603119Y-87835162D01*
X175603116Y-87835161D01*
X175393373Y-87797800D01*
X175393367Y-87797799D01*
X175388284Y-87796894D01*
X175314452Y-87795992D01*
X175170081Y-87794228D01*
X175170079Y-87794228D01*
X175164911Y-87794165D01*
X174944091Y-87827955D01*
X174731756Y-87897357D01*
X174654853Y-87937390D01*
X174557975Y-87987822D01*
X174533607Y-88000507D01*
X174529474Y-88003610D01*
X174529471Y-88003612D01*
X174359100Y-88131530D01*
X174354965Y-88134635D01*
X174200629Y-88296138D01*
X174093201Y-88453621D01*
X174038293Y-88498621D01*
X173967768Y-88506792D01*
X173904021Y-88475538D01*
X173883324Y-88451054D01*
X173802822Y-88326617D01*
X173802820Y-88326614D01*
X173800014Y-88322277D01*
X173649670Y-88157051D01*
X173645619Y-88153852D01*
X173645615Y-88153848D01*
X173478414Y-88021800D01*
X173478410Y-88021798D01*
X173474359Y-88018598D01*
X173469835Y-88016101D01*
X173469831Y-88016098D01*
X173418608Y-87987822D01*
X173368636Y-87937390D01*
X173353500Y-87877513D01*
X173353500Y-87454767D01*
X173354027Y-87443584D01*
X173355702Y-87436091D01*
X173353562Y-87368000D01*
X173353500Y-87364043D01*
X173353500Y-87336144D01*
X173352996Y-87332153D01*
X173352063Y-87320311D01*
X173350923Y-87284036D01*
X173350674Y-87276111D01*
X173348462Y-87268497D01*
X173348461Y-87268492D01*
X173345023Y-87256659D01*
X173341012Y-87237295D01*
X173339467Y-87225064D01*
X173338474Y-87217203D01*
X173335557Y-87209836D01*
X173335556Y-87209831D01*
X173322198Y-87176092D01*
X173318354Y-87164865D01*
X173308230Y-87130022D01*
X173306018Y-87122407D01*
X173295707Y-87104972D01*
X173287012Y-87087224D01*
X173279552Y-87068383D01*
X173253564Y-87032613D01*
X173247048Y-87022693D01*
X173228580Y-86991465D01*
X173228578Y-86991462D01*
X173224542Y-86984638D01*
X173210221Y-86970317D01*
X173197380Y-86955283D01*
X173190131Y-86945306D01*
X173185472Y-86938893D01*
X173151395Y-86910702D01*
X173142616Y-86902712D01*
X171635122Y-85395217D01*
X171601096Y-85332905D01*
X171598907Y-85319292D01*
X171598852Y-85318763D01*
X171581542Y-85154072D01*
X171522527Y-84972444D01*
X171427040Y-84807056D01*
X171299253Y-84665134D01*
X171144752Y-84552882D01*
X171138724Y-84550198D01*
X171138722Y-84550197D01*
X170976319Y-84477891D01*
X170976318Y-84477891D01*
X170970288Y-84475206D01*
X170876888Y-84455353D01*
X170789944Y-84436872D01*
X170789939Y-84436872D01*
X170783487Y-84435500D01*
X170592513Y-84435500D01*
X170586061Y-84436872D01*
X170586056Y-84436872D01*
X170499112Y-84455353D01*
X170405712Y-84475206D01*
X170399682Y-84477891D01*
X170399681Y-84477891D01*
X170237278Y-84550197D01*
X170237276Y-84550198D01*
X170231248Y-84552882D01*
X170076747Y-84665134D01*
X169948960Y-84807056D01*
X169853473Y-84972444D01*
X169851431Y-84978729D01*
X169799106Y-85139768D01*
X169759032Y-85198374D01*
X169705471Y-85224078D01*
X169643712Y-85237206D01*
X169637682Y-85239891D01*
X169637681Y-85239891D01*
X169475278Y-85312197D01*
X169475276Y-85312198D01*
X169469248Y-85314882D01*
X169463907Y-85318762D01*
X169463906Y-85318763D01*
X169429171Y-85344000D01*
X169314747Y-85427134D01*
X169186960Y-85569056D01*
X169091473Y-85734444D01*
X169032458Y-85916072D01*
X169012496Y-86106000D01*
X169032458Y-86295928D01*
X169091473Y-86477556D01*
X169186960Y-86642944D01*
X169314747Y-86784866D01*
X169469248Y-86897118D01*
X169475278Y-86899803D01*
X169481001Y-86903107D01*
X169479845Y-86905109D01*
X169525856Y-86944229D01*
X169546500Y-87013339D01*
X169546500Y-87875692D01*
X169526498Y-87943813D01*
X169478683Y-87987453D01*
X169453607Y-88000507D01*
X169449474Y-88003610D01*
X169449471Y-88003612D01*
X169279100Y-88131530D01*
X169274965Y-88134635D01*
X169120629Y-88296138D01*
X169013201Y-88453621D01*
X168958293Y-88498621D01*
X168887768Y-88506792D01*
X168824021Y-88475538D01*
X168803324Y-88451054D01*
X168722822Y-88326617D01*
X168722820Y-88326614D01*
X168720014Y-88322277D01*
X168569670Y-88157051D01*
X168565619Y-88153852D01*
X168565615Y-88153848D01*
X168398414Y-88021800D01*
X168398410Y-88021798D01*
X168394359Y-88018598D01*
X168389831Y-88016098D01*
X168273988Y-87952150D01*
X168198789Y-87910638D01*
X168193920Y-87908914D01*
X168193916Y-87908912D01*
X167993087Y-87837795D01*
X167993083Y-87837794D01*
X167988212Y-87836069D01*
X167983119Y-87835162D01*
X167983116Y-87835161D01*
X167773373Y-87797800D01*
X167773367Y-87797799D01*
X167768284Y-87796894D01*
X167694452Y-87795992D01*
X167550081Y-87794228D01*
X167550079Y-87794228D01*
X167544911Y-87794165D01*
X167324091Y-87827955D01*
X167111756Y-87897357D01*
X167034853Y-87937390D01*
X166937975Y-87987822D01*
X166913607Y-88000507D01*
X166909474Y-88003610D01*
X166909471Y-88003612D01*
X166739100Y-88131530D01*
X166734965Y-88134635D01*
X166580629Y-88296138D01*
X166473201Y-88453621D01*
X166418293Y-88498621D01*
X166347768Y-88506792D01*
X166284021Y-88475538D01*
X166263324Y-88451054D01*
X166182822Y-88326617D01*
X166182820Y-88326614D01*
X166180014Y-88322277D01*
X166029670Y-88157051D01*
X166025619Y-88153852D01*
X166025615Y-88153848D01*
X165858414Y-88021800D01*
X165858410Y-88021798D01*
X165854359Y-88018598D01*
X165849831Y-88016098D01*
X165733988Y-87952150D01*
X165658789Y-87910638D01*
X165653920Y-87908914D01*
X165653916Y-87908912D01*
X165453087Y-87837795D01*
X165453083Y-87837794D01*
X165448212Y-87836069D01*
X165443119Y-87835162D01*
X165443116Y-87835161D01*
X165233373Y-87797800D01*
X165233367Y-87797799D01*
X165228284Y-87796894D01*
X165154452Y-87795992D01*
X165010081Y-87794228D01*
X165010079Y-87794228D01*
X165004911Y-87794165D01*
X164784091Y-87827955D01*
X164571756Y-87897357D01*
X164494853Y-87937390D01*
X164397975Y-87987822D01*
X164373607Y-88000507D01*
X164369474Y-88003610D01*
X164369471Y-88003612D01*
X164286153Y-88066169D01*
X164219668Y-88091075D01*
X164150272Y-88076083D01*
X164099999Y-88025952D01*
X164084500Y-87965409D01*
X164084500Y-83058000D01*
X171552496Y-83058000D01*
X171572458Y-83247928D01*
X171631473Y-83429556D01*
X171726960Y-83594944D01*
X171854747Y-83736866D01*
X172009248Y-83849118D01*
X172015276Y-83851802D01*
X172015278Y-83851803D01*
X172177681Y-83924109D01*
X172183712Y-83926794D01*
X172277112Y-83946647D01*
X172364056Y-83965128D01*
X172364061Y-83965128D01*
X172370513Y-83966500D01*
X172561487Y-83966500D01*
X172567939Y-83965128D01*
X172567944Y-83965128D01*
X172654887Y-83946647D01*
X172748288Y-83926794D01*
X172754319Y-83924109D01*
X172916722Y-83851803D01*
X172916724Y-83851802D01*
X172922752Y-83849118D01*
X173077253Y-83736866D01*
X173205040Y-83594944D01*
X173300527Y-83429556D01*
X173359542Y-83247928D01*
X173376907Y-83082706D01*
X173403920Y-83017050D01*
X173413122Y-83006782D01*
X174588829Y-81831075D01*
X174651141Y-81797049D01*
X174704117Y-81796923D01*
X174791513Y-81815500D01*
X174982487Y-81815500D01*
X174988939Y-81814128D01*
X174988944Y-81814128D01*
X175075888Y-81795647D01*
X175169288Y-81775794D01*
X175175319Y-81773109D01*
X175337722Y-81700803D01*
X175337724Y-81700802D01*
X175343752Y-81698118D01*
X175498253Y-81585866D01*
X175626040Y-81443944D01*
X175721527Y-81278556D01*
X175780542Y-81096928D01*
X175800504Y-80907000D01*
X175780542Y-80717072D01*
X175721527Y-80535444D01*
X175626040Y-80370056D01*
X175498253Y-80228134D01*
X175343752Y-80115882D01*
X175337724Y-80113198D01*
X175337722Y-80113197D01*
X175175319Y-80040891D01*
X175175318Y-80040891D01*
X175169288Y-80038206D01*
X175162833Y-80036834D01*
X175162824Y-80036831D01*
X175100945Y-80023678D01*
X175038472Y-79989950D01*
X175004151Y-79927800D01*
X175007310Y-79861496D01*
X175018542Y-79826928D01*
X175038504Y-79637000D01*
X175018542Y-79447072D01*
X174959527Y-79265444D01*
X174864040Y-79100056D01*
X174736253Y-78958134D01*
X174581752Y-78845882D01*
X174575724Y-78843198D01*
X174575722Y-78843197D01*
X174413319Y-78770891D01*
X174413318Y-78770891D01*
X174407288Y-78768206D01*
X174313888Y-78748353D01*
X174226944Y-78729872D01*
X174226939Y-78729872D01*
X174220487Y-78728500D01*
X174029513Y-78728500D01*
X174023061Y-78729872D01*
X174023056Y-78729872D01*
X173936112Y-78748353D01*
X173842712Y-78768206D01*
X173836682Y-78770891D01*
X173836681Y-78770891D01*
X173674278Y-78843197D01*
X173674276Y-78843198D01*
X173668248Y-78845882D01*
X173513747Y-78958134D01*
X173385960Y-79100056D01*
X173290473Y-79265444D01*
X173231458Y-79447072D01*
X173211496Y-79637000D01*
X173231458Y-79826928D01*
X173290473Y-80008556D01*
X173293776Y-80014278D01*
X173293777Y-80014279D01*
X173356722Y-80123302D01*
X173373460Y-80192297D01*
X173350240Y-80259389D01*
X173336698Y-80275397D01*
X172515500Y-81096595D01*
X172453188Y-81130621D01*
X172426405Y-81133500D01*
X172370513Y-81133500D01*
X172364061Y-81134872D01*
X172364056Y-81134872D01*
X172277113Y-81153353D01*
X172183712Y-81173206D01*
X172177682Y-81175891D01*
X172177681Y-81175891D01*
X172015278Y-81248197D01*
X172015276Y-81248198D01*
X172009248Y-81250882D01*
X171854747Y-81363134D01*
X171726960Y-81505056D01*
X171631473Y-81670444D01*
X171572458Y-81852072D01*
X171552496Y-82042000D01*
X171572458Y-82231928D01*
X171631473Y-82413556D01*
X171634776Y-82419278D01*
X171634777Y-82419279D01*
X171673876Y-82487000D01*
X171690614Y-82555995D01*
X171673876Y-82613000D01*
X171631473Y-82686444D01*
X171572458Y-82868072D01*
X171552496Y-83058000D01*
X164084500Y-83058000D01*
X164084500Y-76834500D01*
X164104502Y-76766379D01*
X164158158Y-76719886D01*
X164210500Y-76708500D01*
X178689500Y-76708500D01*
X178757621Y-76728502D01*
G37*
%TD.AperFunction*%
%TD*%
M02*
