%TF.GenerationSoftware,KiCad,Pcbnew,(6.0.7)*%
%TF.CreationDate,2022-08-07T18:23:06-05:00*%
%TF.ProjectId,ADS1219,41445331-3231-4392-9e6b-696361645f70,4*%
%TF.SameCoordinates,Original*%
%TF.FileFunction,Legend,Bot*%
%TF.FilePolarity,Positive*%
%FSLAX46Y46*%
G04 Gerber Fmt 4.6, Leading zero omitted, Abs format (unit mm)*
G04 Created by KiCad (PCBNEW (6.0.7)) date 2022-08-07 18:23:06*
%MOMM*%
%LPD*%
G01*
G04 APERTURE LIST*
%ADD10C,0.150000*%
%ADD11C,0.120000*%
G04 APERTURE END LIST*
D10*
%TO.C,TP9*%
X167761904Y-88504380D02*
X167190476Y-88504380D01*
X167476190Y-89504380D02*
X167476190Y-88504380D01*
X166857142Y-89504380D02*
X166857142Y-88504380D01*
X166476190Y-88504380D01*
X166380952Y-88552000D01*
X166333333Y-88599619D01*
X166285714Y-88694857D01*
X166285714Y-88837714D01*
X166333333Y-88932952D01*
X166380952Y-88980571D01*
X166476190Y-89028190D01*
X166857142Y-89028190D01*
X165809523Y-89504380D02*
X165619047Y-89504380D01*
X165523809Y-89456761D01*
X165476190Y-89409142D01*
X165380952Y-89266285D01*
X165333333Y-89075809D01*
X165333333Y-88694857D01*
X165380952Y-88599619D01*
X165428571Y-88552000D01*
X165523809Y-88504380D01*
X165714285Y-88504380D01*
X165809523Y-88552000D01*
X165857142Y-88599619D01*
X165904761Y-88694857D01*
X165904761Y-88932952D01*
X165857142Y-89028190D01*
X165809523Y-89075809D01*
X165714285Y-89123428D01*
X165523809Y-89123428D01*
X165428571Y-89075809D01*
X165380952Y-89028190D01*
X165333333Y-88932952D01*
%TO.C,TP8*%
X171761904Y-88504380D02*
X171190476Y-88504380D01*
X171476190Y-89504380D02*
X171476190Y-88504380D01*
X170857142Y-89504380D02*
X170857142Y-88504380D01*
X170476190Y-88504380D01*
X170380952Y-88552000D01*
X170333333Y-88599619D01*
X170285714Y-88694857D01*
X170285714Y-88837714D01*
X170333333Y-88932952D01*
X170380952Y-88980571D01*
X170476190Y-89028190D01*
X170857142Y-89028190D01*
X169714285Y-88932952D02*
X169809523Y-88885333D01*
X169857142Y-88837714D01*
X169904761Y-88742476D01*
X169904761Y-88694857D01*
X169857142Y-88599619D01*
X169809523Y-88552000D01*
X169714285Y-88504380D01*
X169523809Y-88504380D01*
X169428571Y-88552000D01*
X169380952Y-88599619D01*
X169333333Y-88694857D01*
X169333333Y-88742476D01*
X169380952Y-88837714D01*
X169428571Y-88885333D01*
X169523809Y-88932952D01*
X169714285Y-88932952D01*
X169809523Y-88980571D01*
X169857142Y-89028190D01*
X169904761Y-89123428D01*
X169904761Y-89313904D01*
X169857142Y-89409142D01*
X169809523Y-89456761D01*
X169714285Y-89504380D01*
X169523809Y-89504380D01*
X169428571Y-89456761D01*
X169380952Y-89409142D01*
X169333333Y-89313904D01*
X169333333Y-89123428D01*
X169380952Y-89028190D01*
X169428571Y-88980571D01*
X169523809Y-88932952D01*
%TO.C,TP7*%
X175761904Y-88504380D02*
X175190476Y-88504380D01*
X175476190Y-89504380D02*
X175476190Y-88504380D01*
X174857142Y-89504380D02*
X174857142Y-88504380D01*
X174476190Y-88504380D01*
X174380952Y-88552000D01*
X174333333Y-88599619D01*
X174285714Y-88694857D01*
X174285714Y-88837714D01*
X174333333Y-88932952D01*
X174380952Y-88980571D01*
X174476190Y-89028190D01*
X174857142Y-89028190D01*
X173952380Y-88504380D02*
X173285714Y-88504380D01*
X173714285Y-89504380D01*
%TO.C,TP6*%
X167761904Y-84504380D02*
X167190476Y-84504380D01*
X167476190Y-85504380D02*
X167476190Y-84504380D01*
X166857142Y-85504380D02*
X166857142Y-84504380D01*
X166476190Y-84504380D01*
X166380952Y-84552000D01*
X166333333Y-84599619D01*
X166285714Y-84694857D01*
X166285714Y-84837714D01*
X166333333Y-84932952D01*
X166380952Y-84980571D01*
X166476190Y-85028190D01*
X166857142Y-85028190D01*
X165428571Y-84504380D02*
X165619047Y-84504380D01*
X165714285Y-84552000D01*
X165761904Y-84599619D01*
X165857142Y-84742476D01*
X165904761Y-84932952D01*
X165904761Y-85313904D01*
X165857142Y-85409142D01*
X165809523Y-85456761D01*
X165714285Y-85504380D01*
X165523809Y-85504380D01*
X165428571Y-85456761D01*
X165380952Y-85409142D01*
X165333333Y-85313904D01*
X165333333Y-85075809D01*
X165380952Y-84980571D01*
X165428571Y-84932952D01*
X165523809Y-84885333D01*
X165714285Y-84885333D01*
X165809523Y-84932952D01*
X165857142Y-84980571D01*
X165904761Y-85075809D01*
%TO.C,TP5*%
X171761904Y-84504380D02*
X171190476Y-84504380D01*
X171476190Y-85504380D02*
X171476190Y-84504380D01*
X170857142Y-85504380D02*
X170857142Y-84504380D01*
X170476190Y-84504380D01*
X170380952Y-84552000D01*
X170333333Y-84599619D01*
X170285714Y-84694857D01*
X170285714Y-84837714D01*
X170333333Y-84932952D01*
X170380952Y-84980571D01*
X170476190Y-85028190D01*
X170857142Y-85028190D01*
X169380952Y-84504380D02*
X169857142Y-84504380D01*
X169904761Y-84980571D01*
X169857142Y-84932952D01*
X169761904Y-84885333D01*
X169523809Y-84885333D01*
X169428571Y-84932952D01*
X169380952Y-84980571D01*
X169333333Y-85075809D01*
X169333333Y-85313904D01*
X169380952Y-85409142D01*
X169428571Y-85456761D01*
X169523809Y-85504380D01*
X169761904Y-85504380D01*
X169857142Y-85456761D01*
X169904761Y-85409142D01*
%TO.C,TP4*%
X175761904Y-84504380D02*
X175190476Y-84504380D01*
X175476190Y-85504380D02*
X175476190Y-84504380D01*
X174857142Y-85504380D02*
X174857142Y-84504380D01*
X174476190Y-84504380D01*
X174380952Y-84552000D01*
X174333333Y-84599619D01*
X174285714Y-84694857D01*
X174285714Y-84837714D01*
X174333333Y-84932952D01*
X174380952Y-84980571D01*
X174476190Y-85028190D01*
X174857142Y-85028190D01*
X173428571Y-84837714D02*
X173428571Y-85504380D01*
X173666666Y-84456761D02*
X173904761Y-85171047D01*
X173285714Y-85171047D01*
%TO.C,TP3*%
X167761904Y-80504380D02*
X167190476Y-80504380D01*
X167476190Y-81504380D02*
X167476190Y-80504380D01*
X166857142Y-81504380D02*
X166857142Y-80504380D01*
X166476190Y-80504380D01*
X166380952Y-80552000D01*
X166333333Y-80599619D01*
X166285714Y-80694857D01*
X166285714Y-80837714D01*
X166333333Y-80932952D01*
X166380952Y-80980571D01*
X166476190Y-81028190D01*
X166857142Y-81028190D01*
X165952380Y-80504380D02*
X165333333Y-80504380D01*
X165666666Y-80885333D01*
X165523809Y-80885333D01*
X165428571Y-80932952D01*
X165380952Y-80980571D01*
X165333333Y-81075809D01*
X165333333Y-81313904D01*
X165380952Y-81409142D01*
X165428571Y-81456761D01*
X165523809Y-81504380D01*
X165809523Y-81504380D01*
X165904761Y-81456761D01*
X165952380Y-81409142D01*
%TO.C,TP2*%
X171761904Y-80504380D02*
X171190476Y-80504380D01*
X171476190Y-81504380D02*
X171476190Y-80504380D01*
X170857142Y-81504380D02*
X170857142Y-80504380D01*
X170476190Y-80504380D01*
X170380952Y-80552000D01*
X170333333Y-80599619D01*
X170285714Y-80694857D01*
X170285714Y-80837714D01*
X170333333Y-80932952D01*
X170380952Y-80980571D01*
X170476190Y-81028190D01*
X170857142Y-81028190D01*
X169904761Y-80599619D02*
X169857142Y-80552000D01*
X169761904Y-80504380D01*
X169523809Y-80504380D01*
X169428571Y-80552000D01*
X169380952Y-80599619D01*
X169333333Y-80694857D01*
X169333333Y-80790095D01*
X169380952Y-80932952D01*
X169952380Y-81504380D01*
X169333333Y-81504380D01*
%TO.C,TP1*%
X175761904Y-80504380D02*
X175190476Y-80504380D01*
X175476190Y-81504380D02*
X175476190Y-80504380D01*
X174857142Y-81504380D02*
X174857142Y-80504380D01*
X174476190Y-80504380D01*
X174380952Y-80552000D01*
X174333333Y-80599619D01*
X174285714Y-80694857D01*
X174285714Y-80837714D01*
X174333333Y-80932952D01*
X174380952Y-80980571D01*
X174476190Y-81028190D01*
X174857142Y-81028190D01*
X173333333Y-81504380D02*
X173904761Y-81504380D01*
X173619047Y-81504380D02*
X173619047Y-80504380D01*
X173714285Y-80647238D01*
X173809523Y-80742476D01*
X173904761Y-80790095D01*
D11*
%TO.C,TP9*%
X165800000Y-91200000D02*
X167200000Y-91200000D01*
X167200000Y-89800000D02*
X165800000Y-89800000D01*
X165800000Y-89800000D02*
X165800000Y-91200000D01*
X167200000Y-91200000D02*
X167200000Y-89800000D01*
%TO.C,TP8*%
X169800000Y-91200000D02*
X171200000Y-91200000D01*
X171200000Y-89800000D02*
X169800000Y-89800000D01*
X169800000Y-89800000D02*
X169800000Y-91200000D01*
X171200000Y-91200000D02*
X171200000Y-89800000D01*
%TO.C,TP7*%
X173800000Y-91200000D02*
X175200000Y-91200000D01*
X175200000Y-89800000D02*
X173800000Y-89800000D01*
X173800000Y-89800000D02*
X173800000Y-91200000D01*
X175200000Y-91200000D02*
X175200000Y-89800000D01*
%TO.C,TP6*%
X165800000Y-87200000D02*
X167200000Y-87200000D01*
X167200000Y-85800000D02*
X165800000Y-85800000D01*
X165800000Y-85800000D02*
X165800000Y-87200000D01*
X167200000Y-87200000D02*
X167200000Y-85800000D01*
%TO.C,TP5*%
X169800000Y-87200000D02*
X171200000Y-87200000D01*
X171200000Y-85800000D02*
X169800000Y-85800000D01*
X169800000Y-85800000D02*
X169800000Y-87200000D01*
X171200000Y-87200000D02*
X171200000Y-85800000D01*
%TO.C,TP4*%
X173800000Y-87200000D02*
X175200000Y-87200000D01*
X175200000Y-85800000D02*
X173800000Y-85800000D01*
X173800000Y-85800000D02*
X173800000Y-87200000D01*
X175200000Y-87200000D02*
X175200000Y-85800000D01*
%TO.C,TP3*%
X165800000Y-83200000D02*
X167200000Y-83200000D01*
X167200000Y-81800000D02*
X165800000Y-81800000D01*
X165800000Y-81800000D02*
X165800000Y-83200000D01*
X167200000Y-83200000D02*
X167200000Y-81800000D01*
%TO.C,TP2*%
X169800000Y-83200000D02*
X171200000Y-83200000D01*
X171200000Y-81800000D02*
X169800000Y-81800000D01*
X169800000Y-81800000D02*
X169800000Y-83200000D01*
X171200000Y-83200000D02*
X171200000Y-81800000D01*
%TO.C,TP1*%
X173800000Y-83200000D02*
X175200000Y-83200000D01*
X175200000Y-81800000D02*
X173800000Y-81800000D01*
X173800000Y-81800000D02*
X173800000Y-83200000D01*
X175200000Y-83200000D02*
X175200000Y-81800000D01*
%TD*%
M02*
