%TF.GenerationSoftware,KiCad,Pcbnew,(6.0.7)*%
%TF.CreationDate,2022-08-07T18:23:06-05:00*%
%TF.ProjectId,ADS1219,41445331-3231-4392-9e6b-696361645f70,4*%
%TF.SameCoordinates,Original*%
%TF.FileFunction,Legend,Top*%
%TF.FilePolarity,Positive*%
%FSLAX46Y46*%
G04 Gerber Fmt 4.6, Leading zero omitted, Abs format (unit mm)*
G04 Created by KiCad (PCBNEW (6.0.7)) date 2022-08-07 18:23:06*
%MOMM*%
%LPD*%
G01*
G04 APERTURE LIST*
%ADD10C,0.062500*%
%ADD11C,0.250000*%
%ADD12C,0.150000*%
%ADD13C,0.125000*%
%ADD14C,0.120000*%
G04 APERTURE END LIST*
D10*
X159676309Y-81452380D02*
X160176309Y-81452380D01*
X160176309Y-81571428D01*
X160152500Y-81642857D01*
X160104880Y-81690476D01*
X160057261Y-81714285D01*
X159962023Y-81738095D01*
X159890595Y-81738095D01*
X159795357Y-81714285D01*
X159747738Y-81690476D01*
X159700119Y-81642857D01*
X159676309Y-81571428D01*
X159676309Y-81452380D01*
X159700119Y-82142857D02*
X159676309Y-82095238D01*
X159676309Y-82000000D01*
X159700119Y-81952380D01*
X159747738Y-81928571D01*
X159938214Y-81928571D01*
X159985833Y-81952380D01*
X160009642Y-82000000D01*
X160009642Y-82095238D01*
X159985833Y-82142857D01*
X159938214Y-82166666D01*
X159890595Y-82166666D01*
X159842976Y-81928571D01*
X159700119Y-82357142D02*
X159676309Y-82404761D01*
X159676309Y-82500000D01*
X159700119Y-82547619D01*
X159747738Y-82571428D01*
X159771547Y-82571428D01*
X159819166Y-82547619D01*
X159842976Y-82500000D01*
X159842976Y-82428571D01*
X159866785Y-82380952D01*
X159914404Y-82357142D01*
X159938214Y-82357142D01*
X159985833Y-82380952D01*
X160009642Y-82428571D01*
X160009642Y-82500000D01*
X159985833Y-82547619D01*
X159676309Y-82785714D02*
X160009642Y-82785714D01*
X160176309Y-82785714D02*
X160152500Y-82761904D01*
X160128690Y-82785714D01*
X160152500Y-82809523D01*
X160176309Y-82785714D01*
X160128690Y-82785714D01*
X160009642Y-83238095D02*
X159604880Y-83238095D01*
X159557261Y-83214285D01*
X159533452Y-83190476D01*
X159509642Y-83142857D01*
X159509642Y-83071428D01*
X159533452Y-83023809D01*
X159700119Y-83238095D02*
X159676309Y-83190476D01*
X159676309Y-83095238D01*
X159700119Y-83047619D01*
X159723928Y-83023809D01*
X159771547Y-83000000D01*
X159914404Y-83000000D01*
X159962023Y-83023809D01*
X159985833Y-83047619D01*
X160009642Y-83095238D01*
X160009642Y-83190476D01*
X159985833Y-83238095D01*
X160009642Y-83476190D02*
X159676309Y-83476190D01*
X159962023Y-83476190D02*
X159985833Y-83500000D01*
X160009642Y-83547619D01*
X160009642Y-83619047D01*
X159985833Y-83666666D01*
X159938214Y-83690476D01*
X159676309Y-83690476D01*
X159700119Y-84119047D02*
X159676309Y-84071428D01*
X159676309Y-83976190D01*
X159700119Y-83928571D01*
X159747738Y-83904761D01*
X159938214Y-83904761D01*
X159985833Y-83928571D01*
X160009642Y-83976190D01*
X160009642Y-84071428D01*
X159985833Y-84119047D01*
X159938214Y-84142857D01*
X159890595Y-84142857D01*
X159842976Y-83904761D01*
X159676309Y-84571428D02*
X160176309Y-84571428D01*
X159700119Y-84571428D02*
X159676309Y-84523809D01*
X159676309Y-84428571D01*
X159700119Y-84380952D01*
X159723928Y-84357142D01*
X159771547Y-84333333D01*
X159914404Y-84333333D01*
X159962023Y-84357142D01*
X159985833Y-84380952D01*
X160009642Y-84428571D01*
X160009642Y-84523809D01*
X159985833Y-84571428D01*
X159676309Y-85190476D02*
X160176309Y-85190476D01*
X159985833Y-85190476D02*
X160009642Y-85238095D01*
X160009642Y-85333333D01*
X159985833Y-85380952D01*
X159962023Y-85404761D01*
X159914404Y-85428571D01*
X159771547Y-85428571D01*
X159723928Y-85404761D01*
X159700119Y-85380952D01*
X159676309Y-85333333D01*
X159676309Y-85238095D01*
X159700119Y-85190476D01*
X160009642Y-85595238D02*
X159676309Y-85714285D01*
X160009642Y-85833333D02*
X159676309Y-85714285D01*
X159557261Y-85666666D01*
X159533452Y-85642857D01*
X159509642Y-85595238D01*
X159938214Y-86571428D02*
X159938214Y-86404761D01*
X159676309Y-86404761D02*
X160176309Y-86404761D01*
X160176309Y-86642857D01*
X159676309Y-86904761D02*
X159700119Y-86857142D01*
X159723928Y-86833333D01*
X159771547Y-86809523D01*
X159914404Y-86809523D01*
X159962023Y-86833333D01*
X159985833Y-86857142D01*
X160009642Y-86904761D01*
X160009642Y-86976190D01*
X159985833Y-87023809D01*
X159962023Y-87047619D01*
X159914404Y-87071428D01*
X159771547Y-87071428D01*
X159723928Y-87047619D01*
X159700119Y-87023809D01*
X159676309Y-86976190D01*
X159676309Y-86904761D01*
X159676309Y-87285714D02*
X160009642Y-87285714D01*
X159914404Y-87285714D02*
X159962023Y-87309523D01*
X159985833Y-87333333D01*
X160009642Y-87380952D01*
X160009642Y-87428571D01*
X160009642Y-87523809D02*
X160009642Y-87714285D01*
X160176309Y-87595238D02*
X159747738Y-87595238D01*
X159700119Y-87619047D01*
X159676309Y-87666666D01*
X159676309Y-87714285D01*
X159676309Y-87880952D02*
X160009642Y-87880952D01*
X160176309Y-87880952D02*
X160152500Y-87857142D01*
X160128690Y-87880952D01*
X160152500Y-87904761D01*
X160176309Y-87880952D01*
X160128690Y-87880952D01*
X160009642Y-88119047D02*
X159676309Y-88119047D01*
X159962023Y-88119047D02*
X159985833Y-88142857D01*
X160009642Y-88190476D01*
X160009642Y-88261904D01*
X159985833Y-88309523D01*
X159938214Y-88333333D01*
X159676309Y-88333333D01*
X159676309Y-88571428D02*
X160176309Y-88571428D01*
X159985833Y-88571428D02*
X160009642Y-88619047D01*
X160009642Y-88714285D01*
X159985833Y-88761904D01*
X159962023Y-88785714D01*
X159914404Y-88809523D01*
X159771547Y-88809523D01*
X159723928Y-88785714D01*
X159700119Y-88761904D01*
X159676309Y-88714285D01*
X159676309Y-88619047D01*
X159700119Y-88571428D01*
X159676309Y-89023809D02*
X160009642Y-89023809D01*
X159914404Y-89023809D02*
X159962023Y-89047619D01*
X159985833Y-89071428D01*
X160009642Y-89119047D01*
X160009642Y-89166666D01*
X159676309Y-89547619D02*
X159938214Y-89547619D01*
X159985833Y-89523809D01*
X160009642Y-89476190D01*
X160009642Y-89380952D01*
X159985833Y-89333333D01*
X159700119Y-89547619D02*
X159676309Y-89500000D01*
X159676309Y-89380952D01*
X159700119Y-89333333D01*
X159747738Y-89309523D01*
X159795357Y-89309523D01*
X159842976Y-89333333D01*
X159866785Y-89380952D01*
X159866785Y-89500000D01*
X159890595Y-89547619D01*
X159133214Y-79785714D02*
X159133214Y-79619047D01*
X158871309Y-79619047D02*
X159371309Y-79619047D01*
X159371309Y-79857142D01*
X158871309Y-80119047D02*
X158895119Y-80071428D01*
X158918928Y-80047619D01*
X158966547Y-80023809D01*
X159109404Y-80023809D01*
X159157023Y-80047619D01*
X159180833Y-80071428D01*
X159204642Y-80119047D01*
X159204642Y-80190476D01*
X159180833Y-80238095D01*
X159157023Y-80261904D01*
X159109404Y-80285714D01*
X158966547Y-80285714D01*
X158918928Y-80261904D01*
X158895119Y-80238095D01*
X158871309Y-80190476D01*
X158871309Y-80119047D01*
X158871309Y-80500000D02*
X159204642Y-80500000D01*
X159109404Y-80500000D02*
X159157023Y-80523809D01*
X159180833Y-80547619D01*
X159204642Y-80595238D01*
X159204642Y-80642857D01*
X159204642Y-80738095D02*
X159204642Y-80928571D01*
X159371309Y-80809523D02*
X158942738Y-80809523D01*
X158895119Y-80833333D01*
X158871309Y-80880952D01*
X158871309Y-80928571D01*
X158871309Y-81095238D02*
X159204642Y-81095238D01*
X159371309Y-81095238D02*
X159347500Y-81071428D01*
X159323690Y-81095238D01*
X159347500Y-81119047D01*
X159371309Y-81095238D01*
X159323690Y-81095238D01*
X159204642Y-81333333D02*
X158871309Y-81333333D01*
X159157023Y-81333333D02*
X159180833Y-81357142D01*
X159204642Y-81404761D01*
X159204642Y-81476190D01*
X159180833Y-81523809D01*
X159133214Y-81547619D01*
X158871309Y-81547619D01*
X158871309Y-81785714D02*
X159371309Y-81785714D01*
X159180833Y-81785714D02*
X159204642Y-81833333D01*
X159204642Y-81928571D01*
X159180833Y-81976190D01*
X159157023Y-82000000D01*
X159109404Y-82023809D01*
X158966547Y-82023809D01*
X158918928Y-82000000D01*
X158895119Y-81976190D01*
X158871309Y-81928571D01*
X158871309Y-81833333D01*
X158895119Y-81785714D01*
X158871309Y-82238095D02*
X159204642Y-82238095D01*
X159109404Y-82238095D02*
X159157023Y-82261904D01*
X159180833Y-82285714D01*
X159204642Y-82333333D01*
X159204642Y-82380952D01*
X158871309Y-82761904D02*
X159133214Y-82761904D01*
X159180833Y-82738095D01*
X159204642Y-82690476D01*
X159204642Y-82595238D01*
X159180833Y-82547619D01*
X158895119Y-82761904D02*
X158871309Y-82714285D01*
X158871309Y-82595238D01*
X158895119Y-82547619D01*
X158942738Y-82523809D01*
X158990357Y-82523809D01*
X159037976Y-82547619D01*
X159061785Y-82595238D01*
X159061785Y-82714285D01*
X159085595Y-82761904D01*
X159109404Y-83309523D02*
X159133214Y-83285714D01*
X159157023Y-83238095D01*
X159157023Y-83190476D01*
X159133214Y-83142857D01*
X159109404Y-83119047D01*
X159061785Y-83095238D01*
X159014166Y-83095238D01*
X158966547Y-83119047D01*
X158942738Y-83142857D01*
X158918928Y-83190476D01*
X158918928Y-83238095D01*
X158942738Y-83285714D01*
X158966547Y-83309523D01*
X159157023Y-83309523D02*
X158966547Y-83309523D01*
X158942738Y-83333333D01*
X158942738Y-83357142D01*
X158966547Y-83404761D01*
X159014166Y-83428571D01*
X159133214Y-83428571D01*
X159204642Y-83380952D01*
X159252261Y-83309523D01*
X159276071Y-83214285D01*
X159252261Y-83119047D01*
X159204642Y-83047619D01*
X159133214Y-83000000D01*
X159037976Y-82976190D01*
X158942738Y-83000000D01*
X158871309Y-83047619D01*
X158823690Y-83119047D01*
X158799880Y-83214285D01*
X158823690Y-83309523D01*
X158871309Y-83380952D01*
X158871309Y-83642857D02*
X159371309Y-83642857D01*
X159180833Y-83642857D02*
X159204642Y-83690476D01*
X159204642Y-83785714D01*
X159180833Y-83833333D01*
X159157023Y-83857142D01*
X159109404Y-83880952D01*
X158966547Y-83880952D01*
X158918928Y-83857142D01*
X158895119Y-83833333D01*
X158871309Y-83785714D01*
X158871309Y-83690476D01*
X158895119Y-83642857D01*
X158895119Y-84285714D02*
X158871309Y-84238095D01*
X158871309Y-84142857D01*
X158895119Y-84095238D01*
X158942738Y-84071428D01*
X159133214Y-84071428D01*
X159180833Y-84095238D01*
X159204642Y-84142857D01*
X159204642Y-84238095D01*
X159180833Y-84285714D01*
X159133214Y-84309523D01*
X159085595Y-84309523D01*
X159037976Y-84071428D01*
X158895119Y-84738095D02*
X158871309Y-84690476D01*
X158871309Y-84595238D01*
X158895119Y-84547619D01*
X158918928Y-84523809D01*
X158966547Y-84500000D01*
X159109404Y-84500000D01*
X159157023Y-84523809D01*
X159180833Y-84547619D01*
X159204642Y-84595238D01*
X159204642Y-84690476D01*
X159180833Y-84738095D01*
X158871309Y-85166666D02*
X159133214Y-85166666D01*
X159180833Y-85142857D01*
X159204642Y-85095238D01*
X159204642Y-85000000D01*
X159180833Y-84952380D01*
X158895119Y-85166666D02*
X158871309Y-85119047D01*
X158871309Y-85000000D01*
X158895119Y-84952380D01*
X158942738Y-84928571D01*
X158990357Y-84928571D01*
X159037976Y-84952380D01*
X159061785Y-85000000D01*
X159061785Y-85119047D01*
X159085595Y-85166666D01*
X159204642Y-85619047D02*
X158871309Y-85619047D01*
X159204642Y-85404761D02*
X158942738Y-85404761D01*
X158895119Y-85428571D01*
X158871309Y-85476190D01*
X158871309Y-85547619D01*
X158895119Y-85595238D01*
X158918928Y-85619047D01*
X158895119Y-85833333D02*
X158871309Y-85880952D01*
X158871309Y-85976190D01*
X158895119Y-86023809D01*
X158942738Y-86047619D01*
X158966547Y-86047619D01*
X159014166Y-86023809D01*
X159037976Y-85976190D01*
X159037976Y-85904761D01*
X159061785Y-85857142D01*
X159109404Y-85833333D01*
X159133214Y-85833333D01*
X159180833Y-85857142D01*
X159204642Y-85904761D01*
X159204642Y-85976190D01*
X159180833Y-86023809D01*
X158895119Y-86452380D02*
X158871309Y-86404761D01*
X158871309Y-86309523D01*
X158895119Y-86261904D01*
X158942738Y-86238095D01*
X159133214Y-86238095D01*
X159180833Y-86261904D01*
X159204642Y-86309523D01*
X159204642Y-86404761D01*
X159180833Y-86452380D01*
X159133214Y-86476190D01*
X159085595Y-86476190D01*
X159037976Y-86238095D01*
X158871309Y-86690476D02*
X159204642Y-86690476D01*
X159371309Y-86690476D02*
X159347500Y-86666666D01*
X159323690Y-86690476D01*
X159347500Y-86714285D01*
X159371309Y-86690476D01*
X159323690Y-86690476D01*
X158871309Y-86928571D02*
X159204642Y-86928571D01*
X159157023Y-86928571D02*
X159180833Y-86952380D01*
X159204642Y-87000000D01*
X159204642Y-87071428D01*
X159180833Y-87119047D01*
X159133214Y-87142857D01*
X158871309Y-87142857D01*
X159133214Y-87142857D02*
X159180833Y-87166666D01*
X159204642Y-87214285D01*
X159204642Y-87285714D01*
X159180833Y-87333333D01*
X159133214Y-87357142D01*
X158871309Y-87357142D01*
X158895119Y-87809523D02*
X158871309Y-87761904D01*
X158871309Y-87666666D01*
X158895119Y-87619047D01*
X158918928Y-87595238D01*
X158966547Y-87571428D01*
X159109404Y-87571428D01*
X159157023Y-87595238D01*
X159180833Y-87619047D01*
X159204642Y-87666666D01*
X159204642Y-87761904D01*
X159180833Y-87809523D01*
X158871309Y-88095238D02*
X158895119Y-88047619D01*
X158942738Y-88023809D01*
X159371309Y-88023809D01*
X158895119Y-88476190D02*
X158871309Y-88428571D01*
X158871309Y-88333333D01*
X158895119Y-88285714D01*
X158942738Y-88261904D01*
X159133214Y-88261904D01*
X159180833Y-88285714D01*
X159204642Y-88333333D01*
X159204642Y-88428571D01*
X159180833Y-88476190D01*
X159133214Y-88500000D01*
X159085595Y-88500000D01*
X159037976Y-88261904D01*
X159204642Y-88666666D02*
X158871309Y-88785714D01*
X159204642Y-88904761D01*
X158895119Y-89285714D02*
X158871309Y-89238095D01*
X158871309Y-89142857D01*
X158895119Y-89095238D01*
X158942738Y-89071428D01*
X159133214Y-89071428D01*
X159180833Y-89095238D01*
X159204642Y-89142857D01*
X159204642Y-89238095D01*
X159180833Y-89285714D01*
X159133214Y-89309523D01*
X159085595Y-89309523D01*
X159037976Y-89071428D01*
X158871309Y-89523809D02*
X159204642Y-89523809D01*
X159109404Y-89523809D02*
X159157023Y-89547619D01*
X159180833Y-89571428D01*
X159204642Y-89619047D01*
X159204642Y-89666666D01*
X158918928Y-89833333D02*
X158895119Y-89857142D01*
X158871309Y-89833333D01*
X158895119Y-89809523D01*
X158918928Y-89833333D01*
X158871309Y-89833333D01*
X158895119Y-90285714D02*
X158871309Y-90238095D01*
X158871309Y-90142857D01*
X158895119Y-90095238D01*
X158918928Y-90071428D01*
X158966547Y-90047619D01*
X159109404Y-90047619D01*
X159157023Y-90071428D01*
X159180833Y-90095238D01*
X159204642Y-90142857D01*
X159204642Y-90238095D01*
X159180833Y-90285714D01*
X158871309Y-90571428D02*
X158895119Y-90523809D01*
X158918928Y-90500000D01*
X158966547Y-90476190D01*
X159109404Y-90476190D01*
X159157023Y-90500000D01*
X159180833Y-90523809D01*
X159204642Y-90571428D01*
X159204642Y-90642857D01*
X159180833Y-90690476D01*
X159157023Y-90714285D01*
X159109404Y-90738095D01*
X158966547Y-90738095D01*
X158918928Y-90714285D01*
X158895119Y-90690476D01*
X158871309Y-90642857D01*
X158871309Y-90571428D01*
X158871309Y-90952380D02*
X159204642Y-90952380D01*
X159157023Y-90952380D02*
X159180833Y-90976190D01*
X159204642Y-91023809D01*
X159204642Y-91095238D01*
X159180833Y-91142857D01*
X159133214Y-91166666D01*
X158871309Y-91166666D01*
X159133214Y-91166666D02*
X159180833Y-91190476D01*
X159204642Y-91238095D01*
X159204642Y-91309523D01*
X159180833Y-91357142D01*
X159133214Y-91380952D01*
X158871309Y-91380952D01*
D11*
X166666666Y-94976190D02*
X166666666Y-94500000D01*
X166952380Y-95071428D02*
X165952380Y-94738095D01*
X166952380Y-94404761D01*
X166952380Y-94071428D02*
X165952380Y-94071428D01*
X166952380Y-93595238D02*
X165952380Y-93595238D01*
X166952380Y-93023809D01*
X165952380Y-93023809D01*
X166952380Y-92023809D02*
X166952380Y-92595238D01*
X166952380Y-92309523D02*
X165952380Y-92309523D01*
X166095238Y-92404761D01*
X166190476Y-92500000D01*
X166238095Y-92595238D01*
X164166666Y-94976190D02*
X164166666Y-94500000D01*
X164452380Y-95071428D02*
X163452380Y-94738095D01*
X164452380Y-94404761D01*
X164452380Y-94071428D02*
X163452380Y-94071428D01*
X164452380Y-93595238D02*
X163452380Y-93595238D01*
X164452380Y-93023809D01*
X163452380Y-93023809D01*
X163452380Y-92357142D02*
X163452380Y-92261904D01*
X163500000Y-92166666D01*
X163547619Y-92119047D01*
X163642857Y-92071428D01*
X163833333Y-92023809D01*
X164071428Y-92023809D01*
X164261904Y-92071428D01*
X164357142Y-92119047D01*
X164404761Y-92166666D01*
X164452380Y-92261904D01*
X164452380Y-92357142D01*
X164404761Y-92452380D01*
X164357142Y-92500000D01*
X164261904Y-92547619D01*
X164071428Y-92595238D01*
X163833333Y-92595238D01*
X163642857Y-92547619D01*
X163547619Y-92500000D01*
X163500000Y-92452380D01*
X163452380Y-92357142D01*
X169166666Y-94976190D02*
X169166666Y-94500000D01*
X169452380Y-95071428D02*
X168452380Y-94738095D01*
X169452380Y-94404761D01*
X169452380Y-94071428D02*
X168452380Y-94071428D01*
X169452380Y-93595238D02*
X168452380Y-93595238D01*
X169452380Y-93023809D01*
X168452380Y-93023809D01*
X168547619Y-92595238D02*
X168500000Y-92547619D01*
X168452380Y-92452380D01*
X168452380Y-92214285D01*
X168500000Y-92119047D01*
X168547619Y-92071428D01*
X168642857Y-92023809D01*
X168738095Y-92023809D01*
X168880952Y-92071428D01*
X169452380Y-92642857D01*
X169452380Y-92023809D01*
X176312000Y-94761904D02*
X176264380Y-94857142D01*
X176264380Y-95000000D01*
X176312000Y-95142857D01*
X176407238Y-95238095D01*
X176502476Y-95285714D01*
X176692952Y-95333333D01*
X176835809Y-95333333D01*
X177026285Y-95285714D01*
X177121523Y-95238095D01*
X177216761Y-95142857D01*
X177264380Y-95000000D01*
X177264380Y-94904761D01*
X177216761Y-94761904D01*
X177169142Y-94714285D01*
X176835809Y-94714285D01*
X176835809Y-94904761D01*
X177264380Y-94285714D02*
X176264380Y-94285714D01*
X177264380Y-93714285D01*
X176264380Y-93714285D01*
X177264380Y-93238095D02*
X176264380Y-93238095D01*
X176264380Y-93000000D01*
X176312000Y-92857142D01*
X176407238Y-92761904D01*
X176502476Y-92714285D01*
X176692952Y-92666666D01*
X176835809Y-92666666D01*
X177026285Y-92714285D01*
X177121523Y-92761904D01*
X177216761Y-92857142D01*
X177264380Y-93000000D01*
X177264380Y-93238095D01*
X173952380Y-95190476D02*
X173952380Y-94571428D01*
X174333333Y-94904761D01*
X174333333Y-94761904D01*
X174380952Y-94666666D01*
X174428571Y-94619047D01*
X174523809Y-94571428D01*
X174761904Y-94571428D01*
X174857142Y-94619047D01*
X174904761Y-94666666D01*
X174952380Y-94761904D01*
X174952380Y-95047619D01*
X174904761Y-95142857D01*
X174857142Y-95190476D01*
X174285714Y-94238095D02*
X174952380Y-94000000D01*
X174285714Y-93761904D01*
X173952380Y-93476190D02*
X173952380Y-92857142D01*
X174333333Y-93190476D01*
X174333333Y-93047619D01*
X174380952Y-92952380D01*
X174428571Y-92904761D01*
X174523809Y-92857142D01*
X174761904Y-92857142D01*
X174857142Y-92904761D01*
X174904761Y-92952380D01*
X174952380Y-93047619D01*
X174952380Y-93333333D01*
X174904761Y-93428571D01*
X174857142Y-93476190D01*
X171898666Y-94976190D02*
X171898666Y-94500000D01*
X172184380Y-95071428D02*
X171184380Y-94738095D01*
X172184380Y-94404761D01*
X172184380Y-94071428D02*
X171184380Y-94071428D01*
X172184380Y-93595238D02*
X171184380Y-93595238D01*
X172184380Y-93023809D01*
X171184380Y-93023809D01*
X171184380Y-92642857D02*
X171184380Y-92023809D01*
X171565333Y-92357142D01*
X171565333Y-92214285D01*
X171612952Y-92119047D01*
X171660571Y-92071428D01*
X171755809Y-92023809D01*
X171993904Y-92023809D01*
X172089142Y-92071428D01*
X172136761Y-92119047D01*
X172184380Y-92214285D01*
X172184380Y-92500000D01*
X172136761Y-92595238D01*
X172089142Y-92642857D01*
D12*
%TO.C,U1*%
X170768080Y-85952380D02*
X170768080Y-86761904D01*
X170815699Y-86857142D01*
X170863318Y-86904761D01*
X170958556Y-86952380D01*
X171149032Y-86952380D01*
X171244270Y-86904761D01*
X171291889Y-86857142D01*
X171339508Y-86761904D01*
X171339508Y-85952380D01*
X172339508Y-86952380D02*
X171768080Y-86952380D01*
X172053794Y-86952380D02*
X172053794Y-85952380D01*
X171958556Y-86095238D01*
X171863318Y-86190476D01*
X171768080Y-86238095D01*
%TO.C,J1*%
X166166666Y-75150380D02*
X166166666Y-75864666D01*
X166119047Y-76007523D01*
X166023809Y-76102761D01*
X165880952Y-76150380D01*
X165785714Y-76150380D01*
X167166666Y-76150380D02*
X166595238Y-76150380D01*
X166880952Y-76150380D02*
X166880952Y-75150380D01*
X166785714Y-75293238D01*
X166690476Y-75388476D01*
X166595238Y-75436095D01*
D13*
%TO.C,JP3*%
X161226190Y-88450950D02*
X161226190Y-88403331D01*
X161250000Y-88355712D01*
X161273809Y-88331903D01*
X161321428Y-88308093D01*
X161416666Y-88284284D01*
X161535714Y-88284284D01*
X161630952Y-88308093D01*
X161678571Y-88331903D01*
X161702380Y-88355712D01*
X161726190Y-88403331D01*
X161726190Y-88450950D01*
X161702380Y-88498570D01*
X161678571Y-88522379D01*
X161630952Y-88546189D01*
X161535714Y-88569998D01*
X161416666Y-88569998D01*
X161321428Y-88546189D01*
X161273809Y-88522379D01*
X161250000Y-88498570D01*
X161226190Y-88450950D01*
X161726190Y-88117617D02*
X161392857Y-87855712D01*
X161392857Y-88117617D02*
X161726190Y-87855712D01*
X161392857Y-87450950D02*
X161726190Y-87450950D01*
X161202380Y-87569998D02*
X161559523Y-87689046D01*
X161559523Y-87379522D01*
X161440476Y-87117617D02*
X161416666Y-87165236D01*
X161392857Y-87189046D01*
X161345238Y-87212855D01*
X161321428Y-87212855D01*
X161273809Y-87189046D01*
X161250000Y-87165236D01*
X161226190Y-87117617D01*
X161226190Y-87022379D01*
X161250000Y-86974760D01*
X161273809Y-86950950D01*
X161321428Y-86927141D01*
X161345238Y-86927141D01*
X161392857Y-86950950D01*
X161416666Y-86974760D01*
X161440476Y-87022379D01*
X161440476Y-87117617D01*
X161464285Y-87165236D01*
X161488095Y-87189046D01*
X161535714Y-87212855D01*
X161630952Y-87212855D01*
X161678571Y-87189046D01*
X161702380Y-87165236D01*
X161726190Y-87117617D01*
X161726190Y-87022379D01*
X161702380Y-86974760D01*
X161678571Y-86950950D01*
X161630952Y-86927141D01*
X161535714Y-86927141D01*
X161488095Y-86950950D01*
X161464285Y-86974760D01*
X161440476Y-87022379D01*
D12*
%TO.C,J3*%
X174166666Y-74952380D02*
X174166666Y-75666666D01*
X174119047Y-75809523D01*
X174023809Y-75904761D01*
X173880952Y-75952380D01*
X173785714Y-75952380D01*
X174547619Y-74952380D02*
X175166666Y-74952380D01*
X174833333Y-75333333D01*
X174976190Y-75333333D01*
X175071428Y-75380952D01*
X175119047Y-75428571D01*
X175166666Y-75523809D01*
X175166666Y-75761904D01*
X175119047Y-75857142D01*
X175071428Y-75904761D01*
X174976190Y-75952380D01*
X174690476Y-75952380D01*
X174595238Y-75904761D01*
X174547619Y-75857142D01*
D10*
%TO.C,R3*%
X177958333Y-83113095D02*
X177875000Y-82994047D01*
X177815476Y-83113095D02*
X177815476Y-82863095D01*
X177910714Y-82863095D01*
X177934523Y-82875000D01*
X177946428Y-82886904D01*
X177958333Y-82910714D01*
X177958333Y-82946428D01*
X177946428Y-82970238D01*
X177934523Y-82982142D01*
X177910714Y-82994047D01*
X177815476Y-82994047D01*
X178041666Y-82863095D02*
X178196428Y-82863095D01*
X178113095Y-82958333D01*
X178148809Y-82958333D01*
X178172619Y-82970238D01*
X178184523Y-82982142D01*
X178196428Y-83005952D01*
X178196428Y-83065476D01*
X178184523Y-83089285D01*
X178172619Y-83101190D01*
X178148809Y-83113095D01*
X178077380Y-83113095D01*
X178053571Y-83101190D01*
X178041666Y-83089285D01*
D13*
%TO.C,JP1*%
X161226190Y-83702380D02*
X161226190Y-83654761D01*
X161250000Y-83607142D01*
X161273809Y-83583333D01*
X161321428Y-83559523D01*
X161416666Y-83535714D01*
X161535714Y-83535714D01*
X161630952Y-83559523D01*
X161678571Y-83583333D01*
X161702380Y-83607142D01*
X161726190Y-83654761D01*
X161726190Y-83702380D01*
X161702380Y-83750000D01*
X161678571Y-83773809D01*
X161630952Y-83797619D01*
X161535714Y-83821428D01*
X161416666Y-83821428D01*
X161321428Y-83797619D01*
X161273809Y-83773809D01*
X161250000Y-83750000D01*
X161226190Y-83702380D01*
X161726190Y-83369047D02*
X161392857Y-83107142D01*
X161392857Y-83369047D02*
X161726190Y-83107142D01*
X161392857Y-82702380D02*
X161726190Y-82702380D01*
X161202380Y-82821428D02*
X161559523Y-82940476D01*
X161559523Y-82630952D01*
X161226190Y-82345238D02*
X161226190Y-82297619D01*
X161250000Y-82250000D01*
X161273809Y-82226190D01*
X161321428Y-82202380D01*
X161416666Y-82178571D01*
X161535714Y-82178571D01*
X161630952Y-82202380D01*
X161678571Y-82226190D01*
X161702380Y-82250000D01*
X161726190Y-82297619D01*
X161726190Y-82345238D01*
X161702380Y-82392857D01*
X161678571Y-82416666D01*
X161630952Y-82440476D01*
X161535714Y-82464285D01*
X161416666Y-82464285D01*
X161321428Y-82440476D01*
X161273809Y-82416666D01*
X161250000Y-82392857D01*
X161226190Y-82345238D01*
D10*
%TO.C,C1*%
X177958333Y-89185285D02*
X177946428Y-89197190D01*
X177910714Y-89209095D01*
X177886904Y-89209095D01*
X177851190Y-89197190D01*
X177827380Y-89173380D01*
X177815476Y-89149571D01*
X177803571Y-89101952D01*
X177803571Y-89066238D01*
X177815476Y-89018619D01*
X177827380Y-88994809D01*
X177851190Y-88971000D01*
X177886904Y-88959095D01*
X177910714Y-88959095D01*
X177946428Y-88971000D01*
X177958333Y-88982904D01*
X178196428Y-89209095D02*
X178053571Y-89209095D01*
X178125000Y-89209095D02*
X178125000Y-88959095D01*
X178101190Y-88994809D01*
X178077380Y-89018619D01*
X178053571Y-89030523D01*
%TO.C,R2*%
X177958333Y-87177095D02*
X177875000Y-87058047D01*
X177815476Y-87177095D02*
X177815476Y-86927095D01*
X177910714Y-86927095D01*
X177934523Y-86939000D01*
X177946428Y-86950904D01*
X177958333Y-86974714D01*
X177958333Y-87010428D01*
X177946428Y-87034238D01*
X177934523Y-87046142D01*
X177910714Y-87058047D01*
X177815476Y-87058047D01*
X178053571Y-86950904D02*
X178065476Y-86939000D01*
X178089285Y-86927095D01*
X178148809Y-86927095D01*
X178172619Y-86939000D01*
X178184523Y-86950904D01*
X178196428Y-86974714D01*
X178196428Y-86998523D01*
X178184523Y-87034238D01*
X178041666Y-87177095D01*
X178196428Y-87177095D01*
%TO.C,R1*%
X177958333Y-85145095D02*
X177875000Y-85026047D01*
X177815476Y-85145095D02*
X177815476Y-84895095D01*
X177910714Y-84895095D01*
X177934523Y-84907000D01*
X177946428Y-84918904D01*
X177958333Y-84942714D01*
X177958333Y-84978428D01*
X177946428Y-85002238D01*
X177934523Y-85014142D01*
X177910714Y-85026047D01*
X177815476Y-85026047D01*
X178196428Y-85145095D02*
X178053571Y-85145095D01*
X178125000Y-85145095D02*
X178125000Y-84895095D01*
X178101190Y-84930809D01*
X178077380Y-84954619D01*
X178053571Y-84966523D01*
%TO.C,J2*%
X162542666Y-96363095D02*
X162542666Y-96541666D01*
X162530761Y-96577380D01*
X162506952Y-96601190D01*
X162471238Y-96613095D01*
X162447428Y-96613095D01*
X162649809Y-96386904D02*
X162661714Y-96375000D01*
X162685523Y-96363095D01*
X162745047Y-96363095D01*
X162768857Y-96375000D01*
X162780761Y-96386904D01*
X162792666Y-96410714D01*
X162792666Y-96434523D01*
X162780761Y-96470238D01*
X162637904Y-96613095D01*
X162792666Y-96613095D01*
D13*
%TO.C,JP4*%
X161226190Y-90837140D02*
X161226190Y-90789521D01*
X161250000Y-90741902D01*
X161273809Y-90718093D01*
X161321428Y-90694283D01*
X161416666Y-90670474D01*
X161535714Y-90670474D01*
X161630952Y-90694283D01*
X161678571Y-90718093D01*
X161702380Y-90741902D01*
X161726190Y-90789521D01*
X161726190Y-90837140D01*
X161702380Y-90884759D01*
X161678571Y-90908569D01*
X161630952Y-90932378D01*
X161535714Y-90956188D01*
X161416666Y-90956188D01*
X161321428Y-90932378D01*
X161273809Y-90908569D01*
X161250000Y-90884759D01*
X161226190Y-90837140D01*
X161726190Y-90503807D02*
X161392857Y-90241902D01*
X161392857Y-90503807D02*
X161726190Y-90241902D01*
X161392857Y-89837140D02*
X161726190Y-89837140D01*
X161202380Y-89956188D02*
X161559523Y-90075235D01*
X161559523Y-89765712D01*
X161678571Y-89289521D02*
X161702380Y-89313331D01*
X161726190Y-89384759D01*
X161726190Y-89432378D01*
X161702380Y-89503807D01*
X161654761Y-89551426D01*
X161607142Y-89575235D01*
X161511904Y-89599045D01*
X161440476Y-89599045D01*
X161345238Y-89575235D01*
X161297619Y-89551426D01*
X161250000Y-89503807D01*
X161226190Y-89432378D01*
X161226190Y-89384759D01*
X161250000Y-89313331D01*
X161273809Y-89289521D01*
%TO.C,JP2*%
X161226190Y-86076665D02*
X161226190Y-86029046D01*
X161250000Y-85981427D01*
X161273809Y-85957618D01*
X161321428Y-85933808D01*
X161416666Y-85909999D01*
X161535714Y-85909999D01*
X161630952Y-85933808D01*
X161678571Y-85957618D01*
X161702380Y-85981427D01*
X161726190Y-86029046D01*
X161726190Y-86076665D01*
X161702380Y-86124285D01*
X161678571Y-86148094D01*
X161630952Y-86171904D01*
X161535714Y-86195713D01*
X161416666Y-86195713D01*
X161321428Y-86171904D01*
X161273809Y-86148094D01*
X161250000Y-86124285D01*
X161226190Y-86076665D01*
X161726190Y-85743332D02*
X161392857Y-85481427D01*
X161392857Y-85743332D02*
X161726190Y-85481427D01*
X161392857Y-85076665D02*
X161726190Y-85076665D01*
X161202380Y-85195713D02*
X161559523Y-85314761D01*
X161559523Y-85005237D01*
X161392857Y-84600475D02*
X161726190Y-84600475D01*
X161202380Y-84719523D02*
X161559523Y-84838570D01*
X161559523Y-84529046D01*
D10*
%TO.C,C2*%
X177958333Y-91217285D02*
X177946428Y-91229190D01*
X177910714Y-91241095D01*
X177886904Y-91241095D01*
X177851190Y-91229190D01*
X177827380Y-91205380D01*
X177815476Y-91181571D01*
X177803571Y-91133952D01*
X177803571Y-91098238D01*
X177815476Y-91050619D01*
X177827380Y-91026809D01*
X177851190Y-91003000D01*
X177886904Y-90991095D01*
X177910714Y-90991095D01*
X177946428Y-91003000D01*
X177958333Y-91014904D01*
X178053571Y-91014904D02*
X178065476Y-91003000D01*
X178089285Y-90991095D01*
X178148809Y-90991095D01*
X178172619Y-91003000D01*
X178184523Y-91014904D01*
X178196428Y-91038714D01*
X178196428Y-91062523D01*
X178184523Y-91098238D01*
X178041666Y-91241095D01*
X178196428Y-91241095D01*
D14*
%TO.C,U1*%
X168650001Y-89049997D02*
X172349999Y-89049997D01*
X166999999Y-83750000D02*
X172349999Y-83750000D01*
%TO.C,J1*%
X163390000Y-76285000D02*
X163390000Y-78785000D01*
X169610000Y-76285000D02*
X169610000Y-78785000D01*
X168440000Y-74315000D02*
X164560000Y-74315000D01*
X169610000Y-78785000D02*
X168560000Y-78785000D01*
X163390000Y-78785000D02*
X164440000Y-78785000D01*
X168560000Y-78785000D02*
X168560000Y-79775000D01*
%TO.C,JP3*%
X164900000Y-86748570D02*
X164900000Y-88748570D01*
X164900000Y-88748570D02*
X162100000Y-88748570D01*
X162100000Y-88748570D02*
X162100000Y-86748570D01*
X162100000Y-86748570D02*
X164900000Y-86748570D01*
%TO.C,J3*%
X176440000Y-74315000D02*
X172560000Y-74315000D01*
X171390000Y-76285000D02*
X171390000Y-78785000D01*
X177610000Y-78785000D02*
X176560000Y-78785000D01*
X171390000Y-78785000D02*
X172440000Y-78785000D01*
X177610000Y-76285000D02*
X177610000Y-78785000D01*
X176560000Y-78785000D02*
X176560000Y-79775000D01*
%TO.C,R3*%
X178227064Y-82265000D02*
X177772936Y-82265000D01*
X178227064Y-83735000D02*
X177772936Y-83735000D01*
%TO.C,JP1*%
X164900000Y-84000000D02*
X162100000Y-84000000D01*
X162100000Y-84000000D02*
X162100000Y-82000000D01*
X162100000Y-82000000D02*
X164900000Y-82000000D01*
X164900000Y-82000000D02*
X164900000Y-84000000D01*
%TO.C,C1*%
X178261252Y-88361000D02*
X177738748Y-88361000D01*
X178261252Y-89831000D02*
X177738748Y-89831000D01*
%TO.C,R2*%
X178227064Y-86329000D02*
X177772936Y-86329000D01*
X178227064Y-87799000D02*
X177772936Y-87799000D01*
%TO.C,R1*%
X178227064Y-84297000D02*
X177772936Y-84297000D01*
X178227064Y-85767000D02*
X177772936Y-85767000D01*
%TO.C,J2*%
X162820000Y-98330000D02*
X162820000Y-97000000D01*
X165420000Y-98330000D02*
X165420000Y-95670000D01*
X178180000Y-98330000D02*
X178180000Y-95670000D01*
X165420000Y-95670000D02*
X178180000Y-95670000D01*
X164150000Y-98330000D02*
X162820000Y-98330000D01*
X165420000Y-98330000D02*
X178180000Y-98330000D01*
%TO.C,JP4*%
X162100000Y-89122855D02*
X164900000Y-89122855D01*
X162100000Y-91122855D02*
X162100000Y-89122855D01*
X164900000Y-89122855D02*
X164900000Y-91122855D01*
X164900000Y-91122855D02*
X162100000Y-91122855D01*
%TO.C,JP2*%
X164900000Y-84374285D02*
X164900000Y-86374285D01*
X162100000Y-86374285D02*
X162100000Y-84374285D01*
X164900000Y-86374285D02*
X162100000Y-86374285D01*
X162100000Y-84374285D02*
X164900000Y-84374285D01*
%TO.C,C2*%
X177738748Y-91863000D02*
X178261252Y-91863000D01*
X177738748Y-90393000D02*
X178261252Y-90393000D01*
%TD*%
M02*
