%TF.GenerationSoftware,KiCad,Pcbnew,(6.0.5)*%
%TF.CreationDate,2022-07-17T01:21:54-05:00*%
%TF.ProjectId,ADS1219,41445331-3231-4392-9e6b-696361645f70,4*%
%TF.SameCoordinates,Original*%
%TF.FileFunction,Legend,Bot*%
%TF.FilePolarity,Positive*%
%FSLAX46Y46*%
G04 Gerber Fmt 4.6, Leading zero omitted, Abs format (unit mm)*
G04 Created by KiCad (PCBNEW (6.0.5)) date 2022-07-17 01:21:54*
%MOMM*%
%LPD*%
G01*
G04 APERTURE LIST*
%ADD10C,0.125000*%
%ADD11C,0.062500*%
%ADD12C,0.120000*%
G04 APERTURE END LIST*
D10*
X163199142Y-80687333D02*
X162961047Y-80687333D01*
X163246761Y-80830190D02*
X163080095Y-80330190D01*
X162913428Y-80830190D01*
X162651523Y-80330190D02*
X162603904Y-80330190D01*
X162556285Y-80354000D01*
X162532476Y-80377809D01*
X162508666Y-80425428D01*
X162484857Y-80520666D01*
X162484857Y-80639714D01*
X162508666Y-80734952D01*
X162532476Y-80782571D01*
X162556285Y-80806380D01*
X162603904Y-80830190D01*
X162651523Y-80830190D01*
X162699142Y-80806380D01*
X162722952Y-80782571D01*
X162746761Y-80734952D01*
X162770571Y-80639714D01*
X162770571Y-80520666D01*
X162746761Y-80425428D01*
X162722952Y-80377809D01*
X162699142Y-80354000D01*
X162651523Y-80330190D01*
%TO.C,JP5*%
X165762952Y-75020000D02*
X165810571Y-74996190D01*
X165882000Y-74996190D01*
X165953428Y-75020000D01*
X166001047Y-75067619D01*
X166024857Y-75115238D01*
X166048666Y-75210476D01*
X166048666Y-75281904D01*
X166024857Y-75377142D01*
X166001047Y-75424761D01*
X165953428Y-75472380D01*
X165882000Y-75496190D01*
X165834380Y-75496190D01*
X165762952Y-75472380D01*
X165739142Y-75448571D01*
X165739142Y-75281904D01*
X165834380Y-75281904D01*
X165524857Y-75496190D02*
X165524857Y-74996190D01*
X165239142Y-75496190D01*
X165239142Y-74996190D01*
X165001047Y-75496190D02*
X165001047Y-74996190D01*
X164882000Y-74996190D01*
X164810571Y-75020000D01*
X164762952Y-75067619D01*
X164739142Y-75115238D01*
X164715333Y-75210476D01*
X164715333Y-75281904D01*
X164739142Y-75377142D01*
X164762952Y-75424761D01*
X164810571Y-75472380D01*
X164882000Y-75496190D01*
X165001047Y-75496190D01*
D11*
%TO.C,JP7*%
X165590333Y-80461095D02*
X165590333Y-80639666D01*
X165602238Y-80675380D01*
X165626047Y-80699190D01*
X165661761Y-80711095D01*
X165685571Y-80711095D01*
X165471285Y-80711095D02*
X165471285Y-80461095D01*
X165376047Y-80461095D01*
X165352238Y-80473000D01*
X165340333Y-80484904D01*
X165328428Y-80508714D01*
X165328428Y-80544428D01*
X165340333Y-80568238D01*
X165352238Y-80580142D01*
X165376047Y-80592047D01*
X165471285Y-80592047D01*
X165245095Y-80461095D02*
X165078428Y-80461095D01*
X165185571Y-80711095D01*
D10*
X163806380Y-81266857D02*
X163830190Y-81338285D01*
X163830190Y-81457333D01*
X163806380Y-81504952D01*
X163782571Y-81528761D01*
X163734952Y-81552571D01*
X163687333Y-81552571D01*
X163639714Y-81528761D01*
X163615904Y-81504952D01*
X163592095Y-81457333D01*
X163568285Y-81362095D01*
X163544476Y-81314476D01*
X163520666Y-81290666D01*
X163473047Y-81266857D01*
X163425428Y-81266857D01*
X163377809Y-81290666D01*
X163354000Y-81314476D01*
X163330190Y-81362095D01*
X163330190Y-81481142D01*
X163354000Y-81552571D01*
X163830190Y-81766857D02*
X163330190Y-81766857D01*
X163330190Y-81885904D01*
X163354000Y-81957333D01*
X163401619Y-82004952D01*
X163449238Y-82028761D01*
X163544476Y-82052571D01*
X163615904Y-82052571D01*
X163711142Y-82028761D01*
X163758761Y-82004952D01*
X163806380Y-81957333D01*
X163830190Y-81885904D01*
X163830190Y-81766857D01*
X163687333Y-82243047D02*
X163687333Y-82481142D01*
X163830190Y-82195428D02*
X163330190Y-82362095D01*
X163830190Y-82528761D01*
D11*
%TO.C,JP8*%
X165590333Y-83001095D02*
X165590333Y-83179666D01*
X165602238Y-83215380D01*
X165626047Y-83239190D01*
X165661761Y-83251095D01*
X165685571Y-83251095D01*
X165471285Y-83251095D02*
X165471285Y-83001095D01*
X165376047Y-83001095D01*
X165352238Y-83013000D01*
X165340333Y-83024904D01*
X165328428Y-83048714D01*
X165328428Y-83084428D01*
X165340333Y-83108238D01*
X165352238Y-83120142D01*
X165376047Y-83132047D01*
X165471285Y-83132047D01*
X165185571Y-83108238D02*
X165209380Y-83096333D01*
X165221285Y-83084428D01*
X165233190Y-83060619D01*
X165233190Y-83048714D01*
X165221285Y-83024904D01*
X165209380Y-83013000D01*
X165185571Y-83001095D01*
X165137952Y-83001095D01*
X165114142Y-83013000D01*
X165102238Y-83024904D01*
X165090333Y-83048714D01*
X165090333Y-83060619D01*
X165102238Y-83084428D01*
X165114142Y-83096333D01*
X165137952Y-83108238D01*
X165185571Y-83108238D01*
X165209380Y-83120142D01*
X165221285Y-83132047D01*
X165233190Y-83155857D01*
X165233190Y-83203476D01*
X165221285Y-83227285D01*
X165209380Y-83239190D01*
X165185571Y-83251095D01*
X165137952Y-83251095D01*
X165114142Y-83239190D01*
X165102238Y-83227285D01*
X165090333Y-83203476D01*
X165090333Y-83155857D01*
X165102238Y-83132047D01*
X165114142Y-83120142D01*
X165137952Y-83108238D01*
D10*
X163806380Y-83818761D02*
X163830190Y-83890190D01*
X163830190Y-84009238D01*
X163806380Y-84056857D01*
X163782571Y-84080666D01*
X163734952Y-84104476D01*
X163687333Y-84104476D01*
X163639714Y-84080666D01*
X163615904Y-84056857D01*
X163592095Y-84009238D01*
X163568285Y-83914000D01*
X163544476Y-83866380D01*
X163520666Y-83842571D01*
X163473047Y-83818761D01*
X163425428Y-83818761D01*
X163377809Y-83842571D01*
X163354000Y-83866380D01*
X163330190Y-83914000D01*
X163330190Y-84033047D01*
X163354000Y-84104476D01*
X163782571Y-84604476D02*
X163806380Y-84580666D01*
X163830190Y-84509238D01*
X163830190Y-84461619D01*
X163806380Y-84390190D01*
X163758761Y-84342571D01*
X163711142Y-84318761D01*
X163615904Y-84294952D01*
X163544476Y-84294952D01*
X163449238Y-84318761D01*
X163401619Y-84342571D01*
X163354000Y-84390190D01*
X163330190Y-84461619D01*
X163330190Y-84509238D01*
X163354000Y-84580666D01*
X163377809Y-84604476D01*
X163830190Y-85056857D02*
X163830190Y-84818761D01*
X163330190Y-84818761D01*
D11*
%TO.C,JP6*%
X165590333Y-77927095D02*
X165590333Y-78105666D01*
X165602238Y-78141380D01*
X165626047Y-78165190D01*
X165661761Y-78177095D01*
X165685571Y-78177095D01*
X165471285Y-78177095D02*
X165471285Y-77927095D01*
X165376047Y-77927095D01*
X165352238Y-77939000D01*
X165340333Y-77950904D01*
X165328428Y-77974714D01*
X165328428Y-78010428D01*
X165340333Y-78034238D01*
X165352238Y-78046142D01*
X165376047Y-78058047D01*
X165471285Y-78058047D01*
X165114142Y-77927095D02*
X165161761Y-77927095D01*
X165185571Y-77939000D01*
X165197476Y-77950904D01*
X165221285Y-77986619D01*
X165233190Y-78034238D01*
X165233190Y-78129476D01*
X165221285Y-78153285D01*
X165209380Y-78165190D01*
X165185571Y-78177095D01*
X165137952Y-78177095D01*
X165114142Y-78165190D01*
X165102238Y-78153285D01*
X165090333Y-78129476D01*
X165090333Y-78069952D01*
X165102238Y-78046142D01*
X165114142Y-78034238D01*
X165137952Y-78022333D01*
X165185571Y-78022333D01*
X165209380Y-78034238D01*
X165221285Y-78046142D01*
X165233190Y-78069952D01*
D10*
X163330190Y-78484761D02*
X163330190Y-78794285D01*
X163520666Y-78627619D01*
X163520666Y-78699047D01*
X163544476Y-78746666D01*
X163568285Y-78770476D01*
X163615904Y-78794285D01*
X163734952Y-78794285D01*
X163782571Y-78770476D01*
X163806380Y-78746666D01*
X163830190Y-78699047D01*
X163830190Y-78556190D01*
X163806380Y-78508571D01*
X163782571Y-78484761D01*
X163496857Y-78960952D02*
X163830190Y-79080000D01*
X163496857Y-79199047D01*
X163330190Y-79341904D02*
X163330190Y-79651428D01*
X163520666Y-79484761D01*
X163520666Y-79556190D01*
X163544476Y-79603809D01*
X163568285Y-79627619D01*
X163615904Y-79651428D01*
X163734952Y-79651428D01*
X163782571Y-79627619D01*
X163806380Y-79603809D01*
X163830190Y-79556190D01*
X163830190Y-79413333D01*
X163806380Y-79365714D01*
X163782571Y-79341904D01*
D12*
%TO.C,JP5*%
X163950000Y-77794000D02*
X166750000Y-77794000D01*
X166750000Y-75794000D02*
X163950000Y-75794000D01*
X166750000Y-77794000D02*
X166750000Y-75794000D01*
X163950000Y-75794000D02*
X163950000Y-77794000D01*
%TO.C,JP7*%
X166782000Y-80874000D02*
X163982000Y-80874000D01*
X163982000Y-82874000D02*
X166782000Y-82874000D01*
X166782000Y-82874000D02*
X166782000Y-80874000D01*
X163982000Y-80874000D02*
X163982000Y-82874000D01*
%TO.C,JP8*%
X163982000Y-83414000D02*
X163982000Y-85414000D01*
X166782000Y-85414000D02*
X166782000Y-83414000D01*
X166782000Y-83414000D02*
X163982000Y-83414000D01*
X163982000Y-85414000D02*
X166782000Y-85414000D01*
%TO.C,JP6*%
X166782000Y-80334000D02*
X166782000Y-78334000D01*
X163982000Y-80334000D02*
X166782000Y-80334000D01*
X163982000Y-78334000D02*
X163982000Y-80334000D01*
X166782000Y-78334000D02*
X163982000Y-78334000D01*
%TD*%
M02*
