%TF.GenerationSoftware,KiCad,Pcbnew,7.0.5*%
%TF.CreationDate,2023-07-07T17:48:50-05:00*%
%TF.ProjectId,ADS1219,41445331-3231-4392-9e6b-696361645f70,4*%
%TF.SameCoordinates,Original*%
%TF.FileFunction,Drillmap*%
%TF.FilePolarity,Positive*%
%FSLAX45Y45*%
G04 Gerber Fmt 4.5, Leading zero omitted, Abs format (unit mm)*
G04 Created by KiCad (PCBNEW 7.0.5) date 2023-07-07 17:48:50*
%MOMM*%
%LPD*%
G01*
G04 APERTURE LIST*
%ADD10C,0.100000*%
%ADD11C,0.200000*%
%ADD12C,0.040000*%
G04 APERTURE END LIST*
D10*
X15800000Y-7400000D02*
X18300000Y-7400000D01*
X18300000Y-9900000D01*
X15800000Y-9900000D01*
X15800000Y-7400000D01*
D11*
D12*
X16230000Y-8480000D02*
X16270000Y-8520000D01*
X16270000Y-8480000D02*
X16230000Y-8520000D01*
X16230000Y-8730000D02*
X16270000Y-8770000D01*
X16270000Y-8730000D02*
X16230000Y-8770000D01*
X16480000Y-7730000D02*
X16520000Y-7770000D01*
X16520000Y-7730000D02*
X16480000Y-7770000D01*
X16880000Y-7780000D02*
X16920000Y-7820000D01*
X16920000Y-7780000D02*
X16880000Y-7820000D01*
X16880000Y-8430000D02*
X16920000Y-8470000D01*
X16920000Y-8430000D02*
X16880000Y-8470000D01*
X16880000Y-8730000D02*
X16920000Y-8770000D01*
X16920000Y-8730000D02*
X16880000Y-8770000D01*
X16880000Y-8830000D02*
X16920000Y-8870000D01*
X16920000Y-8830000D02*
X16880000Y-8870000D01*
X17030000Y-7780000D02*
X17070000Y-7820000D01*
X17070000Y-7780000D02*
X17030000Y-7820000D01*
X17030000Y-8480000D02*
X17070000Y-8520000D01*
X17070000Y-8480000D02*
X17030000Y-8520000D01*
X17180000Y-8130000D02*
X17220000Y-8170000D01*
X17220000Y-8130000D02*
X17180000Y-8170000D01*
X17230000Y-9280000D02*
X17270000Y-9320000D01*
X17270000Y-9280000D02*
X17230000Y-9320000D01*
X17380000Y-7730000D02*
X17420000Y-7770000D01*
X17420000Y-7730000D02*
X17380000Y-7770000D01*
X17480000Y-8080000D02*
X17520000Y-8120000D01*
X17520000Y-8080000D02*
X17480000Y-8120000D01*
X17580000Y-7730000D02*
X17620000Y-7770000D01*
X17620000Y-7730000D02*
X17580000Y-7770000D01*
X17651800Y-8658200D02*
X17691800Y-8698200D01*
X17691800Y-8658200D02*
X17651800Y-8698200D01*
X17680000Y-8480000D02*
X17720000Y-8520000D01*
X17720000Y-8480000D02*
X17680000Y-8520000D01*
D10*
X16465000Y-9700000D02*
G75*
G03*
X16465000Y-9700000I-50000J0D01*
G01*
X16719000Y-9700000D02*
G75*
G03*
X16719000Y-9700000I-50000J0D01*
G01*
X16973000Y-9700000D02*
G75*
G03*
X16973000Y-9700000I-50000J0D01*
G01*
X17227000Y-9700000D02*
G75*
G03*
X17227000Y-9700000I-50000J0D01*
G01*
X17481000Y-9700000D02*
G75*
G03*
X17481000Y-9700000I-50000J0D01*
G01*
X17735000Y-9700000D02*
G75*
G03*
X17735000Y-9700000I-50000J0D01*
G01*
X18050000Y-8050000D02*
G75*
G03*
X18050000Y-8050000I-50000J0D01*
G01*
D11*
X16055777Y-10216484D02*
X16055777Y-10016484D01*
X16055777Y-10016484D02*
X16103396Y-10016484D01*
X16103396Y-10016484D02*
X16131967Y-10026008D01*
X16131967Y-10026008D02*
X16151015Y-10045055D01*
X16151015Y-10045055D02*
X16160539Y-10064103D01*
X16160539Y-10064103D02*
X16170062Y-10102198D01*
X16170062Y-10102198D02*
X16170062Y-10130770D01*
X16170062Y-10130770D02*
X16160539Y-10168865D01*
X16160539Y-10168865D02*
X16151015Y-10187912D01*
X16151015Y-10187912D02*
X16131967Y-10206960D01*
X16131967Y-10206960D02*
X16103396Y-10216484D01*
X16103396Y-10216484D02*
X16055777Y-10216484D01*
X16255777Y-10216484D02*
X16255777Y-10083150D01*
X16255777Y-10121246D02*
X16265301Y-10102198D01*
X16265301Y-10102198D02*
X16274824Y-10092674D01*
X16274824Y-10092674D02*
X16293872Y-10083150D01*
X16293872Y-10083150D02*
X16312920Y-10083150D01*
X16379586Y-10216484D02*
X16379586Y-10083150D01*
X16379586Y-10016484D02*
X16370062Y-10026008D01*
X16370062Y-10026008D02*
X16379586Y-10035531D01*
X16379586Y-10035531D02*
X16389110Y-10026008D01*
X16389110Y-10026008D02*
X16379586Y-10016484D01*
X16379586Y-10016484D02*
X16379586Y-10035531D01*
X16503396Y-10216484D02*
X16484348Y-10206960D01*
X16484348Y-10206960D02*
X16474824Y-10187912D01*
X16474824Y-10187912D02*
X16474824Y-10016484D01*
X16608158Y-10216484D02*
X16589110Y-10206960D01*
X16589110Y-10206960D02*
X16579586Y-10187912D01*
X16579586Y-10187912D02*
X16579586Y-10016484D01*
X16836729Y-10216484D02*
X16836729Y-10016484D01*
X16836729Y-10016484D02*
X16903396Y-10159341D01*
X16903396Y-10159341D02*
X16970063Y-10016484D01*
X16970063Y-10016484D02*
X16970063Y-10216484D01*
X17151015Y-10216484D02*
X17151015Y-10111722D01*
X17151015Y-10111722D02*
X17141491Y-10092674D01*
X17141491Y-10092674D02*
X17122444Y-10083150D01*
X17122444Y-10083150D02*
X17084348Y-10083150D01*
X17084348Y-10083150D02*
X17065301Y-10092674D01*
X17151015Y-10206960D02*
X17131967Y-10216484D01*
X17131967Y-10216484D02*
X17084348Y-10216484D01*
X17084348Y-10216484D02*
X17065301Y-10206960D01*
X17065301Y-10206960D02*
X17055777Y-10187912D01*
X17055777Y-10187912D02*
X17055777Y-10168865D01*
X17055777Y-10168865D02*
X17065301Y-10149817D01*
X17065301Y-10149817D02*
X17084348Y-10140293D01*
X17084348Y-10140293D02*
X17131967Y-10140293D01*
X17131967Y-10140293D02*
X17151015Y-10130770D01*
X17246253Y-10083150D02*
X17246253Y-10283150D01*
X17246253Y-10092674D02*
X17265301Y-10083150D01*
X17265301Y-10083150D02*
X17303396Y-10083150D01*
X17303396Y-10083150D02*
X17322444Y-10092674D01*
X17322444Y-10092674D02*
X17331967Y-10102198D01*
X17331967Y-10102198D02*
X17341491Y-10121246D01*
X17341491Y-10121246D02*
X17341491Y-10178389D01*
X17341491Y-10178389D02*
X17331967Y-10197436D01*
X17331967Y-10197436D02*
X17322444Y-10206960D01*
X17322444Y-10206960D02*
X17303396Y-10216484D01*
X17303396Y-10216484D02*
X17265301Y-10216484D01*
X17265301Y-10216484D02*
X17246253Y-10206960D01*
X17427205Y-10197436D02*
X17436729Y-10206960D01*
X17436729Y-10206960D02*
X17427205Y-10216484D01*
X17427205Y-10216484D02*
X17417682Y-10206960D01*
X17417682Y-10206960D02*
X17427205Y-10197436D01*
X17427205Y-10197436D02*
X17427205Y-10216484D01*
X17427205Y-10092674D02*
X17436729Y-10102198D01*
X17436729Y-10102198D02*
X17427205Y-10111722D01*
X17427205Y-10111722D02*
X17417682Y-10102198D01*
X17417682Y-10102198D02*
X17427205Y-10092674D01*
X17427205Y-10092674D02*
X17427205Y-10111722D01*
D12*
X15755000Y-10525000D02*
X15795000Y-10565000D01*
X15795000Y-10525000D02*
X15755000Y-10565000D01*
D11*
X16093872Y-10436484D02*
X16112920Y-10436484D01*
X16112920Y-10436484D02*
X16131967Y-10446008D01*
X16131967Y-10446008D02*
X16141491Y-10455531D01*
X16141491Y-10455531D02*
X16151015Y-10474579D01*
X16151015Y-10474579D02*
X16160539Y-10512674D01*
X16160539Y-10512674D02*
X16160539Y-10560293D01*
X16160539Y-10560293D02*
X16151015Y-10598389D01*
X16151015Y-10598389D02*
X16141491Y-10617436D01*
X16141491Y-10617436D02*
X16131967Y-10626960D01*
X16131967Y-10626960D02*
X16112920Y-10636484D01*
X16112920Y-10636484D02*
X16093872Y-10636484D01*
X16093872Y-10636484D02*
X16074824Y-10626960D01*
X16074824Y-10626960D02*
X16065301Y-10617436D01*
X16065301Y-10617436D02*
X16055777Y-10598389D01*
X16055777Y-10598389D02*
X16046253Y-10560293D01*
X16046253Y-10560293D02*
X16046253Y-10512674D01*
X16046253Y-10512674D02*
X16055777Y-10474579D01*
X16055777Y-10474579D02*
X16065301Y-10455531D01*
X16065301Y-10455531D02*
X16074824Y-10446008D01*
X16074824Y-10446008D02*
X16093872Y-10436484D01*
X16246253Y-10617436D02*
X16255777Y-10626960D01*
X16255777Y-10626960D02*
X16246253Y-10636484D01*
X16246253Y-10636484D02*
X16236729Y-10626960D01*
X16236729Y-10626960D02*
X16246253Y-10617436D01*
X16246253Y-10617436D02*
X16246253Y-10636484D01*
X16427205Y-10503150D02*
X16427205Y-10636484D01*
X16379586Y-10426960D02*
X16331967Y-10569817D01*
X16331967Y-10569817D02*
X16455777Y-10569817D01*
X16570062Y-10436484D02*
X16589110Y-10436484D01*
X16589110Y-10436484D02*
X16608158Y-10446008D01*
X16608158Y-10446008D02*
X16617682Y-10455531D01*
X16617682Y-10455531D02*
X16627205Y-10474579D01*
X16627205Y-10474579D02*
X16636729Y-10512674D01*
X16636729Y-10512674D02*
X16636729Y-10560293D01*
X16636729Y-10560293D02*
X16627205Y-10598389D01*
X16627205Y-10598389D02*
X16617682Y-10617436D01*
X16617682Y-10617436D02*
X16608158Y-10626960D01*
X16608158Y-10626960D02*
X16589110Y-10636484D01*
X16589110Y-10636484D02*
X16570062Y-10636484D01*
X16570062Y-10636484D02*
X16551015Y-10626960D01*
X16551015Y-10626960D02*
X16541491Y-10617436D01*
X16541491Y-10617436D02*
X16531967Y-10598389D01*
X16531967Y-10598389D02*
X16522443Y-10560293D01*
X16522443Y-10560293D02*
X16522443Y-10512674D01*
X16522443Y-10512674D02*
X16531967Y-10474579D01*
X16531967Y-10474579D02*
X16541491Y-10455531D01*
X16541491Y-10455531D02*
X16551015Y-10446008D01*
X16551015Y-10446008D02*
X16570062Y-10436484D01*
X16760539Y-10436484D02*
X16779586Y-10436484D01*
X16779586Y-10436484D02*
X16798634Y-10446008D01*
X16798634Y-10446008D02*
X16808158Y-10455531D01*
X16808158Y-10455531D02*
X16817682Y-10474579D01*
X16817682Y-10474579D02*
X16827205Y-10512674D01*
X16827205Y-10512674D02*
X16827205Y-10560293D01*
X16827205Y-10560293D02*
X16817682Y-10598389D01*
X16817682Y-10598389D02*
X16808158Y-10617436D01*
X16808158Y-10617436D02*
X16798634Y-10626960D01*
X16798634Y-10626960D02*
X16779586Y-10636484D01*
X16779586Y-10636484D02*
X16760539Y-10636484D01*
X16760539Y-10636484D02*
X16741491Y-10626960D01*
X16741491Y-10626960D02*
X16731967Y-10617436D01*
X16731967Y-10617436D02*
X16722443Y-10598389D01*
X16722443Y-10598389D02*
X16712920Y-10560293D01*
X16712920Y-10560293D02*
X16712920Y-10512674D01*
X16712920Y-10512674D02*
X16722443Y-10474579D01*
X16722443Y-10474579D02*
X16731967Y-10455531D01*
X16731967Y-10455531D02*
X16741491Y-10446008D01*
X16741491Y-10446008D02*
X16760539Y-10436484D01*
X16912920Y-10636484D02*
X16912920Y-10503150D01*
X16912920Y-10522198D02*
X16922444Y-10512674D01*
X16922444Y-10512674D02*
X16941491Y-10503150D01*
X16941491Y-10503150D02*
X16970063Y-10503150D01*
X16970063Y-10503150D02*
X16989110Y-10512674D01*
X16989110Y-10512674D02*
X16998634Y-10531722D01*
X16998634Y-10531722D02*
X16998634Y-10636484D01*
X16998634Y-10531722D02*
X17008158Y-10512674D01*
X17008158Y-10512674D02*
X17027205Y-10503150D01*
X17027205Y-10503150D02*
X17055777Y-10503150D01*
X17055777Y-10503150D02*
X17074825Y-10512674D01*
X17074825Y-10512674D02*
X17084348Y-10531722D01*
X17084348Y-10531722D02*
X17084348Y-10636484D01*
X17179586Y-10636484D02*
X17179586Y-10503150D01*
X17179586Y-10522198D02*
X17189110Y-10512674D01*
X17189110Y-10512674D02*
X17208158Y-10503150D01*
X17208158Y-10503150D02*
X17236729Y-10503150D01*
X17236729Y-10503150D02*
X17255777Y-10512674D01*
X17255777Y-10512674D02*
X17265301Y-10531722D01*
X17265301Y-10531722D02*
X17265301Y-10636484D01*
X17265301Y-10531722D02*
X17274825Y-10512674D01*
X17274825Y-10512674D02*
X17293872Y-10503150D01*
X17293872Y-10503150D02*
X17322444Y-10503150D01*
X17322444Y-10503150D02*
X17341491Y-10512674D01*
X17341491Y-10512674D02*
X17351015Y-10531722D01*
X17351015Y-10531722D02*
X17351015Y-10636484D01*
X17741491Y-10426960D02*
X17570063Y-10684103D01*
X17998634Y-10436484D02*
X18017682Y-10436484D01*
X18017682Y-10436484D02*
X18036729Y-10446008D01*
X18036729Y-10446008D02*
X18046253Y-10455531D01*
X18046253Y-10455531D02*
X18055777Y-10474579D01*
X18055777Y-10474579D02*
X18065301Y-10512674D01*
X18065301Y-10512674D02*
X18065301Y-10560293D01*
X18065301Y-10560293D02*
X18055777Y-10598389D01*
X18055777Y-10598389D02*
X18046253Y-10617436D01*
X18046253Y-10617436D02*
X18036729Y-10626960D01*
X18036729Y-10626960D02*
X18017682Y-10636484D01*
X18017682Y-10636484D02*
X17998634Y-10636484D01*
X17998634Y-10636484D02*
X17979587Y-10626960D01*
X17979587Y-10626960D02*
X17970063Y-10617436D01*
X17970063Y-10617436D02*
X17960539Y-10598389D01*
X17960539Y-10598389D02*
X17951015Y-10560293D01*
X17951015Y-10560293D02*
X17951015Y-10512674D01*
X17951015Y-10512674D02*
X17960539Y-10474579D01*
X17960539Y-10474579D02*
X17970063Y-10455531D01*
X17970063Y-10455531D02*
X17979587Y-10446008D01*
X17979587Y-10446008D02*
X17998634Y-10436484D01*
X18151015Y-10617436D02*
X18160539Y-10626960D01*
X18160539Y-10626960D02*
X18151015Y-10636484D01*
X18151015Y-10636484D02*
X18141491Y-10626960D01*
X18141491Y-10626960D02*
X18151015Y-10617436D01*
X18151015Y-10617436D02*
X18151015Y-10636484D01*
X18284348Y-10436484D02*
X18303396Y-10436484D01*
X18303396Y-10436484D02*
X18322444Y-10446008D01*
X18322444Y-10446008D02*
X18331968Y-10455531D01*
X18331968Y-10455531D02*
X18341491Y-10474579D01*
X18341491Y-10474579D02*
X18351015Y-10512674D01*
X18351015Y-10512674D02*
X18351015Y-10560293D01*
X18351015Y-10560293D02*
X18341491Y-10598389D01*
X18341491Y-10598389D02*
X18331968Y-10617436D01*
X18331968Y-10617436D02*
X18322444Y-10626960D01*
X18322444Y-10626960D02*
X18303396Y-10636484D01*
X18303396Y-10636484D02*
X18284348Y-10636484D01*
X18284348Y-10636484D02*
X18265301Y-10626960D01*
X18265301Y-10626960D02*
X18255777Y-10617436D01*
X18255777Y-10617436D02*
X18246253Y-10598389D01*
X18246253Y-10598389D02*
X18236729Y-10560293D01*
X18236729Y-10560293D02*
X18236729Y-10512674D01*
X18236729Y-10512674D02*
X18246253Y-10474579D01*
X18246253Y-10474579D02*
X18255777Y-10455531D01*
X18255777Y-10455531D02*
X18265301Y-10446008D01*
X18265301Y-10446008D02*
X18284348Y-10436484D01*
X18541491Y-10636484D02*
X18427206Y-10636484D01*
X18484348Y-10636484D02*
X18484348Y-10436484D01*
X18484348Y-10436484D02*
X18465301Y-10465055D01*
X18465301Y-10465055D02*
X18446253Y-10484103D01*
X18446253Y-10484103D02*
X18427206Y-10493627D01*
X18722444Y-10436484D02*
X18627206Y-10436484D01*
X18627206Y-10436484D02*
X18617682Y-10531722D01*
X18617682Y-10531722D02*
X18627206Y-10522198D01*
X18627206Y-10522198D02*
X18646253Y-10512674D01*
X18646253Y-10512674D02*
X18693872Y-10512674D01*
X18693872Y-10512674D02*
X18712920Y-10522198D01*
X18712920Y-10522198D02*
X18722444Y-10531722D01*
X18722444Y-10531722D02*
X18731968Y-10550770D01*
X18731968Y-10550770D02*
X18731968Y-10598389D01*
X18731968Y-10598389D02*
X18722444Y-10617436D01*
X18722444Y-10617436D02*
X18712920Y-10626960D01*
X18712920Y-10626960D02*
X18693872Y-10636484D01*
X18693872Y-10636484D02*
X18646253Y-10636484D01*
X18646253Y-10636484D02*
X18627206Y-10626960D01*
X18627206Y-10626960D02*
X18617682Y-10617436D01*
X18798634Y-10436484D02*
X18931968Y-10436484D01*
X18931968Y-10436484D02*
X18846253Y-10636484D01*
X18998634Y-10436484D02*
X18998634Y-10474579D01*
X19074825Y-10436484D02*
X19074825Y-10474579D01*
X19370063Y-10712674D02*
X19360539Y-10703150D01*
X19360539Y-10703150D02*
X19341491Y-10674579D01*
X19341491Y-10674579D02*
X19331968Y-10655531D01*
X19331968Y-10655531D02*
X19322444Y-10626960D01*
X19322444Y-10626960D02*
X19312920Y-10579341D01*
X19312920Y-10579341D02*
X19312920Y-10541246D01*
X19312920Y-10541246D02*
X19322444Y-10493627D01*
X19322444Y-10493627D02*
X19331968Y-10465055D01*
X19331968Y-10465055D02*
X19341491Y-10446008D01*
X19341491Y-10446008D02*
X19360539Y-10417436D01*
X19360539Y-10417436D02*
X19370063Y-10407912D01*
X19551015Y-10636484D02*
X19436730Y-10636484D01*
X19493872Y-10636484D02*
X19493872Y-10436484D01*
X19493872Y-10436484D02*
X19474825Y-10465055D01*
X19474825Y-10465055D02*
X19455777Y-10484103D01*
X19455777Y-10484103D02*
X19436730Y-10493627D01*
X19722444Y-10436484D02*
X19684349Y-10436484D01*
X19684349Y-10436484D02*
X19665301Y-10446008D01*
X19665301Y-10446008D02*
X19655777Y-10455531D01*
X19655777Y-10455531D02*
X19636730Y-10484103D01*
X19636730Y-10484103D02*
X19627206Y-10522198D01*
X19627206Y-10522198D02*
X19627206Y-10598389D01*
X19627206Y-10598389D02*
X19636730Y-10617436D01*
X19636730Y-10617436D02*
X19646253Y-10626960D01*
X19646253Y-10626960D02*
X19665301Y-10636484D01*
X19665301Y-10636484D02*
X19703396Y-10636484D01*
X19703396Y-10636484D02*
X19722444Y-10626960D01*
X19722444Y-10626960D02*
X19731968Y-10617436D01*
X19731968Y-10617436D02*
X19741491Y-10598389D01*
X19741491Y-10598389D02*
X19741491Y-10550770D01*
X19741491Y-10550770D02*
X19731968Y-10531722D01*
X19731968Y-10531722D02*
X19722444Y-10522198D01*
X19722444Y-10522198D02*
X19703396Y-10512674D01*
X19703396Y-10512674D02*
X19665301Y-10512674D01*
X19665301Y-10512674D02*
X19646253Y-10522198D01*
X19646253Y-10522198D02*
X19636730Y-10531722D01*
X19636730Y-10531722D02*
X19627206Y-10550770D01*
X19979587Y-10636484D02*
X19979587Y-10436484D01*
X20065301Y-10636484D02*
X20065301Y-10531722D01*
X20065301Y-10531722D02*
X20055777Y-10512674D01*
X20055777Y-10512674D02*
X20036730Y-10503150D01*
X20036730Y-10503150D02*
X20008158Y-10503150D01*
X20008158Y-10503150D02*
X19989111Y-10512674D01*
X19989111Y-10512674D02*
X19979587Y-10522198D01*
X20189111Y-10636484D02*
X20170063Y-10626960D01*
X20170063Y-10626960D02*
X20160539Y-10617436D01*
X20160539Y-10617436D02*
X20151015Y-10598389D01*
X20151015Y-10598389D02*
X20151015Y-10541246D01*
X20151015Y-10541246D02*
X20160539Y-10522198D01*
X20160539Y-10522198D02*
X20170063Y-10512674D01*
X20170063Y-10512674D02*
X20189111Y-10503150D01*
X20189111Y-10503150D02*
X20217682Y-10503150D01*
X20217682Y-10503150D02*
X20236730Y-10512674D01*
X20236730Y-10512674D02*
X20246253Y-10522198D01*
X20246253Y-10522198D02*
X20255777Y-10541246D01*
X20255777Y-10541246D02*
X20255777Y-10598389D01*
X20255777Y-10598389D02*
X20246253Y-10617436D01*
X20246253Y-10617436D02*
X20236730Y-10626960D01*
X20236730Y-10626960D02*
X20217682Y-10636484D01*
X20217682Y-10636484D02*
X20189111Y-10636484D01*
X20370063Y-10636484D02*
X20351015Y-10626960D01*
X20351015Y-10626960D02*
X20341492Y-10607912D01*
X20341492Y-10607912D02*
X20341492Y-10436484D01*
X20522444Y-10626960D02*
X20503396Y-10636484D01*
X20503396Y-10636484D02*
X20465301Y-10636484D01*
X20465301Y-10636484D02*
X20446253Y-10626960D01*
X20446253Y-10626960D02*
X20436730Y-10607912D01*
X20436730Y-10607912D02*
X20436730Y-10531722D01*
X20436730Y-10531722D02*
X20446253Y-10512674D01*
X20446253Y-10512674D02*
X20465301Y-10503150D01*
X20465301Y-10503150D02*
X20503396Y-10503150D01*
X20503396Y-10503150D02*
X20522444Y-10512674D01*
X20522444Y-10512674D02*
X20531968Y-10531722D01*
X20531968Y-10531722D02*
X20531968Y-10550770D01*
X20531968Y-10550770D02*
X20436730Y-10569817D01*
X20608158Y-10626960D02*
X20627206Y-10636484D01*
X20627206Y-10636484D02*
X20665301Y-10636484D01*
X20665301Y-10636484D02*
X20684349Y-10626960D01*
X20684349Y-10626960D02*
X20693873Y-10607912D01*
X20693873Y-10607912D02*
X20693873Y-10598389D01*
X20693873Y-10598389D02*
X20684349Y-10579341D01*
X20684349Y-10579341D02*
X20665301Y-10569817D01*
X20665301Y-10569817D02*
X20636730Y-10569817D01*
X20636730Y-10569817D02*
X20617682Y-10560293D01*
X20617682Y-10560293D02*
X20608158Y-10541246D01*
X20608158Y-10541246D02*
X20608158Y-10531722D01*
X20608158Y-10531722D02*
X20617682Y-10512674D01*
X20617682Y-10512674D02*
X20636730Y-10503150D01*
X20636730Y-10503150D02*
X20665301Y-10503150D01*
X20665301Y-10503150D02*
X20684349Y-10512674D01*
X20760539Y-10712674D02*
X20770063Y-10703150D01*
X20770063Y-10703150D02*
X20789111Y-10674579D01*
X20789111Y-10674579D02*
X20798634Y-10655531D01*
X20798634Y-10655531D02*
X20808158Y-10626960D01*
X20808158Y-10626960D02*
X20817682Y-10579341D01*
X20817682Y-10579341D02*
X20817682Y-10541246D01*
X20817682Y-10541246D02*
X20808158Y-10493627D01*
X20808158Y-10493627D02*
X20798634Y-10465055D01*
X20798634Y-10465055D02*
X20789111Y-10446008D01*
X20789111Y-10446008D02*
X20770063Y-10417436D01*
X20770063Y-10417436D02*
X20760539Y-10407912D01*
D10*
X15795000Y-10809000D02*
G75*
G03*
X15795000Y-10809000I-50000J0D01*
G01*
D11*
X16160539Y-10900484D02*
X16046253Y-10900484D01*
X16103396Y-10900484D02*
X16103396Y-10700484D01*
X16103396Y-10700484D02*
X16084348Y-10729055D01*
X16084348Y-10729055D02*
X16065301Y-10748103D01*
X16065301Y-10748103D02*
X16046253Y-10757627D01*
X16246253Y-10881436D02*
X16255777Y-10890960D01*
X16255777Y-10890960D02*
X16246253Y-10900484D01*
X16246253Y-10900484D02*
X16236729Y-10890960D01*
X16236729Y-10890960D02*
X16246253Y-10881436D01*
X16246253Y-10881436D02*
X16246253Y-10900484D01*
X16379586Y-10700484D02*
X16398634Y-10700484D01*
X16398634Y-10700484D02*
X16417682Y-10710008D01*
X16417682Y-10710008D02*
X16427205Y-10719531D01*
X16427205Y-10719531D02*
X16436729Y-10738579D01*
X16436729Y-10738579D02*
X16446253Y-10776674D01*
X16446253Y-10776674D02*
X16446253Y-10824293D01*
X16446253Y-10824293D02*
X16436729Y-10862389D01*
X16436729Y-10862389D02*
X16427205Y-10881436D01*
X16427205Y-10881436D02*
X16417682Y-10890960D01*
X16417682Y-10890960D02*
X16398634Y-10900484D01*
X16398634Y-10900484D02*
X16379586Y-10900484D01*
X16379586Y-10900484D02*
X16360539Y-10890960D01*
X16360539Y-10890960D02*
X16351015Y-10881436D01*
X16351015Y-10881436D02*
X16341491Y-10862389D01*
X16341491Y-10862389D02*
X16331967Y-10824293D01*
X16331967Y-10824293D02*
X16331967Y-10776674D01*
X16331967Y-10776674D02*
X16341491Y-10738579D01*
X16341491Y-10738579D02*
X16351015Y-10719531D01*
X16351015Y-10719531D02*
X16360539Y-10710008D01*
X16360539Y-10710008D02*
X16379586Y-10700484D01*
X16570062Y-10700484D02*
X16589110Y-10700484D01*
X16589110Y-10700484D02*
X16608158Y-10710008D01*
X16608158Y-10710008D02*
X16617682Y-10719531D01*
X16617682Y-10719531D02*
X16627205Y-10738579D01*
X16627205Y-10738579D02*
X16636729Y-10776674D01*
X16636729Y-10776674D02*
X16636729Y-10824293D01*
X16636729Y-10824293D02*
X16627205Y-10862389D01*
X16627205Y-10862389D02*
X16617682Y-10881436D01*
X16617682Y-10881436D02*
X16608158Y-10890960D01*
X16608158Y-10890960D02*
X16589110Y-10900484D01*
X16589110Y-10900484D02*
X16570062Y-10900484D01*
X16570062Y-10900484D02*
X16551015Y-10890960D01*
X16551015Y-10890960D02*
X16541491Y-10881436D01*
X16541491Y-10881436D02*
X16531967Y-10862389D01*
X16531967Y-10862389D02*
X16522443Y-10824293D01*
X16522443Y-10824293D02*
X16522443Y-10776674D01*
X16522443Y-10776674D02*
X16531967Y-10738579D01*
X16531967Y-10738579D02*
X16541491Y-10719531D01*
X16541491Y-10719531D02*
X16551015Y-10710008D01*
X16551015Y-10710008D02*
X16570062Y-10700484D01*
X16760539Y-10700484D02*
X16779586Y-10700484D01*
X16779586Y-10700484D02*
X16798634Y-10710008D01*
X16798634Y-10710008D02*
X16808158Y-10719531D01*
X16808158Y-10719531D02*
X16817682Y-10738579D01*
X16817682Y-10738579D02*
X16827205Y-10776674D01*
X16827205Y-10776674D02*
X16827205Y-10824293D01*
X16827205Y-10824293D02*
X16817682Y-10862389D01*
X16817682Y-10862389D02*
X16808158Y-10881436D01*
X16808158Y-10881436D02*
X16798634Y-10890960D01*
X16798634Y-10890960D02*
X16779586Y-10900484D01*
X16779586Y-10900484D02*
X16760539Y-10900484D01*
X16760539Y-10900484D02*
X16741491Y-10890960D01*
X16741491Y-10890960D02*
X16731967Y-10881436D01*
X16731967Y-10881436D02*
X16722443Y-10862389D01*
X16722443Y-10862389D02*
X16712920Y-10824293D01*
X16712920Y-10824293D02*
X16712920Y-10776674D01*
X16712920Y-10776674D02*
X16722443Y-10738579D01*
X16722443Y-10738579D02*
X16731967Y-10719531D01*
X16731967Y-10719531D02*
X16741491Y-10710008D01*
X16741491Y-10710008D02*
X16760539Y-10700484D01*
X16912920Y-10900484D02*
X16912920Y-10767150D01*
X16912920Y-10786198D02*
X16922444Y-10776674D01*
X16922444Y-10776674D02*
X16941491Y-10767150D01*
X16941491Y-10767150D02*
X16970063Y-10767150D01*
X16970063Y-10767150D02*
X16989110Y-10776674D01*
X16989110Y-10776674D02*
X16998634Y-10795722D01*
X16998634Y-10795722D02*
X16998634Y-10900484D01*
X16998634Y-10795722D02*
X17008158Y-10776674D01*
X17008158Y-10776674D02*
X17027205Y-10767150D01*
X17027205Y-10767150D02*
X17055777Y-10767150D01*
X17055777Y-10767150D02*
X17074825Y-10776674D01*
X17074825Y-10776674D02*
X17084348Y-10795722D01*
X17084348Y-10795722D02*
X17084348Y-10900484D01*
X17179586Y-10900484D02*
X17179586Y-10767150D01*
X17179586Y-10786198D02*
X17189110Y-10776674D01*
X17189110Y-10776674D02*
X17208158Y-10767150D01*
X17208158Y-10767150D02*
X17236729Y-10767150D01*
X17236729Y-10767150D02*
X17255777Y-10776674D01*
X17255777Y-10776674D02*
X17265301Y-10795722D01*
X17265301Y-10795722D02*
X17265301Y-10900484D01*
X17265301Y-10795722D02*
X17274825Y-10776674D01*
X17274825Y-10776674D02*
X17293872Y-10767150D01*
X17293872Y-10767150D02*
X17322444Y-10767150D01*
X17322444Y-10767150D02*
X17341491Y-10776674D01*
X17341491Y-10776674D02*
X17351015Y-10795722D01*
X17351015Y-10795722D02*
X17351015Y-10900484D01*
X17741491Y-10690960D02*
X17570063Y-10948103D01*
X17998634Y-10700484D02*
X18017682Y-10700484D01*
X18017682Y-10700484D02*
X18036729Y-10710008D01*
X18036729Y-10710008D02*
X18046253Y-10719531D01*
X18046253Y-10719531D02*
X18055777Y-10738579D01*
X18055777Y-10738579D02*
X18065301Y-10776674D01*
X18065301Y-10776674D02*
X18065301Y-10824293D01*
X18065301Y-10824293D02*
X18055777Y-10862389D01*
X18055777Y-10862389D02*
X18046253Y-10881436D01*
X18046253Y-10881436D02*
X18036729Y-10890960D01*
X18036729Y-10890960D02*
X18017682Y-10900484D01*
X18017682Y-10900484D02*
X17998634Y-10900484D01*
X17998634Y-10900484D02*
X17979587Y-10890960D01*
X17979587Y-10890960D02*
X17970063Y-10881436D01*
X17970063Y-10881436D02*
X17960539Y-10862389D01*
X17960539Y-10862389D02*
X17951015Y-10824293D01*
X17951015Y-10824293D02*
X17951015Y-10776674D01*
X17951015Y-10776674D02*
X17960539Y-10738579D01*
X17960539Y-10738579D02*
X17970063Y-10719531D01*
X17970063Y-10719531D02*
X17979587Y-10710008D01*
X17979587Y-10710008D02*
X17998634Y-10700484D01*
X18151015Y-10881436D02*
X18160539Y-10890960D01*
X18160539Y-10890960D02*
X18151015Y-10900484D01*
X18151015Y-10900484D02*
X18141491Y-10890960D01*
X18141491Y-10890960D02*
X18151015Y-10881436D01*
X18151015Y-10881436D02*
X18151015Y-10900484D01*
X18284348Y-10700484D02*
X18303396Y-10700484D01*
X18303396Y-10700484D02*
X18322444Y-10710008D01*
X18322444Y-10710008D02*
X18331968Y-10719531D01*
X18331968Y-10719531D02*
X18341491Y-10738579D01*
X18341491Y-10738579D02*
X18351015Y-10776674D01*
X18351015Y-10776674D02*
X18351015Y-10824293D01*
X18351015Y-10824293D02*
X18341491Y-10862389D01*
X18341491Y-10862389D02*
X18331968Y-10881436D01*
X18331968Y-10881436D02*
X18322444Y-10890960D01*
X18322444Y-10890960D02*
X18303396Y-10900484D01*
X18303396Y-10900484D02*
X18284348Y-10900484D01*
X18284348Y-10900484D02*
X18265301Y-10890960D01*
X18265301Y-10890960D02*
X18255777Y-10881436D01*
X18255777Y-10881436D02*
X18246253Y-10862389D01*
X18246253Y-10862389D02*
X18236729Y-10824293D01*
X18236729Y-10824293D02*
X18236729Y-10776674D01*
X18236729Y-10776674D02*
X18246253Y-10738579D01*
X18246253Y-10738579D02*
X18255777Y-10719531D01*
X18255777Y-10719531D02*
X18265301Y-10710008D01*
X18265301Y-10710008D02*
X18284348Y-10700484D01*
X18417682Y-10700484D02*
X18541491Y-10700484D01*
X18541491Y-10700484D02*
X18474825Y-10776674D01*
X18474825Y-10776674D02*
X18503396Y-10776674D01*
X18503396Y-10776674D02*
X18522444Y-10786198D01*
X18522444Y-10786198D02*
X18531968Y-10795722D01*
X18531968Y-10795722D02*
X18541491Y-10814770D01*
X18541491Y-10814770D02*
X18541491Y-10862389D01*
X18541491Y-10862389D02*
X18531968Y-10881436D01*
X18531968Y-10881436D02*
X18522444Y-10890960D01*
X18522444Y-10890960D02*
X18503396Y-10900484D01*
X18503396Y-10900484D02*
X18446253Y-10900484D01*
X18446253Y-10900484D02*
X18427206Y-10890960D01*
X18427206Y-10890960D02*
X18417682Y-10881436D01*
X18636729Y-10900484D02*
X18674825Y-10900484D01*
X18674825Y-10900484D02*
X18693872Y-10890960D01*
X18693872Y-10890960D02*
X18703396Y-10881436D01*
X18703396Y-10881436D02*
X18722444Y-10852865D01*
X18722444Y-10852865D02*
X18731968Y-10814770D01*
X18731968Y-10814770D02*
X18731968Y-10738579D01*
X18731968Y-10738579D02*
X18722444Y-10719531D01*
X18722444Y-10719531D02*
X18712920Y-10710008D01*
X18712920Y-10710008D02*
X18693872Y-10700484D01*
X18693872Y-10700484D02*
X18655777Y-10700484D01*
X18655777Y-10700484D02*
X18636729Y-10710008D01*
X18636729Y-10710008D02*
X18627206Y-10719531D01*
X18627206Y-10719531D02*
X18617682Y-10738579D01*
X18617682Y-10738579D02*
X18617682Y-10786198D01*
X18617682Y-10786198D02*
X18627206Y-10805246D01*
X18627206Y-10805246D02*
X18636729Y-10814770D01*
X18636729Y-10814770D02*
X18655777Y-10824293D01*
X18655777Y-10824293D02*
X18693872Y-10824293D01*
X18693872Y-10824293D02*
X18712920Y-10814770D01*
X18712920Y-10814770D02*
X18722444Y-10805246D01*
X18722444Y-10805246D02*
X18731968Y-10786198D01*
X18903396Y-10767150D02*
X18903396Y-10900484D01*
X18855777Y-10690960D02*
X18808158Y-10833817D01*
X18808158Y-10833817D02*
X18931968Y-10833817D01*
X18998634Y-10700484D02*
X18998634Y-10738579D01*
X19074825Y-10700484D02*
X19074825Y-10738579D01*
X19370063Y-10976674D02*
X19360539Y-10967150D01*
X19360539Y-10967150D02*
X19341491Y-10938579D01*
X19341491Y-10938579D02*
X19331968Y-10919531D01*
X19331968Y-10919531D02*
X19322444Y-10890960D01*
X19322444Y-10890960D02*
X19312920Y-10843341D01*
X19312920Y-10843341D02*
X19312920Y-10805246D01*
X19312920Y-10805246D02*
X19322444Y-10757627D01*
X19322444Y-10757627D02*
X19331968Y-10729055D01*
X19331968Y-10729055D02*
X19341491Y-10710008D01*
X19341491Y-10710008D02*
X19360539Y-10681436D01*
X19360539Y-10681436D02*
X19370063Y-10671912D01*
X19427206Y-10700484D02*
X19560539Y-10700484D01*
X19560539Y-10700484D02*
X19474825Y-10900484D01*
X19789111Y-10900484D02*
X19789111Y-10700484D01*
X19874825Y-10900484D02*
X19874825Y-10795722D01*
X19874825Y-10795722D02*
X19865301Y-10776674D01*
X19865301Y-10776674D02*
X19846253Y-10767150D01*
X19846253Y-10767150D02*
X19817682Y-10767150D01*
X19817682Y-10767150D02*
X19798634Y-10776674D01*
X19798634Y-10776674D02*
X19789111Y-10786198D01*
X19998634Y-10900484D02*
X19979587Y-10890960D01*
X19979587Y-10890960D02*
X19970063Y-10881436D01*
X19970063Y-10881436D02*
X19960539Y-10862389D01*
X19960539Y-10862389D02*
X19960539Y-10805246D01*
X19960539Y-10805246D02*
X19970063Y-10786198D01*
X19970063Y-10786198D02*
X19979587Y-10776674D01*
X19979587Y-10776674D02*
X19998634Y-10767150D01*
X19998634Y-10767150D02*
X20027206Y-10767150D01*
X20027206Y-10767150D02*
X20046253Y-10776674D01*
X20046253Y-10776674D02*
X20055777Y-10786198D01*
X20055777Y-10786198D02*
X20065301Y-10805246D01*
X20065301Y-10805246D02*
X20065301Y-10862389D01*
X20065301Y-10862389D02*
X20055777Y-10881436D01*
X20055777Y-10881436D02*
X20046253Y-10890960D01*
X20046253Y-10890960D02*
X20027206Y-10900484D01*
X20027206Y-10900484D02*
X19998634Y-10900484D01*
X20179587Y-10900484D02*
X20160539Y-10890960D01*
X20160539Y-10890960D02*
X20151015Y-10871912D01*
X20151015Y-10871912D02*
X20151015Y-10700484D01*
X20331968Y-10890960D02*
X20312920Y-10900484D01*
X20312920Y-10900484D02*
X20274825Y-10900484D01*
X20274825Y-10900484D02*
X20255777Y-10890960D01*
X20255777Y-10890960D02*
X20246253Y-10871912D01*
X20246253Y-10871912D02*
X20246253Y-10795722D01*
X20246253Y-10795722D02*
X20255777Y-10776674D01*
X20255777Y-10776674D02*
X20274825Y-10767150D01*
X20274825Y-10767150D02*
X20312920Y-10767150D01*
X20312920Y-10767150D02*
X20331968Y-10776674D01*
X20331968Y-10776674D02*
X20341492Y-10795722D01*
X20341492Y-10795722D02*
X20341492Y-10814770D01*
X20341492Y-10814770D02*
X20246253Y-10833817D01*
X20417682Y-10890960D02*
X20436730Y-10900484D01*
X20436730Y-10900484D02*
X20474825Y-10900484D01*
X20474825Y-10900484D02*
X20493873Y-10890960D01*
X20493873Y-10890960D02*
X20503396Y-10871912D01*
X20503396Y-10871912D02*
X20503396Y-10862389D01*
X20503396Y-10862389D02*
X20493873Y-10843341D01*
X20493873Y-10843341D02*
X20474825Y-10833817D01*
X20474825Y-10833817D02*
X20446253Y-10833817D01*
X20446253Y-10833817D02*
X20427206Y-10824293D01*
X20427206Y-10824293D02*
X20417682Y-10805246D01*
X20417682Y-10805246D02*
X20417682Y-10795722D01*
X20417682Y-10795722D02*
X20427206Y-10776674D01*
X20427206Y-10776674D02*
X20446253Y-10767150D01*
X20446253Y-10767150D02*
X20474825Y-10767150D01*
X20474825Y-10767150D02*
X20493873Y-10776674D01*
X20570063Y-10976674D02*
X20579587Y-10967150D01*
X20579587Y-10967150D02*
X20598634Y-10938579D01*
X20598634Y-10938579D02*
X20608158Y-10919531D01*
X20608158Y-10919531D02*
X20617682Y-10890960D01*
X20617682Y-10890960D02*
X20627206Y-10843341D01*
X20627206Y-10843341D02*
X20627206Y-10805246D01*
X20627206Y-10805246D02*
X20617682Y-10757627D01*
X20617682Y-10757627D02*
X20608158Y-10729055D01*
X20608158Y-10729055D02*
X20598634Y-10710008D01*
X20598634Y-10710008D02*
X20579587Y-10681436D01*
X20579587Y-10681436D02*
X20570063Y-10671912D01*
M02*
