M48
; DRILL file {KiCad 7.0.5} date Fri Jul  7 17:48:48 2023
; FORMAT={-:-/ absolute / inch / decimal}
; #@! TF.CreationDate,2023-07-07T17:48:48-05:00
; #@! TF.GenerationSoftware,Kicad,Pcbnew,7.0.5
; #@! TF.FileFunction,Plated,1,2,PTH
FMAT,2
INCH
; #@! TA.AperFunction,Plated,PTH,ViaDrill
T1C0.0157
; #@! TA.AperFunction,Plated,PTH,ComponentDrill
T2C0.0394
%
G90
G05
T1
X6.3976Y-3.3465
X6.3976Y-3.4449
X6.4961Y-3.0512
X6.6535Y-3.0709
X6.6535Y-3.3268
X6.6535Y-3.4449
X6.6535Y-3.4843
X6.7126Y-3.0709
X6.7126Y-3.3465
X6.7717Y-3.2087
X6.7913Y-3.6614
X6.8504Y-3.0512
X6.8898Y-3.189
X6.9291Y-3.0512
X6.9574Y-3.4166
X6.9685Y-3.3465
T2
X6.4626Y-3.8189
X6.5626Y-3.8189
X6.6626Y-3.8189
X6.7626Y-3.8189
X6.8626Y-3.8189
X6.9626Y-3.8189
X7.0866Y-3.1693
T0
M30
