%TF.GenerationSoftware,KiCad,Pcbnew,(6.0.5)*%
%TF.CreationDate,2022-06-11T16:37:02-05:00*%
%TF.ProjectId,ADS1219,41445331-3231-4392-9e6b-696361645f70,rev?*%
%TF.SameCoordinates,Original*%
%TF.FileFunction,Legend,Top*%
%TF.FilePolarity,Positive*%
%FSLAX46Y46*%
G04 Gerber Fmt 4.6, Leading zero omitted, Abs format (unit mm)*
G04 Created by KiCad (PCBNEW (6.0.5)) date 2022-06-11 16:37:02*
%MOMM*%
%LPD*%
G01*
G04 APERTURE LIST*
%ADD10C,0.062500*%
%ADD11C,0.120000*%
G04 APERTURE END LIST*
D10*
X164426154Y-77478190D02*
X164676154Y-77478190D01*
X164676154Y-77537714D01*
X164664250Y-77573428D01*
X164640440Y-77597238D01*
X164616630Y-77609142D01*
X164569011Y-77621047D01*
X164533297Y-77621047D01*
X164485678Y-77609142D01*
X164461869Y-77597238D01*
X164438059Y-77573428D01*
X164426154Y-77537714D01*
X164426154Y-77478190D01*
X164438059Y-77823428D02*
X164426154Y-77799619D01*
X164426154Y-77752000D01*
X164438059Y-77728190D01*
X164461869Y-77716285D01*
X164557107Y-77716285D01*
X164580916Y-77728190D01*
X164592821Y-77752000D01*
X164592821Y-77799619D01*
X164580916Y-77823428D01*
X164557107Y-77835333D01*
X164533297Y-77835333D01*
X164509488Y-77716285D01*
X164438059Y-77930571D02*
X164426154Y-77954380D01*
X164426154Y-78002000D01*
X164438059Y-78025809D01*
X164461869Y-78037714D01*
X164473773Y-78037714D01*
X164497583Y-78025809D01*
X164509488Y-78002000D01*
X164509488Y-77966285D01*
X164521392Y-77942476D01*
X164545202Y-77930571D01*
X164557107Y-77930571D01*
X164580916Y-77942476D01*
X164592821Y-77966285D01*
X164592821Y-78002000D01*
X164580916Y-78025809D01*
X164426154Y-78144857D02*
X164592821Y-78144857D01*
X164676154Y-78144857D02*
X164664250Y-78132952D01*
X164652345Y-78144857D01*
X164664250Y-78156761D01*
X164676154Y-78144857D01*
X164652345Y-78144857D01*
X164592821Y-78371047D02*
X164390440Y-78371047D01*
X164366630Y-78359142D01*
X164354726Y-78347238D01*
X164342821Y-78323428D01*
X164342821Y-78287714D01*
X164354726Y-78263904D01*
X164438059Y-78371047D02*
X164426154Y-78347238D01*
X164426154Y-78299619D01*
X164438059Y-78275809D01*
X164449964Y-78263904D01*
X164473773Y-78252000D01*
X164545202Y-78252000D01*
X164569011Y-78263904D01*
X164580916Y-78275809D01*
X164592821Y-78299619D01*
X164592821Y-78347238D01*
X164580916Y-78371047D01*
X164592821Y-78490095D02*
X164426154Y-78490095D01*
X164569011Y-78490095D02*
X164580916Y-78502000D01*
X164592821Y-78525809D01*
X164592821Y-78561523D01*
X164580916Y-78585333D01*
X164557107Y-78597238D01*
X164426154Y-78597238D01*
X164438059Y-78811523D02*
X164426154Y-78787714D01*
X164426154Y-78740095D01*
X164438059Y-78716285D01*
X164461869Y-78704380D01*
X164557107Y-78704380D01*
X164580916Y-78716285D01*
X164592821Y-78740095D01*
X164592821Y-78787714D01*
X164580916Y-78811523D01*
X164557107Y-78823428D01*
X164533297Y-78823428D01*
X164509488Y-78704380D01*
X164426154Y-79037714D02*
X164676154Y-79037714D01*
X164438059Y-79037714D02*
X164426154Y-79013904D01*
X164426154Y-78966285D01*
X164438059Y-78942476D01*
X164449964Y-78930571D01*
X164473773Y-78918666D01*
X164545202Y-78918666D01*
X164569011Y-78930571D01*
X164580916Y-78942476D01*
X164592821Y-78966285D01*
X164592821Y-79013904D01*
X164580916Y-79037714D01*
X164426154Y-79347238D02*
X164676154Y-79347238D01*
X164580916Y-79347238D02*
X164592821Y-79371047D01*
X164592821Y-79418666D01*
X164580916Y-79442476D01*
X164569011Y-79454380D01*
X164545202Y-79466285D01*
X164473773Y-79466285D01*
X164449964Y-79454380D01*
X164438059Y-79442476D01*
X164426154Y-79418666D01*
X164426154Y-79371047D01*
X164438059Y-79347238D01*
X164592821Y-79549619D02*
X164426154Y-79609142D01*
X164592821Y-79668666D02*
X164426154Y-79609142D01*
X164366630Y-79585333D01*
X164354726Y-79573428D01*
X164342821Y-79549619D01*
X164557107Y-80037714D02*
X164557107Y-79954380D01*
X164426154Y-79954380D02*
X164676154Y-79954380D01*
X164676154Y-80073428D01*
X164426154Y-80204380D02*
X164438059Y-80180571D01*
X164449964Y-80168666D01*
X164473773Y-80156761D01*
X164545202Y-80156761D01*
X164569011Y-80168666D01*
X164580916Y-80180571D01*
X164592821Y-80204380D01*
X164592821Y-80240095D01*
X164580916Y-80263904D01*
X164569011Y-80275809D01*
X164545202Y-80287714D01*
X164473773Y-80287714D01*
X164449964Y-80275809D01*
X164438059Y-80263904D01*
X164426154Y-80240095D01*
X164426154Y-80204380D01*
X164426154Y-80394857D02*
X164592821Y-80394857D01*
X164545202Y-80394857D02*
X164569011Y-80406761D01*
X164580916Y-80418666D01*
X164592821Y-80442476D01*
X164592821Y-80466285D01*
X164592821Y-80513904D02*
X164592821Y-80609142D01*
X164676154Y-80549619D02*
X164461869Y-80549619D01*
X164438059Y-80561523D01*
X164426154Y-80585333D01*
X164426154Y-80609142D01*
X164426154Y-80692476D02*
X164592821Y-80692476D01*
X164676154Y-80692476D02*
X164664250Y-80680571D01*
X164652345Y-80692476D01*
X164664250Y-80704380D01*
X164676154Y-80692476D01*
X164652345Y-80692476D01*
X164592821Y-80811523D02*
X164426154Y-80811523D01*
X164569011Y-80811523D02*
X164580916Y-80823428D01*
X164592821Y-80847238D01*
X164592821Y-80882952D01*
X164580916Y-80906761D01*
X164557107Y-80918666D01*
X164426154Y-80918666D01*
X164426154Y-81037714D02*
X164676154Y-81037714D01*
X164580916Y-81037714D02*
X164592821Y-81061523D01*
X164592821Y-81109142D01*
X164580916Y-81132952D01*
X164569011Y-81144857D01*
X164545202Y-81156761D01*
X164473773Y-81156761D01*
X164449964Y-81144857D01*
X164438059Y-81132952D01*
X164426154Y-81109142D01*
X164426154Y-81061523D01*
X164438059Y-81037714D01*
X164426154Y-81263904D02*
X164592821Y-81263904D01*
X164545202Y-81263904D02*
X164569011Y-81275809D01*
X164580916Y-81287714D01*
X164592821Y-81311523D01*
X164592821Y-81335333D01*
X164426154Y-81525809D02*
X164557107Y-81525809D01*
X164580916Y-81513904D01*
X164592821Y-81490095D01*
X164592821Y-81442476D01*
X164580916Y-81418666D01*
X164438059Y-81525809D02*
X164426154Y-81502000D01*
X164426154Y-81442476D01*
X164438059Y-81418666D01*
X164461869Y-81406761D01*
X164485678Y-81406761D01*
X164509488Y-81418666D01*
X164521392Y-81442476D01*
X164521392Y-81502000D01*
X164533297Y-81525809D01*
X164154607Y-76644857D02*
X164154607Y-76561523D01*
X164023654Y-76561523D02*
X164273654Y-76561523D01*
X164273654Y-76680571D01*
X164023654Y-76811523D02*
X164035559Y-76787714D01*
X164047464Y-76775809D01*
X164071273Y-76763904D01*
X164142702Y-76763904D01*
X164166511Y-76775809D01*
X164178416Y-76787714D01*
X164190321Y-76811523D01*
X164190321Y-76847238D01*
X164178416Y-76871047D01*
X164166511Y-76882952D01*
X164142702Y-76894857D01*
X164071273Y-76894857D01*
X164047464Y-76882952D01*
X164035559Y-76871047D01*
X164023654Y-76847238D01*
X164023654Y-76811523D01*
X164023654Y-77002000D02*
X164190321Y-77002000D01*
X164142702Y-77002000D02*
X164166511Y-77013904D01*
X164178416Y-77025809D01*
X164190321Y-77049619D01*
X164190321Y-77073428D01*
X164190321Y-77121047D02*
X164190321Y-77216285D01*
X164273654Y-77156761D02*
X164059369Y-77156761D01*
X164035559Y-77168666D01*
X164023654Y-77192476D01*
X164023654Y-77216285D01*
X164023654Y-77299619D02*
X164190321Y-77299619D01*
X164273654Y-77299619D02*
X164261750Y-77287714D01*
X164249845Y-77299619D01*
X164261750Y-77311523D01*
X164273654Y-77299619D01*
X164249845Y-77299619D01*
X164190321Y-77418666D02*
X164023654Y-77418666D01*
X164166511Y-77418666D02*
X164178416Y-77430571D01*
X164190321Y-77454380D01*
X164190321Y-77490095D01*
X164178416Y-77513904D01*
X164154607Y-77525809D01*
X164023654Y-77525809D01*
X164023654Y-77644857D02*
X164273654Y-77644857D01*
X164178416Y-77644857D02*
X164190321Y-77668666D01*
X164190321Y-77716285D01*
X164178416Y-77740095D01*
X164166511Y-77752000D01*
X164142702Y-77763904D01*
X164071273Y-77763904D01*
X164047464Y-77752000D01*
X164035559Y-77740095D01*
X164023654Y-77716285D01*
X164023654Y-77668666D01*
X164035559Y-77644857D01*
X164023654Y-77871047D02*
X164190321Y-77871047D01*
X164142702Y-77871047D02*
X164166511Y-77882952D01*
X164178416Y-77894857D01*
X164190321Y-77918666D01*
X164190321Y-77942476D01*
X164023654Y-78132952D02*
X164154607Y-78132952D01*
X164178416Y-78121047D01*
X164190321Y-78097238D01*
X164190321Y-78049619D01*
X164178416Y-78025809D01*
X164035559Y-78132952D02*
X164023654Y-78109142D01*
X164023654Y-78049619D01*
X164035559Y-78025809D01*
X164059369Y-78013904D01*
X164083178Y-78013904D01*
X164106988Y-78025809D01*
X164118892Y-78049619D01*
X164118892Y-78109142D01*
X164130797Y-78132952D01*
X164142702Y-78406761D02*
X164154607Y-78394857D01*
X164166511Y-78371047D01*
X164166511Y-78347238D01*
X164154607Y-78323428D01*
X164142702Y-78311523D01*
X164118892Y-78299619D01*
X164095083Y-78299619D01*
X164071273Y-78311523D01*
X164059369Y-78323428D01*
X164047464Y-78347238D01*
X164047464Y-78371047D01*
X164059369Y-78394857D01*
X164071273Y-78406761D01*
X164166511Y-78406761D02*
X164071273Y-78406761D01*
X164059369Y-78418666D01*
X164059369Y-78430571D01*
X164071273Y-78454380D01*
X164095083Y-78466285D01*
X164154607Y-78466285D01*
X164190321Y-78442476D01*
X164214130Y-78406761D01*
X164226035Y-78359142D01*
X164214130Y-78311523D01*
X164190321Y-78275809D01*
X164154607Y-78252000D01*
X164106988Y-78240095D01*
X164059369Y-78252000D01*
X164023654Y-78275809D01*
X163999845Y-78311523D01*
X163987940Y-78359142D01*
X163999845Y-78406761D01*
X164023654Y-78442476D01*
X164023654Y-78573428D02*
X164273654Y-78573428D01*
X164178416Y-78573428D02*
X164190321Y-78597238D01*
X164190321Y-78644857D01*
X164178416Y-78668666D01*
X164166511Y-78680571D01*
X164142702Y-78692476D01*
X164071273Y-78692476D01*
X164047464Y-78680571D01*
X164035559Y-78668666D01*
X164023654Y-78644857D01*
X164023654Y-78597238D01*
X164035559Y-78573428D01*
X164035559Y-78894857D02*
X164023654Y-78871047D01*
X164023654Y-78823428D01*
X164035559Y-78799619D01*
X164059369Y-78787714D01*
X164154607Y-78787714D01*
X164178416Y-78799619D01*
X164190321Y-78823428D01*
X164190321Y-78871047D01*
X164178416Y-78894857D01*
X164154607Y-78906761D01*
X164130797Y-78906761D01*
X164106988Y-78787714D01*
X164035559Y-79121047D02*
X164023654Y-79097238D01*
X164023654Y-79049619D01*
X164035559Y-79025809D01*
X164047464Y-79013904D01*
X164071273Y-79002000D01*
X164142702Y-79002000D01*
X164166511Y-79013904D01*
X164178416Y-79025809D01*
X164190321Y-79049619D01*
X164190321Y-79097238D01*
X164178416Y-79121047D01*
X164023654Y-79335333D02*
X164154607Y-79335333D01*
X164178416Y-79323428D01*
X164190321Y-79299619D01*
X164190321Y-79252000D01*
X164178416Y-79228190D01*
X164035559Y-79335333D02*
X164023654Y-79311523D01*
X164023654Y-79252000D01*
X164035559Y-79228190D01*
X164059369Y-79216285D01*
X164083178Y-79216285D01*
X164106988Y-79228190D01*
X164118892Y-79252000D01*
X164118892Y-79311523D01*
X164130797Y-79335333D01*
X164190321Y-79561523D02*
X164023654Y-79561523D01*
X164190321Y-79454380D02*
X164059369Y-79454380D01*
X164035559Y-79466285D01*
X164023654Y-79490095D01*
X164023654Y-79525809D01*
X164035559Y-79549619D01*
X164047464Y-79561523D01*
X164035559Y-79668666D02*
X164023654Y-79692476D01*
X164023654Y-79740095D01*
X164035559Y-79763904D01*
X164059369Y-79775809D01*
X164071273Y-79775809D01*
X164095083Y-79763904D01*
X164106988Y-79740095D01*
X164106988Y-79704380D01*
X164118892Y-79680571D01*
X164142702Y-79668666D01*
X164154607Y-79668666D01*
X164178416Y-79680571D01*
X164190321Y-79704380D01*
X164190321Y-79740095D01*
X164178416Y-79763904D01*
X164035559Y-79978190D02*
X164023654Y-79954380D01*
X164023654Y-79906761D01*
X164035559Y-79882952D01*
X164059369Y-79871047D01*
X164154607Y-79871047D01*
X164178416Y-79882952D01*
X164190321Y-79906761D01*
X164190321Y-79954380D01*
X164178416Y-79978190D01*
X164154607Y-79990095D01*
X164130797Y-79990095D01*
X164106988Y-79871047D01*
X164023654Y-80097238D02*
X164190321Y-80097238D01*
X164273654Y-80097238D02*
X164261750Y-80085333D01*
X164249845Y-80097238D01*
X164261750Y-80109142D01*
X164273654Y-80097238D01*
X164249845Y-80097238D01*
X164023654Y-80216285D02*
X164190321Y-80216285D01*
X164166511Y-80216285D02*
X164178416Y-80228190D01*
X164190321Y-80252000D01*
X164190321Y-80287714D01*
X164178416Y-80311523D01*
X164154607Y-80323428D01*
X164023654Y-80323428D01*
X164154607Y-80323428D02*
X164178416Y-80335333D01*
X164190321Y-80359142D01*
X164190321Y-80394857D01*
X164178416Y-80418666D01*
X164154607Y-80430571D01*
X164023654Y-80430571D01*
X164035559Y-80656761D02*
X164023654Y-80632952D01*
X164023654Y-80585333D01*
X164035559Y-80561523D01*
X164047464Y-80549619D01*
X164071273Y-80537714D01*
X164142702Y-80537714D01*
X164166511Y-80549619D01*
X164178416Y-80561523D01*
X164190321Y-80585333D01*
X164190321Y-80632952D01*
X164178416Y-80656761D01*
X164023654Y-80799619D02*
X164035559Y-80775809D01*
X164059369Y-80763904D01*
X164273654Y-80763904D01*
X164035559Y-80990095D02*
X164023654Y-80966285D01*
X164023654Y-80918666D01*
X164035559Y-80894857D01*
X164059369Y-80882952D01*
X164154607Y-80882952D01*
X164178416Y-80894857D01*
X164190321Y-80918666D01*
X164190321Y-80966285D01*
X164178416Y-80990095D01*
X164154607Y-81002000D01*
X164130797Y-81002000D01*
X164106988Y-80882952D01*
X164190321Y-81085333D02*
X164023654Y-81144857D01*
X164190321Y-81204380D01*
X164035559Y-81394857D02*
X164023654Y-81371047D01*
X164023654Y-81323428D01*
X164035559Y-81299619D01*
X164059369Y-81287714D01*
X164154607Y-81287714D01*
X164178416Y-81299619D01*
X164190321Y-81323428D01*
X164190321Y-81371047D01*
X164178416Y-81394857D01*
X164154607Y-81406761D01*
X164130797Y-81406761D01*
X164106988Y-81287714D01*
X164023654Y-81513904D02*
X164190321Y-81513904D01*
X164142702Y-81513904D02*
X164166511Y-81525809D01*
X164178416Y-81537714D01*
X164190321Y-81561523D01*
X164190321Y-81585333D01*
X164047464Y-81668666D02*
X164035559Y-81680571D01*
X164023654Y-81668666D01*
X164035559Y-81656761D01*
X164047464Y-81668666D01*
X164023654Y-81668666D01*
X164035559Y-81894857D02*
X164023654Y-81871047D01*
X164023654Y-81823428D01*
X164035559Y-81799619D01*
X164047464Y-81787714D01*
X164071273Y-81775809D01*
X164142702Y-81775809D01*
X164166511Y-81787714D01*
X164178416Y-81799619D01*
X164190321Y-81823428D01*
X164190321Y-81871047D01*
X164178416Y-81894857D01*
X164023654Y-82037714D02*
X164035559Y-82013904D01*
X164047464Y-82002000D01*
X164071273Y-81990095D01*
X164142702Y-81990095D01*
X164166511Y-82002000D01*
X164178416Y-82013904D01*
X164190321Y-82037714D01*
X164190321Y-82073428D01*
X164178416Y-82097238D01*
X164166511Y-82109142D01*
X164142702Y-82121047D01*
X164071273Y-82121047D01*
X164047464Y-82109142D01*
X164035559Y-82097238D01*
X164023654Y-82073428D01*
X164023654Y-82037714D01*
X164023654Y-82228190D02*
X164190321Y-82228190D01*
X164166511Y-82228190D02*
X164178416Y-82240095D01*
X164190321Y-82263904D01*
X164190321Y-82299619D01*
X164178416Y-82323428D01*
X164154607Y-82335333D01*
X164023654Y-82335333D01*
X164154607Y-82335333D02*
X164178416Y-82347238D01*
X164190321Y-82371047D01*
X164190321Y-82406761D01*
X164178416Y-82430571D01*
X164154607Y-82442476D01*
X164023654Y-82442476D01*
X166411666Y-88761047D02*
X166411666Y-88642000D01*
X166483095Y-88784857D02*
X166233095Y-88701523D01*
X166483095Y-88618190D01*
X166483095Y-88534857D02*
X166233095Y-88534857D01*
X166483095Y-88415809D02*
X166233095Y-88415809D01*
X166483095Y-88272952D01*
X166233095Y-88272952D01*
X166483095Y-88022952D02*
X166483095Y-88165809D01*
X166483095Y-88094380D02*
X166233095Y-88094380D01*
X166268809Y-88118190D01*
X166292619Y-88142000D01*
X166304523Y-88165809D01*
X163811666Y-88761047D02*
X163811666Y-88642000D01*
X163883095Y-88784857D02*
X163633095Y-88701523D01*
X163883095Y-88618190D01*
X163883095Y-88534857D02*
X163633095Y-88534857D01*
X163883095Y-88415809D02*
X163633095Y-88415809D01*
X163883095Y-88272952D01*
X163633095Y-88272952D01*
X163633095Y-88106285D02*
X163633095Y-88082476D01*
X163645000Y-88058666D01*
X163656904Y-88046761D01*
X163680714Y-88034857D01*
X163728333Y-88022952D01*
X163787857Y-88022952D01*
X163835476Y-88034857D01*
X163859285Y-88046761D01*
X163871190Y-88058666D01*
X163883095Y-88082476D01*
X163883095Y-88106285D01*
X163871190Y-88130095D01*
X163859285Y-88142000D01*
X163835476Y-88153904D01*
X163787857Y-88165809D01*
X163728333Y-88165809D01*
X163680714Y-88153904D01*
X163656904Y-88142000D01*
X163645000Y-88130095D01*
X163633095Y-88106285D01*
X168951666Y-88761047D02*
X168951666Y-88642000D01*
X169023095Y-88784857D02*
X168773095Y-88701523D01*
X169023095Y-88618190D01*
X169023095Y-88534857D02*
X168773095Y-88534857D01*
X169023095Y-88415809D02*
X168773095Y-88415809D01*
X169023095Y-88272952D01*
X168773095Y-88272952D01*
X168796904Y-88165809D02*
X168785000Y-88153904D01*
X168773095Y-88130095D01*
X168773095Y-88070571D01*
X168785000Y-88046761D01*
X168796904Y-88034857D01*
X168820714Y-88022952D01*
X168844523Y-88022952D01*
X168880238Y-88034857D01*
X169023095Y-88177714D01*
X169023095Y-88022952D01*
X176405000Y-88582476D02*
X176393095Y-88606285D01*
X176393095Y-88642000D01*
X176405000Y-88677714D01*
X176428809Y-88701523D01*
X176452619Y-88713428D01*
X176500238Y-88725333D01*
X176535952Y-88725333D01*
X176583571Y-88713428D01*
X176607380Y-88701523D01*
X176631190Y-88677714D01*
X176643095Y-88642000D01*
X176643095Y-88618190D01*
X176631190Y-88582476D01*
X176619285Y-88570571D01*
X176535952Y-88570571D01*
X176535952Y-88618190D01*
X176643095Y-88463428D02*
X176393095Y-88463428D01*
X176643095Y-88320571D01*
X176393095Y-88320571D01*
X176643095Y-88201523D02*
X176393095Y-88201523D01*
X176393095Y-88142000D01*
X176405000Y-88106285D01*
X176428809Y-88082476D01*
X176452619Y-88070571D01*
X176500238Y-88058666D01*
X176535952Y-88058666D01*
X176583571Y-88070571D01*
X176607380Y-88082476D01*
X176631190Y-88106285D01*
X176643095Y-88142000D01*
X176643095Y-88201523D01*
X173853095Y-88689619D02*
X173853095Y-88534857D01*
X173948333Y-88618190D01*
X173948333Y-88582476D01*
X173960238Y-88558666D01*
X173972142Y-88546761D01*
X173995952Y-88534857D01*
X174055476Y-88534857D01*
X174079285Y-88546761D01*
X174091190Y-88558666D01*
X174103095Y-88582476D01*
X174103095Y-88653904D01*
X174091190Y-88677714D01*
X174079285Y-88689619D01*
X173936428Y-88451523D02*
X174103095Y-88392000D01*
X173936428Y-88332476D01*
X173853095Y-88261047D02*
X173853095Y-88106285D01*
X173948333Y-88189619D01*
X173948333Y-88153904D01*
X173960238Y-88130095D01*
X173972142Y-88118190D01*
X173995952Y-88106285D01*
X174055476Y-88106285D01*
X174079285Y-88118190D01*
X174091190Y-88130095D01*
X174103095Y-88153904D01*
X174103095Y-88225333D01*
X174091190Y-88249142D01*
X174079285Y-88261047D01*
X171491666Y-88761047D02*
X171491666Y-88642000D01*
X171563095Y-88784857D02*
X171313095Y-88701523D01*
X171563095Y-88618190D01*
X171563095Y-88534857D02*
X171313095Y-88534857D01*
X171563095Y-88415809D02*
X171313095Y-88415809D01*
X171563095Y-88272952D01*
X171313095Y-88272952D01*
X171313095Y-88177714D02*
X171313095Y-88022952D01*
X171408333Y-88106285D01*
X171408333Y-88070571D01*
X171420238Y-88046761D01*
X171432142Y-88034857D01*
X171455952Y-88022952D01*
X171515476Y-88022952D01*
X171539285Y-88034857D01*
X171551190Y-88046761D01*
X171563095Y-88070571D01*
X171563095Y-88142000D01*
X171551190Y-88165809D01*
X171539285Y-88177714D01*
%TO.C,U1*%
X169580857Y-82591666D02*
X169699904Y-82591666D01*
X169557047Y-82663095D02*
X169640380Y-82413095D01*
X169723714Y-82663095D01*
X169807047Y-82663095D02*
X169807047Y-82413095D01*
X169866571Y-82413095D01*
X169902285Y-82425000D01*
X169926095Y-82448809D01*
X169938000Y-82472619D01*
X169949904Y-82520238D01*
X169949904Y-82555952D01*
X169938000Y-82603571D01*
X169926095Y-82627380D01*
X169902285Y-82651190D01*
X169866571Y-82663095D01*
X169807047Y-82663095D01*
X170045142Y-82651190D02*
X170080857Y-82663095D01*
X170140380Y-82663095D01*
X170164190Y-82651190D01*
X170176095Y-82639285D01*
X170188000Y-82615476D01*
X170188000Y-82591666D01*
X170176095Y-82567857D01*
X170164190Y-82555952D01*
X170140380Y-82544047D01*
X170092761Y-82532142D01*
X170068952Y-82520238D01*
X170057047Y-82508333D01*
X170045142Y-82484523D01*
X170045142Y-82460714D01*
X170057047Y-82436904D01*
X170068952Y-82425000D01*
X170092761Y-82413095D01*
X170152285Y-82413095D01*
X170188000Y-82425000D01*
X170426095Y-82663095D02*
X170283238Y-82663095D01*
X170354666Y-82663095D02*
X170354666Y-82413095D01*
X170330857Y-82448809D01*
X170307047Y-82472619D01*
X170283238Y-82484523D01*
X170521333Y-82436904D02*
X170533238Y-82425000D01*
X170557047Y-82413095D01*
X170616571Y-82413095D01*
X170640380Y-82425000D01*
X170652285Y-82436904D01*
X170664190Y-82460714D01*
X170664190Y-82484523D01*
X170652285Y-82520238D01*
X170509428Y-82663095D01*
X170664190Y-82663095D01*
X170902285Y-82663095D02*
X170759428Y-82663095D01*
X170830857Y-82663095D02*
X170830857Y-82413095D01*
X170807047Y-82448809D01*
X170783238Y-82472619D01*
X170759428Y-82484523D01*
X171021333Y-82663095D02*
X171068952Y-82663095D01*
X171092761Y-82651190D01*
X171104666Y-82639285D01*
X171128476Y-82603571D01*
X171140380Y-82555952D01*
X171140380Y-82460714D01*
X171128476Y-82436904D01*
X171116571Y-82425000D01*
X171092761Y-82413095D01*
X171045142Y-82413095D01*
X171021333Y-82425000D01*
X171009428Y-82436904D01*
X170997523Y-82460714D01*
X170997523Y-82520238D01*
X171009428Y-82544047D01*
X171021333Y-82555952D01*
X171045142Y-82567857D01*
X171092761Y-82567857D01*
X171116571Y-82555952D01*
X171128476Y-82544047D01*
X171140380Y-82520238D01*
X171247523Y-82663095D02*
X171247523Y-82413095D01*
X171366571Y-82663095D02*
X171366571Y-82413095D01*
X171461809Y-82413095D01*
X171485619Y-82425000D01*
X171497523Y-82436904D01*
X171509428Y-82460714D01*
X171509428Y-82496428D01*
X171497523Y-82520238D01*
X171485619Y-82532142D01*
X171461809Y-82544047D01*
X171366571Y-82544047D01*
X171592761Y-82413095D02*
X171652285Y-82663095D01*
X171699904Y-82484523D01*
X171747523Y-82663095D01*
X171807047Y-82413095D01*
%TO.C,J1*%
X171366666Y-77333095D02*
X171366666Y-77511666D01*
X171354761Y-77547380D01*
X171330952Y-77571190D01*
X171295238Y-77583095D01*
X171271428Y-77583095D01*
X171616666Y-77583095D02*
X171473809Y-77583095D01*
X171545238Y-77583095D02*
X171545238Y-77333095D01*
X171521428Y-77368809D01*
X171497619Y-77392619D01*
X171473809Y-77404523D01*
%TO.C,R3*%
X177250333Y-77583095D02*
X177167000Y-77464047D01*
X177107476Y-77583095D02*
X177107476Y-77333095D01*
X177202714Y-77333095D01*
X177226523Y-77345000D01*
X177238428Y-77356904D01*
X177250333Y-77380714D01*
X177250333Y-77416428D01*
X177238428Y-77440238D01*
X177226523Y-77452142D01*
X177202714Y-77464047D01*
X177107476Y-77464047D01*
X177333666Y-77333095D02*
X177488428Y-77333095D01*
X177405095Y-77428333D01*
X177440809Y-77428333D01*
X177464619Y-77440238D01*
X177476523Y-77452142D01*
X177488428Y-77475952D01*
X177488428Y-77535476D01*
X177476523Y-77559285D01*
X177464619Y-77571190D01*
X177440809Y-77583095D01*
X177369380Y-77583095D01*
X177345571Y-77571190D01*
X177333666Y-77559285D01*
%TO.C,C1*%
X177250333Y-83655285D02*
X177238428Y-83667190D01*
X177202714Y-83679095D01*
X177178904Y-83679095D01*
X177143190Y-83667190D01*
X177119380Y-83643380D01*
X177107476Y-83619571D01*
X177095571Y-83571952D01*
X177095571Y-83536238D01*
X177107476Y-83488619D01*
X177119380Y-83464809D01*
X177143190Y-83441000D01*
X177178904Y-83429095D01*
X177202714Y-83429095D01*
X177238428Y-83441000D01*
X177250333Y-83452904D01*
X177488428Y-83679095D02*
X177345571Y-83679095D01*
X177417000Y-83679095D02*
X177417000Y-83429095D01*
X177393190Y-83464809D01*
X177369380Y-83488619D01*
X177345571Y-83500523D01*
%TO.C,R2*%
X177250333Y-81647095D02*
X177167000Y-81528047D01*
X177107476Y-81647095D02*
X177107476Y-81397095D01*
X177202714Y-81397095D01*
X177226523Y-81409000D01*
X177238428Y-81420904D01*
X177250333Y-81444714D01*
X177250333Y-81480428D01*
X177238428Y-81504238D01*
X177226523Y-81516142D01*
X177202714Y-81528047D01*
X177107476Y-81528047D01*
X177345571Y-81420904D02*
X177357476Y-81409000D01*
X177381285Y-81397095D01*
X177440809Y-81397095D01*
X177464619Y-81409000D01*
X177476523Y-81420904D01*
X177488428Y-81444714D01*
X177488428Y-81468523D01*
X177476523Y-81504238D01*
X177333666Y-81647095D01*
X177488428Y-81647095D01*
%TO.C,R1*%
X177250333Y-79615095D02*
X177167000Y-79496047D01*
X177107476Y-79615095D02*
X177107476Y-79365095D01*
X177202714Y-79365095D01*
X177226523Y-79377000D01*
X177238428Y-79388904D01*
X177250333Y-79412714D01*
X177250333Y-79448428D01*
X177238428Y-79472238D01*
X177226523Y-79484142D01*
X177202714Y-79496047D01*
X177107476Y-79496047D01*
X177488428Y-79615095D02*
X177345571Y-79615095D01*
X177417000Y-79615095D02*
X177417000Y-79365095D01*
X177393190Y-79400809D01*
X177369380Y-79424619D01*
X177345571Y-79436523D01*
%TO.C,J2*%
X165016666Y-87493095D02*
X165016666Y-87671666D01*
X165004761Y-87707380D01*
X164980952Y-87731190D01*
X164945238Y-87743095D01*
X164921428Y-87743095D01*
X165123809Y-87516904D02*
X165135714Y-87505000D01*
X165159523Y-87493095D01*
X165219047Y-87493095D01*
X165242857Y-87505000D01*
X165254761Y-87516904D01*
X165266666Y-87540714D01*
X165266666Y-87564523D01*
X165254761Y-87600238D01*
X165111904Y-87743095D01*
X165266666Y-87743095D01*
%TO.C,C2*%
X177250333Y-85687285D02*
X177238428Y-85699190D01*
X177202714Y-85711095D01*
X177178904Y-85711095D01*
X177143190Y-85699190D01*
X177119380Y-85675380D01*
X177107476Y-85651571D01*
X177095571Y-85603952D01*
X177095571Y-85568238D01*
X177107476Y-85520619D01*
X177119380Y-85496809D01*
X177143190Y-85473000D01*
X177178904Y-85461095D01*
X177202714Y-85461095D01*
X177238428Y-85473000D01*
X177250333Y-85484904D01*
X177345571Y-85484904D02*
X177357476Y-85473000D01*
X177381285Y-85461095D01*
X177440809Y-85461095D01*
X177464619Y-85473000D01*
X177476523Y-85484904D01*
X177488428Y-85508714D01*
X177488428Y-85532523D01*
X177476523Y-85568238D01*
X177333666Y-85711095D01*
X177488428Y-85711095D01*
D11*
%TO.C,U1*%
X169600016Y-87004997D02*
X173300014Y-87004997D01*
X167950014Y-81705000D02*
X173300014Y-81705000D01*
%TO.C,J1*%
X169390000Y-79850000D02*
X169390000Y-80840000D01*
X174560000Y-78700000D02*
X174560000Y-79850000D01*
X174560000Y-79850000D02*
X173510000Y-79850000D01*
X169510000Y-76730000D02*
X173390000Y-76730000D01*
X168340000Y-78700000D02*
X168340000Y-79850000D01*
X168340000Y-79850000D02*
X169390000Y-79850000D01*
%TO.C,R3*%
X177519064Y-78205000D02*
X177064936Y-78205000D01*
X177519064Y-76735000D02*
X177064936Y-76735000D01*
%TO.C,C1*%
X177553252Y-82831000D02*
X177030748Y-82831000D01*
X177553252Y-84301000D02*
X177030748Y-84301000D01*
%TO.C,R2*%
X177519064Y-82269000D02*
X177064936Y-82269000D01*
X177519064Y-80799000D02*
X177064936Y-80799000D01*
%TO.C,R1*%
X177519064Y-80237000D02*
X177064936Y-80237000D01*
X177519064Y-78767000D02*
X177064936Y-78767000D01*
%TO.C,C2*%
X177030748Y-84863000D02*
X177553252Y-84863000D01*
X177030748Y-86333000D02*
X177553252Y-86333000D01*
%TD*%
M02*
