%TF.GenerationSoftware,KiCad,Pcbnew,(6.0.5)*%
%TF.CreationDate,2022-07-17T01:21:54-05:00*%
%TF.ProjectId,ADS1219,41445331-3231-4392-9e6b-696361645f70,4*%
%TF.SameCoordinates,Original*%
%TF.FileFunction,Copper,L2,Bot*%
%TF.FilePolarity,Positive*%
%FSLAX46Y46*%
G04 Gerber Fmt 4.6, Leading zero omitted, Abs format (unit mm)*
G04 Created by KiCad (PCBNEW (6.0.5)) date 2022-07-17 01:21:54*
%MOMM*%
%LPD*%
G01*
G04 APERTURE LIST*
G04 Aperture macros list*
%AMFreePoly0*
4,1,6,0.500000,-0.750000,-0.650000,-0.750000,-0.150000,0.000000,-0.650000,0.750000,0.500000,0.750000,0.500000,-0.750000,0.500000,-0.750000,$1*%
%AMFreePoly1*
4,1,6,1.000000,0.000000,0.500000,-0.750000,-0.500000,-0.750000,-0.500000,0.750000,0.500000,0.750000,1.000000,0.000000,1.000000,0.000000,$1*%
G04 Aperture macros list end*
%TA.AperFunction,ComponentPad*%
%ADD10O,1.700000X1.700000*%
%TD*%
%TA.AperFunction,ComponentPad*%
%ADD11C,1.700000*%
%TD*%
%TA.AperFunction,SMDPad,CuDef*%
%ADD12FreePoly0,180.000000*%
%TD*%
%TA.AperFunction,SMDPad,CuDef*%
%ADD13FreePoly1,180.000000*%
%TD*%
%TA.AperFunction,ViaPad*%
%ADD14C,0.800000*%
%TD*%
%TA.AperFunction,Conductor*%
%ADD15C,0.250000*%
%TD*%
G04 APERTURE END LIST*
D10*
%TO.P,J2,6,Pin_6*%
%TO.N,GND*%
X177320000Y-87716000D03*
%TO.P,J2,5,Pin_5*%
%TO.N,+3V3*%
X174780000Y-87716000D03*
%TO.P,J2,4,Pin_4*%
%TO.N,/AIN3*%
X172240000Y-87716000D03*
%TO.P,J2,3,Pin_3*%
%TO.N,/AIN2*%
X169700000Y-87716000D03*
%TO.P,J2,2,Pin_2*%
%TO.N,/AIN1*%
X167160000Y-87716000D03*
D11*
%TO.P,J2,1,Pin_1*%
%TO.N,/AIN0*%
X164620000Y-87716000D03*
%TD*%
D12*
%TO.P,JP5,2,B*%
%TO.N,GND*%
X164625000Y-76794000D03*
D13*
%TO.P,JP5,1,A*%
%TO.N,/A0*%
X166075000Y-76794000D03*
%TD*%
D12*
%TO.P,JP7,2,B*%
%TO.N,/SDA*%
X164657000Y-81874000D03*
D13*
%TO.P,JP7,1,A*%
%TO.N,/A0*%
X166107000Y-81874000D03*
%TD*%
D12*
%TO.P,JP8,2,B*%
%TO.N,/SCL*%
X164657000Y-84414000D03*
D13*
%TO.P,JP8,1,A*%
%TO.N,/A0*%
X166107000Y-84414000D03*
%TD*%
D12*
%TO.P,JP6,2,B*%
%TO.N,+3V3*%
X164657000Y-79334000D03*
D13*
%TO.P,JP6,1,A*%
%TO.N,/A0*%
X166107000Y-79334000D03*
%TD*%
D14*
%TO.N,+3V3*%
X163012189Y-79334000D03*
%TO.N,GND*%
X170208000Y-82890000D03*
%TO.N,/SCL*%
X169470000Y-79302000D03*
X173764000Y-78080000D03*
%TO.N,/SDA*%
X170470000Y-79302000D03*
%TO.N,GND*%
X178082000Y-84160000D03*
X178082000Y-82128000D03*
X172494000Y-79334000D03*
%TO.N,/SDA*%
X172494000Y-81366000D03*
X175796000Y-78064000D03*
X164366000Y-81366000D03*
%TO.N,/SCL*%
X164366000Y-83906000D03*
%TO.N,+3V3*%
X164366000Y-79080000D03*
%TO.N,GND*%
X164620000Y-77302000D03*
%TO.N,/AIN2*%
X169446000Y-84668000D03*
%TO.N,/AIN3*%
X170208000Y-83906000D03*
%TO.N,/A0*%
X167922000Y-79588000D03*
%TD*%
D15*
%TO.N,+3V3*%
X164112000Y-79334000D02*
X164366000Y-79080000D01*
X163012189Y-79334000D02*
X164112000Y-79334000D01*
%TO.N,/AIN3*%
X172240000Y-85938000D02*
X172240000Y-86276051D01*
X172000962Y-85698962D02*
X172240000Y-85938000D01*
X170716000Y-83906000D02*
X170208000Y-83906000D01*
X172000962Y-85698962D02*
X172000962Y-85190962D01*
X172000962Y-85190962D02*
X170716000Y-83906000D01*
X172238480Y-86277571D02*
X172240000Y-86276051D01*
X172240000Y-87716000D02*
X172238480Y-87714480D01*
X172238480Y-87714480D02*
X172238480Y-86277571D01*
%TO.N,/SDA*%
X172494000Y-81366000D02*
X170470000Y-79342000D01*
X175034000Y-78064000D02*
X175796000Y-78064000D01*
X172494000Y-81366000D02*
X172494000Y-80604000D01*
X172494000Y-80604000D02*
X175034000Y-78064000D01*
X170470000Y-79342000D02*
X170470000Y-79302000D01*
%TO.N,/SCL*%
X166721704Y-85440920D02*
X165392920Y-85440920D01*
X172224000Y-78080000D02*
X171678911Y-78625089D01*
X165392920Y-85440920D02*
X164366000Y-84414000D01*
X164366000Y-84414000D02*
X164366000Y-83906000D01*
X169470000Y-82692624D02*
X166721704Y-85440920D01*
X169470000Y-79302000D02*
X169470000Y-82692624D01*
X171678911Y-78625089D02*
X170146911Y-78625089D01*
X170146911Y-78625089D02*
X169470000Y-79302000D01*
X173764000Y-78080000D02*
X172224000Y-78080000D01*
%TO.N,/AIN2*%
X169700000Y-85101605D02*
X169700000Y-87716000D01*
X169446000Y-84668000D02*
X169573000Y-84795000D01*
X169573002Y-84794998D02*
G75*
G02*
X169700000Y-85101605I-306602J-306602D01*
G01*
%TO.N,/A0*%
X166234000Y-79461000D02*
X166107000Y-79334000D01*
X167922000Y-79588000D02*
X166540605Y-79588000D01*
X166091000Y-76810000D02*
X166075000Y-76794000D01*
X166107000Y-76848627D02*
X166107000Y-84414000D01*
X166106988Y-76848627D02*
G75*
G03*
X166091000Y-76810000I-54588J27D01*
G01*
X166540605Y-79587997D02*
G75*
G02*
X166234001Y-79460999I-5J433597D01*
G01*
%TD*%
%TA.AperFunction,Conductor*%
%TO.N,GND*%
G36*
X184627621Y-74528502D02*
G01*
X184674114Y-74582158D01*
X184685500Y-74634500D01*
X184685500Y-88605500D01*
X184665498Y-88673621D01*
X184611842Y-88720114D01*
X184559500Y-88731500D01*
X178508315Y-88731500D01*
X178440194Y-88711498D01*
X178393701Y-88657842D01*
X178383597Y-88587568D01*
X178405993Y-88531974D01*
X178485004Y-88422020D01*
X178490313Y-88413183D01*
X178584670Y-88222267D01*
X178588469Y-88212672D01*
X178650377Y-88008910D01*
X178652555Y-87998837D01*
X178653986Y-87987962D01*
X178651775Y-87973778D01*
X178638617Y-87970000D01*
X177192000Y-87970000D01*
X177123879Y-87949998D01*
X177077386Y-87896342D01*
X177066000Y-87844000D01*
X177066000Y-87443885D01*
X177574000Y-87443885D01*
X177578475Y-87459124D01*
X177579865Y-87460329D01*
X177587548Y-87462000D01*
X178638344Y-87462000D01*
X178651875Y-87458027D01*
X178653180Y-87448947D01*
X178611214Y-87281875D01*
X178607894Y-87272124D01*
X178522972Y-87076814D01*
X178518105Y-87067739D01*
X178402426Y-86888926D01*
X178396136Y-86880757D01*
X178252806Y-86723240D01*
X178245273Y-86716215D01*
X178078139Y-86584222D01*
X178069552Y-86578517D01*
X177883117Y-86475599D01*
X177873705Y-86471369D01*
X177672959Y-86400280D01*
X177662988Y-86397646D01*
X177591837Y-86384972D01*
X177578540Y-86386432D01*
X177574000Y-86400989D01*
X177574000Y-87443885D01*
X177066000Y-87443885D01*
X177066000Y-86399102D01*
X177062082Y-86385758D01*
X177047806Y-86383771D01*
X177009324Y-86389660D01*
X176999288Y-86392051D01*
X176796868Y-86458212D01*
X176787359Y-86462209D01*
X176598463Y-86560542D01*
X176589738Y-86566036D01*
X176419433Y-86693905D01*
X176411726Y-86700748D01*
X176264590Y-86854717D01*
X176258109Y-86862722D01*
X176153498Y-87016074D01*
X176098587Y-87061076D01*
X176028062Y-87069247D01*
X175964315Y-87037993D01*
X175943618Y-87013509D01*
X175862822Y-86888617D01*
X175862820Y-86888614D01*
X175860014Y-86884277D01*
X175709670Y-86719051D01*
X175705619Y-86715852D01*
X175705615Y-86715848D01*
X175538414Y-86583800D01*
X175538410Y-86583798D01*
X175534359Y-86580598D01*
X175529831Y-86578098D01*
X175413988Y-86514150D01*
X175338789Y-86472638D01*
X175333920Y-86470914D01*
X175333916Y-86470912D01*
X175133087Y-86399795D01*
X175133083Y-86399794D01*
X175128212Y-86398069D01*
X175123119Y-86397162D01*
X175123116Y-86397161D01*
X174913373Y-86359800D01*
X174913367Y-86359799D01*
X174908284Y-86358894D01*
X174834452Y-86357992D01*
X174690081Y-86356228D01*
X174690079Y-86356228D01*
X174684911Y-86356165D01*
X174464091Y-86389955D01*
X174251756Y-86459357D01*
X174176467Y-86498550D01*
X174077975Y-86549822D01*
X174053607Y-86562507D01*
X174049474Y-86565610D01*
X174049471Y-86565612D01*
X174025247Y-86583800D01*
X173874965Y-86696635D01*
X173720629Y-86858138D01*
X173613201Y-87015621D01*
X173558293Y-87060621D01*
X173487768Y-87068792D01*
X173424021Y-87037538D01*
X173403324Y-87013054D01*
X173322822Y-86888617D01*
X173322820Y-86888614D01*
X173320014Y-86884277D01*
X173169670Y-86719051D01*
X173165619Y-86715852D01*
X173165615Y-86715848D01*
X172998417Y-86583803D01*
X172994359Y-86580598D01*
X172937085Y-86548981D01*
X172887116Y-86498550D01*
X172871980Y-86438674D01*
X172871980Y-86368112D01*
X172872490Y-86360017D01*
X172873500Y-86356081D01*
X172873500Y-86335827D01*
X172875051Y-86316116D01*
X172876980Y-86303937D01*
X172878220Y-86296108D01*
X172874059Y-86252089D01*
X172873500Y-86240232D01*
X172873500Y-86016768D01*
X172874027Y-86005585D01*
X172875702Y-85998092D01*
X172874547Y-85961326D01*
X172873562Y-85930002D01*
X172873500Y-85926044D01*
X172873500Y-85898144D01*
X172872996Y-85894153D01*
X172872063Y-85882311D01*
X172871606Y-85867747D01*
X172870674Y-85838111D01*
X172868462Y-85830497D01*
X172868461Y-85830492D01*
X172865023Y-85818659D01*
X172861012Y-85799295D01*
X172859467Y-85787064D01*
X172858474Y-85779203D01*
X172855557Y-85771836D01*
X172855556Y-85771831D01*
X172842198Y-85738092D01*
X172838354Y-85726865D01*
X172828230Y-85692022D01*
X172826018Y-85684407D01*
X172815707Y-85666972D01*
X172807012Y-85649224D01*
X172799552Y-85630383D01*
X172773564Y-85594613D01*
X172767048Y-85584693D01*
X172748580Y-85553465D01*
X172748578Y-85553462D01*
X172744542Y-85546638D01*
X172730218Y-85532314D01*
X172717383Y-85517287D01*
X172705472Y-85500893D01*
X172699363Y-85495839D01*
X172699361Y-85495837D01*
X172680146Y-85479941D01*
X172640408Y-85421107D01*
X172634462Y-85382857D01*
X172634462Y-85269730D01*
X172634989Y-85258547D01*
X172636664Y-85251054D01*
X172634524Y-85182963D01*
X172634462Y-85179006D01*
X172634462Y-85151106D01*
X172633958Y-85147115D01*
X172633025Y-85135273D01*
X172632516Y-85119056D01*
X172631636Y-85091073D01*
X172629423Y-85083455D01*
X172625983Y-85071614D01*
X172621974Y-85052255D01*
X172621808Y-85050945D01*
X172619436Y-85032165D01*
X172616520Y-85024799D01*
X172616518Y-85024793D01*
X172603162Y-84991060D01*
X172599317Y-84979830D01*
X172589192Y-84944979D01*
X172589192Y-84944978D01*
X172586981Y-84937369D01*
X172576667Y-84919928D01*
X172567970Y-84902175D01*
X172563434Y-84890720D01*
X172560514Y-84883345D01*
X172534525Y-84847574D01*
X172528009Y-84837654D01*
X172505504Y-84799600D01*
X172491183Y-84785279D01*
X172478342Y-84770245D01*
X172471093Y-84760268D01*
X172466434Y-84753855D01*
X172432357Y-84725664D01*
X172423578Y-84717674D01*
X171219652Y-83513747D01*
X171212112Y-83505461D01*
X171208000Y-83498982D01*
X171158348Y-83452356D01*
X171155507Y-83449602D01*
X171135770Y-83429865D01*
X171132573Y-83427385D01*
X171123551Y-83419680D01*
X171097100Y-83394841D01*
X171091321Y-83389414D01*
X171084375Y-83385595D01*
X171084372Y-83385593D01*
X171073566Y-83379652D01*
X171057047Y-83368801D01*
X171051048Y-83364148D01*
X171041041Y-83356386D01*
X171033772Y-83353241D01*
X171033768Y-83353238D01*
X171000463Y-83338826D01*
X170989813Y-83333609D01*
X170951060Y-83312305D01*
X170931437Y-83307267D01*
X170912734Y-83300863D01*
X170894145Y-83292819D01*
X170895453Y-83289796D01*
X170850062Y-83261351D01*
X170819253Y-83227134D01*
X170772574Y-83193219D01*
X170670094Y-83118763D01*
X170670093Y-83118762D01*
X170664752Y-83114882D01*
X170658724Y-83112198D01*
X170658722Y-83112197D01*
X170496319Y-83039891D01*
X170496318Y-83039891D01*
X170490288Y-83037206D01*
X170395810Y-83017124D01*
X170309944Y-82998872D01*
X170309939Y-82998872D01*
X170303487Y-82997500D01*
X170210636Y-82997500D01*
X170142515Y-82977498D01*
X170096022Y-82923842D01*
X170086188Y-82851786D01*
X170090098Y-82827103D01*
X170092504Y-82815484D01*
X170101528Y-82780335D01*
X170101528Y-82780334D01*
X170103500Y-82772654D01*
X170103500Y-82752393D01*
X170105051Y-82732682D01*
X170106979Y-82720509D01*
X170108219Y-82712681D01*
X170104059Y-82668670D01*
X170103500Y-82656813D01*
X170103500Y-80308492D01*
X170123502Y-80240371D01*
X170177158Y-80193878D01*
X170247432Y-80183774D01*
X170255697Y-80185245D01*
X170368056Y-80209128D01*
X170368061Y-80209128D01*
X170374513Y-80210500D01*
X170390406Y-80210500D01*
X170458527Y-80230502D01*
X170479501Y-80247405D01*
X171546878Y-81314782D01*
X171580904Y-81377094D01*
X171583092Y-81390703D01*
X171600458Y-81555928D01*
X171659473Y-81737556D01*
X171754960Y-81902944D01*
X171882747Y-82044866D01*
X172037248Y-82157118D01*
X172043276Y-82159802D01*
X172043278Y-82159803D01*
X172205681Y-82232109D01*
X172211712Y-82234794D01*
X172305112Y-82254647D01*
X172392056Y-82273128D01*
X172392061Y-82273128D01*
X172398513Y-82274500D01*
X172589487Y-82274500D01*
X172595939Y-82273128D01*
X172595944Y-82273128D01*
X172682887Y-82254647D01*
X172776288Y-82234794D01*
X172782319Y-82232109D01*
X172944722Y-82159803D01*
X172944724Y-82159802D01*
X172950752Y-82157118D01*
X173105253Y-82044866D01*
X173233040Y-81902944D01*
X173328527Y-81737556D01*
X173387542Y-81555928D01*
X173407504Y-81366000D01*
X173387542Y-81176072D01*
X173328527Y-80994444D01*
X173256421Y-80869552D01*
X173239683Y-80800559D01*
X173262903Y-80733467D01*
X173276445Y-80717459D01*
X175147047Y-78846857D01*
X175209359Y-78812831D01*
X175280174Y-78817896D01*
X175310202Y-78834015D01*
X175333907Y-78851238D01*
X175333910Y-78851240D01*
X175339248Y-78855118D01*
X175345276Y-78857802D01*
X175345278Y-78857803D01*
X175507681Y-78930109D01*
X175513712Y-78932794D01*
X175607112Y-78952647D01*
X175694056Y-78971128D01*
X175694061Y-78971128D01*
X175700513Y-78972500D01*
X175891487Y-78972500D01*
X175897939Y-78971128D01*
X175897944Y-78971128D01*
X175984888Y-78952647D01*
X176078288Y-78932794D01*
X176084319Y-78930109D01*
X176246722Y-78857803D01*
X176246724Y-78857802D01*
X176252752Y-78855118D01*
X176303984Y-78817896D01*
X176368841Y-78770774D01*
X176407253Y-78742866D01*
X176486247Y-78655134D01*
X176530621Y-78605852D01*
X176530622Y-78605851D01*
X176535040Y-78600944D01*
X176630527Y-78435556D01*
X176689542Y-78253928D01*
X176698813Y-78165725D01*
X176708814Y-78070565D01*
X176709504Y-78064000D01*
X176705183Y-78022891D01*
X176690232Y-77880635D01*
X176690232Y-77880633D01*
X176689542Y-77874072D01*
X176630527Y-77692444D01*
X176609572Y-77656148D01*
X176571255Y-77589782D01*
X176535040Y-77527056D01*
X176519090Y-77509341D01*
X176411675Y-77390045D01*
X176411674Y-77390044D01*
X176407253Y-77385134D01*
X176274774Y-77288882D01*
X176258094Y-77276763D01*
X176258093Y-77276762D01*
X176252752Y-77272882D01*
X176246724Y-77270198D01*
X176246722Y-77270197D01*
X176084319Y-77197891D01*
X176084318Y-77197891D01*
X176078288Y-77195206D01*
X175984887Y-77175353D01*
X175897944Y-77156872D01*
X175897939Y-77156872D01*
X175891487Y-77155500D01*
X175700513Y-77155500D01*
X175694061Y-77156872D01*
X175694056Y-77156872D01*
X175607113Y-77175353D01*
X175513712Y-77195206D01*
X175507682Y-77197891D01*
X175507681Y-77197891D01*
X175345278Y-77270197D01*
X175345276Y-77270198D01*
X175339248Y-77272882D01*
X175333907Y-77276762D01*
X175333906Y-77276763D01*
X175317226Y-77288882D01*
X175184747Y-77385134D01*
X175180332Y-77390037D01*
X175175420Y-77394460D01*
X175173749Y-77392604D01*
X175122884Y-77423930D01*
X175093672Y-77428312D01*
X175026033Y-77430438D01*
X175022075Y-77430500D01*
X174994144Y-77430500D01*
X174990229Y-77430995D01*
X174990225Y-77430995D01*
X174990167Y-77431003D01*
X174990138Y-77431006D01*
X174978296Y-77431939D01*
X174934110Y-77433327D01*
X174916744Y-77438372D01*
X174914658Y-77438978D01*
X174895306Y-77442986D01*
X174883068Y-77444532D01*
X174883066Y-77444533D01*
X174875203Y-77445526D01*
X174834086Y-77461806D01*
X174822885Y-77465641D01*
X174780406Y-77477982D01*
X174773587Y-77482015D01*
X174773582Y-77482017D01*
X174762971Y-77488293D01*
X174745221Y-77496990D01*
X174726383Y-77504448D01*
X174719967Y-77509109D01*
X174719966Y-77509110D01*
X174690625Y-77530428D01*
X174680700Y-77536948D01*
X174649948Y-77555134D01*
X174581132Y-77572592D01*
X174513801Y-77550074D01*
X174492175Y-77530989D01*
X174379675Y-77406045D01*
X174379674Y-77406044D01*
X174375253Y-77401134D01*
X174220752Y-77288882D01*
X174214724Y-77286198D01*
X174214722Y-77286197D01*
X174052319Y-77213891D01*
X174052318Y-77213891D01*
X174046288Y-77211206D01*
X173952888Y-77191353D01*
X173865944Y-77172872D01*
X173865939Y-77172872D01*
X173859487Y-77171500D01*
X173668513Y-77171500D01*
X173662061Y-77172872D01*
X173662056Y-77172872D01*
X173575112Y-77191353D01*
X173481712Y-77211206D01*
X173475682Y-77213891D01*
X173475681Y-77213891D01*
X173313278Y-77286197D01*
X173313276Y-77286198D01*
X173307248Y-77288882D01*
X173152747Y-77401134D01*
X173148332Y-77406037D01*
X173143420Y-77410460D01*
X173142295Y-77409211D01*
X173088986Y-77442051D01*
X173055800Y-77446500D01*
X172302767Y-77446500D01*
X172291584Y-77445973D01*
X172284091Y-77444298D01*
X172276165Y-77444547D01*
X172276164Y-77444547D01*
X172216014Y-77446438D01*
X172212055Y-77446500D01*
X172184144Y-77446500D01*
X172180210Y-77446997D01*
X172180209Y-77446997D01*
X172180144Y-77447005D01*
X172168307Y-77447938D01*
X172136490Y-77448938D01*
X172132029Y-77449078D01*
X172124110Y-77449327D01*
X172106454Y-77454456D01*
X172104658Y-77454978D01*
X172085306Y-77458986D01*
X172078235Y-77459880D01*
X172065203Y-77461526D01*
X172057834Y-77464443D01*
X172057832Y-77464444D01*
X172024097Y-77477800D01*
X172012869Y-77481645D01*
X171970407Y-77493982D01*
X171963585Y-77498016D01*
X171963579Y-77498019D01*
X171952968Y-77504294D01*
X171935218Y-77512990D01*
X171923756Y-77517528D01*
X171923751Y-77517531D01*
X171916383Y-77520448D01*
X171899418Y-77532774D01*
X171880625Y-77546427D01*
X171870707Y-77552943D01*
X171852019Y-77563995D01*
X171832637Y-77575458D01*
X171818313Y-77589782D01*
X171803281Y-77602621D01*
X171786893Y-77614528D01*
X171758712Y-77648593D01*
X171750722Y-77657373D01*
X171453411Y-77954684D01*
X171391099Y-77988710D01*
X171364316Y-77991589D01*
X170225679Y-77991589D01*
X170214496Y-77991062D01*
X170207003Y-77989387D01*
X170199077Y-77989636D01*
X170199076Y-77989636D01*
X170138913Y-77991527D01*
X170134955Y-77991589D01*
X170107055Y-77991589D01*
X170103065Y-77992093D01*
X170091231Y-77993025D01*
X170047022Y-77994415D01*
X170039408Y-77996627D01*
X170039403Y-77996628D01*
X170027570Y-78000066D01*
X170008207Y-78004077D01*
X169988114Y-78006615D01*
X169980747Y-78009532D01*
X169980742Y-78009533D01*
X169947003Y-78022891D01*
X169935776Y-78026735D01*
X169893318Y-78039071D01*
X169886492Y-78043108D01*
X169875883Y-78049382D01*
X169858135Y-78058077D01*
X169839294Y-78065537D01*
X169832878Y-78070199D01*
X169832877Y-78070199D01*
X169803524Y-78091525D01*
X169793604Y-78098041D01*
X169762376Y-78116509D01*
X169762373Y-78116511D01*
X169755549Y-78120547D01*
X169741228Y-78134868D01*
X169726195Y-78147708D01*
X169709804Y-78159617D01*
X169704751Y-78165725D01*
X169681619Y-78193687D01*
X169673629Y-78202467D01*
X169519501Y-78356595D01*
X169457189Y-78390621D01*
X169430406Y-78393500D01*
X169374513Y-78393500D01*
X169368061Y-78394872D01*
X169368056Y-78394872D01*
X169281113Y-78413353D01*
X169187712Y-78433206D01*
X169181682Y-78435891D01*
X169181681Y-78435891D01*
X169019278Y-78508197D01*
X169019276Y-78508198D01*
X169013248Y-78510882D01*
X169007907Y-78514762D01*
X169007906Y-78514763D01*
X168969204Y-78542882D01*
X168858747Y-78623134D01*
X168854326Y-78628044D01*
X168854325Y-78628045D01*
X168737148Y-78758184D01*
X168730960Y-78765056D01*
X168683902Y-78846563D01*
X168632520Y-78895556D01*
X168562806Y-78908992D01*
X168500722Y-78885499D01*
X168480929Y-78871118D01*
X168378752Y-78796882D01*
X168372724Y-78794198D01*
X168372722Y-78794197D01*
X168210319Y-78721891D01*
X168210318Y-78721891D01*
X168204288Y-78719206D01*
X168110887Y-78699353D01*
X168023944Y-78680872D01*
X168023939Y-78680872D01*
X168017487Y-78679500D01*
X167826513Y-78679500D01*
X167820061Y-78680872D01*
X167820056Y-78680872D01*
X167733113Y-78699353D01*
X167639712Y-78719206D01*
X167633682Y-78721891D01*
X167633681Y-78721891D01*
X167471278Y-78794197D01*
X167471276Y-78794198D01*
X167465248Y-78796882D01*
X167459907Y-78800762D01*
X167459906Y-78800763D01*
X167320790Y-78901837D01*
X167253922Y-78925696D01*
X167184771Y-78909615D01*
X167135290Y-78858701D01*
X167120729Y-78799901D01*
X167120729Y-78584000D01*
X167115500Y-78510889D01*
X167081434Y-78394872D01*
X167076843Y-78379235D01*
X167076842Y-78379233D01*
X167074304Y-78370589D01*
X167029028Y-78300138D01*
X167000122Y-78255159D01*
X167000120Y-78255156D01*
X166995250Y-78247579D01*
X166884743Y-78151824D01*
X166885469Y-78150986D01*
X166844508Y-78103715D01*
X166834403Y-78033441D01*
X166863896Y-77968860D01*
X166890999Y-77945375D01*
X166903839Y-77937123D01*
X166903840Y-77937122D01*
X166911421Y-77932250D01*
X166917322Y-77925440D01*
X167001274Y-77828555D01*
X167001276Y-77828552D01*
X167007176Y-77821743D01*
X167067919Y-77688734D01*
X167088729Y-77544000D01*
X167088729Y-77107655D01*
X180239858Y-77107655D01*
X180275104Y-77366638D01*
X180276412Y-77371124D01*
X180276412Y-77371126D01*
X180293080Y-77428312D01*
X180348243Y-77617567D01*
X180457668Y-77854928D01*
X180460231Y-77858837D01*
X180598410Y-78069596D01*
X180598414Y-78069601D01*
X180600976Y-78073509D01*
X180775018Y-78268506D01*
X180975970Y-78435637D01*
X180985268Y-78441279D01*
X181195422Y-78568804D01*
X181195426Y-78568806D01*
X181199419Y-78571229D01*
X181440455Y-78672303D01*
X181693783Y-78736641D01*
X181698434Y-78737109D01*
X181698438Y-78737110D01*
X181891308Y-78756531D01*
X181910867Y-78758500D01*
X182066354Y-78758500D01*
X182068679Y-78758327D01*
X182068685Y-78758327D01*
X182256000Y-78744407D01*
X182256004Y-78744406D01*
X182260652Y-78744061D01*
X182265200Y-78743032D01*
X182265206Y-78743031D01*
X182451601Y-78700853D01*
X182515577Y-78686377D01*
X182519931Y-78684684D01*
X182754824Y-78593340D01*
X182754827Y-78593339D01*
X182759177Y-78591647D01*
X182772557Y-78584000D01*
X182849198Y-78540196D01*
X182986098Y-78461951D01*
X183191357Y-78300138D01*
X183370443Y-78109763D01*
X183519424Y-77895009D01*
X183521492Y-77890816D01*
X183632960Y-77664781D01*
X183632961Y-77664778D01*
X183635025Y-77660593D01*
X183649771Y-77614528D01*
X183713280Y-77416123D01*
X183714707Y-77411665D01*
X183756721Y-77153693D01*
X183760142Y-76892345D01*
X183724896Y-76633362D01*
X183710473Y-76583877D01*
X183653068Y-76386932D01*
X183651757Y-76382433D01*
X183542332Y-76145072D01*
X183474591Y-76041750D01*
X183401590Y-75930404D01*
X183401586Y-75930399D01*
X183399024Y-75926491D01*
X183224982Y-75731494D01*
X183024030Y-75564363D01*
X182974559Y-75534343D01*
X182804578Y-75431196D01*
X182804574Y-75431194D01*
X182800581Y-75428771D01*
X182559545Y-75327697D01*
X182306217Y-75263359D01*
X182301566Y-75262891D01*
X182301562Y-75262890D01*
X182092271Y-75241816D01*
X182089133Y-75241500D01*
X181933646Y-75241500D01*
X181931321Y-75241673D01*
X181931315Y-75241673D01*
X181744000Y-75255593D01*
X181743996Y-75255594D01*
X181739348Y-75255939D01*
X181734800Y-75256968D01*
X181734794Y-75256969D01*
X181548399Y-75299147D01*
X181484423Y-75313623D01*
X181480071Y-75315315D01*
X181480069Y-75315316D01*
X181245176Y-75406660D01*
X181245173Y-75406661D01*
X181240823Y-75408353D01*
X181013902Y-75538049D01*
X180808643Y-75699862D01*
X180629557Y-75890237D01*
X180480576Y-76104991D01*
X180364975Y-76339407D01*
X180285293Y-76588335D01*
X180243279Y-76846307D01*
X180241961Y-76946996D01*
X180240234Y-77078966D01*
X180239858Y-77107655D01*
X167088729Y-77107655D01*
X167088729Y-76044000D01*
X167083500Y-75970889D01*
X167042304Y-75830589D01*
X166996318Y-75759034D01*
X166968122Y-75715159D01*
X166968120Y-75715156D01*
X166963250Y-75707579D01*
X166951008Y-75696971D01*
X166859555Y-75617726D01*
X166859552Y-75617724D01*
X166852743Y-75611824D01*
X166719734Y-75551081D01*
X166575000Y-75530271D01*
X165575000Y-75530271D01*
X165573036Y-75530395D01*
X165573032Y-75530395D01*
X165516920Y-75533934D01*
X165516916Y-75533935D01*
X165510443Y-75534343D01*
X165369472Y-75573176D01*
X165361812Y-75577919D01*
X165361809Y-75577920D01*
X165252813Y-75645406D01*
X165252811Y-75645407D01*
X165245150Y-75650151D01*
X165147552Y-75759034D01*
X164647552Y-76509034D01*
X164638218Y-76523558D01*
X164636209Y-76528160D01*
X164636208Y-76528162D01*
X164583324Y-76649308D01*
X164579718Y-76657569D01*
X164561344Y-76802632D01*
X164584582Y-76946996D01*
X164647552Y-77078966D01*
X165147552Y-77828966D01*
X165170308Y-77858837D01*
X165177224Y-77867916D01*
X165202594Y-77934225D01*
X165188087Y-78003724D01*
X165138309Y-78054347D01*
X165076995Y-78070271D01*
X164157000Y-78070271D01*
X164125014Y-78072559D01*
X164090627Y-78075018D01*
X164090626Y-78075018D01*
X164083889Y-78075500D01*
X164023149Y-78093335D01*
X163952235Y-78114157D01*
X163952233Y-78114158D01*
X163943589Y-78116696D01*
X163936010Y-78121567D01*
X163828159Y-78190878D01*
X163828156Y-78190880D01*
X163820579Y-78195750D01*
X163814678Y-78202560D01*
X163730726Y-78299445D01*
X163730724Y-78299448D01*
X163724824Y-78306257D01*
X163664081Y-78439266D01*
X163662798Y-78448187D01*
X163662798Y-78448188D01*
X163661756Y-78455437D01*
X163632262Y-78520017D01*
X163572535Y-78558400D01*
X163501539Y-78558399D01*
X163474161Y-78546675D01*
X163468941Y-78542882D01*
X163397083Y-78510889D01*
X163300508Y-78467891D01*
X163300507Y-78467891D01*
X163294477Y-78465206D01*
X163172440Y-78439266D01*
X163114133Y-78426872D01*
X163114128Y-78426872D01*
X163107676Y-78425500D01*
X162916702Y-78425500D01*
X162910250Y-78426872D01*
X162910245Y-78426872D01*
X162851938Y-78439266D01*
X162729901Y-78465206D01*
X162723871Y-78467891D01*
X162723870Y-78467891D01*
X162561467Y-78540197D01*
X162561465Y-78540198D01*
X162555437Y-78542882D01*
X162550096Y-78546762D01*
X162550095Y-78546763D01*
X162516421Y-78571229D01*
X162400936Y-78655134D01*
X162396515Y-78660044D01*
X162396514Y-78660045D01*
X162304045Y-78762743D01*
X162273149Y-78797056D01*
X162261117Y-78817896D01*
X162198879Y-78925696D01*
X162177662Y-78962444D01*
X162118647Y-79144072D01*
X162117957Y-79150633D01*
X162117957Y-79150635D01*
X162111601Y-79211107D01*
X162098685Y-79334000D01*
X162118647Y-79523928D01*
X162177662Y-79705556D01*
X162273149Y-79870944D01*
X162277567Y-79875851D01*
X162277568Y-79875852D01*
X162381107Y-79990844D01*
X162400936Y-80012866D01*
X162555437Y-80125118D01*
X162561465Y-80127802D01*
X162561467Y-80127803D01*
X162723870Y-80200109D01*
X162729901Y-80202794D01*
X162817905Y-80221500D01*
X162910245Y-80241128D01*
X162910250Y-80241128D01*
X162916702Y-80242500D01*
X163107676Y-80242500D01*
X163114128Y-80241128D01*
X163114133Y-80241128D01*
X163206473Y-80221500D01*
X163294477Y-80202794D01*
X163300508Y-80200109D01*
X163462913Y-80127802D01*
X163462914Y-80127801D01*
X163468941Y-80125118D01*
X163474279Y-80121240D01*
X163475484Y-80120544D01*
X163544480Y-80103806D01*
X163611571Y-80127027D01*
X163655458Y-80182834D01*
X163659379Y-80194160D01*
X163689696Y-80297411D01*
X163714965Y-80336730D01*
X163763878Y-80412841D01*
X163763880Y-80412844D01*
X163768750Y-80420421D01*
X163809879Y-80456060D01*
X163848262Y-80515784D01*
X163848262Y-80586780D01*
X163809879Y-80646507D01*
X163801429Y-80653217D01*
X163754747Y-80687134D01*
X163750326Y-80692044D01*
X163750325Y-80692045D01*
X163713029Y-80733467D01*
X163626960Y-80829056D01*
X163531473Y-80994444D01*
X163472458Y-81176072D01*
X163452496Y-81366000D01*
X163472458Y-81555928D01*
X163531473Y-81737556D01*
X163534776Y-81743278D01*
X163534777Y-81743279D01*
X163626390Y-81901957D01*
X163643271Y-81964957D01*
X163643271Y-82624000D01*
X163648500Y-82697111D01*
X163668353Y-82764725D01*
X163683258Y-82815484D01*
X163689696Y-82837411D01*
X163694567Y-82844990D01*
X163763878Y-82952841D01*
X163763880Y-82952844D01*
X163768750Y-82960421D01*
X163809879Y-82996060D01*
X163848262Y-83055784D01*
X163848262Y-83126780D01*
X163809879Y-83186507D01*
X163801429Y-83193217D01*
X163754747Y-83227134D01*
X163750329Y-83232041D01*
X163750325Y-83232045D01*
X163641203Y-83353238D01*
X163626960Y-83369056D01*
X163531473Y-83534444D01*
X163472458Y-83716072D01*
X163452496Y-83906000D01*
X163472458Y-84095928D01*
X163531473Y-84277556D01*
X163534776Y-84283278D01*
X163534777Y-84283279D01*
X163626390Y-84441957D01*
X163643271Y-84504957D01*
X163643271Y-85164000D01*
X163648500Y-85237111D01*
X163689696Y-85377411D01*
X163694567Y-85384990D01*
X163763878Y-85492841D01*
X163763880Y-85492844D01*
X163768750Y-85500421D01*
X163775560Y-85506322D01*
X163872445Y-85590274D01*
X163872448Y-85590276D01*
X163879257Y-85596176D01*
X164012266Y-85656919D01*
X164021189Y-85658202D01*
X164037100Y-85660490D01*
X164157000Y-85677729D01*
X164681635Y-85677729D01*
X164749756Y-85697731D01*
X164770730Y-85714634D01*
X164889263Y-85833167D01*
X164896807Y-85841457D01*
X164900920Y-85847938D01*
X164906697Y-85853363D01*
X164950587Y-85894578D01*
X164953429Y-85897333D01*
X164973150Y-85917054D01*
X164976345Y-85919532D01*
X164985367Y-85927238D01*
X165017599Y-85957506D01*
X165024548Y-85961326D01*
X165035352Y-85967266D01*
X165051876Y-85978119D01*
X165067879Y-85990533D01*
X165108463Y-86008096D01*
X165119093Y-86013303D01*
X165157860Y-86034615D01*
X165165537Y-86036586D01*
X165165542Y-86036588D01*
X165177478Y-86039652D01*
X165196186Y-86046057D01*
X165214775Y-86054101D01*
X165222603Y-86055341D01*
X165222610Y-86055343D01*
X165258444Y-86061019D01*
X165270064Y-86063425D01*
X165301879Y-86071593D01*
X165312890Y-86074420D01*
X165333144Y-86074420D01*
X165352854Y-86075971D01*
X165372863Y-86079140D01*
X165380755Y-86078394D01*
X165399500Y-86076622D01*
X165416882Y-86074979D01*
X165428739Y-86074420D01*
X166642937Y-86074420D01*
X166654120Y-86074947D01*
X166661613Y-86076622D01*
X166669539Y-86076373D01*
X166669540Y-86076373D01*
X166729690Y-86074482D01*
X166733649Y-86074420D01*
X166761560Y-86074420D01*
X166765495Y-86073923D01*
X166765560Y-86073915D01*
X166777397Y-86072982D01*
X166809655Y-86071968D01*
X166813674Y-86071842D01*
X166821593Y-86071593D01*
X166841047Y-86065941D01*
X166860404Y-86061933D01*
X166872634Y-86060388D01*
X166872635Y-86060388D01*
X166880501Y-86059394D01*
X166887872Y-86056475D01*
X166887874Y-86056475D01*
X166921616Y-86043116D01*
X166932846Y-86039271D01*
X166967687Y-86029149D01*
X166967688Y-86029149D01*
X166975297Y-86026938D01*
X166982116Y-86022905D01*
X166982121Y-86022903D01*
X166992732Y-86016627D01*
X167010480Y-86007932D01*
X167029321Y-86000472D01*
X167049691Y-85985673D01*
X167065091Y-85974484D01*
X167075011Y-85967968D01*
X167106239Y-85949500D01*
X167106242Y-85949498D01*
X167113066Y-85945462D01*
X167127387Y-85931141D01*
X167142421Y-85918300D01*
X167144136Y-85917054D01*
X167158811Y-85906392D01*
X167187002Y-85872315D01*
X167194992Y-85863536D01*
X168332201Y-84726327D01*
X168394513Y-84692301D01*
X168465328Y-84697366D01*
X168522164Y-84739913D01*
X168546606Y-84802251D01*
X168552458Y-84857928D01*
X168611473Y-85039556D01*
X168706960Y-85204944D01*
X168711378Y-85209851D01*
X168711379Y-85209852D01*
X168830325Y-85341955D01*
X168834747Y-85346866D01*
X168989248Y-85459118D01*
X168995278Y-85461803D01*
X169001001Y-85465107D01*
X168999845Y-85467109D01*
X169045856Y-85506229D01*
X169066500Y-85575339D01*
X169066500Y-86437692D01*
X169046498Y-86505813D01*
X168998683Y-86549453D01*
X168973607Y-86562507D01*
X168969474Y-86565610D01*
X168969471Y-86565612D01*
X168945247Y-86583800D01*
X168794965Y-86696635D01*
X168640629Y-86858138D01*
X168533201Y-87015621D01*
X168478293Y-87060621D01*
X168407768Y-87068792D01*
X168344021Y-87037538D01*
X168323324Y-87013054D01*
X168242822Y-86888617D01*
X168242820Y-86888614D01*
X168240014Y-86884277D01*
X168089670Y-86719051D01*
X168085619Y-86715852D01*
X168085615Y-86715848D01*
X167918414Y-86583800D01*
X167918410Y-86583798D01*
X167914359Y-86580598D01*
X167909831Y-86578098D01*
X167793988Y-86514150D01*
X167718789Y-86472638D01*
X167713920Y-86470914D01*
X167713916Y-86470912D01*
X167513087Y-86399795D01*
X167513083Y-86399794D01*
X167508212Y-86398069D01*
X167503119Y-86397162D01*
X167503116Y-86397161D01*
X167293373Y-86359800D01*
X167293367Y-86359799D01*
X167288284Y-86358894D01*
X167214452Y-86357992D01*
X167070081Y-86356228D01*
X167070079Y-86356228D01*
X167064911Y-86356165D01*
X166844091Y-86389955D01*
X166631756Y-86459357D01*
X166556467Y-86498550D01*
X166457975Y-86549822D01*
X166433607Y-86562507D01*
X166429474Y-86565610D01*
X166429471Y-86565612D01*
X166405247Y-86583800D01*
X166254965Y-86696635D01*
X166100629Y-86858138D01*
X165993201Y-87015621D01*
X165938293Y-87060621D01*
X165867768Y-87068792D01*
X165804021Y-87037538D01*
X165783324Y-87013054D01*
X165702822Y-86888617D01*
X165702820Y-86888614D01*
X165700014Y-86884277D01*
X165549670Y-86719051D01*
X165545619Y-86715852D01*
X165545615Y-86715848D01*
X165378414Y-86583800D01*
X165378410Y-86583798D01*
X165374359Y-86580598D01*
X165369831Y-86578098D01*
X165253988Y-86514150D01*
X165178789Y-86472638D01*
X165173920Y-86470914D01*
X165173916Y-86470912D01*
X164973087Y-86399795D01*
X164973083Y-86399794D01*
X164968212Y-86398069D01*
X164963119Y-86397162D01*
X164963116Y-86397161D01*
X164753373Y-86359800D01*
X164753367Y-86359799D01*
X164748284Y-86358894D01*
X164674452Y-86357992D01*
X164530081Y-86356228D01*
X164530079Y-86356228D01*
X164524911Y-86356165D01*
X164304091Y-86389955D01*
X164091756Y-86459357D01*
X164016467Y-86498550D01*
X163917975Y-86549822D01*
X163893607Y-86562507D01*
X163889474Y-86565610D01*
X163889471Y-86565612D01*
X163865247Y-86583800D01*
X163714965Y-86696635D01*
X163560629Y-86858138D01*
X163434743Y-87042680D01*
X163340688Y-87245305D01*
X163280989Y-87460570D01*
X163257251Y-87682695D01*
X163270110Y-87905715D01*
X163271247Y-87910761D01*
X163271248Y-87910767D01*
X163284597Y-87970000D01*
X163319222Y-88123639D01*
X163403266Y-88330616D01*
X163453863Y-88413183D01*
X163517291Y-88516688D01*
X163519987Y-88521088D01*
X163523366Y-88524989D01*
X163526425Y-88529168D01*
X163524952Y-88530246D01*
X163551128Y-88587587D01*
X163541014Y-88657859D01*
X163494513Y-88711508D01*
X163426408Y-88731500D01*
X158634500Y-88731500D01*
X158566379Y-88711498D01*
X158519886Y-88657842D01*
X158508500Y-88605500D01*
X158508500Y-77107655D01*
X159239858Y-77107655D01*
X159275104Y-77366638D01*
X159276412Y-77371124D01*
X159276412Y-77371126D01*
X159293080Y-77428312D01*
X159348243Y-77617567D01*
X159457668Y-77854928D01*
X159460231Y-77858837D01*
X159598410Y-78069596D01*
X159598414Y-78069601D01*
X159600976Y-78073509D01*
X159775018Y-78268506D01*
X159975970Y-78435637D01*
X159985268Y-78441279D01*
X160195422Y-78568804D01*
X160195426Y-78568806D01*
X160199419Y-78571229D01*
X160440455Y-78672303D01*
X160693783Y-78736641D01*
X160698434Y-78737109D01*
X160698438Y-78737110D01*
X160891308Y-78756531D01*
X160910867Y-78758500D01*
X161066354Y-78758500D01*
X161068679Y-78758327D01*
X161068685Y-78758327D01*
X161256000Y-78744407D01*
X161256004Y-78744406D01*
X161260652Y-78744061D01*
X161265200Y-78743032D01*
X161265206Y-78743031D01*
X161451601Y-78700853D01*
X161515577Y-78686377D01*
X161519931Y-78684684D01*
X161754824Y-78593340D01*
X161754827Y-78593339D01*
X161759177Y-78591647D01*
X161772557Y-78584000D01*
X161849198Y-78540196D01*
X161986098Y-78461951D01*
X162191357Y-78300138D01*
X162370443Y-78109763D01*
X162519424Y-77895009D01*
X162521492Y-77890816D01*
X162632960Y-77664781D01*
X162632961Y-77664778D01*
X162635025Y-77660593D01*
X162649771Y-77614528D01*
X162713280Y-77416123D01*
X162714707Y-77411665D01*
X162756721Y-77153693D01*
X162760142Y-76892345D01*
X162724896Y-76633362D01*
X162710473Y-76583877D01*
X162653068Y-76386932D01*
X162651757Y-76382433D01*
X162542332Y-76145072D01*
X162474591Y-76041750D01*
X162401590Y-75930404D01*
X162401586Y-75930399D01*
X162399024Y-75926491D01*
X162224982Y-75731494D01*
X162024030Y-75564363D01*
X161974559Y-75534343D01*
X161804578Y-75431196D01*
X161804574Y-75431194D01*
X161800581Y-75428771D01*
X161559545Y-75327697D01*
X161306217Y-75263359D01*
X161301566Y-75262891D01*
X161301562Y-75262890D01*
X161092271Y-75241816D01*
X161089133Y-75241500D01*
X160933646Y-75241500D01*
X160931321Y-75241673D01*
X160931315Y-75241673D01*
X160744000Y-75255593D01*
X160743996Y-75255594D01*
X160739348Y-75255939D01*
X160734800Y-75256968D01*
X160734794Y-75256969D01*
X160548399Y-75299147D01*
X160484423Y-75313623D01*
X160480071Y-75315315D01*
X160480069Y-75315316D01*
X160245176Y-75406660D01*
X160245173Y-75406661D01*
X160240823Y-75408353D01*
X160013902Y-75538049D01*
X159808643Y-75699862D01*
X159629557Y-75890237D01*
X159480576Y-76104991D01*
X159364975Y-76339407D01*
X159285293Y-76588335D01*
X159243279Y-76846307D01*
X159241961Y-76946996D01*
X159240234Y-77078966D01*
X159239858Y-77107655D01*
X158508500Y-77107655D01*
X158508500Y-74634500D01*
X158528502Y-74566379D01*
X158582158Y-74519886D01*
X158634500Y-74508500D01*
X184559500Y-74508500D01*
X184627621Y-74528502D01*
G37*
%TD.AperFunction*%
%TA.AperFunction,Conductor*%
G36*
X173123921Y-78733502D02*
G01*
X173143147Y-78749843D01*
X173143420Y-78749540D01*
X173148332Y-78753962D01*
X173152747Y-78758866D01*
X173201642Y-78794390D01*
X173244995Y-78850610D01*
X173251071Y-78921346D01*
X173216675Y-78985420D01*
X172202095Y-80000000D01*
X172139783Y-80034026D01*
X172068968Y-80028961D01*
X172023905Y-80000000D01*
X171497589Y-79473684D01*
X171463563Y-79411372D01*
X171468628Y-79340557D01*
X171511175Y-79283721D01*
X171577695Y-79258910D01*
X171586684Y-79258589D01*
X171600144Y-79258589D01*
X171611327Y-79259116D01*
X171618820Y-79260791D01*
X171626746Y-79260542D01*
X171626747Y-79260542D01*
X171686897Y-79258651D01*
X171690856Y-79258589D01*
X171718767Y-79258589D01*
X171722702Y-79258092D01*
X171722767Y-79258084D01*
X171734604Y-79257151D01*
X171766862Y-79256137D01*
X171770881Y-79256011D01*
X171778800Y-79255762D01*
X171798254Y-79250110D01*
X171817611Y-79246102D01*
X171829841Y-79244557D01*
X171829842Y-79244557D01*
X171837708Y-79243563D01*
X171845079Y-79240644D01*
X171845081Y-79240644D01*
X171878823Y-79227285D01*
X171890053Y-79223440D01*
X171924894Y-79213318D01*
X171924895Y-79213318D01*
X171932504Y-79211107D01*
X171939323Y-79207074D01*
X171939328Y-79207072D01*
X171949939Y-79200796D01*
X171967687Y-79192101D01*
X171986528Y-79184641D01*
X172022298Y-79158653D01*
X172032218Y-79152137D01*
X172063446Y-79133669D01*
X172063449Y-79133667D01*
X172070273Y-79129631D01*
X172084594Y-79115310D01*
X172099628Y-79102469D01*
X172109605Y-79095220D01*
X172116018Y-79090561D01*
X172144209Y-79056484D01*
X172152199Y-79047705D01*
X172449499Y-78750405D01*
X172511811Y-78716379D01*
X172538594Y-78713500D01*
X173055800Y-78713500D01*
X173123921Y-78733502D01*
G37*
%TD.AperFunction*%
%TD*%
M02*
