%TF.GenerationSoftware,KiCad,Pcbnew,7.0.5*%
%TF.CreationDate,2023-07-07T17:48:57-05:00*%
%TF.ProjectId,ADS1219,41445331-3231-4392-9e6b-696361645f70,4*%
%TF.SameCoordinates,Original*%
%TF.FileFunction,Copper,L2,Bot*%
%TF.FilePolarity,Positive*%
%FSLAX46Y46*%
G04 Gerber Fmt 4.6, Leading zero omitted, Abs format (unit mm)*
G04 Created by KiCad (PCBNEW 7.0.5) date 2023-07-07 17:48:57*
%MOMM*%
%LPD*%
G01*
G04 APERTURE LIST*
%TA.AperFunction,ComponentPad*%
%ADD10R,1.700000X1.700000*%
%TD*%
%TA.AperFunction,ComponentPad*%
%ADD11O,1.700000X1.700000*%
%TD*%
%TA.AperFunction,ViaPad*%
%ADD12C,0.800000*%
%TD*%
%TA.AperFunction,Conductor*%
%ADD13C,0.250000*%
%TD*%
G04 APERTURE END LIST*
D10*
%TO.P,J4,1,Pin_1*%
%TO.N,Net-(J4-Pad1)*%
X180000000Y-80500000D03*
%TD*%
%TO.P,J2,1,Pin_1*%
%TO.N,/AIN0*%
X164150000Y-97000000D03*
D11*
%TO.P,J2,2,Pin_2*%
%TO.N,/AIN1*%
X166690000Y-97000000D03*
%TO.P,J2,3,Pin_3*%
%TO.N,/AIN2*%
X169230000Y-97000000D03*
%TO.P,J2,4,Pin_4*%
%TO.N,/AIN3*%
X171770000Y-97000000D03*
%TO.P,J2,5,Pin_5*%
%TO.N,+3.3V*%
X174310000Y-97000000D03*
%TO.P,J2,6,Pin_6*%
%TO.N,GND*%
X176850000Y-97000000D03*
%TD*%
D12*
%TO.N,GND*%
X169000000Y-84500000D03*
X170500000Y-78000000D03*
X172000000Y-81500000D03*
X172500000Y-93000000D03*
X176000000Y-77500000D03*
X165000000Y-77500000D03*
%TO.N,+3.3V*%
X175000000Y-81000000D03*
X170500000Y-85000000D03*
X162500000Y-85000000D03*
X169000000Y-78000000D03*
%TO.N,/SDA*%
X177000000Y-85000000D03*
X162500000Y-87500000D03*
X174000000Y-77500000D03*
%TO.N,/AIN2*%
X169000000Y-88500000D03*
%TO.N,/AIN3*%
X169000000Y-87500000D03*
%TO.N,Net-(J4-Pad1)*%
X176718000Y-86782000D03*
%TD*%
D13*
%TO.N,+3.3V*%
X168000000Y-79000000D02*
X169000000Y-78000000D01*
X174500000Y-81000000D02*
X175000000Y-81000000D01*
X168000000Y-82500000D02*
X168000000Y-79000000D01*
X168000000Y-82500000D02*
X170500000Y-85000000D01*
X165000000Y-82500000D02*
X168000000Y-82500000D01*
X162500000Y-85000000D02*
X165000000Y-82500000D01*
X170500000Y-85000000D02*
X174500000Y-81000000D01*
%TO.N,/SDA*%
X161822600Y-84219411D02*
X169042011Y-77000000D01*
X169042011Y-77000000D02*
X173500000Y-77000000D01*
X173500000Y-77000000D02*
X174000000Y-77500000D01*
X161822600Y-86822600D02*
X161822600Y-84219411D01*
X162500000Y-87500000D02*
X161822600Y-86822600D01*
X177000000Y-85000000D02*
X177000000Y-80500000D01*
X177000000Y-80500000D02*
X174000000Y-77500000D01*
%TO.N,/AIN2*%
X169230000Y-97000000D02*
X169230000Y-88730000D01*
X169230000Y-88730000D02*
X169000000Y-88500000D01*
%TO.N,/AIN3*%
X171770000Y-90270000D02*
X169000000Y-87500000D01*
X171770000Y-97000000D02*
X171770000Y-90270000D01*
%TO.N,Net-(J4-Pad1)*%
X176718000Y-86782000D02*
X180000000Y-83500000D01*
X180000000Y-83500000D02*
X180000000Y-80500000D01*
%TD*%
%TA.AperFunction,Conductor*%
%TO.N,GND*%
G36*
X173064700Y-77653502D02*
G01*
X173111193Y-77707158D01*
X173116411Y-77720562D01*
X173165473Y-77871556D01*
X173165476Y-77871561D01*
X173260958Y-78036941D01*
X173260965Y-78036951D01*
X173388744Y-78178864D01*
X173388747Y-78178866D01*
X173543248Y-78291118D01*
X173717712Y-78368794D01*
X173904513Y-78408500D01*
X173960406Y-78408500D01*
X174028527Y-78428502D01*
X174049501Y-78445405D01*
X175627365Y-80023269D01*
X175661391Y-80085581D01*
X175656326Y-80156396D01*
X175613779Y-80213232D01*
X175547259Y-80238043D01*
X175477885Y-80222952D01*
X175464209Y-80214300D01*
X175456752Y-80208882D01*
X175282288Y-80131206D01*
X175095487Y-80091500D01*
X174904513Y-80091500D01*
X174717711Y-80131206D01*
X174543247Y-80208882D01*
X174388749Y-80321132D01*
X174388743Y-80321137D01*
X174350357Y-80363768D01*
X174303109Y-80396607D01*
X174297336Y-80398893D01*
X174291718Y-80400816D01*
X174246408Y-80413981D01*
X174246402Y-80413984D01*
X174228963Y-80424297D01*
X174211218Y-80432990D01*
X174192380Y-80440449D01*
X174170278Y-80456507D01*
X174154212Y-80468180D01*
X174149261Y-80471433D01*
X174108640Y-80495455D01*
X174094307Y-80509787D01*
X174079281Y-80522620D01*
X174062895Y-80534526D01*
X174062894Y-80534526D01*
X174032818Y-80570880D01*
X174028823Y-80575271D01*
X170589094Y-84015000D01*
X170526782Y-84049026D01*
X170455967Y-84043961D01*
X170410904Y-84015000D01*
X169549406Y-83153502D01*
X168670405Y-82274500D01*
X168636379Y-82212188D01*
X168633500Y-82185405D01*
X168633500Y-79314594D01*
X168653502Y-79246473D01*
X168670405Y-79225499D01*
X168950499Y-78945405D01*
X169012811Y-78911379D01*
X169039594Y-78908500D01*
X169095487Y-78908500D01*
X169282288Y-78868794D01*
X169456752Y-78791118D01*
X169611253Y-78678866D01*
X169739040Y-78536944D01*
X169834527Y-78371556D01*
X169893542Y-78189928D01*
X169913504Y-78000000D01*
X169893542Y-77810072D01*
X169889761Y-77798435D01*
X169887735Y-77727467D01*
X169924398Y-77666669D01*
X169988111Y-77635345D01*
X170009595Y-77633500D01*
X172996579Y-77633500D01*
X173064700Y-77653502D01*
G37*
%TD.AperFunction*%
%TA.AperFunction,Conductor*%
G36*
X182941621Y-74020502D02*
G01*
X182988114Y-74074158D01*
X182999500Y-74126500D01*
X182999500Y-98873500D01*
X182979498Y-98941621D01*
X182925842Y-98988114D01*
X182873500Y-98999500D01*
X158126500Y-98999500D01*
X158058379Y-98979498D01*
X158011886Y-98925842D01*
X158000500Y-98873500D01*
X158000500Y-97124335D01*
X158519500Y-97124335D01*
X158553647Y-97328974D01*
X158560428Y-97369609D01*
X158560430Y-97369618D01*
X158641170Y-97604807D01*
X158641171Y-97604809D01*
X158679353Y-97675362D01*
X158759526Y-97823509D01*
X158899156Y-98002906D01*
X158912267Y-98019750D01*
X159095214Y-98188164D01*
X159303393Y-98324173D01*
X159303392Y-98324173D01*
X159449411Y-98388222D01*
X159531119Y-98424063D01*
X159531120Y-98424063D01*
X159531122Y-98424064D01*
X159772171Y-98485106D01*
X159772179Y-98485108D01*
X159957933Y-98500500D01*
X159957939Y-98500500D01*
X160082061Y-98500500D01*
X160082067Y-98500500D01*
X160267821Y-98485108D01*
X160508881Y-98424063D01*
X160736607Y-98324173D01*
X160944785Y-98188164D01*
X160944784Y-98188163D01*
X161127732Y-98019750D01*
X161127733Y-98019748D01*
X161127738Y-98019744D01*
X161221990Y-97898649D01*
X162791500Y-97898649D01*
X162798009Y-97959196D01*
X162798011Y-97959204D01*
X162849110Y-98096202D01*
X162849112Y-98096207D01*
X162936738Y-98213261D01*
X163053792Y-98300887D01*
X163053794Y-98300888D01*
X163053796Y-98300889D01*
X163108900Y-98321442D01*
X163190795Y-98351988D01*
X163190803Y-98351990D01*
X163251350Y-98358499D01*
X163251355Y-98358499D01*
X163251362Y-98358500D01*
X163251368Y-98358500D01*
X165048632Y-98358500D01*
X165048638Y-98358500D01*
X165048645Y-98358499D01*
X165048649Y-98358499D01*
X165109196Y-98351990D01*
X165109199Y-98351989D01*
X165109201Y-98351989D01*
X165246204Y-98300889D01*
X165316399Y-98248342D01*
X165363261Y-98213261D01*
X165450886Y-98096208D01*
X165450885Y-98096208D01*
X165450889Y-98096204D01*
X165494999Y-97977939D01*
X165537545Y-97921107D01*
X165604066Y-97896296D01*
X165673440Y-97911388D01*
X165705753Y-97936635D01*
X165726529Y-97959204D01*
X165766762Y-98002908D01*
X165788393Y-98019744D01*
X165944424Y-98141189D01*
X166142426Y-98248342D01*
X166142427Y-98248342D01*
X166142428Y-98248343D01*
X166254227Y-98286723D01*
X166355365Y-98321444D01*
X166577431Y-98358500D01*
X166577435Y-98358500D01*
X166802565Y-98358500D01*
X166802569Y-98358500D01*
X167024635Y-98321444D01*
X167237574Y-98248342D01*
X167435576Y-98141189D01*
X167613240Y-98002906D01*
X167765722Y-97837268D01*
X167854518Y-97701354D01*
X167908520Y-97655268D01*
X167978868Y-97645692D01*
X168043225Y-97675669D01*
X168065480Y-97701353D01*
X168098607Y-97752058D01*
X168154275Y-97837265D01*
X168154279Y-97837270D01*
X168306762Y-98002908D01*
X168328393Y-98019744D01*
X168484424Y-98141189D01*
X168682426Y-98248342D01*
X168682427Y-98248342D01*
X168682428Y-98248343D01*
X168794227Y-98286723D01*
X168895365Y-98321444D01*
X169117431Y-98358500D01*
X169117435Y-98358500D01*
X169342565Y-98358500D01*
X169342569Y-98358500D01*
X169564635Y-98321444D01*
X169777574Y-98248342D01*
X169975576Y-98141189D01*
X170153240Y-98002906D01*
X170305722Y-97837268D01*
X170394518Y-97701354D01*
X170448520Y-97655268D01*
X170518868Y-97645692D01*
X170583225Y-97675669D01*
X170605480Y-97701353D01*
X170638607Y-97752058D01*
X170694275Y-97837265D01*
X170694279Y-97837270D01*
X170846762Y-98002908D01*
X170868393Y-98019744D01*
X171024424Y-98141189D01*
X171222426Y-98248342D01*
X171222427Y-98248342D01*
X171222428Y-98248343D01*
X171334227Y-98286723D01*
X171435365Y-98321444D01*
X171657431Y-98358500D01*
X171657435Y-98358500D01*
X171882565Y-98358500D01*
X171882569Y-98358500D01*
X172104635Y-98321444D01*
X172317574Y-98248342D01*
X172515576Y-98141189D01*
X172693240Y-98002906D01*
X172845722Y-97837268D01*
X172934518Y-97701354D01*
X172988520Y-97655268D01*
X173058868Y-97645692D01*
X173123225Y-97675669D01*
X173145480Y-97701353D01*
X173178607Y-97752058D01*
X173234275Y-97837265D01*
X173234279Y-97837270D01*
X173386762Y-98002908D01*
X173408393Y-98019744D01*
X173564424Y-98141189D01*
X173762426Y-98248342D01*
X173762427Y-98248342D01*
X173762428Y-98248343D01*
X173874227Y-98286723D01*
X173975365Y-98321444D01*
X174197431Y-98358500D01*
X174197435Y-98358500D01*
X174422565Y-98358500D01*
X174422569Y-98358500D01*
X174644635Y-98321444D01*
X174857574Y-98248342D01*
X175055576Y-98141189D01*
X175233240Y-98002906D01*
X175385722Y-97837268D01*
X175508860Y-97648791D01*
X175599296Y-97442616D01*
X175654564Y-97224368D01*
X175662853Y-97124335D01*
X179499500Y-97124335D01*
X179533647Y-97328974D01*
X179540428Y-97369609D01*
X179540430Y-97369618D01*
X179621170Y-97604807D01*
X179621171Y-97604809D01*
X179659353Y-97675362D01*
X179739526Y-97823509D01*
X179879156Y-98002906D01*
X179892267Y-98019750D01*
X180075214Y-98188164D01*
X180283393Y-98324173D01*
X180283392Y-98324173D01*
X180429411Y-98388222D01*
X180511119Y-98424063D01*
X180511120Y-98424063D01*
X180511122Y-98424064D01*
X180752171Y-98485106D01*
X180752179Y-98485108D01*
X180937933Y-98500500D01*
X180937939Y-98500500D01*
X181062061Y-98500500D01*
X181062067Y-98500500D01*
X181247821Y-98485108D01*
X181488881Y-98424063D01*
X181716607Y-98324173D01*
X181924785Y-98188164D01*
X182107732Y-98019750D01*
X182107733Y-98019748D01*
X182107738Y-98019744D01*
X182260474Y-97823509D01*
X182378828Y-97604810D01*
X182459571Y-97369614D01*
X182500500Y-97124335D01*
X182500500Y-96875665D01*
X182459571Y-96630386D01*
X182378828Y-96395190D01*
X182260474Y-96176491D01*
X182107738Y-95980256D01*
X182107736Y-95980254D01*
X182107732Y-95980249D01*
X181924785Y-95811835D01*
X181716606Y-95675826D01*
X181716607Y-95675826D01*
X181488884Y-95575938D01*
X181488877Y-95575935D01*
X181247828Y-95514893D01*
X181247823Y-95514892D01*
X181247821Y-95514892D01*
X181131140Y-95505223D01*
X181062070Y-95499500D01*
X181062067Y-95499500D01*
X180937933Y-95499500D01*
X180937929Y-95499500D01*
X180845835Y-95507131D01*
X180752179Y-95514892D01*
X180752177Y-95514892D01*
X180752171Y-95514893D01*
X180511122Y-95575935D01*
X180511115Y-95575938D01*
X180283393Y-95675826D01*
X180075214Y-95811835D01*
X179892267Y-95980249D01*
X179739526Y-96176490D01*
X179739525Y-96176491D01*
X179621171Y-96395190D01*
X179621170Y-96395192D01*
X179540430Y-96630381D01*
X179540428Y-96630386D01*
X179540429Y-96630386D01*
X179499500Y-96875665D01*
X179499500Y-97124335D01*
X175662853Y-97124335D01*
X175673156Y-97000000D01*
X175654564Y-96775632D01*
X175617783Y-96630386D01*
X175599297Y-96557387D01*
X175599296Y-96557386D01*
X175599296Y-96557384D01*
X175508860Y-96351209D01*
X175491500Y-96324637D01*
X175385724Y-96162734D01*
X175385720Y-96162729D01*
X175233237Y-95997091D01*
X175113367Y-95903792D01*
X175055576Y-95858811D01*
X174857574Y-95751658D01*
X174857572Y-95751657D01*
X174857571Y-95751656D01*
X174644639Y-95678557D01*
X174644630Y-95678555D01*
X174600476Y-95671187D01*
X174422569Y-95641500D01*
X174197431Y-95641500D01*
X174049210Y-95666233D01*
X173975369Y-95678555D01*
X173975360Y-95678557D01*
X173762428Y-95751656D01*
X173762426Y-95751658D01*
X173651227Y-95811836D01*
X173564426Y-95858810D01*
X173564424Y-95858811D01*
X173386762Y-95997091D01*
X173234279Y-96162729D01*
X173145483Y-96298643D01*
X173091479Y-96344731D01*
X173021131Y-96354306D01*
X172956774Y-96324329D01*
X172934517Y-96298643D01*
X172845720Y-96162729D01*
X172693237Y-95997091D01*
X172573367Y-95903792D01*
X172515576Y-95858811D01*
X172487620Y-95843681D01*
X172469529Y-95833891D01*
X172419139Y-95783877D01*
X172403500Y-95723078D01*
X172403500Y-90353854D01*
X172405249Y-90338012D01*
X172404956Y-90337985D01*
X172405702Y-90330092D01*
X172403531Y-90261011D01*
X172403500Y-90259032D01*
X172403500Y-90230150D01*
X172403500Y-90230144D01*
X172402620Y-90223182D01*
X172402156Y-90217293D01*
X172400674Y-90170111D01*
X172395020Y-90150652D01*
X172391012Y-90131297D01*
X172388474Y-90111203D01*
X172371103Y-90067329D01*
X172369189Y-90061740D01*
X172356019Y-90016407D01*
X172345703Y-89998964D01*
X172337005Y-89981209D01*
X172329552Y-89962383D01*
X172301818Y-89924210D01*
X172298558Y-89919247D01*
X172274542Y-89878638D01*
X172260214Y-89864310D01*
X172247384Y-89849289D01*
X172235472Y-89832893D01*
X172235469Y-89832891D01*
X172235469Y-89832890D01*
X172199107Y-89802808D01*
X172194726Y-89798822D01*
X169947119Y-87551214D01*
X169913095Y-87488905D01*
X169910908Y-87475309D01*
X169893542Y-87310072D01*
X169834527Y-87128444D01*
X169739040Y-86963056D01*
X169739038Y-86963054D01*
X169739034Y-86963048D01*
X169611255Y-86821135D01*
X169456752Y-86708882D01*
X169282288Y-86631206D01*
X169095487Y-86591500D01*
X168904513Y-86591500D01*
X168717711Y-86631206D01*
X168543247Y-86708882D01*
X168388744Y-86821135D01*
X168260965Y-86963048D01*
X168260958Y-86963058D01*
X168165476Y-87128438D01*
X168165473Y-87128445D01*
X168106457Y-87310072D01*
X168086496Y-87500000D01*
X168106457Y-87689927D01*
X168165474Y-87871560D01*
X168203256Y-87936999D01*
X168219994Y-88005994D01*
X168203257Y-88062997D01*
X168165474Y-88128440D01*
X168165470Y-88128449D01*
X168106457Y-88310071D01*
X168086496Y-88499999D01*
X168106457Y-88689927D01*
X168136526Y-88782470D01*
X168165473Y-88871556D01*
X168165476Y-88871561D01*
X168260958Y-89036941D01*
X168260965Y-89036951D01*
X168388744Y-89178864D01*
X168544561Y-89292072D01*
X168587915Y-89348294D01*
X168596500Y-89394008D01*
X168596500Y-95723078D01*
X168576498Y-95791199D01*
X168530471Y-95833891D01*
X168484426Y-95858810D01*
X168484424Y-95858811D01*
X168306762Y-95997091D01*
X168154279Y-96162729D01*
X168065483Y-96298643D01*
X168011479Y-96344731D01*
X167941131Y-96354306D01*
X167876774Y-96324329D01*
X167854517Y-96298643D01*
X167765720Y-96162729D01*
X167613237Y-95997091D01*
X167493367Y-95903792D01*
X167435576Y-95858811D01*
X167237574Y-95751658D01*
X167237572Y-95751657D01*
X167237571Y-95751656D01*
X167024639Y-95678557D01*
X167024630Y-95678555D01*
X166980476Y-95671187D01*
X166802569Y-95641500D01*
X166577431Y-95641500D01*
X166429210Y-95666233D01*
X166355369Y-95678555D01*
X166355360Y-95678557D01*
X166142428Y-95751656D01*
X166142426Y-95751658D01*
X166031227Y-95811836D01*
X165944426Y-95858810D01*
X165944424Y-95858811D01*
X165766762Y-95997091D01*
X165705754Y-96063363D01*
X165644901Y-96099933D01*
X165573936Y-96097798D01*
X165515391Y-96057636D01*
X165494999Y-96022057D01*
X165450889Y-95903797D01*
X165450887Y-95903792D01*
X165363261Y-95786738D01*
X165246207Y-95699112D01*
X165246202Y-95699110D01*
X165109204Y-95648011D01*
X165109196Y-95648009D01*
X165048649Y-95641500D01*
X165048638Y-95641500D01*
X163251362Y-95641500D01*
X163251350Y-95641500D01*
X163190803Y-95648009D01*
X163190795Y-95648011D01*
X163053797Y-95699110D01*
X163053792Y-95699112D01*
X162936738Y-95786738D01*
X162849112Y-95903792D01*
X162849110Y-95903797D01*
X162798011Y-96040795D01*
X162798009Y-96040803D01*
X162791500Y-96101350D01*
X162791500Y-97898649D01*
X161221990Y-97898649D01*
X161280474Y-97823509D01*
X161398828Y-97604810D01*
X161479571Y-97369614D01*
X161520500Y-97124335D01*
X161520500Y-96875665D01*
X161479571Y-96630386D01*
X161398828Y-96395190D01*
X161280474Y-96176491D01*
X161127738Y-95980256D01*
X161127736Y-95980254D01*
X161127732Y-95980249D01*
X160944785Y-95811835D01*
X160736606Y-95675826D01*
X160736607Y-95675826D01*
X160508884Y-95575938D01*
X160508877Y-95575935D01*
X160267828Y-95514893D01*
X160267823Y-95514892D01*
X160267821Y-95514892D01*
X160151140Y-95505223D01*
X160082070Y-95499500D01*
X160082067Y-95499500D01*
X159957933Y-95499500D01*
X159957929Y-95499500D01*
X159865835Y-95507131D01*
X159772179Y-95514892D01*
X159772177Y-95514892D01*
X159772171Y-95514893D01*
X159531122Y-95575935D01*
X159531115Y-95575938D01*
X159303393Y-95675826D01*
X159095214Y-95811835D01*
X158912267Y-95980249D01*
X158759526Y-96176490D01*
X158759525Y-96176491D01*
X158641171Y-96395190D01*
X158641170Y-96395192D01*
X158560430Y-96630381D01*
X158560428Y-96630386D01*
X158560429Y-96630386D01*
X158519500Y-96875665D01*
X158519500Y-97124335D01*
X158000500Y-97124335D01*
X158000500Y-84199354D01*
X161184380Y-84199354D01*
X161188820Y-84246328D01*
X161189100Y-84252261D01*
X161189100Y-86738746D01*
X161187351Y-86754588D01*
X161187644Y-86754616D01*
X161186898Y-86762508D01*
X161189069Y-86831574D01*
X161189100Y-86833553D01*
X161189100Y-86862451D01*
X161189101Y-86862472D01*
X161189978Y-86869420D01*
X161190444Y-86875332D01*
X161191926Y-86922488D01*
X161191927Y-86922493D01*
X161197577Y-86941939D01*
X161201586Y-86961297D01*
X161204125Y-86981393D01*
X161204126Y-86981399D01*
X161221493Y-87025262D01*
X161223416Y-87030879D01*
X161236582Y-87076193D01*
X161246894Y-87093631D01*
X161255588Y-87111379D01*
X161263044Y-87130209D01*
X161263050Y-87130220D01*
X161290777Y-87168383D01*
X161294037Y-87173346D01*
X161318060Y-87213965D01*
X161332379Y-87228284D01*
X161345217Y-87243314D01*
X161354756Y-87256443D01*
X161357128Y-87259707D01*
X161385394Y-87283091D01*
X161393486Y-87289785D01*
X161397867Y-87293771D01*
X161552876Y-87448781D01*
X161552877Y-87448781D01*
X161586903Y-87511093D01*
X161589092Y-87524705D01*
X161606457Y-87689927D01*
X161636526Y-87782470D01*
X161665473Y-87871556D01*
X161665476Y-87871561D01*
X161760958Y-88036941D01*
X161760965Y-88036951D01*
X161888744Y-88178864D01*
X161888747Y-88178866D01*
X162043248Y-88291118D01*
X162217712Y-88368794D01*
X162404513Y-88408500D01*
X162595487Y-88408500D01*
X162782288Y-88368794D01*
X162956752Y-88291118D01*
X163111253Y-88178866D01*
X163239040Y-88036944D01*
X163334527Y-87871556D01*
X163393542Y-87689928D01*
X163413504Y-87500000D01*
X163393542Y-87310072D01*
X163334527Y-87128444D01*
X163239040Y-86963056D01*
X163239038Y-86963054D01*
X163239034Y-86963048D01*
X163111255Y-86821135D01*
X162956752Y-86708882D01*
X162782288Y-86631206D01*
X162595487Y-86591500D01*
X162582100Y-86591500D01*
X162513979Y-86571498D01*
X162467486Y-86517842D01*
X162456100Y-86465500D01*
X162456100Y-86034500D01*
X162476102Y-85966379D01*
X162529758Y-85919886D01*
X162582100Y-85908500D01*
X162595487Y-85908500D01*
X162782288Y-85868794D01*
X162956752Y-85791118D01*
X163111253Y-85678866D01*
X163239040Y-85536944D01*
X163334527Y-85371556D01*
X163393542Y-85189928D01*
X163410907Y-85024704D01*
X163437920Y-84959049D01*
X163447104Y-84948799D01*
X165225502Y-83170402D01*
X165287812Y-83136379D01*
X165314595Y-83133500D01*
X167685406Y-83133500D01*
X167753527Y-83153502D01*
X167774501Y-83170405D01*
X169552877Y-84948782D01*
X169586903Y-85011094D01*
X169589092Y-85024706D01*
X169606457Y-85189927D01*
X169636526Y-85282470D01*
X169665473Y-85371556D01*
X169665476Y-85371561D01*
X169760958Y-85536941D01*
X169760965Y-85536951D01*
X169888744Y-85678864D01*
X169888747Y-85678866D01*
X170043248Y-85791118D01*
X170217712Y-85868794D01*
X170404513Y-85908500D01*
X170595487Y-85908500D01*
X170782288Y-85868794D01*
X170956752Y-85791118D01*
X171111253Y-85678866D01*
X171239040Y-85536944D01*
X171334527Y-85371556D01*
X171393542Y-85189928D01*
X171410907Y-85024703D01*
X171437920Y-84959048D01*
X171447113Y-84948789D01*
X174524596Y-81871306D01*
X174586906Y-81837282D01*
X174657721Y-81842347D01*
X174664918Y-81845288D01*
X174717712Y-81868794D01*
X174904513Y-81908500D01*
X175095487Y-81908500D01*
X175282288Y-81868794D01*
X175456752Y-81791118D01*
X175611253Y-81678866D01*
X175635979Y-81651405D01*
X175739034Y-81536951D01*
X175739035Y-81536949D01*
X175739040Y-81536944D01*
X175834527Y-81371556D01*
X175893542Y-81189928D01*
X175913504Y-81000000D01*
X175893542Y-80810072D01*
X175834527Y-80628444D01*
X175769360Y-80515572D01*
X175752623Y-80446579D01*
X175775843Y-80379487D01*
X175831650Y-80335600D01*
X175902325Y-80328851D01*
X175965430Y-80361383D01*
X175967575Y-80363479D01*
X176329594Y-80725498D01*
X176363620Y-80787810D01*
X176366499Y-80814593D01*
X176366499Y-84297474D01*
X176346497Y-84365595D01*
X176334136Y-84381783D01*
X176260959Y-84463055D01*
X176260958Y-84463057D01*
X176165476Y-84628438D01*
X176165473Y-84628445D01*
X176106457Y-84810072D01*
X176086496Y-84999999D01*
X176106457Y-85189927D01*
X176136526Y-85282470D01*
X176165473Y-85371556D01*
X176165476Y-85371561D01*
X176260958Y-85536941D01*
X176260965Y-85536951D01*
X176388744Y-85678864D01*
X176430020Y-85708853D01*
X176473374Y-85765076D01*
X176479449Y-85835812D01*
X176446317Y-85898603D01*
X176407208Y-85925896D01*
X176261247Y-85990882D01*
X176106744Y-86103135D01*
X175978965Y-86245048D01*
X175978958Y-86245058D01*
X175883476Y-86410438D01*
X175883473Y-86410445D01*
X175824457Y-86592072D01*
X175804496Y-86781999D01*
X175824457Y-86971927D01*
X175827535Y-86981399D01*
X175883473Y-87153556D01*
X175883476Y-87153561D01*
X175978958Y-87318941D01*
X175978965Y-87318951D01*
X176106744Y-87460864D01*
X176145339Y-87488905D01*
X176261248Y-87573118D01*
X176435712Y-87650794D01*
X176622513Y-87690500D01*
X176813487Y-87690500D01*
X177000288Y-87650794D01*
X177174752Y-87573118D01*
X177329253Y-87460866D01*
X177329255Y-87460864D01*
X177457034Y-87318951D01*
X177457035Y-87318949D01*
X177457040Y-87318944D01*
X177552527Y-87153556D01*
X177611542Y-86971928D01*
X177628907Y-86806704D01*
X177655920Y-86741049D01*
X177665113Y-86730790D01*
X180388660Y-84007243D01*
X180401098Y-83997280D01*
X180400910Y-83997053D01*
X180407016Y-83992001D01*
X180407015Y-83992001D01*
X180407018Y-83992000D01*
X180454337Y-83941608D01*
X180455651Y-83940252D01*
X180476135Y-83919770D01*
X180480445Y-83914212D01*
X180484274Y-83909729D01*
X180516586Y-83875321D01*
X180526346Y-83857565D01*
X180537195Y-83841050D01*
X180549614Y-83825041D01*
X180568363Y-83781710D01*
X180570953Y-83776423D01*
X180593695Y-83735060D01*
X180598733Y-83715434D01*
X180605137Y-83696732D01*
X180613180Y-83678147D01*
X180613179Y-83678147D01*
X180613181Y-83678145D01*
X180620561Y-83631547D01*
X180621762Y-83625740D01*
X180633500Y-83580030D01*
X180633500Y-83559775D01*
X180635051Y-83540063D01*
X180638220Y-83520057D01*
X180635629Y-83492651D01*
X180633780Y-83473080D01*
X180633500Y-83467148D01*
X180633500Y-81984500D01*
X180653502Y-81916379D01*
X180707158Y-81869886D01*
X180759500Y-81858500D01*
X180898632Y-81858500D01*
X180898638Y-81858500D01*
X180898645Y-81858499D01*
X180898649Y-81858499D01*
X180959196Y-81851990D01*
X180959199Y-81851989D01*
X180959201Y-81851989D01*
X181096204Y-81800889D01*
X181109257Y-81791118D01*
X181213261Y-81713261D01*
X181300887Y-81596207D01*
X181300887Y-81596206D01*
X181300889Y-81596204D01*
X181351989Y-81459201D01*
X181358500Y-81398638D01*
X181358500Y-79601362D01*
X181358499Y-79601350D01*
X181351990Y-79540803D01*
X181351988Y-79540795D01*
X181300889Y-79403797D01*
X181300887Y-79403792D01*
X181213261Y-79286738D01*
X181096207Y-79199112D01*
X181096202Y-79199110D01*
X180959204Y-79148011D01*
X180959196Y-79148009D01*
X180898649Y-79141500D01*
X180898638Y-79141500D01*
X179101362Y-79141500D01*
X179101350Y-79141500D01*
X179040803Y-79148009D01*
X179040795Y-79148011D01*
X178903797Y-79199110D01*
X178903792Y-79199112D01*
X178786738Y-79286738D01*
X178699112Y-79403792D01*
X178699110Y-79403797D01*
X178648011Y-79540795D01*
X178648009Y-79540803D01*
X178641500Y-79601350D01*
X178641500Y-81398649D01*
X178648009Y-81459196D01*
X178648011Y-81459204D01*
X178699110Y-81596202D01*
X178699112Y-81596207D01*
X178786738Y-81713261D01*
X178903792Y-81800887D01*
X178903794Y-81800888D01*
X178903796Y-81800889D01*
X178962875Y-81822924D01*
X179040795Y-81851988D01*
X179040803Y-81851990D01*
X179101350Y-81858499D01*
X179101355Y-81858499D01*
X179101362Y-81858500D01*
X179240500Y-81858500D01*
X179308621Y-81878502D01*
X179355114Y-81932158D01*
X179366500Y-81984500D01*
X179366500Y-83185405D01*
X179346498Y-83253526D01*
X179329595Y-83274500D01*
X178002293Y-84601801D01*
X177939981Y-84635827D01*
X177869165Y-84630762D01*
X177812330Y-84588215D01*
X177804079Y-84575706D01*
X177739042Y-84463059D01*
X177739041Y-84463058D01*
X177739040Y-84463056D01*
X177665863Y-84381784D01*
X177635146Y-84317776D01*
X177633500Y-84297474D01*
X177633500Y-80583854D01*
X177635249Y-80568012D01*
X177634956Y-80567985D01*
X177635702Y-80560092D01*
X177633531Y-80491011D01*
X177633500Y-80489032D01*
X177633500Y-80460150D01*
X177633500Y-80460144D01*
X177632620Y-80453182D01*
X177632156Y-80447293D01*
X177630674Y-80400111D01*
X177625020Y-80380652D01*
X177621012Y-80361297D01*
X177618474Y-80341203D01*
X177601103Y-80297329D01*
X177599189Y-80291740D01*
X177586019Y-80246407D01*
X177575703Y-80228964D01*
X177567005Y-80211209D01*
X177559552Y-80192383D01*
X177531818Y-80154210D01*
X177528558Y-80149247D01*
X177504542Y-80108638D01*
X177490214Y-80094310D01*
X177477384Y-80079289D01*
X177465472Y-80062893D01*
X177465469Y-80062891D01*
X177465469Y-80062890D01*
X177429107Y-80032808D01*
X177424726Y-80028822D01*
X174947121Y-77551216D01*
X174913095Y-77488904D01*
X174910908Y-77475306D01*
X174893542Y-77310072D01*
X174834527Y-77128444D01*
X174739040Y-76963056D01*
X174739038Y-76963054D01*
X174739034Y-76963048D01*
X174611255Y-76821135D01*
X174456752Y-76708882D01*
X174282288Y-76631206D01*
X174095487Y-76591500D01*
X174040308Y-76591500D01*
X173972187Y-76571498D01*
X173954061Y-76557355D01*
X173941607Y-76545660D01*
X173940251Y-76544346D01*
X173929997Y-76534092D01*
X173919776Y-76523870D01*
X173919772Y-76523866D01*
X173914225Y-76519563D01*
X173909717Y-76515712D01*
X173875325Y-76483417D01*
X173875319Y-76483413D01*
X173857563Y-76473651D01*
X173841047Y-76462802D01*
X173825041Y-76450386D01*
X173794289Y-76437078D01*
X173781740Y-76431648D01*
X173776408Y-76429036D01*
X173735061Y-76406305D01*
X173715436Y-76401266D01*
X173696736Y-76394864D01*
X173678145Y-76386819D01*
X173678143Y-76386818D01*
X173678142Y-76386818D01*
X173631542Y-76379437D01*
X173625729Y-76378233D01*
X173580030Y-76366500D01*
X173559776Y-76366500D01*
X173540066Y-76364949D01*
X173520057Y-76361780D01*
X173520056Y-76361780D01*
X173473083Y-76366220D01*
X173467150Y-76366500D01*
X169125864Y-76366500D01*
X169110022Y-76364750D01*
X169109995Y-76365044D01*
X169102102Y-76364297D01*
X169033023Y-76366469D01*
X169031044Y-76366500D01*
X169002155Y-76366500D01*
X169002151Y-76366500D01*
X169002140Y-76366501D01*
X168995201Y-76367377D01*
X168989288Y-76367843D01*
X168942125Y-76369325D01*
X168942118Y-76369327D01*
X168922660Y-76374979D01*
X168903315Y-76378985D01*
X168883217Y-76381525D01*
X168883208Y-76381527D01*
X168839342Y-76398894D01*
X168833727Y-76400817D01*
X168788419Y-76413981D01*
X168770975Y-76424297D01*
X168753229Y-76432990D01*
X168734393Y-76440448D01*
X168696220Y-76468181D01*
X168691259Y-76471440D01*
X168650649Y-76495458D01*
X168636322Y-76509784D01*
X168621296Y-76522617D01*
X168604906Y-76534525D01*
X168604904Y-76534527D01*
X168574819Y-76570892D01*
X168570823Y-76575283D01*
X161433936Y-83712168D01*
X161421501Y-83722132D01*
X161421689Y-83722359D01*
X161415579Y-83727413D01*
X161368294Y-83777766D01*
X161366919Y-83779185D01*
X161346463Y-83799642D01*
X161342160Y-83805188D01*
X161338314Y-83809690D01*
X161306017Y-83844085D01*
X161306011Y-83844094D01*
X161296251Y-83861846D01*
X161285403Y-83878361D01*
X161272986Y-83894369D01*
X161254245Y-83937675D01*
X161251634Y-83943005D01*
X161228905Y-83984350D01*
X161228903Y-83984355D01*
X161223867Y-84003970D01*
X161217464Y-84022673D01*
X161209419Y-84041263D01*
X161202037Y-84087867D01*
X161200833Y-84093679D01*
X161189100Y-84139379D01*
X161189100Y-84159634D01*
X161187549Y-84179344D01*
X161184380Y-84199353D01*
X161184380Y-84199354D01*
X158000500Y-84199354D01*
X158000500Y-76124335D01*
X158499500Y-76124335D01*
X158533647Y-76328975D01*
X158540428Y-76369609D01*
X158540430Y-76369618D01*
X158621170Y-76604807D01*
X158621171Y-76604809D01*
X158738241Y-76821134D01*
X158739526Y-76823509D01*
X158848141Y-76963058D01*
X158892267Y-77019750D01*
X159075214Y-77188164D01*
X159283393Y-77324173D01*
X159283392Y-77324173D01*
X159429411Y-77388222D01*
X159511119Y-77424063D01*
X159511120Y-77424063D01*
X159511122Y-77424064D01*
X159713409Y-77475290D01*
X159752179Y-77485108D01*
X159937933Y-77500500D01*
X159937939Y-77500500D01*
X160062061Y-77500500D01*
X160062067Y-77500500D01*
X160247821Y-77485108D01*
X160488881Y-77424063D01*
X160716607Y-77324173D01*
X160924785Y-77188164D01*
X160989665Y-77128438D01*
X161107732Y-77019750D01*
X161107733Y-77019748D01*
X161107738Y-77019744D01*
X161260474Y-76823509D01*
X161378828Y-76604810D01*
X161459571Y-76369614D01*
X161500500Y-76124335D01*
X179499500Y-76124335D01*
X179533647Y-76328974D01*
X179540428Y-76369609D01*
X179540430Y-76369618D01*
X179621170Y-76604807D01*
X179621171Y-76604809D01*
X179738241Y-76821134D01*
X179739526Y-76823509D01*
X179848141Y-76963058D01*
X179892267Y-77019750D01*
X180075214Y-77188164D01*
X180283393Y-77324173D01*
X180283392Y-77324173D01*
X180429411Y-77388222D01*
X180511119Y-77424063D01*
X180511120Y-77424063D01*
X180511122Y-77424064D01*
X180713409Y-77475290D01*
X180752179Y-77485108D01*
X180937933Y-77500500D01*
X180937939Y-77500500D01*
X181062061Y-77500500D01*
X181062067Y-77500500D01*
X181247821Y-77485108D01*
X181488881Y-77424063D01*
X181716607Y-77324173D01*
X181924785Y-77188164D01*
X181989665Y-77128438D01*
X182107732Y-77019750D01*
X182107733Y-77019748D01*
X182107738Y-77019744D01*
X182260474Y-76823509D01*
X182378828Y-76604810D01*
X182459571Y-76369614D01*
X182500500Y-76124335D01*
X182500500Y-75875665D01*
X182459571Y-75630386D01*
X182378828Y-75395190D01*
X182260474Y-75176491D01*
X182107738Y-74980256D01*
X182107736Y-74980254D01*
X182107732Y-74980249D01*
X181924785Y-74811835D01*
X181716606Y-74675826D01*
X181716607Y-74675826D01*
X181488884Y-74575938D01*
X181488877Y-74575935D01*
X181247828Y-74514893D01*
X181247823Y-74514892D01*
X181247821Y-74514892D01*
X181131140Y-74505223D01*
X181062070Y-74499500D01*
X181062067Y-74499500D01*
X180937933Y-74499500D01*
X180937929Y-74499500D01*
X180845835Y-74507131D01*
X180752179Y-74514892D01*
X180752177Y-74514892D01*
X180752171Y-74514893D01*
X180511122Y-74575935D01*
X180511115Y-74575938D01*
X180283393Y-74675826D01*
X180075214Y-74811835D01*
X179892267Y-74980249D01*
X179739526Y-75176490D01*
X179739525Y-75176491D01*
X179621171Y-75395190D01*
X179621170Y-75395192D01*
X179540430Y-75630381D01*
X179540428Y-75630386D01*
X179540429Y-75630386D01*
X179499500Y-75875665D01*
X179499500Y-76124335D01*
X161500500Y-76124335D01*
X161500500Y-75875665D01*
X161459571Y-75630386D01*
X161378828Y-75395190D01*
X161260474Y-75176491D01*
X161107738Y-74980256D01*
X161107736Y-74980254D01*
X161107732Y-74980249D01*
X160924785Y-74811835D01*
X160716606Y-74675826D01*
X160716607Y-74675826D01*
X160488884Y-74575938D01*
X160488877Y-74575935D01*
X160247828Y-74514893D01*
X160247823Y-74514892D01*
X160247821Y-74514892D01*
X160131140Y-74505223D01*
X160062070Y-74499500D01*
X160062067Y-74499500D01*
X159937933Y-74499500D01*
X159937929Y-74499500D01*
X159845835Y-74507131D01*
X159752179Y-74514892D01*
X159752177Y-74514892D01*
X159752171Y-74514893D01*
X159511122Y-74575935D01*
X159511115Y-74575938D01*
X159283393Y-74675826D01*
X159075214Y-74811835D01*
X158892267Y-74980249D01*
X158739526Y-75176490D01*
X158739525Y-75176491D01*
X158621171Y-75395190D01*
X158621170Y-75395192D01*
X158540430Y-75630381D01*
X158540428Y-75630386D01*
X158540429Y-75630386D01*
X158499500Y-75875665D01*
X158499500Y-76124335D01*
X158000500Y-76124335D01*
X158000500Y-74126500D01*
X158020502Y-74058379D01*
X158074158Y-74011886D01*
X158126500Y-74000500D01*
X182873500Y-74000500D01*
X182941621Y-74020502D01*
G37*
%TD.AperFunction*%
%TD*%
M02*
