%TF.GenerationSoftware,KiCad,Pcbnew,(6.0.5)*%
%TF.CreationDate,2022-06-11T16:37:02-05:00*%
%TF.ProjectId,ADS1219,41445331-3231-4392-9e6b-696361645f70,rev?*%
%TF.SameCoordinates,Original*%
%TF.FileFunction,Legend,Bot*%
%TF.FilePolarity,Positive*%
%FSLAX46Y46*%
G04 Gerber Fmt 4.6, Leading zero omitted, Abs format (unit mm)*
G04 Created by KiCad (PCBNEW (6.0.5)) date 2022-06-11 16:37:02*
%MOMM*%
%LPD*%
G01*
G04 APERTURE LIST*
%ADD10C,0.010000*%
G04 APERTURE END LIST*
%TO.C,REF\u002A\u002A*%
G36*
X167669275Y-76716931D02*
G01*
X167753095Y-77161555D01*
X168371667Y-77416551D01*
X168742707Y-77164246D01*
X168816144Y-77114506D01*
X168913499Y-77049218D01*
X168997787Y-76993454D01*
X169064631Y-76950078D01*
X169109654Y-76921953D01*
X169128478Y-76911942D01*
X169140039Y-76919061D01*
X169174596Y-76948894D01*
X169226894Y-76997852D01*
X169292500Y-77061440D01*
X169366983Y-77135163D01*
X169445913Y-77214525D01*
X169524856Y-77295031D01*
X169599384Y-77372185D01*
X169665063Y-77441493D01*
X169717463Y-77498457D01*
X169752153Y-77538584D01*
X169764701Y-77557377D01*
X169761782Y-77565451D01*
X169741571Y-77601469D01*
X169704663Y-77660744D01*
X169654050Y-77738630D01*
X169592725Y-77830481D01*
X169523679Y-77931650D01*
X169485787Y-77986826D01*
X169420606Y-78082884D01*
X169364723Y-78166717D01*
X169321117Y-78233777D01*
X169292769Y-78279519D01*
X169282657Y-78299396D01*
X169282823Y-78300497D01*
X169291743Y-78325694D01*
X169312206Y-78377147D01*
X169341360Y-78448135D01*
X169376353Y-78531935D01*
X169414332Y-78621828D01*
X169452445Y-78711091D01*
X169487839Y-78793003D01*
X169517662Y-78860843D01*
X169539061Y-78907890D01*
X169549184Y-78927422D01*
X169555174Y-78929155D01*
X169591566Y-78936969D01*
X169656427Y-78949915D01*
X169744565Y-78966979D01*
X169850787Y-78987151D01*
X169969902Y-79009418D01*
X170032683Y-79021223D01*
X170147912Y-79043748D01*
X170248662Y-79064550D01*
X170329426Y-79082435D01*
X170384698Y-79096208D01*
X170408971Y-79104674D01*
X170413331Y-79113066D01*
X170420563Y-79154072D01*
X170426246Y-79222368D01*
X170430382Y-79311529D01*
X170432977Y-79415128D01*
X170434036Y-79526740D01*
X170433561Y-79639938D01*
X170431559Y-79748296D01*
X170428033Y-79845389D01*
X170422987Y-79924790D01*
X170416427Y-79980072D01*
X170408356Y-80004810D01*
X170403458Y-80007600D01*
X170366930Y-80019569D01*
X170303565Y-80035405D01*
X170220686Y-80053374D01*
X170125618Y-80071741D01*
X170093542Y-80077591D01*
X169945393Y-80104798D01*
X169828961Y-80126663D01*
X169740209Y-80144093D01*
X169675103Y-80157996D01*
X169629606Y-80169277D01*
X169599682Y-80178843D01*
X169581294Y-80187601D01*
X169570407Y-80196457D01*
X169569142Y-80197943D01*
X169551338Y-80228931D01*
X169524994Y-80285634D01*
X169492661Y-80361399D01*
X169456893Y-80449574D01*
X169420244Y-80543507D01*
X169385266Y-80636547D01*
X169354513Y-80722041D01*
X169330538Y-80793336D01*
X169315895Y-80843782D01*
X169313136Y-80866726D01*
X169314981Y-80869703D01*
X169334075Y-80898493D01*
X169369984Y-80951595D01*
X169419378Y-81024117D01*
X169478927Y-81111167D01*
X169545303Y-81207854D01*
X169563520Y-81234456D01*
X169627577Y-81329875D01*
X169682937Y-81415212D01*
X169726439Y-81485405D01*
X169754924Y-81535394D01*
X169765232Y-81560116D01*
X169763011Y-81566616D01*
X169739858Y-81598644D01*
X169694177Y-81650945D01*
X169629241Y-81719999D01*
X169548319Y-81802286D01*
X169454685Y-81894286D01*
X169401165Y-81945781D01*
X169316542Y-82025983D01*
X169242475Y-82094678D01*
X169182941Y-82148252D01*
X169141917Y-82183085D01*
X169123381Y-82195563D01*
X169110646Y-82190938D01*
X169071436Y-82169057D01*
X169014495Y-82133273D01*
X168947250Y-82088117D01*
X168899438Y-82055165D01*
X168803985Y-81989727D01*
X168702125Y-81920228D01*
X168609088Y-81857075D01*
X168426832Y-81733800D01*
X168273841Y-81816520D01*
X168237817Y-81835613D01*
X168172303Y-81868272D01*
X168121640Y-81890819D01*
X168094564Y-81899226D01*
X168085703Y-81888430D01*
X168063699Y-81847323D01*
X168031199Y-81779549D01*
X167990010Y-81689409D01*
X167941942Y-81581205D01*
X167888802Y-81459237D01*
X167832399Y-81327808D01*
X167774542Y-81191218D01*
X167717038Y-81053767D01*
X167661697Y-80919758D01*
X167610326Y-80793491D01*
X167564735Y-80679268D01*
X167526732Y-80581390D01*
X167498124Y-80504157D01*
X167480721Y-80451871D01*
X167476331Y-80428833D01*
X167476628Y-80428160D01*
X167497077Y-80406863D01*
X167539850Y-80373508D01*
X167596117Y-80335011D01*
X167613877Y-80323256D01*
X167749014Y-80211735D01*
X167860856Y-80078906D01*
X167946755Y-79930298D01*
X168004062Y-79771440D01*
X168030131Y-79607860D01*
X168022313Y-79445088D01*
X167990644Y-79300315D01*
X167933782Y-79154124D01*
X167850888Y-79023703D01*
X167737131Y-78899813D01*
X167692433Y-78860235D01*
X167547935Y-78762723D01*
X167391838Y-78697050D01*
X167228667Y-78662630D01*
X167062943Y-78658874D01*
X166899192Y-78685194D01*
X166741936Y-78741003D01*
X166595698Y-78825714D01*
X166465004Y-78938737D01*
X166354374Y-79079487D01*
X166333105Y-79114342D01*
X166260810Y-79273655D01*
X166222415Y-79439552D01*
X166216914Y-79607737D01*
X166243301Y-79773913D01*
X166300570Y-79933784D01*
X166387717Y-80083053D01*
X166503736Y-80217423D01*
X166647622Y-80332599D01*
X166652294Y-80335702D01*
X166707964Y-80374933D01*
X166749689Y-80408286D01*
X166768746Y-80428833D01*
X166766342Y-80444941D01*
X166751391Y-80491844D01*
X166724881Y-80564539D01*
X166688620Y-80658725D01*
X166644416Y-80770098D01*
X166594076Y-80894358D01*
X166539407Y-81027202D01*
X166482218Y-81164327D01*
X166424316Y-81301432D01*
X166367510Y-81434215D01*
X166313606Y-81558374D01*
X166264412Y-81669606D01*
X166221737Y-81763609D01*
X166187387Y-81836082D01*
X166163171Y-81882722D01*
X166150897Y-81899226D01*
X166140689Y-81896991D01*
X166100586Y-81880926D01*
X166041318Y-81852759D01*
X165971619Y-81816520D01*
X165818629Y-81733800D01*
X165636373Y-81857075D01*
X165582527Y-81893579D01*
X165482374Y-81961784D01*
X165382525Y-82030098D01*
X165298211Y-82088117D01*
X165251679Y-82119736D01*
X165191200Y-82159020D01*
X165146357Y-82185912D01*
X165124455Y-82195883D01*
X165115045Y-82191650D01*
X165081031Y-82165721D01*
X165028595Y-82120070D01*
X164962301Y-82059186D01*
X164886713Y-81987561D01*
X164806396Y-81909683D01*
X164725913Y-81830045D01*
X164649829Y-81753135D01*
X164582707Y-81683445D01*
X164529112Y-81625464D01*
X164493608Y-81583684D01*
X164480759Y-81562593D01*
X164481500Y-81558581D01*
X164496793Y-81525920D01*
X164529462Y-81469412D01*
X164576350Y-81394163D01*
X164634301Y-81305275D01*
X164700157Y-81207854D01*
X164718627Y-81180982D01*
X164783482Y-81086423D01*
X164840609Y-81002827D01*
X164886678Y-80935084D01*
X164918359Y-80888086D01*
X164932324Y-80866726D01*
X164932668Y-80865811D01*
X164928546Y-80839678D01*
X164912807Y-80786740D01*
X164888004Y-80713647D01*
X164856689Y-80627052D01*
X164821417Y-80533608D01*
X164784740Y-80439965D01*
X164749212Y-80352777D01*
X164717386Y-80278695D01*
X164691816Y-80224371D01*
X164675053Y-80196457D01*
X164673374Y-80194724D01*
X164661372Y-80185956D01*
X164641103Y-80177115D01*
X164608529Y-80167292D01*
X164559616Y-80155583D01*
X164490327Y-80141080D01*
X164396625Y-80122876D01*
X164274476Y-80100066D01*
X164119842Y-80071741D01*
X164087770Y-80065780D01*
X163995893Y-80047352D01*
X163918607Y-80029892D01*
X163863236Y-80015133D01*
X163837105Y-80004810D01*
X163832733Y-79996197D01*
X163825445Y-79954826D01*
X163819669Y-79886241D01*
X163815410Y-79796868D01*
X163812673Y-79693135D01*
X163811462Y-79581465D01*
X163811782Y-79468287D01*
X163813636Y-79360026D01*
X163817030Y-79263108D01*
X163821967Y-79183959D01*
X163828452Y-79129006D01*
X163836489Y-79104674D01*
X163844696Y-79101079D01*
X163885519Y-79089748D01*
X163954524Y-79073722D01*
X164046203Y-79054195D01*
X164155050Y-79032362D01*
X164275558Y-79009418D01*
X164341357Y-78997159D01*
X164454135Y-78975901D01*
X164551207Y-78957287D01*
X164627382Y-78942328D01*
X164677469Y-78932036D01*
X164696276Y-78927422D01*
X164696983Y-78926471D01*
X164708961Y-78902310D01*
X164731794Y-78851694D01*
X164762630Y-78781338D01*
X164798613Y-78697958D01*
X164836891Y-78608270D01*
X164874609Y-78518989D01*
X164908913Y-78436832D01*
X164936949Y-78368513D01*
X164955864Y-78320748D01*
X164962803Y-78300254D01*
X164959742Y-78293043D01*
X164939372Y-78258728D01*
X164902422Y-78200970D01*
X164851860Y-78124299D01*
X164790657Y-78033248D01*
X164721781Y-77932350D01*
X164683994Y-77877093D01*
X164618782Y-77780215D01*
X164562871Y-77695193D01*
X164519241Y-77626662D01*
X164490877Y-77579260D01*
X164480759Y-77557623D01*
X164487790Y-77545887D01*
X164517197Y-77510818D01*
X164565441Y-77457745D01*
X164628093Y-77391164D01*
X164700725Y-77315574D01*
X164778908Y-77235472D01*
X164858214Y-77155354D01*
X164934213Y-77079718D01*
X165002478Y-77013062D01*
X165058580Y-76959882D01*
X165098090Y-76924676D01*
X165116579Y-76911942D01*
X165126843Y-76916893D01*
X165164530Y-76939857D01*
X165225348Y-76978938D01*
X165304913Y-77031272D01*
X165398843Y-77093996D01*
X165502754Y-77164246D01*
X165873794Y-77416551D01*
X166183080Y-77289053D01*
X166492365Y-77161555D01*
X166576186Y-76716931D01*
X166660006Y-76272307D01*
X167585454Y-76272307D01*
X167669275Y-76716931D01*
G37*
D10*
X167669275Y-76716931D02*
X167753095Y-77161555D01*
X168371667Y-77416551D01*
X168742707Y-77164246D01*
X168816144Y-77114506D01*
X168913499Y-77049218D01*
X168997787Y-76993454D01*
X169064631Y-76950078D01*
X169109654Y-76921953D01*
X169128478Y-76911942D01*
X169140039Y-76919061D01*
X169174596Y-76948894D01*
X169226894Y-76997852D01*
X169292500Y-77061440D01*
X169366983Y-77135163D01*
X169445913Y-77214525D01*
X169524856Y-77295031D01*
X169599384Y-77372185D01*
X169665063Y-77441493D01*
X169717463Y-77498457D01*
X169752153Y-77538584D01*
X169764701Y-77557377D01*
X169761782Y-77565451D01*
X169741571Y-77601469D01*
X169704663Y-77660744D01*
X169654050Y-77738630D01*
X169592725Y-77830481D01*
X169523679Y-77931650D01*
X169485787Y-77986826D01*
X169420606Y-78082884D01*
X169364723Y-78166717D01*
X169321117Y-78233777D01*
X169292769Y-78279519D01*
X169282657Y-78299396D01*
X169282823Y-78300497D01*
X169291743Y-78325694D01*
X169312206Y-78377147D01*
X169341360Y-78448135D01*
X169376353Y-78531935D01*
X169414332Y-78621828D01*
X169452445Y-78711091D01*
X169487839Y-78793003D01*
X169517662Y-78860843D01*
X169539061Y-78907890D01*
X169549184Y-78927422D01*
X169555174Y-78929155D01*
X169591566Y-78936969D01*
X169656427Y-78949915D01*
X169744565Y-78966979D01*
X169850787Y-78987151D01*
X169969902Y-79009418D01*
X170032683Y-79021223D01*
X170147912Y-79043748D01*
X170248662Y-79064550D01*
X170329426Y-79082435D01*
X170384698Y-79096208D01*
X170408971Y-79104674D01*
X170413331Y-79113066D01*
X170420563Y-79154072D01*
X170426246Y-79222368D01*
X170430382Y-79311529D01*
X170432977Y-79415128D01*
X170434036Y-79526740D01*
X170433561Y-79639938D01*
X170431559Y-79748296D01*
X170428033Y-79845389D01*
X170422987Y-79924790D01*
X170416427Y-79980072D01*
X170408356Y-80004810D01*
X170403458Y-80007600D01*
X170366930Y-80019569D01*
X170303565Y-80035405D01*
X170220686Y-80053374D01*
X170125618Y-80071741D01*
X170093542Y-80077591D01*
X169945393Y-80104798D01*
X169828961Y-80126663D01*
X169740209Y-80144093D01*
X169675103Y-80157996D01*
X169629606Y-80169277D01*
X169599682Y-80178843D01*
X169581294Y-80187601D01*
X169570407Y-80196457D01*
X169569142Y-80197943D01*
X169551338Y-80228931D01*
X169524994Y-80285634D01*
X169492661Y-80361399D01*
X169456893Y-80449574D01*
X169420244Y-80543507D01*
X169385266Y-80636547D01*
X169354513Y-80722041D01*
X169330538Y-80793336D01*
X169315895Y-80843782D01*
X169313136Y-80866726D01*
X169314981Y-80869703D01*
X169334075Y-80898493D01*
X169369984Y-80951595D01*
X169419378Y-81024117D01*
X169478927Y-81111167D01*
X169545303Y-81207854D01*
X169563520Y-81234456D01*
X169627577Y-81329875D01*
X169682937Y-81415212D01*
X169726439Y-81485405D01*
X169754924Y-81535394D01*
X169765232Y-81560116D01*
X169763011Y-81566616D01*
X169739858Y-81598644D01*
X169694177Y-81650945D01*
X169629241Y-81719999D01*
X169548319Y-81802286D01*
X169454685Y-81894286D01*
X169401165Y-81945781D01*
X169316542Y-82025983D01*
X169242475Y-82094678D01*
X169182941Y-82148252D01*
X169141917Y-82183085D01*
X169123381Y-82195563D01*
X169110646Y-82190938D01*
X169071436Y-82169057D01*
X169014495Y-82133273D01*
X168947250Y-82088117D01*
X168899438Y-82055165D01*
X168803985Y-81989727D01*
X168702125Y-81920228D01*
X168609088Y-81857075D01*
X168426832Y-81733800D01*
X168273841Y-81816520D01*
X168237817Y-81835613D01*
X168172303Y-81868272D01*
X168121640Y-81890819D01*
X168094564Y-81899226D01*
X168085703Y-81888430D01*
X168063699Y-81847323D01*
X168031199Y-81779549D01*
X167990010Y-81689409D01*
X167941942Y-81581205D01*
X167888802Y-81459237D01*
X167832399Y-81327808D01*
X167774542Y-81191218D01*
X167717038Y-81053767D01*
X167661697Y-80919758D01*
X167610326Y-80793491D01*
X167564735Y-80679268D01*
X167526732Y-80581390D01*
X167498124Y-80504157D01*
X167480721Y-80451871D01*
X167476331Y-80428833D01*
X167476628Y-80428160D01*
X167497077Y-80406863D01*
X167539850Y-80373508D01*
X167596117Y-80335011D01*
X167613877Y-80323256D01*
X167749014Y-80211735D01*
X167860856Y-80078906D01*
X167946755Y-79930298D01*
X168004062Y-79771440D01*
X168030131Y-79607860D01*
X168022313Y-79445088D01*
X167990644Y-79300315D01*
X167933782Y-79154124D01*
X167850888Y-79023703D01*
X167737131Y-78899813D01*
X167692433Y-78860235D01*
X167547935Y-78762723D01*
X167391838Y-78697050D01*
X167228667Y-78662630D01*
X167062943Y-78658874D01*
X166899192Y-78685194D01*
X166741936Y-78741003D01*
X166595698Y-78825714D01*
X166465004Y-78938737D01*
X166354374Y-79079487D01*
X166333105Y-79114342D01*
X166260810Y-79273655D01*
X166222415Y-79439552D01*
X166216914Y-79607737D01*
X166243301Y-79773913D01*
X166300570Y-79933784D01*
X166387717Y-80083053D01*
X166503736Y-80217423D01*
X166647622Y-80332599D01*
X166652294Y-80335702D01*
X166707964Y-80374933D01*
X166749689Y-80408286D01*
X166768746Y-80428833D01*
X166766342Y-80444941D01*
X166751391Y-80491844D01*
X166724881Y-80564539D01*
X166688620Y-80658725D01*
X166644416Y-80770098D01*
X166594076Y-80894358D01*
X166539407Y-81027202D01*
X166482218Y-81164327D01*
X166424316Y-81301432D01*
X166367510Y-81434215D01*
X166313606Y-81558374D01*
X166264412Y-81669606D01*
X166221737Y-81763609D01*
X166187387Y-81836082D01*
X166163171Y-81882722D01*
X166150897Y-81899226D01*
X166140689Y-81896991D01*
X166100586Y-81880926D01*
X166041318Y-81852759D01*
X165971619Y-81816520D01*
X165818629Y-81733800D01*
X165636373Y-81857075D01*
X165582527Y-81893579D01*
X165482374Y-81961784D01*
X165382525Y-82030098D01*
X165298211Y-82088117D01*
X165251679Y-82119736D01*
X165191200Y-82159020D01*
X165146357Y-82185912D01*
X165124455Y-82195883D01*
X165115045Y-82191650D01*
X165081031Y-82165721D01*
X165028595Y-82120070D01*
X164962301Y-82059186D01*
X164886713Y-81987561D01*
X164806396Y-81909683D01*
X164725913Y-81830045D01*
X164649829Y-81753135D01*
X164582707Y-81683445D01*
X164529112Y-81625464D01*
X164493608Y-81583684D01*
X164480759Y-81562593D01*
X164481500Y-81558581D01*
X164496793Y-81525920D01*
X164529462Y-81469412D01*
X164576350Y-81394163D01*
X164634301Y-81305275D01*
X164700157Y-81207854D01*
X164718627Y-81180982D01*
X164783482Y-81086423D01*
X164840609Y-81002827D01*
X164886678Y-80935084D01*
X164918359Y-80888086D01*
X164932324Y-80866726D01*
X164932668Y-80865811D01*
X164928546Y-80839678D01*
X164912807Y-80786740D01*
X164888004Y-80713647D01*
X164856689Y-80627052D01*
X164821417Y-80533608D01*
X164784740Y-80439965D01*
X164749212Y-80352777D01*
X164717386Y-80278695D01*
X164691816Y-80224371D01*
X164675053Y-80196457D01*
X164673374Y-80194724D01*
X164661372Y-80185956D01*
X164641103Y-80177115D01*
X164608529Y-80167292D01*
X164559616Y-80155583D01*
X164490327Y-80141080D01*
X164396625Y-80122876D01*
X164274476Y-80100066D01*
X164119842Y-80071741D01*
X164087770Y-80065780D01*
X163995893Y-80047352D01*
X163918607Y-80029892D01*
X163863236Y-80015133D01*
X163837105Y-80004810D01*
X163832733Y-79996197D01*
X163825445Y-79954826D01*
X163819669Y-79886241D01*
X163815410Y-79796868D01*
X163812673Y-79693135D01*
X163811462Y-79581465D01*
X163811782Y-79468287D01*
X163813636Y-79360026D01*
X163817030Y-79263108D01*
X163821967Y-79183959D01*
X163828452Y-79129006D01*
X163836489Y-79104674D01*
X163844696Y-79101079D01*
X163885519Y-79089748D01*
X163954524Y-79073722D01*
X164046203Y-79054195D01*
X164155050Y-79032362D01*
X164275558Y-79009418D01*
X164341357Y-78997159D01*
X164454135Y-78975901D01*
X164551207Y-78957287D01*
X164627382Y-78942328D01*
X164677469Y-78932036D01*
X164696276Y-78927422D01*
X164696983Y-78926471D01*
X164708961Y-78902310D01*
X164731794Y-78851694D01*
X164762630Y-78781338D01*
X164798613Y-78697958D01*
X164836891Y-78608270D01*
X164874609Y-78518989D01*
X164908913Y-78436832D01*
X164936949Y-78368513D01*
X164955864Y-78320748D01*
X164962803Y-78300254D01*
X164959742Y-78293043D01*
X164939372Y-78258728D01*
X164902422Y-78200970D01*
X164851860Y-78124299D01*
X164790657Y-78033248D01*
X164721781Y-77932350D01*
X164683994Y-77877093D01*
X164618782Y-77780215D01*
X164562871Y-77695193D01*
X164519241Y-77626662D01*
X164490877Y-77579260D01*
X164480759Y-77557623D01*
X164487790Y-77545887D01*
X164517197Y-77510818D01*
X164565441Y-77457745D01*
X164628093Y-77391164D01*
X164700725Y-77315574D01*
X164778908Y-77235472D01*
X164858214Y-77155354D01*
X164934213Y-77079718D01*
X165002478Y-77013062D01*
X165058580Y-76959882D01*
X165098090Y-76924676D01*
X165116579Y-76911942D01*
X165126843Y-76916893D01*
X165164530Y-76939857D01*
X165225348Y-76978938D01*
X165304913Y-77031272D01*
X165398843Y-77093996D01*
X165502754Y-77164246D01*
X165873794Y-77416551D01*
X166183080Y-77289053D01*
X166492365Y-77161555D01*
X166576186Y-76716931D01*
X166660006Y-76272307D01*
X167585454Y-76272307D01*
X167669275Y-76716931D01*
%TD*%
M02*
