%TF.GenerationSoftware,KiCad,Pcbnew,(6.0.7)*%
%TF.CreationDate,2022-09-27T22:03:24-05:00*%
%TF.ProjectId,TCA9534,54434139-3533-4342-9e6b-696361645f70,1.0*%
%TF.SameCoordinates,Original*%
%TF.FileFunction,Legend,Top*%
%TF.FilePolarity,Positive*%
%FSLAX46Y46*%
G04 Gerber Fmt 4.6, Leading zero omitted, Abs format (unit mm)*
G04 Created by KiCad (PCBNEW (6.0.7)) date 2022-09-27 22:03:24*
%MOMM*%
%LPD*%
G01*
G04 APERTURE LIST*
%ADD10C,0.100000*%
%ADD11C,0.125000*%
%ADD12C,0.150000*%
%ADD13C,0.120000*%
G04 APERTURE END LIST*
D10*
X181971428Y-95071428D02*
X181971428Y-95204761D01*
X182180952Y-95204761D02*
X181780952Y-95204761D01*
X181780952Y-95014285D01*
X182180952Y-94804761D02*
X182161904Y-94842857D01*
X182142857Y-94861904D01*
X182104761Y-94880952D01*
X181990476Y-94880952D01*
X181952380Y-94861904D01*
X181933333Y-94842857D01*
X181914285Y-94804761D01*
X181914285Y-94747619D01*
X181933333Y-94709523D01*
X181952380Y-94690476D01*
X181990476Y-94671428D01*
X182104761Y-94671428D01*
X182142857Y-94690476D01*
X182161904Y-94709523D01*
X182180952Y-94747619D01*
X182180952Y-94804761D01*
X182180952Y-94500000D02*
X181914285Y-94500000D01*
X181990476Y-94500000D02*
X181952380Y-94480952D01*
X181933333Y-94461904D01*
X181914285Y-94423809D01*
X181914285Y-94385714D01*
X181914285Y-94309523D02*
X181914285Y-94157142D01*
X181780952Y-94252380D02*
X182123809Y-94252380D01*
X182161904Y-94233333D01*
X182180952Y-94195238D01*
X182180952Y-94157142D01*
X182180952Y-94023809D02*
X181914285Y-94023809D01*
X181780952Y-94023809D02*
X181800000Y-94042857D01*
X181819047Y-94023809D01*
X181800000Y-94004761D01*
X181780952Y-94023809D01*
X181819047Y-94023809D01*
X181914285Y-93833333D02*
X182180952Y-93833333D01*
X181952380Y-93833333D02*
X181933333Y-93814285D01*
X181914285Y-93776190D01*
X181914285Y-93719047D01*
X181933333Y-93680952D01*
X181971428Y-93661904D01*
X182180952Y-93661904D01*
X182180952Y-93471428D02*
X181780952Y-93471428D01*
X181933333Y-93471428D02*
X181914285Y-93433333D01*
X181914285Y-93357142D01*
X181933333Y-93319047D01*
X181952380Y-93300000D01*
X181990476Y-93280952D01*
X182104761Y-93280952D01*
X182142857Y-93300000D01*
X182161904Y-93319047D01*
X182180952Y-93357142D01*
X182180952Y-93433333D01*
X182161904Y-93471428D01*
X182180952Y-93109523D02*
X181914285Y-93109523D01*
X181990476Y-93109523D02*
X181952380Y-93090476D01*
X181933333Y-93071428D01*
X181914285Y-93033333D01*
X181914285Y-92995238D01*
X182180952Y-92690476D02*
X181971428Y-92690476D01*
X181933333Y-92709523D01*
X181914285Y-92747619D01*
X181914285Y-92823809D01*
X181933333Y-92861904D01*
X182161904Y-92690476D02*
X182180952Y-92728571D01*
X182180952Y-92823809D01*
X182161904Y-92861904D01*
X182123809Y-92880952D01*
X182085714Y-92880952D01*
X182047619Y-92861904D01*
X182028571Y-92823809D01*
X182028571Y-92728571D01*
X182009523Y-92690476D01*
X181990476Y-92252380D02*
X181971428Y-92271428D01*
X181952380Y-92309523D01*
X181952380Y-92347619D01*
X181971428Y-92385714D01*
X181990476Y-92404761D01*
X182028571Y-92423809D01*
X182066666Y-92423809D01*
X182104761Y-92404761D01*
X182123809Y-92385714D01*
X182142857Y-92347619D01*
X182142857Y-92309523D01*
X182123809Y-92271428D01*
X182104761Y-92252380D01*
X181952380Y-92252380D02*
X182104761Y-92252380D01*
X182123809Y-92233333D01*
X182123809Y-92214285D01*
X182104761Y-92176190D01*
X182066666Y-92157142D01*
X181971428Y-92157142D01*
X181914285Y-92195238D01*
X181876190Y-92252380D01*
X181857142Y-92328571D01*
X181876190Y-92404761D01*
X181914285Y-92461904D01*
X181971428Y-92500000D01*
X182047619Y-92519047D01*
X182123809Y-92500000D01*
X182180952Y-92461904D01*
X182219047Y-92404761D01*
X182238095Y-92328571D01*
X182219047Y-92252380D01*
X182180952Y-92195238D01*
X182180952Y-91985714D02*
X181780952Y-91985714D01*
X181933333Y-91985714D02*
X181914285Y-91947619D01*
X181914285Y-91871428D01*
X181933333Y-91833333D01*
X181952380Y-91814285D01*
X181990476Y-91795238D01*
X182104761Y-91795238D01*
X182142857Y-91814285D01*
X182161904Y-91833333D01*
X182180952Y-91871428D01*
X182180952Y-91947619D01*
X182161904Y-91985714D01*
X182161904Y-91471428D02*
X182180952Y-91509523D01*
X182180952Y-91585714D01*
X182161904Y-91623809D01*
X182123809Y-91642857D01*
X181971428Y-91642857D01*
X181933333Y-91623809D01*
X181914285Y-91585714D01*
X181914285Y-91509523D01*
X181933333Y-91471428D01*
X181971428Y-91452380D01*
X182009523Y-91452380D01*
X182047619Y-91642857D01*
X182161904Y-91109523D02*
X182180952Y-91147619D01*
X182180952Y-91223809D01*
X182161904Y-91261904D01*
X182142857Y-91280952D01*
X182104761Y-91300000D01*
X181990476Y-91300000D01*
X181952380Y-91280952D01*
X181933333Y-91261904D01*
X181914285Y-91223809D01*
X181914285Y-91147619D01*
X181933333Y-91109523D01*
X182180952Y-90766666D02*
X181971428Y-90766666D01*
X181933333Y-90785714D01*
X181914285Y-90823809D01*
X181914285Y-90900000D01*
X181933333Y-90938095D01*
X182161904Y-90766666D02*
X182180952Y-90804761D01*
X182180952Y-90900000D01*
X182161904Y-90938095D01*
X182123809Y-90957142D01*
X182085714Y-90957142D01*
X182047619Y-90938095D01*
X182028571Y-90900000D01*
X182028571Y-90804761D01*
X182009523Y-90766666D01*
X181914285Y-90404761D02*
X182180952Y-90404761D01*
X181914285Y-90576190D02*
X182123809Y-90576190D01*
X182161904Y-90557142D01*
X182180952Y-90519047D01*
X182180952Y-90461904D01*
X182161904Y-90423809D01*
X182142857Y-90404761D01*
X182161904Y-90233333D02*
X182180952Y-90195238D01*
X182180952Y-90119047D01*
X182161904Y-90080952D01*
X182123809Y-90061904D01*
X182104761Y-90061904D01*
X182066666Y-90080952D01*
X182047619Y-90119047D01*
X182047619Y-90176190D01*
X182028571Y-90214285D01*
X181990476Y-90233333D01*
X181971428Y-90233333D01*
X181933333Y-90214285D01*
X181914285Y-90176190D01*
X181914285Y-90119047D01*
X181933333Y-90080952D01*
X182161904Y-89738095D02*
X182180952Y-89776190D01*
X182180952Y-89852380D01*
X182161904Y-89890476D01*
X182123809Y-89909523D01*
X181971428Y-89909523D01*
X181933333Y-89890476D01*
X181914285Y-89852380D01*
X181914285Y-89776190D01*
X181933333Y-89738095D01*
X181971428Y-89719047D01*
X182009523Y-89719047D01*
X182047619Y-89909523D01*
X182180952Y-89547619D02*
X181914285Y-89547619D01*
X181780952Y-89547619D02*
X181800000Y-89566666D01*
X181819047Y-89547619D01*
X181800000Y-89528571D01*
X181780952Y-89547619D01*
X181819047Y-89547619D01*
X182180952Y-89357142D02*
X181914285Y-89357142D01*
X181952380Y-89357142D02*
X181933333Y-89338095D01*
X181914285Y-89300000D01*
X181914285Y-89242857D01*
X181933333Y-89204761D01*
X181971428Y-89185714D01*
X182180952Y-89185714D01*
X181971428Y-89185714D02*
X181933333Y-89166666D01*
X181914285Y-89128571D01*
X181914285Y-89071428D01*
X181933333Y-89033333D01*
X181971428Y-89014285D01*
X182180952Y-89014285D01*
X182161904Y-88652380D02*
X182180952Y-88690476D01*
X182180952Y-88766666D01*
X182161904Y-88804761D01*
X182142857Y-88823809D01*
X182104761Y-88842857D01*
X181990476Y-88842857D01*
X181952380Y-88823809D01*
X181933333Y-88804761D01*
X181914285Y-88766666D01*
X181914285Y-88690476D01*
X181933333Y-88652380D01*
X182180952Y-88423809D02*
X182161904Y-88461904D01*
X182123809Y-88480952D01*
X181780952Y-88480952D01*
X182161904Y-88119047D02*
X182180952Y-88157142D01*
X182180952Y-88233333D01*
X182161904Y-88271428D01*
X182123809Y-88290476D01*
X181971428Y-88290476D01*
X181933333Y-88271428D01*
X181914285Y-88233333D01*
X181914285Y-88157142D01*
X181933333Y-88119047D01*
X181971428Y-88100000D01*
X182009523Y-88100000D01*
X182047619Y-88290476D01*
X181914285Y-87966666D02*
X182180952Y-87871428D01*
X181914285Y-87776190D01*
X182161904Y-87471428D02*
X182180952Y-87509523D01*
X182180952Y-87585714D01*
X182161904Y-87623809D01*
X182123809Y-87642857D01*
X181971428Y-87642857D01*
X181933333Y-87623809D01*
X181914285Y-87585714D01*
X181914285Y-87509523D01*
X181933333Y-87471428D01*
X181971428Y-87452380D01*
X182009523Y-87452380D01*
X182047619Y-87642857D01*
X182180952Y-87280952D02*
X181914285Y-87280952D01*
X181990476Y-87280952D02*
X181952380Y-87261904D01*
X181933333Y-87242857D01*
X181914285Y-87204761D01*
X181914285Y-87166666D01*
X182142857Y-87033333D02*
X182161904Y-87014285D01*
X182180952Y-87033333D01*
X182161904Y-87052380D01*
X182142857Y-87033333D01*
X182180952Y-87033333D01*
X182161904Y-86671428D02*
X182180952Y-86709523D01*
X182180952Y-86785714D01*
X182161904Y-86823809D01*
X182142857Y-86842857D01*
X182104761Y-86861904D01*
X181990476Y-86861904D01*
X181952380Y-86842857D01*
X181933333Y-86823809D01*
X181914285Y-86785714D01*
X181914285Y-86709523D01*
X181933333Y-86671428D01*
X182180952Y-86442857D02*
X182161904Y-86480952D01*
X182142857Y-86500000D01*
X182104761Y-86519047D01*
X181990476Y-86519047D01*
X181952380Y-86500000D01*
X181933333Y-86480952D01*
X181914285Y-86442857D01*
X181914285Y-86385714D01*
X181933333Y-86347619D01*
X181952380Y-86328571D01*
X181990476Y-86309523D01*
X182104761Y-86309523D01*
X182142857Y-86328571D01*
X182161904Y-86347619D01*
X182180952Y-86385714D01*
X182180952Y-86442857D01*
X182180952Y-86138095D02*
X181914285Y-86138095D01*
X181952380Y-86138095D02*
X181933333Y-86119047D01*
X181914285Y-86080952D01*
X181914285Y-86023809D01*
X181933333Y-85985714D01*
X181971428Y-85966666D01*
X182180952Y-85966666D01*
X181971428Y-85966666D02*
X181933333Y-85947619D01*
X181914285Y-85909523D01*
X181914285Y-85852380D01*
X181933333Y-85814285D01*
X181971428Y-85795238D01*
X182180952Y-85795238D01*
D11*
X181226190Y-95047619D02*
X180726190Y-95047619D01*
X180726190Y-94928571D01*
X180750000Y-94857142D01*
X180797619Y-94809523D01*
X180845238Y-94785714D01*
X180940476Y-94761904D01*
X181011904Y-94761904D01*
X181107142Y-94785714D01*
X181154761Y-94809523D01*
X181202380Y-94857142D01*
X181226190Y-94928571D01*
X181226190Y-95047619D01*
X181202380Y-94357142D02*
X181226190Y-94404761D01*
X181226190Y-94500000D01*
X181202380Y-94547619D01*
X181154761Y-94571428D01*
X180964285Y-94571428D01*
X180916666Y-94547619D01*
X180892857Y-94500000D01*
X180892857Y-94404761D01*
X180916666Y-94357142D01*
X180964285Y-94333333D01*
X181011904Y-94333333D01*
X181059523Y-94571428D01*
X181202380Y-94142857D02*
X181226190Y-94095238D01*
X181226190Y-94000000D01*
X181202380Y-93952380D01*
X181154761Y-93928571D01*
X181130952Y-93928571D01*
X181083333Y-93952380D01*
X181059523Y-94000000D01*
X181059523Y-94071428D01*
X181035714Y-94119047D01*
X180988095Y-94142857D01*
X180964285Y-94142857D01*
X180916666Y-94119047D01*
X180892857Y-94071428D01*
X180892857Y-94000000D01*
X180916666Y-93952380D01*
X181226190Y-93714285D02*
X180892857Y-93714285D01*
X180726190Y-93714285D02*
X180750000Y-93738095D01*
X180773809Y-93714285D01*
X180750000Y-93690476D01*
X180726190Y-93714285D01*
X180773809Y-93714285D01*
X180892857Y-93261904D02*
X181297619Y-93261904D01*
X181345238Y-93285714D01*
X181369047Y-93309523D01*
X181392857Y-93357142D01*
X181392857Y-93428571D01*
X181369047Y-93476190D01*
X181202380Y-93261904D02*
X181226190Y-93309523D01*
X181226190Y-93404761D01*
X181202380Y-93452380D01*
X181178571Y-93476190D01*
X181130952Y-93500000D01*
X180988095Y-93500000D01*
X180940476Y-93476190D01*
X180916666Y-93452380D01*
X180892857Y-93404761D01*
X180892857Y-93309523D01*
X180916666Y-93261904D01*
X180892857Y-93023809D02*
X181226190Y-93023809D01*
X180940476Y-93023809D02*
X180916666Y-93000000D01*
X180892857Y-92952380D01*
X180892857Y-92880952D01*
X180916666Y-92833333D01*
X180964285Y-92809523D01*
X181226190Y-92809523D01*
X181202380Y-92380952D02*
X181226190Y-92428571D01*
X181226190Y-92523809D01*
X181202380Y-92571428D01*
X181154761Y-92595238D01*
X180964285Y-92595238D01*
X180916666Y-92571428D01*
X180892857Y-92523809D01*
X180892857Y-92428571D01*
X180916666Y-92380952D01*
X180964285Y-92357142D01*
X181011904Y-92357142D01*
X181059523Y-92595238D01*
X181226190Y-91928571D02*
X180726190Y-91928571D01*
X181202380Y-91928571D02*
X181226190Y-91976190D01*
X181226190Y-92071428D01*
X181202380Y-92119047D01*
X181178571Y-92142857D01*
X181130952Y-92166666D01*
X180988095Y-92166666D01*
X180940476Y-92142857D01*
X180916666Y-92119047D01*
X180892857Y-92071428D01*
X180892857Y-91976190D01*
X180916666Y-91928571D01*
X181226190Y-91309523D02*
X180726190Y-91309523D01*
X180916666Y-91309523D02*
X180892857Y-91261904D01*
X180892857Y-91166666D01*
X180916666Y-91119047D01*
X180940476Y-91095238D01*
X180988095Y-91071428D01*
X181130952Y-91071428D01*
X181178571Y-91095238D01*
X181202380Y-91119047D01*
X181226190Y-91166666D01*
X181226190Y-91261904D01*
X181202380Y-91309523D01*
X180892857Y-90904761D02*
X181226190Y-90785714D01*
X180892857Y-90666666D02*
X181226190Y-90785714D01*
X181345238Y-90833333D01*
X181369047Y-90857142D01*
X181392857Y-90904761D01*
X180964285Y-89928571D02*
X180964285Y-90095238D01*
X181226190Y-90095238D02*
X180726190Y-90095238D01*
X180726190Y-89857142D01*
X181226190Y-89595238D02*
X181202380Y-89642857D01*
X181178571Y-89666666D01*
X181130952Y-89690476D01*
X180988095Y-89690476D01*
X180940476Y-89666666D01*
X180916666Y-89642857D01*
X180892857Y-89595238D01*
X180892857Y-89523809D01*
X180916666Y-89476190D01*
X180940476Y-89452380D01*
X180988095Y-89428571D01*
X181130952Y-89428571D01*
X181178571Y-89452380D01*
X181202380Y-89476190D01*
X181226190Y-89523809D01*
X181226190Y-89595238D01*
X181226190Y-89214285D02*
X180892857Y-89214285D01*
X180988095Y-89214285D02*
X180940476Y-89190476D01*
X180916666Y-89166666D01*
X180892857Y-89119047D01*
X180892857Y-89071428D01*
X180892857Y-88976190D02*
X180892857Y-88785714D01*
X180726190Y-88904761D02*
X181154761Y-88904761D01*
X181202380Y-88880952D01*
X181226190Y-88833333D01*
X181226190Y-88785714D01*
X181226190Y-88619047D02*
X180892857Y-88619047D01*
X180726190Y-88619047D02*
X180750000Y-88642857D01*
X180773809Y-88619047D01*
X180750000Y-88595238D01*
X180726190Y-88619047D01*
X180773809Y-88619047D01*
X180892857Y-88380952D02*
X181226190Y-88380952D01*
X180940476Y-88380952D02*
X180916666Y-88357142D01*
X180892857Y-88309523D01*
X180892857Y-88238095D01*
X180916666Y-88190476D01*
X180964285Y-88166666D01*
X181226190Y-88166666D01*
X181226190Y-87928571D02*
X180726190Y-87928571D01*
X180916666Y-87928571D02*
X180892857Y-87880952D01*
X180892857Y-87785714D01*
X180916666Y-87738095D01*
X180940476Y-87714285D01*
X180988095Y-87690476D01*
X181130952Y-87690476D01*
X181178571Y-87714285D01*
X181202380Y-87738095D01*
X181226190Y-87785714D01*
X181226190Y-87880952D01*
X181202380Y-87928571D01*
X181226190Y-87476190D02*
X180892857Y-87476190D01*
X180988095Y-87476190D02*
X180940476Y-87452380D01*
X180916666Y-87428571D01*
X180892857Y-87380952D01*
X180892857Y-87333333D01*
X181226190Y-86952380D02*
X180964285Y-86952380D01*
X180916666Y-86976190D01*
X180892857Y-87023809D01*
X180892857Y-87119047D01*
X180916666Y-87166666D01*
X181202380Y-86952380D02*
X181226190Y-87000000D01*
X181226190Y-87119047D01*
X181202380Y-87166666D01*
X181154761Y-87190476D01*
X181107142Y-87190476D01*
X181059523Y-87166666D01*
X181035714Y-87119047D01*
X181035714Y-87000000D01*
X181011904Y-86952380D01*
X162119047Y-88250000D02*
X162071428Y-88226190D01*
X162000000Y-88226190D01*
X161928571Y-88250000D01*
X161880952Y-88297619D01*
X161857142Y-88345238D01*
X161833333Y-88440476D01*
X161833333Y-88511904D01*
X161857142Y-88607142D01*
X161880952Y-88654761D01*
X161928571Y-88702380D01*
X162000000Y-88726190D01*
X162047619Y-88726190D01*
X162119047Y-88702380D01*
X162142857Y-88678571D01*
X162142857Y-88511904D01*
X162047619Y-88511904D01*
X162357142Y-88726190D02*
X162357142Y-88226190D01*
X162642857Y-88726190D01*
X162642857Y-88226190D01*
X162880952Y-88726190D02*
X162880952Y-88226190D01*
X163000000Y-88226190D01*
X163071428Y-88250000D01*
X163119047Y-88297619D01*
X163142857Y-88345238D01*
X163166666Y-88440476D01*
X163166666Y-88511904D01*
X163142857Y-88607142D01*
X163119047Y-88654761D01*
X163071428Y-88702380D01*
X163000000Y-88726190D01*
X162880952Y-88726190D01*
X160642857Y-88583333D02*
X160880952Y-88583333D01*
X160595238Y-88726190D02*
X160761904Y-88226190D01*
X160928571Y-88726190D01*
X161071428Y-88273809D02*
X161095238Y-88250000D01*
X161142857Y-88226190D01*
X161261904Y-88226190D01*
X161309523Y-88250000D01*
X161333333Y-88273809D01*
X161357142Y-88321428D01*
X161357142Y-88369047D01*
X161333333Y-88440476D01*
X161047619Y-88726190D01*
X161357142Y-88726190D01*
X158904761Y-88226190D02*
X159214285Y-88226190D01*
X159047619Y-88416666D01*
X159119047Y-88416666D01*
X159166666Y-88440476D01*
X159190476Y-88464285D01*
X159214285Y-88511904D01*
X159214285Y-88630952D01*
X159190476Y-88678571D01*
X159166666Y-88702380D01*
X159119047Y-88726190D01*
X158976190Y-88726190D01*
X158928571Y-88702380D01*
X158904761Y-88678571D01*
X159380952Y-88392857D02*
X159500000Y-88726190D01*
X159619047Y-88392857D01*
X159761904Y-88226190D02*
X160071428Y-88226190D01*
X159904761Y-88416666D01*
X159976190Y-88416666D01*
X160023809Y-88440476D01*
X160047619Y-88464285D01*
X160071428Y-88511904D01*
X160071428Y-88630952D01*
X160047619Y-88678571D01*
X160023809Y-88702380D01*
X159976190Y-88726190D01*
X159833333Y-88726190D01*
X159785714Y-88702380D01*
X159761904Y-88678571D01*
X162119047Y-84250000D02*
X162071428Y-84226190D01*
X162000000Y-84226190D01*
X161928571Y-84250000D01*
X161880952Y-84297619D01*
X161857142Y-84345238D01*
X161833333Y-84440476D01*
X161833333Y-84511904D01*
X161857142Y-84607142D01*
X161880952Y-84654761D01*
X161928571Y-84702380D01*
X162000000Y-84726190D01*
X162047619Y-84726190D01*
X162119047Y-84702380D01*
X162142857Y-84678571D01*
X162142857Y-84511904D01*
X162047619Y-84511904D01*
X162357142Y-84726190D02*
X162357142Y-84226190D01*
X162642857Y-84726190D01*
X162642857Y-84226190D01*
X162880952Y-84726190D02*
X162880952Y-84226190D01*
X163000000Y-84226190D01*
X163071428Y-84250000D01*
X163119047Y-84297619D01*
X163142857Y-84345238D01*
X163166666Y-84440476D01*
X163166666Y-84511904D01*
X163142857Y-84607142D01*
X163119047Y-84654761D01*
X163071428Y-84702380D01*
X163000000Y-84726190D01*
X162880952Y-84726190D01*
X160642857Y-84583333D02*
X160880952Y-84583333D01*
X160595238Y-84726190D02*
X160761904Y-84226190D01*
X160928571Y-84726190D01*
X161357142Y-84726190D02*
X161071428Y-84726190D01*
X161214285Y-84726190D02*
X161214285Y-84226190D01*
X161166666Y-84297619D01*
X161119047Y-84345238D01*
X161071428Y-84369047D01*
X158904761Y-84226190D02*
X159214285Y-84226190D01*
X159047619Y-84416666D01*
X159119047Y-84416666D01*
X159166666Y-84440476D01*
X159190476Y-84464285D01*
X159214285Y-84511904D01*
X159214285Y-84630952D01*
X159190476Y-84678571D01*
X159166666Y-84702380D01*
X159119047Y-84726190D01*
X158976190Y-84726190D01*
X158928571Y-84702380D01*
X158904761Y-84678571D01*
X159380952Y-84392857D02*
X159500000Y-84726190D01*
X159619047Y-84392857D01*
X159761904Y-84226190D02*
X160071428Y-84226190D01*
X159904761Y-84416666D01*
X159976190Y-84416666D01*
X160023809Y-84440476D01*
X160047619Y-84464285D01*
X160071428Y-84511904D01*
X160071428Y-84630952D01*
X160047619Y-84678571D01*
X160023809Y-84702380D01*
X159976190Y-84726190D01*
X159833333Y-84726190D01*
X159785714Y-84702380D01*
X159761904Y-84678571D01*
X160642857Y-80583333D02*
X160880952Y-80583333D01*
X160595238Y-80726190D02*
X160761904Y-80226190D01*
X160928571Y-80726190D01*
X161190476Y-80226190D02*
X161238095Y-80226190D01*
X161285714Y-80250000D01*
X161309523Y-80273809D01*
X161333333Y-80321428D01*
X161357142Y-80416666D01*
X161357142Y-80535714D01*
X161333333Y-80630952D01*
X161309523Y-80678571D01*
X161285714Y-80702380D01*
X161238095Y-80726190D01*
X161190476Y-80726190D01*
X161142857Y-80702380D01*
X161119047Y-80678571D01*
X161095238Y-80630952D01*
X161071428Y-80535714D01*
X161071428Y-80416666D01*
X161095238Y-80321428D01*
X161119047Y-80273809D01*
X161142857Y-80250000D01*
X161190476Y-80226190D01*
X162119047Y-80250000D02*
X162071428Y-80226190D01*
X162000000Y-80226190D01*
X161928571Y-80250000D01*
X161880952Y-80297619D01*
X161857142Y-80345238D01*
X161833333Y-80440476D01*
X161833333Y-80511904D01*
X161857142Y-80607142D01*
X161880952Y-80654761D01*
X161928571Y-80702380D01*
X162000000Y-80726190D01*
X162047619Y-80726190D01*
X162119047Y-80702380D01*
X162142857Y-80678571D01*
X162142857Y-80511904D01*
X162047619Y-80511904D01*
X162357142Y-80726190D02*
X162357142Y-80226190D01*
X162642857Y-80726190D01*
X162642857Y-80226190D01*
X162880952Y-80726190D02*
X162880952Y-80226190D01*
X163000000Y-80226190D01*
X163071428Y-80250000D01*
X163119047Y-80297619D01*
X163142857Y-80345238D01*
X163166666Y-80440476D01*
X163166666Y-80511904D01*
X163142857Y-80607142D01*
X163119047Y-80654761D01*
X163071428Y-80702380D01*
X163000000Y-80726190D01*
X162880952Y-80726190D01*
X158904761Y-80226190D02*
X159214285Y-80226190D01*
X159047619Y-80416666D01*
X159119047Y-80416666D01*
X159166666Y-80440476D01*
X159190476Y-80464285D01*
X159214285Y-80511904D01*
X159214285Y-80630952D01*
X159190476Y-80678571D01*
X159166666Y-80702380D01*
X159119047Y-80726190D01*
X158976190Y-80726190D01*
X158928571Y-80702380D01*
X158904761Y-80678571D01*
X159380952Y-80392857D02*
X159500000Y-80726190D01*
X159619047Y-80392857D01*
X159761904Y-80226190D02*
X160071428Y-80226190D01*
X159904761Y-80416666D01*
X159976190Y-80416666D01*
X160023809Y-80440476D01*
X160047619Y-80464285D01*
X160071428Y-80511904D01*
X160071428Y-80630952D01*
X160047619Y-80678571D01*
X160023809Y-80702380D01*
X159976190Y-80726190D01*
X159833333Y-80726190D01*
X159785714Y-80702380D01*
X159761904Y-80678571D01*
X163119047Y-96250000D02*
X163071428Y-96226190D01*
X163000000Y-96226190D01*
X162928571Y-96250000D01*
X162880952Y-96297619D01*
X162857142Y-96345238D01*
X162833333Y-96440476D01*
X162833333Y-96511904D01*
X162857142Y-96607142D01*
X162880952Y-96654761D01*
X162928571Y-96702380D01*
X163000000Y-96726190D01*
X163047619Y-96726190D01*
X163119047Y-96702380D01*
X163142857Y-96678571D01*
X163142857Y-96511904D01*
X163047619Y-96511904D01*
X163357142Y-96726190D02*
X163357142Y-96226190D01*
X163642857Y-96726190D01*
X163642857Y-96226190D01*
X163880952Y-96726190D02*
X163880952Y-96226190D01*
X164000000Y-96226190D01*
X164071428Y-96250000D01*
X164119047Y-96297619D01*
X164142857Y-96345238D01*
X164166666Y-96440476D01*
X164166666Y-96511904D01*
X164142857Y-96607142D01*
X164119047Y-96654761D01*
X164071428Y-96702380D01*
X164000000Y-96726190D01*
X163880952Y-96726190D01*
X165404761Y-91726190D02*
X165714285Y-91726190D01*
X165547619Y-91916666D01*
X165619047Y-91916666D01*
X165666666Y-91940476D01*
X165690476Y-91964285D01*
X165714285Y-92011904D01*
X165714285Y-92130952D01*
X165690476Y-92178571D01*
X165666666Y-92202380D01*
X165619047Y-92226190D01*
X165476190Y-92226190D01*
X165428571Y-92202380D01*
X165404761Y-92178571D01*
X165880952Y-91892857D02*
X166000000Y-92226190D01*
X166119047Y-91892857D01*
X166261904Y-91726190D02*
X166571428Y-91726190D01*
X166404761Y-91916666D01*
X166476190Y-91916666D01*
X166523809Y-91940476D01*
X166547619Y-91964285D01*
X166571428Y-92011904D01*
X166571428Y-92130952D01*
X166547619Y-92178571D01*
X166523809Y-92202380D01*
X166476190Y-92226190D01*
X166333333Y-92226190D01*
X166285714Y-92202380D01*
X166261904Y-92178571D01*
X168130952Y-92226190D02*
X168130952Y-91726190D01*
X168321428Y-91726190D01*
X168369047Y-91750000D01*
X168392857Y-91773809D01*
X168416666Y-91821428D01*
X168416666Y-91892857D01*
X168392857Y-91940476D01*
X168369047Y-91964285D01*
X168321428Y-91988095D01*
X168130952Y-91988095D01*
X168583333Y-91726190D02*
X168892857Y-91726190D01*
X168726190Y-91916666D01*
X168797619Y-91916666D01*
X168845238Y-91940476D01*
X168869047Y-91964285D01*
X168892857Y-92011904D01*
X168892857Y-92130952D01*
X168869047Y-92178571D01*
X168845238Y-92202380D01*
X168797619Y-92226190D01*
X168654761Y-92226190D01*
X168607142Y-92202380D01*
X168583333Y-92178571D01*
X170630952Y-92226190D02*
X170630952Y-91726190D01*
X170821428Y-91726190D01*
X170869047Y-91750000D01*
X170892857Y-91773809D01*
X170916666Y-91821428D01*
X170916666Y-91892857D01*
X170892857Y-91940476D01*
X170869047Y-91964285D01*
X170821428Y-91988095D01*
X170630952Y-91988095D01*
X171107142Y-91773809D02*
X171130952Y-91750000D01*
X171178571Y-91726190D01*
X171297619Y-91726190D01*
X171345238Y-91750000D01*
X171369047Y-91773809D01*
X171392857Y-91821428D01*
X171392857Y-91869047D01*
X171369047Y-91940476D01*
X171083333Y-92226190D01*
X171392857Y-92226190D01*
X173130952Y-92226190D02*
X173130952Y-91726190D01*
X173321428Y-91726190D01*
X173369047Y-91750000D01*
X173392857Y-91773809D01*
X173416666Y-91821428D01*
X173416666Y-91892857D01*
X173392857Y-91940476D01*
X173369047Y-91964285D01*
X173321428Y-91988095D01*
X173130952Y-91988095D01*
X173892857Y-92226190D02*
X173607142Y-92226190D01*
X173750000Y-92226190D02*
X173750000Y-91726190D01*
X173702380Y-91797619D01*
X173654761Y-91845238D01*
X173607142Y-91869047D01*
X177630952Y-96726190D02*
X177630952Y-96226190D01*
X177821428Y-96226190D01*
X177869047Y-96250000D01*
X177892857Y-96273809D01*
X177916666Y-96321428D01*
X177916666Y-96392857D01*
X177892857Y-96440476D01*
X177869047Y-96464285D01*
X177821428Y-96488095D01*
X177630952Y-96488095D01*
X178345238Y-96392857D02*
X178345238Y-96726190D01*
X178226190Y-96202380D02*
X178107142Y-96559523D01*
X178416666Y-96559523D01*
X177630952Y-94226190D02*
X177630952Y-93726190D01*
X177821428Y-93726190D01*
X177869047Y-93750000D01*
X177892857Y-93773809D01*
X177916666Y-93821428D01*
X177916666Y-93892857D01*
X177892857Y-93940476D01*
X177869047Y-93964285D01*
X177821428Y-93988095D01*
X177630952Y-93988095D01*
X178226190Y-93726190D02*
X178273809Y-93726190D01*
X178321428Y-93750000D01*
X178345238Y-93773809D01*
X178369047Y-93821428D01*
X178392857Y-93916666D01*
X178392857Y-94035714D01*
X178369047Y-94130952D01*
X178345238Y-94178571D01*
X178321428Y-94202380D01*
X178273809Y-94226190D01*
X178226190Y-94226190D01*
X178178571Y-94202380D01*
X178154761Y-94178571D01*
X178130952Y-94130952D01*
X178107142Y-94035714D01*
X178107142Y-93916666D01*
X178130952Y-93821428D01*
X178154761Y-93773809D01*
X178178571Y-93750000D01*
X178226190Y-93726190D01*
D12*
%TO.C,U1*%
X170238095Y-82912380D02*
X170238095Y-83721904D01*
X170285714Y-83817142D01*
X170333333Y-83864761D01*
X170428571Y-83912380D01*
X170619047Y-83912380D01*
X170714285Y-83864761D01*
X170761904Y-83817142D01*
X170809523Y-83721904D01*
X170809523Y-82912380D01*
X171809523Y-83912380D02*
X171238095Y-83912380D01*
X171523809Y-83912380D02*
X171523809Y-82912380D01*
X171428571Y-83055238D01*
X171333333Y-83150476D01*
X171238095Y-83198095D01*
X167880952Y-85452380D02*
X168452380Y-85452380D01*
X168166666Y-86452380D02*
X168166666Y-85452380D01*
X169357142Y-86357142D02*
X169309523Y-86404761D01*
X169166666Y-86452380D01*
X169071428Y-86452380D01*
X168928571Y-86404761D01*
X168833333Y-86309523D01*
X168785714Y-86214285D01*
X168738095Y-86023809D01*
X168738095Y-85880952D01*
X168785714Y-85690476D01*
X168833333Y-85595238D01*
X168928571Y-85500000D01*
X169071428Y-85452380D01*
X169166666Y-85452380D01*
X169309523Y-85500000D01*
X169357142Y-85547619D01*
X169738095Y-86166666D02*
X170214285Y-86166666D01*
X169642857Y-86452380D02*
X169976190Y-85452380D01*
X170309523Y-86452380D01*
X170690476Y-86452380D02*
X170880952Y-86452380D01*
X170976190Y-86404761D01*
X171023809Y-86357142D01*
X171119047Y-86214285D01*
X171166666Y-86023809D01*
X171166666Y-85642857D01*
X171119047Y-85547619D01*
X171071428Y-85500000D01*
X170976190Y-85452380D01*
X170785714Y-85452380D01*
X170690476Y-85500000D01*
X170642857Y-85547619D01*
X170595238Y-85642857D01*
X170595238Y-85880952D01*
X170642857Y-85976190D01*
X170690476Y-86023809D01*
X170785714Y-86071428D01*
X170976190Y-86071428D01*
X171071428Y-86023809D01*
X171119047Y-85976190D01*
X171166666Y-85880952D01*
X172071428Y-85452380D02*
X171595238Y-85452380D01*
X171547619Y-85928571D01*
X171595238Y-85880952D01*
X171690476Y-85833333D01*
X171928571Y-85833333D01*
X172023809Y-85880952D01*
X172071428Y-85928571D01*
X172119047Y-86023809D01*
X172119047Y-86261904D01*
X172071428Y-86357142D01*
X172023809Y-86404761D01*
X171928571Y-86452380D01*
X171690476Y-86452380D01*
X171595238Y-86404761D01*
X171547619Y-86357142D01*
X172452380Y-85452380D02*
X173071428Y-85452380D01*
X172738095Y-85833333D01*
X172880952Y-85833333D01*
X172976190Y-85880952D01*
X173023809Y-85928571D01*
X173071428Y-86023809D01*
X173071428Y-86261904D01*
X173023809Y-86357142D01*
X172976190Y-86404761D01*
X172880952Y-86452380D01*
X172595238Y-86452380D01*
X172500000Y-86404761D01*
X172452380Y-86357142D01*
X173928571Y-85785714D02*
X173928571Y-86452380D01*
X173690476Y-85404761D02*
X173452380Y-86119047D01*
X174071428Y-86119047D01*
D10*
%TO.C,R3*%
X179933333Y-86180952D02*
X179800000Y-85990476D01*
X179704761Y-86180952D02*
X179704761Y-85780952D01*
X179857142Y-85780952D01*
X179895238Y-85800000D01*
X179914285Y-85819047D01*
X179933333Y-85857142D01*
X179933333Y-85914285D01*
X179914285Y-85952380D01*
X179895238Y-85971428D01*
X179857142Y-85990476D01*
X179704761Y-85990476D01*
X180066666Y-85780952D02*
X180314285Y-85780952D01*
X180180952Y-85933333D01*
X180238095Y-85933333D01*
X180276190Y-85952380D01*
X180295238Y-85971428D01*
X180314285Y-86009523D01*
X180314285Y-86104761D01*
X180295238Y-86142857D01*
X180276190Y-86161904D01*
X180238095Y-86180952D01*
X180123809Y-86180952D01*
X180085714Y-86161904D01*
X180066666Y-86142857D01*
%TO.C,R1*%
X179933333Y-84180952D02*
X179800000Y-83990476D01*
X179704761Y-84180952D02*
X179704761Y-83780952D01*
X179857142Y-83780952D01*
X179895238Y-83800000D01*
X179914285Y-83819047D01*
X179933333Y-83857142D01*
X179933333Y-83914285D01*
X179914285Y-83952380D01*
X179895238Y-83971428D01*
X179857142Y-83990476D01*
X179704761Y-83990476D01*
X180314285Y-84180952D02*
X180085714Y-84180952D01*
X180200000Y-84180952D02*
X180200000Y-83780952D01*
X180161904Y-83838095D01*
X180123809Y-83876190D01*
X180085714Y-83895238D01*
%TO.C,R2*%
X179933333Y-82180952D02*
X179800000Y-81990476D01*
X179704761Y-82180952D02*
X179704761Y-81780952D01*
X179857142Y-81780952D01*
X179895238Y-81800000D01*
X179914285Y-81819047D01*
X179933333Y-81857142D01*
X179933333Y-81914285D01*
X179914285Y-81952380D01*
X179895238Y-81971428D01*
X179857142Y-81990476D01*
X179704761Y-81990476D01*
X180085714Y-81819047D02*
X180104761Y-81800000D01*
X180142857Y-81780952D01*
X180238095Y-81780952D01*
X180276190Y-81800000D01*
X180295238Y-81819047D01*
X180314285Y-81857142D01*
X180314285Y-81895238D01*
X180295238Y-81952380D01*
X180066666Y-82180952D01*
X180314285Y-82180952D01*
%TO.C,J3*%
X172280952Y-95403333D02*
X172566666Y-95403333D01*
X172623809Y-95422380D01*
X172661904Y-95460476D01*
X172680952Y-95517619D01*
X172680952Y-95555714D01*
X172280952Y-95250952D02*
X172280952Y-95003333D01*
X172433333Y-95136666D01*
X172433333Y-95079523D01*
X172452380Y-95041428D01*
X172471428Y-95022380D01*
X172509523Y-95003333D01*
X172604761Y-95003333D01*
X172642857Y-95022380D01*
X172661904Y-95041428D01*
X172680952Y-95079523D01*
X172680952Y-95193809D01*
X172661904Y-95231904D01*
X172642857Y-95250952D01*
D12*
%TO.C,J2*%
X173666666Y-74952380D02*
X173666666Y-75666666D01*
X173619047Y-75809523D01*
X173523809Y-75904761D01*
X173380952Y-75952380D01*
X173285714Y-75952380D01*
X174095238Y-75047619D02*
X174142857Y-75000000D01*
X174238095Y-74952380D01*
X174476190Y-74952380D01*
X174571428Y-75000000D01*
X174619047Y-75047619D01*
X174666666Y-75142857D01*
X174666666Y-75238095D01*
X174619047Y-75380952D01*
X174047619Y-75952380D01*
X174666666Y-75952380D01*
%TO.C,J1*%
X166166666Y-74952380D02*
X166166666Y-75666666D01*
X166119047Y-75809523D01*
X166023809Y-75904761D01*
X165880952Y-75952380D01*
X165785714Y-75952380D01*
X167166666Y-75952380D02*
X166595238Y-75952380D01*
X166880952Y-75952380D02*
X166880952Y-74952380D01*
X166785714Y-75095238D01*
X166690476Y-75190476D01*
X166595238Y-75238095D01*
%TO.C,H4*%
X159238095Y-93952380D02*
X159238095Y-92952380D01*
X159238095Y-93428571D02*
X159809523Y-93428571D01*
X159809523Y-93952380D02*
X159809523Y-92952380D01*
X160714285Y-93285714D02*
X160714285Y-93952380D01*
X160476190Y-92904761D02*
X160238095Y-93619047D01*
X160857142Y-93619047D01*
%TO.C,H2*%
X180238095Y-72952380D02*
X180238095Y-71952380D01*
X180238095Y-72428571D02*
X180809523Y-72428571D01*
X180809523Y-72952380D02*
X180809523Y-71952380D01*
X181238095Y-72047619D02*
X181285714Y-72000000D01*
X181380952Y-71952380D01*
X181619047Y-71952380D01*
X181714285Y-72000000D01*
X181761904Y-72047619D01*
X181809523Y-72142857D01*
X181809523Y-72238095D01*
X181761904Y-72380952D01*
X181190476Y-72952380D01*
X181809523Y-72952380D01*
%TO.C,H1*%
X159238095Y-72952380D02*
X159238095Y-71952380D01*
X159238095Y-72428571D02*
X159809523Y-72428571D01*
X159809523Y-72952380D02*
X159809523Y-71952380D01*
X160809523Y-72952380D02*
X160238095Y-72952380D01*
X160523809Y-72952380D02*
X160523809Y-71952380D01*
X160428571Y-72095238D01*
X160333333Y-72190476D01*
X160238095Y-72238095D01*
D13*
%TO.C,U1*%
X174924300Y-91372100D02*
X174924300Y-91057140D01*
X174924300Y-80627900D02*
X167075700Y-80627900D01*
X174924300Y-80942860D02*
X174924300Y-80627900D01*
X167075700Y-91057140D02*
X167075700Y-91372100D01*
X167075700Y-80627900D02*
X167075700Y-80942860D01*
X167075700Y-91372100D02*
X174924300Y-91372100D01*
G36*
X177184900Y-89365500D02*
G01*
X176930900Y-89365500D01*
X176930900Y-88984500D01*
X177184900Y-88984500D01*
X177184900Y-89365500D01*
G37*
D10*
X177184900Y-89365500D02*
X176930900Y-89365500D01*
X176930900Y-88984500D01*
X177184900Y-88984500D01*
X177184900Y-89365500D01*
D13*
%TO.C,R3*%
X180227064Y-86735000D02*
X179772936Y-86735000D01*
X180227064Y-85265000D02*
X179772936Y-85265000D01*
%TO.C,R1*%
X180227064Y-84735000D02*
X179772936Y-84735000D01*
X180227064Y-83265000D02*
X179772936Y-83265000D01*
%TO.C,R2*%
X180227064Y-82735000D02*
X179772936Y-82735000D01*
X180227064Y-81265000D02*
X179772936Y-81265000D01*
%TO.C,JP3*%
X163050000Y-89000000D02*
X163050000Y-91000000D01*
X159400000Y-91500000D02*
X160000000Y-91500000D01*
X159700000Y-91200000D02*
X160000000Y-91500000D01*
X163050000Y-91000000D02*
X158950000Y-91000000D01*
X158950000Y-89000000D02*
X163050000Y-89000000D01*
X159700000Y-91200000D02*
X159400000Y-91500000D01*
X158950000Y-91000000D02*
X158950000Y-89000000D01*
%TO.C,JP2*%
X163050000Y-85000000D02*
X163050000Y-87000000D01*
X159400000Y-87500000D02*
X160000000Y-87500000D01*
X159700000Y-87200000D02*
X160000000Y-87500000D01*
X163050000Y-87000000D02*
X158950000Y-87000000D01*
X158950000Y-85000000D02*
X163050000Y-85000000D01*
X159700000Y-87200000D02*
X159400000Y-87500000D01*
X158950000Y-87000000D02*
X158950000Y-85000000D01*
%TO.C,JP1*%
X158950000Y-83000000D02*
X158950000Y-81000000D01*
X159700000Y-83200000D02*
X159400000Y-83500000D01*
X158950000Y-81000000D02*
X163050000Y-81000000D01*
X163050000Y-83000000D02*
X158950000Y-83000000D01*
X159700000Y-83200000D02*
X160000000Y-83500000D01*
X159400000Y-83500000D02*
X160000000Y-83500000D01*
X163050000Y-81000000D02*
X163050000Y-83000000D01*
%TO.C,J3*%
X176000000Y-92670000D02*
X177330000Y-92670000D01*
X174730000Y-92670000D02*
X164510000Y-92670000D01*
X177330000Y-95270000D02*
X177330000Y-97870000D01*
X174730000Y-92670000D02*
X174730000Y-95270000D01*
X177330000Y-92670000D02*
X177330000Y-94000000D01*
X174730000Y-95270000D02*
X177330000Y-95270000D01*
X164510000Y-92670000D02*
X164510000Y-97870000D01*
X177330000Y-97870000D02*
X164510000Y-97870000D01*
%TO.C,J2*%
X176440000Y-74315000D02*
X172560000Y-74315000D01*
X177610000Y-76285000D02*
X177610000Y-78785000D01*
X171390000Y-76285000D02*
X171390000Y-78785000D01*
X177610000Y-78785000D02*
X176560000Y-78785000D01*
X171390000Y-78785000D02*
X172440000Y-78785000D01*
X176560000Y-78785000D02*
X176560000Y-79775000D01*
%TO.C,J1*%
X168440000Y-74315000D02*
X164560000Y-74315000D01*
X169610000Y-76285000D02*
X169610000Y-78785000D01*
X163390000Y-76285000D02*
X163390000Y-78785000D01*
X169610000Y-78785000D02*
X168560000Y-78785000D01*
X163390000Y-78785000D02*
X164440000Y-78785000D01*
X168560000Y-78785000D02*
X168560000Y-79775000D01*
%TD*%
M02*
