%TF.GenerationSoftware,KiCad,Pcbnew,(6.0.7)*%
%TF.CreationDate,2022-09-27T22:03:24-05:00*%
%TF.ProjectId,TCA9534,54434139-3533-4342-9e6b-696361645f70,1.0*%
%TF.SameCoordinates,Original*%
%TF.FileFunction,Copper,L2,Bot*%
%TF.FilePolarity,Positive*%
%FSLAX46Y46*%
G04 Gerber Fmt 4.6, Leading zero omitted, Abs format (unit mm)*
G04 Created by KiCad (PCBNEW (6.0.7)) date 2022-09-27 22:03:24*
%MOMM*%
%LPD*%
G01*
G04 APERTURE LIST*
%TA.AperFunction,ComponentPad*%
%ADD10R,1.700000X1.700000*%
%TD*%
%TA.AperFunction,ComponentPad*%
%ADD11O,1.700000X1.700000*%
%TD*%
%TA.AperFunction,ViaPad*%
%ADD12C,0.800000*%
%TD*%
%TA.AperFunction,Conductor*%
%ADD13C,0.250000*%
%TD*%
G04 APERTURE END LIST*
D10*
%TO.P,J3,1,Pin_1*%
%TO.N,/P0*%
X176000000Y-94000000D03*
D11*
%TO.P,J3,2,Pin_2*%
%TO.N,/P4*%
X176000000Y-96540000D03*
%TO.P,J3,3,Pin_3*%
%TO.N,/P1*%
X173460000Y-94000000D03*
%TO.P,J3,4,Pin_4*%
%TO.N,/P5*%
X173460000Y-96540000D03*
%TO.P,J3,5,Pin_5*%
%TO.N,/P2*%
X170920000Y-94000000D03*
%TO.P,J3,6,Pin_6*%
%TO.N,/P6*%
X170920000Y-96540000D03*
%TO.P,J3,7,Pin_7*%
%TO.N,/P3*%
X168380000Y-94000000D03*
%TO.P,J3,8,Pin_8*%
%TO.N,/P7*%
X168380000Y-96540000D03*
%TO.P,J3,9,Pin_9*%
%TO.N,+3.3V*%
X165840000Y-94000000D03*
%TO.P,J3,10,Pin_10*%
%TO.N,GND*%
X165840000Y-96540000D03*
%TD*%
D12*
%TO.N,GND*%
X177000000Y-77500000D03*
X163500000Y-85000000D03*
X163500000Y-90000000D03*
X164000000Y-81000000D03*
X170000000Y-79000000D03*
%TO.N,/P0*%
X169000000Y-86000000D03*
%TO.N,/P1*%
X168000000Y-87000000D03*
%TO.N,/P2*%
X168000000Y-88000000D03*
%TO.N,/SCL*%
X166000000Y-77000000D03*
X172000000Y-79000000D03*
X175737100Y-84095000D03*
%TO.N,/SDA*%
X179000000Y-82000000D03*
X174000000Y-77000000D03*
%TD*%
D13*
%TO.N,/P0*%
X169450000Y-86450000D02*
X169000000Y-86000000D01*
X169450000Y-88450000D02*
X169450000Y-86450000D01*
X175500000Y-92000000D02*
X173000000Y-92000000D01*
X176000000Y-92500000D02*
X175500000Y-92000000D01*
X173000000Y-92000000D02*
X169450000Y-88450000D01*
X176000000Y-94000000D02*
X176000000Y-92500000D01*
%TO.N,/P1*%
X169000000Y-90500000D02*
X171325000Y-92825000D01*
X169000000Y-88500000D02*
X169000000Y-90500000D01*
X168725000Y-88225000D02*
X169000000Y-88500000D01*
X171325000Y-92825000D02*
X172285000Y-92825000D01*
X172285000Y-92825000D02*
X173460000Y-94000000D01*
X168000000Y-87000000D02*
X168025305Y-87000000D01*
X168025305Y-87000000D02*
X168725000Y-87699695D01*
X168725000Y-87699695D02*
X168725000Y-88225000D01*
%TO.N,/P2*%
X168000000Y-91080000D02*
X168000000Y-88000000D01*
X170920000Y-94000000D02*
X168000000Y-91080000D01*
%TO.N,/SCL*%
X170000000Y-77000000D02*
X172000000Y-79000000D01*
X166000000Y-77000000D02*
X170000000Y-77000000D01*
X172000000Y-80357900D02*
X175737100Y-84095000D01*
X172000000Y-79000000D02*
X172000000Y-80357900D01*
%TO.N,/SDA*%
X174000000Y-77000000D02*
X179000000Y-82000000D01*
%TD*%
%TA.AperFunction,Conductor*%
%TO.N,GND*%
G36*
X179765262Y-74528502D02*
G01*
X179811755Y-74582158D01*
X179821859Y-74652432D01*
X179788916Y-74720832D01*
X179629557Y-74890237D01*
X179480576Y-75104991D01*
X179364975Y-75339407D01*
X179285293Y-75588335D01*
X179243279Y-75846307D01*
X179243218Y-75850980D01*
X179240052Y-76092872D01*
X179239858Y-76107655D01*
X179275104Y-76366638D01*
X179276412Y-76371124D01*
X179276412Y-76371126D01*
X179292874Y-76427604D01*
X179348243Y-76617567D01*
X179457668Y-76854928D01*
X179460231Y-76858837D01*
X179598410Y-77069596D01*
X179598414Y-77069601D01*
X179600976Y-77073509D01*
X179775018Y-77268506D01*
X179975970Y-77435637D01*
X179979973Y-77438066D01*
X180195422Y-77568804D01*
X180195426Y-77568806D01*
X180199419Y-77571229D01*
X180440455Y-77672303D01*
X180693783Y-77736641D01*
X180698434Y-77737109D01*
X180698438Y-77737110D01*
X180891308Y-77756531D01*
X180910867Y-77758500D01*
X181066354Y-77758500D01*
X181068679Y-77758327D01*
X181068685Y-77758327D01*
X181256000Y-77744407D01*
X181256004Y-77744406D01*
X181260652Y-77744061D01*
X181265200Y-77743032D01*
X181265206Y-77743031D01*
X181451601Y-77700853D01*
X181515577Y-77686377D01*
X181519931Y-77684684D01*
X181754824Y-77593340D01*
X181754827Y-77593339D01*
X181759177Y-77591647D01*
X181986098Y-77461951D01*
X182191357Y-77300138D01*
X182273725Y-77212578D01*
X182334969Y-77176666D01*
X182405907Y-77179566D01*
X182464015Y-77220357D01*
X182490846Y-77286088D01*
X182491500Y-77298911D01*
X182491500Y-95699708D01*
X182471498Y-95767829D01*
X182417842Y-95814322D01*
X182347568Y-95824426D01*
X182282988Y-95794932D01*
X182271497Y-95783610D01*
X182224982Y-95731494D01*
X182024030Y-95564363D01*
X181976844Y-95535730D01*
X181804578Y-95431196D01*
X181804574Y-95431194D01*
X181800581Y-95428771D01*
X181559545Y-95327697D01*
X181306217Y-95263359D01*
X181301566Y-95262891D01*
X181301562Y-95262890D01*
X181092271Y-95241816D01*
X181089133Y-95241500D01*
X180933646Y-95241500D01*
X180931321Y-95241673D01*
X180931315Y-95241673D01*
X180744000Y-95255593D01*
X180743996Y-95255594D01*
X180739348Y-95255939D01*
X180734800Y-95256968D01*
X180734794Y-95256969D01*
X180565712Y-95295229D01*
X180484423Y-95313623D01*
X180480071Y-95315315D01*
X180480069Y-95315316D01*
X180245176Y-95406660D01*
X180245173Y-95406661D01*
X180240823Y-95408353D01*
X180013902Y-95538049D01*
X179808643Y-95699862D01*
X179629557Y-95890237D01*
X179480576Y-96104991D01*
X179478510Y-96109181D01*
X179478508Y-96109184D01*
X179373302Y-96322522D01*
X179364975Y-96339407D01*
X179285293Y-96588335D01*
X179243279Y-96846307D01*
X179239858Y-97107655D01*
X179275104Y-97366638D01*
X179276412Y-97371124D01*
X179276412Y-97371126D01*
X179292738Y-97427137D01*
X179348243Y-97617567D01*
X179457668Y-97854928D01*
X179460231Y-97858837D01*
X179598410Y-98069596D01*
X179598414Y-98069601D01*
X179600976Y-98073509D01*
X179775018Y-98268506D01*
X179778611Y-98271494D01*
X179781978Y-98274746D01*
X179780400Y-98276380D01*
X179814782Y-98327680D01*
X179816149Y-98398663D01*
X179778923Y-98459118D01*
X179714922Y-98489849D01*
X179694592Y-98491500D01*
X161302859Y-98491500D01*
X161234738Y-98471498D01*
X161188245Y-98417842D01*
X161178141Y-98347568D01*
X161211084Y-98279167D01*
X161367237Y-98113171D01*
X161370443Y-98109763D01*
X161493443Y-97932460D01*
X161516759Y-97898851D01*
X161516761Y-97898848D01*
X161519424Y-97895009D01*
X161530096Y-97873368D01*
X161632960Y-97664781D01*
X161632961Y-97664778D01*
X161635025Y-97660593D01*
X161714707Y-97411665D01*
X161756721Y-97153693D01*
X161758250Y-97036857D01*
X161760081Y-96897022D01*
X161760081Y-96897019D01*
X161760142Y-96892345D01*
X161724896Y-96633362D01*
X161710473Y-96583877D01*
X161698664Y-96543365D01*
X161651757Y-96382433D01*
X161542332Y-96145072D01*
X161480922Y-96051406D01*
X161401590Y-95930404D01*
X161401586Y-95930399D01*
X161399024Y-95926491D01*
X161224982Y-95731494D01*
X161024030Y-95564363D01*
X160976844Y-95535730D01*
X160804578Y-95431196D01*
X160804574Y-95431194D01*
X160800581Y-95428771D01*
X160559545Y-95327697D01*
X160306217Y-95263359D01*
X160301566Y-95262891D01*
X160301562Y-95262890D01*
X160092271Y-95241816D01*
X160089133Y-95241500D01*
X159933646Y-95241500D01*
X159931321Y-95241673D01*
X159931315Y-95241673D01*
X159744000Y-95255593D01*
X159743996Y-95255594D01*
X159739348Y-95255939D01*
X159734800Y-95256968D01*
X159734794Y-95256969D01*
X159565712Y-95295229D01*
X159484423Y-95313623D01*
X159480071Y-95315315D01*
X159480069Y-95315316D01*
X159245176Y-95406660D01*
X159245173Y-95406661D01*
X159240823Y-95408353D01*
X159013902Y-95538049D01*
X158808643Y-95699862D01*
X158795426Y-95713912D01*
X158726275Y-95787422D01*
X158665031Y-95823334D01*
X158594093Y-95820434D01*
X158535985Y-95779643D01*
X158509154Y-95713912D01*
X158508500Y-95701089D01*
X158508500Y-93966695D01*
X164477251Y-93966695D01*
X164490110Y-94189715D01*
X164491247Y-94194761D01*
X164491248Y-94194767D01*
X164515304Y-94301508D01*
X164539222Y-94407639D01*
X164623266Y-94614616D01*
X164660685Y-94675678D01*
X164737291Y-94800688D01*
X164739987Y-94805088D01*
X164886250Y-94973938D01*
X165058126Y-95116632D01*
X165251000Y-95229338D01*
X165255825Y-95231180D01*
X165255826Y-95231181D01*
X165319755Y-95255593D01*
X165459692Y-95309030D01*
X165464760Y-95310061D01*
X165464763Y-95310062D01*
X165560324Y-95329504D01*
X165678597Y-95353567D01*
X165683772Y-95353757D01*
X165683774Y-95353757D01*
X165896673Y-95361564D01*
X165896677Y-95361564D01*
X165901837Y-95361753D01*
X165906957Y-95361097D01*
X165906959Y-95361097D01*
X166118288Y-95334025D01*
X166118289Y-95334025D01*
X166123416Y-95333368D01*
X166130096Y-95331364D01*
X166332429Y-95270661D01*
X166332434Y-95270659D01*
X166337384Y-95269174D01*
X166537994Y-95170896D01*
X166719860Y-95041173D01*
X166878096Y-94883489D01*
X166937594Y-94800689D01*
X167008453Y-94702077D01*
X167009776Y-94703028D01*
X167056645Y-94659857D01*
X167126580Y-94647625D01*
X167192026Y-94675144D01*
X167219875Y-94706994D01*
X167279987Y-94805088D01*
X167426250Y-94973938D01*
X167598126Y-95116632D01*
X167668595Y-95157811D01*
X167671445Y-95159476D01*
X167720169Y-95211114D01*
X167733240Y-95280897D01*
X167706509Y-95346669D01*
X167666055Y-95380027D01*
X167653607Y-95386507D01*
X167649474Y-95389610D01*
X167649471Y-95389612D01*
X167525567Y-95482642D01*
X167474965Y-95520635D01*
X167320629Y-95682138D01*
X167317720Y-95686403D01*
X167317714Y-95686411D01*
X167248809Y-95787422D01*
X167194743Y-95866680D01*
X167100688Y-96069305D01*
X167040989Y-96284570D01*
X167017251Y-96506695D01*
X167017548Y-96511848D01*
X167017548Y-96511851D01*
X167023011Y-96606590D01*
X167030110Y-96729715D01*
X167031247Y-96734761D01*
X167031248Y-96734767D01*
X167051119Y-96822939D01*
X167079222Y-96947639D01*
X167163266Y-97154616D01*
X167214019Y-97237438D01*
X167277291Y-97340688D01*
X167279987Y-97345088D01*
X167426250Y-97513938D01*
X167598126Y-97656632D01*
X167791000Y-97769338D01*
X167999692Y-97849030D01*
X168004760Y-97850061D01*
X168004763Y-97850062D01*
X168112017Y-97871883D01*
X168218597Y-97893567D01*
X168223772Y-97893757D01*
X168223774Y-97893757D01*
X168436673Y-97901564D01*
X168436677Y-97901564D01*
X168441837Y-97901753D01*
X168446957Y-97901097D01*
X168446959Y-97901097D01*
X168658288Y-97874025D01*
X168658289Y-97874025D01*
X168663416Y-97873368D01*
X168711850Y-97858837D01*
X168872429Y-97810661D01*
X168872434Y-97810659D01*
X168877384Y-97809174D01*
X169077994Y-97710896D01*
X169259860Y-97581173D01*
X169418096Y-97423489D01*
X169426593Y-97411665D01*
X169548453Y-97242077D01*
X169549776Y-97243028D01*
X169596645Y-97199857D01*
X169666580Y-97187625D01*
X169732026Y-97215144D01*
X169759875Y-97246994D01*
X169819987Y-97345088D01*
X169966250Y-97513938D01*
X170138126Y-97656632D01*
X170331000Y-97769338D01*
X170539692Y-97849030D01*
X170544760Y-97850061D01*
X170544763Y-97850062D01*
X170652017Y-97871883D01*
X170758597Y-97893567D01*
X170763772Y-97893757D01*
X170763774Y-97893757D01*
X170976673Y-97901564D01*
X170976677Y-97901564D01*
X170981837Y-97901753D01*
X170986957Y-97901097D01*
X170986959Y-97901097D01*
X171198288Y-97874025D01*
X171198289Y-97874025D01*
X171203416Y-97873368D01*
X171251850Y-97858837D01*
X171412429Y-97810661D01*
X171412434Y-97810659D01*
X171417384Y-97809174D01*
X171617994Y-97710896D01*
X171799860Y-97581173D01*
X171958096Y-97423489D01*
X171966593Y-97411665D01*
X172088453Y-97242077D01*
X172089776Y-97243028D01*
X172136645Y-97199857D01*
X172206580Y-97187625D01*
X172272026Y-97215144D01*
X172299875Y-97246994D01*
X172359987Y-97345088D01*
X172506250Y-97513938D01*
X172678126Y-97656632D01*
X172871000Y-97769338D01*
X173079692Y-97849030D01*
X173084760Y-97850061D01*
X173084763Y-97850062D01*
X173192017Y-97871883D01*
X173298597Y-97893567D01*
X173303772Y-97893757D01*
X173303774Y-97893757D01*
X173516673Y-97901564D01*
X173516677Y-97901564D01*
X173521837Y-97901753D01*
X173526957Y-97901097D01*
X173526959Y-97901097D01*
X173738288Y-97874025D01*
X173738289Y-97874025D01*
X173743416Y-97873368D01*
X173791850Y-97858837D01*
X173952429Y-97810661D01*
X173952434Y-97810659D01*
X173957384Y-97809174D01*
X174157994Y-97710896D01*
X174339860Y-97581173D01*
X174498096Y-97423489D01*
X174506593Y-97411665D01*
X174628453Y-97242077D01*
X174629776Y-97243028D01*
X174676645Y-97199857D01*
X174746580Y-97187625D01*
X174812026Y-97215144D01*
X174839875Y-97246994D01*
X174899987Y-97345088D01*
X175046250Y-97513938D01*
X175218126Y-97656632D01*
X175411000Y-97769338D01*
X175619692Y-97849030D01*
X175624760Y-97850061D01*
X175624763Y-97850062D01*
X175732017Y-97871883D01*
X175838597Y-97893567D01*
X175843772Y-97893757D01*
X175843774Y-97893757D01*
X176056673Y-97901564D01*
X176056677Y-97901564D01*
X176061837Y-97901753D01*
X176066957Y-97901097D01*
X176066959Y-97901097D01*
X176278288Y-97874025D01*
X176278289Y-97874025D01*
X176283416Y-97873368D01*
X176331850Y-97858837D01*
X176492429Y-97810661D01*
X176492434Y-97810659D01*
X176497384Y-97809174D01*
X176697994Y-97710896D01*
X176879860Y-97581173D01*
X177038096Y-97423489D01*
X177046593Y-97411665D01*
X177165435Y-97246277D01*
X177168453Y-97242077D01*
X177189320Y-97199857D01*
X177265136Y-97046453D01*
X177265137Y-97046451D01*
X177267430Y-97041811D01*
X177332370Y-96828069D01*
X177361529Y-96606590D01*
X177363156Y-96540000D01*
X177344852Y-96317361D01*
X177290431Y-96100702D01*
X177201354Y-95895840D01*
X177093101Y-95728506D01*
X177082822Y-95712617D01*
X177082820Y-95712614D01*
X177080014Y-95708277D01*
X177075453Y-95703264D01*
X176932798Y-95546488D01*
X176901746Y-95482642D01*
X176910141Y-95412143D01*
X176955317Y-95357375D01*
X176981761Y-95343706D01*
X177088297Y-95303767D01*
X177096705Y-95300615D01*
X177213261Y-95213261D01*
X177300615Y-95096705D01*
X177351745Y-94960316D01*
X177358500Y-94898134D01*
X177358500Y-93101866D01*
X177351745Y-93039684D01*
X177300615Y-92903295D01*
X177213261Y-92786739D01*
X177096705Y-92699385D01*
X176960316Y-92648255D01*
X176898134Y-92641500D01*
X176760363Y-92641500D01*
X176692242Y-92621498D01*
X176645749Y-92567842D01*
X176634425Y-92519458D01*
X176633562Y-92492002D01*
X176633500Y-92488044D01*
X176633500Y-92460144D01*
X176632996Y-92456153D01*
X176632063Y-92444311D01*
X176630923Y-92408036D01*
X176630674Y-92400111D01*
X176628462Y-92392497D01*
X176628461Y-92392492D01*
X176625023Y-92380659D01*
X176621012Y-92361295D01*
X176619467Y-92349064D01*
X176618474Y-92341203D01*
X176615557Y-92333836D01*
X176615556Y-92333831D01*
X176602198Y-92300092D01*
X176598354Y-92288865D01*
X176588230Y-92254022D01*
X176586018Y-92246407D01*
X176575707Y-92228972D01*
X176567012Y-92211224D01*
X176559552Y-92192383D01*
X176533564Y-92156613D01*
X176527048Y-92146693D01*
X176508580Y-92115465D01*
X176508578Y-92115462D01*
X176504542Y-92108638D01*
X176490221Y-92094317D01*
X176477380Y-92079283D01*
X176470132Y-92069307D01*
X176465472Y-92062893D01*
X176431407Y-92034712D01*
X176422626Y-92026722D01*
X176003647Y-91607742D01*
X175996113Y-91599463D01*
X175992000Y-91592982D01*
X175942348Y-91546356D01*
X175939507Y-91543602D01*
X175919770Y-91523865D01*
X175916573Y-91521385D01*
X175907551Y-91513680D01*
X175881100Y-91488841D01*
X175875321Y-91483414D01*
X175868375Y-91479595D01*
X175868372Y-91479593D01*
X175857566Y-91473652D01*
X175841047Y-91462801D01*
X175840583Y-91462441D01*
X175825041Y-91450386D01*
X175817772Y-91447241D01*
X175817768Y-91447238D01*
X175784463Y-91432826D01*
X175773813Y-91427609D01*
X175735060Y-91406305D01*
X175715437Y-91401267D01*
X175696734Y-91394863D01*
X175685420Y-91389967D01*
X175685419Y-91389967D01*
X175678145Y-91386819D01*
X175670322Y-91385580D01*
X175670312Y-91385577D01*
X175634476Y-91379901D01*
X175622856Y-91377495D01*
X175587711Y-91368472D01*
X175587710Y-91368472D01*
X175580030Y-91366500D01*
X175559776Y-91366500D01*
X175540065Y-91364949D01*
X175527886Y-91363020D01*
X175520057Y-91361780D01*
X175512165Y-91362526D01*
X175476039Y-91365941D01*
X175464181Y-91366500D01*
X173314594Y-91366500D01*
X173246473Y-91346498D01*
X173225499Y-91329595D01*
X170120405Y-88224500D01*
X170086379Y-88162188D01*
X170083500Y-88135405D01*
X170083500Y-86528767D01*
X170084027Y-86517584D01*
X170085702Y-86510091D01*
X170084224Y-86463056D01*
X170083562Y-86442014D01*
X170083500Y-86438055D01*
X170083500Y-86410144D01*
X170082995Y-86406144D01*
X170082062Y-86394301D01*
X170080922Y-86358029D01*
X170080673Y-86350110D01*
X170075022Y-86330657D01*
X170071014Y-86311302D01*
X170069469Y-86299071D01*
X170069467Y-86299063D01*
X170068474Y-86291203D01*
X170065557Y-86283836D01*
X170065556Y-86283831D01*
X170052200Y-86250097D01*
X170048355Y-86238870D01*
X170047721Y-86236687D01*
X170036018Y-86196407D01*
X170025707Y-86178972D01*
X170017012Y-86161224D01*
X170009552Y-86142383D01*
X169983564Y-86106613D01*
X169977048Y-86096693D01*
X169958580Y-86065465D01*
X169958578Y-86065462D01*
X169954542Y-86058638D01*
X169947122Y-86051218D01*
X169946157Y-86049451D01*
X169944079Y-86046772D01*
X169944511Y-86046437D01*
X169913096Y-85988906D01*
X169910907Y-85975293D01*
X169894232Y-85816635D01*
X169894232Y-85816633D01*
X169893542Y-85810072D01*
X169834527Y-85628444D01*
X169739040Y-85463056D01*
X169611253Y-85321134D01*
X169456752Y-85208882D01*
X169450724Y-85206198D01*
X169450722Y-85206197D01*
X169288319Y-85133891D01*
X169288318Y-85133891D01*
X169282288Y-85131206D01*
X169188888Y-85111353D01*
X169101944Y-85092872D01*
X169101939Y-85092872D01*
X169095487Y-85091500D01*
X168904513Y-85091500D01*
X168898061Y-85092872D01*
X168898056Y-85092872D01*
X168811112Y-85111353D01*
X168717712Y-85131206D01*
X168711682Y-85133891D01*
X168711681Y-85133891D01*
X168549278Y-85206197D01*
X168549276Y-85206198D01*
X168543248Y-85208882D01*
X168388747Y-85321134D01*
X168260960Y-85463056D01*
X168165473Y-85628444D01*
X168106458Y-85810072D01*
X168105768Y-85816633D01*
X168105768Y-85816635D01*
X168088738Y-85978670D01*
X168061725Y-86044327D01*
X168003503Y-86084957D01*
X167963428Y-86091500D01*
X167904513Y-86091500D01*
X167898061Y-86092872D01*
X167898056Y-86092872D01*
X167833412Y-86106613D01*
X167717712Y-86131206D01*
X167711682Y-86133891D01*
X167711681Y-86133891D01*
X167549278Y-86206197D01*
X167549276Y-86206198D01*
X167543248Y-86208882D01*
X167388747Y-86321134D01*
X167384326Y-86326044D01*
X167384325Y-86326045D01*
X167355527Y-86358029D01*
X167260960Y-86463056D01*
X167165473Y-86628444D01*
X167106458Y-86810072D01*
X167086496Y-87000000D01*
X167106458Y-87189928D01*
X167165473Y-87371556D01*
X167168776Y-87377278D01*
X167168777Y-87377279D01*
X167203257Y-87437000D01*
X167219995Y-87505995D01*
X167203257Y-87563000D01*
X167165473Y-87628444D01*
X167106458Y-87810072D01*
X167086496Y-88000000D01*
X167106458Y-88189928D01*
X167165473Y-88371556D01*
X167260960Y-88536944D01*
X167334137Y-88618215D01*
X167364853Y-88682221D01*
X167366500Y-88702524D01*
X167366500Y-91001233D01*
X167365973Y-91012416D01*
X167364298Y-91019909D01*
X167364547Y-91027835D01*
X167364547Y-91027836D01*
X167366438Y-91087986D01*
X167366500Y-91091945D01*
X167366500Y-91119856D01*
X167366997Y-91123790D01*
X167366997Y-91123791D01*
X167367005Y-91123856D01*
X167367938Y-91135693D01*
X167369327Y-91179889D01*
X167374978Y-91199339D01*
X167378987Y-91218700D01*
X167381526Y-91238797D01*
X167384445Y-91246168D01*
X167384445Y-91246170D01*
X167397804Y-91279912D01*
X167401649Y-91291142D01*
X167413982Y-91333593D01*
X167418015Y-91340412D01*
X167418017Y-91340417D01*
X167424293Y-91351028D01*
X167432988Y-91368776D01*
X167440448Y-91387617D01*
X167445110Y-91394033D01*
X167445110Y-91394034D01*
X167466436Y-91423387D01*
X167472952Y-91433307D01*
X167485925Y-91455242D01*
X167495458Y-91471362D01*
X167509779Y-91485683D01*
X167522619Y-91500716D01*
X167534528Y-91517107D01*
X167566555Y-91543602D01*
X167568605Y-91545298D01*
X167577384Y-91553288D01*
X168450086Y-92425990D01*
X168484112Y-92488302D01*
X168479047Y-92559117D01*
X168436500Y-92615953D01*
X168369980Y-92640764D01*
X168359459Y-92641076D01*
X168311962Y-92640495D01*
X168290080Y-92640228D01*
X168290078Y-92640228D01*
X168284911Y-92640165D01*
X168064091Y-92673955D01*
X167851756Y-92743357D01*
X167653607Y-92846507D01*
X167649474Y-92849610D01*
X167649471Y-92849612D01*
X167479100Y-92977530D01*
X167474965Y-92980635D01*
X167435525Y-93021907D01*
X167381280Y-93078671D01*
X167320629Y-93142138D01*
X167213201Y-93299621D01*
X167158293Y-93344621D01*
X167087768Y-93352792D01*
X167024021Y-93321538D01*
X167003324Y-93297054D01*
X166922822Y-93172617D01*
X166922820Y-93172614D01*
X166920014Y-93168277D01*
X166769670Y-93003051D01*
X166765619Y-92999852D01*
X166765615Y-92999848D01*
X166598414Y-92867800D01*
X166598410Y-92867798D01*
X166594359Y-92864598D01*
X166398789Y-92756638D01*
X166393920Y-92754914D01*
X166393916Y-92754912D01*
X166193087Y-92683795D01*
X166193083Y-92683794D01*
X166188212Y-92682069D01*
X166183119Y-92681162D01*
X166183116Y-92681161D01*
X165973373Y-92643800D01*
X165973367Y-92643799D01*
X165968284Y-92642894D01*
X165894452Y-92641992D01*
X165750081Y-92640228D01*
X165750079Y-92640228D01*
X165744911Y-92640165D01*
X165524091Y-92673955D01*
X165311756Y-92743357D01*
X165113607Y-92846507D01*
X165109474Y-92849610D01*
X165109471Y-92849612D01*
X164939100Y-92977530D01*
X164934965Y-92980635D01*
X164895525Y-93021907D01*
X164841280Y-93078671D01*
X164780629Y-93142138D01*
X164654743Y-93326680D01*
X164560688Y-93529305D01*
X164500989Y-93744570D01*
X164477251Y-93966695D01*
X158508500Y-93966695D01*
X158508500Y-77300292D01*
X158528502Y-77232171D01*
X158582158Y-77185678D01*
X158652432Y-77175574D01*
X158717012Y-77205068D01*
X158728499Y-77216386D01*
X158775018Y-77268506D01*
X158975970Y-77435637D01*
X158979973Y-77438066D01*
X159195422Y-77568804D01*
X159195426Y-77568806D01*
X159199419Y-77571229D01*
X159440455Y-77672303D01*
X159693783Y-77736641D01*
X159698434Y-77737109D01*
X159698438Y-77737110D01*
X159891308Y-77756531D01*
X159910867Y-77758500D01*
X160066354Y-77758500D01*
X160068679Y-77758327D01*
X160068685Y-77758327D01*
X160256000Y-77744407D01*
X160256004Y-77744406D01*
X160260652Y-77744061D01*
X160265200Y-77743032D01*
X160265206Y-77743031D01*
X160451601Y-77700853D01*
X160515577Y-77686377D01*
X160519931Y-77684684D01*
X160754824Y-77593340D01*
X160754827Y-77593339D01*
X160759177Y-77591647D01*
X160986098Y-77461951D01*
X161191357Y-77300138D01*
X161370443Y-77109763D01*
X161446589Y-77000000D01*
X165086496Y-77000000D01*
X165087186Y-77006565D01*
X165098391Y-77113171D01*
X165106458Y-77189928D01*
X165165473Y-77371556D01*
X165260960Y-77536944D01*
X165265378Y-77541851D01*
X165265379Y-77541852D01*
X165310215Y-77591647D01*
X165388747Y-77678866D01*
X165543248Y-77791118D01*
X165549276Y-77793802D01*
X165549278Y-77793803D01*
X165711681Y-77866109D01*
X165717712Y-77868794D01*
X165811113Y-77888647D01*
X165898056Y-77907128D01*
X165898061Y-77907128D01*
X165904513Y-77908500D01*
X166095487Y-77908500D01*
X166101939Y-77907128D01*
X166101944Y-77907128D01*
X166188887Y-77888647D01*
X166282288Y-77868794D01*
X166288319Y-77866109D01*
X166450722Y-77793803D01*
X166450724Y-77793802D01*
X166456752Y-77791118D01*
X166533319Y-77735489D01*
X166603245Y-77684684D01*
X166611253Y-77678866D01*
X166615668Y-77673963D01*
X166620580Y-77669540D01*
X166621705Y-77670789D01*
X166675014Y-77637949D01*
X166708200Y-77633500D01*
X169685406Y-77633500D01*
X169753527Y-77653502D01*
X169774501Y-77670405D01*
X171052878Y-78948783D01*
X171086904Y-79011095D01*
X171089093Y-79024706D01*
X171106458Y-79189928D01*
X171165473Y-79371556D01*
X171260960Y-79536944D01*
X171334137Y-79618215D01*
X171364853Y-79682221D01*
X171366500Y-79702524D01*
X171366500Y-80279133D01*
X171365973Y-80290316D01*
X171364298Y-80297809D01*
X171364547Y-80305735D01*
X171364547Y-80305736D01*
X171366438Y-80365886D01*
X171366500Y-80369845D01*
X171366500Y-80397756D01*
X171366997Y-80401690D01*
X171366997Y-80401691D01*
X171367005Y-80401756D01*
X171367938Y-80413593D01*
X171369327Y-80457789D01*
X171374978Y-80477239D01*
X171378987Y-80496600D01*
X171381526Y-80516697D01*
X171384445Y-80524068D01*
X171384445Y-80524070D01*
X171397804Y-80557812D01*
X171401649Y-80569042D01*
X171413982Y-80611493D01*
X171418015Y-80618312D01*
X171418017Y-80618317D01*
X171424293Y-80628928D01*
X171432988Y-80646676D01*
X171440448Y-80665517D01*
X171445110Y-80671933D01*
X171445110Y-80671934D01*
X171466436Y-80701287D01*
X171472952Y-80711207D01*
X171495458Y-80749262D01*
X171509779Y-80763583D01*
X171522619Y-80778616D01*
X171534528Y-80795007D01*
X171540634Y-80800058D01*
X171568605Y-80823198D01*
X171577384Y-80831188D01*
X174789978Y-84043782D01*
X174824004Y-84106094D01*
X174826192Y-84119703D01*
X174843558Y-84284928D01*
X174902573Y-84466556D01*
X174998060Y-84631944D01*
X175125847Y-84773866D01*
X175280348Y-84886118D01*
X175286376Y-84888802D01*
X175286378Y-84888803D01*
X175448781Y-84961109D01*
X175454812Y-84963794D01*
X175548212Y-84983647D01*
X175635156Y-85002128D01*
X175635161Y-85002128D01*
X175641613Y-85003500D01*
X175832587Y-85003500D01*
X175839039Y-85002128D01*
X175839044Y-85002128D01*
X175925987Y-84983647D01*
X176019388Y-84963794D01*
X176025419Y-84961109D01*
X176187822Y-84888803D01*
X176187824Y-84888802D01*
X176193852Y-84886118D01*
X176348353Y-84773866D01*
X176476140Y-84631944D01*
X176571627Y-84466556D01*
X176630642Y-84284928D01*
X176650604Y-84095000D01*
X176630642Y-83905072D01*
X176571627Y-83723444D01*
X176476140Y-83558056D01*
X176348353Y-83416134D01*
X176193852Y-83303882D01*
X176187824Y-83301198D01*
X176187822Y-83301197D01*
X176025419Y-83228891D01*
X176025418Y-83228891D01*
X176019388Y-83226206D01*
X175925988Y-83206353D01*
X175839044Y-83187872D01*
X175839039Y-83187872D01*
X175832587Y-83186500D01*
X175776694Y-83186500D01*
X175708573Y-83166498D01*
X175687599Y-83149595D01*
X172670405Y-80132400D01*
X172636379Y-80070088D01*
X172633500Y-80043305D01*
X172633500Y-79702524D01*
X172653502Y-79634403D01*
X172665858Y-79618221D01*
X172739040Y-79536944D01*
X172834527Y-79371556D01*
X172893542Y-79189928D01*
X172913504Y-79000000D01*
X172893542Y-78810072D01*
X172834527Y-78628444D01*
X172739040Y-78463056D01*
X172611253Y-78321134D01*
X172456752Y-78208882D01*
X172450724Y-78206198D01*
X172450722Y-78206197D01*
X172288319Y-78133891D01*
X172288318Y-78133891D01*
X172282288Y-78131206D01*
X172188888Y-78111353D01*
X172101944Y-78092872D01*
X172101939Y-78092872D01*
X172095487Y-78091500D01*
X172039594Y-78091500D01*
X171971473Y-78071498D01*
X171950499Y-78054595D01*
X170895905Y-77000000D01*
X173086496Y-77000000D01*
X173087186Y-77006565D01*
X173098391Y-77113171D01*
X173106458Y-77189928D01*
X173165473Y-77371556D01*
X173260960Y-77536944D01*
X173265378Y-77541851D01*
X173265379Y-77541852D01*
X173310215Y-77591647D01*
X173388747Y-77678866D01*
X173543248Y-77791118D01*
X173549276Y-77793802D01*
X173549278Y-77793803D01*
X173711681Y-77866109D01*
X173717712Y-77868794D01*
X173811113Y-77888647D01*
X173898056Y-77907128D01*
X173898061Y-77907128D01*
X173904513Y-77908500D01*
X173960406Y-77908500D01*
X174028527Y-77928502D01*
X174049501Y-77945405D01*
X178052878Y-81948783D01*
X178086904Y-82011095D01*
X178089093Y-82024706D01*
X178106458Y-82189928D01*
X178165473Y-82371556D01*
X178260960Y-82536944D01*
X178388747Y-82678866D01*
X178543248Y-82791118D01*
X178549276Y-82793802D01*
X178549278Y-82793803D01*
X178711681Y-82866109D01*
X178717712Y-82868794D01*
X178811112Y-82888647D01*
X178898056Y-82907128D01*
X178898061Y-82907128D01*
X178904513Y-82908500D01*
X179095487Y-82908500D01*
X179101939Y-82907128D01*
X179101944Y-82907128D01*
X179188888Y-82888647D01*
X179282288Y-82868794D01*
X179288319Y-82866109D01*
X179450722Y-82793803D01*
X179450724Y-82793802D01*
X179456752Y-82791118D01*
X179611253Y-82678866D01*
X179739040Y-82536944D01*
X179834527Y-82371556D01*
X179893542Y-82189928D01*
X179913504Y-82000000D01*
X179893542Y-81810072D01*
X179834527Y-81628444D01*
X179739040Y-81463056D01*
X179611253Y-81321134D01*
X179456752Y-81208882D01*
X179450724Y-81206198D01*
X179450722Y-81206197D01*
X179288319Y-81133891D01*
X179288318Y-81133891D01*
X179282288Y-81131206D01*
X179188888Y-81111353D01*
X179101944Y-81092872D01*
X179101939Y-81092872D01*
X179095487Y-81091500D01*
X179039594Y-81091500D01*
X178971473Y-81071498D01*
X178950499Y-81054595D01*
X174947122Y-77051217D01*
X174913096Y-76988905D01*
X174910907Y-76975292D01*
X174894232Y-76816635D01*
X174894232Y-76816633D01*
X174893542Y-76810072D01*
X174834527Y-76628444D01*
X174739040Y-76463056D01*
X174724798Y-76447238D01*
X174615675Y-76326045D01*
X174615674Y-76326044D01*
X174611253Y-76321134D01*
X174456752Y-76208882D01*
X174450724Y-76206198D01*
X174450722Y-76206197D01*
X174288319Y-76133891D01*
X174288318Y-76133891D01*
X174282288Y-76131206D01*
X174171490Y-76107655D01*
X174101944Y-76092872D01*
X174101939Y-76092872D01*
X174095487Y-76091500D01*
X173904513Y-76091500D01*
X173898061Y-76092872D01*
X173898056Y-76092872D01*
X173828510Y-76107655D01*
X173717712Y-76131206D01*
X173711682Y-76133891D01*
X173711681Y-76133891D01*
X173549278Y-76206197D01*
X173549276Y-76206198D01*
X173543248Y-76208882D01*
X173388747Y-76321134D01*
X173384326Y-76326044D01*
X173384325Y-76326045D01*
X173275203Y-76447238D01*
X173260960Y-76463056D01*
X173165473Y-76628444D01*
X173106458Y-76810072D01*
X173105768Y-76816633D01*
X173105768Y-76816635D01*
X173097531Y-76895009D01*
X173086496Y-77000000D01*
X170895905Y-77000000D01*
X170503652Y-76607747D01*
X170496112Y-76599461D01*
X170492000Y-76592982D01*
X170442348Y-76546356D01*
X170439507Y-76543602D01*
X170419770Y-76523865D01*
X170416573Y-76521385D01*
X170407551Y-76513680D01*
X170381100Y-76488841D01*
X170375321Y-76483414D01*
X170368375Y-76479595D01*
X170368372Y-76479593D01*
X170357566Y-76473652D01*
X170341047Y-76462801D01*
X170335048Y-76458148D01*
X170325041Y-76450386D01*
X170317772Y-76447241D01*
X170317768Y-76447238D01*
X170284463Y-76432826D01*
X170273813Y-76427609D01*
X170235060Y-76406305D01*
X170215437Y-76401267D01*
X170196734Y-76394863D01*
X170185420Y-76389967D01*
X170185419Y-76389967D01*
X170178145Y-76386819D01*
X170170322Y-76385580D01*
X170170312Y-76385577D01*
X170134476Y-76379901D01*
X170122856Y-76377495D01*
X170087711Y-76368472D01*
X170087710Y-76368472D01*
X170080030Y-76366500D01*
X170059776Y-76366500D01*
X170040065Y-76364949D01*
X170027886Y-76363020D01*
X170020057Y-76361780D01*
X170012165Y-76362526D01*
X169976039Y-76365941D01*
X169964181Y-76366500D01*
X166708200Y-76366500D01*
X166640079Y-76346498D01*
X166620853Y-76330157D01*
X166620580Y-76330460D01*
X166615668Y-76326037D01*
X166611253Y-76321134D01*
X166456752Y-76208882D01*
X166450724Y-76206198D01*
X166450722Y-76206197D01*
X166288319Y-76133891D01*
X166288318Y-76133891D01*
X166282288Y-76131206D01*
X166171490Y-76107655D01*
X166101944Y-76092872D01*
X166101939Y-76092872D01*
X166095487Y-76091500D01*
X165904513Y-76091500D01*
X165898061Y-76092872D01*
X165898056Y-76092872D01*
X165828510Y-76107655D01*
X165717712Y-76131206D01*
X165711682Y-76133891D01*
X165711681Y-76133891D01*
X165549278Y-76206197D01*
X165549276Y-76206198D01*
X165543248Y-76208882D01*
X165388747Y-76321134D01*
X165384326Y-76326044D01*
X165384325Y-76326045D01*
X165275203Y-76447238D01*
X165260960Y-76463056D01*
X165165473Y-76628444D01*
X165106458Y-76810072D01*
X165105768Y-76816633D01*
X165105768Y-76816635D01*
X165097531Y-76895009D01*
X165086496Y-77000000D01*
X161446589Y-77000000D01*
X161519424Y-76895009D01*
X161635025Y-76660593D01*
X161714707Y-76411665D01*
X161756721Y-76153693D01*
X161760142Y-75892345D01*
X161724896Y-75633362D01*
X161710473Y-75583877D01*
X161653068Y-75386932D01*
X161651757Y-75382433D01*
X161542332Y-75145072D01*
X161489663Y-75064739D01*
X161401590Y-74930404D01*
X161401586Y-74930399D01*
X161399024Y-74926491D01*
X161224982Y-74731494D01*
X161221389Y-74728506D01*
X161218022Y-74725254D01*
X161219600Y-74723620D01*
X161185218Y-74672320D01*
X161183851Y-74601337D01*
X161221077Y-74540882D01*
X161285078Y-74510151D01*
X161305408Y-74508500D01*
X179697141Y-74508500D01*
X179765262Y-74528502D01*
G37*
%TD.AperFunction*%
%TD*%
M02*
