M48
; DRILL file {KiCad (6.0.7)} date Sun Oct  9 22:01:29 2022
; FORMAT={-:-/ absolute / inch / decimal}
; #@! TF.CreationDate,2022-10-09T22:01:29-05:00
; #@! TF.GenerationSoftware,Kicad,Pcbnew,(6.0.7)
; #@! TF.FileFunction,Plated,1,2,PTH
FMAT,2
INCH
; #@! TA.AperFunction,Plated,PTH,ViaDrill
T1C0.0157
; #@! TA.AperFunction,Plated,PTH,ComponentDrill
T2C0.0394
%
G90
G05
T1
X6.437Y-3.3465
X6.437Y-3.5433
X6.4567Y-3.189
X6.5354Y-3.0315
X6.6142Y-3.4252
X6.6142Y-3.4646
X6.6535Y-3.3858
X6.6929Y-3.1102
X6.7717Y-3.1102
X6.8504Y-3.0315
X6.9188Y-3.3108
X6.9685Y-3.0512
X7.0472Y-3.2283
T2
X6.5291Y-3.7008
X6.5291Y-3.8008
X6.6291Y-3.7008
X6.6291Y-3.8008
X6.7291Y-3.7008
X6.7291Y-3.8008
X6.8291Y-3.7008
X6.8291Y-3.8008
X6.9291Y-3.7008
X6.9291Y-3.8008
X7.0472Y-3.5039
T0
M30
