%TF.GenerationSoftware,KiCad,Pcbnew,(6.0.7)*%
%TF.CreationDate,2022-10-09T22:01:22-05:00*%
%TF.ProjectId,TCA9534,54434139-3533-4342-9e6b-696361645f70,1.0*%
%TF.SameCoordinates,Original*%
%TF.FileFunction,Soldermask,Top*%
%TF.FilePolarity,Negative*%
%FSLAX46Y46*%
G04 Gerber Fmt 4.6, Leading zero omitted, Abs format (unit mm)*
G04 Created by KiCad (PCBNEW (6.0.7)) date 2022-10-09 22:01:22*
%MOMM*%
%LPD*%
G01*
G04 APERTURE LIST*
G04 Aperture macros list*
%AMRoundRect*
0 Rectangle with rounded corners*
0 $1 Rounding radius*
0 $2 $3 $4 $5 $6 $7 $8 $9 X,Y pos of 4 corners*
0 Add a 4 corners polygon primitive as box body*
4,1,4,$2,$3,$4,$5,$6,$7,$8,$9,$2,$3,0*
0 Add four circle primitives for the rounded corners*
1,1,$1+$1,$2,$3*
1,1,$1+$1,$4,$5*
1,1,$1+$1,$6,$7*
1,1,$1+$1,$8,$9*
0 Add four rect primitives between the rounded corners*
20,1,$1+$1,$2,$3,$4,$5,0*
20,1,$1+$1,$4,$5,$6,$7,0*
20,1,$1+$1,$6,$7,$8,$9,0*
20,1,$1+$1,$8,$9,$2,$3,0*%
G04 Aperture macros list end*
%ADD10R,1.700000X1.700000*%
%ADD11RoundRect,0.150000X0.150000X0.625000X-0.150000X0.625000X-0.150000X-0.625000X0.150000X-0.625000X0*%
%ADD12RoundRect,0.250000X0.350000X0.650000X-0.350000X0.650000X-0.350000X-0.650000X0.350000X-0.650000X0*%
%ADD13R,1.000000X1.500000*%
%ADD14RoundRect,0.250000X0.350000X0.450000X-0.350000X0.450000X-0.350000X-0.450000X0.350000X-0.450000X0*%
%ADD15C,2.500000*%
%ADD16R,1.879600X0.558800*%
%ADD17O,1.700000X1.700000*%
G04 APERTURE END LIST*
D10*
%TO.C,J4*%
X179000000Y-89000000D03*
%TD*%
D11*
%TO.C,J2*%
X176000000Y-79000000D03*
X175000000Y-79000000D03*
X174000000Y-79000000D03*
X173000000Y-79000000D03*
D12*
X171700000Y-75125000D03*
X177300000Y-75125000D03*
%TD*%
D13*
%TO.C,JP1*%
X159700000Y-82000000D03*
X161000000Y-82000000D03*
X162300000Y-82000000D03*
%TD*%
D11*
%TO.C,J1*%
X168000000Y-79000000D03*
X167000000Y-79000000D03*
X166000000Y-79000000D03*
X165000000Y-79000000D03*
D12*
X163700000Y-75125000D03*
X169300000Y-75125000D03*
%TD*%
D14*
%TO.C,R3*%
X181000000Y-86000000D03*
X179000000Y-86000000D03*
%TD*%
D15*
%TO.C,H2*%
X181000000Y-76000000D03*
%TD*%
D14*
%TO.C,R1*%
X181000000Y-84000000D03*
X179000000Y-84000000D03*
%TD*%
%TO.C,R2*%
X181000000Y-82000000D03*
X179000000Y-82000000D03*
%TD*%
D15*
%TO.C,H3*%
X181000000Y-97000000D03*
%TD*%
D16*
%TO.C,U1*%
X166262900Y-81555000D03*
X166262900Y-82825000D03*
X166262900Y-84095000D03*
X166262900Y-85365000D03*
X166262900Y-86635000D03*
X166262900Y-87905000D03*
X166262900Y-89175000D03*
X166262900Y-90445000D03*
X175737100Y-90445000D03*
X175737100Y-89175000D03*
X175737100Y-87905000D03*
X175737100Y-86635000D03*
X175737100Y-85365000D03*
X175737100Y-84095000D03*
X175737100Y-82825000D03*
X175737100Y-81555000D03*
%TD*%
D13*
%TO.C,JP3*%
X159700000Y-90000000D03*
X161000000Y-90000000D03*
X162300000Y-90000000D03*
%TD*%
%TO.C,JP2*%
X159700000Y-86000000D03*
X161000000Y-86000000D03*
X162300000Y-86000000D03*
%TD*%
D15*
%TO.C,H1*%
X160000000Y-76000000D03*
%TD*%
D10*
%TO.C,J3*%
X176000000Y-94000000D03*
D17*
X176000000Y-96540000D03*
X173460000Y-94000000D03*
X173460000Y-96540000D03*
X170920000Y-94000000D03*
X170920000Y-96540000D03*
X168380000Y-94000000D03*
X168380000Y-96540000D03*
X165840000Y-94000000D03*
X165840000Y-96540000D03*
%TD*%
D15*
%TO.C,H4*%
X160000000Y-97000000D03*
%TD*%
M02*
