%TF.GenerationSoftware,KiCad,Pcbnew,(6.0.7)*%
%TF.CreationDate,2022-09-27T22:03:24-05:00*%
%TF.ProjectId,TCA9534,54434139-3533-4342-9e6b-696361645f70,1.0*%
%TF.SameCoordinates,Original*%
%TF.FileFunction,Copper,L1,Top*%
%TF.FilePolarity,Positive*%
%FSLAX46Y46*%
G04 Gerber Fmt 4.6, Leading zero omitted, Abs format (unit mm)*
G04 Created by KiCad (PCBNEW (6.0.7)) date 2022-09-27 22:03:24*
%MOMM*%
%LPD*%
G01*
G04 APERTURE LIST*
G04 Aperture macros list*
%AMRoundRect*
0 Rectangle with rounded corners*
0 $1 Rounding radius*
0 $2 $3 $4 $5 $6 $7 $8 $9 X,Y pos of 4 corners*
0 Add a 4 corners polygon primitive as box body*
4,1,4,$2,$3,$4,$5,$6,$7,$8,$9,$2,$3,0*
0 Add four circle primitives for the rounded corners*
1,1,$1+$1,$2,$3*
1,1,$1+$1,$4,$5*
1,1,$1+$1,$6,$7*
1,1,$1+$1,$8,$9*
0 Add four rect primitives between the rounded corners*
20,1,$1+$1,$2,$3,$4,$5,0*
20,1,$1+$1,$4,$5,$6,$7,0*
20,1,$1+$1,$6,$7,$8,$9,0*
20,1,$1+$1,$8,$9,$2,$3,0*%
G04 Aperture macros list end*
%TA.AperFunction,SMDPad,CuDef*%
%ADD10R,1.879600X0.558800*%
%TD*%
%TA.AperFunction,SMDPad,CuDef*%
%ADD11RoundRect,0.250000X0.350000X0.450000X-0.350000X0.450000X-0.350000X-0.450000X0.350000X-0.450000X0*%
%TD*%
%TA.AperFunction,SMDPad,CuDef*%
%ADD12R,1.000000X1.500000*%
%TD*%
%TA.AperFunction,ComponentPad*%
%ADD13R,1.700000X1.700000*%
%TD*%
%TA.AperFunction,ComponentPad*%
%ADD14O,1.700000X1.700000*%
%TD*%
%TA.AperFunction,SMDPad,CuDef*%
%ADD15RoundRect,0.150000X0.150000X0.625000X-0.150000X0.625000X-0.150000X-0.625000X0.150000X-0.625000X0*%
%TD*%
%TA.AperFunction,SMDPad,CuDef*%
%ADD16RoundRect,0.250000X0.350000X0.650000X-0.350000X0.650000X-0.350000X-0.650000X0.350000X-0.650000X0*%
%TD*%
%TA.AperFunction,ViaPad*%
%ADD17C,0.800000*%
%TD*%
%TA.AperFunction,Conductor*%
%ADD18C,0.250000*%
%TD*%
G04 APERTURE END LIST*
D10*
%TO.P,U1,1,A0*%
%TO.N,/A0*%
X166262900Y-81555000D03*
%TO.P,U1,2,A1*%
%TO.N,/A1*%
X166262900Y-82825000D03*
%TO.P,U1,3,A2*%
%TO.N,/A2*%
X166262900Y-84095000D03*
%TO.P,U1,4,P0*%
%TO.N,/P0*%
X166262900Y-85365000D03*
%TO.P,U1,5,P1*%
%TO.N,/P1*%
X166262900Y-86635000D03*
%TO.P,U1,6,P2*%
%TO.N,/P2*%
X166262900Y-87905000D03*
%TO.P,U1,7,P3*%
%TO.N,/P3*%
X166262900Y-89175000D03*
%TO.P,U1,8,GND*%
%TO.N,GND*%
X166262900Y-90445000D03*
%TO.P,U1,9,P4*%
%TO.N,/P4*%
X175737100Y-90445000D03*
%TO.P,U1,10,P5*%
%TO.N,/P5*%
X175737100Y-89175000D03*
%TO.P,U1,11,P6*%
%TO.N,/P6*%
X175737100Y-87905000D03*
%TO.P,U1,12,P7*%
%TO.N,/P7*%
X175737100Y-86635000D03*
%TO.P,U1,13,\u002AINT*%
%TO.N,/INT*%
X175737100Y-85365000D03*
%TO.P,U1,14,SCL*%
%TO.N,/SCL*%
X175737100Y-84095000D03*
%TO.P,U1,15,SDA*%
%TO.N,/SDA*%
X175737100Y-82825000D03*
%TO.P,U1,16,VCC*%
%TO.N,+3.3V*%
X175737100Y-81555000D03*
%TD*%
D11*
%TO.P,R3,1*%
%TO.N,+3.3V*%
X181000000Y-86000000D03*
%TO.P,R3,2*%
%TO.N,/INT*%
X179000000Y-86000000D03*
%TD*%
%TO.P,R1,1*%
%TO.N,+3.3V*%
X181000000Y-84000000D03*
%TO.P,R1,2*%
%TO.N,/SCL*%
X179000000Y-84000000D03*
%TD*%
%TO.P,R2,1*%
%TO.N,+3.3V*%
X181000000Y-82000000D03*
%TO.P,R2,2*%
%TO.N,/SDA*%
X179000000Y-82000000D03*
%TD*%
D12*
%TO.P,JP3,1,A*%
%TO.N,+3.3V*%
X159700000Y-90000000D03*
%TO.P,JP3,2,C*%
%TO.N,/A2*%
X161000000Y-90000000D03*
%TO.P,JP3,3,B*%
%TO.N,GND*%
X162300000Y-90000000D03*
%TD*%
%TO.P,JP2,1,A*%
%TO.N,+3.3V*%
X159700000Y-86000000D03*
%TO.P,JP2,2,C*%
%TO.N,/A1*%
X161000000Y-86000000D03*
%TO.P,JP2,3,B*%
%TO.N,GND*%
X162300000Y-86000000D03*
%TD*%
%TO.P,JP1,3,B*%
%TO.N,GND*%
X162300000Y-82000000D03*
%TO.P,JP1,2,C*%
%TO.N,/A0*%
X161000000Y-82000000D03*
%TO.P,JP1,1,A*%
%TO.N,+3.3V*%
X159700000Y-82000000D03*
%TD*%
D13*
%TO.P,J3,1,Pin_1*%
%TO.N,/P0*%
X176000000Y-94000000D03*
D14*
%TO.P,J3,2,Pin_2*%
%TO.N,/P4*%
X176000000Y-96540000D03*
%TO.P,J3,3,Pin_3*%
%TO.N,/P1*%
X173460000Y-94000000D03*
%TO.P,J3,4,Pin_4*%
%TO.N,/P5*%
X173460000Y-96540000D03*
%TO.P,J3,5,Pin_5*%
%TO.N,/P2*%
X170920000Y-94000000D03*
%TO.P,J3,6,Pin_6*%
%TO.N,/P6*%
X170920000Y-96540000D03*
%TO.P,J3,7,Pin_7*%
%TO.N,/P3*%
X168380000Y-94000000D03*
%TO.P,J3,8,Pin_8*%
%TO.N,/P7*%
X168380000Y-96540000D03*
%TO.P,J3,9,Pin_9*%
%TO.N,+3.3V*%
X165840000Y-94000000D03*
%TO.P,J3,10,Pin_10*%
%TO.N,GND*%
X165840000Y-96540000D03*
%TD*%
D15*
%TO.P,J2,1,Pin_1*%
%TO.N,GND*%
X176000000Y-79000000D03*
%TO.P,J2,2,Pin_2*%
%TO.N,+3.3V*%
X175000000Y-79000000D03*
%TO.P,J2,3,Pin_3*%
%TO.N,/SDA*%
X174000000Y-79000000D03*
%TO.P,J2,4,Pin_4*%
%TO.N,/SCL*%
X173000000Y-79000000D03*
D16*
%TO.P,J2,MP*%
%TO.N,N/C*%
X171700000Y-75125000D03*
X177300000Y-75125000D03*
%TD*%
D15*
%TO.P,J1,1,Pin_1*%
%TO.N,GND*%
X168000000Y-79000000D03*
%TO.P,J1,2,Pin_2*%
%TO.N,+3.3V*%
X167000000Y-79000000D03*
%TO.P,J1,3,Pin_3*%
%TO.N,/SDA*%
X166000000Y-79000000D03*
%TO.P,J1,4,Pin_4*%
%TO.N,/SCL*%
X165000000Y-79000000D03*
D16*
%TO.P,J1,MP*%
%TO.N,N/C*%
X163700000Y-75125000D03*
X169300000Y-75125000D03*
%TD*%
D17*
%TO.N,GND*%
X177000000Y-77500000D03*
X163500000Y-85000000D03*
X163500000Y-90000000D03*
X164000000Y-81000000D03*
X170000000Y-79000000D03*
%TO.N,/P0*%
X169000000Y-86000000D03*
%TO.N,/P1*%
X168000000Y-87000000D03*
%TO.N,/P2*%
X168000000Y-88000000D03*
%TO.N,/SCL*%
X166000000Y-77000000D03*
X172000000Y-79000000D03*
X175737100Y-84095000D03*
%TO.N,/SDA*%
X179000000Y-82000000D03*
X174000000Y-77000000D03*
%TD*%
D18*
%TO.N,/A0*%
X164025000Y-83075000D02*
X165545000Y-81555000D01*
X165545000Y-81555000D02*
X166262900Y-81555000D01*
X161075000Y-83075000D02*
X164025000Y-83075000D01*
X161000000Y-83000000D02*
X161075000Y-83075000D01*
X161000000Y-82000000D02*
X161000000Y-83000000D01*
%TO.N,+3.3V*%
X174555000Y-81555000D02*
X175737100Y-81555000D01*
X173100000Y-80100000D02*
X174555000Y-81555000D01*
X167653249Y-80100000D02*
X173100000Y-80100000D01*
X167000000Y-79446751D02*
X167653249Y-80100000D01*
X159700000Y-81000000D02*
X159700000Y-82000000D01*
X160600000Y-80100000D02*
X159700000Y-81000000D01*
X166346751Y-80100000D02*
X160600000Y-80100000D01*
X167000000Y-79446751D02*
X166346751Y-80100000D01*
%TO.N,/P0*%
X168365000Y-85365000D02*
X166262900Y-85365000D01*
X169000000Y-86000000D02*
X168365000Y-85365000D01*
%TO.N,/P1*%
X167635000Y-86635000D02*
X168000000Y-87000000D01*
X166262900Y-86635000D02*
X167635000Y-86635000D01*
%TO.N,/P2*%
X168000000Y-88000000D02*
X166357900Y-88000000D01*
X166357900Y-88000000D02*
X166262900Y-87905000D01*
%TO.N,/P3*%
X166923300Y-89175000D02*
X166262900Y-89175000D01*
X168380000Y-90631700D02*
X166923300Y-89175000D01*
X168380000Y-94000000D02*
X168380000Y-90631700D01*
%TO.N,/P7*%
X175137900Y-86635000D02*
X175737100Y-86635000D01*
X174000000Y-87772900D02*
X175137900Y-86635000D01*
X174000000Y-88000000D02*
X174000000Y-87772900D01*
X169654278Y-92345722D02*
X174000000Y-88000000D01*
X169654278Y-95265722D02*
X169654278Y-92345722D01*
X168380000Y-96540000D02*
X169654278Y-95265722D01*
%TO.N,/P6*%
X172194278Y-90805722D02*
X175095000Y-87905000D01*
X170920000Y-96540000D02*
X172194278Y-95265722D01*
X172194278Y-95265722D02*
X172194278Y-90805722D01*
X175095000Y-87905000D02*
X175737100Y-87905000D01*
%TO.N,/P5*%
X178000000Y-91000000D02*
X176175000Y-89175000D01*
X176486701Y-97715000D02*
X178000000Y-96201701D01*
X174635000Y-97715000D02*
X176486701Y-97715000D01*
X173460000Y-96540000D02*
X174635000Y-97715000D01*
X178000000Y-96201701D02*
X178000000Y-91000000D01*
X176175000Y-89175000D02*
X175737100Y-89175000D01*
%TO.N,/P4*%
X174825000Y-95365000D02*
X176000000Y-96540000D01*
X174825000Y-91357100D02*
X174825000Y-95365000D01*
X175737100Y-90445000D02*
X174825000Y-91357100D01*
%TO.N,+3.3V*%
X162700000Y-94000000D02*
X165840000Y-94000000D01*
X159700000Y-91000000D02*
X162700000Y-94000000D01*
X159700000Y-90000000D02*
X159700000Y-91000000D01*
%TO.N,/A2*%
X165602500Y-84095000D02*
X166262900Y-84095000D01*
X164000000Y-85697500D02*
X165602500Y-84095000D01*
X164000000Y-86200000D02*
X164000000Y-85697500D01*
X161000000Y-89200000D02*
X164000000Y-86200000D01*
X161000000Y-90000000D02*
X161000000Y-89200000D01*
%TO.N,/A1*%
X165602500Y-82825000D02*
X166262900Y-82825000D01*
X162000000Y-84000000D02*
X164427500Y-84000000D01*
X164427500Y-84000000D02*
X165602500Y-82825000D01*
X161000000Y-85000000D02*
X162000000Y-84000000D01*
X161000000Y-86000000D02*
X161000000Y-85000000D01*
%TO.N,+3.3V*%
X159700000Y-86000000D02*
X159700000Y-90000000D01*
X159700000Y-82000000D02*
X159700000Y-86000000D01*
%TO.N,/SCL*%
X165000000Y-78000000D02*
X166000000Y-77000000D01*
X165000000Y-79000000D02*
X165000000Y-78000000D01*
%TO.N,/SDA*%
X167553249Y-77000000D02*
X174000000Y-77000000D01*
X166000000Y-78553249D02*
X167553249Y-77000000D01*
X166000000Y-79000000D02*
X166000000Y-78553249D01*
%TO.N,/SCL*%
X173000000Y-79000000D02*
X172000000Y-79000000D01*
%TO.N,/SDA*%
X174000000Y-79000000D02*
X174000000Y-77000000D01*
%TO.N,+3.3V*%
X179975000Y-80975000D02*
X181000000Y-82000000D01*
X176317100Y-80975000D02*
X179975000Y-80975000D01*
X175737100Y-81555000D02*
X176317100Y-80975000D01*
X175000000Y-80817900D02*
X175737100Y-81555000D01*
X175000000Y-79000000D02*
X175000000Y-80817900D01*
X167000000Y-79000000D02*
X167000000Y-79446751D01*
X181000000Y-84000000D02*
X181000000Y-82000000D01*
X181000000Y-86000000D02*
X181000000Y-84000000D01*
%TO.N,/SDA*%
X178175000Y-82825000D02*
X175737100Y-82825000D01*
X179000000Y-82000000D02*
X178175000Y-82825000D01*
%TO.N,/INT*%
X178365000Y-85365000D02*
X175737100Y-85365000D01*
X179000000Y-86000000D02*
X178365000Y-85365000D01*
%TO.N,/SCL*%
X178905000Y-84095000D02*
X175737100Y-84095000D01*
X179000000Y-84000000D02*
X178905000Y-84095000D01*
%TD*%
%TA.AperFunction,Conductor*%
%TO.N,GND*%
G36*
X176133621Y-74528502D02*
G01*
X176180114Y-74582158D01*
X176191500Y-74634500D01*
X176191500Y-75825400D01*
X176191837Y-75828646D01*
X176191837Y-75828650D01*
X176200208Y-75909322D01*
X176202474Y-75931166D01*
X176258450Y-76098946D01*
X176351522Y-76249348D01*
X176476697Y-76374305D01*
X176482927Y-76378145D01*
X176482928Y-76378146D01*
X176620090Y-76462694D01*
X176627262Y-76467115D01*
X176700540Y-76491420D01*
X176788611Y-76520632D01*
X176788613Y-76520632D01*
X176795139Y-76522797D01*
X176801975Y-76523497D01*
X176801978Y-76523498D01*
X176845031Y-76527909D01*
X176899600Y-76533500D01*
X177700400Y-76533500D01*
X177703646Y-76533163D01*
X177703650Y-76533163D01*
X177799308Y-76523238D01*
X177799312Y-76523237D01*
X177806166Y-76522526D01*
X177812702Y-76520345D01*
X177812704Y-76520345D01*
X177963824Y-76469927D01*
X177973946Y-76466550D01*
X178124348Y-76373478D01*
X178249305Y-76248303D01*
X178253146Y-76242072D01*
X178338275Y-76103968D01*
X178338276Y-76103966D01*
X178342115Y-76097738D01*
X178397797Y-75929861D01*
X178399902Y-75909322D01*
X178406358Y-75846307D01*
X178408500Y-75825400D01*
X178408500Y-74634500D01*
X178428502Y-74566379D01*
X178482158Y-74519886D01*
X178534500Y-74508500D01*
X179697141Y-74508500D01*
X179765262Y-74528502D01*
X179811755Y-74582158D01*
X179821859Y-74652432D01*
X179788916Y-74720832D01*
X179629557Y-74890237D01*
X179480576Y-75104991D01*
X179364975Y-75339407D01*
X179285293Y-75588335D01*
X179243279Y-75846307D01*
X179243218Y-75850980D01*
X179240052Y-76092872D01*
X179239858Y-76107655D01*
X179275104Y-76366638D01*
X179276412Y-76371124D01*
X179276412Y-76371126D01*
X179290080Y-76418019D01*
X179348243Y-76617567D01*
X179457668Y-76854928D01*
X179460231Y-76858837D01*
X179598410Y-77069596D01*
X179598414Y-77069601D01*
X179600976Y-77073509D01*
X179775018Y-77268506D01*
X179975970Y-77435637D01*
X179979973Y-77438066D01*
X180195422Y-77568804D01*
X180195426Y-77568806D01*
X180199419Y-77571229D01*
X180440455Y-77672303D01*
X180693783Y-77736641D01*
X180698434Y-77737109D01*
X180698438Y-77737110D01*
X180891308Y-77756531D01*
X180910867Y-77758500D01*
X181066354Y-77758500D01*
X181068679Y-77758327D01*
X181068685Y-77758327D01*
X181256000Y-77744407D01*
X181256004Y-77744406D01*
X181260652Y-77744061D01*
X181265200Y-77743032D01*
X181265206Y-77743031D01*
X181470849Y-77696498D01*
X181515577Y-77686377D01*
X181551769Y-77672303D01*
X181754824Y-77593340D01*
X181754827Y-77593339D01*
X181759177Y-77591647D01*
X181773684Y-77583356D01*
X181925907Y-77496353D01*
X181986098Y-77461951D01*
X182191357Y-77300138D01*
X182273725Y-77212578D01*
X182334969Y-77176666D01*
X182405907Y-77179566D01*
X182464015Y-77220357D01*
X182490846Y-77286088D01*
X182491500Y-77298911D01*
X182491500Y-95699708D01*
X182471498Y-95767829D01*
X182417842Y-95814322D01*
X182347568Y-95824426D01*
X182282988Y-95794932D01*
X182271497Y-95783610D01*
X182224982Y-95731494D01*
X182024030Y-95564363D01*
X181976844Y-95535730D01*
X181804578Y-95431196D01*
X181804574Y-95431194D01*
X181800581Y-95428771D01*
X181559545Y-95327697D01*
X181306217Y-95263359D01*
X181301566Y-95262891D01*
X181301562Y-95262890D01*
X181092271Y-95241816D01*
X181089133Y-95241500D01*
X180933646Y-95241500D01*
X180931321Y-95241673D01*
X180931315Y-95241673D01*
X180744000Y-95255593D01*
X180743996Y-95255594D01*
X180739348Y-95255939D01*
X180734800Y-95256968D01*
X180734794Y-95256969D01*
X180566468Y-95295058D01*
X180484423Y-95313623D01*
X180480071Y-95315315D01*
X180480069Y-95315316D01*
X180245176Y-95406660D01*
X180245173Y-95406661D01*
X180240823Y-95408353D01*
X180013902Y-95538049D01*
X179808643Y-95699862D01*
X179629557Y-95890237D01*
X179480576Y-96104991D01*
X179478510Y-96109181D01*
X179478508Y-96109184D01*
X179389630Y-96289412D01*
X179364975Y-96339407D01*
X179285293Y-96588335D01*
X179243279Y-96846307D01*
X179239858Y-97107655D01*
X179275104Y-97366638D01*
X179276412Y-97371124D01*
X179276412Y-97371126D01*
X179292738Y-97427137D01*
X179348243Y-97617567D01*
X179457668Y-97854928D01*
X179460231Y-97858837D01*
X179598410Y-98069596D01*
X179598414Y-98069601D01*
X179600976Y-98073509D01*
X179775018Y-98268506D01*
X179778611Y-98271494D01*
X179781978Y-98274746D01*
X179780400Y-98276380D01*
X179814782Y-98327680D01*
X179816149Y-98398663D01*
X179778923Y-98459118D01*
X179714922Y-98489849D01*
X179694592Y-98491500D01*
X176883503Y-98491500D01*
X176815382Y-98471498D01*
X176768889Y-98417842D01*
X176758785Y-98347568D01*
X176788279Y-98282988D01*
X176809444Y-98263563D01*
X176830089Y-98248564D01*
X176840008Y-98242048D01*
X176871236Y-98223580D01*
X176871239Y-98223578D01*
X176878063Y-98219542D01*
X176892384Y-98205221D01*
X176907418Y-98192380D01*
X176917395Y-98185131D01*
X176923808Y-98180472D01*
X176951999Y-98146395D01*
X176959989Y-98137616D01*
X178392253Y-96705353D01*
X178400539Y-96697813D01*
X178407018Y-96693701D01*
X178453644Y-96644049D01*
X178456398Y-96641208D01*
X178476135Y-96621471D01*
X178478615Y-96618274D01*
X178486320Y-96609252D01*
X178511159Y-96582801D01*
X178516586Y-96577022D01*
X178520405Y-96570076D01*
X178520407Y-96570073D01*
X178526348Y-96559267D01*
X178537199Y-96542748D01*
X178544758Y-96533002D01*
X178549614Y-96526742D01*
X178552759Y-96519473D01*
X178552762Y-96519469D01*
X178567174Y-96486164D01*
X178572391Y-96475514D01*
X178593695Y-96436761D01*
X178598733Y-96417138D01*
X178605137Y-96398435D01*
X178610033Y-96387121D01*
X178610033Y-96387120D01*
X178613181Y-96379846D01*
X178614420Y-96372023D01*
X178614423Y-96372013D01*
X178620099Y-96336177D01*
X178622505Y-96324557D01*
X178631528Y-96289412D01*
X178631528Y-96289411D01*
X178633500Y-96281731D01*
X178633500Y-96261477D01*
X178635051Y-96241766D01*
X178636980Y-96229587D01*
X178638220Y-96221758D01*
X178634059Y-96177739D01*
X178633500Y-96165882D01*
X178633500Y-91078768D01*
X178634027Y-91067585D01*
X178635702Y-91060092D01*
X178633562Y-90992001D01*
X178633500Y-90988044D01*
X178633500Y-90960144D01*
X178632996Y-90956153D01*
X178632063Y-90944311D01*
X178631676Y-90931978D01*
X178630674Y-90900111D01*
X178628462Y-90892497D01*
X178628461Y-90892492D01*
X178625023Y-90880659D01*
X178621012Y-90861295D01*
X178619467Y-90849064D01*
X178618474Y-90841203D01*
X178615557Y-90833836D01*
X178615556Y-90833831D01*
X178602198Y-90800092D01*
X178598354Y-90788865D01*
X178588230Y-90754022D01*
X178586018Y-90746407D01*
X178575707Y-90728972D01*
X178567012Y-90711224D01*
X178559552Y-90692383D01*
X178533564Y-90656613D01*
X178527048Y-90646693D01*
X178508580Y-90615465D01*
X178508578Y-90615462D01*
X178504542Y-90608638D01*
X178490221Y-90594317D01*
X178477380Y-90579283D01*
X178470131Y-90569306D01*
X178465472Y-90562893D01*
X178431395Y-90534702D01*
X178422616Y-90526712D01*
X177222305Y-89326400D01*
X177188279Y-89264088D01*
X177185400Y-89237305D01*
X177185400Y-88847466D01*
X177178645Y-88785284D01*
X177127515Y-88648895D01*
X177102535Y-88615564D01*
X177077688Y-88549058D01*
X177092741Y-88479675D01*
X177102535Y-88464436D01*
X177122129Y-88438291D01*
X177127515Y-88431105D01*
X177178645Y-88294716D01*
X177185400Y-88232534D01*
X177185400Y-87577466D01*
X177178645Y-87515284D01*
X177127515Y-87378895D01*
X177102535Y-87345564D01*
X177077688Y-87279058D01*
X177092741Y-87209675D01*
X177102535Y-87194436D01*
X177110832Y-87183365D01*
X177127515Y-87161105D01*
X177178645Y-87024716D01*
X177185400Y-86962534D01*
X177185400Y-86307466D01*
X177178645Y-86245284D01*
X177149946Y-86168729D01*
X177144763Y-86097923D01*
X177178684Y-86035554D01*
X177240939Y-86001424D01*
X177267928Y-85998500D01*
X177765500Y-85998500D01*
X177833621Y-86018502D01*
X177880114Y-86072158D01*
X177891500Y-86124500D01*
X177891500Y-86500400D01*
X177891837Y-86503646D01*
X177891837Y-86503650D01*
X177899274Y-86575321D01*
X177902474Y-86606166D01*
X177904655Y-86612702D01*
X177904655Y-86612704D01*
X177932334Y-86695668D01*
X177958450Y-86773946D01*
X178051522Y-86924348D01*
X178176697Y-87049305D01*
X178182927Y-87053145D01*
X178182928Y-87053146D01*
X178320090Y-87137694D01*
X178327262Y-87142115D01*
X178406181Y-87168291D01*
X178488611Y-87195632D01*
X178488613Y-87195632D01*
X178495139Y-87197797D01*
X178501975Y-87198497D01*
X178501978Y-87198498D01*
X178545031Y-87202909D01*
X178599600Y-87208500D01*
X179400400Y-87208500D01*
X179403646Y-87208163D01*
X179403650Y-87208163D01*
X179499308Y-87198238D01*
X179499312Y-87198237D01*
X179506166Y-87197526D01*
X179512702Y-87195345D01*
X179512704Y-87195345D01*
X179644806Y-87151272D01*
X179673946Y-87141550D01*
X179824348Y-87048478D01*
X179910784Y-86961891D01*
X179973066Y-86927812D01*
X180043886Y-86932815D01*
X180088975Y-86961736D01*
X180144195Y-87016860D01*
X180176697Y-87049305D01*
X180182927Y-87053145D01*
X180182928Y-87053146D01*
X180320090Y-87137694D01*
X180327262Y-87142115D01*
X180406181Y-87168291D01*
X180488611Y-87195632D01*
X180488613Y-87195632D01*
X180495139Y-87197797D01*
X180501975Y-87198497D01*
X180501978Y-87198498D01*
X180545031Y-87202909D01*
X180599600Y-87208500D01*
X181400400Y-87208500D01*
X181403646Y-87208163D01*
X181403650Y-87208163D01*
X181499308Y-87198238D01*
X181499312Y-87198237D01*
X181506166Y-87197526D01*
X181512702Y-87195345D01*
X181512704Y-87195345D01*
X181644806Y-87151272D01*
X181673946Y-87141550D01*
X181824348Y-87048478D01*
X181949305Y-86923303D01*
X181958514Y-86908364D01*
X182038275Y-86778968D01*
X182038276Y-86778966D01*
X182042115Y-86772738D01*
X182092852Y-86619769D01*
X182095632Y-86611389D01*
X182095632Y-86611387D01*
X182097797Y-86604861D01*
X182099505Y-86588196D01*
X182104852Y-86536005D01*
X182108500Y-86500400D01*
X182108500Y-85499600D01*
X182107677Y-85491666D01*
X182098238Y-85400692D01*
X182098237Y-85400688D01*
X182097526Y-85393834D01*
X182082441Y-85348617D01*
X182043868Y-85233002D01*
X182041550Y-85226054D01*
X181948478Y-85075652D01*
X181948362Y-85075536D01*
X181922827Y-85012457D01*
X181935996Y-84942692D01*
X181946864Y-84925749D01*
X181949305Y-84923303D01*
X182021881Y-84805564D01*
X182038275Y-84778968D01*
X182038276Y-84778966D01*
X182042115Y-84772738D01*
X182097797Y-84604861D01*
X182108500Y-84500400D01*
X182108500Y-83499600D01*
X182104547Y-83461500D01*
X182098238Y-83400692D01*
X182098237Y-83400688D01*
X182097526Y-83393834D01*
X182083271Y-83351105D01*
X182043868Y-83233002D01*
X182041550Y-83226054D01*
X181948478Y-83075652D01*
X181948362Y-83075536D01*
X181922827Y-83012457D01*
X181935996Y-82942692D01*
X181946864Y-82925749D01*
X181949305Y-82923303D01*
X182042115Y-82772738D01*
X182097797Y-82604861D01*
X182108500Y-82500400D01*
X182108500Y-81499600D01*
X182097526Y-81393834D01*
X182041550Y-81226054D01*
X181948478Y-81075652D01*
X181823303Y-80950695D01*
X181797947Y-80935065D01*
X181678968Y-80861725D01*
X181678966Y-80861724D01*
X181672738Y-80857885D01*
X181573547Y-80824985D01*
X181511389Y-80804368D01*
X181511387Y-80804368D01*
X181504861Y-80802203D01*
X181498025Y-80801503D01*
X181498022Y-80801502D01*
X181454969Y-80797091D01*
X181400400Y-80791500D01*
X180739595Y-80791500D01*
X180671474Y-80771498D01*
X180650500Y-80754595D01*
X180478652Y-80582747D01*
X180471112Y-80574461D01*
X180467000Y-80567982D01*
X180417348Y-80521356D01*
X180414507Y-80518602D01*
X180394770Y-80498865D01*
X180391573Y-80496385D01*
X180382551Y-80488680D01*
X180369122Y-80476069D01*
X180350321Y-80458414D01*
X180343375Y-80454595D01*
X180343372Y-80454593D01*
X180332566Y-80448652D01*
X180316047Y-80437801D01*
X180315583Y-80437441D01*
X180300041Y-80425386D01*
X180292772Y-80422241D01*
X180292768Y-80422238D01*
X180259463Y-80407826D01*
X180248813Y-80402609D01*
X180210060Y-80381305D01*
X180190437Y-80376267D01*
X180171734Y-80369863D01*
X180160420Y-80364967D01*
X180160419Y-80364967D01*
X180153145Y-80361819D01*
X180145322Y-80360580D01*
X180145312Y-80360577D01*
X180109476Y-80354901D01*
X180097856Y-80352495D01*
X180062711Y-80343472D01*
X180062710Y-80343472D01*
X180055030Y-80341500D01*
X180034776Y-80341500D01*
X180015065Y-80339949D01*
X180002886Y-80338020D01*
X179995057Y-80336780D01*
X179965786Y-80339547D01*
X179951039Y-80340941D01*
X179939181Y-80341500D01*
X176395867Y-80341500D01*
X176384684Y-80340973D01*
X176377191Y-80339298D01*
X176369265Y-80339547D01*
X176369264Y-80339547D01*
X176309101Y-80341438D01*
X176305143Y-80341500D01*
X176277244Y-80341500D01*
X176273254Y-80342004D01*
X176261420Y-80342936D01*
X176217211Y-80344326D01*
X176209597Y-80346538D01*
X176209592Y-80346539D01*
X176197759Y-80349977D01*
X176178396Y-80353988D01*
X176158303Y-80356526D01*
X176150936Y-80359443D01*
X176150931Y-80359444D01*
X176117192Y-80372802D01*
X176105965Y-80376646D01*
X176063507Y-80388982D01*
X176056681Y-80393019D01*
X176046072Y-80399293D01*
X176028324Y-80407988D01*
X176009483Y-80415448D01*
X176003067Y-80420110D01*
X176003066Y-80420110D01*
X175973713Y-80441436D01*
X175963793Y-80447952D01*
X175932565Y-80466420D01*
X175932562Y-80466422D01*
X175925738Y-80470458D01*
X175911417Y-80484779D01*
X175896384Y-80497619D01*
X175879993Y-80509528D01*
X175874940Y-80515636D01*
X175874938Y-80515638D01*
X175856584Y-80537824D01*
X175797750Y-80577562D01*
X175726772Y-80579183D01*
X175666185Y-80542174D01*
X175635225Y-80478283D01*
X175633500Y-80457508D01*
X175633500Y-80124950D01*
X175653502Y-80056829D01*
X175664059Y-80043729D01*
X175663989Y-80043675D01*
X175668845Y-80037415D01*
X175674453Y-80031807D01*
X175678489Y-80024983D01*
X175678491Y-80024980D01*
X175755108Y-79895427D01*
X175759145Y-79888601D01*
X175805562Y-79728831D01*
X175808500Y-79691502D01*
X175808500Y-78308498D01*
X175805562Y-78271169D01*
X175776528Y-78171231D01*
X175761357Y-78119012D01*
X175761356Y-78119010D01*
X175759145Y-78111399D01*
X175718835Y-78043239D01*
X175678491Y-77975020D01*
X175678489Y-77975017D01*
X175674453Y-77968193D01*
X175556807Y-77850547D01*
X175549983Y-77846511D01*
X175549980Y-77846509D01*
X175420427Y-77769892D01*
X175420428Y-77769892D01*
X175413601Y-77765855D01*
X175405990Y-77763644D01*
X175405988Y-77763643D01*
X175335039Y-77743031D01*
X175253831Y-77719438D01*
X175247426Y-77718934D01*
X175247421Y-77718933D01*
X175218958Y-77716693D01*
X175218950Y-77716693D01*
X175216502Y-77716500D01*
X174853612Y-77716500D01*
X174785491Y-77696498D01*
X174738998Y-77642842D01*
X174728894Y-77572568D01*
X174744493Y-77527500D01*
X174831223Y-77377279D01*
X174831224Y-77377278D01*
X174834527Y-77371556D01*
X174893542Y-77189928D01*
X174901610Y-77113171D01*
X174912814Y-77006565D01*
X174913504Y-77000000D01*
X174902469Y-76895009D01*
X174894232Y-76816635D01*
X174894232Y-76816633D01*
X174893542Y-76810072D01*
X174834527Y-76628444D01*
X174739040Y-76463056D01*
X174722882Y-76445110D01*
X174615675Y-76326045D01*
X174615674Y-76326044D01*
X174611253Y-76321134D01*
X174456752Y-76208882D01*
X174450724Y-76206198D01*
X174450722Y-76206197D01*
X174288319Y-76133891D01*
X174288318Y-76133891D01*
X174282288Y-76131206D01*
X174171490Y-76107655D01*
X174101944Y-76092872D01*
X174101939Y-76092872D01*
X174095487Y-76091500D01*
X173904513Y-76091500D01*
X173898061Y-76092872D01*
X173898056Y-76092872D01*
X173828510Y-76107655D01*
X173717712Y-76131206D01*
X173711682Y-76133891D01*
X173711681Y-76133891D01*
X173549278Y-76206197D01*
X173549276Y-76206198D01*
X173543248Y-76208882D01*
X173537907Y-76212762D01*
X173537906Y-76212763D01*
X173427687Y-76292842D01*
X173388747Y-76321134D01*
X173384332Y-76326037D01*
X173379420Y-76330460D01*
X173378295Y-76329211D01*
X173324986Y-76362051D01*
X173291800Y-76366500D01*
X172802130Y-76366500D01*
X172734009Y-76346498D01*
X172687516Y-76292842D01*
X172677412Y-76222568D01*
X172694870Y-76174384D01*
X172738275Y-76103968D01*
X172738276Y-76103966D01*
X172742115Y-76097738D01*
X172797797Y-75929861D01*
X172799902Y-75909322D01*
X172806358Y-75846307D01*
X172808500Y-75825400D01*
X172808500Y-74634500D01*
X172828502Y-74566379D01*
X172882158Y-74519886D01*
X172934500Y-74508500D01*
X176065500Y-74508500D01*
X176133621Y-74528502D01*
G37*
%TD.AperFunction*%
%TA.AperFunction,Conductor*%
G36*
X158717012Y-90951368D02*
G01*
X158745019Y-90986082D01*
X158746236Y-90988304D01*
X158749385Y-90996705D01*
X158836739Y-91113261D01*
X158953295Y-91200615D01*
X158961703Y-91203767D01*
X159072665Y-91245365D01*
X159129429Y-91288007D01*
X159137890Y-91301156D01*
X159140448Y-91307617D01*
X159145104Y-91314026D01*
X159145106Y-91314029D01*
X159166436Y-91343387D01*
X159172952Y-91353307D01*
X159195458Y-91391362D01*
X159209779Y-91405683D01*
X159222619Y-91420716D01*
X159234528Y-91437107D01*
X159240634Y-91442158D01*
X159268605Y-91465298D01*
X159277384Y-91473288D01*
X162196343Y-94392247D01*
X162203887Y-94400537D01*
X162208000Y-94407018D01*
X162213777Y-94412443D01*
X162257667Y-94453658D01*
X162260509Y-94456413D01*
X162280231Y-94476135D01*
X162283373Y-94478572D01*
X162283433Y-94478619D01*
X162292445Y-94486317D01*
X162308945Y-94501811D01*
X162324679Y-94516586D01*
X162331622Y-94520403D01*
X162342431Y-94526345D01*
X162358953Y-94537198D01*
X162374959Y-94549614D01*
X162382237Y-94552764D01*
X162382238Y-94552764D01*
X162415537Y-94567174D01*
X162426187Y-94572391D01*
X162464940Y-94593695D01*
X162472615Y-94595666D01*
X162472616Y-94595666D01*
X162484562Y-94598733D01*
X162503267Y-94605137D01*
X162521855Y-94613181D01*
X162529678Y-94614420D01*
X162529688Y-94614423D01*
X162565524Y-94620099D01*
X162577144Y-94622505D01*
X162612289Y-94631528D01*
X162619970Y-94633500D01*
X162640224Y-94633500D01*
X162659934Y-94635051D01*
X162679943Y-94638220D01*
X162687835Y-94637474D01*
X162723961Y-94634059D01*
X162735819Y-94633500D01*
X164564274Y-94633500D01*
X164632395Y-94653502D01*
X164671707Y-94693665D01*
X164739987Y-94805088D01*
X164886250Y-94973938D01*
X165058126Y-95116632D01*
X165251000Y-95229338D01*
X165255825Y-95231180D01*
X165255826Y-95231181D01*
X165303744Y-95249479D01*
X165459692Y-95309030D01*
X165464760Y-95310061D01*
X165464763Y-95310062D01*
X165560324Y-95329504D01*
X165678597Y-95353567D01*
X165683772Y-95353757D01*
X165683774Y-95353757D01*
X165896673Y-95361564D01*
X165896677Y-95361564D01*
X165901837Y-95361753D01*
X165906957Y-95361097D01*
X165906959Y-95361097D01*
X166118288Y-95334025D01*
X166118289Y-95334025D01*
X166123416Y-95333368D01*
X166128366Y-95331883D01*
X166332429Y-95270661D01*
X166332434Y-95270659D01*
X166337384Y-95269174D01*
X166537994Y-95170896D01*
X166719860Y-95041173D01*
X166878096Y-94883489D01*
X167008453Y-94702077D01*
X167009776Y-94703028D01*
X167056645Y-94659857D01*
X167126580Y-94647625D01*
X167192026Y-94675144D01*
X167219875Y-94706994D01*
X167279987Y-94805088D01*
X167426250Y-94973938D01*
X167598126Y-95116632D01*
X167650090Y-95146997D01*
X167671445Y-95159476D01*
X167720169Y-95211114D01*
X167733240Y-95280897D01*
X167706509Y-95346669D01*
X167666055Y-95380027D01*
X167653607Y-95386507D01*
X167649474Y-95389610D01*
X167649471Y-95389612D01*
X167525567Y-95482642D01*
X167474965Y-95520635D01*
X167320629Y-95682138D01*
X167317715Y-95686410D01*
X167317714Y-95686411D01*
X167248809Y-95787422D01*
X167194743Y-95866680D01*
X167100688Y-96069305D01*
X167040989Y-96284570D01*
X167017251Y-96506695D01*
X167017548Y-96511848D01*
X167017548Y-96511851D01*
X167023869Y-96621471D01*
X167030110Y-96729715D01*
X167031247Y-96734761D01*
X167031248Y-96734767D01*
X167055304Y-96841508D01*
X167079222Y-96947639D01*
X167163266Y-97154616D01*
X167214942Y-97238944D01*
X167277291Y-97340688D01*
X167279987Y-97345088D01*
X167426250Y-97513938D01*
X167598126Y-97656632D01*
X167791000Y-97769338D01*
X167999692Y-97849030D01*
X168004760Y-97850061D01*
X168004763Y-97850062D01*
X168112003Y-97871880D01*
X168218597Y-97893567D01*
X168223772Y-97893757D01*
X168223774Y-97893757D01*
X168436673Y-97901564D01*
X168436677Y-97901564D01*
X168441837Y-97901753D01*
X168446957Y-97901097D01*
X168446959Y-97901097D01*
X168658288Y-97874025D01*
X168658289Y-97874025D01*
X168663416Y-97873368D01*
X168711850Y-97858837D01*
X168872429Y-97810661D01*
X168872434Y-97810659D01*
X168877384Y-97809174D01*
X169077994Y-97710896D01*
X169259860Y-97581173D01*
X169418096Y-97423489D01*
X169426593Y-97411665D01*
X169548453Y-97242077D01*
X169549776Y-97243028D01*
X169596645Y-97199857D01*
X169666580Y-97187625D01*
X169732026Y-97215144D01*
X169759875Y-97246994D01*
X169819987Y-97345088D01*
X169966250Y-97513938D01*
X170138126Y-97656632D01*
X170331000Y-97769338D01*
X170539692Y-97849030D01*
X170544760Y-97850061D01*
X170544763Y-97850062D01*
X170652003Y-97871880D01*
X170758597Y-97893567D01*
X170763772Y-97893757D01*
X170763774Y-97893757D01*
X170976673Y-97901564D01*
X170976677Y-97901564D01*
X170981837Y-97901753D01*
X170986957Y-97901097D01*
X170986959Y-97901097D01*
X171198288Y-97874025D01*
X171198289Y-97874025D01*
X171203416Y-97873368D01*
X171251850Y-97858837D01*
X171412429Y-97810661D01*
X171412434Y-97810659D01*
X171417384Y-97809174D01*
X171617994Y-97710896D01*
X171799860Y-97581173D01*
X171958096Y-97423489D01*
X171966593Y-97411665D01*
X172088453Y-97242077D01*
X172089776Y-97243028D01*
X172136645Y-97199857D01*
X172206580Y-97187625D01*
X172272026Y-97215144D01*
X172299875Y-97246994D01*
X172359987Y-97345088D01*
X172506250Y-97513938D01*
X172678126Y-97656632D01*
X172871000Y-97769338D01*
X173079692Y-97849030D01*
X173084760Y-97850061D01*
X173084763Y-97850062D01*
X173192003Y-97871880D01*
X173298597Y-97893567D01*
X173303772Y-97893757D01*
X173303774Y-97893757D01*
X173516673Y-97901564D01*
X173516677Y-97901564D01*
X173521837Y-97901753D01*
X173526957Y-97901097D01*
X173526959Y-97901097D01*
X173607213Y-97890816D01*
X173743416Y-97873368D01*
X173789826Y-97859444D01*
X173860821Y-97859026D01*
X173915129Y-97891034D01*
X174131348Y-98107253D01*
X174138888Y-98115539D01*
X174143000Y-98122018D01*
X174148777Y-98127443D01*
X174192651Y-98168643D01*
X174195493Y-98171398D01*
X174215230Y-98191135D01*
X174218427Y-98193615D01*
X174227447Y-98201318D01*
X174259679Y-98231586D01*
X174266625Y-98235405D01*
X174266628Y-98235407D01*
X174277434Y-98241348D01*
X174293953Y-98252199D01*
X174309958Y-98264613D01*
X174308245Y-98266822D01*
X174347572Y-98308949D01*
X174360271Y-98378801D01*
X174333190Y-98444430D01*
X174274926Y-98484999D01*
X174234975Y-98491500D01*
X161302859Y-98491500D01*
X161234738Y-98471498D01*
X161188245Y-98417842D01*
X161178141Y-98347568D01*
X161211084Y-98279167D01*
X161215426Y-98274552D01*
X161370443Y-98109763D01*
X161493443Y-97932460D01*
X161516759Y-97898851D01*
X161516761Y-97898848D01*
X161519424Y-97895009D01*
X161530096Y-97873368D01*
X161632960Y-97664781D01*
X161632961Y-97664778D01*
X161635025Y-97660593D01*
X161714707Y-97411665D01*
X161756721Y-97153693D01*
X161758210Y-97039942D01*
X161760081Y-96897022D01*
X161760081Y-96897019D01*
X161760142Y-96892345D01*
X161724896Y-96633362D01*
X161722248Y-96624275D01*
X161661873Y-96417139D01*
X161651757Y-96382433D01*
X161542332Y-96145072D01*
X161407420Y-95939297D01*
X161401590Y-95930404D01*
X161401586Y-95930399D01*
X161399024Y-95926491D01*
X161224982Y-95731494D01*
X161024030Y-95564363D01*
X160976844Y-95535730D01*
X160804578Y-95431196D01*
X160804574Y-95431194D01*
X160800581Y-95428771D01*
X160559545Y-95327697D01*
X160306217Y-95263359D01*
X160301566Y-95262891D01*
X160301562Y-95262890D01*
X160092271Y-95241816D01*
X160089133Y-95241500D01*
X159933646Y-95241500D01*
X159931321Y-95241673D01*
X159931315Y-95241673D01*
X159744000Y-95255593D01*
X159743996Y-95255594D01*
X159739348Y-95255939D01*
X159734800Y-95256968D01*
X159734794Y-95256969D01*
X159566468Y-95295058D01*
X159484423Y-95313623D01*
X159480071Y-95315315D01*
X159480069Y-95315316D01*
X159245176Y-95406660D01*
X159245173Y-95406661D01*
X159240823Y-95408353D01*
X159013902Y-95538049D01*
X158808643Y-95699862D01*
X158795426Y-95713912D01*
X158726275Y-95787422D01*
X158665031Y-95823334D01*
X158594093Y-95820434D01*
X158535985Y-95779643D01*
X158509154Y-95713912D01*
X158508500Y-95701089D01*
X158508500Y-91046592D01*
X158528502Y-90978471D01*
X158582158Y-90931978D01*
X158652432Y-90921874D01*
X158717012Y-90951368D01*
G37*
%TD.AperFunction*%
%TA.AperFunction,Conductor*%
G36*
X164764397Y-86423321D02*
G01*
X164806781Y-86480279D01*
X164814600Y-86523973D01*
X164814600Y-86962534D01*
X164821355Y-87024716D01*
X164872485Y-87161105D01*
X164889168Y-87183365D01*
X164897465Y-87194436D01*
X164922312Y-87260942D01*
X164907259Y-87330325D01*
X164897465Y-87345564D01*
X164872485Y-87378895D01*
X164821355Y-87515284D01*
X164814600Y-87577466D01*
X164814600Y-88232534D01*
X164821355Y-88294716D01*
X164872485Y-88431105D01*
X164877871Y-88438291D01*
X164897465Y-88464436D01*
X164922312Y-88530942D01*
X164907259Y-88600325D01*
X164897465Y-88615564D01*
X164872485Y-88648895D01*
X164821355Y-88785284D01*
X164814600Y-88847466D01*
X164814600Y-89502534D01*
X164821355Y-89564716D01*
X164872485Y-89701105D01*
X164959839Y-89817661D01*
X165076395Y-89905015D01*
X165212784Y-89956145D01*
X165274966Y-89962900D01*
X166763105Y-89962900D01*
X166831226Y-89982902D01*
X166852201Y-89999805D01*
X167709596Y-90857201D01*
X167743621Y-90919513D01*
X167746500Y-90946296D01*
X167746500Y-92721692D01*
X167726498Y-92789813D01*
X167678683Y-92833453D01*
X167653607Y-92846507D01*
X167649474Y-92849610D01*
X167649471Y-92849612D01*
X167625247Y-92867800D01*
X167474965Y-92980635D01*
X167320629Y-93142138D01*
X167213201Y-93299621D01*
X167158293Y-93344621D01*
X167087768Y-93352792D01*
X167024021Y-93321538D01*
X167003324Y-93297054D01*
X166922822Y-93172617D01*
X166922820Y-93172614D01*
X166920014Y-93168277D01*
X166769670Y-93003051D01*
X166765619Y-92999852D01*
X166765615Y-92999848D01*
X166598414Y-92867800D01*
X166598410Y-92867798D01*
X166594359Y-92864598D01*
X166398789Y-92756638D01*
X166393920Y-92754914D01*
X166393916Y-92754912D01*
X166193087Y-92683795D01*
X166193083Y-92683794D01*
X166188212Y-92682069D01*
X166183119Y-92681162D01*
X166183116Y-92681161D01*
X165973373Y-92643800D01*
X165973367Y-92643799D01*
X165968284Y-92642894D01*
X165894452Y-92641992D01*
X165750081Y-92640228D01*
X165750079Y-92640228D01*
X165744911Y-92640165D01*
X165524091Y-92673955D01*
X165311756Y-92743357D01*
X165281443Y-92759137D01*
X165207017Y-92797881D01*
X165113607Y-92846507D01*
X165109474Y-92849610D01*
X165109471Y-92849612D01*
X165085247Y-92867800D01*
X164934965Y-92980635D01*
X164780629Y-93142138D01*
X164777720Y-93146403D01*
X164777714Y-93146411D01*
X164665095Y-93311504D01*
X164610184Y-93356507D01*
X164561007Y-93366500D01*
X163014594Y-93366500D01*
X162946473Y-93346498D01*
X162925499Y-93329595D01*
X161069500Y-91473595D01*
X161035474Y-91411283D01*
X161040539Y-91340467D01*
X161083086Y-91283632D01*
X161149606Y-91258821D01*
X161158595Y-91258500D01*
X161548134Y-91258500D01*
X161610316Y-91251745D01*
X161746705Y-91200615D01*
X161863261Y-91113261D01*
X161950615Y-90996705D01*
X162001745Y-90860316D01*
X162008500Y-90798134D01*
X162008500Y-89201866D01*
X162003804Y-89158634D01*
X162016333Y-89088751D01*
X162039972Y-89055932D01*
X164392247Y-86703657D01*
X164400537Y-86696113D01*
X164407018Y-86692000D01*
X164453659Y-86642332D01*
X164456413Y-86639491D01*
X164476135Y-86619769D01*
X164478619Y-86616567D01*
X164486317Y-86607555D01*
X164511161Y-86581098D01*
X164516586Y-86575321D01*
X164526347Y-86557566D01*
X164537198Y-86541047D01*
X164549614Y-86525041D01*
X164561669Y-86497183D01*
X164567174Y-86484463D01*
X164572397Y-86473801D01*
X164578186Y-86463271D01*
X164628531Y-86413213D01*
X164697948Y-86398320D01*
X164764397Y-86423321D01*
G37*
%TD.AperFunction*%
%TA.AperFunction,Conductor*%
G36*
X163932026Y-84653502D02*
G01*
X163978519Y-84707158D01*
X163988623Y-84777432D01*
X163959129Y-84842012D01*
X163953000Y-84848595D01*
X163607747Y-85193848D01*
X163599461Y-85201388D01*
X163592982Y-85205500D01*
X163587557Y-85211277D01*
X163546357Y-85255151D01*
X163543602Y-85257993D01*
X163523865Y-85277730D01*
X163521385Y-85280927D01*
X163513682Y-85289947D01*
X163483414Y-85322179D01*
X163479595Y-85329125D01*
X163479593Y-85329128D01*
X163473652Y-85339934D01*
X163462801Y-85356453D01*
X163450386Y-85372459D01*
X163447241Y-85379728D01*
X163447238Y-85379732D01*
X163432826Y-85413037D01*
X163427609Y-85423687D01*
X163406305Y-85462440D01*
X163404334Y-85470115D01*
X163404334Y-85470116D01*
X163401267Y-85482062D01*
X163394863Y-85500766D01*
X163386819Y-85519355D01*
X163385580Y-85527178D01*
X163385577Y-85527188D01*
X163379901Y-85563024D01*
X163377495Y-85574644D01*
X163366500Y-85617470D01*
X163366500Y-85637724D01*
X163364949Y-85657434D01*
X163361780Y-85677443D01*
X163362526Y-85685335D01*
X163365941Y-85721461D01*
X163366500Y-85733319D01*
X163366500Y-85885406D01*
X163346498Y-85953527D01*
X163329595Y-85974501D01*
X162133971Y-87170124D01*
X162071659Y-87204150D01*
X162000843Y-87199085D01*
X161944008Y-87156538D01*
X161919197Y-87090018D01*
X161934288Y-87020644D01*
X161944053Y-87005460D01*
X161950615Y-86996705D01*
X162001745Y-86860316D01*
X162008500Y-86798134D01*
X162008500Y-85201866D01*
X162001745Y-85139684D01*
X161963275Y-85037065D01*
X161958092Y-84966260D01*
X161992162Y-84903742D01*
X162225499Y-84670405D01*
X162287811Y-84636379D01*
X162314594Y-84633500D01*
X163863905Y-84633500D01*
X163932026Y-84653502D01*
G37*
%TD.AperFunction*%
%TA.AperFunction,Conductor*%
G36*
X164910102Y-80753502D02*
G01*
X164956595Y-80807158D01*
X164966699Y-80877432D01*
X164942807Y-80935064D01*
X164872485Y-81028895D01*
X164821355Y-81165284D01*
X164814600Y-81227466D01*
X164814600Y-81337306D01*
X164794598Y-81405427D01*
X164777695Y-81426401D01*
X163799500Y-82404595D01*
X163737188Y-82438621D01*
X163710405Y-82441500D01*
X162134500Y-82441500D01*
X162066379Y-82421498D01*
X162019886Y-82367842D01*
X162008500Y-82315500D01*
X162008500Y-81201866D01*
X162001745Y-81139684D01*
X161950615Y-81003295D01*
X161899479Y-80935064D01*
X161874631Y-80868559D01*
X161889684Y-80799177D01*
X161939858Y-80748946D01*
X162000305Y-80733500D01*
X164841981Y-80733500D01*
X164910102Y-80753502D01*
G37*
%TD.AperFunction*%
%TA.AperFunction,Conductor*%
G36*
X172424735Y-77653502D02*
G01*
X172471228Y-77707158D01*
X172481332Y-77777432D01*
X172451838Y-77842012D01*
X172443016Y-77850370D01*
X172443193Y-77850547D01*
X172325547Y-77968193D01*
X172321510Y-77975020D01*
X172281165Y-78043239D01*
X172229272Y-78091691D01*
X172159421Y-78104396D01*
X172146516Y-78102346D01*
X172101946Y-78092873D01*
X172101947Y-78092873D01*
X172095487Y-78091500D01*
X171904513Y-78091500D01*
X171898061Y-78092872D01*
X171898056Y-78092872D01*
X171811112Y-78111353D01*
X171717712Y-78131206D01*
X171711682Y-78133891D01*
X171711681Y-78133891D01*
X171549278Y-78206197D01*
X171549276Y-78206198D01*
X171543248Y-78208882D01*
X171388747Y-78321134D01*
X171260960Y-78463056D01*
X171165473Y-78628444D01*
X171106458Y-78810072D01*
X171086496Y-79000000D01*
X171106458Y-79189928D01*
X171108498Y-79196206D01*
X171142731Y-79301564D01*
X171144759Y-79372531D01*
X171108096Y-79433329D01*
X171044384Y-79464655D01*
X171022898Y-79466500D01*
X167967843Y-79466500D01*
X167899722Y-79446498D01*
X167878748Y-79429595D01*
X167845405Y-79396252D01*
X167811379Y-79333940D01*
X167808500Y-79307157D01*
X167808500Y-78308498D01*
X167805562Y-78271169D01*
X167776528Y-78171231D01*
X167761357Y-78119012D01*
X167761356Y-78119010D01*
X167759145Y-78111399D01*
X167718835Y-78043239D01*
X167678491Y-77975020D01*
X167678489Y-77975017D01*
X167674453Y-77968193D01*
X167666802Y-77960542D01*
X167665713Y-77958547D01*
X167663989Y-77956325D01*
X167664347Y-77956047D01*
X167632776Y-77898230D01*
X167637841Y-77827415D01*
X167666802Y-77782352D01*
X167778749Y-77670405D01*
X167841061Y-77636379D01*
X167867844Y-77633500D01*
X172356614Y-77633500D01*
X172424735Y-77653502D01*
G37*
%TD.AperFunction*%
%TD*%
M02*
