%TF.GenerationSoftware,KiCad,Pcbnew,(6.0.1)*%
%TF.CreationDate,2022-04-14T01:05:28-05:00*%
%TF.ProjectId,DRV2605LDGSR,44525632-3630-4354-9c44-4753522e6b69,rev?*%
%TF.SameCoordinates,Original*%
%TF.FileFunction,Soldermask,Top*%
%TF.FilePolarity,Negative*%
%FSLAX46Y46*%
G04 Gerber Fmt 4.6, Leading zero omitted, Abs format (unit mm)*
G04 Created by KiCad (PCBNEW (6.0.1)) date 2022-04-14 01:05:28*
%MOMM*%
%LPD*%
G01*
G04 APERTURE LIST*
G04 Aperture macros list*
%AMRoundRect*
0 Rectangle with rounded corners*
0 $1 Rounding radius*
0 $2 $3 $4 $5 $6 $7 $8 $9 X,Y pos of 4 corners*
0 Add a 4 corners polygon primitive as box body*
4,1,4,$2,$3,$4,$5,$6,$7,$8,$9,$2,$3,0*
0 Add four circle primitives for the rounded corners*
1,1,$1+$1,$2,$3*
1,1,$1+$1,$4,$5*
1,1,$1+$1,$6,$7*
1,1,$1+$1,$8,$9*
0 Add four rect primitives between the rounded corners*
20,1,$1+$1,$2,$3,$4,$5,0*
20,1,$1+$1,$4,$5,$6,$7,0*
20,1,$1+$1,$6,$7,$8,$9,0*
20,1,$1+$1,$8,$9,$2,$3,0*%
G04 Aperture macros list end*
%ADD10O,1.801600X1.801600*%
%ADD11RoundRect,0.050800X-0.850000X-0.850000X0.850000X-0.850000X0.850000X0.850000X-0.850000X0.850000X0*%
%ADD12O,1.801599X0.401599*%
G04 APERTURE END LIST*
D10*
%TO.C,J2*%
X154940000Y-58420000D03*
X154940000Y-60960000D03*
D11*
X154940000Y-63500000D03*
D10*
X154940000Y-66040000D03*
X154940000Y-68580000D03*
%TD*%
%TO.C,J1*%
X144780000Y-68580000D03*
X144780000Y-66040000D03*
X144780000Y-63500000D03*
X144780000Y-60960000D03*
X144780000Y-58420000D03*
%TD*%
D12*
%TO.C,U1*%
X151910001Y-62499999D03*
X151910001Y-62999998D03*
X151910001Y-63500000D03*
X151910001Y-63999999D03*
X151910001Y-64500001D03*
X147810002Y-64500001D03*
X147810002Y-63999999D03*
X147810002Y-63500000D03*
X147810002Y-62999998D03*
X147810002Y-62499999D03*
%TD*%
G36*
X152607912Y-64199798D02*
G01*
X152607912Y-64201798D01*
X152607291Y-64202461D01*
X152576333Y-64223146D01*
X152569115Y-64259430D01*
X152589791Y-64290372D01*
X152606645Y-64297354D01*
X152607863Y-64298941D01*
X152607097Y-64300789D01*
X152605880Y-64301202D01*
X151213822Y-64301202D01*
X151212090Y-64300202D01*
X151212090Y-64298202D01*
X151212711Y-64297539D01*
X151243669Y-64276854D01*
X151250887Y-64240570D01*
X151230211Y-64209628D01*
X151213357Y-64202646D01*
X151212139Y-64201059D01*
X151212905Y-64199211D01*
X151214122Y-64198798D01*
X152606180Y-64198798D01*
X152607912Y-64199798D01*
G37*
G36*
X148507913Y-64199798D02*
G01*
X148507913Y-64201798D01*
X148507292Y-64202461D01*
X148476334Y-64223146D01*
X148469116Y-64259430D01*
X148489792Y-64290372D01*
X148506646Y-64297354D01*
X148507864Y-64298941D01*
X148507098Y-64300789D01*
X148505881Y-64301202D01*
X147113823Y-64301202D01*
X147112091Y-64300202D01*
X147112091Y-64298202D01*
X147112712Y-64297539D01*
X147143670Y-64276854D01*
X147150888Y-64240570D01*
X147130212Y-64209628D01*
X147113358Y-64202646D01*
X147112140Y-64201059D01*
X147112906Y-64199211D01*
X147114123Y-64198798D01*
X148506181Y-64198798D01*
X148507913Y-64199798D01*
G37*
G36*
X152607918Y-63699799D02*
G01*
X152607918Y-63701799D01*
X152607297Y-63702462D01*
X152576340Y-63723146D01*
X152569123Y-63759430D01*
X152589799Y-63790373D01*
X152606648Y-63797352D01*
X152607866Y-63798939D01*
X152607101Y-63800787D01*
X152605883Y-63801200D01*
X151213817Y-63801200D01*
X151212085Y-63800200D01*
X151212085Y-63798200D01*
X151212706Y-63797537D01*
X151243661Y-63776854D01*
X151250879Y-63740570D01*
X151230203Y-63709628D01*
X151213352Y-63702647D01*
X151212134Y-63701060D01*
X151212900Y-63699212D01*
X151214117Y-63698799D01*
X152606186Y-63698799D01*
X152607918Y-63699799D01*
G37*
G36*
X148507919Y-63699799D02*
G01*
X148507919Y-63701799D01*
X148507298Y-63702462D01*
X148476341Y-63723146D01*
X148469124Y-63759430D01*
X148489800Y-63790373D01*
X148506649Y-63797352D01*
X148507867Y-63798939D01*
X148507102Y-63800787D01*
X148505884Y-63801200D01*
X147113818Y-63801200D01*
X147112086Y-63800200D01*
X147112086Y-63798200D01*
X147112707Y-63797537D01*
X147143662Y-63776854D01*
X147150880Y-63740570D01*
X147130204Y-63709628D01*
X147113353Y-63702647D01*
X147112135Y-63701060D01*
X147112901Y-63699212D01*
X147114118Y-63698799D01*
X148506187Y-63698799D01*
X148507919Y-63699799D01*
G37*
G36*
X152607912Y-63199797D02*
G01*
X152607912Y-63201797D01*
X152607291Y-63202460D01*
X152576333Y-63223145D01*
X152569115Y-63259429D01*
X152589791Y-63290371D01*
X152606645Y-63297353D01*
X152607863Y-63298940D01*
X152607097Y-63300788D01*
X152605880Y-63301201D01*
X151213822Y-63301201D01*
X151212090Y-63300201D01*
X151212090Y-63298201D01*
X151212711Y-63297538D01*
X151243669Y-63276853D01*
X151250887Y-63240569D01*
X151230211Y-63209627D01*
X151213357Y-63202645D01*
X151212139Y-63201058D01*
X151212905Y-63199210D01*
X151214122Y-63198797D01*
X152606180Y-63198797D01*
X152607912Y-63199797D01*
G37*
G36*
X148507913Y-63199797D02*
G01*
X148507913Y-63201797D01*
X148507292Y-63202460D01*
X148476334Y-63223145D01*
X148469116Y-63259429D01*
X148489792Y-63290371D01*
X148506646Y-63297353D01*
X148507864Y-63298940D01*
X148507098Y-63300788D01*
X148505881Y-63301201D01*
X147113823Y-63301201D01*
X147112091Y-63300201D01*
X147112091Y-63298201D01*
X147112712Y-63297538D01*
X147143670Y-63276853D01*
X147150888Y-63240569D01*
X147130212Y-63209627D01*
X147113358Y-63202645D01*
X147112140Y-63201058D01*
X147112906Y-63199210D01*
X147114123Y-63198797D01*
X148506181Y-63198797D01*
X148507913Y-63199797D01*
G37*
G36*
X152607918Y-62699798D02*
G01*
X152607918Y-62701798D01*
X152607297Y-62702461D01*
X152576340Y-62723145D01*
X152569123Y-62759429D01*
X152589799Y-62790372D01*
X152606648Y-62797351D01*
X152607866Y-62798938D01*
X152607101Y-62800786D01*
X152605883Y-62801199D01*
X151213817Y-62801199D01*
X151212085Y-62800199D01*
X151212085Y-62798199D01*
X151212706Y-62797536D01*
X151243661Y-62776853D01*
X151250879Y-62740569D01*
X151230203Y-62709627D01*
X151213352Y-62702646D01*
X151212134Y-62701059D01*
X151212900Y-62699211D01*
X151214117Y-62698798D01*
X152606186Y-62698798D01*
X152607918Y-62699798D01*
G37*
G36*
X148507919Y-62699798D02*
G01*
X148507919Y-62701798D01*
X148507298Y-62702461D01*
X148476341Y-62723145D01*
X148469124Y-62759429D01*
X148489800Y-62790372D01*
X148506649Y-62797351D01*
X148507867Y-62798938D01*
X148507102Y-62800786D01*
X148505884Y-62801199D01*
X147113818Y-62801199D01*
X147112086Y-62800199D01*
X147112086Y-62798199D01*
X147112707Y-62797536D01*
X147143662Y-62776853D01*
X147150880Y-62740569D01*
X147130204Y-62709627D01*
X147113353Y-62702646D01*
X147112135Y-62701059D01*
X147112901Y-62699211D01*
X147114118Y-62698798D01*
X148506187Y-62698798D01*
X148507919Y-62699798D01*
G37*
M02*
